<?xml version="1.0" encoding="UTF-8" ?>
<!DOCTYPE svg PUBLIC "-//W3C//DTD SVG 1.1//EN" "http://www.w3.org/Graphics/SVG/1.1/DTD/svg11.dtd">
<svg width="200pt" height="200pt" viewBox="0 0 200 200" version="1.1" xmlns="http://www.w3.org/2000/svg">
<g id="#abababff">
<path fill="#ababab" opacity="1.00" d=" M 74.07 18.86 C 85.01 17.93 95.95 17.02 106.88 16.09 C 111.74 15.85 116.88 15.16 121.43 17.32 C 138.74 24.83 156.36 31.85 172.67 41.42 C 176.71 43.09 177.16 49.35 173.89 51.96 C 171.09 53.83 167.67 52.66 164.69 52.03 C 170.80 59.72 175.59 68.39 179.52 77.37 C 181.10 80.79 179.32 85.29 175.46 86.06 C 178.13 91.58 181.55 96.89 182.92 102.92 C 183.93 107.02 180.05 110.96 175.94 109.89 C 171.67 108.59 167.66 106.55 163.52 104.90 C 164.55 112.78 165.17 120.72 166.11 128.62 C 169.06 129.31 172.34 130.46 173.70 133.44 C 175.96 137.13 175.06 141.65 173.17 145.29 C 167.47 156.96 162.18 168.83 156.38 180.44 C 152.85 187.20 141.11 186.86 138.40 179.56 C 136.47 174.06 135.02 168.41 133.26 162.86 C 127.34 168.11 121.25 173.35 114.16 176.97 C 101.24 183.22 85.05 182.09 73.25 173.86 C 68.34 170.37 63.26 166.86 59.50 162.09 C 57.96 167.81 56.28 173.49 54.42 179.11 C 52.14 187.09 38.87 187.50 35.92 179.85 C 30.34 168.22 24.84 156.55 19.37 144.87 C 17.27 140.56 16.90 134.39 20.92 131.06 C 22.98 129.07 25.97 128.56 28.73 128.65 C 24.95 121.60 24.47 112.90 27.81 105.58 C 23.49 105.50 20.58 101.25 21.62 97.17 C 24.60 80.89 28.50 64.63 35.39 49.52 C 37.15 46.00 38.86 42.38 41.43 39.37 C 44.46 35.75 50.18 37.68 53.35 34.37 C 58.51 29.78 63.08 24.53 68.62 20.37 C 70.14 19.13 72.22 19.14 74.07 18.86 M 113.08 22.31 C 99.59 23.58 86.05 24.40 72.59 25.88 C 68.53 28.97 65.06 32.77 61.21 36.13 C 58.31 38.51 56.01 42.23 51.94 42.57 C 49.65 43.26 46.41 42.78 45.26 45.39 C 35.85 61.46 31.59 79.94 28.24 98.09 C 30.84 95.71 33.40 93.29 36.03 90.94 C 37.39 96.69 38.69 102.46 39.90 108.24 L 39.09 107.23 C 38.68 105.93 38.32 104.61 37.96 103.31 C 34.41 105.80 31.74 109.65 31.58 114.09 C 30.78 123.28 36.09 131.52 42.21 137.85 C 37.13 136.83 32.19 134.96 27.03 134.52 C 23.45 134.85 23.27 139.10 24.45 141.68 C 29.82 153.26 35.37 164.76 40.77 176.32 C 41.67 180.34 48.49 180.42 49.19 176.25 C 51.77 167.86 54.25 159.44 56.80 151.05 C 64.30 159.31 72.52 167.35 82.63 172.32 C 92.92 176.51 105.44 175.96 114.84 169.78 C 122.79 164.75 129.55 158.10 135.92 151.23 C 138.28 159.17 140.71 167.08 143.06 175.02 C 143.56 176.41 143.88 178.07 145.22 178.92 C 147.31 179.44 150.36 179.81 151.32 177.33 C 156.84 166.10 161.99 154.68 167.45 143.41 C 168.12 141.99 168.82 140.56 169.16 139.01 C 169.54 136.30 166.75 133.84 164.10 134.61 C 159.36 135.54 154.69 136.84 150.00 137.99 C 152.03 136.16 153.95 134.19 155.41 131.86 L 156.37 132.03 C 157.23 132.34 158.94 132.95 159.80 133.26 C 158.96 125.19 158.14 117.13 157.28 109.07 C 156.74 103.83 154.92 98.86 153.76 93.75 C 161.23 96.77 168.66 99.90 176.14 102.89 C 170.73 90.31 163.88 78.36 155.99 67.18 C 161.77 70.33 167.07 74.26 172.50 77.97 C 166.08 64.22 157.44 51.00 145.01 41.98 C 152.10 43.04 159.13 44.41 166.19 45.61 C 151.95 37.25 136.49 31.21 121.40 24.57 C 118.73 23.52 116.08 21.75 113.08 22.31 Z" />
</g>
<g id="#040519ff">
<path fill="#040519" opacity="1.00" d=" M 113.08 22.31 C 116.08 21.75 118.73 23.52 121.40 24.57 C 136.49 31.21 151.95 37.25 166.19 45.61 C 159.13 44.41 152.10 43.04 145.01 41.98 C 157.44 51.00 166.08 64.22 172.50 77.97 C 167.07 74.26 161.77 70.33 155.99 67.18 C 163.88 78.36 170.73 90.31 176.14 102.89 C 168.66 99.90 161.23 96.77 153.76 93.75 C 154.92 98.86 156.74 103.83 157.28 109.07 C 158.14 117.13 158.96 125.19 159.80 133.26 C 158.94 132.95 157.23 132.34 156.37 132.03 C 151.40 129.66 146.55 127.02 141.70 124.39 C 140.86 127.45 139.97 130.50 139.04 133.53 C 137.84 129.79 138.03 125.83 138.79 122.02 C 138.13 122.02 136.83 122.02 136.17 122.02 C 138.00 119.01 140.57 115.84 139.95 112.09 C 137.31 108.73 133.54 105.26 128.91 105.81 C 122.39 106.03 115.87 104.84 109.36 105.62 C 102.42 101.50 95.54 97.29 88.65 93.10 C 91.24 99.27 93.71 105.48 96.32 111.64 C 94.91 111.73 93.51 111.77 92.10 111.77 C 88.64 110.15 86.34 106.63 82.63 105.44 C 79.98 105.05 77.30 105.42 74.64 105.42 C 69.93 99.51 65.81 93.15 61.85 86.72 C 59.48 94.55 56.57 102.22 54.68 110.19 C 53.90 110.98 53.14 111.80 52.39 112.62 C 54.53 117.07 52.72 122.28 55.33 126.55 C 55.58 129.44 55.72 132.33 55.74 135.22 L 54.37 136.25 C 53.00 131.65 51.63 127.06 50.45 122.42 C 49.15 126.76 47.78 131.09 46.34 135.39 C 43.77 126.45 42.21 117.25 39.90 108.24 C 38.69 102.46 37.39 96.69 36.03 90.94 C 33.40 93.29 30.84 95.71 28.24 98.09 C 31.59 79.94 35.85 61.46 45.26 45.39 C 46.41 42.78 49.65 43.26 51.94 42.57 C 56.01 42.23 58.31 38.51 61.21 36.13 C 65.06 32.77 68.53 28.97 72.59 25.88 C 86.05 24.40 99.59 23.58 113.08 22.31 Z" />
</g>
<g id="#fae1cbff">
<path fill="#fae1cb" opacity="1.00" d=" M 54.68 110.19 C 56.57 102.22 59.48 94.55 61.85 86.72 C 65.81 93.15 69.93 99.51 74.64 105.42 C 70.47 105.45 66.29 105.21 62.12 105.42 C 58.97 105.54 56.89 108.30 54.68 110.19 Z" />
</g>
<g id="#f9e1cbff">
<path fill="#f9e1cb" opacity="1.00" d=" M 88.65 93.10 C 95.54 97.29 102.42 101.50 109.36 105.62 C 106.46 107.30 104.04 109.65 101.61 111.93 C 99.85 111.77 98.09 111.61 96.32 111.64 C 93.71 105.48 91.24 99.27 88.65 93.10 Z" />
<path fill="#f9e1cb" opacity="1.00" d=" M 98.07 115.11 C 99.35 115.35 100.63 115.63 101.91 115.91 C 103.06 118.81 103.90 121.88 105.55 124.55 C 107.04 126.57 109.84 126.12 112.03 126.23 C 118.71 126.08 125.41 126.39 132.08 126.09 C 134.34 126.15 135.52 124.02 136.27 122.23 C 136.65 122.95 137.04 123.68 137.42 124.41 C 137.06 129.59 136.97 134.79 136.62 139.97 C 136.37 143.99 133.88 147.37 131.21 150.20 C 125.54 156.26 119.41 162.03 112.34 166.44 C 105.75 170.75 97.38 171.57 89.77 170.13 C 83.10 168.97 77.59 164.68 72.48 160.52 C 67.80 156.52 63.29 152.27 59.40 147.49 C 56.63 144.04 55.63 139.58 55.74 135.22 C 55.72 132.33 55.58 129.44 55.33 126.55 C 55.25 124.27 55.19 121.98 55.09 119.70 C 56.54 122.15 57.51 126.00 60.96 126.10 C 68.67 126.26 76.39 126.24 84.09 126.11 C 87.51 126.18 88.50 122.45 89.54 119.91 C 97.07 127.06 104.63 134.18 112.29 141.20 C 107.63 132.46 102.85 123.79 98.07 115.11 Z" />
</g>
<g id="#010000ff">
<path fill="#010000" opacity="1.00" d=" M 31.58 114.09 C 31.74 109.65 34.41 105.80 37.96 103.31 C 38.32 104.61 38.68 105.93 39.09 107.23 C 37.56 109.58 35.83 112.04 35.78 114.97 C 35.47 121.61 38.85 127.85 43.26 132.59 C 44.79 134.10 45.69 136.05 46.09 138.15 C 46.30 137.69 46.74 136.77 46.96 136.31 C 49.86 137.89 52.70 139.59 55.70 141.00 C 55.26 139.41 54.83 137.83 54.37 136.25 L 55.74 135.22 C 55.63 139.58 56.63 144.04 59.40 147.49 C 63.29 152.27 67.80 156.52 72.48 160.52 C 77.59 164.68 83.10 168.97 89.77 170.13 C 97.38 171.57 105.75 170.75 112.34 166.44 C 119.41 162.03 125.54 156.26 131.21 150.20 C 133.88 147.37 136.37 143.99 136.62 139.97 C 136.97 134.79 137.06 129.59 137.42 124.41 C 137.04 123.68 136.65 122.95 136.27 122.23 C 135.52 124.02 134.34 126.15 132.08 126.09 C 125.41 126.39 118.71 126.08 112.03 126.23 C 109.84 126.12 107.04 126.57 105.55 124.55 C 103.90 121.88 103.06 118.81 101.91 115.91 C 100.63 115.63 99.35 115.35 98.07 115.11 C 95.59 115.38 93.16 115.99 90.74 116.57 C 90.35 117.68 89.94 118.80 89.54 119.91 C 88.50 122.45 87.51 126.18 84.09 126.11 C 76.39 126.24 68.67 126.26 60.96 126.10 C 57.51 126.00 56.54 122.15 55.09 119.70 C 55.19 121.98 55.25 124.27 55.33 126.55 C 52.72 122.28 54.53 117.07 52.39 112.62 C 53.14 111.80 53.90 110.98 54.68 110.19 C 56.89 108.30 58.97 105.54 62.12 105.42 C 66.29 105.21 70.47 105.45 74.64 105.42 C 77.30 105.42 79.98 105.05 82.63 105.44 C 86.34 106.63 88.64 110.15 92.10 111.77 C 93.51 111.77 94.91 111.73 96.32 111.64 C 98.09 111.61 99.85 111.77 101.61 111.93 C 104.04 109.65 106.46 107.30 109.36 105.62 C 115.87 104.84 122.39 106.03 128.91 105.81 C 133.54 105.26 137.31 108.73 139.95 112.09 C 140.57 115.84 138.00 119.01 136.17 122.02 C 136.83 122.02 138.13 122.02 138.79 122.02 C 138.03 125.83 137.84 129.79 139.04 133.53 C 138.32 136.03 137.65 138.54 136.99 141.05 C 142.64 138.80 147.63 135.20 151.61 130.60 C 152.86 131.07 154.13 131.49 155.41 131.86 C 153.95 134.19 152.03 136.16 150.00 137.99 C 154.69 136.84 159.36 135.54 164.10 134.61 C 166.75 133.84 169.54 136.30 169.16 139.01 C 168.82 140.56 168.12 141.99 167.45 143.41 C 161.99 154.68 156.84 166.10 151.32 177.33 C 150.36 179.81 147.31 179.44 145.22 178.92 C 143.88 178.07 143.56 176.41 143.06 175.02 C 140.71 167.08 138.28 159.17 135.92 151.23 C 129.55 158.10 122.79 164.75 114.84 169.78 C 105.44 175.96 92.92 176.51 82.63 172.32 C 72.52 167.35 64.30 159.31 56.80 151.05 C 54.25 159.44 51.77 167.86 49.19 176.25 C 48.49 180.42 41.67 180.34 40.77 176.32 C 35.37 164.76 29.82 153.26 24.45 141.68 C 23.27 139.10 23.45 134.85 27.03 134.52 C 32.19 134.96 37.13 136.83 42.21 137.85 C 36.09 131.52 30.78 123.28 31.58 114.09 M 61.34 109.25 C 59.60 110.78 56.55 112.22 56.93 114.93 C 57.86 117.62 59.40 120.03 60.69 122.55 C 68.56 122.60 76.45 122.77 84.31 122.49 C 86.02 119.77 86.82 116.59 87.92 113.60 C 85.98 112.12 84.38 110.08 82.14 109.07 C 75.22 109.04 68.22 108.69 61.34 109.25 M 105.13 114.03 C 105.99 116.97 107.27 119.77 108.45 122.59 C 116.36 122.49 124.32 122.93 132.20 122.39 C 133.92 119.55 135.78 116.61 136.18 113.24 C 134.49 111.85 133.08 109.96 131.04 109.07 C 124.34 108.92 117.62 108.92 110.92 109.07 C 108.67 110.09 106.48 112.01 105.13 114.03 M 27.73 138.69 C 29.82 143.16 31.89 147.63 34.05 152.07 L 33.87 152.39 C 35.29 155.52 36.78 158.62 38.25 161.73 L 38.65 161.84 C 40.85 166.29 42.66 170.92 45.20 175.19 C 46.32 171.62 47.36 168.03 48.47 164.46 L 48.80 164.55 C 49.35 162.66 49.96 160.78 50.28 158.84 C 51.44 154.22 52.97 149.70 54.29 145.13 C 50.75 144.25 47.20 143.39 43.65 142.55 L 43.44 142.01 C 42.21 141.91 40.97 141.80 39.74 141.68 L 39.84 141.49 C 35.77 140.70 31.76 139.63 27.73 138.69 M 152.43 141.53 L 152.56 141.70 C 151.87 141.82 150.50 142.07 149.81 142.19 C 146.11 143.41 142.29 144.19 138.51 145.11 C 139.78 149.41 141.11 153.70 142.32 158.03 L 142.11 158.45 C 142.77 160.45 143.49 162.44 144.25 164.41 C 145.46 168.01 146.49 171.66 147.58 175.29 C 150.04 170.94 151.98 166.34 154.14 161.85 L 154.64 161.72 C 155.89 158.76 157.46 155.94 158.55 152.91 C 160.47 148.06 162.94 143.44 165.09 138.69 C 160.87 139.65 156.71 140.86 152.43 141.53 Z" />
</g>
<g id="#eac9aeff">
<path fill="#eac9ae" opacity="1.00" d=" M 35.78 114.97 C 35.83 112.04 37.56 109.58 39.09 107.23 L 39.90 108.24 C 42.21 117.25 43.77 126.45 46.34 135.39 C 47.78 131.09 49.15 126.76 50.45 122.42 C 51.63 127.06 53.00 131.65 54.37 136.25 C 54.83 137.83 55.26 139.41 55.70 141.00 C 52.70 139.59 49.86 137.89 46.96 136.31 C 46.74 136.77 46.30 137.69 46.09 138.15 C 45.69 136.05 44.79 134.10 43.26 132.59 C 38.85 127.85 35.47 121.61 35.78 114.97 Z" />
<path fill="#eac9ae" opacity="1.00" d=" M 141.70 124.39 C 146.55 127.02 151.40 129.66 156.37 132.03 L 155.41 131.86 C 154.13 131.49 152.86 131.07 151.61 130.60 C 147.63 135.20 142.64 138.80 136.99 141.05 C 137.65 138.54 138.32 136.03 139.04 133.53 C 139.97 130.50 140.86 127.45 141.70 124.39 Z" />
</g>
<g id="#fbf2e7ff">
<path fill="#fbf2e7" opacity="1.00" d=" M 61.34 109.25 C 68.22 108.69 75.22 109.04 82.14 109.07 C 84.38 110.08 85.98 112.12 87.92 113.60 C 86.82 116.59 86.02 119.77 84.31 122.49 C 76.45 122.77 68.56 122.60 60.69 122.55 C 59.40 120.03 57.86 117.62 56.93 114.93 C 56.55 112.22 59.60 110.78 61.34 109.25 Z" />
<path fill="#fbf2e7" opacity="1.00" d=" M 105.13 114.03 C 106.48 112.01 108.67 110.09 110.92 109.07 C 117.62 108.92 124.34 108.92 131.04 109.07 C 133.08 109.96 134.49 111.85 136.18 113.24 C 135.78 116.61 133.92 119.55 132.20 122.39 C 124.32 122.93 116.36 122.49 108.45 122.59 C 107.27 119.77 105.99 116.97 105.13 114.03 Z" />
</g>
<g id="#05051dff">
<path fill="#05051d" opacity="1.00" d=" M 90.74 116.57 C 93.16 115.99 95.59 115.38 98.07 115.11 C 102.85 123.79 107.63 132.46 112.29 141.20 C 104.63 134.18 97.07 127.06 89.54 119.91 C 89.94 118.80 90.35 117.68 90.74 116.57 Z" />
</g>
<g id="#bab6a6ff">
<path fill="#bab6a6" opacity="1.00" d=" M 27.73 138.69 C 31.76 139.63 35.77 140.70 39.84 141.49 L 39.74 141.68 C 37.85 145.15 36.00 148.64 34.05 152.07 C 31.89 147.63 29.82 143.16 27.73 138.69 Z" />
</g>
<g id="#b9b6aaff">
<path fill="#b9b6aa" opacity="1.00" d=" M 152.43 141.53 C 156.71 140.86 160.87 139.65 165.09 138.69 C 162.94 143.44 160.47 148.06 158.55 152.91 C 157.24 148.86 155.26 145.00 152.56 141.70 L 152.43 141.53 Z" />
</g>
<g id="#1954a4ff">
<path fill="#1954a4" opacity="1.00" d=" M 39.74 141.68 C 40.97 141.80 42.21 141.91 43.44 142.01 L 43.65 142.55 C 45.66 148.06 48.66 153.19 50.28 158.84 C 49.96 160.78 49.35 162.66 48.80 164.55 L 48.47 164.46 C 45.18 163.63 41.92 162.75 38.65 161.84 L 38.25 161.73 C 36.78 158.62 35.29 155.52 33.87 152.39 L 34.05 152.07 C 36.00 148.64 37.85 145.15 39.74 141.68 Z" />
</g>
<g id="#b8b7a7ff">
<path fill="#b8b7a7" opacity="1.00" d=" M 138.51 145.11 C 142.29 144.19 146.11 143.41 149.81 142.19 C 146.68 147.15 145.13 152.89 142.32 158.03 C 141.11 153.70 139.78 149.41 138.51 145.11 Z" />
</g>
<g id="#1754a5ff">
<path fill="#1754a5" opacity="1.00" d=" M 149.81 142.19 C 150.50 142.07 151.87 141.82 152.56 141.70 C 155.26 145.00 157.24 148.86 158.55 152.91 C 157.46 155.94 155.89 158.76 154.64 161.72 L 154.14 161.85 C 150.85 162.74 147.56 163.60 144.25 164.41 C 143.49 162.44 142.77 160.45 142.11 158.45 L 142.32 158.03 C 145.13 152.89 146.68 147.15 149.81 142.19 Z" />
</g>
<g id="#b8b5a6ff">
<path fill="#b8b5a6" opacity="1.00" d=" M 43.65 142.55 C 47.20 143.39 50.75 144.25 54.29 145.13 C 52.97 149.70 51.44 154.22 50.28 158.84 C 48.66 153.19 45.66 148.06 43.65 142.55 Z" />
</g>
<g id="#b8b4abff">
<path fill="#b8b4ab" opacity="1.00" d=" M 38.65 161.84 C 41.92 162.75 45.18 163.63 48.47 164.46 C 47.36 168.03 46.32 171.62 45.20 175.19 C 42.66 170.92 40.85 166.29 38.65 161.84 Z" />
</g>
<g id="#b7b6a8ff">
<path fill="#b7b6a8" opacity="1.00" d=" M 144.25 164.41 C 147.56 163.60 150.85 162.74 154.14 161.85 C 151.98 166.34 150.04 170.94 147.58 175.29 C 146.49 171.66 145.46 168.01 144.25 164.41 Z" />
</g>
</svg>
