<?xml version="1.0" encoding="UTF-8" ?>
<!DOCTYPE svg PUBLIC "-//W3C//DTD SVG 1.1//EN" "http://www.w3.org/Graphics/SVG/1.1/DTD/svg11.dtd">
<svg width="200pt" height="200pt" viewBox="0 0 200 200" version="1.1" xmlns="http://www.w3.org/2000/svg">
<g id="#000000ff">
<path fill="#000000" opacity="1.00" d=" M 45.25 48.34 C 55.11 31.84 72.78 20.04 91.96 17.98 C 100.38 17.67 109.04 17.20 117.20 19.72 C 135.89 24.82 151.77 38.98 159.09 56.90 C 162.75 65.46 164.06 74.80 164.05 84.05 C 168.28 90.25 172.04 97.23 172.02 104.97 C 172.96 117.72 166.40 131.47 154.30 136.66 C 151.53 146.30 147.80 155.79 142.03 164.05 C 140.01 166.87 136.52 165.07 134.02 164.05 C 125.44 172.38 115.72 182.00 102.96 182.25 C 97.32 182.49 91.39 182.28 86.27 179.65 C 78.55 175.89 72.18 169.96 66.14 163.96 C 63.61 165.06 59.95 166.93 57.91 163.97 C 52.15 155.71 48.47 146.22 45.66 136.61 C 29.72 129.75 24.03 108.87 30.47 93.58 C 31.69 90.08 34.24 87.30 35.95 84.08 C 35.78 71.61 38.67 59.01 45.25 48.34 M 87.09 22.65 C 70.62 26.24 55.97 37.20 47.84 51.97 C 42.01 62.27 39.58 74.25 40.29 86.02 C 36.93 89.69 34.34 94.10 33.14 98.96 C 29.42 112.32 35.59 129.05 49.42 133.68 C 51.56 143.47 55.62 152.90 61.20 161.22 L 62.48 160.49 C 62.56 160.38 62.72 160.15 62.80 160.03 C 64.30 160.01 65.64 159.43 66.88 158.62 C 73.39 165.36 80.28 172.11 88.81 176.23 C 97.72 179.64 108.50 179.07 116.44 173.50 C 122.61 169.47 127.99 164.36 133.07 159.06 C 134.51 159.53 135.94 160.02 137.36 160.53 C 137.78 160.70 138.63 161.05 139.05 161.22 C 144.38 152.75 148.63 143.51 150.66 133.67 C 154.30 132.28 157.78 130.29 160.39 127.35 C 170.69 116.15 170.46 97.00 159.82 86.10 C 159.89 79.72 159.85 73.23 158.18 67.03 C 154.21 50.30 142.63 35.56 127.26 27.81 C 115.03 21.37 100.55 19.90 87.09 22.65 Z" />
</g>
<g id="#d84237ff">
<path fill="#d84237" opacity="1.00" d=" M 87.09 22.65 C 100.55 19.90 115.03 21.37 127.26 27.81 C 142.63 35.56 154.21 50.30 158.18 67.03 C 159.85 73.23 159.89 79.72 159.82 86.10 C 159.58 97.10 159.11 108.24 155.96 118.86 C 154.64 123.95 152.26 128.67 150.66 133.67 C 148.63 143.51 144.38 152.75 139.05 161.22 C 138.63 161.05 137.78 160.70 137.36 160.53 L 137.39 160.30 C 142.46 144.13 147.59 127.82 149.50 110.90 C 150.19 105.92 150.71 100.88 150.19 95.85 C 147.90 98.82 145.74 101.89 143.44 104.86 C 140.27 107.94 136.90 110.83 133.25 113.33 C 123.38 119.55 111.80 123.67 100.01 122.81 C 88.21 123.70 76.68 119.49 66.80 113.30 C 63.16 110.77 59.80 107.86 56.57 104.83 C 54.31 101.86 52.19 98.79 49.88 95.86 C 49.09 118.07 56.59 139.38 62.48 160.49 L 61.20 161.22 C 55.62 152.90 51.56 143.47 49.42 133.68 C 47.83 128.72 45.44 124.04 44.17 118.97 C 41.03 108.29 40.48 97.09 40.29 86.02 C 39.58 74.25 42.01 62.27 47.84 51.97 C 55.97 37.20 70.62 26.24 87.09 22.65 M 53.60 51.88 C 52.49 60.48 51.01 69.23 52.61 77.86 C 53.74 85.88 58.44 93.51 65.68 97.37 C 74.20 101.83 83.82 103.69 93.34 104.37 C 91.38 108.04 88.12 110.67 84.92 113.22 C 86.55 114.29 88.18 115.36 89.81 116.42 C 92.18 113.93 94.56 111.45 96.99 109.02 C 96.78 111.70 96.50 114.38 96.07 117.03 C 98.37 117.04 100.67 117.05 102.98 117.05 C 102.55 114.40 102.21 111.74 101.97 109.07 C 104.40 111.50 106.81 113.95 109.24 116.40 C 110.83 115.36 112.41 114.29 113.97 113.20 C 110.81 110.66 107.56 108.05 105.68 104.36 C 111.30 103.82 116.97 103.27 122.40 101.61 C 130.21 99.54 138.28 95.90 142.51 88.61 C 149.06 77.53 147.19 64.05 145.36 51.94 C 136.77 54.71 128.87 59.31 120.57 62.85 C 121.07 67.46 121.82 72.38 119.86 76.78 C 117.69 82.30 111.99 85.76 106.20 86.18 C 108.10 82.50 110.03 78.84 111.70 75.05 C 108.56 76.52 105.46 78.28 102.00 78.87 C 99.42 79.42 96.38 79.26 94.43 81.35 C 92.98 82.51 92.60 84.41 91.97 86.05 C 85.95 85.46 80.19 81.30 78.63 75.31 C 77.22 71.29 77.92 67.00 78.45 62.88 C 70.13 59.31 62.21 54.70 53.60 51.88 Z" />
</g>
<g id="#ebcd61ff">
<path fill="#ebcd61" opacity="1.00" d=" M 53.60 51.88 C 62.21 54.70 70.13 59.31 78.45 62.88 C 77.92 67.00 77.22 71.29 78.63 75.31 C 80.19 81.30 85.95 85.46 91.97 86.05 C 92.60 84.41 92.98 82.51 94.43 81.35 C 96.38 79.26 99.42 79.42 102.00 78.87 C 105.46 78.28 108.56 76.52 111.70 75.05 C 110.03 78.84 108.10 82.50 106.20 86.18 C 111.99 85.76 117.69 82.30 119.86 76.78 C 121.82 72.38 121.07 67.46 120.57 62.85 C 128.87 59.31 136.77 54.71 145.36 51.94 C 147.19 64.05 149.06 77.53 142.51 88.61 C 138.28 95.90 130.21 99.54 122.40 101.61 C 116.97 103.27 111.30 103.82 105.68 104.36 C 107.56 108.05 110.81 110.66 113.97 113.20 C 112.41 114.29 110.83 115.36 109.24 116.40 C 106.81 113.95 104.40 111.50 101.97 109.07 C 102.21 111.74 102.55 114.40 102.98 117.05 C 100.67 117.05 98.37 117.04 96.07 117.03 C 96.50 114.38 96.78 111.70 96.99 109.02 C 94.56 111.45 92.18 113.93 89.81 116.42 C 88.18 115.36 86.55 114.29 84.92 113.22 C 88.12 110.67 91.38 108.04 93.34 104.37 C 83.82 103.69 74.20 101.83 65.68 97.37 C 58.44 93.51 53.74 85.88 52.61 77.86 C 51.01 69.23 52.49 60.48 53.60 51.88 Z" />
</g>
<g id="#e9cd5fff">
<path fill="#e9cd5f" opacity="1.00" d=" M 33.14 98.96 C 34.34 94.10 36.93 89.69 40.29 86.02 C 40.48 97.09 41.03 108.29 44.17 118.97 C 45.44 124.04 47.83 128.72 49.42 133.68 C 35.59 129.05 29.42 112.32 33.14 98.96 Z" />
</g>
<g id="#ebcd60ff">
<path fill="#ebcd60" opacity="1.00" d=" M 159.82 86.10 C 170.46 97.00 170.69 116.15 160.39 127.35 C 157.78 130.29 154.30 132.28 150.66 133.67 C 152.26 128.67 154.64 123.95 155.96 118.86 C 159.11 108.24 159.58 97.10 159.82 86.10 Z" />
</g>
<g id="#f1dea2ff">
<path fill="#f1dea2" opacity="1.00" d=" M 49.88 95.86 C 52.19 98.79 54.31 101.86 56.57 104.83 C 55.33 104.06 54.08 103.31 52.83 102.57 C 53.80 110.80 55.65 118.90 57.19 127.03 C 59.36 137.32 61.37 147.67 64.37 157.76 C 63.98 158.33 63.20 159.46 62.80 160.03 C 62.72 160.15 62.56 160.38 62.48 160.49 C 56.59 139.38 49.09 118.07 49.88 95.86 Z" />
</g>
<g id="#f2dea3ff">
<path fill="#f2dea3" opacity="1.00" d=" M 143.44 104.86 C 145.74 101.89 147.90 98.82 150.19 95.85 C 150.71 100.88 150.19 105.92 149.50 110.90 C 147.59 127.82 142.46 144.13 137.39 160.30 C 136.50 158.86 135.54 157.32 136.34 155.62 C 140.84 138.15 144.63 120.44 147.22 102.59 C 145.95 103.33 144.69 104.08 143.44 104.86 Z" />
</g>
<g id="#3a2c28ff">
<path fill="#3a2c28" opacity="1.00" d=" M 52.83 102.57 C 54.08 103.31 55.33 104.06 56.57 104.83 C 59.80 107.86 63.16 110.77 66.80 113.30 C 65.58 112.84 63.15 111.90 61.93 111.43 C 69.39 119.00 77.10 126.31 84.67 133.76 C 87.90 130.17 91.09 126.56 94.27 122.93 C 98.11 122.87 101.94 122.86 105.78 122.88 C 109.03 126.49 112.19 130.17 115.44 133.78 C 123.02 126.33 130.73 119.03 138.18 111.45 C 136.95 111.92 134.48 112.86 133.25 113.33 C 136.90 110.83 140.27 107.94 143.44 104.86 C 144.69 104.08 145.95 103.33 147.22 102.59 C 144.63 120.44 140.84 138.15 136.34 155.62 C 135.54 157.32 136.50 158.86 137.39 160.30 L 137.36 160.53 C 135.94 160.02 134.51 159.53 133.07 159.06 C 136.14 152.77 133.51 145.24 135.77 138.67 C 137.70 133.26 139.23 127.74 140.86 122.25 C 133.21 130.40 124.96 137.97 116.83 145.64 C 112.45 143.22 108.19 140.62 103.85 138.16 C 101.50 136.68 98.40 136.68 96.01 138.05 C 91.35 140.49 86.82 143.18 82.18 145.65 C 74.61 138.62 67.17 131.46 59.83 124.20 C 61.20 129.31 62.86 134.33 64.51 139.36 C 66.36 145.62 64.15 152.63 66.88 158.62 C 65.64 159.43 64.30 160.01 62.80 160.03 C 63.20 159.46 63.98 158.33 64.37 157.76 C 61.37 147.67 59.36 137.32 57.19 127.03 C 55.65 118.90 53.80 110.80 52.83 102.57 Z" />
</g>
<g id="#fffffeff">
<path fill="#fffffe" opacity="1.00" d=" M 61.93 111.43 C 63.15 111.90 65.58 112.84 66.80 113.30 C 76.68 119.49 88.21 123.70 100.01 122.81 C 111.80 123.67 123.38 119.55 133.25 113.33 C 134.48 112.86 136.95 111.92 138.18 111.45 C 130.73 119.03 123.02 126.33 115.44 133.78 C 112.19 130.17 109.03 126.49 105.78 122.88 C 101.94 122.86 98.11 122.87 94.27 122.93 C 91.09 126.56 87.90 130.17 84.67 133.76 C 77.10 126.31 69.39 119.00 61.93 111.43 Z" />
</g>
<g id="#ecc59bff">
<path fill="#ecc59b" opacity="1.00" d=" M 116.83 145.64 C 124.96 137.97 133.21 130.40 140.86 122.25 C 139.23 127.74 137.70 133.26 135.77 138.67 C 133.51 145.24 136.14 152.77 133.07 159.06 C 127.99 164.36 122.61 169.47 116.44 173.50 C 108.50 179.07 97.72 179.64 88.81 176.23 C 80.28 172.11 73.39 165.36 66.88 158.62 C 64.15 152.63 66.36 145.62 64.51 139.36 C 62.86 134.33 61.20 129.31 59.83 124.20 C 67.17 131.46 74.61 138.62 82.18 145.65 C 86.82 143.18 91.35 140.49 96.01 138.05 C 98.40 136.68 101.50 136.68 103.85 138.16 C 108.19 140.62 112.45 143.22 116.83 145.64 Z" />
</g>
</svg>
