<?xml version="1.0" encoding="UTF-8" ?>
<!DOCTYPE svg PUBLIC "-//W3C//DTD SVG 1.1//EN" "http://www.w3.org/Graphics/SVG/1.1/DTD/svg11.dtd">
<svg width="200pt" height="200pt" viewBox="0 0 200 200" version="1.1" xmlns="http://www.w3.org/2000/svg">
<g id="#000000ff">
<path fill="#000000" opacity="1.00" d=" M 48.16 20.86 C 46.96 18.86 47.81 15.92 50.00 15.03 C 51.74 14.75 53.67 14.73 55.15 15.85 C 72.81 27.19 90.52 38.47 108.18 49.82 C 110.52 51.37 113.53 50.69 116.17 51.25 C 131.78 53.22 147.89 61.98 153.78 77.30 C 159.80 78.30 165.89 78.88 171.89 80.02 C 174.92 80.52 176.06 84.82 173.88 86.88 C 170.77 89.93 167.33 92.63 164.11 95.57 C 168.37 96.43 172.71 96.92 176.93 97.97 C 180.29 98.76 180.36 103.93 177.78 105.69 C 172.25 110.60 166.74 115.51 161.20 120.41 C 163.26 121.45 165.44 122.30 167.32 123.68 C 169.49 125.67 168.62 129.85 165.71 130.62 C 158.91 132.84 151.98 134.67 145.17 136.88 C 143.81 142.96 142.52 149.06 141.01 155.11 C 140.75 157.06 138.86 157.89 137.25 158.49 C 137.66 162.72 135.69 166.65 134.49 170.61 C 133.21 173.77 132.25 177.32 129.82 179.81 C 122.92 183.59 114.95 185.44 107.08 185.09 C 99.19 185.47 91.16 183.66 84.30 179.74 C 82.17 177.63 81.39 174.56 80.11 171.92 C 79.38 174.61 78.86 177.36 77.91 179.99 C 77.05 182.61 73.31 183.42 71.30 181.60 C 69.93 180.52 69.86 178.63 69.43 177.07 C 66.89 164.27 64.27 151.47 61.68 138.68 C 56.40 142.46 51.06 146.17 45.43 149.41 C 43.17 151.05 39.63 149.69 39.01 146.98 C 38.30 144.73 40.16 142.92 41.14 141.11 C 45.97 132.93 49.56 124.10 53.39 115.42 C 43.60 115.54 33.81 116.22 24.02 116.28 C 19.98 116.39 19.09 109.92 22.47 108.38 C 33.25 102.59 44.12 96.96 54.93 91.23 C 44.73 86.36 34.48 81.59 24.29 76.70 C 21.81 75.80 20.72 72.52 22.29 70.35 C 23.25 68.77 25.20 68.52 26.86 68.25 C 37.19 66.61 47.51 64.90 57.84 63.23 C 55.82 58.64 53.58 54.15 51.60 49.55 C 50.43 47.37 51.70 44.34 54.10 43.68 C 56.01 43.12 57.87 44.21 59.71 44.56 C 55.82 36.68 51.94 28.79 48.16 20.86 M 51.78 18.76 C 57.04 29.76 62.48 40.68 67.76 51.68 C 63.58 50.40 59.44 48.99 55.27 47.67 C 58.21 53.94 61.07 60.25 64.00 66.53 C 51.20 68.49 38.44 70.73 25.64 72.69 C 38.48 78.86 51.41 84.85 64.25 91.03 C 50.99 98.11 37.64 105.02 24.38 112.11 C 36.19 111.83 47.99 111.23 59.80 110.94 C 54.66 122.81 49.95 134.98 43.07 145.99 C 50.52 141.49 57.66 136.51 64.53 131.18 C 67.53 146.91 70.77 162.61 74.03 178.29 C 76.77 168.22 79.32 158.10 82.00 148.01 C 84.47 150.52 87.10 152.87 89.88 155.03 C 86.93 155.59 83.90 156.36 81.94 158.82 C 81.72 159.17 81.27 159.87 81.05 160.21 C 82.15 165.78 84.08 171.32 86.82 176.30 C 99.15 182.95 114.94 182.82 127.30 176.30 C 130.22 171.31 131.70 165.65 133.29 160.14 C 132.92 159.82 132.18 159.19 131.80 158.87 C 129.63 156.23 126.27 155.35 123.05 154.79 C 127.85 150.74 133.04 146.65 136.18 141.14 C 136.49 145.45 136.66 149.77 136.87 154.09 C 138.56 147.27 140.00 140.39 141.57 133.54 C 149.12 131.13 156.77 129.01 164.34 126.62 C 160.78 124.95 157.26 123.21 153.71 121.51 C 160.91 114.86 168.34 108.48 175.60 101.91 C 168.69 100.69 161.78 99.43 154.87 98.20 C 160.03 93.31 165.51 88.77 170.82 84.05 C 164.05 83.01 157.24 82.18 150.49 81.04 C 148.69 74.51 144.44 68.88 139.10 64.81 C 130.35 58.02 119.20 55.16 108.28 54.76 C 89.32 42.97 70.65 30.69 51.78 18.76 M 132.05 152.08 C 130.45 155.01 135.32 152.33 132.05 152.08 Z" />
</g>
<g id="#d9d27eff">
<path fill="#d9d27e" opacity="1.00" d=" M 51.78 18.76 C 70.65 30.69 89.32 42.97 108.28 54.76 C 119.20 55.16 130.35 58.02 139.10 64.81 C 144.44 68.88 148.69 74.51 150.49 81.04 C 157.24 82.18 164.05 83.01 170.82 84.05 C 165.51 88.77 160.03 93.31 154.87 98.20 C 161.78 99.43 168.69 100.69 175.60 101.91 C 168.34 108.48 160.91 114.86 153.71 121.51 C 157.26 123.21 160.78 124.95 164.34 126.62 C 156.77 129.01 149.12 131.13 141.57 133.54 C 140.00 140.39 138.56 147.27 136.87 154.09 C 136.66 149.77 136.49 145.45 136.18 141.14 C 135.61 130.88 135.37 120.61 135.26 110.34 C 127.51 110.53 120.39 115.56 112.52 113.91 C 118.33 109.62 125.98 109.95 132.65 107.91 C 127.74 101.53 122.85 95.10 117.27 89.28 C 109.67 101.54 102.18 113.88 94.27 125.95 C 95.24 122.23 96.03 118.47 96.69 114.68 C 93.40 113.93 90.12 113.13 86.87 112.24 C 80.05 117.67 73.56 123.55 67.32 129.64 C 69.36 130.89 71.55 131.97 73.30 133.62 C 75.13 136.64 75.66 140.30 77.73 143.19 C 79.00 144.93 80.49 146.48 82.00 148.01 C 79.32 158.10 76.77 168.22 74.03 178.29 C 70.77 162.61 67.53 146.91 64.53 131.18 C 57.66 136.51 50.52 141.49 43.07 145.99 C 49.95 134.98 54.66 122.81 59.80 110.94 C 47.99 111.23 36.19 111.83 24.38 112.11 C 37.64 105.02 50.99 98.11 64.25 91.03 C 51.41 84.85 38.48 78.86 25.64 72.69 C 38.44 70.73 51.20 68.49 64.00 66.53 C 61.07 60.25 58.21 53.94 55.27 47.67 C 59.44 48.99 63.58 50.40 67.76 51.68 C 62.48 40.68 57.04 29.76 51.78 18.76 M 89.41 109.37 C 92.03 110.50 94.74 111.44 97.55 111.96 C 98.43 107.61 100.04 103.37 100.18 98.90 C 96.43 102.22 93.13 106.01 89.41 109.37 M 147.30 108.07 C 145.68 113.28 146.91 118.79 147.48 124.08 C 146.47 123.44 145.46 122.81 144.46 122.17 C 143.50 125.42 142.51 128.69 142.16 132.08 C 148.44 128.22 153.27 121.49 153.27 113.95 C 152.54 111.11 150.72 107.75 147.30 108.07 Z" />
</g>
<g id="#fce5cbff">
<path fill="#fce5cb" opacity="1.00" d=" M 94.27 125.95 C 102.18 113.88 109.67 101.54 117.27 89.28 C 122.85 95.10 127.74 101.53 132.65 107.91 C 125.98 109.95 118.33 109.62 112.52 113.91 C 120.39 115.56 127.51 110.53 135.26 110.34 C 135.37 120.61 135.61 130.88 136.18 141.14 C 133.04 146.65 127.85 150.74 123.05 154.79 C 118.30 158.76 112.39 161.62 106.05 161.25 C 100.02 161.48 94.45 158.75 89.88 155.03 C 87.10 152.87 84.47 150.52 82.00 148.01 C 80.49 146.48 79.00 144.93 77.73 143.19 C 75.66 140.30 75.13 136.64 73.30 133.62 C 71.55 131.97 69.36 130.89 67.32 129.64 C 73.56 123.55 80.05 117.67 86.87 112.24 C 90.12 113.13 93.40 113.93 96.69 114.68 C 96.03 118.47 95.24 122.23 94.27 125.95 Z" />
</g>
<g id="#fce4cdff">
<path fill="#fce4cd" opacity="1.00" d=" M 89.41 109.37 C 93.13 106.01 96.43 102.22 100.18 98.90 C 100.04 103.37 98.43 107.61 97.55 111.96 C 94.74 111.44 92.03 110.50 89.41 109.37 Z" />
</g>
<g id="#ffd5b4ff">
<path fill="#ffd5b4" opacity="1.00" d=" M 147.30 108.07 C 150.72 107.75 152.54 111.11 153.27 113.95 C 153.27 121.49 148.44 128.22 142.16 132.08 C 142.51 128.69 143.50 125.42 144.46 122.17 C 145.46 122.81 146.47 123.44 147.48 124.08 C 146.91 118.79 145.68 113.28 147.30 108.07 Z" />
</g>
<g id="#000100b0">
<path fill="#000100" opacity="0.69" d=" M 132.05 152.08 C 135.32 152.33 130.45 155.01 132.05 152.08 Z" />
</g>
<g id="#210031ff">
<path fill="#210031" opacity="1.00" d=" M 89.88 155.03 C 94.45 158.75 100.02 161.48 106.05 161.25 C 112.39 161.62 118.30 158.76 123.05 154.79 C 126.27 155.35 129.63 156.23 131.80 158.87 C 129.59 158.92 127.29 159.11 125.41 160.39 C 117.23 165.46 106.91 167.57 97.65 164.41 C 92.02 163.46 87.92 158.23 81.94 158.82 C 83.90 156.36 86.93 155.59 89.88 155.03 Z" />
</g>
<g id="#555466ff">
<path fill="#555466" opacity="1.00" d=" M 81.94 158.82 C 87.92 158.23 92.02 163.46 97.65 164.41 C 106.91 167.57 117.23 165.46 125.41 160.39 C 127.29 159.11 129.59 158.92 131.80 158.87 C 132.18 159.19 132.92 159.82 133.29 160.14 C 131.70 165.65 130.22 171.31 127.30 176.30 C 114.94 182.82 99.15 182.95 86.82 176.30 C 84.08 171.32 82.15 165.78 81.05 160.21 C 81.27 159.87 81.72 159.17 81.94 158.82 Z" />
</g>
</svg>
