<?xml version="1.0" encoding="UTF-8" ?>
<!DOCTYPE svg PUBLIC "-//W3C//DTD SVG 1.1//EN" "http://www.w3.org/Graphics/SVG/1.1/DTD/svg11.dtd">
<svg width="200pt" height="200pt" viewBox="0 0 200 200" version="1.1" xmlns="http://www.w3.org/2000/svg">
<g id="#000000ff">
<path fill="#000000" opacity="1.00" d=" M 79.72 24.66 C 83.70 22.23 88.07 19.92 92.92 20.48 C 96.94 20.40 99.74 23.55 102.16 26.32 C 108.23 24.31 115.00 25.24 120.45 28.51 C 130.77 34.68 138.81 44.26 143.82 55.14 C 147.00 61.48 149.06 68.72 154.35 73.73 C 157.36 76.87 162.11 76.17 165.91 75.20 C 168.60 73.93 172.10 75.94 172.06 78.98 C 171.69 83.65 169.14 87.71 167.03 91.76 C 171.31 92.84 175.68 93.50 180.05 94.09 C 183.50 94.55 184.23 99.79 181.60 101.63 C 175.67 105.81 168.73 108.50 161.57 109.62 C 157.38 117.20 150.52 122.74 143.65 127.77 C 145.89 134.27 147.22 141.13 147.22 148.01 C 146.79 151.06 142.73 152.65 140.40 150.61 C 138.38 148.43 136.53 146.10 134.50 143.92 C 133.83 144.48 133.37 145.17 133.11 145.99 C 139.53 153.23 144.99 161.34 149.05 170.12 C 150.73 173.18 147.35 177.16 144.06 175.97 C 140.94 174.33 137.40 173.81 133.92 173.61 C 122.70 173.21 111.56 175.58 100.95 179.07 C 97.99 180.17 94.91 179.16 92.07 178.20 C 82.69 175.27 72.89 173.43 63.04 173.57 C 59.28 173.70 55.42 174.12 52.02 175.83 C 49.06 177.25 45.62 174.06 46.40 170.99 C 48.62 165.60 51.65 160.58 54.93 155.78 C 55.09 153.19 54.73 150.58 54.95 147.99 C 52.50 150.24 50.33 152.78 48.34 155.44 C 47.00 157.58 43.65 157.89 41.91 156.09 C 40.53 154.83 40.56 152.82 40.33 151.11 C 39.96 143.93 41.27 136.50 44.91 130.23 C 32.75 124.39 21.72 114.53 17.37 101.45 C 16.88 99.44 16.28 96.61 18.20 95.16 C 19.32 94.09 20.93 94.18 22.35 94.24 C 20.66 90.74 19.15 86.99 19.15 83.04 C 19.45 80.41 22.43 78.63 24.88 79.70 C 26.92 80.45 29.37 80.40 31.16 79.07 C 35.88 66.69 41.79 54.53 50.63 44.54 C 58.30 35.53 67.46 26.44 79.72 24.66 M 77.50 29.56 C 68.48 31.55 62.07 38.57 55.87 44.87 C 46.32 55.11 39.99 67.87 35.14 80.88 C 32.68 84.66 27.34 84.96 23.41 83.72 C 24.54 90.28 27.68 97.22 33.87 100.42 C 29.50 100.58 25.25 99.45 21.07 98.37 C 21.93 102.73 24.16 106.69 26.75 110.24 C 33.07 118.46 41.80 125.13 51.74 128.25 C 45.78 134.85 43.72 144.37 44.97 153.03 C 49.32 147.31 54.51 141.92 61.22 139.05 C 58.75 144.69 59.21 150.98 59.43 156.98 C 56.02 161.66 52.97 166.64 50.64 171.95 C 53.50 170.40 56.74 169.83 59.94 169.54 C 71.11 168.72 82.29 170.80 92.96 173.99 C 94.94 174.48 96.70 175.94 98.81 175.72 C 106.78 172.26 115.51 170.70 124.11 169.69 C 131.22 169.20 138.87 168.70 145.45 171.95 C 141.14 162.49 135.03 153.91 127.89 146.38 C 129.89 143.37 131.73 140.25 133.42 137.05 C 136.66 140.16 140.04 143.19 142.66 146.86 C 142.80 146.77 143.07 146.57 143.21 146.48 C 142.76 139.73 141.52 132.98 138.90 126.72 C 138.92 126.44 138.95 125.89 138.97 125.62 L 139.60 125.53 C 147.00 120.17 155.05 114.48 158.75 105.79 C 166.07 104.88 173.31 102.54 179.35 98.22 C 172.93 97.56 166.65 96.05 160.45 94.33 C 163.58 89.60 166.85 84.69 168.06 79.07 C 162.98 80.44 156.75 81.29 152.46 77.52 C 145.90 72.09 143.54 63.56 139.83 56.23 C 135.14 46.23 127.59 37.51 118.03 31.91 C 113.03 29.07 106.54 28.42 101.46 31.41 C 98.62 29.07 96.81 25.08 92.91 24.40 C 87.10 23.83 83.07 29.06 77.50 29.56 Z" />
<path fill="#000000" opacity="1.00" d=" M 95.59 173.63 C 87.81 166.46 82.57 157.07 78.23 147.54 C 83.08 151.63 88.51 155.80 95.10 156.23 C 103.20 157.61 111.23 154.29 117.19 148.92 C 112.81 158.42 107.35 167.76 99.30 174.63 C 98.08 175.81 96.59 174.36 95.59 173.63 M 89.16 159.50 C 91.91 163.12 94.32 167.45 98.09 170.00 C 101.27 166.98 103.93 163.45 106.36 159.82 C 100.65 161.20 94.83 161.03 89.16 159.50 Z" />
</g>
<g id="#e2dad8ff">
<path fill="#e2dad8" opacity="1.00" d=" M 77.50 29.56 C 83.07 29.06 87.10 23.83 92.91 24.40 C 93.15 30.18 96.09 35.29 98.85 40.20 C 105.96 52.55 113.76 65.06 125.15 73.94 C 123.46 70.15 119.64 68.03 117.29 64.72 C 109.78 54.94 103.09 43.83 101.46 31.41 C 106.54 28.42 113.03 29.07 118.03 31.91 C 127.59 37.51 135.14 46.23 139.83 56.23 C 143.54 63.56 145.90 72.09 152.46 77.52 C 156.75 81.29 162.98 80.44 168.06 79.07 C 166.85 84.69 163.58 89.60 160.45 94.33 C 166.65 96.05 172.93 97.56 179.35 98.22 C 173.31 102.54 166.07 104.88 158.75 105.79 C 153.96 106.58 149.09 105.32 144.33 106.22 C 142.08 112.52 140.49 119.10 138.97 125.62 C 138.95 125.89 138.92 126.44 138.90 126.72 C 141.52 132.98 142.76 139.73 143.21 146.48 C 143.07 146.57 142.80 146.77 142.66 146.86 C 140.04 143.19 136.66 140.16 133.42 137.05 C 131.73 140.25 129.89 143.37 127.89 146.38 C 125.31 150.18 122.39 153.76 119.08 156.94 C 120.16 152.53 122.55 148.55 123.37 144.04 C 126.84 134.77 127.81 124.77 128.27 114.94 C 128.30 110.72 128.75 106.40 127.78 102.26 C 125.71 101.66 123.56 101.42 121.42 101.48 C 121.33 101.14 121.15 100.44 121.05 100.09 C 120.95 99.71 120.73 98.95 120.62 98.56 C 117.51 97.31 114.47 95.91 111.45 94.47 C 110.40 93.76 109.19 94.12 108.34 94.92 C 108.46 95.44 108.70 96.47 108.83 96.99 C 109.37 98.82 110.04 100.62 110.68 102.42 C 110.52 102.81 110.22 103.60 110.06 103.99 C 110.48 104.05 111.33 104.17 111.75 104.23 C 110.27 106.74 111.83 109.58 111.96 112.24 C 102.30 109.49 94.82 102.50 87.74 95.76 C 88.57 99.85 90.98 103.34 92.31 107.26 C 91.24 106.59 90.18 105.93 89.13 105.23 C 88.15 103.89 86.85 102.88 85.37 102.13 C 83.11 98.57 80.14 95.51 78.05 91.83 C 75.83 88.05 74.65 83.76 72.38 80.01 C 70.13 86.01 69.09 92.40 68.56 98.77 L 68.49 99.59 C 67.60 109.10 68.06 118.71 69.99 128.06 C 67.19 126.67 64.84 124.57 62.62 122.40 C 58.78 118.22 54.44 114.50 51.09 109.89 C 48.69 106.93 47.32 103.30 44.85 100.40 C 42.50 100.55 40.12 100.98 38.06 102.18 C 37.79 105.41 38.75 108.68 40.91 111.12 C 45.67 116.70 51.33 121.46 57.34 125.65 C 59.23 127.06 61.47 127.85 63.74 128.42 C 65.70 133.58 68.31 138.59 72.59 142.22 C 67.59 146.59 63.43 151.71 59.43 156.98 C 59.21 150.98 58.75 144.69 61.22 139.05 C 54.51 141.92 49.32 147.31 44.97 153.03 C 43.72 144.37 45.78 134.85 51.74 128.25 C 41.80 125.13 33.07 118.46 26.75 110.24 C 24.16 106.69 21.93 102.73 21.07 98.37 C 25.25 99.45 29.50 100.58 33.87 100.42 C 27.68 97.22 24.54 90.28 23.41 83.72 C 27.34 84.96 32.68 84.66 35.14 80.88 C 39.99 67.87 46.32 55.11 55.87 44.87 C 62.07 38.57 68.48 31.55 77.50 29.56 Z" />
</g>
<g id="#cbc2c6ff">
<path fill="#cbc2c6" opacity="1.00" d=" M 92.91 24.40 C 96.81 25.08 98.62 29.07 101.46 31.41 C 103.09 43.83 109.78 54.94 117.29 64.72 C 119.64 68.03 123.46 70.15 125.15 73.94 C 113.76 65.06 105.96 52.55 98.85 40.20 C 96.09 35.29 93.15 30.18 92.91 24.40 Z" />
</g>
<g id="#fef4e6ff">
<path fill="#fef4e6" opacity="1.00" d=" M 72.38 80.01 C 74.65 83.76 75.83 88.05 78.05 91.83 C 80.14 95.51 83.11 98.57 85.37 102.13 C 79.81 100.82 74.30 99.08 68.56 98.77 C 69.09 92.40 70.13 86.01 72.38 80.01 Z" />
</g>
<g id="#f4d7b8ff">
<path fill="#f4d7b8" opacity="1.00" d=" M 108.34 94.92 C 109.19 94.12 110.40 93.76 111.45 94.47 C 114.47 95.91 117.51 97.31 120.62 98.56 C 120.73 98.95 120.95 99.71 121.05 100.09 C 120.37 100.19 119.01 100.39 118.33 100.49 C 115.19 99.24 112.09 97.88 108.83 96.99 C 108.70 96.47 108.46 95.44 108.34 94.92 Z" />
</g>
<g id="#fef4e8ff">
<path fill="#fef4e8" opacity="1.00" d=" M 87.74 95.76 C 94.82 102.50 102.30 109.49 111.96 112.24 C 111.83 109.58 110.27 106.74 111.75 104.23 C 115.04 103.54 118.18 102.34 121.42 101.48 C 123.56 101.42 125.71 101.66 127.78 102.26 C 128.75 106.40 128.30 110.72 128.27 114.94 C 127.81 124.77 126.84 134.77 123.37 144.04 C 121.27 145.62 119.17 147.20 117.19 148.92 C 111.23 154.29 103.20 157.61 95.10 156.23 C 88.51 155.80 83.08 151.63 78.23 147.54 C 76.43 145.68 74.45 144.02 72.59 142.22 C 68.31 138.59 65.70 133.58 63.74 128.42 C 62.98 126.50 62.39 124.48 62.62 122.40 C 64.84 124.57 67.19 126.67 69.99 128.06 C 68.06 118.71 67.60 109.10 68.49 99.59 C 75.51 100.95 82.07 104.03 89.13 105.23 C 90.18 105.93 91.24 106.59 92.31 107.26 C 90.98 103.34 88.57 99.85 87.74 95.76 Z" />
</g>
<g id="#fff6eaff">
<path fill="#fff6ea" opacity="1.00" d=" M 108.83 96.99 C 112.09 97.88 115.19 99.24 118.33 100.49 C 115.77 101.08 113.23 101.78 110.68 102.42 C 110.04 100.62 109.37 98.82 108.83 96.99 Z" />
</g>
<g id="#b9b4a8ff">
<path fill="#b9b4a8" opacity="1.00" d=" M 68.56 98.77 C 74.30 99.08 79.81 100.82 85.37 102.13 C 86.85 102.88 88.15 103.89 89.13 105.23 C 82.07 104.03 75.51 100.95 68.49 99.59 L 68.56 98.77 Z" />
</g>
<g id="#fae8cbff">
<path fill="#fae8cb" opacity="1.00" d=" M 38.06 102.18 C 40.12 100.98 42.50 100.55 44.85 100.40 C 47.32 103.30 48.69 106.93 51.09 109.89 C 54.44 114.50 58.78 118.22 62.62 122.40 C 62.39 124.48 62.98 126.50 63.74 128.42 C 61.47 127.85 59.23 127.06 57.34 125.65 C 51.33 121.46 45.67 116.70 40.91 111.12 C 38.75 108.68 37.79 105.41 38.06 102.18 Z" />
</g>
<g id="#b6b2abff">
<path fill="#b6b2ab" opacity="1.00" d=" M 118.33 100.49 C 119.01 100.39 120.37 100.19 121.05 100.09 C 121.15 100.44 121.33 101.14 121.42 101.48 C 118.18 102.34 115.04 103.54 111.75 104.23 C 111.33 104.17 110.48 104.05 110.06 103.99 C 110.22 103.60 110.52 102.81 110.68 102.42 C 113.23 101.78 115.77 101.08 118.33 100.49 Z" />
</g>
<g id="#fae8caff">
<path fill="#fae8ca" opacity="1.00" d=" M 144.33 106.22 C 149.09 105.32 153.96 106.58 158.75 105.79 C 155.05 114.48 147.00 120.17 139.60 125.53 L 138.97 125.62 C 140.49 119.10 142.08 112.52 144.33 106.22 Z" />
</g>
<g id="#f0f0f0ff">
<path fill="#f0f0f0" opacity="1.00" d=" M 72.59 142.22 C 74.45 144.02 76.43 145.68 78.23 147.54 C 82.57 157.07 87.81 166.46 95.59 173.63 C 96.59 174.36 98.08 175.81 99.30 174.63 C 107.35 167.76 112.81 158.42 117.19 148.92 C 119.17 147.20 121.27 145.62 123.37 144.04 C 122.55 148.55 120.16 152.53 119.08 156.94 C 122.39 153.76 125.31 150.18 127.89 146.38 C 135.03 153.91 141.14 162.49 145.45 171.95 C 138.87 168.70 131.22 169.20 124.11 169.69 C 115.51 170.70 106.78 172.26 98.81 175.72 C 96.70 175.94 94.94 174.48 92.96 173.99 C 82.29 170.80 71.11 168.72 59.94 169.54 C 56.74 169.83 53.50 170.40 50.64 171.95 C 52.97 166.64 56.02 161.66 59.43 156.98 C 63.43 151.71 67.59 146.59 72.59 142.22 Z" />
</g>
</svg>
