<?xml version="1.0" encoding="UTF-8" ?>
<!DOCTYPE svg PUBLIC "-//W3C//DTD SVG 1.1//EN" "http://www.w3.org/Graphics/SVG/1.1/DTD/svg11.dtd">
<svg width="200pt" height="200pt" viewBox="0 0 200 200" version="1.1" xmlns="http://www.w3.org/2000/svg">
<g id="#000100ff">
<path fill="#000100" opacity="1.00" d=" M 97.81 21.67 C 99.83 20.10 102.49 21.37 103.92 23.10 C 107.67 26.93 111.33 30.86 115.09 34.69 C 118.92 31.34 122.46 27.65 126.42 24.45 C 128.22 22.86 131.20 23.50 132.47 25.44 C 133.55 26.93 132.95 28.83 132.78 30.51 C 131.58 37.13 130.38 43.76 129.21 50.39 C 136.67 50.64 144.40 51.90 150.57 56.40 C 163.41 65.45 169.53 82.83 165.58 97.98 C 167.49 97.92 169.81 97.09 171.40 98.63 C 172.79 99.76 172.57 101.72 172.97 103.28 C 174.84 104.53 177.13 106.41 176.12 108.97 C 173.70 116.85 167.00 122.95 159.25 125.50 C 159.02 126.62 158.79 127.75 158.56 128.88 C 160.73 130.11 163.22 131.33 164.16 133.83 C 165.39 136.26 164.54 138.99 164.13 141.51 C 167.70 141.08 172.73 137.24 175.42 141.33 C 178.21 148.32 177.71 157.56 171.69 162.76 C 167.78 166.33 162.29 167.05 157.21 166.97 C 154.54 172.05 150.00 176.09 144.42 177.68 C 132.94 181.07 120.02 177.79 110.91 170.18 C 107.32 171.31 103.66 172.37 99.89 172.58 C 96.14 172.45 92.51 171.36 88.93 170.33 C 79.82 177.83 66.97 181.06 55.55 177.66 C 49.99 176.07 45.47 172.03 42.79 166.96 C 37.48 167.08 31.71 166.21 27.79 162.29 C 22.59 157.39 22.09 149.42 23.96 142.90 C 24.33 140.98 25.99 139.29 28.03 139.34 C 30.85 139.96 33.58 140.95 36.39 141.61 C 36.04 139.15 35.14 136.52 36.23 134.11 C 37.04 131.78 39.26 130.49 41.14 129.12 C 40.88 127.72 40.61 126.32 40.34 124.92 C 33.38 122.03 27.42 116.30 25.19 108.99 C 24.20 106.43 26.41 104.49 28.38 103.37 C 28.72 101.61 28.55 99.34 30.34 98.31 C 31.94 97.20 33.94 97.93 35.72 97.96 C 31.45 81.54 39.05 62.29 54.26 54.29 C 59.32 51.51 65.13 50.85 70.79 50.43 C 69.58 42.94 67.90 35.53 66.94 28.01 C 66.41 24.65 71.00 22.23 73.54 24.48 C 77.52 27.68 81.07 31.38 84.91 34.75 C 89.28 30.47 93.23 25.73 97.81 21.67 M 85.04 40.52 C 80.35 36.29 75.80 31.90 71.05 27.74 C 72.54 36.65 74.15 45.54 75.80 54.42 C 68.60 54.31 60.99 54.83 54.69 58.69 C 44.66 64.74 38.91 76.50 38.61 88.02 C 38.31 92.71 40.22 97.09 40.94 101.64 C 38.11 102.24 35.22 102.32 32.35 102.02 C 33.39 104.76 35.23 107.03 37.33 109.03 C 34.58 108.69 31.84 108.29 29.11 107.82 C 31.66 114.83 37.80 120.27 45.12 121.78 C 44.38 124.63 44.73 127.66 46.48 130.08 C 46.37 130.87 46.13 132.45 46.02 133.24 C 44.18 133.05 41.97 132.72 40.70 134.39 C 38.83 136.34 40.03 139.13 41.74 140.70 C 40.93 142.06 39.68 143.46 40.29 145.18 C 36.06 145.87 31.86 144.93 27.89 143.50 C 27.02 148.57 26.36 154.66 30.24 158.72 C 34.09 163.03 40.40 162.84 45.65 162.13 C 47.14 168.01 52.00 172.67 57.95 173.88 C 67.89 176.16 78.95 173.43 86.55 166.58 C 87.51 165.55 88.66 165.31 89.99 165.85 C 96.81 169.27 104.96 168.44 111.59 164.99 C 119.84 173.46 133.00 176.94 144.26 173.16 C 149.25 171.49 152.91 167.15 154.26 162.13 C 159.54 162.84 165.81 162.98 169.70 158.69 C 173.55 154.60 172.84 148.61 172.05 143.52 C 168.42 144.80 164.65 145.61 160.79 145.58 C 160.21 143.94 159.57 142.32 158.99 140.68 C 159.91 139.01 161.38 137.02 160.09 135.11 C 159.12 132.96 156.58 133.02 154.61 133.18 C 154.09 131.95 153.54 130.73 153.01 129.51 L 153.82 129.53 C 154.67 127.14 155.04 124.61 154.70 122.09 C 162.56 120.93 169.31 115.30 172.15 107.92 C 169.39 108.29 166.63 108.66 163.87 109.00 C 165.93 107.09 167.78 104.92 168.65 102.19 C 165.70 102.38 162.75 102.16 159.91 101.34 C 166.24 86.53 160.59 67.66 146.99 58.98 C 140.24 54.61 131.89 54.23 124.10 54.48 C 125.75 45.59 127.34 36.68 128.85 27.76 C 124.06 31.83 119.56 36.23 114.90 40.46 C 109.94 35.32 104.98 30.18 99.99 25.06 C 94.98 30.19 90.01 35.36 85.04 40.52 Z" />
</g>
<g id="#f8b501ff">
<path fill="#f8b501" opacity="1.00" d=" M 85.04 40.52 C 90.01 35.36 94.98 30.19 99.99 25.06 C 104.98 30.18 109.94 35.32 114.90 40.46 C 119.56 36.23 124.06 31.83 128.85 27.76 C 127.34 36.68 125.75 45.59 124.10 54.48 C 118.75 54.79 113.27 55.77 108.61 58.57 C 105.41 60.39 103.07 63.29 100.70 66.03 C 97.98 63.15 95.31 60.10 91.82 58.15 C 86.96 55.41 81.30 54.60 75.80 54.42 C 74.15 45.54 72.54 36.65 71.05 27.74 C 75.80 31.90 80.35 36.29 85.04 40.52 Z" />
</g>
<g id="#e16c01ff">
<path fill="#e16c01" opacity="1.00" d=" M 54.69 58.69 C 60.99 54.83 68.60 54.31 75.80 54.42 C 81.30 54.60 86.96 55.41 91.82 58.15 C 95.31 60.10 97.98 63.15 100.70 66.03 C 103.07 63.29 105.41 60.39 108.61 58.57 C 113.27 55.77 118.75 54.79 124.10 54.48 C 131.89 54.23 140.24 54.61 146.99 58.98 C 160.59 67.66 166.24 86.53 159.91 101.34 C 162.75 102.16 165.70 102.38 168.65 102.19 C 167.78 104.92 165.93 107.09 163.87 109.00 C 166.63 108.66 169.39 108.29 172.15 107.92 C 169.31 115.30 162.56 120.93 154.70 122.09 C 152.20 122.33 149.70 122.35 147.20 122.40 C 144.03 126.36 140.47 130.01 136.34 132.97 C 137.78 128.96 138.91 124.85 139.67 120.66 C 129.62 116.51 121.69 108.69 115.97 99.60 C 116.14 104.99 118.20 110.13 121.75 114.18 C 112.58 111.73 104.79 105.21 100.71 96.64 C 96.35 105.10 88.74 111.86 79.39 114.16 C 83.27 109.95 84.94 104.40 85.80 98.86 C 82.14 104.07 78.47 109.39 73.49 113.44 C 69.92 116.47 65.73 118.61 61.58 120.71 C 62.28 124.86 63.37 128.94 64.78 132.91 C 60.66 130.10 57.20 126.48 54.25 122.48 C 51.20 122.36 48.14 122.27 45.12 121.78 C 37.80 120.27 31.66 114.83 29.11 107.82 C 31.84 108.29 34.58 108.69 37.33 109.03 C 35.23 107.03 33.39 104.76 32.35 102.02 C 35.22 102.32 38.11 102.24 40.94 101.64 C 40.22 97.09 38.31 92.71 38.61 88.02 C 38.91 76.50 44.66 64.74 54.69 58.69 Z" />
<path fill="#e16c01" opacity="1.00" d=" M 60.94 136.86 C 61.02 136.71 61.17 136.41 61.25 136.26 C 61.84 139.62 62.03 143.19 63.80 146.20 C 65.62 149.58 68.55 152.16 71.56 154.45 C 77.33 158.81 83.23 163.16 89.99 165.85 C 88.66 165.31 87.51 165.55 86.55 166.58 C 78.95 173.43 67.89 176.16 57.95 173.88 C 52.00 172.67 47.14 168.01 45.65 162.13 C 40.40 162.84 34.09 163.03 30.24 158.72 C 26.36 154.66 27.02 148.57 27.89 143.50 C 31.86 144.93 36.06 145.87 40.29 145.18 C 40.37 145.74 40.54 146.85 40.62 147.41 C 42.45 147.77 44.28 148.14 46.10 148.51 C 47.49 151.32 50.24 152.14 53.17 151.60 C 53.69 150.38 54.22 149.17 54.75 147.97 C 56.56 147.49 59.22 148.25 60.21 146.21 C 61.62 144.14 60.03 141.92 59.31 139.93 C 59.85 138.91 60.39 137.88 60.94 136.86 Z" />
</g>
<g id="#f7e0caff">
<path fill="#f7e0ca" opacity="1.00" d=" M 79.39 114.16 C 88.74 111.86 96.35 105.10 100.71 96.64 C 104.79 105.21 112.58 111.73 121.75 114.18 C 118.20 110.13 116.14 104.99 115.97 99.60 C 121.69 108.69 129.62 116.51 139.67 120.66 C 138.91 124.85 137.78 128.96 136.34 132.97 C 140.47 130.01 144.03 126.36 147.20 122.40 C 149.70 122.35 152.20 122.33 154.70 122.09 C 155.04 124.61 154.67 127.14 153.82 129.53 L 153.01 129.51 C 151.16 129.48 149.18 129.38 147.63 130.56 C 144.73 132.49 140.91 133.28 139.05 136.49 C 138.78 136.88 138.24 137.66 137.97 138.05 C 137.49 143.37 135.11 148.52 130.93 151.93 C 124.95 156.90 118.62 161.60 111.59 164.99 C 104.96 168.44 96.81 169.27 89.99 165.85 C 83.23 163.16 77.33 158.81 71.56 154.45 C 68.55 152.16 65.62 149.58 63.80 146.20 C 62.03 143.19 61.84 139.62 61.25 136.26 C 61.17 136.41 61.02 136.71 60.94 136.86 C 60.10 135.52 59.64 133.68 57.91 133.24 C 55.39 132.22 53.15 130.67 50.73 129.47 C 49.29 129.45 47.89 129.81 46.48 130.08 C 44.73 127.66 44.38 124.63 45.12 121.78 C 48.14 122.27 51.20 122.36 54.25 122.48 C 57.20 126.48 60.66 130.10 64.78 132.91 C 63.37 128.94 62.28 124.86 61.58 120.71 C 65.73 118.61 69.92 116.47 73.49 113.44 C 78.47 109.39 82.14 104.07 85.80 98.86 C 84.94 104.40 83.27 109.95 79.39 114.16 Z" />
</g>
<g id="#ffffffff">
<path fill="#ffffff" opacity="1.00" d=" M 46.48 130.08 C 47.89 129.81 49.29 129.45 50.73 129.47 C 53.15 130.67 55.39 132.22 57.91 133.24 C 59.64 133.68 60.10 135.52 60.94 136.86 C 60.39 137.88 59.85 138.91 59.31 139.93 C 60.03 141.92 61.62 144.14 60.21 146.21 C 59.22 148.25 56.56 147.49 54.75 147.97 C 54.22 149.17 53.69 150.38 53.17 151.60 C 50.24 152.14 47.49 151.32 46.10 148.51 C 44.28 148.14 42.45 147.77 40.62 147.41 C 40.54 146.85 40.37 145.74 40.29 145.18 C 39.68 143.46 40.93 142.06 41.74 140.70 C 40.03 139.13 38.83 136.34 40.70 134.39 C 41.97 132.72 44.18 133.05 46.02 133.24 C 46.13 132.45 46.37 130.87 46.48 130.08 M 48.31 135.43 C 44.46 136.42 43.30 142.09 46.38 144.64 C 49.42 148.19 55.96 145.67 55.96 141.04 C 56.46 136.92 52.03 134.13 48.31 135.43 Z" />
<path fill="#ffffff" opacity="1.00" d=" M 147.63 130.56 C 149.18 129.38 151.16 129.48 153.01 129.51 C 153.54 130.73 154.09 131.95 154.61 133.18 C 156.58 133.02 159.12 132.96 160.09 135.11 C 161.38 137.02 159.91 139.01 158.99 140.68 C 159.57 142.32 160.21 143.94 160.79 145.58 C 159.08 147.44 156.83 148.45 154.29 148.52 C 153.08 149.80 152.14 151.87 150.07 151.70 C 147.41 152.30 146.57 149.50 145.35 147.80 C 143.75 147.68 142.15 147.56 140.55 147.43 C 139.57 144.87 139.67 142.19 141.35 139.95 C 140.58 138.79 139.81 137.64 139.05 136.49 C 140.91 133.28 144.73 132.49 147.63 130.56 M 146.70 135.56 C 144.24 138.33 143.28 142.85 146.83 145.21 C 151.28 148.98 158.20 142.82 155.13 137.97 C 153.61 134.59 149.69 135.22 146.70 135.56 Z" />
</g>
<g id="#00ad95ff">
<path fill="#00ad95" opacity="1.00" d=" M 48.31 135.43 C 52.03 134.13 56.46 136.92 55.96 141.04 C 55.96 145.67 49.42 148.19 46.38 144.64 C 43.30 142.09 44.46 136.42 48.31 135.43 Z" />
</g>
<g id="#00ac96ff">
<path fill="#00ac96" opacity="1.00" d=" M 146.70 135.56 C 149.69 135.22 153.61 134.59 155.13 137.97 C 158.20 142.82 151.28 148.98 146.83 145.21 C 143.28 142.85 144.24 138.33 146.70 135.56 Z" />
</g>
<g id="#e26b00ff">
<path fill="#e26b00" opacity="1.00" d=" M 137.97 138.05 C 138.24 137.66 138.78 136.88 139.05 136.49 C 139.81 137.64 140.58 138.79 141.35 139.95 C 139.67 142.19 139.57 144.87 140.55 147.43 C 142.15 147.56 143.75 147.68 145.35 147.80 C 146.57 149.50 147.41 152.30 150.07 151.70 C 152.14 151.87 153.08 149.80 154.29 148.52 C 156.83 148.45 159.08 147.44 160.79 145.58 C 164.65 145.61 168.42 144.80 172.05 143.52 C 172.84 148.61 173.55 154.60 169.70 158.69 C 165.81 162.98 159.54 162.84 154.26 162.13 C 152.91 167.15 149.25 171.49 144.26 173.16 C 133.00 176.94 119.84 173.46 111.59 164.99 C 118.62 161.60 124.95 156.90 130.93 151.93 C 135.11 148.52 137.49 143.37 137.97 138.05 Z" />
</g>
</svg>
