<?xml version="1.0" encoding="UTF-8" ?>
<!DOCTYPE svg PUBLIC "-//W3C//DTD SVG 1.1//EN" "http://www.w3.org/Graphics/SVG/1.1/DTD/svg11.dtd">
<svg width="200pt" height="200pt" viewBox="0 0 200 200" version="1.1" xmlns="http://www.w3.org/2000/svg">
<g id="#abababff">
<path fill="#ababab" opacity="1.00" d=" M 85.10 29.14 C 89.50 21.81 96.91 16.56 104.99 14.00 C 108.74 12.43 114.10 14.72 114.25 19.16 C 114.38 23.81 109.33 25.68 107.25 29.25 C 102.71 35.04 103.91 42.95 105.81 49.52 C 117.07 50.80 127.41 43.71 133.61 34.85 C 135.07 32.69 135.56 29.43 138.31 28.50 C 141.28 27.17 144.79 28.96 146.24 31.67 C 150.54 41.48 151.16 52.82 147.61 62.96 C 158.16 64.53 168.17 69.71 174.94 78.05 C 180.28 84.56 183.71 92.61 184.74 100.97 C 184.89 105.51 180.10 109.78 175.73 107.27 C 172.91 104.68 169.75 102.54 166.26 100.93 C 170.88 112.19 169.96 124.63 172.92 136.27 C 173.30 140.04 169.39 142.67 165.93 141.94 C 162.01 140.96 158.42 139.01 154.94 137.00 C 155.41 145.27 155.96 153.68 158.57 161.60 C 159.61 164.94 162.21 168.32 160.71 171.95 C 159.96 176.32 153.61 177.22 151.08 173.90 C 148.41 170.52 145.93 166.97 143.03 163.77 C 135.63 173.62 127.11 185.08 114.05 186.94 C 103.49 186.82 93.44 182.15 85.21 175.74 C 83.52 174.18 81.22 173.83 79.21 172.88 C 77.14 171.40 76.10 168.93 74.58 166.95 C 66.42 169.92 57.51 169.60 49.08 168.08 C 45.58 167.95 43.22 164.34 44.01 161.05 C 44.62 156.10 50.54 155.22 53.41 151.88 C 51.66 147.16 49.58 142.57 49.21 137.48 C 42.65 138.18 35.82 138.70 29.45 136.62 C 26.33 135.74 25.32 131.77 26.31 129.00 C 26.86 125.88 30.44 125.35 32.49 123.53 C 35.61 120.73 38.63 117.76 40.94 114.23 C 32.03 111.59 23.64 106.41 18.03 98.92 C 15.76 96.25 15.82 91.83 18.67 89.64 C 22.51 87.07 27.45 89.22 31.51 87.31 C 38.27 84.27 42.77 78.09 47.85 72.95 C 56.65 61.83 69.00 53.20 83.09 50.56 C 79.90 43.65 81.27 35.50 85.10 29.14 M 94.23 27.17 C 89.59 31.74 86.23 38.31 87.46 44.96 C 88.25 49.63 91.75 53.35 95.90 55.39 C 87.30 54.91 78.68 57.14 71.01 60.96 C 62.25 65.46 55.71 73.02 49.26 80.26 C 44.57 85.31 39.68 90.72 33.01 93.06 C 29.45 94.43 25.58 94.32 21.83 94.16 C 25.44 99.26 30.42 103.26 36.00 105.99 C 40.37 107.96 45.35 110.08 50.15 109.15 C 50.32 109.51 50.65 110.25 50.81 110.61 C 45.50 118.39 40.12 126.65 31.62 131.30 C 38.89 132.69 46.35 132.04 53.58 130.76 C 54.88 137.99 57.52 144.89 59.33 151.97 C 58.91 157.33 52.93 159.30 49.28 162.22 C 58.60 163.37 69.28 164.79 77.27 158.65 C 78.74 162.08 80.37 165.52 83.05 168.18 L 83.01 165.79 C 90.80 173.57 100.75 179.93 111.93 180.95 C 117.79 181.46 122.64 177.36 126.72 173.71 C 132.99 167.61 138.63 160.70 142.52 152.82 C 146.52 158.60 150.98 164.04 155.37 169.53 C 149.11 155.74 148.82 140.24 148.76 125.37 C 154.29 129.83 160.35 133.72 167.00 136.27 C 163.90 125.77 165.17 114.41 161.16 104.10 C 159.56 99.30 156.39 95.13 152.19 92.30 C 161.84 92.85 171.89 95.52 179.13 102.24 C 177.89 94.31 174.78 86.55 169.25 80.63 C 161.28 71.65 148.75 67.32 136.91 68.81 C 139.02 66.84 140.70 64.43 141.71 61.72 C 145.21 52.81 144.47 42.62 140.83 33.87 C 136.59 43.50 127.78 50.74 117.93 54.12 C 112.73 56.01 107.13 55.59 101.71 55.30 C 98.92 48.02 96.75 39.83 99.20 32.14 C 100.83 26.73 104.83 22.54 108.94 18.86 C 103.52 20.55 98.26 23.10 94.23 27.17 Z" />
</g>
<g id="#000000ff">
<path fill="#000000" opacity="1.00" d=" M 94.23 27.17 C 98.26 23.10 103.52 20.55 108.94 18.86 C 104.83 22.54 100.83 26.73 99.20 32.14 C 96.75 39.83 98.92 48.02 101.71 55.30 C 107.13 55.59 112.73 56.01 117.93 54.12 C 127.78 50.74 136.59 43.50 140.83 33.87 C 144.47 42.62 145.21 52.81 141.71 61.72 C 140.70 64.43 139.02 66.84 136.91 68.81 C 148.75 67.32 161.28 71.65 169.25 80.63 C 174.78 86.55 177.89 94.31 179.13 102.24 C 171.89 95.52 161.84 92.85 152.19 92.30 C 156.39 95.13 159.56 99.30 161.16 104.10 C 165.17 114.41 163.90 125.77 167.00 136.27 C 160.35 133.72 154.29 129.83 148.76 125.37 C 148.82 140.24 149.11 155.74 155.37 169.53 C 150.98 164.04 146.52 158.60 142.52 152.82 C 138.63 160.70 132.99 167.61 126.72 173.71 C 122.64 177.36 117.79 181.46 111.93 180.95 C 100.75 179.93 90.80 173.57 83.01 165.79 L 83.05 168.18 C 80.37 165.52 78.74 162.08 77.27 158.65 C 69.28 164.79 58.60 163.37 49.28 162.22 C 52.93 159.30 58.91 157.33 59.33 151.97 C 57.52 144.89 54.88 137.99 53.58 130.76 C 46.35 132.04 38.89 132.69 31.62 131.30 C 40.12 126.65 45.50 118.39 50.81 110.61 C 54.91 118.14 64.45 119.94 72.24 118.27 C 70.08 111.10 61.92 106.35 54.65 108.55 L 55.52 108.20 C 55.05 107.63 54.58 107.07 54.11 106.50 C 56.18 104.67 58.49 102.74 59.02 99.86 C 60.23 94.99 57.57 90.39 54.92 86.53 C 51.45 89.89 47.94 93.93 47.79 99.02 C 47.50 102.57 49.42 105.69 51.35 108.48 C 51.05 108.65 50.45 108.98 50.15 109.15 C 45.35 110.08 40.37 107.96 36.00 105.99 C 30.42 103.26 25.44 99.26 21.83 94.16 C 25.58 94.32 29.45 94.43 33.01 93.06 C 39.68 90.72 44.57 85.31 49.26 80.26 C 55.71 73.02 62.25 65.46 71.01 60.96 C 78.68 57.14 87.30 54.91 95.90 55.39 C 91.75 53.35 88.25 49.63 87.46 44.96 C 86.23 38.31 89.59 31.74 94.23 27.17 M 96.28 92.00 C 93.75 92.55 91.22 93.15 88.75 93.95 C 93.15 89.99 94.01 83.22 91.13 78.12 C 87.90 79.71 85.08 82.01 82.71 84.71 C 79.72 88.02 76.89 92.25 77.78 96.96 C 75.70 97.69 73.62 98.43 71.57 99.26 C 76.66 95.09 77.04 87.68 74.39 82.03 C 70.21 84.41 65.78 87.27 63.97 91.97 C 62.64 95.18 63.18 98.76 64.33 101.93 C 62.02 102.97 59.70 104.00 57.26 104.71 C 56.71 105.56 56.10 106.50 56.58 107.53 C 58.43 106.38 60.34 105.36 62.31 104.44 C 68.26 111.53 78.29 113.21 87.04 113.64 C 84.97 105.78 76.57 100.92 68.70 101.59 C 71.83 100.77 74.88 99.64 77.94 98.60 C 83.89 106.17 94.82 107.17 103.23 103.47 C 99.55 98.77 93.70 95.50 87.67 95.46 C 90.71 94.83 93.70 93.98 96.71 93.26 C 100.83 98.63 108.09 100.05 114.49 100.14 C 113.07 94.24 106.68 91.87 101.39 90.67 C 106.79 88.71 110.98 82.69 108.71 76.94 C 102.52 79.11 95.00 84.59 96.28 92.00 M 109.27 89.99 C 108.01 90.07 105.49 90.23 104.23 90.31 C 106.74 90.83 109.74 90.24 111.60 92.42 C 114.93 95.50 119.88 96.05 124.03 94.42 C 121.59 90.64 117.05 89.12 112.72 89.64 C 117.30 88.98 121.20 85.15 120.82 80.34 C 115.20 80.25 109.83 84.20 109.27 89.99 M 132.70 107.41 C 133.58 113.13 134.54 118.84 135.56 124.54 C 138.70 123.46 141.96 122.84 145.26 122.45 C 140.48 117.98 135.92 113.16 132.70 107.41 M 103.85 122.71 C 108.13 124.51 112.49 126.21 116.39 128.76 C 111.18 129.68 106.32 127.53 102.26 124.46 C 96.63 129.99 89.54 133.72 82.17 136.38 C 81.77 143.27 81.79 150.19 82.11 157.09 C 81.92 159.48 84.10 160.96 85.51 162.56 C 92.98 169.84 102.38 176.28 113.12 176.81 C 118.48 176.09 122.43 171.82 126.14 168.25 C 131.94 161.73 138.15 154.79 139.97 145.99 C 141.85 138.30 143.19 130.49 144.78 122.74 C 141.75 123.74 138.82 124.99 136.03 126.52 C 136.86 130.96 138.03 135.35 139.83 139.50 C 126.98 135.38 114.47 126.84 109.39 113.88 C 107.92 117.04 106.07 120.01 103.85 122.71 M 56.81 130.04 C 56.58 133.66 57.59 137.16 59.03 140.45 C 63.43 138.15 67.48 135.00 70.43 130.97 C 70.44 129.13 69.19 127.72 68.16 126.33 C 64.47 127.83 60.67 129.06 56.81 130.04 M 59.60 141.48 C 63.11 147.20 68.72 151.48 75.23 153.19 C 73.78 148.64 72.56 144.02 71.65 139.34 C 67.66 140.21 63.64 140.91 59.60 141.48 Z" />
</g>
<g id="#c2ac1bff">
<path fill="#c2ac1b" opacity="1.00" d=" M 96.28 92.00 C 95.00 84.59 102.52 79.11 108.71 76.94 C 110.98 82.69 106.79 88.71 101.39 90.67 C 106.68 91.87 113.07 94.24 114.49 100.14 C 108.09 100.05 100.83 98.63 96.71 93.26 C 93.70 93.98 90.71 94.83 87.67 95.46 C 93.70 95.50 99.55 98.77 103.23 103.47 C 94.82 107.17 83.89 106.17 77.94 98.60 C 74.88 99.64 71.83 100.77 68.70 101.59 C 76.57 100.92 84.97 105.78 87.04 113.64 C 78.29 113.21 68.26 111.53 62.31 104.44 C 60.34 105.36 58.43 106.38 56.58 107.53 C 56.10 106.50 56.71 105.56 57.26 104.71 C 59.70 104.00 62.02 102.97 64.33 101.93 C 63.18 98.76 62.64 95.18 63.97 91.97 C 65.78 87.27 70.21 84.41 74.39 82.03 C 77.04 87.68 76.66 95.09 71.57 99.26 C 73.62 98.43 75.70 97.69 77.78 96.96 C 76.89 92.25 79.72 88.02 82.71 84.71 C 85.08 82.01 87.90 79.71 91.13 78.12 C 94.01 83.22 93.15 89.99 88.75 93.95 C 91.22 93.15 93.75 92.55 96.28 92.00 Z" />
</g>
<g id="#c2ac17ff">
<path fill="#c2ac17" opacity="1.00" d=" M 109.27 89.99 C 109.83 84.20 115.20 80.25 120.82 80.34 C 121.20 85.15 117.30 88.98 112.72 89.64 C 117.05 89.12 121.59 90.64 124.03 94.42 C 119.88 96.05 114.93 95.50 111.60 92.42 C 109.74 90.24 106.74 90.83 104.23 90.31 C 105.49 90.23 108.01 90.07 109.27 89.99 Z" />
</g>
<g id="#c2ac1aff">
<path fill="#c2ac1a" opacity="1.00" d=" M 47.79 99.02 C 47.94 93.93 51.45 89.89 54.92 86.53 C 57.57 90.39 60.23 94.99 59.02 99.86 C 58.49 102.74 56.18 104.67 54.11 106.50 C 54.58 107.07 55.05 107.63 55.52 108.20 L 54.65 108.55 C 61.92 106.35 70.08 111.10 72.24 118.27 C 64.45 119.94 54.91 118.14 50.81 110.61 C 50.65 110.25 50.32 109.51 50.15 109.15 C 50.45 108.98 51.05 108.65 51.35 108.48 C 49.42 105.69 47.50 102.57 47.79 99.02 Z" />
</g>
<g id="#fce7cbff">
<path fill="#fce7cb" opacity="1.00" d=" M 132.70 107.41 C 135.92 113.16 140.48 117.98 145.26 122.45 C 141.96 122.84 138.70 123.46 135.56 124.54 C 134.54 118.84 133.58 113.13 132.70 107.41 Z" />
</g>
<g id="#fde6ccff">
<path fill="#fde6cc" opacity="1.00" d=" M 103.85 122.71 C 106.07 120.01 107.92 117.04 109.39 113.88 C 114.47 126.84 126.98 135.38 139.83 139.50 C 138.03 135.35 136.86 130.96 136.03 126.52 C 138.82 124.99 141.75 123.74 144.78 122.74 C 143.19 130.49 141.85 138.30 139.97 145.99 C 138.15 154.79 131.94 161.73 126.14 168.25 C 122.43 171.82 118.48 176.09 113.12 176.81 C 102.38 176.28 92.98 169.84 85.51 162.56 C 84.10 160.96 81.92 159.48 82.11 157.09 C 81.79 150.19 81.77 143.27 82.17 136.38 C 89.54 133.72 96.63 129.99 102.26 124.46 C 106.32 127.53 111.18 129.68 116.39 128.76 C 112.49 126.21 108.13 124.51 103.85 122.71 Z" />
</g>
<g id="#fde7cbff">
<path fill="#fde7cb" opacity="1.00" d=" M 56.81 130.04 C 60.67 129.06 64.47 127.83 68.16 126.33 C 69.19 127.72 70.44 129.13 70.43 130.97 C 67.48 135.00 63.43 138.15 59.03 140.45 C 57.59 137.16 56.58 133.66 56.81 130.04 Z" />
</g>
<g id="#fde6ceff">
<path fill="#fde6ce" opacity="1.00" d=" M 59.60 141.48 C 63.64 140.91 67.66 140.21 71.65 139.34 C 72.56 144.02 73.78 148.64 75.23 153.19 C 68.72 151.48 63.11 147.20 59.60 141.48 Z" />
</g>
</svg>
