<?xml version="1.0" encoding="UTF-8" ?>
<!DOCTYPE svg PUBLIC "-//W3C//DTD SVG 1.1//EN" "http://www.w3.org/Graphics/SVG/1.1/DTD/svg11.dtd">
<svg width="200pt" height="200pt" viewBox="0 0 200 200" version="1.1" xmlns="http://www.w3.org/2000/svg">
<g id="#010101ff">
<path fill="#010101" opacity="1.00" d=" M 65.11 38.12 C 77.11 28.68 93.00 24.43 108.13 26.48 C 123.13 28.42 137.22 36.51 146.39 48.55 C 151.70 55.35 155.21 63.41 157.13 71.79 C 161.65 73.34 166.28 74.60 170.71 76.38 C 172.59 77.04 172.69 79.29 172.69 80.96 C 172.67 90.96 172.69 100.96 172.68 110.96 C 172.71 112.62 172.50 114.80 170.64 115.42 C 166.42 117.06 162.05 118.32 157.75 119.75 C 153.94 127.66 150.34 135.68 146.60 143.62 C 145.80 145.36 144.28 146.59 142.90 147.86 C 132.55 157.13 122.48 166.73 112.03 175.86 C 104.73 176.32 97.32 176.27 90.01 175.89 C 79.19 166.44 68.78 156.50 58.06 146.92 C 55.51 144.91 54.56 141.71 53.20 138.90 C 50.21 132.52 47.32 126.10 44.27 119.76 C 39.98 118.33 35.62 117.07 31.41 115.44 C 29.56 114.85 29.28 112.70 29.33 111.05 C 29.31 101.01 29.33 90.97 29.32 80.93 C 29.30 79.25 29.44 76.98 31.34 76.35 C 35.47 74.65 39.85 73.61 44.00 71.98 C 46.66 58.64 54.32 46.39 65.11 38.12 M 76.23 35.52 C 77.50 41.03 78.26 46.63 78.75 52.26 C 80.10 57.74 80.44 63.37 81.54 68.90 C 82.10 75.29 84.17 81.52 83.39 88.00 C 82.47 85.77 82.65 83.32 82.23 80.99 C 78.97 70.83 77.86 60.17 75.03 49.90 C 73.79 46.15 73.78 42.07 71.95 38.51 C 70.67 38.96 69.42 39.53 68.38 40.42 C 58.16 48.11 50.43 59.40 47.97 72.02 C 47.64 73.17 47.73 74.79 46.42 75.35 C 42.24 76.97 37.78 77.84 33.69 79.69 C 33.49 80.01 33.10 80.65 32.90 80.97 C 32.66 90.98 32.77 101.02 32.85 111.03 C 36.87 114.20 42.58 114.62 47.26 116.72 C 50.73 124.81 54.74 132.64 58.32 140.68 C 59.43 143.40 61.95 145.07 64.03 147.00 C 72.83 155.20 81.78 163.25 90.67 171.35 C 92.27 173.16 94.85 172.44 96.96 172.57 C 101.35 172.29 105.82 172.99 110.17 172.26 C 120.63 162.73 131.17 153.28 141.51 143.60 C 142.41 142.77 143.09 141.74 143.59 140.63 C 146.80 133.50 150.25 126.48 153.43 119.33 C 154.07 118.14 154.48 116.51 156.04 116.26 C 160.28 114.77 164.57 113.40 168.79 111.86 C 169.23 108.58 169.40 105.28 169.07 101.99 C 168.29 94.79 170.22 87.42 168.69 80.31 C 164.27 77.36 158.32 77.14 153.64 74.43 C 151.01 59.47 141.82 45.88 128.87 37.94 C 127.25 41.79 126.12 45.84 125.57 49.98 C 123.43 58.27 121.77 66.67 119.82 74.99 C 119.46 77.24 119.49 79.60 118.45 81.68 C 116.92 84.53 117.57 87.89 116.54 90.90 C 116.24 83.82 117.73 76.84 119.22 69.97 C 120.18 58.33 122.99 46.89 123.71 35.23 C 109.01 27.74 90.95 28.39 76.23 35.52 Z" />
<path fill="#010101" opacity="1.00" d=" M 56.12 123.23 C 62.61 127.85 68.54 133.19 74.74 138.18 C 76.20 139.42 77.88 140.56 78.70 142.36 C 81.99 149.11 85.00 156.00 87.98 162.89 C 80.71 156.92 74.18 150.12 67.19 143.85 C 64.94 141.74 62.37 139.71 61.46 136.63 C 59.89 132.08 57.66 127.79 56.12 123.23 Z" />
<path fill="#010101" opacity="1.00" d=" M 125.12 140.31 C 131.99 134.54 139.04 128.97 145.89 123.16 C 145.27 126.73 143.39 129.88 142.21 133.27 C 141.16 135.78 140.54 138.61 138.59 140.62 C 133.50 145.51 128.17 150.15 123.14 155.11 C 120.52 157.52 118.16 160.29 115.00 162.02 C 116.57 157.16 119.15 152.72 121.03 147.99 C 122.34 145.41 123.17 142.49 125.12 140.31 Z" />
</g>
<g id="#013772ff">
<path fill="#013772" opacity="1.00" d=" M 76.23 35.52 C 90.95 28.39 109.01 27.74 123.71 35.23 C 122.99 46.89 120.18 58.33 119.22 69.97 C 117.73 76.84 116.24 83.82 116.54 90.90 C 117.57 87.89 116.92 84.53 118.45 81.68 C 119.49 79.60 119.46 77.24 119.82 74.99 C 121.77 66.67 123.43 58.27 125.57 49.98 C 126.12 45.84 127.25 41.79 128.87 37.94 C 141.82 45.88 151.01 59.47 153.64 74.43 C 158.32 77.14 164.27 77.36 168.69 80.31 C 170.22 87.42 168.29 94.79 169.07 101.99 C 169.40 105.28 169.23 108.58 168.79 111.86 C 164.57 113.40 160.28 114.77 156.04 116.26 C 154.48 116.51 154.07 118.14 153.43 119.33 C 150.25 126.48 146.80 133.50 143.59 140.63 C 143.09 141.74 142.41 142.77 141.51 143.60 C 131.17 153.28 120.63 162.73 110.17 172.26 C 105.82 172.99 101.35 172.29 96.96 172.57 C 94.85 172.44 92.27 173.16 90.67 171.35 C 81.78 163.25 72.83 155.20 64.03 147.00 C 61.95 145.07 59.43 143.40 58.32 140.68 C 54.74 132.64 50.73 124.81 47.26 116.72 C 42.58 114.62 36.87 114.20 32.85 111.03 C 32.77 101.02 32.66 90.98 32.90 80.97 C 33.10 80.65 33.49 80.01 33.69 79.69 C 37.78 77.84 42.24 76.97 46.42 75.35 C 47.73 74.79 47.64 73.17 47.97 72.02 C 50.43 59.40 58.16 48.11 68.38 40.42 C 69.42 39.53 70.67 38.96 71.95 38.51 C 73.78 42.07 73.79 46.15 75.03 49.90 C 77.86 60.17 78.97 70.83 82.23 80.99 C 82.65 83.32 82.47 85.77 83.39 88.00 C 84.17 81.52 82.10 75.29 81.54 68.90 C 80.44 63.37 80.10 57.74 78.75 52.26 C 78.26 46.63 77.50 41.03 76.23 35.52 M 58.68 82.51 C 59.60 86.19 59.83 90.17 61.40 93.63 C 69.24 101.72 77.67 109.29 85.46 117.43 C 88.23 128.49 90.98 139.63 93.06 150.86 C 93.50 150.00 93.93 149.15 94.35 148.30 C 94.64 148.62 95.22 149.28 95.51 149.60 C 94.99 150.14 93.93 151.21 93.40 151.75 C 94.92 157.80 96.54 163.83 98.21 169.83 C 99.92 169.95 101.63 170.04 103.34 170.08 C 104.31 167.38 105.25 164.68 106.16 161.96 C 105.89 160.65 105.58 159.35 105.19 158.07 C 105.59 158.55 106.39 159.51 106.79 159.99 C 107.24 156.85 107.98 153.78 108.75 150.71 C 108.18 150.79 107.05 150.97 106.49 151.05 C 107.71 150.06 108.00 148.80 107.36 147.26 C 107.80 148.46 108.21 149.70 108.91 150.79 C 110.67 140.80 113.43 131.01 115.51 121.07 C 115.95 119.46 115.97 117.55 117.33 116.36 C 125.09 108.77 132.96 101.28 140.64 93.63 C 141.81 90.00 142.45 86.23 143.21 82.51 C 134.04 87.58 125.02 92.93 115.91 98.12 C 115.65 99.10 115.44 100.09 115.28 101.09 C 110.64 103.02 105.88 104.89 100.94 105.83 C 96.19 105.48 91.77 103.39 87.48 101.46 C 85.81 100.64 86.62 97.96 84.66 97.36 C 75.98 92.44 67.42 87.31 58.68 82.51 M 56.12 123.23 C 57.66 127.79 59.89 132.08 61.46 136.63 C 62.37 139.71 64.94 141.74 67.19 143.85 C 74.18 150.12 80.71 156.92 87.98 162.89 C 85.00 156.00 81.99 149.11 78.70 142.36 C 77.88 140.56 76.20 139.42 74.74 138.18 C 68.54 133.19 62.61 127.85 56.12 123.23 M 125.12 140.31 C 123.17 142.49 122.34 145.41 121.03 147.99 C 119.15 152.72 116.57 157.16 115.00 162.02 C 118.16 160.29 120.52 157.52 123.14 155.11 C 128.17 150.15 133.50 145.51 138.59 140.62 C 140.54 138.61 141.16 135.78 142.21 133.27 C 143.39 129.88 145.27 126.73 145.89 123.16 C 139.04 128.97 131.99 134.54 125.12 140.31 Z" />
</g>
<g id="#6affffff">
<path fill="#6affff" opacity="1.00" d=" M 58.68 82.51 C 67.42 87.31 75.98 92.44 84.66 97.36 C 86.62 97.96 85.81 100.64 87.48 101.46 C 91.77 103.39 96.19 105.48 100.94 105.83 C 105.88 104.89 110.64 103.02 115.28 101.09 C 115.44 100.09 115.65 99.10 115.91 98.12 C 125.02 92.93 134.04 87.58 143.21 82.51 C 142.45 86.23 141.81 90.00 140.64 93.63 C 132.96 101.28 125.09 108.77 117.33 116.36 C 115.97 117.55 115.95 119.46 115.51 121.07 C 113.43 131.01 110.67 140.80 108.91 150.79 C 108.21 149.70 107.80 148.46 107.36 147.26 C 108.00 148.80 107.71 150.06 106.49 151.05 C 107.05 150.97 108.18 150.79 108.75 150.71 C 107.98 153.78 107.24 156.85 106.79 159.99 C 106.39 159.51 105.59 158.55 105.19 158.07 C 105.58 159.35 105.89 160.65 106.16 161.96 C 105.25 164.68 104.31 167.38 103.34 170.08 C 101.63 170.04 99.92 169.95 98.21 169.83 C 96.54 163.83 94.92 157.80 93.40 151.75 C 93.93 151.21 94.99 150.14 95.51 149.60 C 95.22 149.28 94.64 148.62 94.35 148.30 C 93.93 149.15 93.50 150.00 93.06 150.86 C 90.98 139.63 88.23 128.49 85.46 117.43 C 77.67 109.29 69.24 101.72 61.40 93.63 C 59.83 90.17 59.60 86.19 58.68 82.51 Z" />
</g>
</svg>
