<?xml version="1.0" encoding="UTF-8" ?>
<!DOCTYPE svg PUBLIC "-//W3C//DTD SVG 1.1//EN" "http://www.w3.org/Graphics/SVG/1.1/DTD/svg11.dtd">
<svg width="200pt" height="200pt" viewBox="0 0 200 200" version="1.1" xmlns="http://www.w3.org/2000/svg">
<g id="#000000ff">
<path fill="#000000" opacity="1.00" d=" M 83.06 27.06 C 87.91 20.47 95.71 16.18 103.94 16.03 C 111.50 15.83 120.30 17.53 124.92 24.12 C 126.64 26.31 125.47 29.97 122.74 30.65 C 119.12 31.03 114.88 30.19 111.96 32.90 C 109.48 35.09 110.40 39.31 113.11 40.89 C 120.87 46.31 129.53 51.75 133.48 60.76 C 135.56 62.27 138.12 63.17 139.76 65.24 C 144.42 70.62 145.31 78.16 145.05 85.02 C 144.79 91.66 143.18 98.24 140.31 104.24 C 146.89 107.96 151.79 114.00 155.43 120.52 C 156.98 123.21 158.14 126.30 160.73 128.21 C 164.15 130.98 168.37 133.52 169.59 138.05 C 171.08 143.71 168.19 149.40 164.81 153.78 C 153.82 167.79 138.69 179.13 121.16 183.25 C 103.90 187.39 85.56 183.80 69.76 176.24 C 58.25 170.53 47.35 161.89 42.34 149.74 C 38.90 141.63 39.44 132.20 43.25 124.32 C 34.04 117.43 29.59 105.12 31.42 93.89 C 32.50 87.38 37.08 81.80 43.16 79.32 C 43.50 70.82 46.63 61.98 53.41 56.52 C 55.70 54.51 58.65 53.64 61.35 52.37 C 65.15 48.10 67.41 42.64 69.11 37.23 C 67.22 35.87 64.43 34.73 64.42 31.99 C 64.29 29.32 66.81 27.74 68.92 26.76 C 73.40 24.62 78.61 25.20 83.06 27.06 M 84.50 33.80 C 80.81 29.15 73.72 28.59 68.94 31.86 C 71.18 33.51 74.46 35.64 73.29 38.94 C 71.45 45.16 68.63 51.33 64.14 56.09 C 61.76 57.48 58.81 57.82 56.69 59.71 C 49.82 65.17 47.06 74.50 47.83 83.00 C 41.17 83.51 36.22 89.70 35.66 96.11 C 34.59 106.52 39.42 118.30 49.27 122.92 C 44.73 129.97 43.04 139.01 46.01 147.00 C 50.17 158.54 60.32 166.71 70.92 172.18 C 85.04 179.20 101.33 182.82 117.02 180.09 C 133.24 177.28 147.62 167.70 158.36 155.49 C 162.12 151.13 166.65 146.11 165.96 139.91 C 164.36 134.08 157.22 132.61 154.60 127.40 C 150.07 118.64 144.10 109.07 133.94 106.38 C 136.87 103.18 138.57 99.09 139.64 94.93 C 141.51 87.20 142.20 78.61 138.86 71.18 C 137.25 67.39 133.49 65.13 129.52 64.55 L 130.09 63.89 C 127.38 54.86 118.46 49.99 111.32 44.76 C 106.81 42.16 105.03 35.64 108.23 31.36 C 111.32 27.00 117.13 26.63 122.01 26.69 C 116.90 20.86 108.35 19.61 101.05 20.80 C 93.71 21.89 87.54 27.15 84.50 33.80 Z" />
</g>
<g id="#7e3c19ff">
<path fill="#7e3c19" opacity="1.00" d=" M 84.50 33.80 C 87.54 27.15 93.71 21.89 101.05 20.80 C 108.35 19.61 116.90 20.86 122.01 26.69 C 117.13 26.63 111.32 27.00 108.23 31.36 C 105.03 35.64 106.81 42.16 111.32 44.76 C 118.46 49.99 127.38 54.86 130.09 63.89 L 129.52 64.55 C 126.45 67.83 124.36 72.41 119.90 74.04 C 117.07 75.43 114.09 73.70 111.63 72.35 C 103.88 67.75 96.78 61.64 87.90 59.34 C 81.95 57.72 74.90 58.99 70.73 63.77 C 66.68 68.43 66.05 75.05 66.72 80.96 C 67.90 90.63 71.81 100.11 78.45 107.32 C 73.03 108.10 68.44 111.49 65.44 115.97 C 65.86 108.03 63.30 100.24 59.64 93.30 C 57.10 88.67 53.46 83.73 47.83 83.00 C 47.06 74.50 49.82 65.17 56.69 59.71 C 58.81 57.82 61.76 57.48 64.14 56.09 C 68.63 51.33 71.45 45.16 73.29 38.94 C 74.46 35.64 71.18 33.51 68.94 31.86 C 73.72 28.59 80.81 29.15 84.50 33.80 Z" />
</g>
<g id="#f8c284ff">
<path fill="#f8c284" opacity="1.00" d=" M 70.73 63.77 C 74.90 58.99 81.95 57.72 87.90 59.34 C 96.78 61.64 103.88 67.75 111.63 72.35 C 114.09 73.70 117.07 75.43 119.90 74.04 C 124.36 72.41 126.45 67.83 129.52 64.55 C 133.49 65.13 137.25 67.39 138.86 71.18 C 142.20 78.61 141.51 87.20 139.64 94.93 C 138.57 99.09 136.87 103.18 133.94 106.38 C 144.10 109.07 150.07 118.64 154.60 127.40 C 157.22 132.61 164.36 134.08 165.96 139.91 C 166.65 146.11 162.12 151.13 158.36 155.49 C 147.62 167.70 133.24 177.28 117.02 180.09 C 101.33 182.82 85.04 179.20 70.92 172.18 C 60.32 166.71 50.17 158.54 46.01 147.00 C 43.04 139.01 44.73 129.97 49.27 122.92 C 39.42 118.30 34.59 106.52 35.66 96.11 C 36.22 89.70 41.17 83.51 47.83 83.00 C 53.46 83.73 57.10 88.67 59.64 93.30 C 63.30 100.24 65.86 108.03 65.44 115.97 C 68.44 111.49 73.03 108.10 78.45 107.32 C 71.81 100.11 67.90 90.63 66.72 80.96 C 66.05 75.05 66.68 68.43 70.73 63.77 Z" />
</g>
</svg>
