<?xml version="1.0" encoding="UTF-8" ?>
<!DOCTYPE svg PUBLIC "-//W3C//DTD SVG 1.1//EN" "http://www.w3.org/Graphics/SVG/1.1/DTD/svg11.dtd">
<svg width="200pt" height="200pt" viewBox="0 0 200 200" version="1.1" xmlns="http://www.w3.org/2000/svg">
<g id="#000000ff">
<path fill="#000000" opacity="1.00" d=" M 40.78 27.82 C 43.29 21.13 50.99 16.62 58.04 18.36 C 63.26 19.66 67.39 23.30 71.76 26.21 C 76.05 29.29 80.90 31.43 85.83 33.24 C 95.52 28.35 107.57 28.64 117.01 34.00 C 121.04 36.08 124.18 39.39 127.27 42.63 C 137.98 45.84 148.74 51.69 154.12 61.94 C 159.24 70.75 158.75 81.18 159.76 90.97 C 160.19 96.14 160.18 101.34 160.17 106.52 C 166.70 108.16 171.45 114.34 171.93 120.96 C 172.50 132.35 165.45 143.11 155.94 148.93 C 150.31 161.33 138.34 169.16 126.21 174.31 C 112.91 184.92 92.88 185.94 78.86 176.16 C 75.56 173.45 71.33 172.40 67.72 170.21 C 58.68 165.38 50.70 158.19 46.30 148.81 C 37.61 143.58 31.34 134.29 30.38 124.13 C 29.62 116.56 34.40 108.62 41.91 106.61 C 41.72 96.29 42.54 85.99 43.73 75.74 C 36.17 72.85 29.01 66.54 28.06 58.11 C 27.06 50.75 32.97 42.46 40.95 43.44 C 39.63 38.37 38.74 32.83 40.78 27.82 M 43.82 34.06 C 43.41 40.00 46.22 45.32 48.96 50.36 C 45.03 48.68 40.62 46.58 36.35 48.42 C 31.98 51.41 31.01 57.96 33.73 62.38 C 36.68 67.50 41.95 71.28 47.77 72.39 C 47.86 73.10 48.04 74.50 48.13 75.20 C 47.48 79.53 46.96 83.87 46.65 88.23 C 46.05 95.59 46.04 102.99 46.36 110.37 C 42.17 110.14 38.06 112.47 36.17 116.22 C 33.16 121.65 34.86 128.24 37.50 133.45 C 40.17 138.41 44.05 143.11 49.35 145.33 C 54.43 157.87 66.30 165.75 78.39 170.65 C 83.40 174.71 89.48 177.32 95.83 178.38 C 105.67 179.97 116.03 176.96 123.78 170.79 C 133.45 166.59 143.22 161.20 149.24 152.24 C 150.97 150.03 151.48 147.06 153.54 145.09 C 158.75 142.71 162.56 137.97 165.12 132.97 C 167.41 128.17 168.96 122.36 166.70 117.27 C 165.53 114.29 162.99 112.03 160.08 110.81 C 158.65 110.47 157.21 110.15 155.79 109.79 C 155.83 105.25 156.27 100.70 155.83 96.17 C 155.58 89.19 155.25 82.17 154.30 75.26 C 152.92 64.69 145.97 55.21 136.31 50.71 C 132.78 49.25 129.24 46.83 125.26 47.26 C 121.77 42.15 116.81 37.98 110.96 35.84 C 102.73 32.69 93.13 33.64 85.56 38.13 C 82.06 35.91 77.98 34.86 74.40 32.77 C 68.59 29.73 63.84 24.83 57.61 22.57 C 50.67 20.52 43.38 27.03 43.82 34.06 Z" />
<path fill="#000000" opacity="1.00" d=" M 97.39 58.53 C 100.79 55.82 106.45 58.60 106.21 62.98 C 106.40 66.96 101.59 69.85 98.14 67.88 C 94.55 66.25 94.15 60.71 97.39 58.53 Z" />
</g>
<g id="#5e381aff">
<path fill="#5e381a" opacity="1.00" d=" M 43.82 34.06 C 43.38 27.03 50.67 20.52 57.61 22.57 C 63.84 24.83 68.59 29.73 74.40 32.77 C 77.98 34.86 82.06 35.91 85.56 38.13 C 73.07 45.45 68.12 62.25 73.80 75.42 C 65.25 75.03 56.68 75.55 48.13 75.20 C 48.04 74.50 47.86 73.10 47.77 72.39 C 41.95 71.28 36.68 67.50 33.73 62.38 C 31.01 57.96 31.98 51.41 36.35 48.42 C 40.62 46.58 45.03 48.68 48.96 50.36 C 46.22 45.32 43.41 40.00 43.82 34.06 Z" />
<path fill="#5e381a" opacity="1.00" d=" M 125.26 47.26 C 129.24 46.83 132.78 49.25 136.31 50.71 C 145.97 55.21 152.92 64.69 154.30 75.26 C 145.50 75.16 136.60 76.10 127.88 74.64 C 131.26 65.73 130.32 55.36 125.26 47.26 Z" />
<path fill="#5e381a" opacity="1.00" d=" M 46.65 88.23 C 52.08 88.61 57.52 88.48 62.95 88.18 C 69.47 87.75 76.08 89.89 82.49 87.84 C 82.88 88.14 83.68 88.73 84.07 89.02 C 83.15 88.99 81.31 88.93 80.39 88.89 C 87.20 92.39 90.32 99.98 91.02 107.24 C 87.18 102.09 81.89 96.78 74.96 97.05 C 69.64 97.07 65.44 100.92 62.75 105.16 C 61.82 98.91 64.12 91.99 69.95 88.91 C 66.18 89.03 62.41 89.01 58.64 89.00 C 56.97 99.77 57.40 110.77 59.00 121.52 C 55.52 123.94 52.35 126.78 49.34 129.76 C 47.18 123.53 46.87 116.89 46.36 110.37 C 46.04 102.99 46.05 95.59 46.65 88.23 Z" />
</g>
<g id="#f0f0f0ff">
<path fill="#f0f0f0" opacity="1.00" d=" M 85.56 38.13 C 93.13 33.64 102.73 32.69 110.96 35.84 C 116.81 37.98 121.77 42.15 125.26 47.26 C 130.32 55.36 131.26 65.73 127.88 74.64 C 127.14 76.39 126.26 78.07 125.36 79.74 C 122.19 82.07 119.79 85.29 116.43 87.37 C 107.25 93.37 94.59 93.52 85.34 87.59 C 82.02 85.69 79.70 82.53 76.45 80.54 C 75.46 78.89 74.63 77.15 73.80 75.42 C 68.12 62.25 73.07 45.45 85.56 38.13 M 97.39 58.53 C 94.15 60.71 94.55 66.25 98.14 67.88 C 101.59 69.85 106.40 66.96 106.21 62.98 C 106.45 58.60 100.79 55.82 97.39 58.53 Z" />
</g>
<g id="#3b2c28ff">
<path fill="#3b2c28" opacity="1.00" d=" M 48.13 75.20 C 56.68 75.55 65.25 75.03 73.80 75.42 C 74.63 77.15 75.46 78.89 76.45 80.54 C 77.80 83.48 80.13 85.72 82.49 87.84 C 76.08 89.89 69.47 87.75 62.95 88.18 C 57.52 88.48 52.08 88.61 46.65 88.23 C 46.96 83.87 47.48 79.53 48.13 75.20 Z" />
<path fill="#3b2c28" opacity="1.00" d=" M 125.36 79.74 C 126.26 78.07 127.14 76.39 127.88 74.64 C 136.60 76.10 145.50 75.16 154.30 75.26 C 155.25 82.17 155.58 89.19 155.83 96.17 C 155.56 93.77 155.23 91.38 154.94 88.99 C 151.11 88.58 147.28 88.67 143.45 88.77 C 139.63 88.72 135.82 88.84 132.02 88.76 C 127.76 88.47 123.39 89.00 119.35 87.32 C 121.83 85.21 124.10 82.79 125.36 79.74 Z" />
<path fill="#3b2c28" opacity="1.00" d=" M 62.92 145.02 C 55.81 144.07 53.91 134.67 57.67 129.47 C 65.02 132.35 72.85 133.61 80.58 135.00 C 80.22 139.20 81.44 143.54 84.30 146.68 C 92.69 156.14 109.35 156.20 117.82 146.81 C 120.73 143.62 122.09 139.23 121.65 134.95 C 129.21 133.71 136.75 132.12 143.96 129.48 C 147.48 134.80 145.75 144.06 138.60 145.04 C 139.83 149.42 137.15 153.98 133.00 155.54 C 129.54 157.04 125.59 156.24 122.38 154.51 C 122.03 156.75 121.43 159.14 119.56 160.61 C 114.29 165.13 105.80 164.39 100.79 159.80 C 94.48 166.09 80.06 164.81 79.07 154.51 C 74.71 157.17 68.49 156.99 64.92 153.10 C 62.81 150.98 62.36 147.85 62.92 145.02 Z" />
</g>
<g id="#a7a29dff">
<path fill="#a7a29d" opacity="1.00" d=" M 116.43 87.37 C 119.79 85.29 122.19 82.07 125.36 79.74 C 124.10 82.79 121.83 85.21 119.35 87.32 C 118.67 87.88 117.99 88.42 117.29 88.95 C 107.61 95.86 93.84 95.70 84.07 89.02 C 83.68 88.73 82.88 88.14 82.49 87.84 C 80.13 85.72 77.80 83.48 76.45 80.54 C 79.70 82.53 82.02 85.69 85.34 87.59 C 94.59 93.52 107.25 93.37 116.43 87.37 Z" />
</g>
<g id="#603819ff">
<path fill="#603819" opacity="1.00" d=" M 117.29 88.95 C 117.99 88.42 118.67 87.88 119.35 87.32 C 123.39 89.00 127.76 88.47 132.02 88.76 C 137.94 91.91 140.20 98.89 139.38 105.25 C 136.57 100.55 131.64 96.58 125.88 97.07 C 119.47 97.48 114.70 102.37 111.07 107.21 C 111.79 99.92 114.91 92.23 121.84 88.84 C 120.70 88.87 118.43 88.92 117.29 88.95 Z" />
</g>
<g id="#ffd7acff">
<path fill="#ffd7ac" opacity="1.00" d=" M 59.00 121.52 C 57.40 110.77 56.97 99.77 58.64 89.00 C 62.41 89.01 66.18 89.03 69.95 88.91 C 64.12 91.99 61.82 98.91 62.75 105.16 C 65.44 100.92 69.64 97.07 74.96 97.05 C 81.89 96.78 87.18 102.09 91.02 107.24 C 90.32 99.98 87.20 92.39 80.39 88.89 C 81.31 88.93 83.15 88.99 84.07 89.02 C 93.84 95.70 107.61 95.86 117.29 88.95 C 118.43 88.92 120.70 88.87 121.84 88.84 C 114.91 92.23 111.79 99.92 111.07 107.21 C 114.70 102.37 119.47 97.48 125.88 97.07 C 131.64 96.58 136.57 100.55 139.38 105.25 C 140.20 98.89 137.94 91.91 132.02 88.76 C 135.82 88.84 139.63 88.72 143.45 88.77 C 145.05 99.65 144.72 110.72 143.07 121.57 C 146.65 123.92 149.70 126.93 152.94 129.70 C 155.11 134.57 153.03 139.98 153.54 145.09 C 151.48 147.06 150.97 150.03 149.24 152.24 C 143.22 161.20 133.45 166.59 123.78 170.79 C 116.03 176.96 105.67 179.97 95.83 178.38 C 89.48 177.32 83.40 174.71 78.39 170.65 C 66.30 165.75 54.43 157.87 49.35 145.33 C 48.09 140.29 47.41 134.72 49.34 129.76 C 52.35 126.78 55.52 123.94 59.00 121.52 M 91.71 121.77 C 86.41 124.30 81.28 128.85 80.58 135.00 C 72.85 133.61 65.02 132.35 57.67 129.47 C 53.91 134.67 55.81 144.07 62.92 145.02 C 62.36 147.85 62.81 150.98 64.92 153.10 C 68.49 156.99 74.71 157.17 79.07 154.51 C 80.06 164.81 94.48 166.09 100.79 159.80 C 105.80 164.39 114.29 165.13 119.56 160.61 C 121.43 159.14 122.03 156.75 122.38 154.51 C 125.59 156.24 129.54 157.04 133.00 155.54 C 137.15 153.98 139.83 149.42 138.60 145.04 C 145.75 144.06 147.48 134.80 143.96 129.48 C 136.75 132.12 129.21 133.71 121.65 134.95 C 120.56 128.65 115.45 123.61 109.61 121.42 C 103.85 119.54 97.38 119.56 91.71 121.77 Z" />
<path fill="#ffd7ac" opacity="1.00" d=" M 97.30 121.43 C 105.33 120.02 115.46 123.64 117.77 132.19 C 119.03 137.16 116.41 142.42 112.62 145.57 C 106.41 149.62 97.92 150.20 91.38 146.55 C 87.23 143.76 83.49 139.21 84.14 133.89 C 85.15 127.30 91.05 122.74 97.30 121.43 Z" />
</g>
<g id="#5e3819ff">
<path fill="#5e3819" opacity="1.00" d=" M 143.45 88.77 C 147.28 88.67 151.11 88.58 154.94 88.99 C 155.23 91.38 155.56 93.77 155.83 96.17 C 156.27 100.70 155.83 105.25 155.79 109.79 C 157.21 110.15 158.65 110.47 160.08 110.81 C 158.64 110.74 157.20 110.64 155.76 110.50 C 155.24 116.95 154.69 123.44 152.94 129.70 C 149.70 126.93 146.65 123.92 143.07 121.57 C 144.72 110.72 145.05 99.65 143.45 88.77 Z" />
</g>
<g id="#face9bff">
<path fill="#face9b" opacity="1.00" d=" M 36.17 116.22 C 38.06 112.47 42.17 110.14 46.36 110.37 C 46.87 116.89 47.18 123.53 49.34 129.76 C 47.41 134.72 48.09 140.29 49.35 145.33 C 44.05 143.11 40.17 138.41 37.50 133.45 C 34.86 128.24 33.16 121.65 36.17 116.22 Z" />
</g>
<g id="#f9ce9bff">
<path fill="#f9ce9b" opacity="1.00" d=" M 152.94 129.70 C 154.69 123.44 155.24 116.95 155.76 110.50 C 157.20 110.64 158.64 110.74 160.08 110.81 C 162.99 112.03 165.53 114.29 166.70 117.27 C 168.96 122.36 167.41 128.17 165.12 132.97 C 162.56 137.97 158.75 142.71 153.54 145.09 C 153.03 139.98 155.11 134.57 152.94 129.70 Z" />
</g>
<g id="#edc295ff">
<path fill="#edc295" opacity="1.00" d=" M 91.71 121.77 C 97.38 119.56 103.85 119.54 109.61 121.42 C 115.45 123.61 120.56 128.65 121.65 134.95 C 122.09 139.23 120.73 143.62 117.82 146.81 C 109.35 156.20 92.69 156.14 84.30 146.68 C 81.44 143.54 80.22 139.20 80.58 135.00 C 81.28 128.85 86.41 124.30 91.71 121.77 M 97.30 121.43 C 91.05 122.74 85.15 127.30 84.14 133.89 C 83.49 139.21 87.23 143.76 91.38 146.55 C 97.92 150.20 106.41 149.62 112.62 145.57 C 116.41 142.42 119.03 137.16 117.77 132.19 C 115.46 123.64 105.33 120.02 97.30 121.43 Z" />
</g>
</svg>
