<?xml version="1.0" encoding="UTF-8" ?>
<!DOCTYPE svg PUBLIC "-//W3C//DTD SVG 1.1//EN" "http://www.w3.org/Graphics/SVG/1.1/DTD/svg11.dtd">
<svg width="200pt" height="200pt" viewBox="0 0 200 200" version="1.1" xmlns="http://www.w3.org/2000/svg">
<g id="#000100ff">
<path fill="#000100" opacity="1.00" d=" M 134.13 25.07 C 136.42 22.95 136.34 18.45 140.01 18.00 C 143.72 17.58 145.40 21.52 146.57 24.32 C 151.65 26.71 150.57 33.22 154.09 36.86 C 159.93 54.77 154.01 73.44 153.97 91.70 C 156.54 92.00 160.14 91.97 161.00 95.06 C 161.46 103.23 161.05 111.44 161.19 119.62 C 167.76 127.44 175.11 134.65 180.64 143.30 C 182.08 146.05 179.73 148.89 177.06 149.52 C 177.21 151.96 175.94 155.03 173.08 154.94 C 166.17 153.91 159.29 155.61 152.49 156.71 C 142.05 158.74 131.46 160.16 121.25 163.24 C 111.56 166.12 102.05 169.70 92.09 171.57 C 81.72 172.98 72.27 167.39 62.14 166.37 C 51.48 164.43 40.16 167.97 32.15 175.16 C 30.13 176.86 29.20 179.44 27.35 181.27 C 24.75 183.29 20.52 181.15 20.66 177.85 C 20.16 165.13 18.63 151.94 22.50 139.58 C 25.02 131.32 32.41 125.97 39.97 122.64 C 40.28 115.13 39.80 107.60 40.20 100.10 C 40.65 97.35 43.69 96.63 46.06 96.88 C 46.58 91.23 47.62 85.44 50.57 80.51 C 53.47 75.54 58.28 72.14 62.99 69.03 C 76.57 60.34 91.60 54.33 105.82 46.83 C 115.90 40.52 125.99 33.83 134.13 25.07 M 139.37 25.47 C 135.49 31.48 129.53 35.67 123.99 40.02 C 117.36 44.84 110.68 49.69 103.28 53.25 C 92.98 58.18 82.63 63.02 72.61 68.50 C 66.63 72.00 60.36 75.46 55.83 80.84 C 50.69 87.78 50.08 96.89 50.46 105.22 C 48.48 103.94 46.55 102.60 44.61 101.28 C 44.66 108.75 44.63 116.22 44.61 123.70 C 45.43 123.55 47.07 123.25 47.90 123.11 C 42.50 127.06 35.68 128.93 31.04 133.92 C 26.73 138.50 25.40 144.94 24.83 151.00 C 24.15 160.00 24.64 169.04 25.14 178.04 C 30.38 168.64 41.00 164.23 51.03 162.09 C 60.23 161.46 69.37 163.35 78.12 166.08 C 84.86 168.29 92.56 169.03 99.01 165.55 C 100.69 165.51 102.38 165.37 103.94 164.72 C 116.36 160.36 129.04 156.66 142.05 154.59 C 152.40 153.04 162.66 150.19 173.20 150.57 C 171.86 148.94 170.51 147.32 169.07 145.77 C 171.70 145.40 174.34 145.22 177.00 145.22 C 171.51 136.74 164.35 129.55 157.65 122.06 C 156.90 113.63 157.40 105.14 157.44 96.69 C 154.93 96.27 152.41 95.93 149.87 95.82 C 150.37 89.24 150.07 82.59 151.25 76.06 C 151.53 69.05 152.96 62.11 152.73 55.07 C 152.72 49.66 151.85 44.31 151.09 38.97 C 150.12 39.36 149.35 40.03 148.68 40.81 C 148.58 37.27 147.80 33.80 147.20 30.32 C 146.60 30.29 145.40 30.25 144.79 30.23 C 144.45 31.60 144.10 32.97 143.73 34.33 C 143.43 30.63 143.56 26.72 141.73 23.35 C 140.26 22.63 140.09 24.68 139.37 25.47 Z" />
</g>
<g id="#014db7ff">
<path fill="#014db7" opacity="1.00" d=" M 139.37 25.47 C 140.09 24.68 140.26 22.63 141.73 23.35 C 143.56 26.72 143.43 30.63 143.73 34.33 C 144.10 32.97 144.45 31.60 144.79 30.23 C 145.40 30.25 146.60 30.29 147.20 30.32 C 147.80 33.80 148.58 37.27 148.68 40.81 C 149.35 40.03 150.12 39.36 151.09 38.97 C 151.85 44.31 152.72 49.66 152.73 55.07 C 152.96 62.11 151.53 69.05 151.25 76.06 C 150.07 82.59 150.37 89.24 149.87 95.82 C 142.04 94.89 134.22 93.91 126.35 93.27 C 125.17 97.08 125.81 101.09 125.74 105.01 C 125.69 111.92 125.53 118.82 125.68 125.72 C 130.83 125.75 135.82 124.31 140.94 124.07 C 146.54 123.69 152.13 123.10 157.65 122.06 C 164.35 129.55 171.51 136.74 177.00 145.22 C 174.34 145.22 171.70 145.40 169.07 145.77 C 170.51 147.32 171.86 148.94 173.20 150.57 C 162.66 150.19 152.40 153.04 142.05 154.59 C 129.04 156.66 116.36 160.36 103.94 164.72 C 102.38 165.37 100.69 165.51 99.01 165.55 C 104.73 162.14 110.97 156.39 109.37 149.01 C 109.24 148.87 108.97 148.58 108.84 148.43 C 106.89 145.96 104.13 144.15 100.93 143.96 C 92.91 143.17 84.94 140.67 78.47 135.73 C 77.60 134.59 76.63 133.54 75.51 132.65 C 73.98 131.05 72.72 129.21 71.26 127.55 C 71.65 127.31 72.43 126.83 72.83 126.58 C 77.50 129.15 82.96 127.94 88.00 128.88 C 94.76 129.37 101.76 130.18 108.39 128.34 C 113.59 128.48 119.64 126.14 120.68 120.43 C 123.62 112.28 121.53 103.43 123.30 95.09 C 123.63 92.38 123.73 89.64 124.34 86.98 C 126.29 83.60 126.84 79.68 128.01 76.00 C 122.93 77.21 117.86 78.48 112.84 79.93 C 111.56 80.21 110.44 80.90 109.45 81.72 L 109.41 81.73 C 105.50 81.99 102.11 84.04 98.63 85.62 C 92.75 88.68 86.56 91.96 82.52 97.39 C 80.05 100.03 77.85 102.92 75.94 105.99 C 72.01 110.62 71.18 116.84 69.34 122.44 L 68.47 122.08 C 67.08 119.33 66.28 116.09 63.86 114.02 C 62.31 112.79 60.19 113.73 58.46 113.97 C 58.18 112.71 57.90 111.46 57.63 110.22 C 55.30 108.46 52.92 106.77 50.46 105.22 C 50.08 96.89 50.69 87.78 55.83 80.84 C 60.36 75.46 66.63 72.00 72.61 68.50 C 82.63 63.02 92.98 58.18 103.28 53.25 C 110.68 49.69 117.36 44.84 123.99 40.02 C 129.53 35.67 135.49 31.48 139.37 25.47 Z" />
</g>
<g id="#7b2e77ff">
<path fill="#7b2e77" opacity="1.00" d=" M 112.84 79.93 C 117.86 78.48 122.93 77.21 128.01 76.00 C 126.84 79.68 126.29 83.60 124.34 86.98 C 124.38 83.89 125.28 80.93 125.99 77.95 C 120.30 78.43 115.13 81.23 109.45 81.72 C 110.44 80.90 111.56 80.21 112.84 79.93 Z" />
</g>
<g id="#c60026ff">
<path fill="#c60026" opacity="1.00" d=" M 109.45 81.72 C 115.13 81.23 120.30 78.43 125.99 77.95 C 125.28 80.93 124.38 83.89 124.34 86.98 C 123.73 89.64 123.63 92.38 123.30 95.09 C 121.53 103.43 123.62 112.28 120.68 120.43 C 118.29 123.20 115.71 126.25 111.84 126.77 C 101.14 128.47 90.26 126.83 79.49 127.39 C 76.63 126.44 72.21 126.61 71.31 123.05 C 71.07 116.96 74.46 111.70 75.94 105.99 C 77.85 102.92 80.05 100.03 82.52 97.39 C 86.87 94.78 90.52 91.15 95.06 88.81 C 99.59 85.94 104.86 84.56 109.41 81.73 L 109.45 81.72 M 102.76 97.75 C 97.05 98.41 90.54 98.83 86.34 103.29 C 81.71 107.55 80.37 114.33 81.81 120.30 C 92.55 111.94 103.46 103.78 114.71 96.11 C 110.70 96.51 106.77 97.42 102.76 97.75 Z" />
</g>
<g id="#7d2b73ff">
<path fill="#7d2b73" opacity="1.00" d=" M 98.63 85.62 C 102.11 84.04 105.50 81.99 109.41 81.73 C 104.86 84.56 99.59 85.94 95.06 88.81 C 90.52 91.15 86.87 94.78 82.52 97.39 C 86.56 91.96 92.75 88.68 98.63 85.62 Z" />
</g>
<g id="#5a5858ff">
<path fill="#5a5858" opacity="1.00" d=" M 125.74 105.01 C 125.81 101.09 125.17 97.08 126.35 93.27 C 134.22 93.91 142.04 94.89 149.87 95.82 C 152.41 95.93 154.93 96.27 157.44 96.69 C 157.40 105.14 156.90 113.63 157.65 122.06 C 152.13 123.10 146.54 123.69 140.94 124.07 C 135.82 124.31 130.83 125.75 125.68 125.72 C 125.53 118.82 125.69 111.92 125.74 105.01 Z" />
</g>
<g id="#ff7600ff">
<path fill="#ff7600" opacity="1.00" d=" M 102.76 97.75 C 106.77 97.42 110.70 96.51 114.71 96.11 C 103.46 103.78 92.55 111.94 81.81 120.30 C 80.37 114.33 81.71 107.55 86.34 103.29 C 90.54 98.83 97.05 98.41 102.76 97.75 Z" />
</g>
<g id="#00bb40ff">
<path fill="#00bb40" opacity="1.00" d=" M 44.61 101.28 C 46.55 102.60 48.48 103.94 50.46 105.22 C 52.92 106.77 55.30 108.46 57.63 110.22 C 57.90 111.46 58.18 112.71 58.46 113.97 C 54.73 116.76 51.82 120.53 47.90 123.11 C 47.07 123.25 45.43 123.55 44.61 123.70 C 44.63 116.22 44.66 108.75 44.61 101.28 Z" />
</g>
<g id="#6e2d71ff">
<path fill="#6e2d71" opacity="1.00" d=" M 69.34 122.44 C 71.18 116.84 72.01 110.62 75.94 105.99 C 74.46 111.70 71.07 116.96 71.31 123.05 C 72.21 126.61 76.63 126.44 79.49 127.39 C 89.03 128.92 98.79 127.26 108.39 128.34 C 101.76 130.18 94.76 129.37 88.00 128.88 C 82.96 127.94 77.50 129.15 72.83 126.58 C 72.43 126.83 71.65 127.31 71.26 127.55 L 71.02 127.49 C 70.78 127.00 70.30 126.01 70.06 125.52 C 69.84 125.15 69.39 124.42 69.16 124.05 C 69.20 123.65 69.30 122.84 69.34 122.44 Z" />
</g>
<g id="#ffcc00ff">
<path fill="#ffcc00" opacity="1.00" d=" M 58.46 113.97 C 60.19 113.73 62.31 112.79 63.86 114.02 C 66.28 116.09 67.08 119.33 68.47 122.08 L 68.00 122.81 C 68.29 123.12 68.87 123.74 69.16 124.05 C 69.39 124.42 69.84 125.15 70.06 125.52 C 70.11 125.96 70.20 126.85 70.25 127.30 L 71.02 127.49 L 71.26 127.55 C 72.72 129.21 73.98 131.05 75.51 132.65 C 73.98 134.70 76.65 136.08 78.47 135.73 C 84.94 140.67 92.91 143.17 100.93 143.96 C 104.13 144.15 106.89 145.96 108.84 148.43 C 105.03 152.17 100.02 154.46 94.83 155.50 C 79.51 156.56 63.73 156.19 49.04 161.36 C 49.54 161.54 50.53 161.91 51.03 162.09 C 41.00 164.23 30.38 168.64 25.14 178.04 C 24.64 169.04 24.15 160.00 24.83 151.00 C 25.40 144.94 26.73 138.50 31.04 133.92 C 35.68 128.93 42.50 127.06 47.90 123.11 C 51.82 120.53 54.73 116.76 58.46 113.97 Z" />
</g>
<g id="#aa2255ff">
<path fill="#aa2255" opacity="1.00" d=" M 111.84 126.77 C 115.71 126.25 118.29 123.20 120.68 120.43 C 119.64 126.14 113.59 128.48 108.39 128.34 C 98.79 127.26 89.03 128.92 79.49 127.39 C 90.26 126.83 101.14 128.47 111.84 126.77 Z" />
</g>
<g id="#c9bf77ff">
<path fill="#c9bf77" opacity="1.00" d=" M 68.47 122.08 L 69.34 122.44 C 69.30 122.84 69.20 123.65 69.16 124.05 C 68.87 123.74 68.29 123.12 68.00 122.81 L 68.47 122.08 Z" />
</g>
<g id="#e3c55eff">
<path fill="#e3c55e" opacity="1.00" d=" M 70.06 125.52 C 70.30 126.01 70.78 127.00 71.02 127.49 L 70.25 127.30 C 70.20 126.85 70.11 125.96 70.06 125.52 Z" />
</g>
<g id="#edcd39ff">
<path fill="#edcd39" opacity="1.00" d=" M 78.47 135.73 C 76.65 136.08 73.98 134.70 75.51 132.65 C 76.63 133.54 77.60 134.59 78.47 135.73 Z" />
</g>
<g id="#ffb300ff">
<path fill="#ffb300" opacity="1.00" d=" M 108.84 148.43 C 108.97 148.58 109.24 148.87 109.37 149.01 C 110.97 156.39 104.73 162.14 99.01 165.55 C 92.56 169.03 84.86 168.29 78.12 166.08 C 69.37 163.35 60.23 161.46 51.03 162.09 C 50.53 161.91 49.54 161.54 49.04 161.36 C 63.73 156.19 79.51 156.56 94.83 155.50 C 100.02 154.46 105.03 152.17 108.84 148.43 Z" />
</g>
</svg>
