<?xml version="1.0" encoding="UTF-8" ?>
<!DOCTYPE svg PUBLIC "-//W3C//DTD SVG 1.1//EN" "http://www.w3.org/Graphics/SVG/1.1/DTD/svg11.dtd">
<svg width="200pt" height="200pt" viewBox="0 0 200 200" version="1.1" xmlns="http://www.w3.org/2000/svg">
<g id="#020101ff">
<path fill="#020101" opacity="1.00" d=" M 91.18 25.25 C 94.06 23.46 96.49 20.48 100.00 20.01 C 103.54 20.38 106.00 23.38 108.86 25.21 C 110.75 24.50 112.75 22.87 114.85 23.87 C 117.07 24.94 118.83 26.70 120.63 28.35 C 125.33 32.87 129.96 37.50 134.20 42.47 C 136.35 40.96 139.81 39.73 141.58 42.46 C 149.00 53.20 156.07 64.22 162.32 75.68 C 164.41 79.96 167.36 84.73 165.49 89.63 C 163.75 92.82 167.58 94.81 168.42 97.60 C 170.63 104.47 170.25 111.91 169.29 118.97 C 168.31 125.39 162.26 128.94 157.63 132.68 C 155.16 134.42 154.84 137.72 153.05 139.99 C 144.77 150.70 135.52 160.64 127.72 171.71 C 125.24 175.23 122.10 178.57 117.88 179.90 C 111.12 182.16 103.98 180.16 97.06 180.69 C 91.37 181.02 85.26 181.67 79.99 179.01 C 75.40 176.75 72.72 172.20 69.74 168.27 C 63.43 159.67 56.13 151.88 49.22 143.77 C 46.87 141.12 45.73 137.74 44.41 134.52 C 39.36 129.55 31.25 126.07 30.56 118.07 C 29.86 109.82 28.65 100.14 34.31 93.27 C 35.84 91.74 34.21 89.69 34.10 87.92 C 33.24 84.30 35.24 80.86 36.68 77.68 C 42.69 66.03 49.93 55.08 57.17 44.16 C 58.19 42.81 59.12 40.99 61.03 40.86 C 62.79 40.48 64.29 41.82 65.82 42.48 C 71.40 36.21 77.11 29.93 83.69 24.71 C 85.96 22.58 88.88 24.05 91.18 25.25 M 99.39 24.46 C 93.92 28.07 89.13 32.71 85.02 37.81 C 85.59 34.53 86.22 31.27 86.79 27.99 C 82.24 30.53 79.01 34.74 75.27 38.27 C 70.60 42.82 66.72 48.07 62.54 53.05 C 62.32 50.55 62.16 48.05 61.88 45.55 C 60.93 46.39 60.02 47.28 59.35 48.36 C 52.73 58.52 46.02 68.66 40.45 79.45 C 39.15 82.26 37.30 85.43 38.51 88.60 C 39.48 91.41 40.74 94.13 42.26 96.69 C 40.35 96.32 37.61 95.20 36.39 97.43 C 34.01 101.50 34.35 106.47 34.25 111.02 C 34.42 114.82 34.03 119.16 36.75 122.22 C 40.12 126.15 44.62 128.88 48.63 132.10 C 49.27 140.28 56.89 145.10 61.23 151.37 C 65.65 156.10 69.27 161.50 73.78 166.14 C 76.17 170.52 79.58 175.00 84.67 176.28 C 89.39 177.33 94.24 176.50 99.00 176.33 C 104.70 176.20 110.51 177.60 116.12 176.08 C 120.77 174.54 123.96 170.31 126.15 166.14 C 130.64 161.58 134.36 156.31 138.49 151.44 C 142.08 147.04 145.59 142.57 149.19 138.19 C 150.87 136.22 151.78 133.70 151.84 131.13 C 155.95 129.05 159.58 126.05 162.80 122.77 C 166.12 119.40 165.61 114.34 165.76 110.01 C 165.62 105.59 166.00 100.58 163.15 96.87 C 161.76 95.26 159.45 96.48 157.73 96.71 C 159.27 94.16 160.49 91.41 161.48 88.60 C 162.72 85.42 160.82 82.26 159.53 79.44 C 154.22 69.07 147.77 59.34 141.46 49.57 C 140.55 48.10 139.48 46.74 138.14 45.64 C 137.84 48.11 137.67 50.58 137.45 53.05 C 130.93 44.79 123.97 36.85 116.07 29.86 C 115.18 29.14 114.19 28.56 113.21 27.97 C 113.77 31.25 114.41 34.52 114.97 37.81 C 110.90 32.69 106.11 28.02 100.65 24.43 C 100.33 24.43 99.70 24.45 99.39 24.46 Z" />
</g>
<g id="#e74801ff">
<path fill="#e74801" opacity="1.00" d=" M 99.39 24.46 C 99.70 24.45 100.33 24.43 100.65 24.43 C 106.11 28.02 110.90 32.69 114.97 37.81 C 114.41 34.52 113.77 31.25 113.21 27.97 C 114.19 28.56 115.18 29.14 116.07 29.86 C 123.97 36.85 130.93 44.79 137.45 53.05 C 137.67 50.58 137.84 48.11 138.14 45.64 C 139.48 46.74 140.55 48.10 141.46 49.57 C 147.77 59.34 154.22 69.07 159.53 79.44 C 160.82 82.26 162.72 85.42 161.48 88.60 C 160.49 91.41 159.27 94.16 157.73 96.71 C 155.45 101.10 149.72 104.39 150.85 109.95 C 151.92 116.96 151.70 124.06 151.84 131.13 C 151.78 133.70 150.87 136.22 149.19 138.19 C 145.59 142.57 142.08 147.04 138.49 151.44 C 136.26 147.94 135.28 143.88 133.90 140.02 C 132.99 137.46 132.06 134.89 131.17 132.32 C 133.57 132.83 136.05 134.05 138.54 133.50 C 142.36 131.02 145.66 126.83 145.50 122.05 C 145.60 116.05 144.66 110.06 143.16 104.26 C 141.18 108.12 139.63 112.36 136.38 115.38 C 131.89 119.66 126.62 122.99 121.54 126.51 C 118.44 128.50 115.46 130.82 111.95 132.07 C 108.42 131.52 105.64 128.80 103.70 125.95 C 106.78 125.52 110.25 126.33 113.09 124.96 C 121.78 117.04 127.46 106.08 129.94 94.65 C 130.26 93.50 130.53 92.35 130.77 91.19 C 132.03 82.46 133.10 72.89 128.81 64.79 C 122.69 66.31 117.93 70.68 113.35 74.77 C 113.30 72.76 113.23 70.76 113.10 68.76 C 107.25 71.19 104.28 77.12 99.52 80.94 C 95.81 76.43 92.37 71.26 86.89 68.73 C 86.77 70.74 86.70 72.74 86.66 74.75 C 82.06 70.69 77.32 66.26 71.16 64.80 C 66.96 72.10 68.23 80.88 68.48 88.91 C 70.89 101.42 76.04 113.76 84.74 123.22 C 87.85 126.78 93.01 125.04 97.12 125.46 C 94.90 128.22 92.22 130.77 88.86 132.04 C 86.56 132.12 84.66 130.36 82.72 129.32 C 76.19 124.91 69.40 120.77 63.64 115.36 C 60.36 112.38 58.79 108.15 56.83 104.29 C 55.26 110.07 54.46 116.06 54.51 122.05 C 54.37 126.66 57.35 130.88 61.19 133.18 C 63.73 133.80 66.31 132.70 68.82 132.31 C 67.77 134.71 66.71 137.11 65.69 139.53 C 64.04 143.42 62.73 147.43 61.23 151.37 C 56.89 145.10 49.27 140.28 48.63 132.10 C 48.79 123.53 50.34 114.96 49.38 106.39 C 47.54 102.83 44.18 100.25 42.26 96.69 C 40.74 94.13 39.48 91.41 38.51 88.60 C 37.30 85.43 39.15 82.26 40.45 79.45 C 46.02 68.66 52.73 58.52 59.35 48.36 C 60.02 47.28 60.93 46.39 61.88 45.55 C 62.16 48.05 62.32 50.55 62.54 53.05 C 66.72 48.07 70.60 42.82 75.27 38.27 C 79.01 34.74 82.24 30.53 86.79 27.99 C 86.22 31.27 85.59 34.53 85.02 37.81 C 89.13 32.71 93.92 28.07 99.39 24.46 Z" />
</g>
<g id="#abaa78ff">
<path fill="#abaa78" opacity="1.00" d=" M 71.16 64.80 C 77.32 66.26 82.06 70.69 86.66 74.75 C 86.70 72.74 86.77 70.74 86.89 68.73 C 92.37 71.26 95.81 76.43 99.52 80.94 C 104.28 77.12 107.25 71.19 113.10 68.76 C 113.23 70.76 113.30 72.76 113.35 74.77 C 117.93 70.68 122.69 66.31 128.81 64.79 C 133.10 72.89 132.03 82.46 130.77 91.19 C 130.00 86.17 125.00 83.98 121.07 81.77 C 117.89 85.25 115.30 89.20 112.60 93.05 C 107.79 90.36 105.19 84.80 100.27 82.45 C 96.15 85.72 92.91 89.96 88.86 93.33 C 85.40 90.23 83.50 85.90 80.44 82.49 C 78.56 81.60 76.91 83.54 75.34 84.31 C 72.97 86.18 68.69 88.07 70.06 91.79 C 71.94 97.12 76.34 101.03 79.26 105.78 C 81.50 104.29 83.84 102.94 86.40 102.07 C 90.88 110.14 95.45 118.18 100.32 126.03 C 106.00 118.56 109.61 109.74 114.85 101.96 C 117.14 103.23 119.44 104.48 121.76 105.71 C 124.42 101.97 126.94 98.12 129.94 94.65 C 127.46 106.08 121.78 117.04 113.09 124.96 C 110.25 126.33 106.78 125.52 103.70 125.95 C 105.64 128.80 108.42 131.52 111.95 132.07 C 115.46 130.82 118.44 128.50 121.54 126.51 C 126.62 122.99 131.89 119.66 136.38 115.38 C 139.63 112.36 141.18 108.12 143.16 104.26 C 144.66 110.06 145.60 116.05 145.50 122.05 C 145.66 126.83 142.36 131.02 138.54 133.50 C 136.05 134.05 133.57 132.83 131.17 132.32 C 132.06 134.89 132.99 137.46 133.90 140.02 C 131.29 143.06 127.86 145.53 126.06 149.17 C 125.35 154.80 126.09 160.49 126.15 166.14 C 123.96 170.31 120.77 174.54 116.12 176.08 C 110.51 177.60 104.70 176.20 99.00 176.33 C 94.24 176.50 89.39 177.33 84.67 176.28 C 79.58 175.00 76.17 170.52 73.78 166.14 C 73.81 160.49 74.69 154.80 73.97 149.17 C 71.88 145.45 68.41 142.77 65.69 139.53 C 66.71 137.11 67.77 134.71 68.82 132.31 C 66.31 132.70 63.73 133.80 61.19 133.18 C 57.35 130.88 54.37 126.66 54.51 122.05 C 54.46 116.06 55.26 110.07 56.83 104.29 C 58.79 108.15 60.36 112.38 63.64 115.36 C 69.40 120.77 76.19 124.91 82.72 129.32 C 84.66 130.36 86.56 132.12 88.86 132.04 C 92.22 130.77 94.90 128.22 97.12 125.46 C 93.01 125.04 87.85 126.78 84.74 123.22 C 76.04 113.76 70.89 101.42 68.48 88.91 C 68.23 80.88 66.96 72.10 71.16 64.80 Z" />
<path fill="#abaa78" opacity="1.00" d=" M 36.39 97.43 C 37.61 95.20 40.35 96.32 42.26 96.69 C 44.18 100.25 47.54 102.83 49.38 106.39 C 50.34 114.96 48.79 123.53 48.63 132.10 C 44.62 128.88 40.12 126.15 36.75 122.22 C 34.03 119.16 34.42 114.82 34.25 111.02 C 34.35 106.47 34.01 101.50 36.39 97.43 Z" />
</g>
<g id="#648987ff">
<path fill="#648987" opacity="1.00" d=" M 75.34 84.31 C 76.91 83.54 78.56 81.60 80.44 82.49 C 83.50 85.90 85.40 90.23 88.86 93.33 C 92.91 89.96 96.15 85.72 100.27 82.45 C 105.19 84.80 107.79 90.36 112.60 93.05 C 115.30 89.20 117.89 85.25 121.07 81.77 C 125.00 83.98 130.00 86.17 130.77 91.19 C 130.53 92.35 130.26 93.50 129.94 94.65 C 126.94 98.12 124.42 101.97 121.76 105.71 C 119.44 104.48 117.14 103.23 114.85 101.96 C 109.61 109.74 106.00 118.56 100.32 126.03 C 95.45 118.18 90.88 110.14 86.40 102.07 C 83.84 102.94 81.50 104.29 79.26 105.78 C 76.34 101.03 71.94 97.12 70.06 91.79 C 68.69 88.07 72.97 86.18 75.34 84.31 M 77.33 88.32 C 72.91 90.01 73.02 97.46 78.02 98.16 C 82.38 99.53 86.09 94.04 83.67 90.37 C 82.47 88.02 79.62 87.86 77.33 88.32 M 116.40 90.43 C 116.56 92.47 115.62 95.07 117.37 96.63 C 119.34 98.83 122.88 98.69 125.25 97.22 C 127.16 94.69 126.86 90.70 124.02 88.98 C 121.56 86.98 118.46 88.75 116.40 90.43 M 94.50 92.50 C 91.12 95.20 89.56 100.31 91.48 104.32 C 93.46 111.11 103.77 112.42 107.77 106.76 C 111.89 102.42 110.33 94.39 104.86 91.93 C 101.51 91.23 97.64 90.89 94.50 92.50 Z" />
</g>
<g id="#ff4f01ff">
<path fill="#ff4f01" opacity="1.00" d=" M 77.33 88.32 C 79.62 87.86 82.47 88.02 83.67 90.37 C 86.09 94.04 82.38 99.53 78.02 98.16 C 73.02 97.46 72.91 90.01 77.33 88.32 Z" />
<path fill="#ff4f01" opacity="1.00" d=" M 116.40 90.43 C 118.46 88.75 121.56 86.98 124.02 88.98 C 126.86 90.70 127.16 94.69 125.25 97.22 C 122.88 98.69 119.34 98.83 117.37 96.63 C 115.62 95.07 116.56 92.47 116.40 90.43 Z" />
</g>
<g id="#ff5000ff">
<path fill="#ff5000" opacity="1.00" d=" M 94.50 92.50 C 97.64 90.89 101.51 91.23 104.86 91.93 C 110.33 94.39 111.89 102.42 107.77 106.76 C 103.77 112.42 93.46 111.11 91.48 104.32 C 89.56 100.31 91.12 95.20 94.50 92.50 Z" />
</g>
<g id="#aaa979ff">
<path fill="#aaa979" opacity="1.00" d=" M 157.73 96.71 C 159.45 96.48 161.76 95.26 163.15 96.87 C 166.00 100.58 165.62 105.59 165.76 110.01 C 165.61 114.34 166.12 119.40 162.80 122.77 C 159.58 126.05 155.95 129.05 151.84 131.13 C 151.70 124.06 151.92 116.96 150.85 109.95 C 149.72 104.39 155.45 101.10 157.73 96.71 Z" />
</g>
<g id="#888a45ff">
<path fill="#888a45" opacity="1.00" d=" M 61.23 151.37 C 62.73 147.43 64.04 143.42 65.69 139.53 C 68.41 142.77 71.88 145.45 73.97 149.17 C 74.69 154.80 73.81 160.49 73.78 166.14 C 69.27 161.50 65.65 156.10 61.23 151.37 Z" />
<path fill="#888a45" opacity="1.00" d=" M 126.06 149.17 C 127.86 145.53 131.29 143.06 133.90 140.02 C 135.28 143.88 136.26 147.94 138.49 151.44 C 134.36 156.31 130.64 161.58 126.15 166.14 C 126.09 160.49 125.35 154.80 126.06 149.17 Z" />
</g>
</svg>
