<?xml version="1.0" encoding="UTF-8" ?>
<!DOCTYPE svg PUBLIC "-//W3C//DTD SVG 1.1//EN" "http://www.w3.org/Graphics/SVG/1.1/DTD/svg11.dtd">
<svg width="200pt" height="200pt" viewBox="0 0 200 200" version="1.1" xmlns="http://www.w3.org/2000/svg">
<g id="#000100ff">
<path fill="#000100" opacity="1.00" d=" M 27.16 28.99 C 25.87 25.25 30.85 21.15 34.13 23.76 C 52.79 40.29 71.29 57.02 89.92 73.59 C 93.06 61.13 96.06 48.64 99.25 36.19 C 100.37 32.73 105.84 32.61 107.11 36.03 C 110.27 48.51 113.12 61.07 116.16 73.59 C 134.82 57.14 153.38 40.58 172.05 24.15 C 173.93 22.36 177.36 23.02 178.51 25.33 C 179.86 27.42 178.32 29.65 177.55 31.62 C 169.07 54.08 160.59 76.55 152.11 99.01 C 151.86 102.70 152.05 106.41 152.01 110.10 C 157.65 118.53 160.20 129.13 158.23 139.15 C 156.16 150.42 148.89 160.23 139.61 166.72 C 125.15 176.90 106.38 180.10 89.15 176.73 C 76.28 174.20 63.85 167.82 55.45 157.58 C 48.96 149.76 45.31 139.47 46.16 129.28 C 42.88 131.15 38.91 131.62 35.30 130.48 C 26.71 127.86 20.54 118.97 21.01 110.01 C 21.23 104.57 23.93 99.53 27.46 95.51 C 32.85 89.50 40.61 86.12 48.45 84.77 C 41.37 66.17 34.19 47.60 27.16 28.99 M 31.24 28.03 C 38.51 48.20 46.50 68.14 54.08 88.22 C 41.85 88.32 27.99 95.18 25.07 108.00 C 23.39 116.46 30.11 126.19 39.02 126.77 C 44.57 126.75 47.55 121.14 52.44 119.29 C 48.10 129.36 49.50 141.46 55.42 150.62 C 62.17 161.42 73.77 168.47 85.91 171.63 C 104.20 176.37 125.07 173.03 139.88 160.87 C 148.16 154.02 154.27 143.91 154.34 132.96 C 154.73 125.10 151.91 117.42 147.51 111.02 C 147.48 106.80 147.48 102.58 147.51 98.36 C 155.79 76.40 164.02 54.43 172.39 32.51 C 173.09 31.14 173.39 29.62 173.67 28.12 C 173.42 28.39 172.92 28.91 172.66 29.17 L 172.76 30.30 L 171.24 30.05 C 151.96 46.90 132.87 64.02 113.62 80.92 C 110.95 72.05 109.18 62.94 106.97 53.96 C 105.30 48.79 104.91 43.00 102.76 38.12 C 98.90 52.27 95.88 66.68 91.92 80.80 C 88.28 78.28 85.23 74.99 81.91 72.07 C 66.13 58.12 50.55 43.87 34.74 30.01 L 33.23 30.64 L 33.55 29.36 L 32.33 29.67 C 32.31 29.28 32.26 28.50 32.23 28.11 L 31.24 28.03 Z" />
</g>
<g id="#fffa8fff">
<path fill="#fffa8f" opacity="1.00" d=" M 31.24 28.03 L 32.23 28.11 C 32.26 28.50 32.31 29.28 32.33 29.67 L 33.55 29.36 L 33.23 30.64 C 56.55 74.90 79.77 119.21 103.03 163.50 C 126.25 119.09 149.72 74.76 172.76 30.30 L 172.66 29.17 C 172.92 28.91 173.42 28.39 173.67 28.12 C 173.39 29.62 173.09 31.14 172.39 32.51 C 164.02 54.43 155.79 76.40 147.51 98.36 C 147.48 102.58 147.48 106.80 147.51 111.02 C 147.42 114.65 147.77 118.33 147.30 121.94 C 132.50 136.51 117.85 151.23 103.01 165.75 C 88.39 151.79 74.03 137.52 59.55 123.40 C 58.63 122.53 57.57 121.43 57.83 120.04 C 57.86 114.04 57.83 108.04 57.85 102.03 C 58.38 97.08 55.50 92.77 54.08 88.22 C 46.50 68.14 38.51 48.20 31.24 28.03 Z" />
</g>
<g id="#0149a3ff">
<path fill="#0149a3" opacity="1.00" d=" M 33.23 30.64 L 34.74 30.01 C 50.55 43.87 66.13 58.12 81.91 72.07 C 85.23 74.99 88.28 78.28 91.92 80.80 C 95.88 66.68 98.90 52.27 102.76 38.12 C 104.91 43.00 105.30 48.79 106.97 53.96 C 109.18 62.94 110.95 72.05 113.62 80.92 C 132.87 64.02 151.96 46.90 171.24 30.05 L 172.76 30.30 C 149.72 74.76 126.25 119.09 103.03 163.50 C 79.77 119.21 56.55 74.90 33.23 30.64 Z" />
</g>
<g id="#f06ca4ff">
<path fill="#f06ca4" opacity="1.00" d=" M 25.07 108.00 C 27.99 95.18 41.85 88.32 54.08 88.22 C 55.50 92.77 58.38 97.08 57.85 102.03 C 57.83 108.04 57.86 114.04 57.83 120.04 C 57.57 121.43 58.63 122.53 59.55 123.40 C 74.03 137.52 88.39 151.79 103.01 165.75 C 117.85 151.23 132.50 136.51 147.30 121.94 C 147.77 118.33 147.42 114.65 147.51 111.02 C 151.91 117.42 154.73 125.10 154.34 132.96 C 154.27 143.91 148.16 154.02 139.88 160.87 C 125.07 173.03 104.20 176.37 85.91 171.63 C 73.77 168.47 62.17 161.42 55.42 150.62 C 49.50 141.46 48.10 129.36 52.44 119.29 C 47.55 121.14 44.57 126.75 39.02 126.77 C 30.11 126.19 23.39 116.46 25.07 108.00 Z" />
</g>
</svg>
