<?xml version="1.0" encoding="UTF-8" ?>
<!DOCTYPE svg PUBLIC "-//W3C//DTD SVG 1.1//EN" "http://www.w3.org/Graphics/SVG/1.1/DTD/svg11.dtd">
<svg width="200pt" height="200pt" viewBox="0 0 200 200" version="1.1" xmlns="http://www.w3.org/2000/svg">
<g id="#000000ff">
<path fill="#000000" opacity="1.00" d=" M 139.82 32.81 C 141.91 30.90 145.84 31.25 147.10 33.96 C 150.07 39.66 152.05 45.85 153.75 52.04 C 156.46 49.63 159.42 47.51 161.92 44.88 C 163.31 43.54 164.79 41.64 166.96 41.92 C 168.91 42.39 170.66 43.96 171.01 45.99 C 173.01 54.08 175.27 62.51 173.68 70.89 C 180.46 70.14 187.06 68.12 193.25 65.27 C 195.54 63.75 198.58 65.06 200.00 67.15 L 200.00 72.35 C 197.05 87.03 188.75 100.36 177.99 110.57 C 181.60 110.29 185.39 109.63 188.90 110.86 C 190.48 112.04 191.15 114.26 190.41 116.09 C 187.43 126.18 182.61 136.63 173.45 142.48 C 171.35 143.85 169.20 145.31 166.64 145.58 C 168.71 145.73 170.74 146.90 171.10 149.10 C 170.58 154.45 165.61 158.09 161.08 160.20 C 152.32 163.73 142.58 164.11 133.29 163.07 C 131.27 165.36 128.58 166.87 125.55 167.29 C 107.17 170.69 88.00 170.74 69.78 166.35 C 68.71 165.72 67.81 164.87 66.76 164.22 C 56.57 165.19 45.54 164.81 36.56 159.35 C 34.03 157.49 31.79 155.04 30.97 151.93 C 30.75 149.78 32.39 148.24 33.99 147.12 C 21.76 142.76 14.62 130.69 10.93 118.89 C 9.94 116.79 10.61 113.45 13.11 112.84 C 16.31 111.93 19.72 112.41 23.00 112.55 C 11.88 102.49 3.22 89.18 0.00 74.40 L 0.00 69.46 C 0.98 66.96 4.19 66.29 6.40 67.52 C 12.73 70.44 19.57 72.14 26.50 72.82 C 24.43 64.43 26.70 55.80 28.47 47.56 C 28.77 45.47 30.79 43.39 33.03 43.83 C 36.25 44.04 37.78 47.25 40.32 48.77 C 42.43 50.05 43.94 52.36 46.43 52.94 C 47.99 46.80 49.68 40.55 52.69 34.95 C 53.79 32.27 57.39 31.80 59.51 33.56 C 67.59 40.38 72.54 50.10 76.50 59.68 C 92.09 56.61 108.11 56.65 123.81 58.94 C 127.42 49.36 132.07 39.75 139.82 32.81 M 126.13 63.36 C 118.63 62.30 111.06 61.18 103.47 61.47 C 101.20 61.32 98.92 61.39 96.65 61.45 C 89.06 61.71 81.51 62.69 74.04 63.99 C 69.80 54.01 65.28 43.53 56.76 36.40 L 55.97 36.92 C 52.49 44.34 50.55 52.35 48.55 60.26 C 43.68 55.82 37.78 52.30 32.99 47.62 C 31.16 48.92 32.28 51.90 30.80 53.59 C 30.17 61.16 28.05 69.57 31.97 76.60 C 22.27 77.12 12.64 74.78 4.03 70.58 C 3.84 73.54 4.10 76.78 5.40 79.46 C 10.47 94.58 21.27 107.30 34.07 116.57 C 27.46 116.18 20.84 116.45 14.22 116.29 C 15.53 121.03 17.60 125.60 20.01 129.92 C 25.57 140.07 36.99 146.36 48.52 145.78 C 48.53 145.90 48.54 146.15 48.55 146.28 C 43.90 147.39 39.54 150.13 34.68 150.87 C 36.43 155.72 41.58 157.87 46.05 159.35 C 53.42 160.70 61.26 161.35 68.56 159.60 L 69.20 160.16 L 69.33 160.82 C 70.72 162.68 72.88 163.03 75.02 163.10 C 77.47 164.73 80.65 163.89 83.17 165.19 C 93.74 165.68 104.44 166.21 114.94 165.06 C 120.09 163.27 128.02 165.43 130.64 159.36 C 141.48 159.44 153.20 161.02 162.72 154.86 C 164.42 153.30 167.72 151.54 166.44 148.80 C 161.76 148.04 157.31 146.12 152.87 144.53 C 159.83 144.29 166.84 142.78 172.40 138.40 C 180.26 132.59 184.36 123.28 186.93 114.13 C 180.20 114.28 173.48 114.48 166.76 114.69 C 180.20 105.49 190.25 91.51 195.28 76.07 C 195.40 73.47 196.98 70.67 195.54 68.21 C 187.22 72.75 177.57 75.13 167.96 74.67 C 168.28 74.29 168.93 73.53 169.25 73.15 C 170.92 66.76 170.11 60.05 169.07 53.67 C 168.10 51.36 167.71 48.79 167.35 46.31 C 167.10 46.24 166.59 46.11 166.34 46.04 C 161.71 50.72 156.45 54.75 151.63 59.17 C 149.39 51.03 147.43 42.62 143.19 35.24 C 134.36 42.27 130.42 53.35 126.13 63.36 Z" />
</g>
<g id="#3f3a39ff">
<path fill="#3f3a39" opacity="1.00" d=" M 126.13 63.36 C 130.42 53.35 134.36 42.27 143.19 35.24 C 147.43 42.62 149.39 51.03 151.63 59.17 C 152.39 63.41 153.66 67.52 154.32 71.78 C 153.75 76.04 156.31 80.09 155.48 84.25 C 139.87 89.08 124.12 93.79 108.33 97.92 C 107.75 94.81 107.54 91.65 107.34 88.50 C 112.57 87.01 117.61 84.99 122.74 83.24 C 122.72 83.06 122.67 82.68 122.64 82.50 C 117.32 79.72 111.26 78.88 105.59 77.23 C 104.96 71.98 103.59 66.82 103.47 61.47 C 111.06 61.18 118.63 62.30 126.13 63.36 Z" />
<path fill="#3f3a39" opacity="1.00" d=" M 55.97 36.92 L 56.76 36.40 C 65.28 43.53 69.80 54.01 74.04 63.99 C 81.51 62.69 89.06 61.71 96.65 61.45 C 96.11 66.63 95.80 71.83 95.25 77.01 C 93.39 78.57 90.63 78.08 88.52 79.19 C 84.97 80.18 81.54 81.52 78.01 82.60 C 78.27 84.27 80.36 84.34 81.56 85.11 C 85.61 86.24 89.49 87.89 93.66 88.53 C 93.87 91.67 93.10 94.72 92.35 97.74 C 90.48 98.08 88.62 97.53 86.92 96.80 C 73.03 93.29 59.21 89.53 45.34 85.97 C 44.99 77.25 47.09 68.78 48.55 60.26 C 50.55 52.35 52.49 44.34 55.97 36.92 Z" />
<path fill="#3f3a39" opacity="1.00" d=" M 92.38 121.32 C 95.18 116.87 97.26 111.89 100.99 108.09 C 104.27 112.39 106.75 117.20 109.57 121.79 L 110.28 122.80 L 110.67 123.32 C 118.76 123.59 126.90 123.28 134.92 124.49 C 136.71 125.13 138.50 125.90 140.12 126.91 C 140.94 130.29 141.34 134.85 138.08 137.07 C 131.23 142.78 122.48 145.42 114.53 149.19 C 104.50 153.17 94.60 157.76 84.12 160.34 C 84.05 160.92 83.91 162.06 83.84 162.64 C 82.85 162.43 80.86 162.02 79.87 161.81 C 81.32 161.63 82.63 160.99 83.71 160.02 C 80.68 152.12 77.85 143.91 72.68 137.11 C 67.72 143.51 68.23 152.53 69.20 160.16 L 68.56 159.60 C 62.19 154.13 57.31 146.48 56.53 138.00 C 56.27 131.95 59.69 125.28 65.96 123.84 C 74.38 122.98 82.87 123.49 91.31 123.31 L 91.55 122.88 C 91.76 122.49 92.18 121.71 92.38 121.32 M 92.57 130.62 C 92.53 131.24 92.45 132.49 92.41 133.12 C 94.77 136.41 97.68 139.27 101.02 141.58 C 103.41 139.83 105.44 137.67 107.47 135.53 C 108.40 134.03 110.01 132.56 109.38 130.62 C 103.82 129.48 98.15 129.73 92.57 130.62 Z" />
</g>
<g id="#e63921ff">
<path fill="#e63921" opacity="1.00" d=" M 166.34 46.04 C 166.59 46.11 167.10 46.24 167.35 46.31 C 167.71 48.79 168.10 51.36 169.07 53.67 C 170.11 60.05 170.92 66.76 169.25 73.15 C 168.93 73.53 168.28 74.29 167.96 74.67 C 177.57 75.13 187.22 72.75 195.54 68.21 C 196.98 70.67 195.40 73.47 195.28 76.07 C 190.25 91.51 180.20 105.49 166.76 114.69 C 173.48 114.48 180.20 114.28 186.93 114.13 C 184.36 123.28 180.26 132.59 172.40 138.40 C 166.84 142.78 159.83 144.29 152.87 144.53 C 157.31 146.12 161.76 148.04 166.44 148.80 C 167.72 151.54 164.42 153.30 162.72 154.86 C 153.20 161.02 141.48 159.44 130.64 159.36 C 128.02 165.43 120.09 163.27 114.94 165.06 C 104.44 166.21 93.74 165.68 83.17 165.19 C 80.65 163.89 77.47 164.73 75.02 163.10 C 76.48 162.20 78.27 162.32 79.87 161.81 C 80.86 162.02 82.85 162.43 83.84 162.64 C 83.91 162.06 84.05 160.92 84.12 160.34 C 94.60 157.76 104.50 153.17 114.53 149.19 C 122.48 145.42 131.23 142.78 138.08 137.07 C 141.34 134.85 140.94 130.29 140.12 126.91 C 138.50 125.90 136.71 125.13 134.92 124.49 C 126.90 123.28 118.76 123.59 110.67 123.32 L 110.28 122.80 C 114.20 122.88 118.14 122.87 122.04 122.39 C 118.70 121.87 115.31 121.70 111.94 121.59 C 116.49 119.08 120.27 115.43 124.62 112.63 C 131.21 108.69 137.10 103.73 143.62 99.71 C 144.27 99.45 144.95 99.36 145.67 99.45 C 147.97 107.55 149.22 115.85 150.77 124.11 C 152.08 121.28 152.19 118.09 152.77 115.07 C 154.66 110.11 153.85 104.59 155.45 99.61 C 155.80 96.84 155.96 94.06 156.16 91.28 C 160.00 87.33 165.34 85.24 169.05 81.10 C 164.59 80.79 160.73 83.52 156.40 84.06 C 155.66 79.97 155.89 75.69 154.32 71.78 C 153.66 67.52 152.39 63.41 151.63 59.17 C 156.45 54.75 161.71 50.72 166.34 46.04 Z" />
<path fill="#e63921" opacity="1.00" d=" M 30.80 53.59 C 32.28 51.90 31.16 48.92 32.99 47.62 C 37.78 52.30 43.68 55.82 48.55 60.26 C 47.09 68.78 44.99 77.25 45.34 85.97 C 40.75 85.30 36.53 83.00 31.83 82.91 C 35.27 86.77 40.64 88.19 43.99 92.10 C 44.64 94.82 43.90 97.92 45.70 100.28 C 47.28 108.67 48.31 117.20 51.07 125.33 C 52.51 120.89 51.85 116.03 53.38 111.62 C 54.20 107.63 54.42 103.54 55.79 99.68 C 61.40 102.72 66.31 106.92 71.83 110.13 C 77.95 113.54 83.12 118.39 89.36 121.59 C 82.58 122.32 75.63 121.06 68.94 122.56 C 76.47 123.01 84.02 122.84 91.55 122.88 L 91.31 123.31 C 82.87 123.49 74.38 122.98 65.96 123.84 C 59.69 125.28 56.27 131.95 56.53 138.00 C 57.31 146.48 62.19 154.13 68.56 159.60 C 61.26 161.35 53.42 160.70 46.05 159.35 C 41.58 157.87 36.43 155.72 34.68 150.87 C 39.54 150.13 43.90 147.39 48.55 146.28 C 48.54 146.15 48.53 145.90 48.52 145.78 C 36.99 146.36 25.57 140.07 20.01 129.92 C 17.60 125.60 15.53 121.03 14.22 116.29 C 20.84 116.45 27.46 116.18 34.07 116.57 C 21.27 107.30 10.47 94.58 5.40 79.46 C 4.10 76.78 3.84 73.54 4.03 70.58 C 12.64 74.78 22.27 77.12 31.97 76.60 C 28.05 69.57 30.17 61.16 30.80 53.59 Z" />
</g>
<g id="#c82e19ff">
<path fill="#c82e19" opacity="1.00" d=" M 96.65 61.45 C 98.92 61.39 101.20 61.32 103.47 61.47 C 103.59 66.82 104.96 71.98 105.59 77.23 C 111.26 78.88 117.32 79.72 122.64 82.50 C 122.67 82.68 122.72 83.06 122.74 83.24 C 117.61 84.99 112.57 87.01 107.34 88.50 C 107.54 91.65 107.75 94.81 108.33 97.92 C 124.12 93.79 139.87 89.08 155.48 84.25 C 156.31 80.09 153.75 76.04 154.32 71.78 C 155.89 75.69 155.66 79.97 156.40 84.06 C 160.73 83.52 164.59 80.79 169.05 81.10 C 165.34 85.24 160.00 87.33 156.16 91.28 C 152.95 92.41 150.51 94.93 147.64 96.70 C 146.55 97.26 146.13 98.39 145.67 99.45 C 144.95 99.36 144.27 99.45 143.62 99.71 C 137.10 103.73 131.21 108.69 124.62 112.63 C 120.27 115.43 116.49 119.08 111.94 121.59 C 111.15 121.65 110.36 121.71 109.57 121.79 C 106.75 117.20 104.27 112.39 100.99 108.09 C 97.26 111.89 95.18 116.87 92.38 121.32 C 91.38 121.44 90.37 121.53 89.36 121.59 C 83.12 118.39 77.95 113.54 71.83 110.13 C 66.31 106.92 61.40 102.72 55.79 99.68 C 52.30 97.61 49.33 94.37 45.39 93.30 C 45.47 95.62 45.66 97.95 45.70 100.28 C 43.90 97.92 44.64 94.82 43.99 92.10 C 40.64 88.19 35.27 86.77 31.83 82.91 C 36.53 83.00 40.75 85.30 45.34 85.97 C 59.21 89.53 73.03 93.29 86.92 96.80 C 88.62 97.53 90.48 98.08 92.35 97.74 C 93.10 94.72 93.87 91.67 93.66 88.53 C 89.49 87.89 85.61 86.24 81.56 85.11 C 80.36 84.34 78.27 84.27 78.01 82.60 C 81.54 81.52 84.97 80.18 88.52 79.19 C 90.63 78.08 93.39 78.57 95.25 77.01 C 95.80 71.83 96.11 66.63 96.65 61.45 Z" />
</g>
<g id="#3c3b38ff">
<path fill="#3c3b38" opacity="1.00" d=" M 147.64 96.70 C 150.51 94.93 152.95 92.41 156.16 91.28 C 155.96 94.06 155.80 96.84 155.45 99.61 C 153.85 104.59 154.66 110.11 152.77 115.07 C 152.19 118.09 152.08 121.28 150.77 124.11 C 149.22 115.85 147.97 107.55 145.67 99.45 C 146.13 98.39 146.55 97.26 147.64 96.70 Z" />
</g>
<g id="#3d3b3bff">
<path fill="#3d3b3b" opacity="1.00" d=" M 45.39 93.30 C 49.33 94.37 52.30 97.61 55.79 99.68 C 54.42 103.54 54.20 107.63 53.38 111.62 C 51.85 116.03 52.51 120.89 51.07 125.33 C 48.31 117.20 47.28 108.67 45.70 100.28 C 45.66 97.95 45.47 95.62 45.39 93.30 Z" />
</g>
<g id="#c7473aff">
<path fill="#c7473a" opacity="1.00" d=" M 89.36 121.59 C 90.37 121.53 91.38 121.44 92.38 121.32 C 92.18 121.71 91.76 122.49 91.55 122.88 C 84.02 122.84 76.47 123.01 68.94 122.56 C 75.63 121.06 82.58 122.32 89.36 121.59 Z" />
</g>
<g id="#d14838ff">
<path fill="#d14838" opacity="1.00" d=" M 109.57 121.79 C 110.36 121.71 111.15 121.65 111.94 121.59 C 115.31 121.70 118.70 121.87 122.04 122.39 C 118.14 122.87 114.20 122.88 110.28 122.80 L 109.57 121.79 Z" />
</g>
<g id="#c82d18ff">
<path fill="#c82d18" opacity="1.00" d=" M 92.57 130.62 C 98.15 129.73 103.82 129.48 109.38 130.62 C 110.01 132.56 108.40 134.03 107.47 135.53 C 105.44 137.67 103.41 139.83 101.02 141.58 C 97.68 139.27 94.77 136.41 92.41 133.12 C 92.45 132.49 92.53 131.24 92.57 130.62 Z" />
</g>
<g id="#fffffeff">
<path fill="#fffffe" opacity="1.00" d=" M 69.20 160.16 C 68.23 152.53 67.72 143.51 72.68 137.11 C 77.85 143.91 80.68 152.12 83.71 160.02 C 82.63 160.99 81.32 161.63 79.87 161.81 C 78.27 162.32 76.48 162.20 75.02 163.10 C 72.88 163.03 70.72 162.68 69.33 160.82 L 69.20 160.16 Z" />
</g>
</svg>
