<?xml version="1.0" encoding="UTF-8" ?>
<!DOCTYPE svg PUBLIC "-//W3C//DTD SVG 1.1//EN" "http://www.w3.org/Graphics/SVG/1.1/DTD/svg11.dtd">
<svg width="200pt" height="200pt" viewBox="0 0 200 200" version="1.1" xmlns="http://www.w3.org/2000/svg">
<g id="#000100ff">
<path fill="#000100" opacity="1.00" d=" M 60.12 32.12 C 71.40 21.96 87.39 19.79 102.01 19.99 C 116.39 20.13 132.06 22.84 142.76 33.24 C 151.51 41.67 154.41 54.13 155.01 65.85 C 161.44 68.93 168.03 71.89 173.74 76.24 C 175.92 77.83 178.11 80.67 176.47 83.43 C 172.99 89.94 166.35 93.85 160.40 97.82 C 164.82 108.13 171.52 117.47 174.40 128.41 C 176.86 139.37 174.94 151.86 167.31 160.44 C 161.89 167.04 154.25 171.15 146.61 174.60 C 142.87 176.29 139.85 181.44 135.24 179.59 C 123.43 172.43 118.50 157.00 121.25 143.86 C 122.85 133.69 130.40 125.95 133.14 116.18 C 123.79 122.37 112.90 125.70 101.98 127.83 C 98.94 128.32 95.98 127.17 93.05 126.57 C 84.73 124.65 76.62 121.68 69.28 117.29 C 72.21 125.81 78.47 132.92 79.97 141.96 C 82.59 153.90 78.11 166.34 70.65 175.66 C 68.74 177.94 66.16 180.19 62.98 179.98 C 61.17 179.88 59.87 178.49 58.48 177.52 C 53.92 173.71 48.05 172.09 43.17 168.79 C 35.35 163.98 28.76 156.36 27.20 147.08 C 25.68 137.76 27.93 128.16 31.66 119.61 C 34.74 112.76 39.70 106.90 42.36 99.85 C 35.81 94.70 27.02 90.90 23.29 82.84 C 22.00 79.86 24.72 77.40 26.84 75.78 C 33.02 71.32 40.03 68.20 46.90 64.98 C 47.54 53.03 50.88 40.36 60.12 32.12 M 63.10 35.14 C 54.02 43.28 51.25 56.03 51.15 67.75 C 42.85 71.66 34.03 75.06 27.08 81.22 C 31.83 88.85 40.14 93.19 47.73 97.50 C 45.74 104.29 41.89 110.26 38.25 116.25 C 34.61 122.27 32.30 129.03 31.31 135.99 C 29.76 142.07 30.82 148.64 33.96 154.05 C 38.14 161.62 45.86 166.40 53.63 169.66 C 57.21 171.15 60.45 173.34 63.27 175.99 C 64.54 175.39 65.91 174.86 66.84 173.75 C 73.76 165.61 77.97 154.69 76.22 143.94 C 75.47 135.14 69.28 128.27 66.17 120.28 C 63.83 114.76 62.24 108.95 61.02 103.09 C 66.49 112.51 77.16 117.23 87.07 120.54 C 92.92 121.98 99.02 124.79 105.08 122.87 C 118.58 119.84 132.95 114.51 140.85 102.41 C 139.34 112.41 136.31 122.30 131.06 131.00 C 129.25 134.00 127.64 137.11 126.40 140.39 C 122.51 150.40 124.63 162.14 130.95 170.70 L 131.20 170.61 C 133.02 172.48 134.75 174.55 137.09 175.79 C 138.74 175.50 139.85 174.08 141.20 173.19 C 144.07 170.76 147.70 169.58 150.99 167.86 C 156.74 164.99 161.88 160.90 165.80 155.80 L 166.10 155.94 C 169.41 150.57 171.78 144.42 171.54 138.02 C 172.12 130.24 168.70 123.03 165.44 116.20 L 165.07 116.35 C 161.77 109.76 158.17 103.31 155.35 96.49 C 155.65 96.14 156.25 95.44 156.55 95.09 C 162.85 91.58 169.22 87.43 173.14 81.21 C 166.68 75.55 158.63 72.21 150.91 68.65 C 150.80 56.67 148.23 43.50 138.83 35.21 C 128.26 26.01 113.55 24.09 100.02 24.20 C 87.12 24.20 73.10 26.28 63.10 35.14 Z" />
</g>
<g id="#ff8214ff">
<path fill="#ff8214" opacity="1.00" d=" M 63.10 35.14 C 73.10 26.28 87.12 24.20 100.02 24.20 C 113.55 24.09 128.26 26.01 138.83 35.21 C 148.23 43.50 150.80 56.67 150.91 68.65 C 150.62 77.88 151.94 87.16 154.99 95.89 C 155.38 95.69 156.16 95.29 156.55 95.09 C 156.25 95.44 155.65 96.14 155.35 96.49 C 158.17 103.31 161.77 109.76 165.07 116.35 C 160.37 118.08 155.82 120.79 153.16 125.18 C 148.57 132.17 149.17 142.07 154.55 148.47 C 157.36 152.12 161.75 153.91 165.80 155.80 C 161.88 160.90 156.74 164.99 150.99 167.86 C 147.70 169.58 144.07 170.76 141.20 173.19 C 139.85 174.08 138.74 175.50 137.09 175.79 C 134.75 174.55 133.02 172.48 131.20 170.61 C 136.11 169.02 141.54 166.84 143.61 161.66 C 147.64 153.66 141.96 142.79 132.99 141.93 C 130.84 141.36 127.90 142.40 126.40 140.39 C 127.64 137.11 129.25 134.00 131.06 131.00 C 136.31 122.30 139.34 112.41 140.85 102.41 C 142.93 88.03 142.63 72.05 134.31 59.55 C 135.18 64.40 136.14 69.30 135.42 74.25 C 131.49 75.24 127.47 75.90 123.41 75.98 C 122.34 71.33 121.69 66.45 119.04 62.36 C 118.43 67.17 117.91 72.03 116.46 76.68 C 99.71 76.94 82.79 77.61 66.25 74.43 C 66.05 69.51 66.17 64.60 66.55 59.69 C 57.92 72.30 58.35 88.67 61.02 103.09 C 62.24 108.95 63.83 114.76 66.17 120.28 C 63.47 122.62 60.48 125.04 59.47 128.64 C 57.26 134.97 60.34 142.63 66.41 145.54 C 69.32 147.25 72.78 147.04 76.02 147.11 C 76.07 146.31 76.17 144.73 76.22 143.94 C 77.97 154.69 73.76 165.61 66.84 173.75 C 65.91 174.86 64.54 175.39 63.27 175.99 C 60.45 173.34 57.21 171.15 53.63 169.66 C 55.73 165.05 57.86 160.09 56.83 154.91 C 55.83 147.19 49.90 140.50 42.39 138.50 C 38.99 137.57 35.43 137.92 31.95 137.79 C 31.79 137.34 31.47 136.44 31.31 135.99 C 32.30 129.03 34.61 122.27 38.25 116.25 C 41.89 110.26 45.74 104.29 47.73 97.50 C 50.67 87.91 51.35 77.73 51.15 67.75 C 51.25 56.03 54.02 43.28 63.10 35.14 Z" />
</g>
<g id="#ffe5c5ff">
<path fill="#ffe5c5" opacity="1.00" d=" M 61.02 103.09 C 58.35 88.67 57.92 72.30 66.55 59.69 C 66.17 64.60 66.05 69.51 66.25 74.43 C 82.79 77.61 99.71 76.94 116.46 76.68 C 117.91 72.03 118.43 67.17 119.04 62.36 C 121.69 66.45 122.34 71.33 123.41 75.98 C 127.47 75.90 131.49 75.24 135.42 74.25 C 136.14 69.30 135.18 64.40 134.31 59.55 C 142.63 72.05 142.93 88.03 140.85 102.41 C 132.95 114.51 118.58 119.84 105.08 122.87 C 99.02 124.79 92.92 121.98 87.07 120.54 C 77.16 117.23 66.49 112.51 61.02 103.09 Z" />
<path fill="#ffe5c5" opacity="1.00" d=" M 150.91 68.65 C 158.63 72.21 166.68 75.55 173.14 81.21 C 169.22 87.43 162.85 91.58 156.55 95.09 C 156.16 95.29 155.38 95.69 154.99 95.89 C 151.94 87.16 150.62 77.88 150.91 68.65 Z" />
</g>
<g id="#ffe4c7ff">
<path fill="#ffe4c7" opacity="1.00" d=" M 27.08 81.22 C 34.03 75.06 42.85 71.66 51.15 67.75 C 51.35 77.73 50.67 87.91 47.73 97.50 C 40.14 93.19 31.83 88.85 27.08 81.22 Z" />
</g>
<g id="#d14814ff">
<path fill="#d14814" opacity="1.00" d=" M 165.07 116.35 L 165.44 116.20 C 168.70 123.03 172.12 130.24 171.54 138.02 C 171.78 144.42 169.41 150.57 166.10 155.94 L 165.80 155.80 C 161.75 153.91 157.36 152.12 154.55 148.47 C 149.17 142.07 148.57 132.17 153.16 125.18 C 155.82 120.79 160.37 118.08 165.07 116.35 Z" />
<path fill="#d14814" opacity="1.00" d=" M 33.96 154.05 C 30.82 148.64 29.76 142.07 31.31 135.99 C 31.47 136.44 31.79 137.34 31.95 137.79 C 35.43 137.92 38.99 137.57 42.39 138.50 C 49.90 140.50 55.83 147.19 56.83 154.91 C 57.86 160.09 55.73 165.05 53.63 169.66 C 45.86 166.40 38.14 161.62 33.96 154.05 Z" />
</g>
<g id="#d14815ff">
<path fill="#d14815" opacity="1.00" d=" M 59.47 128.64 C 60.48 125.04 63.47 122.62 66.17 120.28 C 69.28 128.27 75.47 135.14 76.22 143.94 C 76.17 144.73 76.07 146.31 76.02 147.11 C 72.78 147.04 69.32 147.25 66.41 145.54 C 60.34 142.63 57.26 134.97 59.47 128.64 Z" />
</g>
<g id="#d14816ff">
<path fill="#d14816" opacity="1.00" d=" M 130.95 170.70 C 124.63 162.14 122.51 150.40 126.40 140.39 C 127.90 142.40 130.84 141.36 132.99 141.93 C 141.96 142.79 147.64 153.66 143.61 161.66 C 141.54 166.84 136.11 169.02 131.20 170.61 L 130.95 170.70 Z" />
</g>
</svg>
