<?xml version="1.0" encoding="UTF-8" ?>
<!DOCTYPE svg PUBLIC "-//W3C//DTD SVG 1.1//EN" "http://www.w3.org/Graphics/SVG/1.1/DTD/svg11.dtd">
<svg width="200pt" height="200pt" viewBox="0 0 200 200" version="1.1" xmlns="http://www.w3.org/2000/svg">
<g id="#020101ff">
<path fill="#020101" opacity="1.00" d=" M 82.58 22.61 C 93.47 14.62 109.65 15.25 119.83 24.17 C 127.40 30.41 131.03 40.28 130.79 49.93 C 132.73 51.81 135.18 53.05 137.32 54.70 C 148.87 63.42 157.38 76.24 160.53 90.41 C 161.59 96.23 166.71 100.16 168.16 105.84 C 170.40 112.48 168.52 120.72 162.19 124.40 C 161.43 130.81 164.86 137.01 163.21 143.37 C 161.26 151.55 154.52 157.74 147.03 161.04 C 142.45 163.21 137.06 163.73 133.10 167.13 C 127.58 171.61 122.77 177.08 116.32 180.31 C 109.25 184.20 100.87 184.55 93.02 183.67 C 85.31 182.64 78.48 178.36 72.86 173.18 C 68.70 169.58 64.85 165.16 59.36 163.66 C 52.72 161.76 46.17 158.74 41.43 153.58 C 36.43 148.32 33.99 140.41 36.33 133.38 C 37.20 129.52 38.80 124.61 35.47 121.50 C 31.50 117.07 31.19 110.51 33.08 105.10 C 34.08 102.02 36.16 99.46 37.50 96.54 C 38.35 94.17 38.65 91.65 39.27 89.21 C 43.35 72.58 54.77 58.08 69.70 49.79 C 69.20 39.32 73.88 28.65 82.58 22.61 M 80.88 29.91 C 75.31 35.79 73.14 44.27 74.28 52.20 C 66.14 55.83 59.39 61.95 53.73 68.74 C 48.48 75.18 45.41 82.99 42.67 90.75 C 42.46 92.89 42.33 95.04 42.26 97.20 C 39.42 101.69 35.93 106.37 36.21 111.98 C 36.03 115.87 38.30 119.59 41.92 121.07 C 41.56 124.70 41.57 128.35 41.25 131.99 C 39.33 135.57 39.20 139.96 40.36 143.81 C 42.31 149.60 47.18 153.94 52.56 156.56 C 57.69 159.26 63.85 159.77 68.37 163.64 C 75.40 169.39 81.74 176.87 91.01 178.96 C 98.77 180.43 107.29 180.35 114.41 176.53 C 121.12 173.18 125.85 167.15 131.84 162.81 C 135.80 159.84 140.87 159.26 145.27 157.19 C 151.16 154.53 156.67 150.01 158.74 143.69 C 160.33 139.44 158.99 134.99 157.82 130.83 C 158.23 126.43 157.55 122.04 157.23 117.66 C 157.97 118.78 158.71 119.91 159.45 121.04 C 162.42 119.37 164.67 116.44 164.76 112.93 C 165.49 105.74 160.30 100.11 156.80 94.42 C 154.69 76.32 141.92 60.44 125.90 52.32 C 128.45 40.13 120.88 26.98 109.13 22.94 C 99.43 19.31 87.75 22.14 80.88 29.91 Z" />
</g>
<g id="#b5b5b5ff">
<path fill="#b5b5b5" opacity="1.00" d=" M 80.88 29.91 C 87.75 22.14 99.43 19.31 109.13 22.94 C 120.88 26.98 128.45 40.13 125.90 52.32 C 124.99 51.90 124.08 51.49 123.16 51.11 C 125.73 37.53 113.82 23.78 100.05 24.28 C 86.84 23.95 74.09 37.40 77.81 50.68 C 76.63 51.16 75.45 51.67 74.28 52.20 C 73.14 44.27 75.31 35.79 80.88 29.91 Z" />
</g>
<g id="#ffffffff">
<path fill="#ffffff" opacity="1.00" d=" M 77.81 50.68 C 74.09 37.40 86.84 23.95 100.05 24.28 C 113.82 23.78 125.73 37.53 123.16 51.11 C 118.94 49.35 114.47 48.37 110.15 46.93 C 107.07 45.03 103.78 43.00 100.00 43.30 C 95.16 43.04 91.34 46.42 86.96 47.85 C 83.83 48.53 80.77 49.47 77.81 50.68 Z" />
</g>
<g id="#ffe101ff">
<path fill="#ffe101" opacity="1.00" d=" M 86.96 47.85 C 91.34 46.42 95.16 43.04 100.00 43.30 C 103.78 43.00 107.07 45.03 110.15 46.93 C 115.71 51.48 120.33 57.29 123.05 63.97 C 123.95 66.05 124.61 68.26 125.82 70.20 C 127.50 71.67 129.66 72.43 131.64 73.42 C 141.74 78.00 149.94 85.85 156.80 94.42 C 160.30 100.11 165.49 105.74 164.76 112.93 C 164.67 116.44 162.42 119.37 159.45 121.04 C 158.71 119.91 157.97 118.78 157.23 117.66 C 153.35 111.40 147.77 106.32 141.66 102.29 C 136.09 98.71 130.17 95.39 123.63 93.97 C 120.24 100.11 114.66 105.38 107.51 106.51 C 102.21 106.05 96.88 106.07 91.56 106.33 C 85.20 104.82 79.55 100.39 77.09 94.25 C 69.16 95.68 62.24 100.21 55.78 104.78 C 50.19 109.22 44.78 114.40 41.92 121.07 C 38.30 119.59 36.03 115.87 36.21 111.98 C 35.93 106.37 39.42 101.69 42.26 97.20 C 50.07 85.38 61.00 75.37 74.49 70.54 C 75.91 66.46 77.36 62.34 79.66 58.65 C 82.02 54.71 85.42 51.55 87.97 47.75 L 86.96 47.85 Z" />
</g>
<g id="#eb0129ff">
<path fill="#eb0129" opacity="1.00" d=" M 110.15 46.93 C 114.47 48.37 118.94 49.35 123.16 51.11 C 124.08 51.49 124.99 51.90 125.90 52.32 C 141.92 60.44 154.69 76.32 156.80 94.42 C 149.94 85.85 141.74 78.00 131.64 73.42 C 129.66 72.43 127.50 71.67 125.82 70.20 C 124.61 68.26 123.95 66.05 123.05 63.97 C 120.33 57.29 115.71 51.48 110.15 46.93 Z" />
</g>
<g id="#ec0129ff">
<path fill="#ec0129" opacity="1.00" d=" M 77.81 50.68 C 80.77 49.47 83.83 48.53 86.96 47.85 L 87.97 47.75 C 85.42 51.55 82.02 54.71 79.66 58.65 C 77.36 62.34 75.91 66.46 74.49 70.54 C 61.00 75.37 50.07 85.38 42.26 97.20 C 42.33 95.04 42.46 92.89 42.67 90.75 C 45.41 82.99 48.48 75.18 53.73 68.74 C 59.39 61.95 66.14 55.83 74.28 52.20 C 75.45 51.67 76.63 51.16 77.81 50.68 Z" />
</g>
<g id="#019dffff">
<path fill="#019dff" opacity="1.00" d=" M 55.78 104.78 C 62.24 100.21 69.16 95.68 77.09 94.25 C 79.55 100.39 85.20 104.82 91.56 106.33 C 96.70 108.07 102.34 108.24 107.51 106.51 C 114.66 105.38 120.24 100.11 123.63 93.97 C 130.17 95.39 136.09 98.71 141.66 102.29 C 147.77 106.32 153.35 111.40 157.23 117.66 C 157.55 122.04 158.23 126.43 157.82 130.83 C 154.51 128.77 151.16 126.03 147.03 126.25 C 139.47 125.68 132.90 133.01 125.27 129.86 C 117.17 126.10 110.53 118.60 101.05 118.31 C 91.36 117.43 83.66 124.16 75.96 128.90 C 71.03 132.11 65.02 130.23 60.18 127.89 C 53.90 124.89 45.19 125.66 41.25 131.99 C 41.57 128.35 41.56 124.70 41.92 121.07 C 44.78 114.40 50.19 109.22 55.78 104.78 Z" />
</g>
<g id="#e2e275ff">
<path fill="#e2e275" opacity="1.00" d=" M 91.56 106.33 C 96.88 106.07 102.21 106.05 107.51 106.51 C 102.34 108.24 96.70 108.07 91.56 106.33 Z" />
</g>
<g id="#ffb600ff">
<path fill="#ffb600" opacity="1.00" d=" M 75.96 128.90 C 83.66 124.16 91.36 117.43 101.05 118.31 C 110.53 118.60 117.17 126.10 125.27 129.86 C 132.90 133.01 139.47 125.68 147.03 126.25 C 151.16 126.03 154.51 128.77 157.82 130.83 C 158.99 134.99 160.33 139.44 158.74 143.69 C 156.67 150.01 151.16 154.53 145.27 157.19 C 140.87 159.26 135.80 159.84 131.84 162.81 C 125.85 167.15 121.12 173.18 114.41 176.53 C 107.29 180.35 98.77 180.43 91.01 178.96 C 81.74 176.87 75.40 169.39 68.37 163.64 C 63.85 159.77 57.69 159.26 52.56 156.56 C 47.18 153.94 42.31 149.60 40.36 143.81 C 39.20 139.96 39.33 135.57 41.25 131.99 C 45.19 125.66 53.90 124.89 60.18 127.89 C 65.02 130.23 71.03 132.11 75.96 128.90 Z" />
</g>
</svg>
