<?xml version="1.0" encoding="UTF-8" ?>
<!DOCTYPE svg PUBLIC "-//W3C//DTD SVG 1.1//EN" "http://www.w3.org/Graphics/SVG/1.1/DTD/svg11.dtd">
<svg width="200pt" height="200pt" viewBox="0 0 200 200" version="1.1" xmlns="http://www.w3.org/2000/svg">
<g id="#010100ff">
<path fill="#010100" opacity="1.00" d=" M 78.07 20.04 C 80.94 14.60 90.20 14.64 92.63 20.41 C 94.35 23.90 93.10 27.92 90.80 30.80 C 91.08 35.72 91.60 40.69 93.33 45.33 C 94.93 40.51 95.56 35.43 95.74 30.37 C 93.26 27.61 92.95 23.59 94.16 20.20 C 96.45 15.53 103.33 14.67 107.10 18.03 C 108.64 19.30 109.03 21.37 109.77 23.12 C 110.86 19.00 114.51 15.37 119.05 16.04 C 123.92 16.12 127.46 21.33 126.31 25.92 C 125.98 27.80 124.72 29.27 123.60 30.73 C 123.53 36.83 123.60 42.94 123.56 49.04 C 129.15 48.77 135.20 50.69 138.34 55.61 C 144.10 64.67 144.56 76.23 142.14 86.46 C 145.22 88.13 148.64 88.90 152.10 89.34 C 160.48 90.72 168.67 96.14 171.35 104.49 C 174.17 115.72 171.68 127.91 165.27 137.48 C 154.84 153.32 138.15 163.51 121.50 171.73 C 118.50 175.01 117.11 179.64 113.47 182.42 C 108.72 186.42 102.06 186.45 96.21 185.74 C 91.28 184.99 87.13 181.65 84.65 177.43 C 82.96 175.13 81.97 171.99 79.13 170.83 C 66.39 164.69 54.10 157.12 44.39 146.71 C 35.12 137.37 28.60 124.46 29.88 111.03 C 29.45 98.99 40.85 90.10 52.02 89.00 C 57.66 88.74 62.72 85.23 65.11 80.15 C 68.44 73.46 73.33 67.41 80.13 64.04 C 80.08 53.02 80.16 42.00 80.09 30.98 C 77.40 28.08 75.80 23.68 78.07 20.04 M 81.08 23.00 C 79.64 26.44 84.77 27.66 84.13 30.92 C 84.14 42.86 84.09 54.80 84.14 66.74 C 79.74 68.32 75.90 71.30 73.03 74.96 C 69.19 79.83 67.35 86.40 61.84 89.84 C 56.68 93.56 49.78 92.23 44.36 95.36 C 37.96 98.23 33.31 104.84 33.80 111.99 C 32.85 122.82 37.81 133.18 44.72 141.22 C 54.62 152.79 67.80 160.98 81.39 167.53 C 86.00 169.64 87.01 175.21 90.47 178.52 C 94.60 182.81 101.26 182.65 106.67 181.56 C 111.62 180.35 114.14 175.58 116.57 171.57 C 118.55 167.67 123.10 166.66 126.60 164.64 C 141.07 156.98 155.20 147.02 163.56 132.59 C 168.26 124.73 169.51 115.15 167.74 106.24 C 165.72 99.22 158.81 94.73 151.96 93.32 C 147.16 92.46 141.51 91.95 138.22 87.90 C 138.40 83.58 139.66 79.36 139.50 75.01 C 139.51 68.44 138.27 61.29 133.67 56.30 C 130.04 52.50 124.23 52.33 119.53 53.94 C 119.65 45.94 119.44 37.93 119.60 29.93 C 119.68 27.61 122.84 26.55 122.58 24.06 C 122.73 19.71 115.95 18.33 114.32 22.31 C 112.63 25.47 116.86 27.75 116.10 30.94 C 115.52 37.27 115.28 44.20 111.62 49.65 C 110.50 51.58 107.86 50.71 107.11 48.93 C 103.74 42.76 103.39 35.46 103.10 28.58 C 104.51 27.10 106.42 25.36 105.61 23.07 C 104.89 19.29 98.93 18.82 97.51 22.33 C 96.16 24.76 98.11 27.03 99.82 28.59 C 99.63 34.53 99.12 40.56 97.13 46.19 C 96.35 48.11 95.39 50.53 93.07 50.91 C 90.96 50.04 90.01 47.78 89.27 45.78 C 87.42 40.33 87.00 34.52 86.72 28.81 C 88.20 27.24 90.30 25.47 89.47 23.04 C 88.62 18.95 82.00 18.96 81.08 23.00 M 109.76 24.94 C 109.14 26.89 108.30 28.76 107.17 30.47 C 107.31 35.63 108.12 40.75 109.59 45.69 C 111.24 40.65 111.95 35.35 112.10 30.06 C 111.23 28.39 110.44 26.69 109.76 24.94 Z" />
<path fill="#010100" opacity="1.00" d=" M 54.26 119.62 C 55.81 122.02 56.58 125.33 59.48 126.49 C 64.20 128.40 69.41 127.85 74.37 127.61 C 74.50 127.94 74.77 128.58 74.91 128.90 C 76.69 133.19 78.37 137.52 80.10 141.83 C 81.76 137.49 83.39 133.13 85.13 128.82 C 88.18 130.39 91.46 131.61 94.91 131.84 C 102.39 132.45 110.20 132.51 117.22 129.50 C 117.35 129.84 117.60 130.53 117.73 130.88 C 119.05 134.40 120.23 138.00 122.09 141.29 C 124.09 137.21 125.21 132.74 127.51 128.81 C 127.64 128.63 127.91 128.27 128.04 128.08 C 133.15 127.34 138.52 128.57 143.44 126.61 C 146.48 125.49 147.32 122.04 149.01 119.61 C 148.69 125.35 143.48 128.57 139.02 131.14 C 130.17 136.44 123.40 144.66 118.72 153.77 C 115.91 158.92 113.89 164.60 110.10 169.16 C 107.00 172.97 101.46 173.27 97.06 172.00 C 92.84 170.38 90.67 166.06 88.69 162.29 C 84.20 152.99 79.39 143.44 71.42 136.58 C 67.72 133.11 63.21 130.72 59.06 127.86 C 56.29 126.01 54.42 122.97 54.26 119.62 Z" />
</g>
<g id="#d2ba36ff">
<path fill="#d2ba36" opacity="1.00" d=" M 81.08 23.00 C 82.00 18.96 88.62 18.95 89.47 23.04 C 90.30 25.47 88.20 27.24 86.72 28.81 C 87.00 34.52 87.42 40.33 89.27 45.78 C 90.01 47.78 90.96 50.04 93.07 50.91 C 95.39 50.53 96.35 48.11 97.13 46.19 C 99.12 40.56 99.63 34.53 99.82 28.59 C 98.11 27.03 96.16 24.76 97.51 22.33 C 98.93 18.82 104.89 19.29 105.61 23.07 C 106.42 25.36 104.51 27.10 103.10 28.58 C 103.39 35.46 103.74 42.76 107.11 48.93 C 107.86 50.71 110.50 51.58 111.62 49.65 C 115.28 44.20 115.52 37.27 116.10 30.94 C 116.86 27.75 112.63 25.47 114.32 22.31 C 115.95 18.33 122.73 19.71 122.58 24.06 C 122.84 26.55 119.68 27.61 119.60 29.93 C 119.44 37.93 119.65 45.94 119.53 53.94 C 113.52 55.96 108.43 59.87 103.95 64.24 C 97.26 64.09 90.54 64.75 84.14 66.74 C 84.09 54.80 84.14 42.86 84.13 30.92 C 84.77 27.66 79.64 26.44 81.08 23.00 Z" />
</g>
<g id="#048f00ff">
<path fill="#048f00" opacity="1.00" d=" M 119.53 53.94 C 124.23 52.33 130.04 52.50 133.67 56.30 C 138.27 61.29 139.51 68.44 139.50 75.01 C 139.66 79.36 138.40 83.58 138.22 87.90 C 141.51 91.95 147.16 92.46 151.96 93.32 C 158.81 94.73 165.72 99.22 167.74 106.24 C 169.51 115.15 168.26 124.73 163.56 132.59 C 155.20 147.02 141.07 156.98 126.60 164.64 C 123.10 166.66 118.55 167.67 116.57 171.57 C 114.14 175.58 111.62 180.35 106.67 181.56 C 101.26 182.65 94.60 182.81 90.47 178.52 C 87.01 175.21 86.00 169.64 81.39 167.53 C 67.80 160.98 54.62 152.79 44.72 141.22 C 37.81 133.18 32.85 122.82 33.80 111.99 C 33.31 104.84 37.96 98.23 44.36 95.36 C 49.78 92.23 56.68 93.56 61.84 89.84 C 67.35 86.40 69.19 79.83 73.03 74.96 C 75.90 71.30 79.74 68.32 84.14 66.74 C 90.54 64.75 97.26 64.09 103.95 64.24 C 108.43 59.87 113.52 55.96 119.53 53.94 M 54.26 119.62 C 54.42 122.97 56.29 126.01 59.06 127.86 C 63.21 130.72 67.72 133.11 71.42 136.58 C 79.39 143.44 84.20 152.99 88.69 162.29 C 90.67 166.06 92.84 170.38 97.06 172.00 C 101.46 173.27 107.00 172.97 110.10 169.16 C 113.89 164.60 115.91 158.92 118.72 153.77 C 123.40 144.66 130.17 136.44 139.02 131.14 C 143.48 128.57 148.69 125.35 149.01 119.61 C 147.32 122.04 146.48 125.49 143.44 126.61 C 138.52 128.57 133.15 127.34 128.04 128.08 C 127.91 128.27 127.64 128.63 127.51 128.81 L 126.89 128.15 C 124.98 127.34 122.92 126.98 120.91 126.56 C 119.66 127.45 118.38 128.30 117.09 129.13 C 117.25 129.57 117.57 130.44 117.73 130.88 C 117.60 130.53 117.35 129.84 117.22 129.50 C 110.20 132.51 102.39 132.45 94.91 131.84 C 91.46 131.61 88.18 130.39 85.13 128.82 C 84.18 128.09 83.23 127.35 82.28 126.62 C 79.71 127.22 77.10 127.59 74.49 127.88 L 74.91 128.90 C 74.77 128.58 74.50 127.94 74.37 127.61 C 69.41 127.85 64.20 128.40 59.48 126.49 C 56.58 125.33 55.81 122.02 54.26 119.62 Z" />
</g>
<g id="#fffeffff">
<path fill="#fffeff" opacity="1.00" d=" M 74.49 127.88 C 77.10 127.59 79.71 127.22 82.28 126.62 C 83.23 127.35 84.18 128.09 85.13 128.82 C 83.39 133.13 81.76 137.49 80.10 141.83 C 78.37 137.52 76.69 133.19 74.91 128.90 L 74.49 127.88 Z" />
<path fill="#fffeff" opacity="1.00" d=" M 117.09 129.13 C 118.38 128.30 119.66 127.45 120.91 126.56 C 122.92 126.98 124.98 127.34 126.89 128.15 L 127.51 128.81 C 125.21 132.74 124.09 137.21 122.09 141.29 C 120.23 138.00 119.05 134.40 117.73 130.88 C 117.57 130.44 117.25 129.57 117.09 129.13 Z" />
</g>
</svg>
