<?xml version="1.0" encoding="UTF-8" ?>
<!DOCTYPE svg PUBLIC "-//W3C//DTD SVG 1.1//EN" "http://www.w3.org/Graphics/SVG/1.1/DTD/svg11.dtd">
<svg width="200pt" height="200pt" viewBox="0 0 200 200" version="1.1" xmlns="http://www.w3.org/2000/svg">
<g id="#000000ff">
<path fill="#000000" opacity="1.00" d=" M 58.92 16.23 C 72.22 15.06 85.65 14.27 98.94 15.93 C 109.20 17.18 119.25 20.05 128.73 24.17 C 132.32 27.25 134.40 31.76 135.49 36.29 C 143.72 39.35 154.12 42.25 157.68 51.30 C 163.48 63.85 168.89 76.57 174.13 89.36 C 177.17 89.64 180.66 87.52 183.71 89.20 C 186.22 90.48 186.47 93.70 185.44 96.04 C 181.56 106.66 174.24 115.68 166.15 123.42 C 167.76 125.90 169.37 128.48 169.62 131.52 C 174.27 134.57 178.51 138.67 180.41 144.02 C 181.16 146.18 179.66 148.20 177.91 149.31 C 181.20 156.15 183.53 164.07 181.46 171.62 C 180.74 174.05 179.75 177.11 176.88 177.63 C 169.38 178.19 162.70 173.56 157.85 168.27 C 157.00 167.63 156.61 166.21 155.46 166.12 C 155.32 170.07 153.08 173.58 150.03 175.97 C 145.07 179.87 139.48 182.88 133.87 185.74 C 130.95 187.05 127.50 184.11 128.18 181.03 C 129.21 173.36 130.24 165.69 131.29 158.02 C 125.56 162.78 119.82 167.86 112.76 170.60 C 104.69 173.46 95.74 173.42 87.72 170.39 C 80.53 167.46 74.70 162.16 68.86 157.24 C 69.94 165.51 71.19 173.75 72.16 182.03 C 72.06 185.15 68.19 187.15 65.60 185.38 C 59.69 182.15 53.51 179.10 48.57 174.44 C 44.24 170.38 44.32 164.01 44.34 158.54 C 42.16 159.83 39.00 159.34 37.85 156.92 C 36.59 154.61 38.38 152.34 38.82 150.07 C 40.33 143.52 41.99 136.93 42.80 130.25 C 41.55 128.75 39.33 129.31 37.99 127.98 C 36.86 127.03 36.84 125.33 35.78 124.34 C 27.79 116.80 20.53 108.13 16.25 97.92 C 15.30 95.52 14.03 92.32 16.12 90.14 C 18.84 87.36 23.10 88.93 26.36 89.64 C 28.26 82.22 29.74 74.12 34.57 67.77 C 30.99 68.54 27.59 70.17 23.96 70.58 C 20.36 70.53 18.67 65.61 21.27 63.23 C 33.01 48.51 47.14 33.86 65.89 28.80 C 63.56 26.09 57.95 25.99 55.51 22.67 C 53.77 20.10 55.86 16.26 58.92 16.23 M 59.99 20.35 C 60.10 20.60 60.32 21.10 60.42 21.35 C 68.57 25.34 77.47 27.68 85.91 30.69 C 80.01 30.69 74.06 31.16 68.31 32.51 C 54.22 35.97 42.61 45.50 32.98 55.96 C 30.02 59.30 26.79 62.55 24.49 66.35 C 32.04 64.23 39.45 61.66 47.04 59.70 C 43.49 65.56 36.90 69.65 34.53 76.40 C 31.83 82.30 31.19 88.81 29.86 95.08 C 26.37 94.07 22.74 92.80 19.08 92.99 C 22.19 104.30 30.41 113.40 38.63 121.41 C 39.32 122.16 39.89 122.98 40.33 123.90 L 40.52 123.44 C 43.03 124.99 45.12 127.16 47.48 128.94 C 45.83 137.50 44.27 146.09 41.94 154.50 C 44.92 152.24 46.58 148.51 49.48 146.10 C 48.64 153.02 47.85 160.11 49.03 167.04 C 49.47 170.33 52.33 172.43 54.80 174.28 C 58.93 177.17 63.37 179.60 67.86 181.88 C 66.25 170.62 64.95 159.29 63.15 148.07 C 64.60 148.18 66.08 148.66 67.15 149.68 C 73.99 156.35 81.10 163.25 90.09 166.90 C 97.50 169.11 105.82 169.12 112.97 165.97 C 120.57 162.15 126.95 156.34 132.92 150.37 L 132.95 150.55 C 134.12 149.55 135.12 148.01 136.82 147.99 C 135.30 159.30 133.82 170.61 132.23 181.92 C 138.08 178.74 144.24 175.81 149.06 171.12 C 151.83 168.16 151.42 163.80 151.70 160.06 C 152.28 157.95 152.93 155.86 153.55 153.77 C 155.43 159.45 159.37 164.24 163.70 168.27 C 167.16 171.21 171.65 173.97 176.33 173.38 C 178.29 169.15 178.30 164.32 177.21 159.85 C 175.71 154.15 173.33 148.38 169.14 144.12 C 171.44 144.74 173.79 145.60 176.21 145.16 C 174.19 139.93 169.50 136.23 164.63 133.76 C 166.63 130.30 162.66 123.83 158.40 124.70 C 168.36 116.22 177.70 105.93 181.81 93.29 L 181.17 92.86 C 173.22 93.83 165.56 96.56 158.00 99.11 C 158.77 97.58 159.73 96.15 160.58 94.65 C 159.64 91.07 157.58 87.81 157.05 84.14 C 161.36 86.59 165.70 89.02 170.14 91.24 C 164.90 78.00 159.23 64.89 153.19 51.98 C 151.47 47.69 146.91 45.80 143.08 43.81 C 139.60 42.36 136.07 40.67 132.23 40.55 C 131.01 36.03 129.88 31.00 126.20 27.78 C 114.15 22.62 101.14 19.73 88.03 19.39 C 78.67 18.97 69.32 19.82 59.99 20.35 Z" />
</g>
<g id="#c2ac1bff">
<path fill="#c2ac1b" opacity="1.00" d=" M 59.99 20.35 C 69.32 19.82 78.67 18.97 88.03 19.39 C 101.14 19.73 114.15 22.62 126.20 27.78 C 129.88 31.00 131.01 36.03 132.23 40.55 C 136.07 40.67 139.60 42.36 143.08 43.81 C 146.91 45.80 151.47 47.69 153.19 51.98 C 159.23 64.89 164.90 78.00 170.14 91.24 C 165.70 89.02 161.36 86.59 157.05 84.14 C 157.58 87.81 159.64 91.07 160.58 94.65 C 159.73 96.15 158.77 97.58 158.00 99.11 C 155.63 102.46 153.72 106.09 151.56 109.57 C 150.99 110.64 149.86 111.63 150.11 112.97 C 150.00 118.47 152.26 123.62 152.41 129.10 C 152.67 128.98 153.20 128.73 153.47 128.61 C 152.92 132.40 154.24 136.07 154.50 139.81 C 158.06 138.40 161.70 136.32 164.63 133.76 C 169.50 136.23 174.19 139.93 176.21 145.16 C 173.79 145.60 171.44 144.74 169.14 144.12 C 173.33 148.38 175.71 154.15 177.21 159.85 C 178.30 164.32 178.29 169.15 176.33 173.38 C 171.65 173.97 167.16 171.21 163.70 168.27 C 159.37 164.24 155.43 159.45 153.55 153.77 C 152.93 155.86 152.28 157.95 151.70 160.06 C 151.42 163.80 151.83 168.16 149.06 171.12 C 144.24 175.81 138.08 178.74 132.23 181.92 C 133.82 170.61 135.30 159.30 136.82 147.99 C 135.12 148.01 134.12 149.55 132.95 150.55 L 132.92 150.37 L 132.71 149.15 C 131.19 149.63 129.63 149.86 128.04 149.82 C 133.81 141.12 136.70 130.95 139.43 120.99 C 140.31 114.04 140.79 107.02 140.66 100.02 C 140.91 98.61 139.67 97.78 138.69 97.10 C 137.23 95.15 135.71 93.23 134.13 91.38 C 129.77 86.43 126.43 80.72 122.94 75.16 C 113.27 94.09 94.73 107.19 75.20 114.55 C 76.44 110.06 80.23 106.79 82.22 102.61 C 83.12 101.18 84.12 99.82 85.05 98.41 C 87.19 94.13 90.96 90.55 91.98 85.81 C 86.40 87.71 81.33 91.00 76.19 93.90 C 74.22 94.98 72.18 95.96 70.32 97.23 C 70.42 97.54 70.62 98.16 70.73 98.48 C 68.29 97.36 66.40 99.63 64.43 100.66 C 62.81 101.90 60.49 102.42 59.49 104.35 C 59.14 120.33 63.93 136.13 71.98 149.86 C 70.37 149.74 68.76 149.68 67.15 149.68 C 66.08 148.66 64.60 148.18 63.15 148.07 C 64.95 159.29 66.25 170.62 67.86 181.88 C 63.37 179.60 58.93 177.17 54.80 174.28 C 52.33 172.43 49.47 170.33 49.03 167.04 C 47.85 160.11 48.64 153.02 49.48 146.10 C 46.58 148.51 44.92 152.24 41.94 154.50 C 44.27 146.09 45.83 137.50 47.48 128.94 C 48.56 122.70 49.83 116.54 50.61 110.25 C 48.56 109.91 47.28 111.71 45.90 112.87 C 43.07 115.79 42.05 119.80 40.52 123.44 L 40.33 123.90 C 39.89 122.98 39.32 122.16 38.63 121.41 L 39.27 120.60 C 37.37 114.08 34.85 106.81 37.58 100.17 C 37.88 99.14 38.24 97.96 37.26 97.16 C 37.60 97.16 38.29 97.17 38.63 97.17 C 40.25 93.20 42.31 89.42 44.77 85.90 C 40.01 88.37 35.05 91.44 32.07 95.98 C 31.62 96.19 30.72 96.62 30.27 96.83 C 30.17 96.39 29.96 95.52 29.86 95.08 C 31.19 88.81 31.83 82.30 34.53 76.40 C 36.90 69.65 43.49 65.56 47.04 59.70 C 39.45 61.66 32.04 64.23 24.49 66.35 C 26.79 62.55 30.02 59.30 32.98 55.96 C 42.61 45.50 54.22 35.97 68.31 32.51 C 74.06 31.16 80.01 30.69 85.91 30.69 C 77.47 27.68 68.57 25.34 60.42 21.35 C 60.32 21.10 60.10 20.60 59.99 20.35 Z" />
</g>
<g id="#f9e1cbff">
<path fill="#f9e1cb" opacity="1.00" d=" M 122.94 75.16 C 126.43 80.72 129.77 86.43 134.13 91.38 C 130.59 90.63 127.64 93.23 124.57 94.52 C 119.05 97.58 113.07 100.11 107.92 103.64 C 109.17 104.40 110.24 106.53 111.93 105.94 C 120.54 102.21 129.23 98.07 138.69 97.10 C 139.67 97.78 140.91 98.61 140.66 100.02 C 140.79 107.02 140.31 114.04 139.43 120.99 C 136.70 130.95 133.81 141.12 128.04 149.82 C 129.63 149.86 131.19 149.63 132.71 149.15 L 132.92 150.37 C 126.95 156.34 120.57 162.15 112.97 165.97 C 105.82 169.12 97.50 169.11 90.09 166.90 C 81.10 163.25 73.99 156.35 67.15 149.68 C 68.76 149.68 70.37 149.74 71.98 149.86 C 63.93 136.13 59.14 120.33 59.49 104.35 C 60.49 102.42 62.81 101.90 64.43 100.66 C 66.40 99.63 68.29 97.36 70.73 98.48 C 74.64 99.61 78.46 101.02 82.22 102.61 C 80.23 106.79 76.44 110.06 75.20 114.55 C 94.73 107.19 113.27 94.09 122.94 75.16 Z" />
</g>
<g id="#010200ff">
<path fill="#010200" opacity="1.00" d=" M 32.07 95.98 C 35.05 91.44 40.01 88.37 44.77 85.90 C 42.31 89.42 40.25 93.20 38.63 97.17 C 38.29 97.17 37.60 97.16 37.26 97.16 C 35.52 96.80 33.89 95.83 32.07 95.98 Z" />
</g>
<g id="#f9e1ccff">
<path fill="#f9e1cc" opacity="1.00" d=" M 76.19 93.90 C 81.33 91.00 86.40 87.71 91.98 85.81 C 90.96 90.55 87.19 94.13 85.05 98.41 C 82.04 97.04 79.10 95.48 76.19 93.90 Z" />
</g>
<g id="#946e3cff">
<path fill="#946e3c" opacity="1.00" d=" M 124.57 94.52 C 127.64 93.23 130.59 90.63 134.13 91.38 C 135.71 93.23 137.23 95.15 138.69 97.10 C 129.23 98.07 120.54 102.21 111.93 105.94 C 110.24 106.53 109.17 104.40 107.92 103.64 C 113.07 100.11 119.05 97.58 124.57 94.52 Z" />
</g>
<g id="#f3cfb2ff">
<path fill="#f3cfb2" opacity="1.00" d=" M 19.08 92.99 C 22.74 92.80 26.37 94.07 29.86 95.08 C 29.96 95.52 30.17 96.39 30.27 96.83 C 30.72 96.62 31.62 96.19 32.07 95.98 C 33.89 95.83 35.52 96.80 37.26 97.16 C 38.24 97.96 37.88 99.14 37.58 100.17 C 34.85 106.81 37.37 114.08 39.27 120.60 L 38.63 121.41 C 30.41 113.40 22.19 104.30 19.08 92.99 Z" />
<path fill="#f3cfb2" opacity="1.00" d=" M 158.00 99.11 C 165.56 96.56 173.22 93.83 181.17 92.86 L 181.81 93.29 C 177.70 105.93 168.36 116.22 158.40 124.70 C 156.82 126.08 155.47 127.79 153.47 128.61 C 153.20 128.73 152.67 128.98 152.41 129.10 C 152.26 123.62 150.00 118.47 150.11 112.97 C 149.86 111.63 150.99 110.64 151.56 109.57 C 153.72 106.09 155.63 102.46 158.00 99.11 Z" />
</g>
<g id="#946d40ff">
<path fill="#946d40" opacity="1.00" d=" M 70.32 97.23 C 72.18 95.96 74.22 94.98 76.19 93.90 C 79.10 95.48 82.04 97.04 85.05 98.41 C 84.12 99.82 83.12 101.18 82.22 102.61 C 78.46 101.02 74.64 99.61 70.73 98.48 C 70.62 98.16 70.42 97.54 70.32 97.23 Z" />
</g>
<g id="#f6cfb5ff">
<path fill="#f6cfb5" opacity="1.00" d=" M 45.90 112.87 C 47.28 111.71 48.56 109.91 50.61 110.25 C 49.83 116.54 48.56 122.70 47.48 128.94 C 45.12 127.16 43.03 124.99 40.52 123.44 C 42.05 119.80 43.07 115.79 45.90 112.87 Z" />
</g>
<g id="#0db6ffff">
<path fill="#0db6ff" opacity="1.00" d=" M 158.40 124.70 C 162.66 123.83 166.63 130.30 164.63 133.76 C 161.70 136.32 158.06 138.40 154.50 139.81 C 154.24 136.07 152.92 132.40 153.47 128.61 C 155.47 127.79 156.82 126.08 158.40 124.70 Z" />
</g>
</svg>
