<?xml version="1.0" encoding="UTF-8" ?>
<!DOCTYPE svg PUBLIC "-//W3C//DTD SVG 1.1//EN" "http://www.w3.org/Graphics/SVG/1.1/DTD/svg11.dtd">
<svg width="200pt" height="200pt" viewBox="0 0 200 200" version="1.1" xmlns="http://www.w3.org/2000/svg">
<g id="#abababff">
<path fill="#ababab" opacity="1.00" d=" M 72.45 15.63 C 74.06 10.68 80.08 7.86 84.94 9.59 C 93.05 12.63 97.38 22.04 106.15 23.67 C 112.81 25.58 119.43 27.62 126.07 29.56 C 132.76 31.27 139.85 30.71 146.47 32.72 C 150.60 34.13 152.11 38.48 153.83 42.06 C 157.61 50.71 161.80 59.48 162.61 69.01 C 162.62 75.21 161.25 81.33 160.06 87.39 C 164.44 92.74 166.00 100.19 164.35 106.88 C 162.54 115.36 157.86 123.64 150.51 128.48 C 147.13 138.10 145.49 149.13 137.55 156.31 C 140.82 158.48 141.56 162.57 142.97 165.96 C 144.41 170.26 147.18 174.84 145.15 179.43 C 143.88 183.64 139.49 185.35 135.77 186.79 C 123.07 191.36 109.37 192.42 95.97 191.87 C 84.85 191.33 73.60 189.85 63.17 185.78 C 59.58 184.45 55.79 182.14 54.85 178.15 C 53.26 174.27 55.49 170.39 56.68 166.74 C 58.33 162.88 59.08 158.35 62.50 155.53 C 55.00 148.87 54.11 138.27 50.54 129.54 C 40.59 122.93 34.28 110.83 35.16 98.86 C 35.71 94.92 36.98 91.00 39.60 87.92 C 38.22 80.41 36.36 72.67 38.10 65.04 C 40.74 51.90 44.17 38.91 48.20 26.13 C 49.39 21.93 53.92 20.34 57.82 19.85 C 60.46 14.65 67.42 12.52 72.45 15.63 M 77.80 17.96 C 77.46 20.42 77.59 22.91 77.56 25.39 C 74.05 23.64 70.94 20.81 67.05 20.00 C 62.24 20.29 62.66 25.96 62.34 29.43 C 61.15 28.01 60.13 25.94 57.98 26.01 C 55.92 25.69 53.87 27.11 53.40 29.12 C 49.79 41.27 46.25 53.48 43.95 65.95 C 42.33 73.94 44.60 81.97 46.01 89.80 C 39.80 94.98 40.08 104.17 42.98 111.03 C 45.37 117.40 50.35 122.30 55.84 126.10 C 58.08 132.60 59.53 139.42 62.44 145.69 C 64.66 149.66 67.95 152.89 70.96 156.27 C 70.87 157.42 70.79 158.58 70.70 159.74 C 68.61 159.66 65.88 159.64 64.94 161.95 C 63.28 165.68 61.95 169.56 60.55 173.41 C 59.50 175.58 60.76 178.17 62.92 179.06 C 72.64 183.93 83.72 185.06 94.42 185.79 C 108.21 186.36 122.54 185.88 135.45 180.50 C 137.77 179.69 140.51 177.89 139.89 175.02 C 138.61 170.77 136.91 166.66 135.30 162.53 C 134.38 160.20 131.58 159.92 129.44 160.30 C 129.30 159.20 129.16 158.10 129.03 157.00 C 133.01 152.53 137.69 148.30 139.69 142.49 C 141.81 136.80 143.57 130.99 145.30 125.17 C 153.12 119.69 159.12 110.79 159.02 100.99 C 159.08 96.57 157.02 92.34 153.63 89.53 C 155.17 80.63 158.22 71.35 155.45 62.38 C 153.34 55.31 150.34 48.55 147.14 41.91 C 146.35 40.43 145.61 38.63 143.88 38.04 C 136.81 36.69 129.43 37.00 122.55 34.67 C 114.53 32.19 106.38 30.04 98.41 27.40 C 93.50 23.79 89.18 19.42 84.32 15.75 C 82.12 14.02 78.54 15.30 77.80 17.96 Z" />
<path fill="#ababab" opacity="1.00" d=" M 81.11 17.65 C 86.42 21.65 91.25 26.26 96.46 30.37 C 100.16 31.99 104.17 32.71 108.00 33.98 C 116.32 36.13 124.36 39.73 133.02 40.21 C 136.31 40.57 139.57 41.06 142.87 41.26 C 146.34 47.73 149.27 54.48 151.60 61.44 C 155.31 71.55 151.33 82.21 149.64 92.32 L 148.81 91.85 C 150.22 83.32 153.03 74.77 151.89 66.05 C 149.91 57.67 146.09 49.88 142.44 42.13 C 135.62 41.04 128.58 41.17 121.97 39.00 C 114.24 36.66 106.49 34.39 98.73 32.15 C 97.34 31.74 95.95 31.23 94.85 30.25 C 90.54 26.60 86.29 22.89 81.94 19.30 C 81.92 23.77 82.00 28.24 81.97 32.71 C 76.93 30.13 72.13 27.14 67.18 24.41 C 66.80 30.12 66.00 35.78 65.52 41.48 C 62.73 37.87 60.23 34.05 57.57 30.34 C 54.13 42.32 50.60 54.31 48.29 66.58 C 46.77 75.54 49.60 84.38 51.18 93.13 L 50.59 92.09 C 49.60 90.59 49.39 88.77 49.01 87.06 C 47.67 80.19 46.09 73.13 47.49 66.14 C 49.98 53.41 53.51 40.91 57.29 28.51 C 59.96 31.99 62.34 35.67 64.89 39.23 C 65.33 33.84 66.01 28.47 66.52 23.08 C 71.44 25.70 76.15 28.69 81.08 31.31 C 81.05 26.76 80.94 22.20 81.11 17.65 Z" />
</g>
<g id="#000000ff">
<path fill="#000000" opacity="1.00" d=" M 77.80 17.96 C 78.54 15.30 82.12 14.02 84.32 15.75 C 89.18 19.42 93.50 23.79 98.41 27.40 C 106.38 30.04 114.53 32.19 122.55 34.67 C 129.43 37.00 136.81 36.69 143.88 38.04 C 145.61 38.63 146.35 40.43 147.14 41.91 C 150.34 48.55 153.34 55.31 155.45 62.38 C 158.22 71.35 155.17 80.63 153.63 89.53 C 157.02 92.34 159.08 96.57 159.02 100.99 C 159.12 110.79 153.12 119.69 145.30 125.17 C 143.57 130.99 141.81 136.80 139.69 142.49 C 137.69 148.30 133.01 152.53 129.03 157.00 C 129.16 158.10 129.30 159.20 129.44 160.30 C 131.58 159.92 134.38 160.20 135.30 162.53 C 136.91 166.66 138.61 170.77 139.89 175.02 C 140.51 177.89 137.77 179.69 135.45 180.50 C 122.54 185.88 108.21 186.36 94.42 185.79 C 83.72 185.06 72.64 183.93 62.92 179.06 C 60.76 178.17 59.50 175.58 60.55 173.41 C 61.95 169.56 63.28 165.68 64.94 161.95 C 65.88 159.64 68.61 159.66 70.70 159.74 C 70.79 158.58 70.87 157.42 70.96 156.27 C 67.95 152.89 64.66 149.66 62.44 145.69 C 59.53 139.42 58.08 132.60 55.84 126.10 C 50.35 122.30 45.37 117.40 42.98 111.03 C 40.08 104.17 39.80 94.98 46.01 89.80 C 44.60 81.97 42.33 73.94 43.95 65.95 C 46.25 53.48 49.79 41.27 53.40 29.12 C 53.87 27.11 55.92 25.69 57.98 26.01 C 60.13 25.94 61.15 28.01 62.34 29.43 C 62.66 25.96 62.24 20.29 67.05 20.00 C 70.94 20.81 74.05 23.64 77.56 25.39 C 77.59 22.91 77.46 20.42 77.80 17.96 M 81.11 17.65 C 80.94 22.20 81.05 26.76 81.08 31.31 C 76.15 28.69 71.44 25.70 66.52 23.08 C 66.01 28.47 65.33 33.84 64.89 39.23 C 62.34 35.67 59.96 31.99 57.29 28.51 C 53.51 40.91 49.98 53.41 47.49 66.14 C 46.09 73.13 47.67 80.19 49.01 87.06 C 49.39 88.77 49.60 90.59 50.59 92.09 C 47.47 93.48 45.58 96.65 45.35 99.98 C 44.85 107.28 48.52 114.36 53.81 119.20 C 55.74 121.00 58.34 121.98 59.92 124.15 C 60.26 125.18 60.58 126.22 60.89 127.27 C 61.82 131.63 63.36 135.85 64.78 140.08 C 66.52 146.10 71.47 150.27 75.47 154.80 C 75.07 158.71 74.42 162.59 73.80 166.47 C 72.08 165.67 70.38 164.81 68.65 164.01 C 67.24 167.72 65.80 171.41 64.45 175.14 C 77.00 181.16 91.31 181.71 104.98 181.73 C 115.42 181.52 126.07 180.27 135.66 175.88 C 134.55 171.97 132.92 168.24 131.57 164.41 C 129.89 165.42 128.23 166.48 126.44 167.30 C 125.72 163.33 125.06 159.35 124.71 155.33 C 127.51 152.56 130.15 149.63 132.63 146.57 C 135.22 143.52 136.21 139.55 137.54 135.87 C 138.68 132.18 140.17 128.56 140.75 124.72 C 141.57 123.90 141.98 122.93 141.99 121.79 C 143.20 121.87 144.04 120.65 145.02 120.08 C 150.70 115.45 154.83 108.46 154.80 101.00 C 154.79 97.48 153.11 93.65 149.64 92.32 C 151.33 82.21 155.31 71.55 151.60 61.44 C 149.27 54.48 146.34 47.73 142.87 41.26 C 139.57 41.06 136.31 40.57 133.02 40.21 C 124.36 39.73 116.32 36.13 108.00 33.98 C 104.17 32.71 100.16 31.99 96.46 30.37 C 91.25 26.26 86.42 21.65 81.11 17.65 Z" />
<path fill="#000000" opacity="1.00" d=" M 81.94 19.30 C 86.29 22.89 90.54 26.60 94.85 30.25 C 95.95 31.23 97.34 31.74 98.73 32.15 C 106.49 34.39 114.24 36.66 121.97 39.00 C 128.58 41.17 135.62 41.04 142.44 42.13 C 146.09 49.88 149.91 57.67 151.89 66.05 C 153.03 74.77 150.22 83.32 148.81 91.85 C 146.73 101.70 144.05 111.40 141.75 121.20 C 141.50 121.09 141.00 120.86 140.75 120.75 C 140.27 111.23 141.83 101.66 141.14 92.17 C 139.04 85.60 137.21 78.88 134.66 72.49 C 131.93 70.45 128.94 67.22 125.20 68.45 C 116.40 70.21 108.09 73.77 100.08 77.72 C 91.17 73.34 81.87 69.41 71.98 67.98 C 69.77 69.49 67.54 70.99 65.32 72.49 C 63.39 78.58 61.41 84.66 59.42 90.74 C 58.60 93.09 58.80 95.61 58.96 98.05 C 59.46 104.62 59.61 111.22 60.13 117.79 C 60.24 119.33 60.15 120.87 59.85 122.39 C 58.77 121.42 58.61 119.88 58.13 118.59 C 55.67 110.14 53.39 101.64 51.18 93.13 C 49.60 84.38 46.77 75.54 48.29 66.58 C 50.60 54.31 54.13 42.32 57.57 30.34 C 60.23 34.05 62.73 37.87 65.52 41.48 C 66.00 35.78 66.80 30.12 67.18 24.41 C 72.13 27.14 76.93 30.13 81.97 32.71 C 82.00 28.24 81.92 23.77 81.94 19.30 Z" />
<path fill="#000000" opacity="1.00" d=" M 115.79 100.92 C 122.45 98.39 129.04 95.61 135.98 93.93 C 136.80 96.48 137.64 100.24 134.68 101.73 C 124.80 105.81 114.82 109.64 104.90 113.63 C 105.87 110.32 106.83 106.80 109.29 104.25 C 111.14 102.61 113.56 101.87 115.79 100.92 Z" />
</g>
<g id="#e2ac71ff">
<path fill="#e2ac71" opacity="1.00" d=" M 65.32 72.49 C 67.54 70.99 69.77 69.49 71.98 67.98 C 81.87 69.41 91.17 73.34 100.08 77.72 C 108.09 73.77 116.40 70.21 125.20 68.45 C 128.94 67.22 131.93 70.45 134.66 72.49 C 137.21 78.88 139.04 85.60 141.14 92.17 C 141.83 101.66 140.27 111.23 140.75 120.75 C 141.00 120.86 141.50 121.09 141.75 121.20 L 141.99 121.79 C 141.98 122.93 141.57 123.90 140.75 124.72 C 140.17 128.56 138.68 132.18 137.54 135.87 C 136.21 139.55 135.22 143.52 132.63 146.57 C 130.15 149.63 127.51 152.56 124.71 155.33 C 120.12 159.68 114.98 164.13 108.56 165.32 C 103.46 166.01 98.25 165.95 93.13 165.47 C 86.03 164.56 80.48 159.50 75.47 154.80 C 71.47 150.27 66.52 146.10 64.78 140.08 C 63.36 135.85 61.82 131.63 60.89 127.27 C 60.57 124.11 60.40 120.95 60.13 117.79 C 59.61 111.22 59.46 104.62 58.96 98.05 C 58.80 95.61 58.60 93.09 59.42 90.74 C 61.41 84.66 63.39 78.58 65.32 72.49 M 64.47 94.05 C 64.19 95.95 63.42 97.92 64.11 99.83 C 64.85 101.52 66.68 102.10 68.26 102.74 C 77.44 106.30 86.55 110.05 95.73 113.62 C 94.70 110.19 93.70 106.46 90.99 103.94 C 88.33 102.03 85.13 101.13 82.14 99.88 C 76.34 97.70 70.59 95.21 64.47 94.05 M 115.79 100.92 C 113.56 101.87 111.14 102.61 109.29 104.25 C 106.83 106.80 105.87 110.32 104.90 113.63 C 114.82 109.64 124.80 105.81 134.68 101.73 C 137.64 100.24 136.80 96.48 135.98 93.93 C 129.04 95.61 122.45 98.39 115.79 100.92 Z" />
</g>
<g id="#dd9b52ff">
<path fill="#dd9b52" opacity="1.00" d=" M 148.81 91.85 L 149.64 92.32 C 153.11 93.65 154.79 97.48 154.80 101.00 C 154.83 108.46 150.70 115.45 145.02 120.08 C 144.04 120.65 143.20 121.87 141.99 121.79 L 141.75 121.20 C 144.05 111.40 146.73 101.70 148.81 91.85 Z" />
</g>
<g id="#de9b52ff">
<path fill="#de9b52" opacity="1.00" d=" M 45.35 99.98 C 45.58 96.65 47.47 93.48 50.59 92.09 L 51.18 93.13 C 53.39 101.64 55.67 110.14 58.13 118.59 C 58.61 119.88 58.77 121.42 59.85 122.39 C 60.15 120.87 60.24 119.33 60.13 117.79 C 60.40 120.95 60.57 124.11 60.89 127.27 C 60.58 126.22 60.26 125.18 59.92 124.15 C 58.34 121.98 55.74 121.00 53.81 119.20 C 48.52 114.36 44.85 107.28 45.35 99.98 Z" />
</g>
<g id="#000100ff">
<path fill="#000100" opacity="1.00" d=" M 64.47 94.05 C 70.59 95.21 76.34 97.70 82.14 99.88 C 85.13 101.13 88.33 102.03 90.99 103.94 C 93.70 106.46 94.70 110.19 95.73 113.62 C 86.55 110.05 77.44 106.30 68.26 102.74 C 66.68 102.10 64.85 101.52 64.11 99.83 C 63.42 97.92 64.19 95.95 64.47 94.05 Z" />
</g>
<g id="#804f21ff">
<path fill="#804f21" opacity="1.00" d=" M 75.47 154.80 C 80.48 159.50 86.03 164.56 93.13 165.47 C 98.25 165.95 103.46 166.01 108.56 165.32 C 114.98 164.13 120.12 159.68 124.71 155.33 C 125.06 159.35 125.72 163.33 126.44 167.30 C 115.61 172.21 103.44 172.26 91.81 171.36 C 85.70 170.23 79.48 169.10 73.80 166.47 C 74.42 162.59 75.07 158.71 75.47 154.80 Z" />
</g>
<g id="#1eae1dff">
<path fill="#1eae1d" opacity="1.00" d=" M 68.65 164.01 C 70.38 164.81 72.08 165.67 73.80 166.47 C 79.48 169.10 85.70 170.23 91.81 171.36 C 103.44 172.26 115.61 172.21 126.44 167.30 C 128.23 166.48 129.89 165.42 131.57 164.41 C 132.92 168.24 134.55 171.97 135.66 175.88 C 126.07 180.27 115.42 181.52 104.98 181.73 C 91.31 181.71 77.00 181.16 64.45 175.14 C 65.80 171.41 67.24 167.72 68.65 164.01 Z" />
</g>
</svg>
