<?xml version="1.0" encoding="UTF-8" ?>
<!DOCTYPE svg PUBLIC "-//W3C//DTD SVG 1.1//EN" "http://www.w3.org/Graphics/SVG/1.1/DTD/svg11.dtd">
<svg width="200pt" height="200pt" viewBox="0 0 200 200" version="1.1" xmlns="http://www.w3.org/2000/svg">
<g id="#000000ff">
<path fill="#000000" opacity="1.00" d=" M 90.28 23.18 C 94.62 21.19 99.04 18.28 104.06 19.07 C 107.12 19.25 109.86 21.80 109.91 24.94 C 109.76 29.83 107.53 34.62 108.59 39.55 C 109.66 43.87 113.29 46.91 116.95 49.12 C 121.63 51.86 126.70 53.90 131.32 56.76 C 141.53 62.82 151.04 70.98 156.13 81.93 C 159.38 88.80 160.58 96.56 159.85 104.10 C 159.48 108.17 157.68 111.91 156.81 115.87 C 161.70 118.77 164.74 124.42 163.96 130.14 C 162.88 138.68 157.24 147.34 148.54 149.60 C 143.62 163.79 131.55 175.25 116.95 179.00 C 102.20 182.77 85.58 181.63 72.45 173.50 C 64.09 168.38 57.84 160.33 54.08 151.35 C 44.93 150.25 38.87 141.56 37.21 133.08 C 35.96 127.20 38.65 121.04 43.63 117.75 C 38.68 106.46 39.89 93.67 42.83 82.03 C 49.30 56.85 66.94 34.75 90.28 23.18 M 100.55 23.60 C 72.11 34.06 50.59 60.61 45.68 90.44 C 43.70 100.59 44.66 111.40 49.73 120.53 C 43.80 121.07 40.30 127.46 41.72 132.95 C 43.27 140.16 49.08 148.36 57.40 147.21 C 61.35 160.24 72.01 170.98 85.13 174.74 C 97.83 178.38 112.02 177.88 124.04 172.15 C 134.66 167.07 142.41 157.08 145.69 145.87 C 153.42 145.55 158.56 138.00 159.91 131.03 C 160.95 126.34 158.32 119.67 152.87 119.66 L 152.17 119.97 C 152.81 116.23 153.58 112.51 154.89 108.94 C 157.33 100.35 156.12 90.86 152.12 82.92 C 146.20 71.23 135.09 63.25 123.69 57.41 C 116.88 54.03 109.04 50.65 105.67 43.31 C 102.63 37.06 105.96 30.40 105.93 23.94 C 104.16 23.65 102.33 23.09 100.55 23.60 Z" />
</g>
<g id="#efca25ff">
<path fill="#efca25" opacity="1.00" d=" M 100.55 23.60 C 102.33 23.09 104.16 23.65 105.93 23.94 C 105.96 30.40 102.63 37.06 105.67 43.31 C 109.04 50.65 116.88 54.03 123.69 57.41 C 135.09 63.25 146.20 71.23 152.12 82.92 C 156.12 90.86 157.33 100.35 154.89 108.94 C 153.58 112.51 152.81 116.23 152.17 119.97 C 150.39 126.07 149.10 132.43 145.79 137.95 C 145.42 131.43 146.12 124.82 145.05 118.37 C 142.87 115.00 138.75 113.75 136.01 110.93 C 131.13 106.59 128.80 100.24 127.78 93.94 C 127.76 91.43 124.94 91.05 123.06 90.56 C 108.98 87.36 93.70 86.33 80.01 91.73 C 72.42 94.44 65.41 99.46 61.57 106.68 C 57.99 112.65 57.01 120.58 60.20 126.90 C 60.39 129.30 60.44 131.70 60.43 134.10 C 55.53 130.87 52.66 125.46 49.73 120.53 C 44.66 111.40 43.70 100.59 45.68 90.44 C 50.59 60.61 72.11 34.06 100.55 23.60 Z" />
</g>
<g id="#d2a658ff">
<path fill="#d2a658" opacity="1.00" d=" M 80.01 91.73 C 93.70 86.33 108.98 87.36 123.06 90.56 C 124.94 91.05 127.76 91.43 127.78 93.94 C 128.80 100.24 131.13 106.59 136.01 110.93 C 138.75 113.75 142.87 115.00 145.05 118.37 C 139.15 115.53 133.56 111.55 130.15 105.84 C 127.79 101.97 126.60 97.54 125.66 93.14 C 113.77 89.81 101.12 88.96 88.93 91.02 C 78.47 92.82 68.15 98.43 62.99 108.03 C 59.42 113.67 60.48 120.57 60.20 126.90 C 57.01 120.58 57.99 112.65 61.57 106.68 C 65.41 99.46 72.42 94.44 80.01 91.73 Z" />
</g>
<g id="#ffe5c8ff">
<path fill="#ffe5c8" opacity="1.00" d=" M 88.93 91.02 C 101.12 88.96 113.77 89.81 125.66 93.14 C 126.60 97.54 127.79 101.97 130.15 105.84 C 133.56 111.55 139.15 115.53 145.05 118.37 C 146.12 124.82 145.42 131.43 145.79 137.95 C 149.10 132.43 150.39 126.07 152.17 119.97 L 152.87 119.66 C 158.32 119.67 160.95 126.34 159.91 131.03 C 158.56 138.00 153.42 145.55 145.69 145.87 C 142.41 157.08 134.66 167.07 124.04 172.15 C 112.02 177.88 97.83 178.38 85.13 174.74 C 72.01 170.98 61.35 160.24 57.40 147.21 C 49.08 148.36 43.27 140.16 41.72 132.95 C 40.30 127.46 43.80 121.07 49.73 120.53 C 52.66 125.46 55.53 130.87 60.43 134.10 C 60.44 131.70 60.39 129.30 60.20 126.90 C 60.48 120.57 59.42 113.67 62.99 108.03 C 68.15 98.43 78.47 92.82 88.93 91.02 Z" />
</g>
</svg>
