<?xml version="1.0" encoding="UTF-8" ?>
<!DOCTYPE svg PUBLIC "-//W3C//DTD SVG 1.1//EN" "http://www.w3.org/Graphics/SVG/1.1/DTD/svg11.dtd">
<svg width="200pt" height="200pt" viewBox="0 0 200 200" version="1.1" xmlns="http://www.w3.org/2000/svg">
<g id="#000000ff">
<path fill="#000000" opacity="1.00" d=" M 49.90 43.92 C 56.90 32.81 68.25 24.54 80.93 21.18 C 83.94 20.45 88.22 19.45 89.87 22.96 C 96.45 22.59 103.05 22.71 109.65 22.81 C 111.15 19.53 115.18 20.45 118.00 21.05 C 128.96 23.72 138.90 30.26 145.86 39.11 C 149.60 43.69 152.03 49.12 154.85 54.27 C 160.85 67.65 161.37 82.62 161.95 97.04 C 163.15 101.12 169.93 102.08 169.05 107.07 C 168.38 110.27 164.54 111.06 161.96 109.63 C 162.06 119.13 160.35 128.73 162.30 138.14 C 164.02 146.86 167.57 155.16 172.31 162.66 C 174.63 166.26 177.16 169.82 180.54 172.52 C 183.12 174.62 181.69 179.99 177.97 179.54 C 168.20 178.93 158.42 176.15 150.12 170.88 C 142.26 168.88 134.08 168.24 125.99 167.98 C 123.48 167.67 121.26 169.07 118.90 169.65 C 104.93 173.61 89.72 172.90 76.07 168.01 C 68.32 167.99 60.59 168.85 52.97 170.21 C 50.71 170.35 49.22 172.25 47.35 173.27 C 39.49 177.94 30.14 179.66 21.09 179.46 C 18.92 179.27 17.91 176.81 18.20 174.90 C 18.62 172.12 21.72 171.16 23.12 168.97 C 31.05 159.08 36.55 147.09 38.30 134.50 C 39.23 126.04 37.93 117.54 38.06 109.06 C 35.27 110.73 30.86 109.71 30.66 105.99 C 30.77 101.63 35.98 100.33 38.06 96.99 C 38.48 84.01 39.17 70.76 43.47 58.39 C 45.51 53.53 47.01 48.38 49.90 43.92 M 49.52 54.66 L 49.27 54.67 C 43.75 68.45 42.58 83.42 42.30 98.11 C 40.89 100.92 38.15 102.78 35.98 105.00 C 38.34 104.48 40.61 103.65 42.81 102.68 C 42.80 104.72 42.57 106.77 42.86 108.80 C 41.62 118.09 43.82 127.68 42.24 137.02 C 39.85 151.31 32.91 164.67 23.35 175.46 C 32.79 175.11 42.74 172.75 49.98 166.32 C 58.96 165.07 67.90 163.67 76.99 163.63 C 81.07 165.51 85.47 166.56 89.90 167.19 C 101.70 168.74 114.21 168.04 125.15 162.99 L 126.12 163.61 C 134.80 164.15 143.53 164.90 152.01 166.93 C 159.49 172.30 168.78 174.31 177.72 175.62 C 172.75 171.29 169.21 165.63 166.02 159.93 C 162.20 152.75 159.27 145.05 157.98 137.00 C 156.70 129.09 157.93 121.08 157.74 113.14 L 157.21 112.00 C 158.04 109.22 158.37 106.24 158.01 103.35 C 159.77 104.19 161.55 105.01 163.48 105.37 C 161.71 102.49 157.62 100.84 157.86 97.02 C 157.59 83.22 156.79 69.03 151.42 56.13 L 150.61 55.71 L 151.05 54.34 C 150.72 54.19 150.05 53.88 149.72 53.73 C 143.88 38.67 129.81 27.12 113.88 24.42 C 113.31 25.39 112.67 26.31 111.97 27.19 C 109.72 26.42 107.35 26.78 105.03 26.79 C 99.38 26.97 93.69 26.40 88.11 27.53 C 87.22 26.49 86.28 25.47 85.55 24.31 C 69.58 27.64 54.91 39.00 49.52 54.66 Z" />
</g>
<g id="#beb62eff">
<path fill="#beb62e" opacity="1.00" d=" M 49.52 54.66 C 54.91 39.00 69.58 27.64 85.55 24.31 C 86.28 25.47 87.22 26.49 88.11 27.53 C 91.61 30.64 96.59 30.43 100.97 30.42 C 104.86 30.50 108.97 29.85 111.97 27.19 C 112.67 26.31 113.31 25.39 113.88 24.42 C 129.81 27.12 143.88 38.67 149.72 53.73 C 150.05 53.88 150.72 54.19 151.05 54.34 L 150.61 55.71 C 149.50 55.82 148.40 55.93 147.30 56.06 L 149.05 54.48 C 138.97 44.62 125.02 39.43 110.99 39.44 C 97.06 39.57 82.61 38.02 69.22 42.78 C 62.24 45.16 56.09 49.45 50.78 54.49 C 50.46 54.53 49.83 54.62 49.52 54.66 M 86.81 38.24 C 88.74 39.16 90.93 38.68 92.98 38.82 C 99.65 39.06 106.34 39.01 113.01 38.67 C 111.54 37.71 109.71 37.94 108.03 37.86 C 100.96 37.82 93.86 37.56 86.81 38.24 Z" />
</g>
<g id="#2a3c85ff">
<path fill="#2a3c85" opacity="1.00" d=" M 88.11 27.53 C 93.69 26.40 99.38 26.97 105.03 26.79 C 107.35 26.78 109.72 26.42 111.97 27.19 C 108.97 29.85 104.86 30.50 100.97 30.42 C 96.59 30.43 91.61 30.64 88.11 27.53 Z" />
</g>
<g id="#bbb75bff">
<path fill="#bbb75b" opacity="1.00" d=" M 86.81 38.24 C 93.86 37.56 100.96 37.82 108.03 37.86 C 109.71 37.94 111.54 37.71 113.01 38.67 C 106.34 39.01 99.65 39.06 92.98 38.82 C 90.93 38.68 88.74 39.16 86.81 38.24 Z" />
</g>
<g id="#2c3b78ff">
<path fill="#2c3b78" opacity="1.00" d=" M 69.22 42.78 C 82.61 38.02 97.06 39.57 110.99 39.44 C 125.02 39.43 138.97 44.62 149.05 54.48 L 147.30 56.06 C 148.40 55.93 149.50 55.82 150.61 55.71 L 151.42 56.13 C 156.79 69.03 157.59 83.22 157.86 97.02 C 157.62 100.84 161.71 102.49 163.48 105.37 C 161.55 105.01 159.77 104.19 158.01 103.35 C 155.52 102.21 153.15 100.84 150.58 99.89 C 149.11 108.90 147.01 117.79 144.62 126.59 C 150.25 123.18 154.47 117.93 157.21 112.00 L 157.74 113.14 C 157.93 121.08 156.70 129.09 157.98 137.00 C 159.27 145.05 162.20 152.75 166.02 159.93 C 169.21 165.63 172.75 171.29 177.72 175.62 C 168.78 174.31 159.49 172.30 152.01 166.93 C 149.22 164.42 146.41 161.80 144.47 158.56 C 142.70 154.54 141.27 150.34 140.73 145.97 C 140.69 144.83 140.15 143.86 139.42 143.02 C 137.27 147.64 135.34 152.36 133.32 157.05 C 132.10 153.76 133.63 150.37 134.03 147.06 C 134.72 141.87 136.19 136.65 135.36 131.39 C 136.42 129.83 136.36 127.87 136.56 126.07 C 137.44 114.75 137.84 103.38 137.50 92.02 C 137.37 89.04 134.52 87.32 132.69 85.32 C 128.27 81.14 126.52 75.01 122.35 70.68 C 120.73 76.85 118.19 82.87 114.19 87.89 C 114.55 87.86 115.26 87.82 115.61 87.79 C 116.03 88.13 116.86 88.81 117.27 89.15 C 115.03 89.72 112.45 89.94 110.85 91.82 C 108.15 94.58 105.07 96.93 101.80 98.96 C 101.78 101.60 102.79 104.05 104.09 106.29 C 95.38 102.96 88.04 96.76 82.69 89.19 C 77.62 87.71 72.28 86.97 67.01 87.32 C 65.41 87.34 63.34 88.21 63.40 90.09 C 62.89 102.40 63.32 114.73 64.31 127.00 C 64.39 128.48 64.80 129.96 65.60 131.20 C 64.99 134.80 65.89 138.40 66.09 141.99 C 66.31 145.40 66.77 148.86 68.31 151.95 C 68.40 152.77 68.59 154.39 68.69 155.20 C 68.17 155.28 67.13 155.44 66.60 155.52 C 63.93 150.36 62.26 144.74 59.93 139.44 L 59.29 139.19 C 59.00 148.82 56.78 159.09 49.98 166.32 C 42.74 172.75 32.79 175.11 23.35 175.46 C 32.91 164.67 39.85 151.31 42.24 137.02 C 43.82 127.68 41.62 118.09 42.86 108.80 C 45.21 115.87 49.57 122.35 56.03 126.26 C 53.73 117.23 51.48 108.17 50.05 98.95 C 47.60 100.13 45.26 101.51 42.81 102.68 C 40.61 103.65 38.34 104.48 35.98 105.00 C 38.15 102.78 40.89 100.92 42.30 98.11 C 42.58 83.42 43.75 68.45 49.27 54.67 L 49.52 54.66 C 49.83 54.62 50.46 54.53 50.78 54.49 C 56.09 49.45 62.24 45.16 69.22 42.78 M 76.73 69.92 C 74.08 75.93 70.59 81.58 66.11 86.40 C 71.31 85.65 76.58 86.25 81.72 87.18 C 79.43 82.74 77.76 77.91 77.37 72.91 C 77.18 71.93 77.48 70.72 76.73 69.92 Z" />
</g>
<g id="#fbe0caff">
<path fill="#fbe0ca" opacity="1.00" d=" M 76.73 69.92 C 77.48 70.72 77.18 71.93 77.37 72.91 C 77.76 77.91 79.43 82.74 81.72 87.18 C 76.58 86.25 71.31 85.65 66.11 86.40 C 70.59 81.58 74.08 75.93 76.73 69.92 Z" />
</g>
<g id="#f9e1cbff">
<path fill="#f9e1cb" opacity="1.00" d=" M 122.35 70.68 C 126.52 75.01 128.27 81.14 132.69 85.32 C 134.52 87.32 137.37 89.04 137.50 92.02 C 137.84 103.38 137.44 114.75 136.56 126.07 C 136.36 127.87 136.42 129.83 135.36 131.39 C 129.71 137.73 123.53 143.72 116.40 148.39 C 108.51 153.77 97.88 154.26 89.13 150.82 C 79.88 146.24 72.45 138.77 65.60 131.20 C 64.80 129.96 64.39 128.48 64.31 127.00 C 63.32 114.73 62.89 102.40 63.40 90.09 C 63.34 88.21 65.41 87.34 67.01 87.32 C 72.28 86.97 77.62 87.71 82.69 89.19 C 88.04 96.76 95.38 102.96 104.09 106.29 C 102.79 104.05 101.78 101.60 101.80 98.96 C 105.07 96.93 108.15 94.58 110.85 91.82 C 112.45 89.94 115.03 89.72 117.27 89.15 C 122.56 88.09 128.08 87.33 133.40 88.55 C 133.24 88.06 132.90 87.08 132.74 86.60 C 127.07 87.03 121.22 86.30 115.61 87.79 C 115.26 87.82 114.55 87.86 114.19 87.89 C 118.19 82.87 120.73 76.85 122.35 70.68 Z" />
</g>
<g id="#574c56ff">
<path fill="#574c56" opacity="1.00" d=" M 115.61 87.79 C 121.22 86.30 127.07 87.03 132.74 86.60 C 132.90 87.08 133.24 88.06 133.40 88.55 C 128.08 87.33 122.56 88.09 117.27 89.15 C 116.86 88.81 116.03 88.13 115.61 87.79 Z" />
</g>
<g id="#e9c9adff">
<path fill="#e9c9ad" opacity="1.00" d=" M 42.81 102.68 C 45.26 101.51 47.60 100.13 50.05 98.95 C 51.48 108.17 53.73 117.23 56.03 126.26 C 49.57 122.35 45.21 115.87 42.86 108.80 C 42.57 106.77 42.80 104.72 42.81 102.68 Z" />
</g>
<g id="#ebc8adff">
<path fill="#ebc8ad" opacity="1.00" d=" M 150.58 99.89 C 153.15 100.84 155.52 102.21 158.01 103.35 C 158.37 106.24 158.04 109.22 157.21 112.00 C 154.47 117.93 150.25 123.18 144.62 126.59 C 147.01 117.79 149.11 108.90 150.58 99.89 Z" />
</g>
<g id="#1f2a5aff">
<path fill="#1f2a5a" opacity="1.00" d=" M 66.09 141.99 C 65.89 138.40 64.99 134.80 65.60 131.20 C 72.45 138.77 79.88 146.24 89.13 150.82 C 97.88 154.26 108.51 153.77 116.40 148.39 C 123.53 143.72 129.71 137.73 135.36 131.39 C 136.19 136.65 134.72 141.87 134.03 147.06 C 133.63 150.37 132.10 153.76 133.32 157.05 C 135.34 152.36 137.27 147.64 139.42 143.02 C 140.15 143.86 140.69 144.83 140.73 145.97 C 141.27 150.34 142.70 154.54 144.47 158.56 C 146.41 161.80 149.22 164.42 152.01 166.93 C 143.53 164.90 134.80 164.15 126.12 163.61 L 125.15 162.99 C 127.48 161.47 129.87 159.80 131.30 157.34 C 131.85 155.59 131.61 153.73 131.66 151.92 C 128.30 159.04 119.90 161.20 112.84 162.68 C 101.50 164.63 89.47 164.26 78.61 160.19 C 74.38 158.67 70.62 155.85 68.31 151.95 C 66.77 148.86 66.31 145.40 66.09 141.99 Z" />
</g>
<g id="#1f2a59ff">
<path fill="#1f2a59" opacity="1.00" d=" M 59.29 139.19 L 59.93 139.44 C 62.26 144.74 63.93 150.36 66.60 155.52 C 67.13 155.44 68.17 155.28 68.69 155.20 C 69.38 159.48 73.39 161.93 76.99 163.63 C 67.90 163.67 58.96 165.07 49.98 166.32 C 56.78 159.09 59.00 148.82 59.29 139.19 Z" />
</g>
<g id="#9a9a2aff">
<path fill="#9a9a2a" opacity="1.00" d=" M 68.31 151.95 C 70.62 155.85 74.38 158.67 78.61 160.19 C 89.47 164.26 101.50 164.63 112.84 162.68 C 119.90 161.20 128.30 159.04 131.66 151.92 C 131.61 153.73 131.85 155.59 131.30 157.34 C 129.87 159.80 127.48 161.47 125.15 162.99 C 114.21 168.04 101.70 168.74 89.90 167.19 C 85.47 166.56 81.07 165.51 76.99 163.63 C 73.39 161.93 69.38 159.48 68.69 155.20 C 68.59 154.39 68.40 152.77 68.31 151.95 Z" />
</g>
</svg>
