<?xml version="1.0" encoding="UTF-8" ?>
<!DOCTYPE svg PUBLIC "-//W3C//DTD SVG 1.1//EN" "http://www.w3.org/Graphics/SVG/1.1/DTD/svg11.dtd">
<svg width="200pt" height="200pt" viewBox="0 0 200 200" version="1.1" xmlns="http://www.w3.org/2000/svg">
<g id="#000100ff">
<path fill="#000100" opacity="1.00" d=" M 79.73 25.73 C 91.16 21.34 104.02 20.79 115.77 24.23 C 132.22 28.92 146.09 41.25 153.35 56.65 C 159.61 69.69 161.04 85.73 154.25 98.85 C 158.83 102.35 160.65 108.41 159.88 113.98 C 158.35 126.58 149.11 137.47 137.51 142.22 C 134.87 153.30 129.68 164.30 120.88 171.80 C 107.56 182.92 85.56 181.05 74.55 167.54 C 68.26 160.25 64.27 151.22 62.02 141.92 C 50.59 137.28 41.70 126.36 40.13 114.05 C 39.34 108.46 41.15 102.36 45.75 98.85 C 41.22 90.02 40.24 79.64 42.22 69.98 C 46.19 50.18 60.85 32.89 79.73 25.73 M 78.06 31.09 C 60.67 39.23 47.75 56.76 46.00 75.99 C 45.44 83.37 46.69 91.07 50.35 97.57 C 51.31 99.53 53.86 99.53 55.58 100.49 L 55.62 100.74 C 51.62 100.72 47.07 102.06 45.42 106.11 C 42.52 113.21 45.67 121.18 49.79 127.13 C 53.76 132.36 59.14 137.42 65.83 138.52 C 67.32 142.67 67.88 147.14 69.84 151.14 C 73.51 159.44 78.83 167.72 87.24 171.83 C 98.01 177.03 112.13 175.27 120.65 166.62 C 128.07 158.97 132.39 148.76 134.39 138.40 C 140.07 137.42 144.82 133.59 148.62 129.44 C 153.24 124.10 156.58 117.14 156.10 109.94 C 155.88 105.94 153.21 101.58 148.97 101.04 C 148.59 100.67 147.82 99.92 147.44 99.54 C 148.03 99.32 149.21 98.88 149.80 98.65 C 153.51 92.49 155.17 85.21 154.90 78.04 C 153.76 53.01 133.23 30.38 108.45 26.73 C 98.19 25.19 87.44 26.60 78.06 31.09 Z" />
</g>
<g id="#429839ff">
<path fill="#429839" opacity="1.00" d=" M 78.06 31.09 C 87.44 26.60 98.19 25.19 108.45 26.73 C 133.23 30.38 153.76 53.01 154.90 78.04 C 155.17 85.21 153.51 92.49 149.80 98.65 C 149.21 98.88 148.03 99.32 147.44 99.54 C 146.68 99.80 145.91 100.05 145.15 100.28 C 144.17 99.56 143.20 98.85 142.22 98.14 C 140.53 99.74 138.74 101.27 136.60 102.22 C 128.85 102.18 122.62 96.97 115.65 94.34 C 109.17 91.76 101.94 90.11 95.00 91.51 C 86.19 92.36 78.72 97.49 70.77 100.88 C 68.61 101.92 66.18 102.01 63.84 102.20 C 61.60 101.50 59.90 99.86 58.27 98.25 C 57.37 99.00 56.48 99.74 55.58 100.49 C 53.86 99.53 51.31 99.53 50.35 97.57 C 46.69 91.07 45.44 83.37 46.00 75.99 C 47.75 56.76 60.67 39.23 78.06 31.09 M 94.18 38.28 C 84.07 41.92 76.04 52.95 77.90 63.95 C 78.34 66.95 79.95 70.04 82.88 71.27 C 94.25 71.42 105.63 71.34 117.01 71.30 C 121.05 70.93 122.36 66.43 123.13 63.10 C 124.23 54.05 118.57 45.61 111.43 40.59 C 106.46 37.10 99.90 37.01 94.18 38.28 Z" />
</g>
<g id="#ffffffff">
<path fill="#ffffff" opacity="1.00" d=" M 94.18 38.28 C 99.90 37.01 106.46 37.10 111.43 40.59 C 118.57 45.61 124.23 54.05 123.13 63.10 C 122.36 66.43 121.05 70.93 117.01 71.30 C 105.63 71.34 94.25 71.42 82.88 71.27 C 79.95 70.04 78.34 66.95 77.90 63.95 C 76.04 52.95 84.07 41.92 94.18 38.28 M 90.53 43.72 C 90.96 51.22 91.72 58.71 92.21 66.22 C 99.77 66.26 107.32 66.23 114.88 66.24 C 114.66 64.10 114.36 61.97 114.04 59.84 C 109.43 59.89 104.87 60.83 100.26 60.96 C 100.35 55.02 100.55 49.08 100.72 43.15 C 97.31 43.06 93.93 43.54 90.53 43.72 Z" />
</g>
<g id="#429837ff">
<path fill="#429837" opacity="1.00" d=" M 90.53 43.72 C 93.93 43.54 97.31 43.06 100.72 43.15 C 100.55 49.08 100.35 55.02 100.26 60.96 C 104.87 60.83 109.43 59.89 114.04 59.84 C 114.36 61.97 114.66 64.10 114.88 66.24 C 107.32 66.23 99.77 66.26 92.21 66.22 C 91.72 58.71 90.96 51.22 90.53 43.72 Z" />
</g>
<g id="#ffd9adff">
<path fill="#ffd9ad" opacity="1.00" d=" M 70.77 100.88 C 78.72 97.49 86.19 92.36 95.00 91.51 C 101.94 90.11 109.17 91.76 115.65 94.34 C 122.62 96.97 128.85 102.18 136.60 102.22 C 135.43 111.80 133.75 121.31 131.76 130.74 C 133.05 131.77 134.33 132.80 135.65 133.79 C 135.14 135.30 134.68 136.83 134.39 138.40 C 132.39 148.76 128.07 158.97 120.65 166.62 C 112.13 175.27 98.01 177.03 87.24 171.83 C 78.83 167.72 73.51 159.44 69.84 151.14 C 67.88 147.14 67.32 142.67 65.83 138.52 C 65.69 137.53 65.55 136.54 65.41 135.56 C 65.12 135.33 64.54 134.88 64.25 134.66 C 65.75 133.40 67.25 132.13 68.74 130.87 C 66.59 121.41 65.02 111.82 63.84 102.20 C 66.18 102.01 68.61 101.92 70.77 100.88 M 81.23 126.21 C 78.85 130.40 80.84 135.22 81.34 139.62 C 76.82 138.72 72.48 137.11 68.39 135.02 C 67.78 140.82 68.76 147.00 72.21 151.82 C 75.60 156.91 81.74 160.43 87.96 159.56 C 92.76 158.99 96.83 155.87 99.75 152.16 C 102.61 155.69 106.43 158.77 111.03 159.50 C 116.81 160.52 122.71 157.66 126.29 153.18 C 130.43 148.16 131.89 141.38 131.08 135.01 C 127.18 137.02 123.06 138.61 118.75 139.45 C 120.57 136.15 120.82 132.15 120.49 128.46 C 119.26 121.82 113.01 117.80 107.05 115.81 C 97.55 112.75 85.23 116.52 81.23 126.21 Z" />
<path fill="#ffd9ad" opacity="1.00" d=" M 95.27 116.46 C 101.30 115.29 107.90 116.35 112.84 120.15 C 115.84 122.89 118.24 126.84 117.83 131.05 C 117.85 135.10 115.24 138.71 112.19 141.15 C 106.58 145.12 99.09 145.55 92.72 143.28 C 87.76 141.17 82.87 136.93 82.96 131.10 C 82.12 123.72 88.96 118.44 95.27 116.46 Z" />
</g>
<g id="#603819ff">
<path fill="#603819" opacity="1.00" d=" M 58.27 98.25 C 59.90 99.86 61.60 101.50 63.84 102.20 C 65.02 111.82 66.59 121.41 68.74 130.87 C 67.25 132.13 65.75 133.40 64.25 134.66 C 64.07 134.51 63.72 134.22 63.54 134.07 C 60.15 123.16 57.66 111.98 55.62 100.74 L 55.58 100.49 C 56.48 99.74 57.37 99.00 58.27 98.25 Z" />
</g>
<g id="#5e381aff">
<path fill="#5e381a" opacity="1.00" d=" M 142.22 98.14 C 143.20 98.85 144.17 99.56 145.15 100.28 C 145.91 100.05 146.68 99.80 147.44 99.54 C 147.82 99.92 148.59 100.67 148.97 101.04 C 147.61 100.97 146.25 100.92 144.89 100.89 C 143.35 112.36 140.03 123.48 136.76 134.54 C 136.48 134.35 135.92 133.98 135.65 133.79 C 134.33 132.80 133.05 131.77 131.76 130.74 C 133.75 121.31 135.43 111.80 136.60 102.22 C 138.74 101.27 140.53 99.74 142.22 98.14 Z" />
</g>
<g id="#face9bff">
<path fill="#face9b" opacity="1.00" d=" M 45.42 106.11 C 47.07 102.06 51.62 100.72 55.62 100.74 C 57.66 111.98 60.15 123.16 63.54 134.07 C 63.72 134.22 64.07 134.51 64.25 134.66 C 64.54 134.88 65.12 135.33 65.41 135.56 C 65.55 136.54 65.69 137.53 65.83 138.52 C 59.14 137.42 53.76 132.36 49.79 127.13 C 45.67 121.18 42.52 113.21 45.42 106.11 Z" />
</g>
<g id="#facd9dff">
<path fill="#facd9d" opacity="1.00" d=" M 144.89 100.89 C 146.25 100.92 147.61 100.97 148.97 101.04 C 153.21 101.58 155.88 105.94 156.10 109.94 C 156.58 117.14 153.24 124.10 148.62 129.44 C 144.82 133.59 140.07 137.42 134.39 138.40 C 134.68 136.83 135.14 135.30 135.65 133.79 C 135.92 133.98 136.48 134.35 136.76 134.54 C 140.03 123.48 143.35 112.36 144.89 100.89 Z" />
</g>
<g id="#ecc294ff">
<path fill="#ecc294" opacity="1.00" d=" M 81.23 126.21 C 85.23 116.52 97.55 112.75 107.05 115.81 C 113.01 117.80 119.26 121.82 120.49 128.46 C 120.82 132.15 120.57 136.15 118.75 139.45 C 111.46 148.94 96.68 151.10 87.01 144.08 C 84.92 142.83 83.77 140.28 81.34 139.62 C 80.84 135.22 78.85 130.40 81.23 126.21 M 95.27 116.46 C 88.96 118.44 82.12 123.72 82.96 131.10 C 82.87 136.93 87.76 141.17 92.72 143.28 C 99.09 145.55 106.58 145.12 112.19 141.15 C 115.24 138.71 117.85 135.10 117.83 131.05 C 118.24 126.84 115.84 122.89 112.84 120.15 C 107.90 116.35 101.30 115.29 95.27 116.46 Z" />
</g>
<g id="#3b2c28ff">
<path fill="#3b2c28" opacity="1.00" d=" M 118.75 139.45 C 123.06 138.61 127.18 137.02 131.08 135.01 C 131.89 141.38 130.43 148.16 126.29 153.18 C 122.71 157.66 116.81 160.52 111.03 159.50 C 106.43 158.77 102.61 155.69 99.75 152.16 C 96.83 155.87 92.76 158.99 87.96 159.56 C 81.74 160.43 75.60 156.91 72.21 151.82 C 68.76 147.00 67.78 140.82 68.39 135.02 C 72.48 137.11 76.82 138.72 81.34 139.62 C 83.77 140.28 84.92 142.83 87.01 144.08 C 96.68 151.10 111.46 148.94 118.75 139.45 Z" />
</g>
</svg>
