<?xml version="1.0" encoding="UTF-8" ?>
<!DOCTYPE svg PUBLIC "-//W3C//DTD SVG 1.1//EN" "http://www.w3.org/Graphics/SVG/1.1/DTD/svg11.dtd">
<svg width="200pt" height="200pt" viewBox="0 0 200 200" version="1.1" xmlns="http://www.w3.org/2000/svg">
<g id="#000000ff">
<path fill="#000000" opacity="1.00" d=" M 89.47 26.72 C 103.58 24.72 118.28 26.79 131.20 32.85 C 146.69 40.01 159.53 52.72 166.84 68.15 C 174.26 83.56 175.97 101.58 171.78 118.15 C 167.78 134.24 158.10 148.83 144.91 158.86 C 123.06 175.93 91.40 178.84 66.76 166.16 C 51.95 158.76 39.79 146.22 32.85 131.19 C 24.81 114.05 23.80 93.79 29.98 75.91 C 38.59 50.11 62.49 30.29 89.47 26.72 M 90.56 30.80 C 70.30 33.43 51.61 45.62 40.86 62.98 C 30.19 79.82 27.43 101.35 33.30 120.39 C 37.77 135.13 47.32 148.25 59.94 157.09 C 82.58 173.48 115.21 173.99 138.37 158.37 C 152.01 149.48 162.34 135.67 166.97 120.07 C 171.83 103.88 170.62 85.92 163.45 70.60 C 157.00 56.63 145.78 44.93 132.09 37.90 C 119.42 31.31 104.70 28.85 90.56 30.80 Z" />
<path fill="#000000" opacity="1.00" d=" M 43.99 76.47 C 51.82 82.53 61.08 86.39 70.25 89.98 L 70.03 90.97 C 68.47 98.27 68.66 106.18 71.55 113.13 C 72.73 115.72 74.74 118.97 78.01 118.70 C 80.77 118.36 82.41 115.71 83.54 113.44 C 86.03 107.94 86.28 101.75 86.05 95.81 C 90.75 96.89 95.27 98.73 100.05 99.44 C 104.35 99.21 108.32 97.28 112.54 96.56 L 112.62 95.57 C 112.97 95.67 113.68 95.87 114.04 95.97 C 114.40 96.20 115.13 96.67 115.49 96.90 C 115.03 102.88 115.68 109.14 118.46 114.53 C 119.70 116.78 121.98 119.36 124.85 118.61 C 127.69 117.75 129.18 114.82 130.27 112.27 C 132.85 105.25 132.90 97.47 131.27 90.22 L 131.18 89.77 C 140.06 86.15 149.06 82.40 156.73 76.54 C 154.03 85.51 152.27 94.73 150.45 103.91 C 149.95 107.92 145.73 109.57 142.98 111.90 C 129.33 121.01 115.10 129.32 100.31 136.43 C 85.23 128.59 70.24 120.46 56.26 110.76 C 54.01 108.91 50.80 107.40 50.38 104.19 C 48.30 94.94 46.18 85.70 43.99 76.47 Z" />
</g>
<g id="#cbcbcbff">
<path fill="#cbcbcb" opacity="1.00" d=" M 90.56 30.80 C 104.70 28.85 119.42 31.31 132.09 37.90 C 145.78 44.93 157.00 56.63 163.45 70.60 C 170.62 85.92 171.83 103.88 166.97 120.07 C 162.34 135.67 152.01 149.48 138.37 158.37 C 115.21 173.99 82.58 173.48 59.94 157.09 C 47.32 148.25 37.77 135.13 33.30 120.39 C 27.43 101.35 30.19 79.82 40.86 62.98 C 51.61 45.62 70.30 33.43 90.56 30.80 M 43.99 76.47 C 46.18 85.70 48.30 94.94 50.38 104.19 C 50.80 107.40 54.01 108.91 56.26 110.76 C 70.24 120.46 85.23 128.59 100.31 136.43 C 115.10 129.32 129.33 121.01 142.98 111.90 C 145.73 109.57 149.95 107.92 150.45 103.91 C 152.27 94.73 154.03 85.51 156.73 76.54 C 149.06 82.40 140.06 86.15 131.18 89.77 L 131.27 90.22 C 128.50 91.28 125.36 91.52 122.90 93.28 C 120.03 94.33 116.46 93.99 114.04 95.97 C 113.68 95.87 112.97 95.67 112.62 95.57 L 112.54 96.56 C 108.32 97.28 104.35 99.21 100.05 99.44 C 95.27 98.73 90.75 96.89 86.05 95.81 C 82.96 95.20 80.24 93.33 76.99 93.38 C 77.64 93.12 78.29 92.86 78.95 92.59 C 75.99 92.38 72.90 92.08 70.69 89.86 L 70.03 90.97 L 70.25 89.98 C 61.08 86.39 51.82 82.53 43.99 76.47 Z" />
</g>
<g id="#faff01ff">
<path fill="#faff01" opacity="1.00" d=" M 70.03 90.97 L 70.69 89.86 C 72.90 92.08 75.99 92.38 78.95 92.59 C 78.29 92.86 77.64 93.12 76.99 93.38 C 80.24 93.33 82.96 95.20 86.05 95.81 C 86.28 101.75 86.03 107.94 83.54 113.44 C 82.41 115.71 80.77 118.36 78.01 118.70 C 74.74 118.97 72.73 115.72 71.55 113.13 C 68.66 106.18 68.47 98.27 70.03 90.97 Z" />
<path fill="#faff01" opacity="1.00" d=" M 122.90 93.28 C 125.36 91.52 128.50 91.28 131.27 90.22 C 132.90 97.47 132.85 105.25 130.27 112.27 C 129.18 114.82 127.69 117.75 124.85 118.61 C 121.98 119.36 119.70 116.78 118.46 114.53 C 115.68 109.14 115.03 102.88 115.49 96.90 C 115.13 96.67 114.40 96.20 114.04 95.97 C 116.46 93.99 120.03 94.33 122.90 93.28 Z" />
</g>
</svg>
