<?xml version="1.0" encoding="UTF-8" ?>
<!DOCTYPE svg PUBLIC "-//W3C//DTD SVG 1.1//EN" "http://www.w3.org/Graphics/SVG/1.1/DTD/svg11.dtd">
<svg width="200pt" height="200pt" viewBox="0 0 200 200" version="1.1" xmlns="http://www.w3.org/2000/svg">
<g id="#000000ff">
<path fill="#000000" opacity="1.00" d=" M 112.86 22.92 C 114.81 19.35 119.39 19.31 122.94 19.01 C 128.43 18.52 134.08 21.45 136.70 26.33 C 141.34 35.11 141.05 45.45 144.41 54.63 C 146.10 59.65 151.20 61.80 154.56 65.45 C 161.93 73.12 167.48 82.32 172.39 91.69 C 175.17 97.84 179.15 104.11 178.86 111.07 C 175.17 122.47 171.52 134.05 170.32 146.02 C 170.80 153.74 177.41 160.01 176.96 167.92 C 173.42 174.32 166.14 177.96 159.10 179.12 C 156.50 179.97 154.00 181.62 151.13 180.84 C 131.10 177.86 111.13 174.49 91.23 170.73 C 85.57 169.91 80.11 167.86 75.56 164.34 C 65.26 156.55 56.50 146.21 51.99 134.00 C 49.29 126.97 49.75 119.35 49.52 111.97 C 49.28 102.15 50.03 92.18 53.24 82.83 C 50.00 73.75 45.36 64.39 36.94 59.08 C 32.32 55.97 25.63 55.73 22.73 50.39 C 20.37 46.91 24.03 43.39 27.03 42.00 C 35.27 38.22 44.71 38.70 53.50 39.71 C 58.50 40.57 64.11 41.43 67.72 45.36 C 71.76 49.55 76.57 52.89 81.28 56.27 C 90.92 53.64 100.62 51.16 110.55 49.94 C 112.12 44.10 113.24 38.08 113.16 32.00 C 113.21 28.98 111.16 25.79 112.86 22.92 M 116.11 25.08 C 118.24 34.63 116.32 44.56 113.35 53.73 L 114.15 53.69 C 102.64 54.53 91.42 57.51 80.38 60.71 C 74.69 56.97 69.13 52.93 64.35 48.07 C 63.34 46.87 62.05 45.95 60.55 45.47 C 53.33 42.87 45.52 42.57 37.93 43.12 C 33.57 43.59 28.87 44.51 25.72 47.83 C 28.41 51.83 33.55 52.18 37.41 54.50 C 47.25 59.87 52.98 70.25 56.65 80.46 C 57.43 82.13 56.99 83.94 56.44 85.60 C 53.70 94.13 53.33 103.19 53.45 112.08 C 53.68 119.40 53.21 127.02 56.23 133.88 C 61.03 145.35 69.54 155.15 79.78 162.13 C 85.09 165.91 91.79 166.24 97.95 167.61 C 116.25 170.77 134.53 174.27 152.96 176.56 C 158.01 174.10 164.14 174.39 168.56 170.55 C 170.17 169.00 173.44 167.44 172.27 164.76 C 170.76 159.56 167.88 154.89 166.25 149.73 C 165.33 146.84 165.95 143.78 166.35 140.86 C 168.02 130.94 170.61 121.17 173.96 111.69 C 175.09 109.19 173.90 106.52 173.12 104.11 C 170.46 97.07 166.91 90.39 163.02 83.96 C 158.36 76.52 153.29 69.04 146.11 63.79 C 141.11 60.11 138.86 53.90 137.95 47.97 C 136.46 41.11 135.85 33.78 132.29 27.59 C 130.16 23.84 125.68 22.79 121.67 22.86 C 119.83 23.48 117.19 23.14 116.11 25.08 Z" />
</g>
<g id="#cfa7ccff">
<path fill="#cfa7cc" opacity="1.00" d=" M 116.11 25.08 C 117.19 23.14 119.83 23.48 121.67 22.86 C 123.91 24.85 127.20 26.51 127.32 29.90 C 128.16 38.44 128.47 47.11 131.16 55.35 C 125.60 53.98 119.87 53.26 114.15 53.69 L 113.35 53.73 C 116.32 44.56 118.24 34.63 116.11 25.08 Z" />
</g>
<g id="#e7d4e8ff">
<path fill="#e7d4e8" opacity="1.00" d=" M 121.67 22.86 C 125.68 22.79 130.16 23.84 132.29 27.59 C 135.85 33.78 136.46 41.11 137.95 47.97 C 138.86 53.90 141.11 60.11 146.11 63.79 C 153.29 69.04 158.36 76.52 163.02 83.96 C 166.91 90.39 170.46 97.07 173.12 104.11 C 173.90 106.52 175.09 109.19 173.96 111.69 C 170.61 121.17 168.02 130.94 166.35 140.86 C 165.95 143.78 165.33 146.84 166.25 149.73 C 167.88 154.89 170.76 159.56 172.27 164.76 C 173.44 167.44 170.17 169.00 168.56 170.55 C 164.14 174.39 158.01 174.10 152.96 176.56 C 134.53 174.27 116.25 170.77 97.95 167.61 C 91.79 166.24 85.09 165.91 79.78 162.13 C 69.54 155.15 61.03 145.35 56.23 133.88 C 53.21 127.02 53.68 119.40 53.45 112.08 C 53.33 103.19 53.70 94.13 56.44 85.60 C 56.99 83.94 57.43 82.13 56.65 80.46 C 52.98 70.25 47.25 59.87 37.41 54.50 C 33.55 52.18 28.41 51.83 25.72 47.83 C 34.70 49.55 43.88 49.66 52.99 49.67 C 56.84 49.71 60.63 48.99 64.35 48.07 C 69.13 52.93 74.69 56.97 80.38 60.71 C 91.42 57.51 102.64 54.53 114.15 53.69 C 119.87 53.26 125.60 53.98 131.16 55.35 C 128.47 47.11 128.16 38.44 127.32 29.90 C 127.20 26.51 123.91 24.85 121.67 22.86 Z" />
</g>
<g id="#d0a6cdff">
<path fill="#d0a6cd" opacity="1.00" d=" M 25.72 47.83 C 28.87 44.51 33.57 43.59 37.93 43.12 C 45.52 42.57 53.33 42.87 60.55 45.47 C 62.05 45.95 63.34 46.87 64.35 48.07 C 60.63 48.99 56.84 49.71 52.99 49.67 C 43.88 49.66 34.70 49.55 25.72 47.83 Z" />
</g>
</svg>
