<?xml version="1.0" encoding="UTF-8" ?>
<!DOCTYPE svg PUBLIC "-//W3C//DTD SVG 1.1//EN" "http://www.w3.org/Graphics/SVG/1.1/DTD/svg11.dtd">
<svg width="200pt" height="200pt" viewBox="0 0 200 200" version="1.1" xmlns="http://www.w3.org/2000/svg">
<g id="#000100ff">
<path fill="#000100" opacity="1.00" d=" M 60.29 34.27 C 70.76 24.72 84.71 18.94 98.94 18.99 C 113.08 18.68 127.09 24.08 137.69 33.37 C 149.50 43.62 157.66 57.55 162.75 72.22 C 164.17 76.71 165.77 81.24 165.86 86.01 C 166.18 94.31 166.62 102.61 166.98 110.92 C 167.23 114.04 165.72 116.88 164.88 119.80 C 162.31 127.32 160.19 135.01 157.36 142.43 C 155.42 145.81 150.88 144.80 148.58 142.39 C 145.83 147.46 143.93 152.95 141.15 157.99 C 136.36 162.95 131.11 167.47 126.13 172.26 C 124.27 174.46 120.54 174.67 118.70 172.33 C 117.47 170.40 116.64 168.25 115.54 166.25 C 111.93 168.23 108.07 169.69 104.10 170.78 C 102.15 171.25 100.14 172.26 98.11 171.60 C 93.06 170.29 88.05 168.71 83.48 166.15 C 81.81 168.78 81.31 172.81 77.94 173.86 C 75.13 174.77 73.00 172.44 71.18 170.71 C 66.81 166.41 62.08 162.46 57.86 158.00 C 55.14 152.95 53.06 147.57 50.55 142.41 C 48.04 144.99 42.84 145.79 41.33 141.76 C 38.17 132.52 35.22 123.19 32.24 113.89 C 31.71 107.97 32.65 101.99 32.70 96.04 C 33.19 90.04 32.61 83.86 34.47 78.05 C 39.08 61.59 47.55 45.85 60.29 34.27 M 68.02 34.05 C 54.03 44.53 44.83 60.36 39.71 76.86 C 37.16 83.94 37.92 91.57 37.35 98.95 C 37.30 104.58 35.63 110.47 37.80 115.91 C 40.52 123.89 42.91 131.98 45.69 139.94 C 47.91 138.38 50.14 136.84 52.40 135.33 C 55.50 141.44 58.13 147.78 61.05 153.98 C 62.07 156.15 64.09 157.54 65.78 159.15 C 69.51 162.43 72.93 166.06 76.76 169.23 C 78.31 165.94 79.86 162.66 81.31 159.33 C 86.69 162.91 92.75 165.59 99.13 166.76 C 105.82 166.05 112.13 163.05 117.75 159.45 C 119.13 162.74 120.69 165.95 122.29 169.14 C 127.46 164.72 132.45 160.02 137.20 155.16 C 140.69 148.72 143.25 141.79 146.61 135.27 C 148.85 136.85 151.10 138.40 153.36 139.94 C 156.12 131.64 158.74 123.29 161.52 114.99 C 162.77 111.44 162.01 107.64 161.90 103.98 C 161.41 96.97 161.65 89.90 160.88 82.92 C 158.05 70.65 152.79 58.90 145.39 48.70 C 137.83 38.38 127.44 29.72 115.05 26.01 C 99.26 21.11 81.27 24.14 68.02 34.05 Z" />
</g>
<g id="#7c4505ff">
<path fill="#7c4505" opacity="1.00" d=" M 68.02 34.05 C 81.27 24.14 99.26 21.11 115.05 26.01 C 127.44 29.72 137.83 38.38 145.39 48.70 C 152.79 58.90 158.05 70.65 160.88 82.92 C 161.65 89.90 161.41 96.97 161.90 103.98 C 162.01 107.64 162.77 111.44 161.52 114.99 C 158.74 123.29 156.12 131.64 153.36 139.94 C 151.10 138.40 148.85 136.85 146.61 135.27 C 143.25 141.79 140.69 148.72 137.20 155.16 C 132.45 160.02 127.46 164.72 122.29 169.14 C 120.69 165.95 119.13 162.74 117.75 159.45 C 133.27 148.83 143.14 131.66 148.58 114.00 C 145.83 112.78 143.08 111.55 140.33 110.33 C 140.83 103.29 140.05 96.25 138.96 89.30 C 136.63 89.07 134.26 88.86 131.95 89.42 C 124.59 90.94 117.25 92.58 109.88 94.09 C 109.25 91.52 108.61 88.95 107.97 86.38 C 116.77 84.84 125.57 83.30 134.36 81.73 C 135.56 82.52 136.77 83.31 137.97 84.10 C 135.72 74.24 132.87 64.11 126.43 56.09 C 119.30 69.86 107.09 80.65 93.04 87.03 C 90.24 88.09 90.73 91.73 89.82 94.08 C 81.64 92.46 73.52 90.54 65.32 88.98 C 62.07 91.89 58.88 94.87 55.75 97.91 C 55.93 102.65 56.52 107.37 57.49 112.01 C 55.25 112.80 53.00 113.56 50.73 114.27 C 56.15 131.78 65.97 148.77 81.31 159.33 C 79.86 162.66 78.31 165.94 76.76 169.23 C 72.93 166.06 69.51 162.43 65.78 159.15 C 64.09 157.54 62.07 156.15 61.05 153.98 C 58.13 147.78 55.50 141.44 52.40 135.33 C 50.14 136.84 47.91 138.38 45.69 139.94 C 42.91 131.98 40.52 123.89 37.80 115.91 C 35.63 110.47 37.30 104.58 37.35 98.95 C 37.92 91.57 37.16 83.94 39.71 76.86 C 44.83 60.36 54.03 44.53 68.02 34.05 M 72.20 82.99 C 75.53 83.52 78.85 84.12 82.18 84.66 C 83.65 80.10 85.36 75.61 87.10 71.14 C 81.93 74.84 77.07 78.93 72.20 82.99 Z" />
</g>
<g id="#ffe8c5ff">
<path fill="#ffe8c5" opacity="1.00" d=" M 126.43 56.09 C 132.87 64.11 135.72 74.24 137.97 84.10 C 136.77 83.31 135.56 82.52 134.36 81.73 C 125.57 83.30 116.77 84.84 107.97 86.38 C 108.61 88.95 109.25 91.52 109.88 94.09 C 117.25 92.58 124.59 90.94 131.95 89.42 C 134.26 88.86 136.63 89.07 138.96 89.30 C 140.05 96.25 140.83 103.29 140.33 110.33 C 143.08 111.55 145.83 112.78 148.58 114.00 C 143.14 131.66 133.27 148.83 117.75 159.45 C 112.13 163.05 105.82 166.05 99.13 166.76 C 92.75 165.59 86.69 162.91 81.31 159.33 C 65.97 148.77 56.15 131.78 50.73 114.27 C 53.00 113.56 55.25 112.80 57.49 112.01 C 56.52 107.37 55.93 102.65 55.75 97.91 C 58.88 94.87 62.07 91.89 65.32 88.98 C 73.52 90.54 81.64 92.46 89.82 94.08 C 90.73 91.73 90.24 88.09 93.04 87.03 C 107.09 80.65 119.30 69.86 126.43 56.09 Z" />
</g>
<g id="#ffe7c9ff">
<path fill="#ffe7c9" opacity="1.00" d=" M 72.20 82.99 C 77.07 78.93 81.93 74.84 87.10 71.14 C 85.36 75.61 83.65 80.10 82.18 84.66 C 78.85 84.12 75.53 83.52 72.20 82.99 Z" />
</g>
</svg>
