<?xml version="1.0" encoding="UTF-8" ?>
<!DOCTYPE svg PUBLIC "-//W3C//DTD SVG 1.1//EN" "http://www.w3.org/Graphics/SVG/1.1/DTD/svg11.dtd">
<svg width="200pt" height="200pt" viewBox="0 0 200 200" version="1.1" xmlns="http://www.w3.org/2000/svg">
<g id="#abababff">
<path fill="#ababab" opacity="1.00" d=" M 72.81 45.51 C 88.88 34.00 110.11 30.04 129.26 34.84 C 144.42 38.11 158.16 47.24 167.49 59.55 C 183.96 80.63 185.52 111.81 171.52 134.55 C 165.26 145.01 156.00 153.51 145.30 159.30 C 125.21 169.83 99.99 169.75 80.00 159.01 C 71.13 153.98 62.94 147.39 57.23 138.85 C 49.66 128.99 46.06 116.70 44.75 104.49 C 33.12 98.97 22.69 88.95 20.00 75.97 C 17.83 67.85 19.01 58.66 23.67 51.60 C 28.31 45.63 34.65 40.54 42.17 38.92 C 52.64 35.85 64.17 39.26 72.81 45.51 M 99.91 43.08 C 89.91 45.24 80.63 50.18 72.94 56.89 C 67.03 51.78 60.00 47.29 52.01 46.75 C 43.32 45.94 34.64 50.83 30.18 58.20 C 26.52 65.18 27.45 73.96 31.20 80.72 C 35.90 89.36 44.43 95.25 53.57 98.42 C 53.42 109.93 56.46 121.53 62.80 131.19 C 72.01 145.65 87.84 155.64 104.85 157.79 C 114.32 158.48 124.10 158.36 133.08 154.87 C 155.45 147.22 172.36 124.87 172.03 101.00 C 172.59 88.27 168.30 75.53 160.66 65.39 C 150.88 52.29 135.46 43.49 119.15 42.05 C 112.74 41.96 106.20 41.53 99.91 43.08 Z" />
</g>
<g id="#000000ff">
<path fill="#000000" opacity="1.00" d=" M 99.91 43.08 C 106.20 41.53 112.74 41.96 119.15 42.05 C 135.46 43.49 150.88 52.29 160.66 65.39 C 168.30 75.53 172.59 88.27 172.03 101.00 C 172.36 124.87 155.45 147.22 133.08 154.87 C 124.10 158.36 114.32 158.48 104.85 157.79 C 87.84 155.64 72.01 145.65 62.80 131.19 C 56.46 121.53 53.42 109.93 53.57 98.42 C 44.43 95.25 35.90 89.36 31.20 80.72 C 27.45 73.96 26.52 65.18 30.18 58.20 C 34.64 50.83 43.32 45.94 52.01 46.75 C 60.00 47.29 67.03 51.78 72.94 56.89 C 80.63 50.18 89.91 45.24 99.91 43.08 Z" />
</g>
</svg>
