<?xml version="1.0" encoding="UTF-8" ?>
<!DOCTYPE svg PUBLIC "-//W3C//DTD SVG 1.1//EN" "http://www.w3.org/Graphics/SVG/1.1/DTD/svg11.dtd">
<svg width="200pt" height="200pt" viewBox="0 0 200 200" version="1.1" xmlns="http://www.w3.org/2000/svg">
<g id="#000000ff">
<path fill="#000000" opacity="1.00" d=" M 135.12 23.18 C 143.04 20.32 152.49 22.66 158.13 28.92 C 164.63 35.74 165.78 46.89 160.85 54.92 C 156.20 63.03 145.94 67.29 136.90 64.84 C 129.69 63.13 124.05 57.36 121.49 50.53 C 115.77 52.63 111.56 57.49 109.48 63.12 C 127.65 64.84 145.83 71.14 159.68 83.32 C 169.71 92.08 177.11 104.47 177.92 117.96 C 178.85 130.36 174.03 142.70 166.02 152.04 C 155.18 164.75 139.60 172.68 123.51 176.43 C 102.08 181.30 78.91 179.42 58.95 170.00 C 46.26 163.97 34.72 154.56 28.18 141.93 C 22.73 131.57 21.44 119.07 24.93 107.88 C 28.47 96.23 36.58 86.39 46.34 79.31 C 59.51 69.69 75.58 64.62 91.72 63.14 C 94.23 47.47 107.44 33.86 123.53 32.53 C 126.36 28.36 130.25 24.76 135.12 23.18 M 136.81 26.72 C 132.32 28.81 128.17 32.02 126.13 36.67 C 109.83 36.65 96.35 51.33 95.48 67.18 C 80.08 67.91 64.69 72.30 51.71 80.74 C 42.59 86.74 34.64 94.98 30.41 105.17 C 25.88 115.78 26.22 128.30 31.29 138.66 C 36.68 149.99 46.52 158.66 57.45 164.51 C 75.88 174.30 97.71 176.86 118.15 173.25 C 134.65 170.19 150.92 162.82 162.18 150.08 C 170.21 141.13 175.00 128.94 173.65 116.84 C 172.42 104.09 164.78 92.75 154.98 84.85 C 140.78 73.41 122.50 67.79 104.44 67.15 C 105.52 56.57 113.82 46.72 124.71 45.67 C 124.69 46.00 124.66 46.68 124.64 47.02 C 126.09 49.96 127.00 53.28 129.40 55.65 C 133.52 60.22 139.89 62.24 145.94 61.27 C 151.99 59.42 156.93 55.07 159.30 49.16 C 160.90 42.16 158.99 34.24 153.02 29.86 C 148.55 26.01 142.37 25.63 136.81 26.72 Z" />
</g>
<g id="#ff2eb0ff">
<path fill="#ff2eb0" opacity="1.00" d=" M 136.81 26.72 C 142.37 25.63 148.55 26.01 153.02 29.86 C 158.99 34.24 160.90 42.16 159.30 49.16 C 156.93 55.07 151.99 59.42 145.94 61.27 C 139.89 62.24 133.52 60.22 129.40 55.65 C 127.00 53.28 126.09 49.96 124.64 47.02 C 124.66 46.68 124.69 46.00 124.71 45.67 C 124.93 42.63 125.38 39.61 126.13 36.67 C 128.17 32.02 132.32 28.81 136.81 26.72 Z" />
</g>
<g id="#c8c8c8ff">
<path fill="#c8c8c8" opacity="1.00" d=" M 95.48 67.18 C 96.35 51.33 109.83 36.65 126.13 36.67 C 125.38 39.61 124.93 42.63 124.71 45.67 C 113.82 46.72 105.52 56.57 104.44 67.15 C 101.45 67.08 98.46 67.10 95.48 67.18 Z" />
</g>
<g id="#b4b4b6ff">
<path fill="#b4b4b6" opacity="1.00" d=" M 51.71 80.74 C 64.69 72.30 80.08 67.91 95.48 67.18 C 98.46 67.10 101.45 67.08 104.44 67.15 C 122.50 67.79 140.78 73.41 154.98 84.85 C 164.78 92.75 172.42 104.09 173.65 116.84 C 175.00 128.94 170.21 141.13 162.18 150.08 C 150.92 162.82 134.65 170.19 118.15 173.25 C 97.71 176.86 75.88 174.30 57.45 164.51 C 46.52 158.66 36.68 149.99 31.29 138.66 C 26.22 128.30 25.88 115.78 30.41 105.17 C 34.64 94.98 42.59 86.74 51.71 80.74 M 89.40 73.46 C 76.03 75.27 62.82 79.85 52.11 88.22 C 42.57 95.39 35.35 106.35 34.57 118.46 C 33.61 130.43 39.40 142.02 47.97 150.09 C 60.14 161.45 76.60 167.12 92.94 168.75 C 110.87 170.17 129.56 166.58 144.86 156.85 C 155.17 150.39 163.77 140.26 166.28 128.13 C 168.39 120.31 166.61 111.95 163.21 104.76 C 157.82 93.61 147.61 85.59 136.60 80.41 C 121.94 73.55 105.36 71.76 89.40 73.46 Z" />
</g>
<g id="#e0fefbff">
<path fill="#e0fefb" opacity="1.00" d=" M 89.40 73.46 C 105.36 71.76 121.94 73.55 136.60 80.41 C 147.61 85.59 157.82 93.61 163.21 104.76 C 166.61 111.95 168.39 120.31 166.28 128.13 C 163.77 140.26 155.17 150.39 144.86 156.85 C 129.56 166.58 110.87 170.17 92.94 168.75 C 76.60 167.12 60.14 161.45 47.97 150.09 C 39.40 142.02 33.61 130.43 34.57 118.46 C 35.35 106.35 42.57 95.39 52.11 88.22 C 62.82 79.85 76.03 75.27 89.40 73.46 M 99.01 78.95 C 96.25 82.17 96.04 86.81 96.47 90.84 C 96.87 93.22 97.40 95.98 99.56 97.42 C 97.21 97.48 94.88 97.71 92.56 98.01 C 95.02 92.04 93.36 84.18 87.97 80.36 C 86.90 81.11 85.42 81.64 85.17 83.10 C 83.74 88.48 85.53 94.52 89.33 98.53 C 81.48 101.14 73.57 104.59 68.05 110.99 C 65.05 113.80 63.70 117.85 60.98 120.83 C 57.22 118.04 54.08 114.48 50.19 111.84 C 50.22 117.61 51.61 123.25 52.31 128.96 C 53.12 133.27 54.03 137.79 56.60 141.44 C 57.72 143.26 60.14 142.26 61.90 142.49 C 68.88 156.51 84.42 165.30 99.99 164.66 C 115.89 165.67 132.95 157.54 139.70 142.62 C 141.18 142.55 142.66 142.51 144.15 142.46 C 148.31 138.00 149.16 131.73 150.07 125.95 C 150.44 121.20 151.92 116.58 151.79 111.78 C 147.76 114.43 144.28 117.80 140.83 121.16 C 138.08 116.68 135.49 111.97 131.45 108.50 C 126.11 103.38 119.03 100.77 112.09 98.65 C 114.30 96.36 116.07 93.59 116.56 90.40 C 117.15 86.93 117.56 82.45 114.11 80.29 C 108.26 83.69 106.62 91.94 109.03 97.93 C 106.82 97.57 104.58 97.52 102.35 97.47 C 105.98 92.67 106.06 85.75 103.61 80.42 C 102.99 78.57 100.53 77.38 99.01 78.95 Z" />
</g>
<g id="#805021ff">
<path fill="#805021" opacity="1.00" d=" M 99.01 78.95 C 100.53 77.38 102.99 78.57 103.61 80.42 C 106.06 85.75 105.98 92.67 102.35 97.47 C 101.41 97.45 100.48 97.43 99.56 97.42 C 97.40 95.98 96.87 93.22 96.47 90.84 C 96.04 86.81 96.25 82.17 99.01 78.95 Z" />
</g>
<g id="#804f22ff">
<path fill="#804f22" opacity="1.00" d=" M 85.17 83.10 C 85.42 81.64 86.90 81.11 87.97 80.36 C 93.36 84.18 95.02 92.04 92.56 98.01 C 91.47 98.15 90.40 98.31 89.33 98.53 C 85.53 94.52 83.74 88.48 85.17 83.10 Z" />
</g>
<g id="#824e22ff">
<path fill="#824e22" opacity="1.00" d=" M 109.03 97.93 C 106.62 91.94 108.26 83.69 114.11 80.29 C 117.56 82.45 117.15 86.93 116.56 90.40 C 116.07 93.59 114.30 96.36 112.09 98.65 C 111.08 98.38 110.06 98.13 109.03 97.93 Z" />
</g>
<g id="#ffe5c5ff">
<path fill="#ffe5c5" opacity="1.00" d=" M 92.56 98.01 C 94.88 97.71 97.21 97.48 99.56 97.42 C 100.48 97.43 101.41 97.45 102.35 97.47 C 104.58 97.52 106.82 97.57 109.03 97.93 C 110.06 98.13 111.08 98.38 112.09 98.65 C 119.03 100.77 126.11 103.38 131.45 108.50 C 135.49 111.97 138.08 116.68 140.83 121.16 C 144.28 117.80 147.76 114.43 151.79 111.78 C 151.92 116.58 150.44 121.20 150.07 125.95 C 149.16 131.73 148.31 138.00 144.15 142.46 C 142.66 142.51 141.18 142.55 139.70 142.62 C 132.95 157.54 115.89 165.67 99.99 164.66 C 84.42 165.30 68.88 156.51 61.90 142.49 C 60.14 142.26 57.72 143.26 56.60 141.44 C 54.03 137.79 53.12 133.27 52.31 128.96 C 51.61 123.25 50.22 117.61 50.19 111.84 C 54.08 114.48 57.22 118.04 60.98 120.83 C 63.70 117.85 65.05 113.80 68.05 110.99 C 73.57 104.59 81.48 101.14 89.33 98.53 C 90.40 98.31 91.47 98.15 92.56 98.01 Z" />
</g>
</svg>
