<?xml version="1.0" encoding="UTF-8" ?>
<!DOCTYPE svg PUBLIC "-//W3C//DTD SVG 1.1//EN" "http://www.w3.org/Graphics/SVG/1.1/DTD/svg11.dtd">
<svg width="200pt" height="200pt" viewBox="0 0 200 200" version="1.1" xmlns="http://www.w3.org/2000/svg">
<g id="#000000ff">
<path fill="#000000" opacity="1.00" d=" M 75.12 37.45 C 90.60 33.01 107.72 34.61 122.11 41.85 C 136.62 49.06 148.22 61.92 153.88 77.10 C 159.68 92.41 159.35 109.91 153.03 125.00 C 146.78 140.23 134.42 152.80 119.37 159.45 C 107.41 164.79 93.81 166.33 80.94 163.90 C 66.10 161.17 52.23 153.09 42.78 141.31 C 40.98 139.14 42.32 135.83 44.76 134.82 C 64.70 123.05 84.56 111.14 104.55 99.45 C 102.80 97.71 100.50 96.76 98.40 95.54 C 80.38 85.25 62.29 75.08 44.29 64.78 C 41.86 63.63 41.23 60.09 43.13 58.19 C 51.39 48.28 62.70 40.94 75.12 37.45 M 81.86 40.19 C 68.01 42.68 55.21 50.26 46.18 61.04 C 68.55 73.73 90.90 86.46 113.29 99.12 C 90.89 112.35 68.52 125.64 46.13 138.90 C 59.61 155.35 82.07 163.68 103.00 159.98 C 120.41 157.21 136.25 146.33 145.23 131.18 C 152.59 118.92 155.37 104.01 152.97 89.92 C 150.37 73.75 140.79 58.92 127.26 49.74 C 114.17 40.74 97.47 37.26 81.86 40.19 Z" />
</g>
<g id="#ffff00ff">
<path fill="#ffff00" opacity="1.00" d=" M 81.86 40.19 C 97.47 37.26 114.17 40.74 127.26 49.74 C 140.79 58.92 150.37 73.75 152.97 89.92 C 155.37 104.01 152.59 118.92 145.23 131.18 C 136.25 146.33 120.41 157.21 103.00 159.98 C 82.07 163.68 59.61 155.35 46.13 138.90 C 68.52 125.64 90.89 112.35 113.29 99.12 C 90.90 86.46 68.55 73.73 46.18 61.04 C 55.21 50.26 68.01 42.68 81.86 40.19 Z" />
</g>
</svg>
