<?xml version="1.0" encoding="UTF-8" ?>
<!DOCTYPE svg PUBLIC "-//W3C//DTD SVG 1.1//EN" "http://www.w3.org/Graphics/SVG/1.1/DTD/svg11.dtd">
<svg width="200pt" height="200pt" viewBox="0 0 200 200" version="1.1" xmlns="http://www.w3.org/2000/svg">
<g id="#000100ff">
<path fill="#000100" opacity="1.00" d=" M 35.86 25.79 C 38.38 22.98 41.40 20.50 44.92 19.08 C 48.21 18.11 51.33 21.86 49.83 24.93 C 47.98 30.11 46.74 35.59 47.32 41.13 C 49.43 37.22 52.31 33.18 56.92 32.16 C 59.27 31.17 62.17 33.03 64.18 31.17 C 72.51 24.91 83.65 21.71 93.86 24.76 C 96.30 25.21 98.41 26.85 100.84 27.18 C 105.01 25.28 109.43 23.75 114.06 23.62 C 122.83 23.17 131.31 26.81 138.16 32.09 C 141.28 31.63 144.66 31.76 147.37 33.58 C 150.31 35.27 151.97 38.32 153.63 41.14 C 154.24 35.67 152.99 30.25 151.21 25.11 C 150.03 22.75 151.40 19.66 153.99 19.06 C 156.96 18.55 159.34 20.89 161.60 22.43 C 175.49 33.46 176.32 56.73 163.58 68.96 C 166.00 72.56 167.86 76.69 168.02 81.08 C 167.74 83.86 164.77 85.34 162.23 84.77 C 162.48 88.20 162.46 91.63 162.76 95.05 C 164.93 98.45 167.91 101.30 170.98 103.89 C 172.53 105.31 174.97 106.02 175.71 108.16 C 176.71 110.57 174.78 113.61 172.17 113.72 C 169.26 113.97 166.32 113.85 163.40 113.86 C 163.80 123.98 164.22 134.25 167.02 144.05 C 169.27 152.04 173.85 159.44 180.36 164.65 C 181.72 165.90 183.66 166.92 183.95 168.92 C 184.51 171.33 182.52 173.82 180.09 173.92 C 173.37 174.78 166.51 174.26 159.91 172.80 C 156.72 172.07 153.49 170.99 151.05 168.72 C 144.32 168.48 137.56 168.49 130.87 169.23 C 127.25 171.41 124.80 175.21 120.78 176.85 C 109.56 182.02 96.31 182.13 84.62 178.55 C 79.33 177.05 75.15 173.42 71.51 169.48 C 64.40 168.34 57.12 168.53 49.93 168.71 C 46.45 171.96 41.55 172.77 37.05 173.59 C 31.39 174.36 25.57 174.77 19.92 173.73 C 16.50 172.85 15.99 167.81 18.96 166.06 C 25.11 161.37 30.08 155.08 32.73 147.78 C 36.75 136.96 37.12 125.25 37.60 113.85 C 34.21 113.82 30.76 114.14 27.40 113.57 C 24.29 112.72 23.46 107.97 26.25 106.26 C 30.83 103.26 34.74 99.32 37.99 94.95 C 38.86 91.65 38.39 88.12 38.78 84.73 C 36.25 85.37 33.29 83.91 32.96 81.18 C 33.06 76.75 34.95 72.58 37.39 68.95 C 25.86 57.84 25.38 37.74 35.86 25.79 M 154.90 23.10 C 157.01 29.51 158.95 36.46 157.17 43.19 C 156.33 46.75 153.90 49.60 151.25 51.99 C 150.70 47.23 150.11 41.96 146.58 38.36 C 144.89 36.48 142.33 35.93 139.90 35.90 C 140.50 37.16 141.07 38.44 141.61 39.72 C 139.90 39.73 138.89 38.23 137.69 37.25 C 131.21 31.54 122.83 27.35 114.01 27.79 C 109.09 27.95 104.57 30.02 100.19 32.07 C 94.72 28.92 88.30 27.03 81.96 28.04 C 73.18 29.12 65.75 34.54 59.49 40.45 C 59.54 39.87 59.66 38.71 59.72 38.13 C 60.02 37.57 60.64 36.45 60.95 35.89 C 58.79 36.01 56.46 36.23 54.78 37.76 C 50.79 41.27 49.90 46.91 49.65 51.95 C 46.70 49.70 44.34 46.63 43.48 42.97 C 41.80 36.29 43.75 29.42 45.81 23.06 C 29.22 31.45 27.66 58.50 43.51 68.35 C 40.03 71.52 37.73 75.81 36.91 80.45 C 38.65 78.96 40.42 77.48 42.49 76.45 C 42.69 76.78 43.09 77.44 43.29 77.77 C 42.94 83.64 42.44 89.52 42.60 95.39 C 39.01 101.01 34.20 105.80 28.78 109.66 C 33.16 109.70 37.55 109.73 41.92 109.36 C 41.06 124.02 41.41 139.43 34.95 153.01 C 31.89 159.71 26.68 165.06 21.18 169.82 C 27.42 170.59 33.74 170.01 39.89 168.78 C 42.82 168.09 46.04 167.13 47.67 164.36 C 55.89 164.32 64.12 164.61 72.33 164.92 C 73.84 166.17 75.37 167.40 76.69 168.87 C 82.55 175.14 91.75 176.56 99.93 176.82 C 108.48 176.74 118.18 175.42 124.36 168.92 C 125.85 167.65 127.40 166.44 128.83 165.10 C 136.85 164.31 144.92 164.42 152.97 164.41 C 154.38 166.41 156.53 167.69 158.90 168.23 C 165.57 169.99 172.55 170.51 179.42 169.95 C 177.23 167.32 174.40 165.33 172.22 162.71 C 165.36 155.04 161.93 144.92 160.69 134.85 C 159.51 126.41 158.95 117.90 159.08 109.38 C 163.12 109.66 167.17 109.71 171.22 109.65 C 166.37 105.79 161.72 101.57 158.28 96.35 C 158.57 89.63 157.45 82.95 157.43 76.24 C 159.75 77.10 161.66 78.72 163.73 80.04 C 162.80 75.64 160.73 71.37 157.17 68.51 C 172.96 58.50 171.62 31.47 154.90 23.10 Z" />
</g>
<g id="#d2cf1cff">
<path fill="#d2cf1c" opacity="1.00" d=" M 154.90 23.10 C 171.62 31.47 172.96 58.50 157.17 68.51 C 160.73 71.37 162.80 75.64 163.73 80.04 C 161.66 78.72 159.75 77.10 157.43 76.24 C 154.82 75.41 152.08 75.26 149.37 75.15 C 148.95 76.66 148.55 78.17 148.08 79.66 C 145.89 82.98 142.24 84.70 138.62 85.96 C 138.13 81.57 137.78 76.77 134.66 73.33 C 131.73 69.62 126.98 67.48 122.25 67.83 C 121.96 70.53 121.64 73.51 119.47 75.45 C 114.67 79.91 105.97 79.38 101.98 74.04 C 101.74 73.29 101.24 71.79 101.00 71.05 C 99.76 72.44 98.73 74.00 97.81 75.62 C 94.00 78.69 88.52 79.24 84.04 77.38 C 80.54 75.72 78.35 71.91 78.44 68.06 C 74.79 67.21 71.16 69.03 68.23 71.07 C 63.94 74.54 62.23 80.35 62.29 85.70 C 58.21 85.14 54.88 82.50 52.36 79.39 C 52.10 77.99 51.84 76.59 51.57 75.19 C 48.50 75.21 45.39 75.36 42.49 76.45 C 40.42 77.48 38.65 78.96 36.91 80.45 C 37.73 75.81 40.03 71.52 43.51 68.35 C 27.66 58.50 29.22 31.45 45.81 23.06 C 43.75 29.42 41.80 36.29 43.48 42.97 C 44.34 46.63 46.70 49.70 49.65 51.95 C 49.90 46.91 50.79 41.27 54.78 37.76 C 56.46 36.23 58.79 36.01 60.95 35.89 C 60.64 36.45 60.02 37.57 59.72 38.13 C 57.32 47.06 63.17 58.58 72.91 59.79 C 79.60 60.94 85.31 55.15 91.98 56.71 C 96.08 58.03 99.35 61.47 100.47 65.63 C 101.42 60.96 105.35 57.27 110.01 56.47 C 116.00 55.86 121.03 60.69 127.07 59.81 C 136.68 59.28 142.65 48.53 141.61 39.72 C 141.07 38.44 140.50 37.16 139.90 35.90 C 142.33 35.93 144.89 36.48 146.58 38.36 C 150.11 41.96 150.70 47.23 151.25 51.99 C 153.90 49.60 156.33 46.75 157.17 43.19 C 158.95 36.46 157.01 29.51 154.90 23.10 M 109.01 65.91 C 107.74 69.42 113.59 72.77 115.31 69.11 C 114.10 68.84 112.90 68.52 111.72 68.14 C 110.63 66.28 112.10 63.55 114.29 63.42 C 117.19 62.42 119.13 65.34 121.46 66.45 C 121.14 59.90 109.59 59.30 109.01 65.91 Z" />
</g>
<g id="#3fa400ff">
<path fill="#3fa400" opacity="1.00" d=" M 59.49 40.45 C 65.75 34.54 73.18 29.12 81.96 28.04 C 88.30 27.03 94.72 28.92 100.19 32.07 C 104.57 30.02 109.09 27.95 114.01 27.79 C 122.83 27.35 131.21 31.54 137.69 37.25 C 138.89 38.23 139.90 39.73 141.61 39.72 C 142.65 48.53 136.68 59.28 127.07 59.81 C 121.03 60.69 116.00 55.86 110.01 56.47 C 105.35 57.27 101.42 60.96 100.47 65.63 C 99.35 61.47 96.08 58.03 91.98 56.71 C 85.31 55.15 79.60 60.94 72.91 59.79 C 63.17 58.58 57.32 47.06 59.72 38.13 C 59.66 38.71 59.54 39.87 59.49 40.45 Z" />
<path fill="#3fa400" opacity="1.00" d=" M 41.92 109.36 C 43.18 109.29 44.44 109.23 45.70 109.17 C 47.79 118.88 50.83 128.37 54.81 137.46 C 52.55 146.45 51.65 155.86 47.67 164.36 C 46.04 167.13 42.82 168.09 39.89 168.78 C 33.74 170.01 27.42 170.59 21.18 169.82 C 26.68 165.06 31.89 159.71 34.95 153.01 C 41.41 139.43 41.06 124.02 41.92 109.36 Z" />
</g>
<g id="#bea803ff">
<path fill="#bea803" opacity="1.00" d=" M 109.01 65.91 C 109.59 59.30 121.14 59.90 121.46 66.45 C 119.13 65.34 117.19 62.42 114.29 63.42 C 112.10 63.55 110.63 66.28 111.72 68.14 C 112.90 68.52 114.10 68.84 115.31 69.11 C 113.59 72.77 107.74 69.42 109.01 65.91 Z" />
</g>
<g id="#3ec401ff">
<path fill="#3ec401" opacity="1.00" d=" M 68.23 71.07 C 71.16 69.03 74.79 67.21 78.44 68.06 C 78.35 71.91 80.54 75.72 84.04 77.38 C 88.52 79.24 94.00 78.69 97.81 75.62 C 93.72 82.60 88.82 89.59 81.97 94.09 C 81.59 94.26 80.83 94.59 80.45 94.75 C 80.35 95.92 80.28 97.09 80.23 98.26 C 77.98 97.04 75.74 98.66 73.88 99.82 C 71.23 101.61 68.12 102.52 65.43 104.23 C 65.54 109.45 65.57 114.67 66.06 119.87 C 66.15 122.26 66.22 124.67 66.59 127.04 C 68.34 138.99 70.24 151.07 74.60 162.40 C 75.53 164.48 76.29 166.62 76.69 168.87 C 75.37 167.40 73.84 166.17 72.33 164.92 C 65.05 156.80 59.51 147.26 54.81 137.46 C 50.83 128.37 47.79 118.88 45.70 109.17 C 44.44 109.23 43.18 109.29 41.92 109.36 C 37.55 109.73 33.16 109.70 28.78 109.66 C 34.20 105.80 39.01 101.01 42.60 95.39 C 46.63 90.58 49.10 84.72 52.36 79.39 C 54.88 82.50 58.21 85.14 62.29 85.70 C 62.23 80.35 63.94 74.54 68.23 71.07 Z" />
</g>
<g id="#3ec501ff">
<path fill="#3ec501" opacity="1.00" d=" M 122.25 67.83 C 126.98 67.48 131.73 69.62 134.66 73.33 C 137.78 76.77 138.13 81.57 138.62 85.96 C 142.24 84.70 145.89 82.98 148.08 79.66 C 151.41 85.27 153.97 91.38 158.28 96.35 C 161.72 101.57 166.37 105.79 171.22 109.65 C 167.17 109.71 163.12 109.66 159.08 109.38 C 157.93 109.36 156.78 109.38 155.63 109.42 C 153.87 119.52 150.55 129.26 146.17 138.52 C 141.51 148.02 136.20 157.42 128.83 165.10 C 127.40 166.44 125.85 167.65 124.36 168.92 C 125.14 167.10 125.77 165.22 126.49 163.38 C 130.89 152.79 132.91 141.40 134.40 130.09 C 134.96 125.30 136.07 120.56 135.83 115.71 C 136.06 112.06 136.14 108.40 136.21 104.74 C 131.85 102.38 127.31 100.38 123.07 97.82 C 119.63 97.43 116.52 99.10 113.27 99.87 C 111.96 100.76 110.55 101.50 108.97 101.78 C 111.95 99.93 114.83 97.68 118.42 97.26 C 118.59 96.36 118.76 95.47 118.93 94.57 C 111.80 89.13 106.24 81.88 101.98 74.04 C 105.97 79.38 114.67 79.91 119.47 75.45 C 121.64 73.51 121.96 70.53 122.25 67.83 Z" />
</g>
<g id="#fde6ccff">
<path fill="#fde6cc" opacity="1.00" d=" M 97.81 75.62 C 98.73 74.00 99.76 72.44 101.00 71.05 C 101.24 71.79 101.74 73.29 101.98 74.04 C 106.24 81.88 111.80 89.13 118.93 94.57 C 118.76 95.47 118.59 96.36 118.42 97.26 C 114.83 97.68 111.95 99.93 108.97 101.78 C 110.55 101.50 111.96 100.76 113.27 99.87 C 116.52 99.10 119.63 97.43 123.07 97.82 C 127.31 100.38 131.85 102.38 136.21 104.74 C 136.14 108.40 136.06 112.06 135.83 115.71 C 133.93 123.46 132.71 132.02 127.13 138.14 C 121.20 144.75 113.40 149.30 105.53 153.24 C 102.27 154.98 98.22 154.90 95.00 153.10 C 86.88 148.95 78.76 144.19 72.84 137.11 C 68.74 132.28 67.48 125.87 66.06 119.87 C 65.57 114.67 65.54 109.45 65.43 104.23 C 68.12 102.52 71.23 101.61 73.88 99.82 C 75.74 98.66 77.98 97.04 80.23 98.26 C 84.20 100.00 88.37 101.28 92.14 103.47 C 89.62 99.71 85.26 98.23 81.48 96.13 C 81.60 95.62 81.85 94.60 81.97 94.09 C 88.82 89.59 93.72 82.60 97.81 75.62 M 97.48 80.53 C 93.92 84.34 96.87 89.64 98.48 93.67 L 99.33 93.75 C 99.52 95.37 100.07 95.54 100.97 94.25 C 103.31 91.80 104.14 88.23 104.56 84.97 C 105.13 81.40 100.45 77.25 97.48 80.53 Z" />
</g>
<g id="#3fa401ff">
<path fill="#3fa401" opacity="1.00" d=" M 42.49 76.45 C 45.39 75.36 48.50 75.21 51.57 75.19 C 51.84 76.59 52.10 77.99 52.36 79.39 C 49.10 84.72 46.63 90.58 42.60 95.39 C 42.44 89.52 42.94 83.64 43.29 77.77 C 43.09 77.44 42.69 76.78 42.49 76.45 Z" />
</g>
<g id="#3fa500ff">
<path fill="#3fa500" opacity="1.00" d=" M 149.37 75.15 C 152.08 75.26 154.82 75.41 157.43 76.24 C 157.45 82.95 158.57 89.63 158.28 96.35 C 153.97 91.38 151.41 85.27 148.08 79.66 C 148.55 78.17 148.95 76.66 149.37 75.15 Z" />
<path fill="#3fa500" opacity="1.00" d=" M 155.63 109.42 C 156.78 109.38 157.93 109.36 159.08 109.38 C 158.95 117.90 159.51 126.41 160.69 134.85 C 161.93 144.92 165.36 155.04 172.22 162.71 C 174.40 165.33 177.23 167.32 179.42 169.95 C 172.55 170.51 165.57 169.99 158.90 168.23 C 156.53 167.69 154.38 166.41 152.97 164.41 C 149.39 156.14 148.43 147.15 146.17 138.52 C 150.55 129.26 153.87 119.52 155.63 109.42 Z" />
</g>
<g id="#eb00d4ff">
<path fill="#eb00d4" opacity="1.00" d=" M 97.48 80.53 C 100.45 77.25 105.13 81.40 104.56 84.97 C 104.14 88.23 103.31 91.80 100.97 94.25 C 100.56 94.12 99.74 93.88 99.33 93.75 L 98.48 93.67 C 96.87 89.64 93.92 84.34 97.48 80.53 Z" />
</g>
<g id="#a6ce72ff">
<path fill="#a6ce72" opacity="1.00" d=" M 80.45 94.75 C 80.83 94.59 81.59 94.26 81.97 94.09 C 81.85 94.60 81.60 95.62 81.48 96.13 C 85.26 98.23 89.62 99.71 92.14 103.47 C 88.37 101.28 84.20 100.00 80.23 98.26 C 80.28 97.09 80.35 95.92 80.45 94.75 Z" />
</g>
<g id="#ce6e9bff">
<path fill="#ce6e9b" opacity="1.00" d=" M 99.33 93.75 C 99.74 93.88 100.56 94.12 100.97 94.25 C 100.07 95.54 99.52 95.37 99.33 93.75 Z" />
</g>
<g id="#3e8900ff">
<path fill="#3e8900" opacity="1.00" d=" M 127.13 138.14 C 132.71 132.02 133.93 123.46 135.83 115.71 C 136.07 120.56 134.96 125.30 134.40 130.09 C 132.91 141.40 130.89 152.79 126.49 163.38 C 125.51 162.05 124.77 160.23 122.96 159.88 C 121.41 158.99 120.64 160.88 119.88 161.80 C 118.65 163.85 116.21 164.57 114.12 165.41 C 104.99 168.15 94.96 168.08 85.92 165.02 C 82.90 164.16 80.93 161.71 79.14 159.31 C 77.52 160.18 76.00 161.22 74.60 162.40 C 70.24 151.07 68.34 138.99 66.59 127.04 C 66.22 124.67 66.15 122.26 66.06 119.87 C 67.48 125.87 68.74 132.28 72.84 137.11 C 78.76 144.19 86.88 148.95 95.00 153.10 C 98.22 154.90 102.27 154.98 105.53 153.24 C 113.40 149.30 121.20 144.75 127.13 138.14 Z" />
</g>
<g id="#3d8900ff">
<path fill="#3d8900" opacity="1.00" d=" M 47.67 164.36 C 51.65 155.86 52.55 146.45 54.81 137.46 C 59.51 147.26 65.05 156.80 72.33 164.92 C 64.12 164.61 55.89 164.32 47.67 164.36 Z" />
</g>
<g id="#3f8900ff">
<path fill="#3f8900" opacity="1.00" d=" M 146.17 138.52 C 148.43 147.15 149.39 156.14 152.97 164.41 C 144.92 164.42 136.85 164.31 128.83 165.10 C 136.20 157.42 141.51 148.02 146.17 138.52 Z" />
</g>
<g id="#d2cf1bff">
<path fill="#d2cf1b" opacity="1.00" d=" M 74.60 162.40 C 76.00 161.22 77.52 160.18 79.14 159.31 C 80.93 161.71 82.90 164.16 85.92 165.02 C 94.96 168.08 104.99 168.15 114.12 165.41 C 116.21 164.57 118.65 163.85 119.88 161.80 C 120.64 160.88 121.41 158.99 122.96 159.88 C 124.77 160.23 125.51 162.05 126.49 163.38 C 125.77 165.22 125.14 167.10 124.36 168.92 C 118.18 175.42 108.48 176.74 99.93 176.82 C 91.75 176.56 82.55 175.14 76.69 168.87 C 76.29 166.62 75.53 164.48 74.60 162.40 Z" />
</g>
</svg>
