<?xml version="1.0" encoding="UTF-8" ?>
<!DOCTYPE svg PUBLIC "-//W3C//DTD SVG 1.1//EN" "http://www.w3.org/Graphics/SVG/1.1/DTD/svg11.dtd">
<svg width="200pt" height="200pt" viewBox="0 0 200 200" version="1.1" xmlns="http://www.w3.org/2000/svg">
<g id="#000000ff">
<path fill="#000000" opacity="1.00" d=" M 100.96 49.78 C 103.61 47.80 106.23 45.10 109.90 45.74 C 113.57 45.39 116.15 48.20 118.38 50.66 C 132.60 51.20 146.82 51.73 161.04 52.23 C 164.71 52.40 168.47 52.26 172.01 53.44 C 178.96 55.73 184.52 62.50 184.38 69.98 C 184.52 81.30 184.36 92.62 184.45 103.93 C 184.39 107.87 184.65 112.09 182.69 115.67 C 179.76 121.49 173.61 125.57 167.07 125.82 C 157.37 126.30 147.66 126.52 137.95 126.95 C 137.70 128.63 137.64 130.38 137.03 131.99 C 135.93 133.70 133.92 134.45 132.29 135.54 C 132.27 139.70 132.50 143.87 132.22 148.03 C 132.24 149.61 131.14 151.02 129.67 151.50 C 120.78 154.48 111.28 154.34 102.03 154.19 C 96.62 154.13 91.22 153.38 86.01 151.96 C 84.46 151.55 82.62 150.78 82.24 149.04 C 81.69 144.53 82.10 139.98 81.99 135.45 C 79.25 134.24 76.92 132.31 76.21 129.26 C 72.30 129.43 68.35 129.59 64.49 128.77 C 54.68 126.90 44.80 125.41 35.01 123.48 C 28.38 121.60 25.01 114.82 23.82 108.52 C 18.77 106.00 15.39 100.70 15.62 94.99 C 15.83 88.00 14.34 80.29 18.10 73.97 C 20.08 70.35 24.24 68.40 25.55 64.37 C 27.40 59.41 31.66 55.20 37.06 54.51 C 47.38 52.83 57.65 50.82 67.97 49.16 C 78.96 48.57 89.98 50.21 100.96 49.78 M 103.46 54.55 C 91.98 54.17 80.50 53.76 69.03 53.25 C 58.06 55.46 46.98 57.22 35.97 59.23 C 30.86 60.63 29.10 66.05 27.50 70.43 C 22.79 73.34 19.34 78.29 19.28 83.95 C 19.34 89.81 18.13 96.33 21.39 101.58 C 22.72 103.94 25.38 104.87 27.91 105.26 C 27.59 111.01 30.07 117.94 36.07 119.75 C 46.78 121.72 57.54 123.41 68.23 125.54 C 72.33 125.73 76.45 125.06 80.56 125.09 C 80.67 126.77 80.48 128.47 80.80 130.13 C 82.32 131.10 84.02 131.71 85.70 132.35 C 85.93 137.69 85.86 143.04 85.68 148.38 C 86.34 148.29 87.67 148.12 88.33 148.03 C 88.89 150.61 92.36 149.17 94.25 149.47 C 102.91 151.10 111.88 150.95 120.54 149.42 C 123.00 149.62 125.37 148.82 127.68 148.08 L 128.10 148.07 C 128.07 142.82 128.06 137.57 128.10 132.32 C 129.64 131.77 131.21 131.26 132.68 130.53 C 133.88 128.29 132.94 125.56 132.94 123.15 C 144.34 122.72 155.74 122.40 167.13 121.85 C 174.19 121.40 180.19 115.01 180.27 107.94 C 180.41 96.29 180.27 84.64 180.33 73.00 C 181.13 65.18 174.96 57.35 166.99 56.99 C 150.34 56.21 133.68 55.76 117.02 55.08 C 115.55 55.16 114.15 54.90 113.68 53.32 C 113.69 50.41 110.24 49.37 107.90 50.00 C 105.61 50.43 104.68 52.87 103.46 54.55 Z" />
<path fill="#000000" opacity="1.00" d=" M 71.09 57.06 C 72.99 56.40 75.01 56.36 76.99 56.41 C 107.01 57.53 137.04 58.50 167.06 59.64 C 173.70 59.89 178.17 66.77 178.05 72.97 C 178.07 84.01 178.09 95.04 178.04 106.07 C 178.10 112.18 173.53 118.79 167.03 118.91 C 136.69 120.01 106.35 121.08 76.01 122.13 C 68.19 122.77 61.53 115.48 61.55 107.90 C 61.45 95.64 61.51 83.36 61.53 71.10 C 61.48 65.08 65.29 59.01 71.09 57.06 M 99.40 65.52 C 90.30 67.59 82.95 75.71 81.90 85.00 C 80.45 94.00 84.90 103.60 92.75 108.24 C 96.95 110.97 102.06 111.70 106.98 111.57 C 122.65 111.30 138.32 110.91 154.00 110.67 C 158.35 110.64 162.88 110.00 166.60 107.60 C 171.61 104.37 174.54 98.64 175.43 92.88 C 176.50 85.39 175.11 76.98 169.63 71.41 C 165.86 67.43 160.26 65.93 154.92 65.88 C 140.27 65.55 125.61 65.39 110.96 64.99 C 107.10 64.94 103.20 64.76 99.40 65.52 Z" />
</g>
<g id="#ff0000ff">
<path fill="#ff0000" opacity="1.00" d=" M 103.46 54.55 C 104.68 52.87 105.61 50.43 107.90 50.00 C 110.24 49.37 113.69 50.41 113.68 53.32 C 113.75 53.69 113.88 54.42 113.94 54.79 C 110.45 54.69 106.96 54.65 103.46 54.55 Z" />
</g>
<g id="#f3f0ddff">
<path fill="#f3f0dd" opacity="1.00" d=" M 113.94 54.79 C 113.88 54.42 113.75 53.69 113.68 53.32 C 114.15 54.90 115.55 55.16 117.02 55.08 C 133.68 55.76 150.34 56.21 166.99 56.99 C 174.96 57.35 181.13 65.18 180.33 73.00 C 180.27 84.64 180.41 96.29 180.27 107.94 C 180.19 115.01 174.19 121.40 167.13 121.85 C 155.74 122.40 144.34 122.72 132.94 123.15 C 115.48 123.80 98.02 124.49 80.56 125.09 C 76.45 125.06 72.33 125.73 68.23 125.54 C 57.54 123.41 46.78 121.72 36.07 119.75 C 30.07 117.94 27.59 111.01 27.91 105.26 C 25.38 104.87 22.72 103.94 21.39 101.58 C 18.13 96.33 19.34 89.81 19.28 83.95 C 19.34 78.29 22.79 73.34 27.50 70.43 C 29.10 66.05 30.86 60.63 35.97 59.23 C 46.98 57.22 58.06 55.46 69.03 53.25 C 80.50 53.76 91.98 54.17 103.46 54.55 C 106.96 54.65 110.45 54.69 113.94 54.79 M 71.09 57.06 C 65.29 59.01 61.48 65.08 61.53 71.10 C 61.51 83.36 61.45 95.64 61.55 107.90 C 61.53 115.48 68.19 122.77 76.01 122.13 C 106.35 121.08 136.69 120.01 167.03 118.91 C 173.53 118.79 178.10 112.18 178.04 106.07 C 178.09 95.04 178.07 84.01 178.05 72.97 C 178.17 66.77 173.70 59.89 167.06 59.64 C 137.04 58.50 107.01 57.53 76.99 56.41 C 75.01 56.36 72.99 56.40 71.09 57.06 Z" />
</g>
<g id="#5a5858ff">
<path fill="#5a5858" opacity="1.00" d=" M 99.40 65.52 C 103.20 64.76 107.10 64.94 110.96 64.99 C 125.61 65.39 140.27 65.55 154.92 65.88 C 160.26 65.93 165.86 67.43 169.63 71.41 C 175.11 76.98 176.50 85.39 175.43 92.88 C 174.54 98.64 171.61 104.37 166.60 107.60 C 162.88 110.00 158.35 110.64 154.00 110.67 C 138.32 110.91 122.65 111.30 106.98 111.57 C 102.06 111.70 96.95 110.97 92.75 108.24 C 84.90 103.60 80.45 94.00 81.90 85.00 C 82.95 75.71 90.30 67.59 99.40 65.52 M 106.30 72.49 C 99.07 75.13 95.83 83.91 97.56 91.03 C 98.83 97.88 105.86 103.93 113.02 101.92 C 121.02 99.88 124.73 90.33 122.77 82.82 C 121.36 75.64 113.61 69.68 106.30 72.49 M 149.16 73.33 C 141.35 76.66 138.89 87.15 142.58 94.36 C 145.05 99.92 151.97 103.36 157.72 100.69 C 166.56 96.76 168.44 83.84 162.25 76.82 C 159.24 72.99 153.68 71.38 149.16 73.33 Z" />
</g>
<g id="#dbdcdeff">
<path fill="#dbdcde" opacity="1.00" d=" M 106.30 72.49 C 113.61 69.68 121.36 75.64 122.77 82.82 C 124.73 90.33 121.02 99.88 113.02 101.92 C 105.86 103.93 98.83 97.88 97.56 91.03 C 95.83 83.91 99.07 75.13 106.30 72.49 M 107.16 75.23 C 97.31 79.22 97.71 96.01 108.00 99.13 C 115.86 101.13 121.68 92.04 120.26 85.04 C 119.75 78.89 113.57 72.75 107.16 75.23 Z" />
</g>
<g id="#dbddddff">
<path fill="#dbdddd" opacity="1.00" d=" M 149.16 73.33 C 153.68 71.38 159.24 72.99 162.25 76.82 C 168.44 83.84 166.56 96.76 157.72 100.69 C 151.97 103.36 145.05 99.92 142.58 94.36 C 138.89 87.15 141.35 76.66 149.16 73.33 M 149.38 76.45 C 143.43 79.90 142.17 88.57 145.77 94.14 C 147.82 97.59 152.31 99.87 156.22 98.20 C 162.84 95.52 164.77 86.49 161.39 80.60 C 159.31 76.36 153.64 73.74 149.38 76.45 Z" />
</g>
<g id="#000064ff">
<path fill="#000064" opacity="1.00" d=" M 107.16 75.23 C 113.57 72.75 119.75 78.89 120.26 85.04 C 121.68 92.04 115.86 101.13 108.00 99.13 C 97.71 96.01 97.31 79.22 107.16 75.23 Z" />
<path fill="#000064" opacity="1.00" d=" M 149.38 76.45 C 153.64 73.74 159.31 76.36 161.39 80.60 C 164.77 86.49 162.84 95.52 156.22 98.20 C 152.31 99.87 147.82 97.59 145.77 94.14 C 142.17 88.57 143.43 79.90 149.38 76.45 Z" />
</g>
<g id="#585858ff">
<path fill="#585858" opacity="1.00" d=" M 80.56 125.09 C 98.02 124.49 115.48 123.80 132.94 123.15 C 132.94 125.56 133.88 128.29 132.68 130.53 C 131.21 131.26 129.64 131.77 128.10 132.32 C 128.06 137.57 128.07 142.82 128.10 148.07 L 127.68 148.08 C 127.76 142.86 127.76 137.64 127.73 132.42 C 118.57 134.15 109.24 133.49 99.98 133.63 C 95.38 133.63 90.81 133.13 86.29 132.33 C 86.21 136.68 86.15 141.05 86.48 145.39 C 86.84 146.29 88.28 146.89 88.33 148.03 C 87.67 148.12 86.34 148.29 85.68 148.38 C 85.86 143.04 85.93 137.69 85.70 132.35 C 84.02 131.71 82.32 131.10 80.80 130.13 C 80.48 128.47 80.67 126.77 80.56 125.09 Z" />
</g>
<g id="#c70000ff">
<path fill="#c70000" opacity="1.00" d=" M 86.29 132.33 C 90.81 133.13 95.38 133.63 99.98 133.63 C 109.24 133.49 118.57 134.15 127.73 132.42 C 127.76 137.64 127.76 142.86 127.68 148.08 C 125.37 148.82 123.00 149.62 120.54 149.42 C 111.79 148.89 103.00 148.83 94.25 149.47 C 92.36 149.17 88.89 150.61 88.33 148.03 C 88.28 146.89 86.84 146.29 86.48 145.39 C 86.15 141.05 86.21 136.68 86.29 132.33 Z" />
</g>
<g id="#c11516ff">
<path fill="#c11516" opacity="1.00" d=" M 94.25 149.47 C 103.00 148.83 111.79 148.89 120.54 149.42 C 111.88 150.95 102.91 151.10 94.25 149.47 Z" />
</g>
</svg>
