<?xml version="1.0" encoding="UTF-8" ?>
<!DOCTYPE svg PUBLIC "-//W3C//DTD SVG 1.1//EN" "http://www.w3.org/Graphics/SVG/1.1/DTD/svg11.dtd">
<svg width="200pt" height="200pt" viewBox="0 0 200 200" version="1.1" xmlns="http://www.w3.org/2000/svg">
<g id="#000000ff">
<path fill="#000000" opacity="1.00" d=" M 90.28 18.27 C 91.91 16.42 95.00 16.63 96.53 18.49 C 100.51 22.52 104.38 26.65 108.33 30.71 C 112.10 27.34 115.70 23.78 119.54 20.49 C 121.54 18.69 125.06 19.63 126.02 22.09 C 126.78 23.67 126.05 25.44 125.90 27.07 C 124.38 35.32 122.94 43.60 121.46 51.87 C 126.91 51.60 132.16 54.32 135.39 58.65 C 142.35 67.62 144.28 79.12 148.47 89.42 C 149.44 91.93 151.41 94.20 154.05 94.99 C 157.05 95.25 158.00 91.10 160.94 91.01 C 163.23 90.73 165.59 92.69 165.55 95.03 C 165.73 98.76 164.54 102.39 162.80 105.65 C 164.74 106.65 166.73 108.58 165.98 111.00 C 163.84 117.14 160.97 123.56 155.47 127.41 C 152.21 129.76 148.22 130.75 144.28 131.16 C 143.19 133.19 141.96 135.14 140.52 136.93 C 145.08 140.65 151.70 141.35 157.09 139.16 C 159.95 137.99 161.04 134.97 162.59 132.57 C 164.80 130.01 169.56 131.54 169.83 134.93 C 171.23 147.93 162.63 160.24 151.58 166.35 C 153.90 168.81 153.25 172.59 150.47 174.40 C 143.40 179.66 134.68 182.35 126.04 183.58 C 115.67 185.06 104.51 183.00 96.21 176.35 C 88.47 179.26 80.25 176.12 73.86 171.60 C 73.93 173.49 73.87 175.81 72.06 176.94 C 70.34 178.18 68.09 177.61 66.45 176.53 C 54.38 169.68 44.38 159.17 38.42 146.61 C 29.44 128.03 28.79 105.95 35.33 86.50 C 40.41 71.48 51.51 59.01 64.83 50.68 C 63.33 41.79 61.53 32.94 60.19 24.02 C 59.77 20.77 64.03 18.33 66.64 20.32 C 70.65 23.61 74.30 27.34 78.19 30.78 C 82.25 26.63 86.18 22.37 90.28 18.27 M 93.25 21.05 C 88.25 26.20 83.33 31.42 78.30 36.54 C 73.64 32.29 69.05 27.96 64.34 23.76 C 65.92 33.03 67.59 42.29 69.29 51.54 C 68.93 52.28 68.63 53.04 68.38 53.81 C 67.94 53.97 67.06 54.28 66.62 54.44 C 53.89 62.32 43.49 74.43 38.90 88.81 C 33.29 106.54 33.78 126.43 41.57 143.44 C 47.30 156.15 57.38 166.68 69.57 173.38 C 69.17 169.65 68.91 165.89 69.35 162.16 C 73.82 166.87 79.38 170.70 85.61 172.63 C 89.03 173.71 92.70 173.01 95.96 171.74 L 96.26 171.53 C 101.24 174.48 106.02 178.17 111.96 178.99 C 124.74 181.14 138.59 177.87 148.98 170.11 C 144.34 171.09 138.72 171.01 135.00 167.77 C 142.18 166.33 149.23 163.57 154.88 158.82 C 161.80 153.20 166.28 144.39 165.80 135.38 C 164.21 138.18 162.43 141.10 159.41 142.55 C 151.02 146.63 139.50 144.27 134.53 136.02 C 138.01 134.02 140.16 130.45 141.24 126.67 C 145.04 126.98 149.06 126.35 152.33 124.30 C 157.44 121.20 159.60 115.35 161.90 110.16 C 157.35 111.86 152.41 111.65 147.77 110.45 C 150.92 109.75 154.21 108.88 156.56 106.54 C 159.79 103.65 161.14 99.30 161.42 95.09 C 159.80 96.61 158.23 98.50 155.92 98.89 C 151.15 99.71 146.90 95.98 145.00 91.92 C 140.51 81.68 138.85 70.05 131.95 60.97 C 129.18 57.20 124.43 55.31 119.82 56.14 C 118.80 55.40 117.82 54.61 116.76 53.94 C 118.46 43.85 120.40 33.81 122.07 23.72 C 117.36 27.88 112.81 32.22 108.16 36.45 C 103.09 31.41 98.24 26.16 93.25 21.05 Z" />
</g>
<g id="#cbcbcbff">
<path fill="#cbcbcb" opacity="1.00" d=" M 93.25 21.05 C 98.24 26.16 103.09 31.41 108.16 36.45 C 112.81 32.22 117.36 27.88 122.07 23.72 C 120.40 33.81 118.46 43.85 116.76 53.94 C 112.35 50.87 107.21 49.49 102.14 47.98 C 97.28 46.20 92.03 46.29 86.94 46.41 C 82.70 46.57 78.16 47.16 74.81 50.03 C 73.55 50.82 72.21 51.46 70.89 52.14 C 70.41 53.12 69.42 53.66 68.38 53.81 C 68.63 53.04 68.93 52.28 69.29 51.54 C 67.59 42.29 65.92 33.03 64.34 23.76 C 69.05 27.96 73.64 32.29 78.30 36.54 C 83.33 31.42 88.25 26.20 93.25 21.05 Z" />
</g>
<g id="#ded289ff">
<path fill="#ded289" opacity="1.00" d=" M 74.81 50.03 C 78.16 47.16 82.70 46.57 86.94 46.41 C 92.03 46.29 97.28 46.20 102.14 47.98 C 96.08 47.84 90.01 47.71 83.96 47.87 C 80.75 47.84 77.97 49.72 74.81 50.03 Z" />
</g>
<g id="#fadc00ff">
<path fill="#fadc00" opacity="1.00" d=" M 74.81 50.03 C 77.97 49.72 80.75 47.84 83.96 47.87 C 90.01 47.71 96.08 47.84 102.14 47.98 C 107.21 49.49 112.35 50.87 116.76 53.94 C 117.82 54.61 118.80 55.40 119.82 56.14 C 124.43 55.31 129.18 57.20 131.95 60.97 C 138.85 70.05 140.51 81.68 145.00 91.92 C 146.90 95.98 151.15 99.71 155.92 98.89 C 158.23 98.50 159.80 96.61 161.42 95.09 C 161.14 99.30 159.79 103.65 156.56 106.54 C 154.21 108.88 150.92 109.75 147.77 110.45 C 152.41 111.65 157.35 111.86 161.90 110.16 C 159.60 115.35 157.44 121.20 152.33 124.30 C 149.06 126.35 145.04 126.98 141.24 126.67 C 138.17 126.30 135.50 124.63 132.50 124.01 C 131.17 129.28 129.11 134.32 127.23 139.41 C 126.49 142.30 125.97 145.24 125.33 148.15 C 123.57 149.26 121.56 149.76 119.51 149.93 C 124.19 142.11 124.06 132.78 124.38 123.98 C 124.15 121.26 125.09 117.79 122.58 115.88 C 117.72 110.73 113.04 105.26 109.87 98.89 C 108.91 97.18 109.41 95.10 110.65 93.70 C 114.80 88.14 119.47 82.72 121.71 76.03 C 112.17 88.34 101.94 100.07 91.92 111.98 C 81.08 126.18 71.37 142.42 69.54 160.53 C 69.49 160.94 69.40 161.76 69.35 162.16 C 68.91 165.89 69.17 169.65 69.57 173.38 C 57.38 166.68 47.30 156.15 41.57 143.44 C 33.78 126.43 33.29 106.54 38.90 88.81 C 43.49 74.43 53.89 62.32 66.62 54.44 C 67.06 54.28 67.94 53.97 68.38 53.81 C 69.42 53.66 70.41 53.12 70.89 52.14 C 72.21 51.46 73.55 50.82 74.81 50.03 Z" />
</g>
<g id="#c8925eff">
<path fill="#c8925e" opacity="1.00" d=" M 91.92 111.98 C 101.94 100.07 112.17 88.34 121.71 76.03 C 119.47 82.72 114.80 88.14 110.65 93.70 C 109.41 95.10 108.91 97.18 109.87 98.89 C 113.04 105.26 117.72 110.73 122.58 115.88 C 115.78 111.71 111.05 104.92 107.13 98.12 C 98.98 108.07 90.51 117.85 83.89 128.92 C 78.52 137.69 73.41 146.88 71.18 157.01 C 70.89 158.30 70.34 159.48 69.54 160.53 C 71.37 142.42 81.08 126.18 91.92 111.98 Z" />
</g>
<g id="#fff0dcff">
<path fill="#fff0dc" opacity="1.00" d=" M 83.89 128.92 C 90.51 117.85 98.98 108.07 107.13 98.12 C 111.05 104.92 115.78 111.71 122.58 115.88 C 125.09 117.79 124.15 121.26 124.38 123.98 C 124.06 132.78 124.19 142.11 119.51 149.93 C 117.65 150.23 115.82 150.70 114.01 151.20 C 115.32 151.69 116.64 152.16 117.97 152.61 C 112.20 160.36 105.35 167.75 96.26 171.53 L 95.96 171.74 C 92.70 173.01 89.03 173.71 85.61 172.63 C 79.38 170.70 73.82 166.87 69.35 162.16 C 69.40 161.76 69.49 160.94 69.54 160.53 C 70.34 159.48 70.89 158.30 71.18 157.01 C 73.41 146.88 78.52 137.69 83.89 128.92 Z" />
</g>
<g id="#ffefddff">
<path fill="#ffefdd" opacity="1.00" d=" M 132.50 124.01 C 135.50 124.63 138.17 126.30 141.24 126.67 C 140.16 130.45 138.01 134.02 134.53 136.02 C 132.93 137.04 131.24 137.90 129.56 138.77 C 129.69 139.63 129.94 141.34 130.07 142.20 C 129.13 141.26 128.18 140.33 127.23 139.41 C 129.11 134.32 131.17 129.28 132.50 124.01 Z" />
</g>
<g id="#fadb00ff">
<path fill="#fadb00" opacity="1.00" d=" M 129.56 138.77 C 131.24 137.90 132.93 137.04 134.53 136.02 C 139.50 144.27 151.02 146.63 159.41 142.55 C 162.43 141.10 164.21 138.18 165.80 135.38 C 166.28 144.39 161.80 153.20 154.88 158.82 C 149.23 163.57 142.18 166.33 135.00 167.77 C 138.72 171.01 144.34 171.09 148.98 170.11 C 138.59 177.87 124.74 181.14 111.96 178.99 C 106.02 178.17 101.24 174.48 96.26 171.53 C 105.35 167.75 112.20 160.36 117.97 152.61 C 120.44 153.41 123.01 153.86 125.54 154.42 C 126.11 158.71 127.25 162.89 129.08 166.82 C 129.54 162.58 131.41 158.65 131.76 154.41 C 135.31 153.24 139.21 152.97 142.36 150.79 C 138.76 150.19 135.17 149.47 131.77 148.13 C 131.32 146.12 130.72 144.15 130.07 142.20 C 129.94 141.34 129.69 139.63 129.56 138.77 Z" />
</g>
<g id="#fffeffff">
<path fill="#fffeff" opacity="1.00" d=" M 125.33 148.15 C 125.97 145.24 126.49 142.30 127.23 139.41 C 128.18 140.33 129.13 141.26 130.07 142.20 C 130.72 144.15 131.32 146.12 131.77 148.13 C 135.17 149.47 138.76 150.19 142.36 150.79 C 139.21 152.97 135.31 153.24 131.76 154.41 C 131.41 158.65 129.54 162.58 129.08 166.82 C 127.25 162.89 126.11 158.71 125.54 154.42 C 123.01 153.86 120.44 153.41 117.97 152.61 C 116.64 152.16 115.32 151.69 114.01 151.20 C 115.82 150.70 117.65 150.23 119.51 149.93 C 121.56 149.76 123.57 149.26 125.33 148.15 Z" />
</g>
</svg>
