<?xml version="1.0" encoding="UTF-8" ?>
<!DOCTYPE svg PUBLIC "-//W3C//DTD SVG 1.1//EN" "http://www.w3.org/Graphics/SVG/1.1/DTD/svg11.dtd">
<svg width="200pt" height="200pt" viewBox="0 0 200 200" version="1.1" xmlns="http://www.w3.org/2000/svg">
<g id="#020101ff">
<path fill="#020101" opacity="1.00" d=" M 66.93 35.89 C 83.45 26.31 104.16 24.23 122.13 30.87 C 138.80 36.48 153.09 49.82 158.11 66.89 C 159.12 71.33 163.30 73.70 166.02 76.99 C 172.88 84.78 179.24 93.80 180.55 104.37 C 182.76 117.96 178.01 133.35 166.20 141.20 C 162.25 144.16 156.81 144.63 153.51 148.51 C 142.94 159.35 128.72 166.22 113.87 168.76 C 112.55 170.64 111.81 173.89 109.02 173.88 C 103.02 174.11 96.98 174.12 90.98 173.88 C 88.19 173.89 87.45 170.64 86.14 168.76 C 72.43 166.39 59.27 160.42 49.01 150.94 C 46.55 148.73 44.44 145.91 41.16 144.87 C 35.23 142.73 29.85 138.99 26.14 133.87 C 19.22 124.60 17.54 112.20 20.07 101.08 C 22.05 91.81 27.92 84.00 33.99 76.97 C 36.70 73.67 40.87 71.31 41.89 66.89 C 45.81 53.81 55.12 42.63 66.93 35.89 M 76.70 35.73 C 63.34 40.85 52.18 51.38 46.79 64.69 L 46.42 64.26 C 46.01 65.99 45.59 67.72 45.15 69.44 C 44.78 70.63 44.45 71.83 44.17 73.04 C 42.57 74.30 39.85 75.19 39.51 77.40 C 31.57 85.08 24.58 94.82 23.38 106.10 C 22.16 111.73 23.44 117.50 24.97 122.93 C 27.94 132.15 35.85 140.02 45.56 141.62 C 56.64 154.31 72.35 163.05 89.18 164.76 C 89.87 166.43 90.54 168.10 91.22 169.77 C 97.05 169.88 102.89 169.93 108.73 169.75 C 109.39 168.09 110.05 166.44 110.72 164.79 C 127.34 163.01 143.03 154.58 153.94 141.95 C 161.63 140.27 168.64 135.35 172.45 128.41 C 176.25 121.73 177.26 113.79 176.47 106.23 C 175.44 94.91 168.37 85.19 160.48 77.47 C 160.06 75.27 157.36 74.32 155.75 73.03 C 155.41 71.82 155.02 70.63 154.57 69.46 C 154.19 67.70 153.82 65.94 153.46 64.18 L 153.04 64.66 C 150.29 58.30 146.53 52.32 141.50 47.50 C 130.32 36.48 114.45 31.27 98.97 30.94 C 91.40 31.62 83.75 32.72 76.70 35.73 Z" />
</g>
<g id="#e42e2aff">
<path fill="#e42e2a" opacity="1.00" d=" M 76.70 35.73 C 83.75 32.72 91.40 31.62 98.97 30.94 C 114.45 31.27 130.32 36.48 141.50 47.50 C 146.53 52.32 150.29 58.30 153.04 64.66 C 150.61 67.72 147.25 70.46 146.62 74.52 C 145.65 80.82 144.92 87.18 144.94 93.56 C 147.50 87.41 147.58 80.65 149.33 74.29 C 149.90 71.72 152.61 70.77 154.57 69.46 C 155.02 70.63 155.41 71.82 155.75 73.03 C 157.77 82.81 156.44 92.72 155.97 102.56 C 160.03 94.84 159.68 85.91 160.48 77.47 C 168.37 85.19 175.44 94.91 176.47 106.23 C 177.26 113.79 176.25 121.73 172.45 128.41 C 168.64 135.35 161.63 140.27 153.94 141.95 C 156.20 139.28 158.38 136.53 160.89 134.09 C 162.78 132.42 165.41 130.86 165.36 127.99 C 166.28 122.14 160.29 116.03 154.42 118.40 C 151.06 119.48 150.49 123.19 149.96 126.17 C 149.00 130.50 145.74 133.53 142.33 136.07 C 135.07 139.61 128.50 144.39 122.10 149.28 C 119.66 150.65 116.78 151.75 115.30 154.29 C 113.39 157.61 112.19 161.27 110.72 164.79 C 110.05 166.44 109.39 168.09 108.73 169.75 C 102.89 169.93 97.05 169.88 91.22 169.77 C 90.54 168.10 89.87 166.43 89.18 164.76 C 87.72 161.27 86.51 157.64 84.59 154.35 C 83.12 151.84 80.31 150.68 77.89 149.32 C 71.45 144.49 64.97 139.55 57.62 136.16 C 54.20 133.60 50.92 130.55 50.00 126.19 C 49.44 122.72 48.16 118.21 43.88 118.07 C 37.25 116.71 32.41 125.16 35.21 130.71 C 36.19 132.13 37.74 133.01 39.05 134.10 C 41.41 136.44 43.45 139.07 45.56 141.62 C 35.85 140.02 27.94 132.15 24.97 122.93 C 23.44 117.50 22.16 111.73 23.38 106.10 C 24.58 94.82 31.57 85.08 39.51 77.40 C 40.01 86.80 40.28 96.52 44.69 105.08 C 43.21 94.47 41.91 83.65 44.17 73.04 C 44.45 71.83 44.78 70.63 45.15 69.44 C 47.16 70.76 50.07 71.62 50.66 74.27 C 52.00 79.56 52.62 85.01 53.72 90.35 C 54.72 95.15 54.04 100.08 54.60 104.92 C 55.18 108.03 55.16 111.89 58.21 113.75 C 69.58 122.07 80.99 130.35 92.29 138.75 C 95.05 140.44 94.62 143.96 95.06 146.73 C 95.10 147.28 95.20 148.38 95.25 148.93 C 95.36 150.35 95.49 151.76 95.64 153.18 C 95.69 153.68 95.80 154.69 95.85 155.19 C 95.95 156.35 96.03 157.52 96.10 158.69 C 96.12 159.23 96.17 160.32 96.20 160.86 C 96.23 161.37 96.30 162.39 96.33 162.90 C 98.82 163.13 101.32 163.21 103.81 163.14 C 103.89 162.60 104.06 161.54 104.14 161.01 C 104.21 160.48 104.34 159.42 104.41 158.89 C 104.57 157.63 104.71 156.37 104.88 155.11 C 104.95 154.59 105.09 153.54 105.16 153.02 C 105.32 151.67 105.45 150.32 105.55 148.97 C 105.71 146.13 105.67 143.22 106.60 140.51 C 107.59 139.19 108.94 138.22 110.24 137.23 C 122.01 128.76 133.66 120.12 145.33 111.52 C 145.36 105.57 145.92 99.63 146.26 93.70 C 132.18 99.51 117.35 104.11 101.98 104.33 C 85.75 104.70 69.78 100.34 55.06 93.75 C 55.33 89.47 54.42 85.23 54.04 80.98 C 53.63 77.85 53.61 74.58 52.32 71.64 C 50.85 69.05 48.69 66.96 46.79 64.69 C 52.18 51.38 63.34 40.85 76.70 35.73 Z" />
</g>
<g id="#6a0c10ff">
<path fill="#6a0c10" opacity="1.00" d=" M 46.42 64.26 L 46.79 64.69 C 48.69 66.96 50.85 69.05 52.32 71.64 C 53.61 74.58 53.63 77.85 54.04 80.98 C 54.42 85.23 55.33 89.47 55.06 93.75 C 54.61 97.46 54.60 101.19 54.60 104.92 C 54.04 100.08 54.72 95.15 53.72 90.35 C 52.62 85.01 52.00 79.56 50.66 74.27 C 50.07 71.62 47.16 70.76 45.15 69.44 C 45.59 67.72 46.01 65.99 46.42 64.26 Z" />
<path fill="#6a0c10" opacity="1.00" d=" M 155.75 73.03 C 157.36 74.32 160.06 75.27 160.48 77.47 C 159.68 85.91 160.03 94.84 155.97 102.56 C 156.44 92.72 157.77 82.81 155.75 73.03 Z" />
</g>
<g id="#770b0bff">
<path fill="#770b0b" opacity="1.00" d=" M 153.04 64.66 L 153.46 64.18 C 153.82 65.94 154.19 67.70 154.57 69.46 C 152.61 70.77 149.90 71.72 149.33 74.29 C 147.58 80.65 147.50 87.41 144.94 93.56 C 144.92 87.18 145.65 80.82 146.62 74.52 C 147.25 70.46 150.61 67.72 153.04 64.66 Z" />
</g>
<g id="#620b0eff">
<path fill="#620b0e" opacity="1.00" d=" M 39.51 77.40 C 39.85 75.19 42.57 74.30 44.17 73.04 C 41.91 83.65 43.21 94.47 44.69 105.08 C 40.28 96.52 40.01 86.80 39.51 77.40 Z" />
<path fill="#620b0e" opacity="1.00" d=" M 35.21 130.71 C 32.41 125.16 37.25 116.71 43.88 118.07 C 48.16 118.21 49.44 122.72 50.00 126.19 C 48.62 124.18 47.41 121.93 45.41 120.47 C 42.04 118.60 37.41 120.96 36.50 124.61 C 35.46 127.99 37.65 131.17 39.05 134.10 C 37.74 133.01 36.19 132.13 35.21 130.71 Z" />
<path fill="#620b0e" opacity="1.00" d=" M 154.42 118.40 C 160.29 116.03 166.28 122.14 165.36 127.99 C 165.41 130.86 162.78 132.42 160.89 134.09 C 162.17 131.26 164.15 128.30 163.47 125.06 C 162.81 121.18 158.04 118.56 154.50 120.41 C 152.46 121.84 151.31 124.15 149.96 126.17 C 150.49 123.19 151.06 119.48 154.42 118.40 Z" />
<path fill="#620b0e" opacity="1.00" d=" M 57.62 136.16 C 64.97 139.55 71.45 144.49 77.89 149.32 C 70.13 146.77 63.23 142.04 57.62 136.16 Z" />
<path fill="#620b0e" opacity="1.00" d=" M 122.10 149.28 C 128.50 144.39 135.07 139.61 142.33 136.07 C 136.75 141.99 129.85 146.71 122.10 149.28 Z" />
</g>
<g id="#a4ea97ff">
<path fill="#a4ea97" opacity="1.00" d=" M 54.60 104.92 C 54.60 101.19 54.61 97.46 55.06 93.75 C 69.78 100.34 85.75 104.70 101.98 104.33 C 117.35 104.11 132.18 99.51 146.26 93.70 C 145.92 99.63 145.36 105.57 145.33 111.52 C 133.66 120.12 122.01 128.76 110.24 137.23 C 108.94 138.22 107.59 139.19 106.60 140.51 C 105.67 143.22 105.71 146.13 105.55 148.97 C 104.05 144.82 98.44 147.14 95.06 146.73 C 94.62 143.96 95.05 140.44 92.29 138.75 C 80.99 130.35 69.58 122.07 58.21 113.75 C 55.16 111.89 55.18 108.03 54.60 104.92 Z" />
</g>
<g id="#b4b4b4ff">
<path fill="#b4b4b4" opacity="1.00" d=" M 36.50 124.61 C 37.41 120.96 42.04 118.60 45.41 120.47 C 47.41 121.93 48.62 124.18 50.00 126.19 C 50.92 130.55 54.20 133.60 57.62 136.16 C 63.23 142.04 70.13 146.77 77.89 149.32 C 80.31 150.68 83.12 151.84 84.59 154.35 C 86.51 157.64 87.72 161.27 89.18 164.76 C 72.35 163.05 56.64 154.31 45.56 141.62 C 43.45 139.07 41.41 136.44 39.05 134.10 C 37.65 131.17 35.46 127.99 36.50 124.61 Z" />
<path fill="#b4b4b4" opacity="1.00" d=" M 154.50 120.41 C 158.04 118.56 162.81 121.18 163.47 125.06 C 164.15 128.30 162.17 131.26 160.89 134.09 C 158.38 136.53 156.20 139.28 153.94 141.95 C 143.03 154.58 127.34 163.01 110.72 164.79 C 112.19 161.27 113.39 157.61 115.30 154.29 C 116.78 151.75 119.66 150.65 122.10 149.28 C 129.85 146.71 136.75 141.99 142.33 136.07 C 145.74 133.53 149.00 130.50 149.96 126.17 C 151.31 124.15 152.46 121.84 154.50 120.41 Z" />
</g>
<g id="#4e2422ff">
<path fill="#4e2422" opacity="1.00" d=" M 95.06 146.73 C 98.44 147.14 104.05 144.82 105.55 148.97 C 102.12 149.02 98.68 149.01 95.25 148.93 C 95.20 148.38 95.10 147.28 95.06 146.73 Z" />
</g>
<g id="#b7b0afff">
<path fill="#b7b0af" opacity="1.00" d=" M 95.25 148.93 C 98.68 149.01 102.12 149.02 105.55 148.97 C 105.45 150.32 105.32 151.67 105.16 153.02 C 101.98 152.99 98.81 153.03 95.64 153.18 C 95.49 151.76 95.36 150.35 95.25 148.93 Z" />
</g>
<g id="#4f201fff">
<path fill="#4f201f" opacity="1.00" d=" M 95.64 153.18 C 98.81 153.03 101.98 152.99 105.16 153.02 C 105.09 153.54 104.95 154.59 104.88 155.11 C 101.88 155.36 98.86 155.37 95.85 155.19 C 95.80 154.69 95.69 153.68 95.64 153.18 Z" />
</g>
<g id="#b3b3b0ff">
<path fill="#b3b3b0" opacity="1.00" d=" M 95.85 155.19 C 98.86 155.37 101.88 155.36 104.88 155.11 C 104.71 156.37 104.57 157.63 104.41 158.89 C 101.64 158.70 98.87 158.65 96.10 158.69 C 96.03 157.52 95.95 156.35 95.85 155.19 Z" />
</g>
<g id="#4e2b2cff">
<path fill="#4e2b2c" opacity="1.00" d=" M 96.10 158.69 C 98.87 158.65 101.64 158.70 104.41 158.89 C 104.34 159.42 104.21 160.48 104.14 161.01 C 101.49 161.00 98.85 160.95 96.20 160.86 C 96.17 160.32 96.12 159.23 96.10 158.69 Z" />
</g>
<g id="#d39e95ff">
<path fill="#d39e95" opacity="1.00" d=" M 96.20 160.86 C 98.85 160.95 101.49 161.00 104.14 161.01 C 104.06 161.54 103.89 162.60 103.81 163.14 C 101.32 163.21 98.82 163.13 96.33 162.90 C 96.30 162.39 96.23 161.37 96.20 160.86 Z" />
</g>
</svg>
