<?xml version="1.0" encoding="UTF-8" ?>
<!DOCTYPE svg PUBLIC "-//W3C//DTD SVG 1.1//EN" "http://www.w3.org/Graphics/SVG/1.1/DTD/svg11.dtd">
<svg width="200pt" height="200pt" viewBox="0 0 200 200" version="1.1" xmlns="http://www.w3.org/2000/svg">
<g id="#000000ff">
<path fill="#000000" opacity="1.00" d=" M 80.89 23.87 C 94.11 18.50 109.00 17.67 122.90 20.66 C 140.28 24.38 155.88 36.12 163.88 52.04 C 165.64 55.40 166.44 59.20 168.63 62.34 C 169.62 63.67 169.76 65.38 169.54 66.98 C 168.42 75.03 167.28 83.08 165.75 91.06 C 165.54 92.75 164.83 94.60 165.76 96.21 C 170.29 106.62 174.72 117.49 175.01 129.00 C 175.25 135.08 173.19 141.03 169.70 145.95 C 170.60 148.85 171.92 151.84 171.46 154.95 C 170.81 157.46 169.55 159.74 168.44 162.06 C 170.41 164.80 174.98 167.33 173.38 171.27 C 171.42 174.28 169.10 177.08 166.75 179.79 C 164.45 182.29 161.00 180.19 158.36 179.51 C 136.33 172.80 113.10 170.07 90.10 170.91 C 78.39 171.68 66.10 172.88 55.88 179.15 C 52.73 180.81 50.29 177.43 48.78 175.13 C 44.54 168.57 39.95 161.86 38.15 154.15 C 37.01 149.86 41.47 147.16 44.72 145.60 C 40.67 137.91 37.39 129.54 37.49 120.70 C 34.09 120.90 30.54 121.00 27.34 119.64 C 24.84 118.62 24.12 114.90 26.09 113.05 C 35.01 107.02 42.00 98.59 48.46 90.09 C 46.68 82.19 45.87 74.10 45.58 66.02 C 45.21 63.06 47.27 60.68 48.19 58.04 C 53.84 42.84 65.82 30.00 80.89 23.87 M 85.80 26.46 C 68.53 32.06 55.65 47.04 50.33 64.11 L 49.75 64.07 C 49.95 73.26 50.91 82.45 53.09 91.39 L 52.61 91.18 C 49.88 95.75 46.26 99.70 42.74 103.67 C 38.56 108.15 34.34 112.72 29.14 116.05 C 33.66 117.19 38.39 116.59 42.58 114.62 C 39.87 125.66 44.24 136.89 50.13 146.11 C 50.31 146.75 50.66 148.03 50.84 148.66 C 51.41 148.03 51.97 147.40 52.53 146.76 C 50.34 138.41 50.24 129.48 52.55 121.14 C 52.62 125.29 53.18 129.49 54.89 133.30 C 51.78 137.12 54.78 142.23 55.45 146.48 L 55.62 146.51 C 55.92 147.72 56.24 148.94 56.56 150.16 C 55.29 149.67 54.03 149.17 52.78 148.64 C 48.86 148.55 44.87 149.33 42.09 152.33 C 43.96 160.91 49.22 168.29 54.18 175.37 C 62.44 170.10 72.33 168.36 81.91 167.32 C 109.45 165.16 137.51 168.12 163.77 176.85 C 165.71 174.44 167.63 172.02 169.53 169.58 C 167.46 167.28 165.32 165.04 163.43 162.60 C 164.03 161.47 164.61 160.34 165.18 159.20 C 165.90 157.50 166.72 155.84 167.29 154.08 C 167.31 150.94 165.88 148.05 164.71 145.22 C 168.77 140.87 171.04 134.94 170.76 128.98 C 170.44 116.85 165.13 105.67 160.57 94.67 C 161.69 91.06 162.07 87.29 162.74 83.59 L 162.90 83.67 C 163.32 81.49 163.70 79.31 163.90 77.10 C 164.08 72.57 165.71 68.12 165.09 63.58 L 163.79 63.82 C 161.91 55.91 157.56 48.94 152.66 42.58 C 151.22 43.81 149.40 45.13 147.39 44.73 C 148.17 43.10 150.19 42.16 151.67 41.11 C 144.61 35.06 136.84 28.81 127.76 26.53 C 114.35 21.77 99.29 22.17 85.80 26.46 Z" />
</g>
<g id="#9e9e9eff">
<path fill="#9e9e9e" opacity="1.00" d=" M 85.80 26.46 C 99.29 22.17 114.35 21.77 127.76 26.53 C 124.16 30.93 119.76 34.53 115.51 38.27 C 106.46 32.46 96.14 29.12 85.80 26.46 Z" />
</g>
<g id="#f0f0f0ff">
<path fill="#f0f0f0" opacity="1.00" d=" M 50.33 64.11 C 55.65 47.04 68.53 32.06 85.80 26.46 C 96.14 29.12 106.46 32.46 115.51 38.27 C 126.24 45.10 134.15 55.77 138.59 67.61 C 129.80 69.18 120.87 69.00 111.98 69.32 C 103.31 70.02 94.67 68.60 86.03 68.15 C 79.63 67.80 73.35 66.39 66.95 66.09 C 61.35 65.86 55.93 64.28 50.33 64.11 Z" />
</g>
<g id="#c8cacbff">
<path fill="#c8cacb" opacity="1.00" d=" M 127.76 26.53 C 136.84 28.81 144.61 35.06 151.67 41.11 C 150.19 42.16 148.17 43.10 147.39 44.73 C 149.40 45.13 151.22 43.81 152.66 42.58 C 157.56 48.94 161.91 55.91 163.79 63.82 C 155.46 65.43 147.17 68.09 138.59 67.61 C 134.15 55.77 126.24 45.10 115.51 38.27 C 119.76 34.53 124.16 30.93 127.76 26.53 Z" />
<path fill="#c8cacb" opacity="1.00" d=" M 71.54 114.80 C 86.39 119.43 101.76 124.29 117.53 122.36 C 118.31 131.72 116.20 140.84 115.23 150.08 C 115.77 149.88 116.84 149.47 117.38 149.27 C 116.55 150.96 115.38 152.45 113.40 152.81 C 113.83 150.32 114.51 147.88 115.41 145.51 C 114.61 145.12 113.79 144.78 112.95 144.49 C 105.11 143.16 97.08 143.15 89.28 141.53 C 89.39 141.21 89.61 140.56 89.72 140.24 C 84.17 138.63 78.82 136.48 73.40 134.51 C 73.12 134.41 72.85 134.31 72.58 134.22 C 72.26 127.74 71.06 121.30 71.54 114.80 Z" />
<path fill="#c8cacb" opacity="1.00" d=" M 146.89 158.37 C 152.98 157.35 159.18 157.92 165.18 159.20 C 164.61 160.34 164.03 161.47 163.43 162.60 C 158.16 160.35 152.51 159.32 146.89 158.37 Z" />
</g>
<g id="#e3e3e3ff">
<path fill="#e3e3e3" opacity="1.00" d=" M 49.75 64.07 L 50.33 64.11 C 55.93 64.28 61.35 65.86 66.95 66.09 C 73.35 66.39 79.63 67.80 86.03 68.15 C 94.67 68.60 103.31 70.02 111.98 69.32 C 120.87 69.00 129.80 69.18 138.59 67.61 C 147.17 68.09 155.46 65.43 163.79 63.82 L 165.09 63.58 C 165.71 68.12 164.08 72.57 163.90 77.10 C 162.00 79.59 158.73 80.00 155.92 80.82 C 144.34 83.85 132.43 85.11 120.61 86.73 C 122.72 86.98 124.86 87.21 127.00 87.12 C 138.45 86.50 149.81 84.84 161.09 82.85 C 161.50 83.04 162.33 83.41 162.74 83.59 C 162.07 87.29 161.69 91.06 160.57 94.67 C 154.40 95.88 148.32 97.68 142.00 97.92 C 138.30 98.17 134.75 99.44 131.04 99.52 C 125.72 99.68 120.40 99.64 115.10 100.07 C 115.29 102.75 115.48 105.44 115.75 108.12 C 115.45 105.34 114.93 102.59 114.29 99.88 C 102.50 99.97 90.59 100.64 78.93 98.42 C 77.27 98.10 76.08 96.78 74.69 95.92 C 70.73 93.31 66.17 96.60 62.00 95.02 C 58.92 94.10 56.03 92.67 53.09 91.39 C 50.91 82.45 49.95 73.26 49.75 64.07 Z" />
<path fill="#e3e3e3" opacity="1.00" d=" M 55.45 146.48 C 54.78 142.23 51.78 137.12 54.89 133.30 C 59.91 144.50 70.43 152.38 81.98 155.92 C 79.19 150.24 76.31 144.58 74.39 138.54 C 79.38 139.41 84.35 140.36 89.28 141.53 C 97.08 143.15 105.11 143.16 112.95 144.49 C 113.79 144.78 114.61 145.12 115.41 145.51 C 114.51 147.88 113.83 150.32 113.40 152.81 C 115.38 152.45 116.55 150.96 117.38 149.27 C 118.26 147.76 119.09 146.22 119.91 144.68 C 120.42 143.66 120.94 142.64 121.43 141.61 C 122.16 145.88 119.88 149.69 118.25 153.45 C 116.94 156.41 115.00 159.01 113.17 161.66 C 116.32 161.74 119.28 160.57 122.04 159.17 C 129.08 155.46 135.47 149.83 138.91 142.55 C 139.32 144.13 139.64 145.72 139.92 147.33 C 138.10 151.91 135.98 156.36 133.86 160.81 C 144.37 159.69 153.43 152.56 159.52 144.23 C 159.38 146.27 159.24 148.32 159.12 150.37 C 161.02 148.69 162.95 147.05 164.71 145.22 C 165.88 148.05 167.31 150.94 167.29 154.08 C 166.72 155.84 165.90 157.50 165.18 159.20 C 159.18 157.92 152.98 157.35 146.89 158.37 C 152.51 159.32 158.16 160.35 163.43 162.60 C 165.32 165.04 167.46 167.28 169.53 169.58 C 167.63 172.02 165.71 174.44 163.77 176.85 C 137.51 168.12 109.45 165.16 81.91 167.32 C 72.33 168.36 62.44 170.10 54.18 175.37 C 49.22 168.29 43.96 160.91 42.09 152.33 C 44.87 149.33 48.86 148.55 52.78 148.64 C 54.03 149.17 55.29 149.67 56.56 150.16 C 60.38 151.40 64.40 151.86 68.41 151.96 C 64.30 149.84 60.22 147.37 55.62 146.51 L 55.45 146.48 Z" />
</g>
<g id="#b7b7b7ff">
<path fill="#b7b7b7" opacity="1.00" d=" M 155.92 80.82 C 158.73 80.00 162.00 79.59 163.90 77.10 C 163.70 79.31 163.32 81.49 162.90 83.67 L 162.74 83.59 C 162.33 83.41 161.50 83.04 161.09 82.85 C 149.81 84.84 138.45 86.50 127.00 87.12 C 124.86 87.21 122.72 86.98 120.61 86.73 C 132.43 85.11 144.34 83.85 155.92 80.82 Z" />
</g>
<g id="#f0e036ff">
<path fill="#f0e036" opacity="1.00" d=" M 52.61 91.18 L 53.09 91.39 C 56.03 92.67 58.92 94.10 62.00 95.02 C 66.17 96.60 70.73 93.31 74.69 95.92 C 74.53 97.43 74.39 98.96 74.14 100.47 C 73.93 100.96 73.53 101.96 73.32 102.46 C 71.97 106.42 71.84 110.66 71.54 114.80 C 71.06 121.30 72.26 127.74 72.58 134.22 C 72.85 134.31 73.12 134.41 73.40 134.51 C 73.72 135.85 74.02 137.21 74.39 138.54 C 76.31 144.58 79.19 150.24 81.98 155.92 C 70.43 152.38 59.91 144.50 54.89 133.30 C 53.18 129.49 52.62 125.29 52.55 121.14 C 50.24 129.48 50.34 138.41 52.53 146.76 C 51.97 147.40 51.41 148.03 50.84 148.66 C 50.66 148.03 50.31 146.75 50.13 146.11 C 44.24 136.89 39.87 125.66 42.58 114.62 C 38.39 116.59 33.66 117.19 29.14 116.05 C 34.34 112.72 38.56 108.15 42.74 103.67 C 46.26 99.70 49.88 95.75 52.61 91.18 Z" />
<path fill="#f0e036" opacity="1.00" d=" M 142.00 97.92 C 148.32 97.68 154.40 95.88 160.57 94.67 C 165.13 105.67 170.44 116.85 170.76 128.98 C 171.04 134.94 168.77 140.87 164.71 145.22 C 162.95 147.05 161.02 148.69 159.12 150.37 C 159.24 148.32 159.38 146.27 159.52 144.23 C 153.43 152.56 144.37 159.69 133.86 160.81 C 135.98 156.36 138.10 151.91 139.92 147.33 C 141.09 144.89 142.40 142.40 142.19 139.60 C 140.74 140.18 139.42 141.01 138.91 142.55 C 135.47 149.83 129.08 155.46 122.04 159.17 C 119.28 160.57 116.32 161.74 113.17 161.66 C 115.00 159.01 116.94 156.41 118.25 153.45 C 119.88 149.69 122.16 145.88 121.43 141.61 C 120.94 142.64 120.42 143.66 119.91 144.68 C 119.09 146.22 118.26 147.76 117.38 149.27 C 116.84 149.47 115.77 149.88 115.23 150.08 C 116.20 140.84 118.31 131.72 117.53 122.36 C 117.10 117.59 116.18 112.89 115.75 108.12 C 115.48 105.44 115.29 102.75 115.10 100.07 C 120.40 99.64 125.72 99.68 131.04 99.52 C 134.75 99.44 138.30 98.17 142.00 97.92 Z" />
</g>
<g id="#f9e1cbff">
<path fill="#f9e1cb" opacity="1.00" d=" M 74.69 95.92 C 76.08 96.78 77.27 98.10 78.93 98.42 C 90.59 100.64 102.50 99.97 114.29 99.88 C 114.93 102.59 115.45 105.34 115.75 108.12 C 116.18 112.89 117.10 117.59 117.53 122.36 C 101.76 124.29 86.39 119.43 71.54 114.80 C 71.84 110.66 71.97 106.42 73.32 102.46 C 79.05 102.55 84.43 104.81 89.21 107.81 C 91.96 109.39 94.76 111.76 98.16 110.82 C 96.54 106.50 91.98 104.59 88.06 102.87 C 83.66 101.07 78.88 100.28 74.14 100.47 C 74.39 98.96 74.53 97.43 74.69 95.92 Z" />
</g>
<g id="#946e3eff">
<path fill="#946e3e" opacity="1.00" d=" M 74.14 100.47 C 78.88 100.28 83.66 101.07 88.06 102.87 C 91.98 104.59 96.54 106.50 98.16 110.82 C 94.76 111.76 91.96 109.39 89.21 107.81 C 84.43 104.81 79.05 102.55 73.32 102.46 C 73.53 101.96 73.93 100.96 74.14 100.47 Z" />
</g>
<g id="#a5a6a6ff">
<path fill="#a5a6a6" opacity="1.00" d=" M 73.40 134.51 C 78.82 136.48 84.17 138.63 89.72 140.24 C 89.61 140.56 89.39 141.21 89.28 141.53 C 84.35 140.36 79.38 139.41 74.39 138.54 C 74.02 137.21 73.72 135.85 73.40 134.51 Z" />
</g>
<g id="#e5da60ff">
<path fill="#e5da60" opacity="1.00" d=" M 138.91 142.55 C 139.42 141.01 140.74 140.18 142.19 139.60 C 142.40 142.40 141.09 144.89 139.92 147.33 C 139.64 145.72 139.32 144.13 138.91 142.55 Z" />
</g>
<g id="#cccccdff">
<path fill="#cccccd" opacity="1.00" d=" M 55.62 146.51 C 60.22 147.37 64.30 149.84 68.41 151.96 C 64.40 151.86 60.38 151.40 56.56 150.16 C 56.24 148.94 55.92 147.72 55.62 146.51 Z" />
</g>
</svg>
