<?xml version="1.0" encoding="UTF-8" ?>
<!DOCTYPE svg PUBLIC "-//W3C//DTD SVG 1.1//EN" "http://www.w3.org/Graphics/SVG/1.1/DTD/svg11.dtd">
<svg width="200pt" height="200pt" viewBox="0 0 200 200" version="1.1" xmlns="http://www.w3.org/2000/svg">
<g id="#000000ff">
<path fill="#000000" opacity="1.00" d=" M 64.68 22.72 C 74.46 16.44 86.68 14.63 98.00 16.91 C 101.64 17.50 105.17 19.28 108.93 18.56 C 120.94 16.87 133.57 20.28 142.94 28.01 C 154.70 37.61 161.45 52.02 164.70 66.58 C 166.01 70.96 171.07 72.09 174.14 74.82 C 176.02 77.33 174.06 80.12 172.01 81.71 C 175.10 80.84 179.41 82.14 179.03 86.03 C 177.83 90.66 173.60 93.93 169.23 95.43 C 170.71 96.91 172.70 98.70 171.79 101.05 C 170.82 104.12 167.06 104.43 164.55 105.63 C 164.07 110.86 163.84 116.19 164.80 121.37 C 165.46 124.03 168.02 127.19 165.43 129.63 C 162.57 132.44 158.70 129.59 155.73 128.50 C 153.77 132.20 151.32 135.60 148.55 138.74 C 153.54 144.18 157.82 150.32 160.98 157.01 C 163.09 161.46 163.23 167.09 160.28 171.20 C 157.08 175.85 150.95 177.70 145.55 176.68 C 137.61 175.26 128.52 174.66 121.58 179.52 C 107.07 186.82 88.95 186.92 74.51 179.39 C 67.65 174.76 58.79 175.23 51.00 176.63 C 45.92 177.63 40.18 176.25 36.73 172.23 C 33.29 168.36 32.90 162.54 34.86 157.89 C 37.89 150.95 42.37 144.74 47.30 139.03 C 44.17 135.87 41.53 132.25 39.36 128.37 C 36.52 129.83 32.26 132.62 29.72 129.18 C 27.51 126.41 30.50 123.58 31.40 120.97 C 33.06 115.64 32.75 109.96 32.86 104.45 C 30.71 103.84 28.17 102.61 28.23 99.99 C 28.64 93.75 34.23 89.34 34.42 83.04 C 31.30 83.31 28.14 83.88 25.02 83.36 C 21.69 82.61 20.80 77.50 23.91 75.89 C 27.53 73.48 30.29 70.09 33.02 66.77 C 31.17 66.49 28.90 67.08 27.37 65.68 C 25.49 64.18 25.30 60.86 27.33 59.41 C 29.94 57.39 32.70 55.51 34.89 53.01 C 44.48 42.61 52.38 30.23 64.68 22.72 M 55.58 35.67 C 46.80 44.40 40.49 55.60 30.10 62.66 C 35.79 62.52 40.93 60.00 46.06 57.85 C 39.40 64.97 34.22 73.58 26.38 79.51 C 31.03 78.70 36.03 78.96 40.23 76.45 C 38.74 80.41 38.58 84.68 37.64 88.77 C 35.94 92.54 33.47 95.96 32.34 99.99 C 33.76 100.14 35.17 100.11 36.57 99.89 C 36.75 100.70 37.12 102.32 37.30 103.13 C 36.67 111.06 37.90 119.77 33.37 126.82 C 36.21 125.33 39.10 123.75 40.91 120.99 C 43.38 127.92 47.56 134.35 53.61 138.66 C 47.56 144.48 42.60 151.41 38.96 158.97 C 37.27 162.64 37.47 167.57 40.77 170.28 C 43.75 173.22 48.29 172.81 52.09 172.24 C 59.82 170.88 67.89 171.44 75.22 174.33 C 75.31 174.60 75.49 175.13 75.58 175.40 C 88.26 182.07 103.92 182.44 117.15 177.18 C 118.49 176.50 120.23 176.08 120.99 174.67 C 128.26 171.08 136.68 170.99 144.53 172.27 C 148.19 172.85 152.50 173.10 155.44 170.40 C 158.86 167.69 158.87 162.62 157.27 158.91 C 153.74 151.13 148.25 144.48 142.55 138.20 C 148.22 134.06 151.78 127.77 154.19 121.30 C 155.92 124.13 159.07 125.31 161.88 126.74 C 159.28 118.98 159.76 110.65 160.65 102.65 C 161.55 102.32 162.39 101.85 163.23 101.38 C 164.78 101.07 166.26 100.46 167.76 99.94 C 165.73 99.58 163.75 98.98 161.83 98.26 C 162.26 96.26 161.97 93.97 163.01 92.16 C 167.88 92.15 172.24 89.78 175.06 85.84 C 170.65 86.23 166.28 84.96 162.90 82.10 C 162.67 80.35 162.44 78.60 162.20 76.85 C 164.83 77.53 167.56 77.70 170.26 77.52 C 166.45 74.70 161.26 72.17 160.47 66.98 C 156.94 51.18 148.66 35.13 134.00 27.09 C 125.52 22.24 115.42 21.76 105.95 23.03 C 99.04 21.56 92.05 19.49 84.88 20.34 C 73.45 21.06 63.28 27.53 55.58 35.67 Z" />
</g>
<g id="#fff5b9ff">
<path fill="#fff5b9" opacity="1.00" d=" M 55.58 35.67 C 63.28 27.53 73.45 21.06 84.88 20.34 C 92.05 19.49 99.04 21.56 105.95 23.03 C 115.42 21.76 125.52 22.24 134.00 27.09 C 148.66 35.13 156.94 51.18 160.47 66.98 C 161.26 72.17 166.45 74.70 170.26 77.52 C 167.56 77.70 164.83 77.53 162.20 76.85 C 162.44 78.60 162.67 80.35 162.90 82.10 C 166.28 84.96 170.65 86.23 175.06 85.84 C 172.24 89.78 167.88 92.15 163.01 92.16 C 161.97 93.97 162.26 96.26 161.83 98.26 C 163.75 98.98 165.73 99.58 167.76 99.94 C 166.26 100.46 164.78 101.07 163.23 101.38 L 163.14 101.39 C 156.18 101.62 149.05 101.86 142.33 99.70 C 133.91 97.49 126.42 92.96 118.95 88.64 C 124.90 73.11 124.40 55.12 117.29 40.05 C 121.39 54.88 122.09 70.89 117.72 85.75 C 116.28 90.97 113.38 95.58 111.12 100.45 C 110.19 101.34 109.29 102.25 108.35 103.13 C 102.71 107.92 96.22 111.90 89.11 114.10 C 89.72 111.77 90.49 109.47 90.78 107.07 C 89.53 105.33 87.66 104.21 85.93 103.02 C 84.92 102.32 83.91 101.63 82.89 100.95 C 78.66 94.42 73.75 88.18 71.28 80.69 C 68.48 73.95 68.11 66.64 67.43 59.48 C 65.54 68.16 67.12 77.14 70.46 85.25 C 61.71 94.61 48.90 98.32 36.57 99.89 C 35.17 100.11 33.76 100.14 32.34 99.99 C 33.47 95.96 35.94 92.54 37.64 88.77 C 38.58 84.68 38.74 80.41 40.23 76.45 C 36.03 78.96 31.03 78.70 26.38 79.51 C 34.22 73.58 39.40 64.97 46.06 57.85 C 40.93 60.00 35.79 62.52 30.10 62.66 C 40.49 55.60 46.80 44.40 55.58 35.67 M 98.58 95.80 C 103.35 90.99 104.78 83.30 103.92 76.73 C 101.93 83.03 100.42 89.46 98.58 95.80 Z" />
<path fill="#fff5b9" opacity="1.00" d=" M 37.89 100.08 C 44.40 100.12 51.00 99.37 57.05 96.85 C 57.28 99.04 57.47 101.24 57.59 103.44 C 56.15 113.74 59.35 124.06 62.12 133.89 C 62.81 135.84 63.64 137.72 64.40 139.64 C 62.66 137.73 60.97 135.78 59.46 133.68 C 57.17 130.34 55.17 126.79 52.71 123.56 C 52.59 128.09 53.56 132.59 55.64 136.63 C 57.34 139.45 59.64 141.83 61.95 144.14 C 59.12 142.39 56.29 140.63 53.61 138.66 C 47.56 134.35 43.38 127.92 40.91 120.99 C 39.10 123.75 36.21 125.33 33.37 126.82 C 37.90 119.77 36.67 111.06 37.30 103.13 C 37.49 102.11 37.68 101.09 37.89 100.08 Z" />
<path fill="#fff5b9" opacity="1.00" d=" M 134.12 132.55 C 137.67 122.61 137.83 111.88 139.63 101.56 C 146.43 103.62 153.66 103.62 160.65 102.65 C 159.76 110.65 159.28 118.98 161.88 126.74 C 159.07 125.31 155.92 124.13 154.19 121.30 C 151.78 127.77 148.22 134.06 142.55 138.20 C 139.79 140.33 136.85 142.21 133.92 144.08 C 136.34 141.47 138.78 138.81 140.49 135.65 C 142.34 131.84 142.88 127.60 143.03 123.42 C 140.59 126.58 138.61 130.07 136.36 133.36 C 134.73 135.67 132.88 137.82 130.99 139.92 C 132.00 137.45 133.14 135.03 134.12 132.55 Z" />
</g>
<g id="#cbbf8aff">
<path fill="#cbbf8a" opacity="1.00" d=" M 117.72 85.75 C 122.09 70.89 121.39 54.88 117.29 40.05 C 124.40 55.12 124.90 73.11 118.95 88.64 C 126.42 92.96 133.91 97.49 142.33 99.70 C 149.05 101.86 156.18 101.62 163.14 101.39 L 163.23 101.38 C 162.39 101.85 161.55 102.32 160.65 102.65 C 153.66 103.62 146.43 103.62 139.63 101.56 C 139.24 101.44 138.47 101.19 138.09 101.07 C 134.66 99.92 131.46 98.23 128.14 96.83 C 127.32 96.58 126.49 96.35 125.66 96.16 C 123.72 93.51 121.33 91.24 118.74 89.23 C 116.96 92.05 115.18 94.88 113.73 97.88 L 115.43 98.69 L 114.43 99.06 C 113.31 99.48 112.20 99.93 111.12 100.45 C 113.38 95.58 116.28 90.97 117.72 85.75 Z" />
<path fill="#cbbf8a" opacity="1.00" d=" M 67.43 59.48 C 68.11 66.64 68.48 73.95 71.28 80.69 C 73.75 88.18 78.66 94.42 82.89 100.95 C 81.76 100.30 80.61 99.70 79.49 99.03 L 79.21 98.66 C 76.72 94.55 73.69 90.79 71.07 86.76 C 68.41 89.34 65.77 91.94 63.22 94.64 C 62.56 94.72 61.91 94.84 61.26 94.97 C 59.85 95.57 58.46 96.24 57.05 96.85 C 51.00 99.37 44.40 100.12 37.89 100.08 C 37.68 101.09 37.49 102.11 37.30 103.13 C 37.12 102.32 36.75 100.70 36.57 99.89 C 48.90 98.32 61.71 94.61 70.46 85.25 C 67.12 77.14 65.54 68.16 67.43 59.48 Z" />
</g>
<g id="#d5c992ff">
<path fill="#d5c992" opacity="1.00" d=" M 98.58 95.80 C 100.42 89.46 101.93 83.03 103.92 76.73 C 104.78 83.30 103.35 90.99 98.58 95.80 Z" />
</g>
<g id="#ffefdfff">
<path fill="#ffefdf" opacity="1.00" d=" M 63.22 94.64 C 65.77 91.94 68.41 89.34 71.07 86.76 C 73.69 90.79 76.72 94.55 79.21 98.66 C 75.83 97.72 72.44 96.79 69.01 96.01 C 67.09 95.53 65.17 95.02 63.22 94.64 Z" />
</g>
<g id="#fdf0dcff">
<path fill="#fdf0dc" opacity="1.00" d=" M 113.73 97.88 C 115.18 94.88 116.96 92.05 118.74 89.23 C 121.33 91.24 123.72 93.51 125.66 96.16 C 122.14 96.50 118.80 97.69 115.43 98.69 L 113.73 97.88 Z" />
</g>
<g id="#020100ff">
<path fill="#020100" opacity="1.00" d=" M 61.26 94.97 C 61.91 94.84 62.56 94.72 63.22 94.64 C 65.17 95.02 67.09 95.53 69.01 96.01 C 72.44 96.79 75.83 97.72 79.21 98.66 L 79.49 99.03 C 80.61 99.70 81.76 100.30 82.89 100.95 C 83.91 101.63 84.92 102.32 85.93 103.02 C 77.92 99.77 69.59 97.29 61.26 94.97 Z" />
<path fill="#020100" opacity="1.00" d=" M 115.43 98.69 C 118.80 97.69 122.14 96.50 125.66 96.16 C 126.49 96.35 127.32 96.58 128.14 96.83 C 126.39 97.14 124.65 97.47 122.91 97.80 C 121.92 98.21 120.93 98.61 119.93 98.99 C 118.93 99.30 117.91 99.59 116.89 99.86 C 114.01 100.83 111.06 101.70 108.35 103.13 C 109.29 102.25 110.19 101.34 111.12 100.45 C 112.20 99.93 113.31 99.48 114.43 99.06 L 115.43 98.69 Z" />
<path fill="#020100" opacity="1.00" d=" M 52.71 123.56 C 55.17 126.79 57.17 130.34 59.46 133.68 C 58.19 134.67 56.91 135.65 55.64 136.63 C 53.56 132.59 52.59 128.09 52.71 123.56 Z" />
</g>
<g id="#fdf0deff">
<path fill="#fdf0de" opacity="1.00" d=" M 57.05 96.85 C 58.46 96.24 59.85 95.57 61.26 94.97 C 69.59 97.29 77.92 99.77 85.93 103.02 C 87.66 104.21 89.53 105.33 90.78 107.07 C 90.49 109.47 89.72 111.77 89.11 114.10 C 96.22 111.90 102.71 107.92 108.35 103.13 C 111.06 101.70 114.01 100.83 116.89 99.86 C 117.91 99.59 118.93 99.30 119.93 98.99 C 120.93 98.61 121.92 98.21 122.91 97.80 C 124.65 97.47 126.39 97.14 128.14 96.83 C 131.46 98.23 134.66 99.92 138.09 101.07 C 137.18 110.91 134.32 120.43 131.87 129.96 C 129.31 138.57 122.13 144.67 114.84 149.35 C 109.50 152.40 104.26 156.45 98.00 157.19 C 91.73 156.53 86.49 152.42 81.13 149.40 C 74.01 144.80 66.85 138.97 64.27 130.55 C 61.35 121.69 59.67 112.51 57.59 103.44 C 57.47 101.24 57.28 99.04 57.05 96.85 Z" />
</g>
<g id="#f2e3aaff">
<path fill="#f2e3aa" opacity="1.00" d=" M 138.09 101.07 C 138.47 101.19 139.24 101.44 139.63 101.56 C 137.83 111.88 137.67 122.61 134.12 132.55 C 133.37 131.69 132.61 130.83 131.87 129.96 C 134.32 120.43 137.18 110.91 138.09 101.07 Z" />
</g>
<g id="#f2e3adff">
<path fill="#f2e3ad" opacity="1.00" d=" M 62.12 133.89 C 59.35 124.06 56.15 113.74 57.59 103.44 C 59.67 112.51 61.35 121.69 64.27 130.55 C 63.38 131.10 62.50 131.66 61.63 132.24 C 61.75 132.65 61.99 133.48 62.12 133.89 Z" />
</g>
<g id="#000100ff">
<path fill="#000100" opacity="1.00" d=" M 136.36 133.36 C 138.61 130.07 140.59 126.58 143.03 123.42 C 142.88 127.60 142.34 131.84 140.49 135.65 C 139.00 135.09 137.65 134.25 136.36 133.36 Z" />
</g>
<g id="#743401ff">
<path fill="#743401" opacity="1.00" d=" M 114.84 149.35 C 122.13 144.67 129.31 138.57 131.87 129.96 C 132.61 130.83 133.37 131.69 134.12 132.55 C 133.14 135.03 132.00 137.45 130.99 139.92 C 132.88 137.82 134.73 135.67 136.36 133.36 C 137.65 134.25 139.00 135.09 140.49 135.65 C 138.78 138.81 136.34 141.47 133.92 144.08 C 136.85 142.21 139.79 140.33 142.55 138.20 C 148.25 144.48 153.74 151.13 157.27 158.91 C 158.87 162.62 158.86 167.69 155.44 170.40 C 152.50 173.10 148.19 172.85 144.53 172.27 C 136.68 170.99 128.26 171.08 120.99 174.67 C 122.96 169.19 124.71 163.61 126.07 157.95 C 126.63 156.39 126.04 154.89 125.49 153.44 C 122.29 151.28 118.65 149.91 114.84 149.35 Z" />
<path fill="#743401" opacity="1.00" d=" M 61.63 132.24 C 62.50 131.66 63.38 131.10 64.27 130.55 C 66.85 138.97 74.01 144.80 81.13 149.40 C 77.36 150.05 73.76 151.46 70.57 153.56 C 70.28 155.17 70.15 156.83 70.57 158.43 C 71.84 163.81 73.41 169.11 75.22 174.33 C 67.89 171.44 59.82 170.88 52.09 172.24 C 48.29 172.81 43.75 173.22 40.77 170.28 C 37.47 167.57 37.27 162.64 38.96 158.97 C 42.60 151.41 47.56 144.48 53.61 138.66 C 56.29 140.63 59.12 142.39 61.95 144.14 C 59.64 141.83 57.34 139.45 55.64 136.63 C 56.91 135.65 58.19 134.67 59.46 133.68 C 60.97 135.78 62.66 137.73 64.40 139.64 C 63.64 137.72 62.81 135.84 62.12 133.89 C 61.99 133.48 61.75 132.65 61.63 132.24 Z" />
</g>
<g id="#960c24ff">
<path fill="#960c24" opacity="1.00" d=" M 70.57 153.56 C 73.76 151.46 77.36 150.05 81.13 149.40 C 86.49 152.42 91.73 156.53 98.00 157.19 C 104.26 156.45 109.50 152.40 114.84 149.35 C 118.65 149.91 122.29 151.28 125.49 153.44 C 122.59 153.98 119.58 154.47 117.04 156.08 C 108.81 161.34 98.27 163.20 88.88 160.21 C 82.28 159.19 77.45 153.50 70.57 153.56 Z" />
</g>
<g id="#c20d24ff">
<path fill="#c20d24" opacity="1.00" d=" M 70.57 158.43 C 70.15 156.83 70.28 155.17 70.57 153.56 C 77.45 153.50 82.28 159.19 88.88 160.21 C 98.27 163.20 108.81 161.34 117.04 156.08 C 119.58 154.47 122.59 153.98 125.49 153.44 C 126.04 154.89 126.63 156.39 126.07 157.95 C 124.71 163.61 122.96 169.19 120.99 174.67 C 120.23 176.08 118.49 176.50 117.15 177.18 C 103.92 182.44 88.26 182.07 75.58 175.40 C 75.49 175.13 75.31 174.60 75.22 174.33 C 73.41 169.11 71.84 163.81 70.57 158.43 Z" />
</g>
</svg>
