<?xml version="1.0" encoding="UTF-8" ?>
<!DOCTYPE svg PUBLIC "-//W3C//DTD SVG 1.1//EN" "http://www.w3.org/Graphics/SVG/1.1/DTD/svg11.dtd">
<svg width="200pt" height="200pt" viewBox="0 0 200 200" version="1.1" xmlns="http://www.w3.org/2000/svg">
<g id="#010101ff">
<path fill="#010101" opacity="1.00" d=" M 74.95 19.61 C 83.21 16.21 93.13 19.54 98.47 26.48 C 102.40 21.40 108.60 18.14 115.07 18.21 C 119.55 18.50 123.85 20.09 127.73 22.30 C 139.81 29.04 150.32 38.28 159.53 48.53 C 162.65 52.43 166.18 56.76 166.00 62.05 C 165.61 69.37 161.61 75.75 157.78 81.75 C 156.87 84.81 156.85 88.06 156.31 91.20 C 157.86 94.65 160.35 97.51 163.46 99.65 C 170.35 105.83 178.24 112.32 180.24 121.86 C 182.31 129.89 177.76 138.30 170.86 142.44 C 178.70 148.35 188.31 153.32 192.35 162.80 C 193.64 167.63 193.60 173.34 190.39 177.45 C 187.34 181.34 183.65 184.83 179.39 187.37 C 177.75 188.41 175.51 188.23 174.00 187.05 C 172.43 185.29 172.92 182.75 173.95 180.86 C 169.18 186.03 161.77 187.78 154.98 188.06 C 151.91 187.96 147.65 188.14 146.14 184.82 C 144.87 182.01 147.91 180.23 149.61 178.59 C 151.44 177.23 152.43 174.14 150.41 172.51 C 147.27 170.05 143.05 169.08 139.12 169.79 C 134.25 170.58 129.25 171.79 124.35 170.44 C 121.73 173.08 119.59 176.29 116.46 178.35 C 111.30 180.61 105.54 180.79 100.00 180.80 C 94.14 180.80 88.03 180.77 82.56 178.40 C 79.27 176.48 77.25 173.09 74.58 170.47 C 66.98 172.89 59.11 167.38 51.70 170.75 C 49.89 171.49 47.45 172.71 47.62 175.02 C 47.52 179.02 53.36 179.86 53.22 183.88 C 52.50 187.64 48.10 188.08 44.99 188.05 C 37.94 187.96 30.17 186.25 25.19 180.88 C 26.10 182.80 26.50 185.24 25.06 187.02 C 22.90 188.84 19.84 187.98 17.95 186.22 C 12.03 181.91 5.33 176.02 5.94 167.97 C 5.66 162.65 9.04 158.15 12.48 154.46 C 17.39 149.96 22.90 146.17 28.40 142.44 C 21.04 138.27 16.51 129.17 19.13 120.88 C 22.10 109.56 32.56 102.91 40.55 95.28 C 40.24 90.88 40.07 86.40 39.02 82.11 C 35.20 75.60 30.64 68.88 30.71 61.01 C 31.53 53.62 37.55 48.46 42.08 43.11 C 51.86 33.85 62.32 24.70 74.95 19.61 M 74.13 24.18 C 67.59 27.27 61.63 31.47 56.00 36.00 C 49.26 41.54 42.75 47.49 37.58 54.56 C 36.07 56.75 34.43 59.19 34.70 61.98 C 35.04 68.11 38.38 73.52 41.67 78.52 C 42.19 79.49 42.71 80.46 43.22 81.44 C 43.87 86.51 44.23 91.60 44.75 96.68 L 44.15 97.69 C 38.07 103.03 31.40 107.87 26.56 114.44 C 23.14 119.08 21.04 125.32 23.28 130.92 C 24.71 135.42 29.12 137.73 32.23 140.92 C 33.51 141.95 32.84 143.76 31.70 144.60 C 26.08 149.40 19.37 152.91 14.32 158.38 C 12.01 161.07 9.57 164.21 9.92 167.98 C 9.22 174.22 14.74 178.51 18.99 182.11 C 20.05 182.82 21.11 183.56 22.16 184.30 C 20.11 179.53 19.26 173.70 22.55 169.23 C 23.87 172.46 25.08 175.93 27.85 178.25 C 33.61 183.57 41.94 184.63 49.45 183.82 C 46.23 181.64 43.17 178.27 43.68 174.07 C 44.25 169.51 48.96 167.20 52.94 166.18 C 60.44 163.82 68.38 169.56 75.65 165.83 C 79.61 169.02 81.72 174.78 87.12 175.82 C 93.25 177.14 99.58 176.81 105.80 176.65 C 109.24 176.31 113.07 176.15 115.88 173.89 C 118.31 171.32 120.45 168.48 122.99 166.00 C 131.02 169.45 139.48 163.45 147.54 166.56 C 151.06 167.71 154.95 169.98 155.44 174.03 C 156.05 178.26 152.83 181.64 149.60 183.82 C 155.52 184.39 161.74 184.04 167.07 181.17 C 171.95 178.90 175.02 174.18 176.60 169.21 C 179.83 173.70 179.04 179.57 176.89 184.33 C 177.92 183.62 178.97 182.91 180.02 182.23 C 183.40 179.26 187.21 176.29 188.89 171.97 C 189.16 168.78 189.70 165.17 187.73 162.37 C 182.87 154.19 173.66 150.33 166.92 144.03 C 164.69 141.29 168.94 139.30 170.61 137.68 C 176.25 133.74 178.40 125.85 175.46 119.61 C 171.66 111.10 163.99 105.20 156.85 99.58 C 155.08 97.09 153.58 94.44 152.07 91.80 C 152.85 88.38 152.98 84.85 153.81 81.45 L 153.89 80.15 C 158.00 74.22 162.58 67.47 161.87 59.92 C 160.20 54.61 155.99 50.61 152.36 46.57 C 145.06 39.14 136.94 32.45 128.02 27.05 C 123.43 24.43 118.38 21.62 112.90 22.33 C 106.71 23.01 101.80 27.67 98.58 32.70 C 95.69 28.51 91.85 24.73 86.97 23.00 C 82.76 21.52 78.08 22.27 74.13 24.18 Z" />
</g>
<g id="#d5b700ff">
<path fill="#d5b700" opacity="1.00" d=" M 74.13 24.18 C 78.08 22.27 82.76 21.52 86.97 23.00 C 91.85 24.73 95.69 28.51 98.58 32.70 C 101.80 27.67 106.71 23.01 112.90 22.33 C 118.38 21.62 123.43 24.43 128.02 27.05 C 136.94 32.45 145.06 39.14 152.36 46.57 C 155.99 50.61 160.20 54.61 161.87 59.92 C 162.58 67.47 158.00 74.22 153.89 80.15 C 153.80 79.47 153.61 78.12 153.52 77.45 C 150.41 77.55 147.30 77.55 144.19 77.54 C 144.49 78.92 145.12 80.18 145.87 81.36 C 147.91 84.85 149.75 88.47 152.07 91.80 C 153.58 94.44 155.08 97.09 156.85 99.58 C 160.49 110.53 165.47 122.21 161.95 133.87 C 160.41 139.61 155.48 143.30 150.57 146.09 C 152.82 152.03 158.73 155.31 164.01 158.18 C 169.48 161.21 176.55 162.21 180.19 167.82 C 183.07 172.22 180.96 177.57 180.02 182.23 C 178.97 182.91 177.92 183.62 176.89 184.33 C 179.04 179.57 179.83 173.70 176.60 169.21 C 172.34 164.91 166.18 163.80 161.06 160.94 C 155.21 157.83 148.93 153.87 147.00 147.09 C 146.00 147.16 144.00 147.31 143.00 147.38 C 148.54 141.76 151.43 133.89 150.87 126.02 C 150.59 117.70 148.08 109.59 144.48 102.14 C 143.73 100.29 142.91 98.46 142.02 96.68 C 141.40 95.49 140.74 94.31 140.00 93.19 C 137.20 89.44 134.81 85.41 132.64 81.27 C 132.10 80.05 131.59 78.82 131.11 77.58 C 125.35 77.27 119.58 77.26 113.83 77.64 C 119.33 76.69 124.92 77.44 130.46 77.12 C 127.65 71.22 124.60 65.45 121.53 59.69 C 119.45 55.67 117.63 51.52 115.19 47.71 C 108.37 52.25 103.32 58.88 99.75 66.17 C 95.60 59.42 91.68 52.19 84.92 47.63 C 82.22 51.23 80.55 55.43 78.44 59.36 C 75.30 65.25 72.40 71.26 69.34 77.18 C 74.22 77.34 79.18 76.76 84.01 77.74 C 78.98 77.12 73.89 77.35 68.84 77.55 C 68.32 78.79 67.78 80.03 67.23 81.26 C 65.04 85.39 62.63 89.42 59.86 93.19 C 59.17 94.32 58.56 95.49 57.94 96.65 C 56.72 98.87 55.53 101.12 54.59 103.48 C 50.74 112.94 47.77 123.33 49.63 133.61 C 50.54 138.75 53.39 143.27 56.87 147.07 C 55.28 146.95 53.70 146.83 52.12 146.72 C 51.32 149.16 50.43 151.67 48.53 153.49 C 43.52 158.59 36.97 161.84 30.37 164.37 C 27.48 165.48 24.74 167.03 22.55 169.23 C 19.26 173.70 20.11 179.53 22.16 184.30 C 21.11 183.56 20.05 182.82 18.99 182.11 C 18.04 177.73 16.30 172.90 18.60 168.63 C 21.10 163.14 27.49 161.84 32.42 159.43 C 38.90 156.36 46.11 152.64 48.84 145.54 C 43.25 142.79 38.62 137.89 37.41 131.64 C 35.28 119.88 39.81 108.39 44.15 97.69 L 44.75 96.68 C 47.55 92.31 50.48 88.00 52.78 83.33 C 53.89 81.47 55.34 79.74 55.79 77.56 C 51.09 77.83 46.15 76.68 41.67 78.52 C 38.38 73.52 35.04 68.11 34.70 61.98 C 34.43 59.19 36.07 56.75 37.58 54.56 C 42.75 47.49 49.26 41.54 56.00 36.00 C 61.63 31.47 67.59 27.27 74.13 24.18 Z" />
</g>
<g id="#8f6801ff">
<path fill="#8f6801" opacity="1.00" d=" M 78.44 59.36 C 80.55 55.43 82.22 51.23 84.92 47.63 C 91.68 52.19 95.60 59.42 99.75 66.17 C 103.32 58.88 108.37 52.25 115.19 47.71 C 117.63 51.52 119.45 55.67 121.53 59.69 C 113.54 60.37 106.42 64.27 99.22 67.42 C 92.63 63.95 85.74 60.95 78.44 59.36 Z" />
<path fill="#8f6801" opacity="1.00" d=" M 144.48 102.14 C 148.08 109.59 150.59 117.70 150.87 126.02 C 151.43 133.89 148.54 141.76 143.00 147.38 C 144.00 147.31 146.00 147.16 147.00 147.09 C 148.93 153.87 155.21 157.83 161.06 160.94 C 166.18 163.80 172.34 164.91 176.60 169.21 C 175.02 174.18 171.95 178.90 167.07 181.17 C 161.74 184.04 155.52 184.39 149.60 183.82 C 152.83 181.64 156.05 178.26 155.44 174.03 C 154.95 169.98 151.06 167.71 147.54 166.56 C 139.48 163.45 131.02 169.45 122.99 166.00 C 127.28 160.99 133.18 157.19 136.29 151.30 C 137.46 141.54 141.52 132.50 143.81 123.01 C 145.05 118.60 143.17 114.27 142.66 109.94 C 142.97 107.28 143.87 104.74 144.48 102.14 Z" />
<path fill="#8f6801" opacity="1.00" d=" M 49.63 133.61 C 47.77 123.33 50.74 112.94 54.59 103.48 C 55.34 106.25 56.69 109.12 55.91 112.04 C 55.30 115.32 54.00 118.64 54.83 122.01 C 56.52 129.86 59.75 137.30 61.48 145.14 C 62.16 148.09 61.87 151.52 64.08 153.89 C 67.62 158.17 71.89 161.76 75.65 165.83 C 68.38 169.56 60.44 163.82 52.94 166.18 C 48.96 167.20 44.25 169.51 43.68 174.07 C 43.17 178.27 46.23 181.64 49.45 183.82 C 41.94 184.63 33.61 183.57 27.85 178.25 C 25.08 175.93 23.87 172.46 22.55 169.23 C 24.74 167.03 27.48 165.48 30.37 164.37 C 36.97 161.84 43.52 158.59 48.53 153.49 C 50.43 151.67 51.32 149.16 52.12 146.72 C 53.70 146.83 55.28 146.95 56.87 147.07 C 53.39 143.27 50.54 138.75 49.63 133.61 Z" />
</g>
<g id="#f1c07eff">
<path fill="#f1c07e" opacity="1.00" d=" M 69.34 77.18 C 72.40 71.26 75.30 65.25 78.44 59.36 C 85.74 60.95 92.63 63.95 99.22 67.42 C 106.42 64.27 113.54 60.37 121.53 59.69 C 124.60 65.45 127.65 71.22 130.46 77.12 C 124.92 77.44 119.33 76.69 113.83 77.64 C 112.50 77.92 111.19 78.24 109.89 78.61 C 106.98 76.72 104.39 74.40 101.61 72.33 C 100.50 71.52 98.99 70.55 97.69 71.59 C 94.24 73.70 91.36 76.63 87.93 78.77 C 86.63 78.40 85.33 78.02 84.01 77.74 C 79.18 76.76 74.22 77.34 69.34 77.18 Z" />
<path fill="#f1c07e" opacity="1.00" d=" M 54.59 103.48 C 55.53 101.12 56.72 98.87 57.94 96.65 C 66.62 96.97 75.33 96.33 84.00 96.94 C 90.21 97.24 94.25 102.38 99.01 105.65 C 102.01 103.46 104.84 101.03 107.90 98.93 C 110.85 96.90 114.57 96.84 118.02 96.74 C 126.02 96.74 134.02 96.78 142.02 96.68 C 142.91 98.46 143.73 100.29 144.48 102.14 C 143.87 104.74 142.97 107.28 142.66 109.94 C 143.17 114.27 145.05 118.60 143.81 123.01 C 141.52 132.50 137.46 141.54 136.29 151.30 C 133.18 157.19 127.28 160.99 122.99 166.00 C 120.45 168.48 118.31 171.32 115.88 173.89 C 113.07 176.15 109.24 176.31 105.80 176.65 C 99.58 176.81 93.25 177.14 87.12 175.82 C 81.72 174.78 79.61 169.02 75.65 165.83 C 71.89 161.76 67.62 158.17 64.08 153.89 C 61.87 151.52 62.16 148.09 61.48 145.14 C 59.75 137.30 56.52 129.86 54.83 122.01 C 54.00 118.64 55.30 115.32 55.91 112.04 C 56.69 109.12 55.34 106.25 54.59 103.48 Z" />
</g>
<g id="#9b9e9eff">
<path fill="#9b9e9e" opacity="1.00" d=" M 97.69 71.59 C 98.99 70.55 100.50 71.52 101.61 72.33 C 104.39 74.40 106.98 76.72 109.89 78.61 C 111.19 78.24 112.50 77.92 113.83 77.64 C 119.58 77.26 125.35 77.27 131.11 77.58 C 131.59 78.82 132.10 80.05 132.64 81.27 C 125.28 82.06 117.72 80.36 110.50 82.27 C 110.37 85.97 110.29 89.67 110.59 93.37 C 120.39 92.98 130.20 93.22 140.00 93.19 C 140.74 94.31 141.40 95.49 142.02 96.68 C 134.02 96.78 126.02 96.74 118.02 96.74 C 114.57 96.84 110.85 96.90 107.90 98.93 C 104.84 101.03 102.01 103.46 99.01 105.65 C 94.25 102.38 90.21 97.24 84.00 96.94 C 75.33 96.33 66.62 96.97 57.94 96.65 C 58.56 95.49 59.17 94.32 59.86 93.19 C 69.12 93.26 78.41 92.73 87.64 93.61 C 87.70 90.12 87.66 86.63 87.62 83.13 C 81.33 79.86 73.98 82.17 67.23 81.26 C 67.78 80.03 68.32 78.79 68.84 77.55 C 73.89 77.35 78.98 77.12 84.01 77.74 C 85.33 78.02 86.63 78.40 87.93 78.77 C 91.36 76.63 94.24 73.70 97.69 71.59 M 92.48 82.38 C 91.79 86.05 92.38 89.90 92.28 93.64 C 94.51 95.38 96.74 97.12 99.01 98.80 C 101.25 97.08 103.48 95.36 105.75 93.68 C 105.75 89.92 106.09 86.12 105.60 82.38 C 103.54 80.50 101.17 79.00 99.02 77.24 C 96.85 78.97 94.49 80.47 92.48 82.38 Z" />
<path fill="#9b9e9e" opacity="1.00" d=" M 41.67 78.52 C 46.15 76.68 51.09 77.83 55.79 77.56 C 55.34 79.74 53.89 81.47 52.78 83.33 C 52.90 82.86 53.15 81.92 53.27 81.45 C 49.92 81.39 46.57 81.39 43.22 81.44 C 42.71 80.46 42.19 79.49 41.67 78.52 Z" />
<path fill="#9b9e9e" opacity="1.00" d=" M 145.87 81.36 C 145.12 80.18 144.49 78.92 144.19 77.54 C 147.30 77.55 150.41 77.55 153.52 77.45 C 153.61 78.12 153.80 79.47 153.89 80.15 L 153.81 81.45 C 151.16 81.42 148.51 81.38 145.87 81.36 Z" />
</g>
<g id="#c10e23ff">
<path fill="#c10e23" opacity="1.00" d=" M 92.48 82.38 C 94.49 80.47 96.85 78.97 99.02 77.24 C 101.17 79.00 103.54 80.50 105.60 82.38 C 106.09 86.12 105.75 89.92 105.75 93.68 C 103.48 95.36 101.25 97.08 99.01 98.80 C 96.74 97.12 94.51 95.38 92.28 93.64 C 92.38 89.90 91.79 86.05 92.48 82.38 Z" />
</g>
<g id="#7a6b57ff">
<path fill="#7a6b57" opacity="1.00" d=" M 43.22 81.44 C 46.57 81.39 49.92 81.39 53.27 81.45 C 53.15 81.92 52.90 82.86 52.78 83.33 C 50.48 88.00 47.55 92.31 44.75 96.68 C 44.23 91.60 43.87 86.51 43.22 81.44 Z" />
<path fill="#7a6b57" opacity="1.00" d=" M 59.86 93.19 C 62.63 89.42 65.04 85.39 67.23 81.26 C 73.98 82.17 81.33 79.86 87.62 83.13 C 87.66 86.63 87.70 90.12 87.64 93.61 C 78.41 92.73 69.12 93.26 59.86 93.19 Z" />
<path fill="#7a6b57" opacity="1.00" d=" M 110.50 82.27 C 117.72 80.36 125.28 82.06 132.64 81.27 C 134.81 85.41 137.20 89.44 140.00 93.19 C 130.20 93.22 120.39 92.98 110.59 93.37 C 110.29 89.67 110.37 85.97 110.50 82.27 Z" />
<path fill="#7a6b57" opacity="1.00" d=" M 145.87 81.36 C 148.51 81.38 151.16 81.42 153.81 81.45 C 152.98 84.85 152.85 88.38 152.07 91.80 C 149.75 88.47 147.91 84.85 145.87 81.36 Z" />
</g>
<g id="#b59801ff">
<path fill="#b59801" opacity="1.00" d=" M 26.56 114.44 C 31.40 107.87 38.07 103.03 44.15 97.69 C 39.81 108.39 35.28 119.88 37.41 131.64 C 38.62 137.89 43.25 142.79 48.84 145.54 C 46.11 152.64 38.90 156.36 32.42 159.43 C 27.49 161.84 21.10 163.14 18.60 168.63 C 16.30 172.90 18.04 177.73 18.99 182.11 C 14.74 178.51 9.22 174.22 9.92 167.98 C 9.57 164.21 12.01 161.07 14.32 158.38 C 19.37 152.91 26.08 149.40 31.70 144.60 C 32.84 143.76 33.51 141.95 32.23 140.92 C 29.12 137.73 24.71 135.42 23.28 130.92 C 21.04 125.32 23.14 119.08 26.56 114.44 Z" />
<path fill="#b59801" opacity="1.00" d=" M 156.85 99.58 C 163.99 105.20 171.66 111.10 175.46 119.61 C 178.40 125.85 176.25 133.74 170.61 137.68 C 168.94 139.30 164.69 141.29 166.92 144.03 C 173.66 150.33 182.87 154.19 187.73 162.37 C 189.70 165.17 189.16 168.78 188.89 171.97 C 187.21 176.29 183.40 179.26 180.02 182.23 C 180.96 177.57 183.07 172.22 180.19 167.82 C 176.55 162.21 169.48 161.21 164.01 158.18 C 158.73 155.31 152.82 152.03 150.57 146.09 C 155.48 143.30 160.41 139.61 161.95 133.87 C 165.47 122.21 160.49 110.53 156.85 99.58 Z" />
</g>
</svg>
