<?xml version="1.0" encoding="UTF-8" ?>
<!DOCTYPE svg PUBLIC "-//W3C//DTD SVG 1.1//EN" "http://www.w3.org/Graphics/SVG/1.1/DTD/svg11.dtd">
<svg width="200pt" height="200pt" viewBox="0 0 200 200" version="1.1" xmlns="http://www.w3.org/2000/svg">
<g id="#000100ff">
<path fill="#000100" opacity="1.00" d=" M 72.61 45.48 C 88.67 37.45 108.06 37.02 124.74 43.39 C 129.90 45.20 133.84 49.22 138.90 51.23 C 151.65 57.16 163.78 67.10 167.77 81.09 C 169.52 85.98 168.10 91.53 170.79 96.13 C 174.39 103.37 176.85 111.50 182.75 117.31 C 184.47 118.74 184.37 121.43 182.91 123.01 C 175.88 131.76 166.91 138.84 157.08 144.21 C 155.50 151.86 150.34 158.94 142.92 161.77 C 141.37 162.38 139.43 161.93 138.40 160.61 C 136.31 157.95 135.13 154.73 133.79 151.67 C 131.90 152.04 130.01 152.50 128.35 153.51 C 107.75 165.28 79.45 162.86 62.01 146.45 C 59.19 151.84 55.83 157.13 51.12 161.06 C 49.28 162.57 46.35 161.92 45.11 159.96 C 39.45 152.00 38.40 140.83 42.72 132.03 C 39.23 128.39 36.46 124.15 34.31 119.60 C 31.08 118.86 26.09 119.01 25.21 114.94 C 24.98 111.33 28.29 108.82 29.91 105.89 C 29.80 103.40 28.54 100.44 30.43 98.32 C 31.82 96.56 34.22 97.10 36.15 97.24 C 37.03 96.22 37.91 95.19 38.79 94.17 C 31.88 93.49 24.53 93.17 18.38 89.62 C 15.47 88.22 15.12 83.71 18.00 82.09 C 26.39 76.42 34.98 71.03 43.57 65.67 C 52.94 58.52 61.81 50.47 72.61 45.48 M 75.78 48.74 C 64.66 53.59 55.66 61.87 46.12 69.13 C 37.37 74.63 28.58 80.07 20.05 85.92 C 29.20 90.21 39.64 90.12 49.54 90.00 C 44.89 93.49 40.92 97.79 37.65 102.59 C 36.30 102.13 34.95 101.67 33.61 101.20 C 33.94 103.26 34.25 105.34 34.18 107.44 C 32.47 109.71 30.83 112.04 29.28 114.42 C 31.62 114.94 34.03 115.31 36.42 114.85 C 39.80 120.59 42.50 127.02 48.11 131.05 C 42.86 139.05 43.19 150.05 48.69 157.84 C 54.24 152.23 59.17 145.33 60.51 137.43 C 65.81 146.70 75.98 152.09 85.99 154.82 C 100.76 158.80 117.11 156.21 129.91 147.84 C 132.22 147.77 134.52 147.44 136.73 146.76 C 137.74 150.72 139.50 154.43 141.55 157.96 C 148.65 154.87 152.95 147.63 153.58 140.08 L 153.97 141.13 C 163.83 136.04 172.59 128.92 179.71 120.42 C 174.17 114.93 171.56 107.43 168.11 100.61 L 167.72 101.66 L 168.15 100.51 C 166.85 97.43 164.92 94.45 165.06 90.97 C 164.96 84.20 162.82 77.48 158.83 72.00 C 152.45 63.34 143.06 57.22 133.12 53.38 C 129.63 50.34 125.52 48.06 121.13 46.60 C 106.47 41.63 89.86 42.09 75.78 48.74 Z" />
</g>
<g id="#ffeb00ff">
<path fill="#ffeb00" opacity="1.00" d=" M 75.78 48.74 C 89.86 42.09 106.47 41.63 121.13 46.60 C 125.52 48.06 129.63 50.34 133.12 53.38 C 135.79 56.98 136.88 61.39 137.76 65.70 C 142.94 65.93 148.27 67.16 152.08 70.89 C 160.39 77.80 162.71 90.10 158.96 99.99 C 157.59 103.24 155.70 106.52 152.44 108.20 C 152.37 108.54 152.23 109.23 152.16 109.57 C 148.23 115.96 149.88 123.99 150.84 131.00 L 151.17 132.29 C 151.86 134.92 152.62 137.54 153.58 140.08 C 152.95 147.63 148.65 154.87 141.55 157.96 C 139.50 154.43 137.74 150.72 136.73 146.76 C 136.40 145.48 136.12 144.20 135.88 142.91 C 135.61 137.68 137.11 132.58 138.70 127.65 C 140.78 121.53 144.09 115.59 143.72 108.92 C 139.40 102.65 133.98 97.04 131.23 89.81 C 127.12 93.87 123.31 98.27 118.59 101.66 C 109.92 108.02 100.16 112.86 89.93 116.13 C 87.07 117.09 84.10 117.58 81.10 117.84 C 81.91 116.10 82.71 114.36 83.61 112.66 C 83.92 112.10 84.55 110.98 84.86 110.42 C 84.44 110.21 83.60 109.80 83.18 109.60 C 83.64 109.67 84.57 109.82 85.03 109.90 C 86.94 106.41 89.51 103.07 89.94 98.99 C 85.36 101.46 80.78 103.95 75.97 105.95 C 72.62 107.29 69.24 108.57 65.80 109.66 C 63.21 110.18 60.66 110.84 58.14 111.64 C 57.76 120.37 61.24 128.68 60.51 137.43 C 59.17 145.33 54.24 152.23 48.69 157.84 C 43.19 150.05 42.86 139.05 48.11 131.05 C 51.03 125.57 52.56 119.47 52.81 113.27 C 47.39 114.26 41.89 114.39 36.42 114.85 C 34.03 115.31 31.62 114.94 29.28 114.42 C 30.83 112.04 32.47 109.71 34.18 107.44 C 35.35 105.82 36.50 104.20 37.65 102.59 C 40.92 97.79 44.89 93.49 49.54 90.00 C 39.64 90.12 29.20 90.21 20.05 85.92 C 28.58 80.07 37.37 74.63 46.12 69.13 C 55.66 61.87 64.66 53.59 75.78 48.74 Z" />
</g>
<g id="#009a45ff">
<path fill="#009a45" opacity="1.00" d=" M 133.12 53.38 C 143.06 57.22 152.45 63.34 158.83 72.00 C 162.82 77.48 164.96 84.20 165.06 90.97 C 164.92 94.45 166.85 97.43 168.15 100.51 C 163.15 102.75 157.90 104.60 153.57 108.06 C 153.11 108.58 152.64 109.08 152.16 109.57 C 152.23 109.23 152.37 108.54 152.44 108.20 C 155.70 106.52 157.59 103.24 158.96 99.99 C 162.71 90.10 160.39 77.80 152.08 70.89 C 148.27 67.16 142.94 65.93 137.76 65.70 C 136.88 61.39 135.79 56.98 133.12 53.38 Z" />
</g>
<g id="#fde6ccff">
<path fill="#fde6cc" opacity="1.00" d=" M 118.59 101.66 C 123.31 98.27 127.12 93.87 131.23 89.81 C 133.98 97.04 139.40 102.65 143.72 108.92 C 144.09 115.59 140.78 121.53 138.70 127.65 C 137.11 132.58 135.61 137.68 135.88 142.91 C 133.93 144.60 132.00 146.32 129.91 147.84 C 117.11 156.21 100.76 158.80 85.99 154.82 C 75.98 152.09 65.81 146.70 60.51 137.43 C 61.24 128.68 57.76 120.37 58.14 111.64 C 60.66 110.84 63.21 110.18 65.80 109.66 C 71.47 110.97 76.99 112.82 82.62 114.25 C 82.87 113.86 83.36 113.06 83.61 112.66 C 82.71 114.36 81.91 116.10 81.10 117.84 C 84.10 117.58 87.07 117.09 89.93 116.13 C 100.16 112.86 109.92 108.02 118.59 101.66 M 103.66 114.30 C 105.71 114.90 107.82 116.21 109.99 115.25 C 120.07 112.40 130.19 109.68 140.25 106.78 C 137.65 104.52 134.97 102.36 132.26 100.25 C 122.73 104.95 113.01 109.27 103.66 114.30 Z" />
<path fill="#fde6cc" opacity="1.00" d=" M 153.57 108.06 C 157.90 104.60 163.15 102.75 168.15 100.51 L 167.72 101.66 C 165.01 113.00 161.36 125.36 151.17 132.29 L 150.84 131.00 C 149.88 123.99 148.23 115.96 152.16 109.57 C 152.64 109.08 153.11 108.58 153.57 108.06 Z" />
</g>
<g id="#fde5ceff">
<path fill="#fde5ce" opacity="1.00" d=" M 75.97 105.95 C 80.78 103.95 85.36 101.46 89.94 98.99 C 89.51 103.07 86.94 106.41 85.03 109.90 C 84.57 109.82 83.64 109.67 83.18 109.60 C 80.73 108.46 78.35 107.21 75.97 105.95 Z" />
<path fill="#fde5ce" opacity="1.00" d=" M 33.61 101.20 C 34.95 101.67 36.30 102.13 37.65 102.59 C 36.50 104.20 35.35 105.82 34.18 107.44 C 34.25 105.34 33.94 103.26 33.61 101.20 Z" />
</g>
<g id="#946e3fff">
<path fill="#946e3f" opacity="1.00" d=" M 103.66 114.30 C 113.01 109.27 122.73 104.95 132.26 100.25 C 134.97 102.36 137.65 104.52 140.25 106.78 C 130.19 109.68 120.07 112.40 109.99 115.25 C 107.82 116.21 105.71 114.90 103.66 114.30 Z" />
</g>
<g id="#009a44ff">
<path fill="#009a44" opacity="1.00" d=" M 167.72 101.66 L 168.11 100.61 C 171.56 107.43 174.17 114.93 179.71 120.42 C 172.59 128.92 163.83 136.04 153.97 141.13 L 153.58 140.08 C 152.62 137.54 151.86 134.92 151.17 132.29 C 161.36 125.36 165.01 113.00 167.72 101.66 Z" />
<path fill="#009a44" opacity="1.00" d=" M 129.91 147.84 C 132.00 146.32 133.93 144.60 135.88 142.91 C 136.12 144.20 136.40 145.48 136.73 146.76 C 134.52 147.44 132.22 147.77 129.91 147.84 Z" />
</g>
<g id="#976c42ff">
<path fill="#976c42" opacity="1.00" d=" M 65.80 109.66 C 69.24 108.57 72.62 107.29 75.97 105.95 C 78.35 107.21 80.73 108.46 83.18 109.60 C 83.60 109.80 84.44 110.21 84.86 110.42 C 84.55 110.98 83.92 112.10 83.61 112.66 C 83.36 113.06 82.87 113.86 82.62 114.25 C 76.99 112.82 71.47 110.97 65.80 109.66 Z" />
</g>
<g id="#fde7cbff">
<path fill="#fde7cb" opacity="1.00" d=" M 36.42 114.85 C 41.89 114.39 47.39 114.26 52.81 113.27 C 52.56 119.47 51.03 125.57 48.11 131.05 C 42.50 127.02 39.80 120.59 36.42 114.85 Z" />
</g>
</svg>
