<?xml version="1.0" encoding="UTF-8" ?>
<!DOCTYPE svg PUBLIC "-//W3C//DTD SVG 1.1//EN" "http://www.w3.org/Graphics/SVG/1.1/DTD/svg11.dtd">
<svg width="200pt" height="200pt" viewBox="0 0 200 200" version="1.1" xmlns="http://www.w3.org/2000/svg">
<g id="#000000ff">
<path fill="#000000" opacity="1.00" d=" M 72.07 35.12 C 84.23 29.45 98.04 28.61 111.19 30.33 C 124.86 32.75 137.87 39.39 147.44 49.50 C 153.86 56.28 158.71 64.79 160.14 74.10 C 161.04 79.41 160.26 84.78 159.81 90.09 C 170.22 92.08 174.73 105.17 169.99 114.00 C 167.07 119.64 161.16 123.01 155.14 124.40 C 149.78 137.04 138.87 146.83 126.12 151.68 C 128.09 154.86 130.35 157.86 132.15 161.15 C 133.43 163.21 132.16 166.25 129.85 166.90 C 118.64 170.66 106.66 170.56 94.99 170.32 C 87.57 170.19 80.14 169.16 73.03 167.02 C 70.67 166.46 69.21 163.48 70.41 161.33 C 72.10 158.13 74.31 155.25 76.20 152.18 C 62.93 147.40 51.48 137.45 45.91 124.38 C 40.11 123.10 34.43 119.95 31.39 114.68 C 26.39 106.29 29.98 93.51 39.70 90.44 C 38.41 82.82 38.06 74.82 40.66 67.43 C 45.63 52.64 58.05 41.34 72.07 35.12 M 62.42 45.53 C 53.65 52.05 46.25 61.11 43.71 71.91 C 41.91 79.27 43.41 86.83 44.51 94.16 C 35.08 93.43 30.30 105.77 35.16 112.85 C 38.10 117.79 43.85 119.66 49.08 120.89 C 53.38 132.31 62.44 141.64 73.59 146.53 C 89.12 153.34 107.25 153.69 123.25 148.26 C 136.30 143.80 147.41 133.66 152.09 120.57 C 157.22 119.99 162.45 117.76 165.46 113.39 C 169.86 107.50 167.69 97.65 160.80 94.70 C 159.01 94.16 157.13 94.14 155.30 93.90 C 155.73 86.73 157.19 79.44 155.62 72.31 C 153.69 64.15 148.92 56.89 143.04 51.01 C 132.15 40.38 117.21 34.05 102.00 33.52 C 87.97 32.96 73.76 37.23 62.42 45.53 M 112.90 152.74 C 112.69 152.92 112.27 153.27 112.05 153.45 C 104.89 154.19 97.68 153.99 90.51 153.57 L 90.12 152.68 C 87.08 152.52 84.07 151.98 81.04 151.71 C 79.18 155.83 76.14 159.24 74.08 163.25 C 76.74 163.79 79.50 164.04 81.98 165.24 C 84.00 165.46 86.04 165.72 88.09 165.59 C 96.96 166.82 106.08 166.86 114.95 165.60 C 116.98 165.73 119.02 165.45 121.04 165.23 C 123.34 164.07 125.94 163.80 128.43 163.21 C 126.42 159.06 123.51 155.45 121.15 151.52 C 118.43 152.11 115.67 152.50 112.90 152.74 Z" />
</g>
<g id="#594228ff">
<path fill="#594228" opacity="1.00" d=" M 62.42 45.53 C 73.76 37.23 87.97 32.96 102.00 33.52 C 117.21 34.05 132.15 40.38 143.04 51.01 C 148.92 56.89 153.69 64.15 155.62 72.31 C 157.19 79.44 155.73 86.73 155.30 93.90 C 157.13 94.14 159.01 94.16 160.80 94.70 C 158.95 94.49 157.10 94.42 155.25 94.41 C 154.30 101.11 153.38 107.82 152.32 114.51 C 150.77 103.25 149.16 91.99 147.55 80.73 C 145.66 85.38 143.78 90.03 141.93 94.70 C 138.90 86.72 136.05 78.68 133.03 70.70 C 129.42 75.90 125.85 81.11 122.25 86.31 C 119.30 79.99 116.43 73.64 113.53 67.29 C 109.06 73.00 104.72 78.81 100.23 84.51 C 95.87 78.79 91.58 73.02 87.27 67.26 C 84.37 73.63 81.42 79.97 78.58 86.36 C 74.97 81.14 71.36 75.92 67.77 70.68 C 64.74 78.67 61.85 86.70 58.88 94.70 C 56.99 90.04 55.13 85.36 53.21 80.71 C 51.65 91.90 50.15 103.11 48.56 114.30 C 47.28 107.57 45.78 100.89 44.51 94.16 C 43.41 86.83 41.91 79.27 43.71 71.91 C 46.25 61.11 53.65 52.05 62.42 45.53 Z" />
</g>
<g id="#fad0acff">
<path fill="#fad0ac" opacity="1.00" d=" M 87.27 67.26 C 91.58 73.02 95.87 78.79 100.23 84.51 C 104.72 78.81 109.06 73.00 113.53 67.29 C 116.43 73.64 119.30 79.99 122.25 86.31 C 125.85 81.11 129.42 75.90 133.03 70.70 C 136.05 78.68 138.90 86.72 141.93 94.70 C 143.78 90.03 145.66 85.38 147.55 80.73 C 149.16 91.99 150.77 103.25 152.32 114.51 C 153.38 107.82 154.30 101.11 155.25 94.41 C 157.10 94.42 158.95 94.49 160.80 94.70 C 167.69 97.65 169.86 107.50 165.46 113.39 C 162.45 117.76 157.22 119.99 152.09 120.57 C 147.41 133.66 136.30 143.80 123.25 148.26 C 107.25 153.69 89.12 153.34 73.59 146.53 C 62.44 141.64 53.38 132.31 49.08 120.89 C 43.85 119.66 38.10 117.79 35.16 112.85 C 30.30 105.77 35.08 93.43 44.51 94.16 C 45.78 100.89 47.28 107.57 48.56 114.30 C 50.15 103.11 51.65 91.90 53.21 80.71 C 55.13 85.36 56.99 90.04 58.88 94.70 C 61.85 86.70 64.74 78.67 67.77 70.68 C 71.36 75.92 74.97 81.14 78.58 86.36 C 81.42 79.97 84.37 73.63 87.27 67.26 M 100.13 110.93 C 97.71 115.45 95.03 119.85 93.03 124.58 C 98.05 124.68 103.08 124.65 108.10 124.56 C 106.99 119.88 103.89 116.05 101.94 111.73 C 101.70 111.10 100.57 109.31 100.13 110.93 Z" />
</g>
<g id="#ff8f2eff">
<path fill="#ff8f2e" opacity="1.00" d=" M 100.13 110.93 C 100.57 109.31 101.70 111.10 101.94 111.73 C 103.89 116.05 106.99 119.88 108.10 124.56 C 103.08 124.65 98.05 124.68 93.03 124.58 C 95.03 119.85 97.71 115.45 100.13 110.93 Z" />
</g>
<g id="#ff0d23ff">
<path fill="#ff0d23" opacity="1.00" d=" M 112.90 152.74 C 115.67 152.50 118.43 152.11 121.15 151.52 C 123.51 155.45 126.42 159.06 128.43 163.21 C 125.94 163.80 123.34 164.07 121.04 165.23 C 119.02 165.45 116.98 165.73 114.95 165.60 C 111.96 165.17 108.94 164.92 105.92 165.08 C 99.97 165.43 93.99 164.53 88.09 165.59 C 86.04 165.72 84.00 165.46 81.98 165.24 C 79.50 164.04 76.74 163.79 74.08 163.25 C 76.14 159.24 79.18 155.83 81.04 151.71 C 84.07 151.98 87.08 152.52 90.12 152.68 L 90.51 153.57 C 90.84 155.13 92.74 154.67 93.86 154.93 C 98.61 155.09 103.38 155.07 108.13 154.93 C 109.59 154.97 111.01 154.50 112.05 153.45 C 112.27 153.27 112.69 152.92 112.90 152.74 Z" />
</g>
<g id="#fc2a3fff">
<path fill="#fc2a3f" opacity="1.00" d=" M 90.51 153.57 C 97.68 153.99 104.89 154.19 112.05 153.45 C 111.01 154.50 109.59 154.97 108.13 154.93 C 103.38 155.07 98.61 155.09 93.86 154.93 C 92.74 154.67 90.84 155.13 90.51 153.57 Z" />
</g>
<g id="#fd293cff">
<path fill="#fd293c" opacity="1.00" d=" M 88.09 165.59 C 93.99 164.53 99.97 165.43 105.92 165.08 C 108.94 164.92 111.96 165.17 114.95 165.60 C 106.08 166.86 96.96 166.82 88.09 165.59 Z" />
</g>
</svg>
