<?xml version="1.0" encoding="UTF-8" ?>
<!DOCTYPE svg PUBLIC "-//W3C//DTD SVG 1.1//EN" "http://www.w3.org/Graphics/SVG/1.1/DTD/svg11.dtd">
<svg width="200pt" height="200pt" viewBox="0 0 200 200" version="1.1" xmlns="http://www.w3.org/2000/svg">
<g id="#000000ff">
<path fill="#000000" opacity="1.00" d=" M 40.19 47.31 C 52.45 32.65 70.83 23.01 89.98 22.04 C 101.33 21.45 113.30 24.37 121.95 32.03 C 123.77 34.19 126.90 34.10 128.97 35.97 C 135.73 41.19 139.16 49.51 141.49 57.49 C 144.18 67.17 144.54 77.45 142.63 87.31 C 144.45 89.48 146.67 91.78 146.83 94.89 C 147.60 103.06 145.10 111.50 140.55 118.28 C 144.75 120.77 149.55 123.18 152.73 127.24 C 161.10 136.52 161.78 149.56 166.43 160.65 C 167.44 162.73 168.33 165.26 170.59 166.28 C 173.73 167.51 173.84 172.51 170.76 173.88 C 159.09 179.40 145.40 180.55 133.00 176.92 C 121.94 173.76 111.83 166.72 105.79 156.83 L 105.26 156.58 C 100.52 159.96 95.47 163.02 90.01 165.10 C 84.56 167.11 79.17 163.85 74.36 161.59 C 65.77 156.90 57.23 151.55 50.79 144.06 C 48.99 145.85 45.68 146.26 44.06 144.00 C 39.12 136.75 36.45 128.25 34.25 119.83 C 29.41 112.31 26.02 103.26 27.29 94.21 C 27.47 91.81 29.27 90.12 30.38 88.19 C 30.44 74.18 31.60 58.98 40.19 47.31 M 60.10 36.14 C 51.08 41.87 42.12 49.30 38.69 59.81 C 35.49 69.54 34.57 79.91 34.92 90.10 C 34.81 90.42 34.61 91.04 34.51 91.35 C 31.95 92.39 31.42 95.53 31.51 97.98 C 31.41 104.72 34.15 111.04 37.32 116.84 C 37.96 117.84 38.64 118.87 38.90 120.06 C 40.64 126.86 42.96 133.56 46.38 139.71 L 47.24 140.33 C 47.69 135.80 46.89 130.96 47.42 126.31 L 48.61 127.28 C 49.91 131.04 50.57 135.06 52.41 138.64 C 53.94 141.63 56.42 143.96 58.86 146.21 C 65.51 151.85 72.99 156.53 80.94 160.12 C 83.49 161.23 86.40 162.41 89.15 161.23 C 95.73 158.60 101.67 154.61 107.32 150.39 C 117.16 172.96 147.80 181.19 168.75 170.22 C 165.18 168.33 163.64 164.39 162.19 160.87 C 158.69 152.12 157.73 142.39 152.76 134.24 C 148.73 127.27 141.41 122.40 133.43 121.33 C 139.56 114.83 143.24 105.88 143.10 96.92 C 143.16 94.08 141.34 90.64 138.03 91.19 C 141.37 76.68 140.37 60.88 133.30 47.60 C 130.76 43.00 127.19 38.30 121.69 37.33 C 116.72 32.48 110.44 29.03 103.64 27.55 C 88.74 24.31 72.91 28.22 60.10 36.14 Z" />
</g>
<g id="#797979ff">
<path fill="#797979" opacity="1.00" d=" M 60.10 36.14 C 72.91 28.22 88.74 24.31 103.64 27.55 C 110.44 29.03 116.72 32.48 121.69 37.33 C 127.19 38.30 130.76 43.00 133.30 47.60 C 140.37 60.88 141.37 76.68 138.03 91.19 C 135.37 103.83 130.63 115.90 125.41 127.65 C 124.61 128.67 124.05 129.85 123.56 131.05 C 125.99 120.87 127.82 110.49 128.29 100.02 C 128.50 95.76 126.34 91.94 124.85 88.09 C 121.28 78.97 119.16 69.39 116.92 59.88 C 108.09 61.78 99.48 64.70 91.12 68.12 C 80.25 72.73 69.70 78.87 61.92 87.92 C 52.60 98.41 48.03 112.44 47.42 126.31 C 46.89 130.96 47.69 135.80 47.24 140.33 L 46.38 139.71 C 42.96 133.56 40.64 126.86 38.90 120.06 C 38.64 118.87 37.96 117.84 37.32 116.84 C 38.34 114.64 36.94 112.26 36.81 110.00 C 35.56 103.84 35.62 97.47 34.51 91.35 C 34.61 91.04 34.81 90.42 34.92 90.10 C 34.57 79.91 35.49 69.54 38.69 59.81 C 42.12 49.30 51.08 41.87 60.10 36.14 Z" />
<path fill="#797979" opacity="1.00" d=" M 131.23 123.55 C 131.98 122.83 132.69 122.06 133.43 121.33 C 141.41 122.40 148.73 127.27 152.76 134.24 C 157.73 142.39 158.69 152.12 162.19 160.87 C 163.64 164.39 165.18 168.33 168.75 170.22 C 147.80 181.19 117.16 172.96 107.32 150.39 C 108.77 149.27 110.25 148.18 111.65 146.99 C 113.94 149.80 117.50 150.28 120.91 149.68 C 127.75 148.08 133.29 141.99 134.32 135.03 C 134.53 131.08 134.48 126.33 131.23 123.55 Z" />
</g>
<g id="#dededeff">
<path fill="#dedede" opacity="1.00" d=" M 91.12 68.12 C 99.48 64.70 108.09 61.78 116.92 59.88 C 119.16 69.39 121.28 78.97 124.85 88.09 C 126.34 91.94 128.50 95.76 128.29 100.02 C 127.82 110.49 125.99 120.87 123.56 131.05 C 121.83 137.68 116.88 142.81 111.65 146.99 C 110.25 148.18 108.77 149.27 107.32 150.39 C 101.67 154.61 95.73 158.60 89.15 161.23 C 86.40 162.41 83.49 161.23 80.94 160.12 C 72.99 156.53 65.51 151.85 58.86 146.21 C 56.42 143.96 53.94 141.63 52.41 138.64 C 50.57 135.06 49.91 131.04 48.61 127.28 L 47.42 126.31 C 48.03 112.44 52.60 98.41 61.92 87.92 C 69.70 78.87 80.25 72.73 91.12 68.12 Z" />
<path fill="#dedede" opacity="1.00" d=" M 138.03 91.19 C 141.34 90.64 143.16 94.08 143.10 96.92 C 143.24 105.88 139.56 114.83 133.43 121.33 C 132.69 122.06 131.98 122.83 131.23 123.55 C 129.45 125.14 127.51 126.51 125.41 127.65 C 130.63 115.90 135.37 103.83 138.03 91.19 Z" />
</g>
<g id="#e0e0e0ff">
<path fill="#e0e0e0" opacity="1.00" d=" M 31.51 97.98 C 31.42 95.53 31.95 92.39 34.51 91.35 C 35.62 97.47 35.56 103.84 36.81 110.00 C 36.94 112.26 38.34 114.64 37.32 116.84 C 34.15 111.04 31.41 104.72 31.51 97.98 Z" />
</g>
<g id="#00bbe9ff">
<path fill="#00bbe9" opacity="1.00" d=" M 125.41 127.65 C 127.51 126.51 129.45 125.14 131.23 123.55 C 134.48 126.33 134.53 131.08 134.32 135.03 C 133.29 141.99 127.75 148.08 120.91 149.68 C 117.50 150.28 113.94 149.80 111.65 146.99 C 116.88 142.81 121.83 137.68 123.56 131.05 C 124.05 129.85 124.61 128.67 125.41 127.65 Z" />
</g>
</svg>
