<?xml version="1.0" encoding="UTF-8" ?>
<!DOCTYPE svg PUBLIC "-//W3C//DTD SVG 1.1//EN" "http://www.w3.org/Graphics/SVG/1.1/DTD/svg11.dtd">
<svg width="200pt" height="200pt" viewBox="0 0 200 200" version="1.1" xmlns="http://www.w3.org/2000/svg">
<g id="#000000ff">
<path fill="#000000" opacity="1.00" d=" M 48.86 24.91 C 49.71 21.33 55.30 20.95 56.66 24.34 C 58.14 27.98 59.63 31.70 62.22 34.72 C 68.03 41.77 76.59 45.50 83.81 50.81 C 87.35 43.31 94.31 38.03 97.41 30.31 C 98.93 28.32 102.20 28.22 103.84 30.12 C 107.09 37.77 113.63 43.38 117.51 50.72 C 124.53 45.31 133.09 41.74 138.79 34.72 C 141.39 31.69 142.87 27.95 144.36 24.30 C 145.43 21.83 149.01 21.21 150.95 23.02 C 158.58 35.48 159.78 50.77 158.67 65.06 C 158.04 72.79 156.75 80.51 154.10 87.82 C 157.55 95.67 160.66 104.01 166.70 110.31 C 169.59 113.43 173.76 115.33 178.06 115.03 C 180.57 114.58 182.43 116.57 183.21 118.74 C 187.56 118.70 189.99 124.83 185.89 127.08 C 170.12 131.70 157.16 142.43 145.48 153.57 C 137.21 161.33 130.15 171.01 119.32 175.40 C 104.11 181.58 85.31 180.12 72.23 169.76 C 65.72 164.64 60.57 158.05 54.43 152.50 C 43.18 141.97 30.77 131.74 15.73 127.32 C 13.13 126.54 12.10 122.96 13.77 120.86 C 14.64 119.46 16.38 119.24 17.80 118.72 C 18.56 116.58 20.39 114.59 22.89 115.03 C 27.19 115.32 31.39 113.45 34.29 110.32 C 40.34 104.01 43.46 95.66 46.89 87.78 C 42.74 76.03 41.60 63.38 42.13 50.99 C 42.50 41.93 44.69 32.97 48.86 24.91 M 52.20 29.67 C 51.05 30.46 50.65 31.84 50.19 33.07 C 46.33 43.53 46.07 54.92 46.86 65.92 C 47.68 72.79 48.58 79.76 51.09 86.25 L 51.89 86.94 C 49.30 94.75 45.76 102.35 41.17 109.21 C 37.13 115.28 30.38 120.14 22.78 119.48 C 23.89 121.00 25.55 121.90 27.14 122.84 C 24.06 122.63 20.95 122.57 17.92 123.25 C 19.32 124.45 21.24 124.69 22.89 125.42 C 32.40 129.13 40.79 135.15 48.66 141.56 C 53.61 146.18 58.75 150.61 63.45 155.49 C 68.57 160.72 73.46 166.40 79.95 169.99 C 89.00 175.21 99.99 175.98 110.11 174.24 C 119.27 172.69 127.18 167.16 133.38 160.44 C 139.63 153.66 146.51 147.50 153.27 141.24 C 162.53 133.60 172.80 127.02 184.29 123.29 C 181.11 122.69 177.87 122.54 174.66 122.90 C 176.21 121.87 177.67 120.72 179.07 119.49 C 173.28 119.97 167.60 117.44 163.70 113.21 C 157.03 106.09 153.57 96.76 149.80 87.94 C 154.14 77.24 155.16 65.47 155.07 54.03 C 154.62 45.47 153.77 36.45 149.26 28.95 C 149.14 28.28 148.89 26.95 148.77 26.28 C 146.95 29.89 145.44 33.71 142.90 36.90 C 137.85 43.35 130.66 47.55 123.78 51.77 C 120.79 53.62 117.83 55.89 116.47 59.25 C 114.76 53.62 111.62 48.53 107.96 43.96 C 105.60 40.82 102.85 37.90 101.32 34.23 C 101.17 34.20 100.88 34.15 100.73 34.13 C 96.17 42.87 87.76 49.42 85.24 59.30 C 83.13 54.67 78.53 52.19 74.39 49.67 C 65.44 44.40 56.55 37.36 53.46 26.99 C 52.45 27.48 52.20 28.65 52.20 29.67 Z" />
<path fill="#000000" opacity="1.00" d=" M 89.58 141.52 C 88.23 140.03 88.93 137.10 90.80 136.49 C 94.78 137.37 98.77 138.82 102.91 138.32 C 106.04 138.13 108.94 136.77 112.06 136.53 C 112.77 137.81 113.93 139.42 112.98 140.90 C 110.05 145.09 105.67 148.10 101.06 150.22 C 96.66 148.22 92.59 145.33 89.58 141.52 Z" />
</g>
<g id="#b2afccff">
<path fill="#b2afcc" opacity="1.00" d=" M 52.20 29.67 C 52.20 28.65 52.45 27.48 53.46 26.99 C 56.55 37.36 65.44 44.40 74.39 49.67 C 78.53 52.19 83.13 54.67 85.24 59.30 C 83.74 64.70 83.72 70.38 84.37 75.91 C 85.65 86.23 91.01 95.64 91.48 106.12 C 91.67 111.89 92.72 118.73 88.23 123.27 C 82.95 128.51 75.04 129.34 67.96 129.10 C 62.35 129.37 55.80 128.27 51.21 132.25 C 48.46 134.55 49.07 138.39 48.66 141.56 C 40.79 135.15 32.40 129.13 22.89 125.42 C 21.24 124.69 19.32 124.45 17.92 123.25 C 20.95 122.57 24.06 122.63 27.14 122.84 C 25.55 121.90 23.89 121.00 22.78 119.48 C 30.38 120.14 37.13 115.28 41.17 109.21 C 45.76 102.35 49.30 94.75 51.89 86.94 C 52.86 84.98 53.90 83.06 54.74 81.03 C 56.66 76.42 58.98 71.93 62.13 68.02 C 61.49 55.56 54.69 44.53 52.66 32.34 C 52.51 31.45 52.36 30.56 52.20 29.67 M 60.32 82.36 C 57.10 88.14 56.22 95.72 59.59 101.61 C 67.61 110.23 78.17 117.09 89.98 118.87 C 79.46 106.53 69.67 93.19 63.70 77.99 C 61.82 78.65 61.29 80.82 60.32 82.36 Z" />
<path fill="#b2afcc" opacity="1.00" d=" M 142.90 36.90 C 145.44 33.71 146.95 29.89 148.77 26.28 C 148.89 26.95 149.14 28.28 149.26 28.95 C 148.92 31.30 148.53 33.64 148.14 35.99 C 145.67 46.76 140.02 56.77 139.48 67.98 C 142.38 71.75 144.72 75.92 146.53 80.32 C 147.60 82.87 148.74 85.39 149.80 87.94 C 153.57 96.76 157.03 106.09 163.70 113.21 C 167.60 117.44 173.28 119.97 179.07 119.49 C 177.67 120.72 176.21 121.87 174.66 122.90 C 177.87 122.54 181.11 122.69 184.29 123.29 C 172.80 127.02 162.53 133.60 153.27 141.24 C 152.87 137.61 152.87 132.96 149.02 131.14 C 140.57 127.12 130.83 130.58 122.04 128.01 C 116.92 126.62 111.45 123.28 110.50 117.62 C 108.94 108.02 110.91 98.21 114.03 89.11 C 117.30 79.60 119.14 69.15 116.47 59.25 C 117.83 55.89 120.79 53.62 123.78 51.77 C 130.66 47.55 137.85 43.35 142.90 36.90 M 138.13 77.75 C 133.47 89.14 126.80 99.60 119.40 109.39 C 117.16 112.47 114.20 115.00 112.37 118.37 C 114.45 118.32 116.52 118.14 118.58 117.92 C 118.16 119.88 118.05 121.90 118.07 123.90 C 122.89 125.04 128.09 125.49 132.83 123.77 C 144.12 119.21 149.69 105.53 147.92 94.00 C 146.70 94.02 145.51 94.19 144.34 94.49 C 144.27 88.42 142.13 82.33 138.13 77.75 Z" />
</g>
<g id="#7978a8ff">
<path fill="#7978a8" opacity="1.00" d=" M 149.26 28.95 C 153.77 36.45 154.62 45.47 155.07 54.03 C 155.16 65.47 154.14 77.24 149.80 87.94 C 148.74 85.39 147.60 82.87 146.53 80.32 C 148.07 79.23 148.10 77.23 148.51 75.56 C 150.63 64.53 150.91 53.24 150.43 42.05 C 150.17 39.32 150.28 36.48 149.26 33.90 C 148.98 34.42 148.42 35.46 148.14 35.99 C 148.53 33.64 148.92 31.30 149.26 28.95 Z" />
</g>
<g id="#7977a7ff">
<path fill="#7977a7" opacity="1.00" d=" M 50.19 33.07 C 50.65 31.84 51.05 30.46 52.20 29.67 C 52.36 30.56 52.51 31.45 52.66 32.34 C 50.54 39.71 51.11 47.46 50.97 55.03 C 51.48 63.75 51.76 72.72 54.74 81.03 C 53.90 83.06 52.86 84.98 51.89 86.94 L 51.09 86.25 C 48.58 79.76 47.68 72.79 46.86 65.92 C 46.07 54.92 46.33 43.53 50.19 33.07 Z" />
</g>
<g id="#36364fff">
<path fill="#36364f" opacity="1.00" d=" M 50.97 55.03 C 51.11 47.46 50.54 39.71 52.66 32.34 C 54.69 44.53 61.49 55.56 62.13 68.02 C 58.98 71.93 56.66 76.42 54.74 81.03 C 51.76 72.72 51.48 63.75 50.97 55.03 Z" />
<path fill="#36364f" opacity="1.00" d=" M 149.26 33.90 C 150.28 36.48 150.17 39.32 150.43 42.05 C 150.91 53.24 150.63 64.53 148.51 75.56 C 148.10 77.23 148.07 79.23 146.53 80.32 C 144.72 75.92 142.38 71.75 139.48 67.98 C 140.02 56.77 145.67 46.76 148.14 35.99 C 148.42 35.46 148.98 34.42 149.26 33.90 Z" />
</g>
<g id="#ecececff">
<path fill="#ececec" opacity="1.00" d=" M 100.73 34.13 C 100.88 34.15 101.17 34.20 101.32 34.23 C 102.85 37.90 105.60 40.82 107.96 43.96 C 111.62 48.53 114.76 53.62 116.47 59.25 C 119.14 69.15 117.30 79.60 114.03 89.11 C 110.91 98.21 108.94 108.02 110.50 117.62 C 111.45 123.28 116.92 126.62 122.04 128.01 C 130.83 130.58 140.57 127.12 149.02 131.14 C 152.87 132.96 152.87 137.61 153.27 141.24 C 146.51 147.50 139.63 153.66 133.38 160.44 C 127.18 167.16 119.27 172.69 110.11 174.24 C 99.99 175.98 89.00 175.21 79.95 169.99 C 73.46 166.40 68.57 160.72 63.45 155.49 C 58.75 150.61 53.61 146.18 48.66 141.56 C 49.07 138.39 48.46 134.55 51.21 132.25 C 55.80 128.27 62.35 129.37 67.96 129.10 C 75.04 129.34 82.95 128.51 88.23 123.27 C 92.72 118.73 91.67 111.89 91.48 106.12 C 91.01 95.64 85.65 86.23 84.37 75.91 C 83.72 70.38 83.74 64.70 85.24 59.30 C 87.76 49.42 96.17 42.87 100.73 34.13 M 89.58 141.52 C 92.59 145.33 96.66 148.22 101.06 150.22 C 105.67 148.10 110.05 145.09 112.98 140.90 C 113.93 139.42 112.77 137.81 112.06 136.53 C 108.94 136.77 106.04 138.13 102.91 138.32 C 98.77 138.82 94.78 137.37 90.80 136.49 C 88.93 137.10 88.23 140.03 89.58 141.52 Z" />
<path fill="#ececec" opacity="1.00" d=" M 60.32 82.36 C 61.29 80.82 61.82 78.65 63.70 77.99 C 69.67 93.19 79.46 106.53 89.98 118.87 C 78.17 117.09 67.61 110.23 59.59 101.61 C 56.22 95.72 57.10 88.14 60.32 82.36 Z" />
<path fill="#ececec" opacity="1.00" d=" M 138.13 77.75 C 142.13 82.33 144.27 88.42 144.34 94.49 C 137.30 96.60 130.30 99.79 125.31 105.35 C 122.04 108.89 119.92 113.33 118.58 117.92 C 116.52 118.14 114.45 118.32 112.37 118.37 C 114.20 115.00 117.16 112.47 119.40 109.39 C 126.80 99.60 133.47 89.14 138.13 77.75 Z" />
</g>
<g id="#3d3b39ff">
<path fill="#3d3b39" opacity="1.00" d=" M 144.34 94.49 C 145.51 94.19 146.70 94.02 147.92 94.00 C 149.69 105.53 144.12 119.21 132.83 123.77 C 128.09 125.49 122.89 125.04 118.07 123.90 C 118.05 121.90 118.16 119.88 118.58 117.92 C 119.92 113.33 122.04 108.89 125.31 105.35 C 130.30 99.79 137.30 96.60 144.34 94.49 Z" />
</g>
</svg>
