<?xml version="1.0" encoding="UTF-8" ?>
<!DOCTYPE svg PUBLIC "-//W3C//DTD SVG 1.1//EN" "http://www.w3.org/Graphics/SVG/1.1/DTD/svg11.dtd">
<svg width="200pt" height="200pt" viewBox="0 0 200 200" version="1.1" xmlns="http://www.w3.org/2000/svg">
<g id="#000000ff">
<path fill="#000000" opacity="1.00" d=" M 73.05 36.20 C 80.93 31.82 90.06 30.38 98.96 30.05 C 109.95 29.64 121.40 30.54 131.32 35.68 C 142.04 41.12 150.24 50.40 156.61 60.41 C 160.87 66.93 163.91 74.16 168.29 80.60 C 172.85 87.57 178.40 93.82 184.48 99.49 C 186.33 100.98 186.64 104.09 184.76 105.68 C 176.73 113.04 170.56 122.10 163.13 130.02 C 152.69 141.59 140.30 151.69 125.84 157.75 C 116.94 165.97 104.67 168.74 92.96 169.93 C 80.31 168.76 66.69 165.02 58.20 154.90 C 54.95 150.13 50.61 146.22 47.69 141.20 C 45.17 138.76 41.57 137.51 39.49 134.53 C 32.36 125.51 27.15 115.15 22.18 104.84 C 19.78 100.03 16.16 95.87 14.29 90.80 C 12.90 87.82 15.80 84.00 19.07 84.94 C 22.78 86.22 26.03 88.49 29.55 90.21 C 30.25 80.42 35.30 71.69 40.83 63.85 C 47.21 55.03 54.48 46.65 63.41 40.32 C 66.24 38.10 69.98 37.92 73.05 36.20 M 71.81 41.93 C 69.61 41.25 67.61 42.74 65.82 43.80 C 59.38 48.22 54.01 54.00 49.04 59.97 C 43.13 67.38 37.55 75.37 34.73 84.52 C 33.02 89.90 34.01 95.82 36.94 100.59 C 31.13 96.00 24.78 92.02 18.02 89.00 C 20.24 94.30 23.98 98.75 26.44 103.92 C 30.91 113.34 35.78 122.66 42.05 131.02 C 44.14 133.92 47.19 135.91 50.48 137.21 C 52.33 140.95 54.67 144.53 57.87 147.26 C 64.66 159.82 79.56 164.45 92.87 165.72 C 103.94 164.43 116.02 162.08 123.95 153.55 C 139.36 148.05 151.77 136.52 162.44 124.47 C 168.95 117.30 174.50 109.25 181.73 102.77 C 173.13 94.68 165.55 85.42 159.99 74.95 C 156.30 67.87 152.36 60.86 147.32 54.63 C 138.86 43.54 126.01 35.47 111.90 34.59 C 98.33 33.76 83.40 33.82 71.81 41.93 Z" />
</g>
<g id="#00af44ff">
<path fill="#00af44" opacity="1.00" d=" M 71.81 41.93 C 83.40 33.82 98.33 33.76 111.90 34.59 C 126.01 35.47 138.86 43.54 147.32 54.63 C 152.36 60.86 156.30 67.87 159.99 74.95 C 165.55 85.42 173.13 94.68 181.73 102.77 C 174.50 109.25 168.95 117.30 162.44 124.47 C 151.77 136.52 139.36 148.05 123.95 153.55 C 125.38 151.68 126.62 149.69 127.90 147.72 C 130.77 144.18 133.57 140.58 135.77 136.57 C 141.66 133.56 145.00 127.62 148.34 122.21 C 152.24 115.88 155.48 109.20 158.76 102.54 C 160.98 97.92 164.71 94.06 166.08 89.04 C 160.50 91.61 155.08 94.66 150.31 98.53 C 153.01 92.82 152.44 85.92 149.84 80.28 C 145.74 70.96 139.64 62.67 132.91 55.08 C 128.46 50.36 123.78 45.65 118.06 42.47 C 116.20 41.29 114.00 41.80 112.22 42.82 C 108.69 44.53 105.70 47.14 102.91 49.84 C 98.94 50.44 94.91 50.74 90.91 50.24 C 88.83 49.88 86.81 50.54 85.01 51.55 C 81.06 47.79 76.91 44.05 71.81 41.93 Z" />
</g>
<g id="#efc620ff">
<path fill="#efc620" opacity="1.00" d=" M 65.82 43.80 C 67.61 42.74 69.61 41.25 71.81 41.93 C 76.91 44.05 81.06 47.79 85.01 51.55 C 86.81 50.54 88.83 49.88 90.91 50.24 C 94.91 50.74 98.94 50.44 102.91 49.84 C 105.70 47.14 108.69 44.53 112.22 42.82 C 114.00 41.80 116.20 41.29 118.06 42.47 C 123.78 45.65 128.46 50.36 132.91 55.08 C 139.64 62.67 145.74 70.96 149.84 80.28 C 152.44 85.92 153.01 92.82 150.31 98.53 C 148.39 101.23 146.06 103.67 144.59 106.66 C 143.26 110.59 142.78 114.75 141.70 118.76 C 140.24 124.86 137.74 130.63 135.77 136.57 C 133.57 140.58 130.77 144.18 127.90 147.72 C 130.51 141.18 131.68 134.05 131.73 127.01 C 131.86 122.38 133.86 118.14 135.62 113.94 C 130.49 115.74 126.36 119.51 121.20 121.25 C 121.46 117.96 122.74 114.57 121.77 111.30 C 122.01 111.22 122.48 111.05 122.71 110.97 C 122.91 108.51 123.13 106.06 123.33 103.60 C 123.88 93.95 121.90 84.26 119.06 75.08 C 116.96 71.06 114.48 66.71 110.32 64.55 C 106.95 63.87 104.08 66.59 101.67 68.58 C 97.35 72.19 95.09 77.43 92.99 82.50 C 91.14 76.79 88.61 71.01 83.78 67.19 C 81.27 65.09 77.36 63.06 74.31 65.29 C 71.28 67.79 69.89 71.63 68.52 75.19 C 65.21 84.27 63.93 93.89 63.37 103.49 C 63.69 103.69 64.33 104.10 64.66 104.30 L 63.48 104.61 C 63.46 106.87 63.52 109.13 63.64 111.39 C 63.74 115.03 64.51 118.60 65.64 122.05 C 60.29 119.53 55.31 116.32 50.21 113.35 C 55.42 124.04 52.27 136.67 57.87 147.26 C 54.67 144.53 52.33 140.95 50.48 137.21 C 46.21 127.90 43.25 118.01 41.58 107.92 C 41.09 104.95 38.68 102.88 36.94 100.59 C 34.01 95.82 33.02 89.90 34.73 84.52 C 37.55 75.37 43.13 67.38 49.04 59.97 C 54.01 54.00 59.38 48.22 65.82 43.80 M 87.11 52.10 C 92.39 51.24 98.11 53.31 103.07 51.03 C 99.75 50.93 96.43 51.05 93.11 50.94 C 91.07 50.95 88.77 50.64 87.11 52.10 Z" />
</g>
<g id="#b1c53aff">
<path fill="#b1c53a" opacity="1.00" d=" M 87.11 52.10 C 88.77 50.64 91.07 50.95 93.11 50.94 C 96.43 51.05 99.75 50.93 103.07 51.03 C 98.11 53.31 92.39 51.24 87.11 52.10 Z" />
</g>
<g id="#d6a441ff">
<path fill="#d6a441" opacity="1.00" d=" M 74.31 65.29 C 77.36 63.06 81.27 65.09 83.78 67.19 C 88.61 71.01 91.14 76.79 92.99 82.50 C 95.09 77.43 97.35 72.19 101.67 68.58 C 104.08 66.59 106.95 63.87 110.32 64.55 C 114.48 66.71 116.96 71.06 119.06 75.08 C 109.73 75.81 101.24 80.14 93.01 84.26 C 85.28 80.20 77.20 76.57 68.52 75.19 C 69.89 71.63 71.28 67.79 74.31 65.29 Z" />
</g>
<g id="#fde6ccff">
<path fill="#fde6cc" opacity="1.00" d=" M 68.52 75.19 C 77.20 76.57 85.28 80.20 93.01 84.26 C 101.24 80.14 109.73 75.81 119.06 75.08 C 121.90 84.26 123.88 93.95 123.33 103.60 C 114.38 107.50 105.59 112.30 98.51 119.11 C 102.14 120.01 105.20 117.71 108.30 116.26 C 112.60 114.12 117.25 112.86 121.77 111.30 C 122.74 114.57 121.46 117.96 121.20 121.25 C 126.36 119.51 130.49 115.74 135.62 113.94 C 133.86 118.14 131.86 122.38 131.73 127.01 C 131.68 134.05 130.51 141.18 127.90 147.72 C 126.62 149.69 125.38 151.68 123.95 153.55 C 116.02 162.08 103.94 164.43 92.87 165.72 C 79.56 164.45 64.66 159.82 57.87 147.26 C 52.27 136.67 55.42 124.04 50.21 113.35 C 55.31 116.32 60.29 119.53 65.64 122.05 C 64.51 118.60 63.74 115.03 63.64 111.39 C 68.44 112.56 73.21 114.00 77.66 116.19 C 80.78 117.64 83.82 120.13 87.49 119.06 C 80.99 112.62 72.70 108.44 64.66 104.30 C 64.33 104.10 63.69 103.69 63.37 103.49 C 63.93 93.89 65.21 84.27 68.52 75.19 Z" />
<path fill="#fde6cc" opacity="1.00" d=" M 150.31 98.53 C 155.08 94.66 160.50 91.61 166.08 89.04 C 164.71 94.06 160.98 97.92 158.76 102.54 C 155.48 109.20 152.24 115.88 148.34 122.21 C 145.00 127.62 141.66 133.56 135.77 136.57 C 137.74 130.63 140.24 124.86 141.70 118.76 C 142.78 114.75 143.26 110.59 144.59 106.66 C 146.06 103.67 148.39 101.23 150.31 98.53 Z" />
<path fill="#fde6cc" opacity="1.00" d=" M 18.02 89.00 C 24.78 92.02 31.13 96.00 36.94 100.59 C 38.68 102.88 41.09 104.95 41.58 107.92 C 43.25 118.01 46.21 127.90 50.48 137.21 C 47.19 135.91 44.14 133.92 42.05 131.02 C 35.78 122.66 30.91 113.34 26.44 103.92 C 23.98 98.75 20.24 94.30 18.02 89.00 Z" />
</g>
<g id="#946e3dff">
<path fill="#946e3d" opacity="1.00" d=" M 98.51 119.11 C 105.59 112.30 114.38 107.50 123.33 103.60 C 123.13 106.06 122.91 108.51 122.71 110.97 C 122.48 111.05 122.01 111.22 121.77 111.30 C 117.25 112.86 112.60 114.12 108.30 116.26 C 105.20 117.71 102.14 120.01 98.51 119.11 Z" />
</g>
<g id="#946d40ff">
<path fill="#946d40" opacity="1.00" d=" M 63.48 104.61 L 64.66 104.30 C 72.70 108.44 80.99 112.62 87.49 119.06 C 83.82 120.13 80.78 117.64 77.66 116.19 C 73.21 114.00 68.44 112.56 63.64 111.39 C 63.52 109.13 63.46 106.87 63.48 104.61 Z" />
</g>
</svg>
