<?xml version="1.0" encoding="UTF-8" ?>
<!DOCTYPE svg PUBLIC "-//W3C//DTD SVG 1.1//EN" "http://www.w3.org/Graphics/SVG/1.1/DTD/svg11.dtd">
<svg width="200pt" height="200pt" viewBox="0 0 200 200" version="1.1" xmlns="http://www.w3.org/2000/svg">
<g id="#000100ff">
<path fill="#000100" opacity="1.00" d=" M 84.89 24.25 C 99.42 22.00 114.65 22.60 128.61 27.47 C 134.53 29.38 139.50 33.23 145.02 35.99 C 159.12 44.11 167.12 59.99 168.89 75.78 C 171.21 75.53 174.00 75.29 175.65 77.32 C 177.92 79.95 176.99 83.78 175.49 86.56 C 172.12 92.86 168.61 99.10 164.91 105.21 C 163.80 106.59 164.76 108.37 164.86 109.90 C 167.46 123.04 169.78 136.27 173.61 149.11 C 174.29 152.02 177.03 154.72 175.75 157.84 C 173.98 162.82 168.80 165.27 164.40 167.51 C 151.27 173.29 136.67 174.08 122.96 177.50 C 120.04 177.16 118.52 173.59 119.90 171.11 C 121.92 167.80 123.99 164.51 125.42 160.89 C 118.02 159.92 110.47 158.68 103.02 159.96 C 98.99 160.59 95.01 159.20 90.97 159.46 C 86.87 159.64 82.77 160.10 78.72 160.80 C 80.37 164.76 82.63 168.41 84.65 172.18 C 85.98 174.69 83.79 178.04 81.00 178.02 C 78.89 177.84 77.12 176.43 75.03 176.17 C 64.44 174.56 53.80 172.83 43.58 169.52 C 38.44 167.81 33.33 165.47 29.45 161.58 C 27.48 159.48 25.89 156.15 27.57 153.41 C 29.64 149.17 30.70 144.56 31.81 140.01 C 34.25 129.67 36.31 119.24 38.29 108.80 C 33.73 101.54 29.54 94.06 25.48 86.51 C 23.86 83.60 23.03 79.34 25.81 76.86 C 28.19 74.63 31.51 75.83 34.21 76.61 C 35.53 64.26 40.30 52.00 49.11 43.08 C 52.06 39.93 55.78 37.70 59.04 34.92 C 66.24 28.69 75.67 25.82 84.89 24.25 M 84.11 28.64 C 76.87 30.10 69.42 32.16 63.49 36.77 C 58.73 40.51 53.51 43.83 49.65 48.59 C 41.65 58.14 38.22 70.72 37.88 83.00 C 35.21 81.32 32.11 80.38 29.05 79.74 C 27.21 80.37 28.41 82.84 28.91 84.11 C 33.11 92.02 37.46 99.86 42.35 107.36 C 42.34 109.29 42.08 111.21 41.69 113.11 C 39.42 124.51 37.29 135.95 34.23 147.18 C 33.41 150.28 32.34 153.33 30.81 156.17 C 32.95 161.14 38.56 163.00 43.16 164.95 C 54.08 168.70 65.56 170.75 77.01 172.01 C 78.26 172.58 79.49 173.17 80.72 173.77 C 77.38 168.72 74.82 163.16 72.93 157.42 C 79.05 156.39 85.20 155.52 91.40 155.13 L 90.36 154.57 C 95.35 155.85 100.71 156.26 105.83 155.36 C 114.31 154.68 122.74 156.36 131.09 157.62 C 129.17 163.11 126.71 168.42 123.45 173.24 C 124.75 172.74 126.09 172.31 127.35 171.73 C 138.63 170.50 149.93 168.37 160.61 164.49 C 164.86 162.60 169.90 160.73 171.88 156.15 C 169.67 152.02 168.53 147.45 167.38 142.94 C 164.41 130.49 161.76 117.94 159.76 105.29 C 163.49 99.41 166.86 93.33 170.21 87.23 C 171.36 85.09 172.83 82.91 172.69 80.37 C 170.12 78.90 167.33 81.37 164.78 81.97 C 164.85 68.00 159.49 53.59 148.97 44.12 C 144.78 40.22 139.47 37.92 134.60 35.02 C 131.50 33.03 128.05 31.65 124.53 30.59 C 111.48 26.69 97.49 26.29 84.11 28.64 Z" />
</g>
<g id="#e4c241ff">
<path fill="#e4c241" opacity="1.00" d=" M 84.11 28.64 C 97.49 26.29 111.48 26.69 124.53 30.59 C 128.05 31.65 131.50 33.03 134.60 35.02 C 126.99 34.32 119.27 33.49 111.67 34.68 C 108.36 35.19 105.23 36.54 101.89 36.86 C 97.89 36.57 94.12 34.92 90.12 34.54 C 84.91 34.01 79.60 33.75 74.41 34.57 C 70.78 35.32 67.16 36.19 63.49 36.77 C 69.42 32.16 76.87 30.10 84.11 28.64 Z" />
</g>
<g id="#f0e036ff">
<path fill="#f0e036" opacity="1.00" d=" M 74.41 34.57 C 79.60 33.75 84.91 34.01 90.12 34.54 C 94.12 34.92 97.89 36.57 101.89 36.86 C 105.23 36.54 108.36 35.19 111.67 34.68 C 119.27 33.49 126.99 34.32 134.60 35.02 C 139.47 37.92 144.78 40.22 148.97 44.12 C 159.49 53.59 164.85 68.00 164.78 81.97 C 164.39 85.91 164.90 89.98 163.91 93.84 C 162.07 98.49 156.63 99.50 152.26 100.19 C 152.38 104.88 152.40 109.58 152.51 114.27 C 153.13 113.81 154.38 112.87 155.01 112.40 C 152.04 116.06 153.01 120.92 153.28 125.23 C 152.47 131.71 151.76 138.32 148.86 144.27 C 145.52 151.66 141.11 158.63 135.23 164.26 C 132.58 166.73 129.98 169.24 127.35 171.73 C 126.09 172.31 124.75 172.74 123.45 173.24 C 126.71 168.42 129.17 163.11 131.09 157.62 C 133.85 149.05 136.18 140.32 137.49 131.40 C 138.42 126.21 139.61 121.04 139.79 115.74 C 140.05 109.46 141.89 103.34 141.64 97.03 C 137.08 98.36 132.50 100.21 127.65 99.52 C 127.66 97.10 127.68 94.68 127.69 92.27 C 127.70 90.82 127.70 89.37 127.71 87.92 C 127.93 79.72 127.77 71.46 125.40 63.53 C 124.64 62.99 123.88 62.45 123.11 61.93 C 123.56 61.95 124.47 62.01 124.92 62.04 C 122.81 56.89 119.16 51.18 113.00 50.83 C 107.55 50.31 104.23 55.22 101.42 59.06 C 98.67 55.27 95.45 50.25 90.02 50.95 C 83.54 51.06 79.90 57.36 77.92 62.73 C 75.10 70.73 75.45 79.43 75.32 87.80 C 75.34 89.33 75.38 90.87 75.42 92.40 C 75.04 94.85 76.86 99.84 73.00 99.73 C 69.34 99.72 65.88 98.12 62.19 98.19 C 64.14 107.38 63.75 116.86 65.69 126.04 C 66.29 129.60 66.25 133.30 67.62 136.69 C 68.83 143.74 70.84 150.60 72.93 157.42 C 74.82 163.16 77.38 168.72 80.72 173.77 C 79.49 173.17 78.26 172.58 77.01 172.01 C 77.47 172.03 78.39 172.07 78.85 172.09 C 68.04 165.91 60.12 155.50 55.07 144.28 C 51.79 137.32 51.47 129.61 50.85 122.09 C 51.00 121.11 51.15 120.13 51.29 119.14 C 51.92 112.89 51.49 106.60 51.85 100.33 C 48.01 99.73 43.63 99.38 40.80 96.36 C 37.50 92.73 38.29 87.49 37.88 83.00 C 38.22 70.72 41.65 58.14 49.65 48.59 C 53.51 43.83 58.73 40.51 63.49 36.77 C 67.16 36.19 70.78 35.32 74.41 34.57 Z" />
</g>
<g id="#d3b540ff">
<path fill="#d3b540" opacity="1.00" d=" M 77.92 62.73 C 79.90 57.36 83.54 51.06 90.02 50.95 C 95.45 50.25 98.67 55.27 101.42 59.06 C 104.23 55.22 107.55 50.31 113.00 50.83 C 119.16 51.18 122.81 56.89 124.92 62.04 C 124.47 62.01 123.56 61.95 123.11 61.93 C 119.65 60.89 115.93 59.85 112.37 61.07 C 108.34 61.95 105.10 64.79 101.18 65.85 C 97.16 64.02 93.40 61.43 88.94 60.76 C 85.13 59.88 81.45 61.52 77.92 62.73 Z" />
</g>
<g id="#fde6d7ff">
<path fill="#fde6d7" opacity="1.00" d=" M 77.92 62.73 C 81.45 61.52 85.13 59.88 88.94 60.76 C 93.40 61.43 97.16 64.02 101.18 65.85 C 105.10 64.79 108.34 61.95 112.37 61.07 C 115.93 59.85 119.65 60.89 123.11 61.93 C 123.88 62.45 124.64 62.99 125.40 63.53 C 127.77 71.46 127.93 79.72 127.71 87.92 C 124.80 87.34 121.42 86.91 119.52 84.33 C 118.29 82.88 118.70 80.87 118.49 79.13 C 119.97 78.13 121.43 77.13 122.88 76.10 C 120.31 75.62 117.50 74.95 115.03 76.16 C 113.24 77.19 112.04 78.93 110.68 80.43 C 110.00 78.16 109.80 75.61 108.34 73.66 C 106.24 71.82 103.76 70.18 101.01 69.58 C 97.53 71.03 93.34 72.92 92.97 77.22 C 93.38 77.53 94.20 78.16 94.61 78.48 C 94.10 78.40 93.07 78.24 92.55 78.15 C 92.09 79.45 91.61 80.75 91.17 82.05 C 90.31 80.04 89.63 77.69 87.58 76.54 C 85.12 74.85 82.04 75.66 79.28 75.79 C 81.12 77.51 84.34 78.96 83.55 82.01 C 83.00 85.93 78.61 87.16 75.32 87.80 C 75.45 79.43 75.10 70.73 77.92 62.73 Z" />
<path fill="#fde6d7" opacity="1.00" d=" M 75.42 92.40 C 79.13 92.48 82.84 92.15 86.48 91.42 C 87.11 92.47 87.74 93.52 88.37 94.57 C 89.40 94.59 90.42 94.61 91.45 94.64 C 92.29 93.81 93.13 92.99 93.97 92.16 C 96.39 95.01 98.82 97.84 101.24 100.68 C 103.55 97.99 105.88 95.32 108.30 92.72 C 109.48 93.38 110.46 94.73 111.93 94.68 C 113.95 94.96 114.66 92.73 115.80 91.54 C 119.72 92.28 123.71 92.52 127.69 92.27 C 127.68 94.68 127.66 97.10 127.65 99.52 C 132.50 100.21 137.08 98.36 141.64 97.03 C 141.89 103.34 140.05 109.46 139.79 115.74 C 139.61 121.04 138.42 126.21 137.49 131.40 C 131.72 138.92 124.70 145.47 116.96 150.92 C 113.68 153.30 109.85 154.85 105.83 155.36 C 100.71 156.26 95.35 155.85 90.36 154.57 C 81.51 150.41 74.42 143.56 67.62 136.69 C 66.25 133.30 66.29 129.60 65.69 126.04 C 63.75 116.86 64.14 107.38 62.19 98.19 C 65.88 98.12 69.34 99.72 73.00 99.73 C 76.86 99.84 75.04 94.85 75.42 92.40 Z" />
</g>
<g id="#e3c140ff">
<path fill="#e3c140" opacity="1.00" d=" M 92.97 77.22 C 93.34 72.92 97.53 71.03 101.01 69.58 C 103.76 70.18 106.24 71.82 108.34 73.66 C 109.80 75.61 110.00 78.16 110.68 80.43 C 112.04 78.93 113.24 77.19 115.03 76.16 C 117.50 74.95 120.31 75.62 122.88 76.10 C 121.43 77.13 119.97 78.13 118.49 79.13 C 118.70 80.87 118.29 82.88 119.52 84.33 C 121.42 86.91 124.80 87.34 127.71 87.92 C 127.70 89.37 127.70 90.82 127.69 92.27 C 123.71 92.52 119.72 92.28 115.80 91.54 C 114.66 92.73 113.95 94.96 111.93 94.68 C 110.46 94.73 109.48 93.38 108.30 92.72 C 105.88 95.32 103.55 97.99 101.24 100.68 C 98.82 97.84 96.39 95.01 93.97 92.16 C 93.13 92.99 92.29 93.81 91.45 94.64 C 90.42 94.61 89.40 94.59 88.37 94.57 C 87.74 93.52 87.11 92.47 86.48 91.42 C 82.84 92.15 79.13 92.48 75.42 92.40 C 75.38 90.87 75.34 89.33 75.32 87.80 C 78.61 87.16 83.00 85.93 83.55 82.01 C 84.34 78.96 81.12 77.51 79.28 75.79 C 82.04 75.66 85.12 74.85 87.58 76.54 C 89.63 77.69 90.31 80.04 91.17 82.05 C 91.61 80.75 92.09 79.45 92.55 78.15 C 93.07 78.24 94.10 78.40 94.61 78.48 C 94.20 78.16 93.38 77.53 92.97 77.22 M 96.30 75.57 C 95.18 79.40 93.09 82.94 93.34 87.08 C 96.05 89.81 98.74 92.57 101.12 95.61 C 104.15 92.68 107.04 89.60 109.60 86.26 C 109.27 82.97 107.68 79.93 107.47 76.60 C 105.63 74.80 103.37 73.55 101.10 72.38 C 99.47 73.40 97.75 74.30 96.30 75.57 M 91.99 84.35 C 91.07 85.53 91.29 86.25 92.63 86.49 C 93.55 85.30 93.33 84.59 91.99 84.35 Z" />
<path fill="#e3c140" opacity="1.00" d=" M 155.01 112.40 C 156.71 110.11 158.26 107.72 159.76 105.29 C 161.76 117.94 164.41 130.49 167.38 142.94 C 168.53 147.45 169.67 152.02 171.88 156.15 C 169.90 160.73 164.86 162.60 160.61 164.49 C 149.93 168.37 138.63 170.50 127.35 171.73 C 129.98 169.24 132.58 166.73 135.23 164.26 C 141.11 158.63 145.52 151.66 148.86 144.27 C 154.54 144.31 160.22 144.36 165.90 144.23 C 161.96 137.72 157.50 131.56 153.28 125.23 C 153.01 120.92 152.04 116.06 155.01 112.40 Z" />
<path fill="#e3c140" opacity="1.00" d=" M 42.35 107.36 C 44.95 111.56 48.01 115.45 51.29 119.14 C 51.15 120.13 51.00 121.11 50.85 122.09 C 45.69 129.35 40.80 136.80 35.94 144.26 C 42.32 144.32 48.69 144.33 55.07 144.28 C 60.12 155.50 68.04 165.91 78.85 172.09 C 78.39 172.07 77.47 172.03 77.01 172.01 C 65.56 170.75 54.08 168.70 43.16 164.95 C 38.56 163.00 32.95 161.14 30.81 156.17 C 32.34 153.33 33.41 150.28 34.23 147.18 C 37.29 135.95 39.42 124.51 41.69 113.11 C 42.08 111.21 42.34 109.29 42.35 107.36 Z" />
</g>
<g id="#f62996ff">
<path fill="#f62996" opacity="1.00" d=" M 96.30 75.57 C 97.75 74.30 99.47 73.40 101.10 72.38 C 103.37 73.55 105.63 74.80 107.47 76.60 C 107.68 79.93 109.27 82.97 109.60 86.26 C 107.04 89.60 104.15 92.68 101.12 95.61 C 98.74 92.57 96.05 89.81 93.34 87.08 C 93.09 82.94 95.18 79.40 96.30 75.57 Z" />
</g>
<g id="#fce6ccff">
<path fill="#fce6cc" opacity="1.00" d=" M 28.91 84.11 C 28.41 82.84 27.21 80.37 29.05 79.74 C 32.11 80.38 35.21 81.32 37.88 83.00 C 38.29 87.49 37.50 92.73 40.80 96.36 C 43.63 99.38 48.01 99.73 51.85 100.33 C 51.49 106.60 51.92 112.89 51.29 119.14 C 48.01 115.45 44.95 111.56 42.35 107.36 C 37.46 99.86 33.11 92.02 28.91 84.11 Z" />
</g>
<g id="#fde7cdff">
<path fill="#fde7cd" opacity="1.00" d=" M 164.78 81.97 C 167.33 81.37 170.12 78.90 172.69 80.37 C 172.83 82.91 171.36 85.09 170.21 87.23 C 166.86 93.33 163.49 99.41 159.76 105.29 C 158.26 107.72 156.71 110.11 155.01 112.40 C 154.38 112.87 153.13 113.81 152.51 114.27 C 152.40 109.58 152.38 104.88 152.26 100.19 C 156.63 99.50 162.07 98.49 163.91 93.84 C 164.90 89.98 164.39 85.91 164.78 81.97 Z" />
</g>
<g id="#fbb86fff">
<path fill="#fbb86f" opacity="1.00" d=" M 91.99 84.35 C 93.33 84.59 93.55 85.30 92.63 86.49 C 91.29 86.25 91.07 85.53 91.99 84.35 Z" />
</g>
<g id="#ffff95ff">
<path fill="#ffff95" opacity="1.00" d=" M 50.85 122.09 C 51.47 129.61 51.79 137.32 55.07 144.28 C 48.69 144.33 42.32 144.32 35.94 144.26 C 40.80 136.80 45.69 129.35 50.85 122.09 Z" />
<path fill="#ffff95" opacity="1.00" d=" M 148.86 144.27 C 151.76 138.32 152.47 131.71 153.28 125.23 C 157.50 131.56 161.96 137.72 165.90 144.23 C 160.22 144.36 154.54 144.31 148.86 144.27 Z" />
</g>
<g id="#e3c240ff">
<path fill="#e3c240" opacity="1.00" d=" M 116.96 150.92 C 124.70 145.47 131.72 138.92 137.49 131.40 C 136.18 140.32 133.85 149.05 131.09 157.62 C 122.74 156.36 114.31 154.68 105.83 155.36 C 109.85 154.85 113.68 153.30 116.96 150.92 Z" />
</g>
<g id="#e1c240ff">
<path fill="#e1c240" opacity="1.00" d=" M 67.62 136.69 C 74.42 143.56 81.51 150.41 90.36 154.57 L 91.40 155.13 C 85.20 155.52 79.05 156.39 72.93 157.42 C 70.84 150.60 68.83 143.74 67.62 136.69 Z" />
</g>
</svg>
