<?xml version="1.0" encoding="UTF-8" ?>
<!DOCTYPE svg PUBLIC "-//W3C//DTD SVG 1.1//EN" "http://www.w3.org/Graphics/SVG/1.1/DTD/svg11.dtd">
<svg width="200pt" height="200pt" viewBox="0 0 200 200" version="1.1" xmlns="http://www.w3.org/2000/svg">
<g id="#000100ff">
<path fill="#000100" opacity="1.00" d=" M 98.78 20.77 C 107.30 15.52 117.92 14.92 127.45 17.32 C 136.15 19.73 142.61 27.37 144.93 35.91 C 146.04 38.98 145.80 42.35 146.42 45.45 C 159.92 53.51 168.91 67.89 172.11 83.11 C 176.53 102.78 172.97 123.56 164.69 141.74 C 158.83 154.77 150.75 166.71 141.60 177.66 C 139.78 180.09 135.55 179.47 134.46 176.65 C 133.60 174.93 134.36 173.00 135.48 171.61 C 139.71 165.67 142.40 158.84 144.85 152.02 C 143.51 152.49 142.76 153.82 141.73 154.73 C 136.82 159.61 131.28 164.02 124.91 166.82 C 121.77 168.24 118.08 168.48 114.87 167.17 C 109.43 164.98 104.68 161.45 100.21 157.72 C 99.99 158.99 99.38 160.22 99.38 161.52 C 101.29 165.60 103.74 169.39 106.24 173.12 C 108.15 176.62 103.72 180.78 100.35 178.65 C 98.01 176.86 96.47 174.21 94.59 171.97 C 91.44 176.83 87.57 181.32 82.73 184.56 C 79.42 186.56 75.11 182.50 76.92 179.08 C 78.54 176.27 81.06 173.01 79.55 169.62 C 77.32 165.51 73.00 163.25 69.57 160.28 C 53.08 147.23 43.16 126.10 44.55 105.02 C 38.84 113.43 38.38 124.86 42.72 133.97 C 44.04 136.84 41.07 140.29 38.03 139.59 C 35.75 139.30 34.81 137.04 33.73 135.35 C 28.96 127.47 26.17 118.16 27.18 108.91 C 28.13 99.22 32.87 90.35 38.75 82.77 C 47.26 71.66 58.26 62.86 67.57 52.49 C 76.86 40.96 85.90 28.57 98.78 20.77 M 100.84 24.79 C 90.50 31.22 82.72 40.84 75.20 50.24 C 69.46 58.05 62.18 64.52 55.30 71.29 C 46.39 80.25 37.26 89.83 33.22 102.09 C 29.44 113.15 32.14 125.63 38.77 135.04 C 35.67 127.83 34.98 119.54 37.17 111.99 C 39.37 103.92 44.86 97.00 51.68 92.28 C 48.67 100.06 48.44 108.70 49.49 116.91 C 51.39 132.26 59.64 146.52 71.50 156.37 C 75.72 160.09 81.15 162.92 83.70 168.18 C 85.76 172.52 83.55 177.28 81.12 180.95 C 87.10 176.93 91.31 170.71 94.17 164.18 C 96.64 167.53 98.96 171.12 101.98 173.98 C 99.29 169.93 96.34 165.77 95.08 161.03 C 96.79 157.31 97.28 153.08 97.63 149.02 C 102.92 154.90 109.12 160.24 116.46 163.35 C 120.45 165.29 124.59 162.84 128.01 160.84 C 139.37 153.64 148.38 142.82 153.52 130.40 C 154.08 129.28 154.13 128.01 154.38 126.80 C 152.85 143.62 148.19 160.41 139.19 174.78 C 144.83 167.42 150.54 160.06 155.11 151.96 C 166.04 133.30 172.54 111.19 169.31 89.50 C 167.39 72.33 157.38 55.81 141.92 47.57 C 143.49 37.11 137.62 25.09 127.18 21.72 C 118.46 19.32 108.65 19.94 100.84 24.79 Z" />
</g>
<g id="#f0c632ff">
<path fill="#f0c632" opacity="1.00" d=" M 100.84 24.79 C 108.65 19.94 118.46 19.32 127.18 21.72 C 137.62 25.09 143.49 37.11 141.92 47.57 C 140.47 46.95 139.01 46.33 137.56 45.69 C 140.37 42.63 137.34 38.31 134.56 36.35 C 128.09 31.94 119.55 31.54 112.13 33.46 C 107.02 34.83 101.06 38.67 102.09 44.78 C 88.36 49.40 77.91 61.60 74.61 75.59 C 73.55 80.73 71.99 85.79 71.87 91.08 C 71.35 101.72 70.81 112.70 74.09 122.99 C 77.78 137.97 85.20 151.74 94.17 164.18 C 91.31 170.71 87.10 176.93 81.12 180.95 C 83.55 177.28 85.76 172.52 83.70 168.18 C 81.15 162.92 75.72 160.09 71.50 156.37 C 59.64 146.52 51.39 132.26 49.49 116.91 C 48.44 108.70 48.67 100.06 51.68 92.28 C 44.86 97.00 39.37 103.92 37.17 111.99 C 34.98 119.54 35.67 127.83 38.77 135.04 C 32.14 125.63 29.44 113.15 33.22 102.09 C 37.26 89.83 46.39 80.25 55.30 71.29 C 62.18 64.52 69.46 58.05 75.20 50.24 C 82.72 40.84 90.50 31.22 100.84 24.79 Z" />
</g>
<g id="#c20d25ff">
<path fill="#c20d25" opacity="1.00" d=" M 112.13 33.46 C 119.55 31.54 128.09 31.94 134.56 36.35 C 137.34 38.31 140.37 42.63 137.56 45.69 C 126.38 41.25 113.50 41.09 102.09 44.78 C 101.06 38.67 107.02 34.83 112.13 33.46 Z" />
</g>
<g id="#f0df65ff">
<path fill="#f0df65" opacity="1.00" d=" M 102.09 44.78 C 113.50 41.09 126.38 41.25 137.56 45.69 C 139.01 46.33 140.47 46.95 141.92 47.57 C 157.38 55.81 167.39 72.33 169.31 89.50 C 172.54 111.19 166.04 133.30 155.11 151.96 C 150.54 160.06 144.83 167.42 139.19 174.78 C 148.19 160.41 152.85 143.62 154.38 126.80 C 154.76 120.83 156.52 114.69 154.15 108.87 C 146.54 104.87 139.81 99.41 133.95 93.14 C 132.69 92.20 131.82 90.45 130.17 90.21 C 131.81 95.24 135.87 98.92 139.55 102.52 C 143.23 106.37 147.61 109.44 151.86 112.63 C 138.76 113.17 126.17 107.02 116.43 98.61 C 113.97 96.71 112.37 93.76 109.42 92.53 C 109.50 93.15 109.67 94.38 109.75 95.00 C 113.29 103.61 117.97 111.76 123.60 119.17 C 127.07 124.09 130.58 129.02 134.91 133.24 C 135.82 133.84 135.57 134.87 135.38 135.76 C 129.75 132.96 123.96 130.34 119.03 126.38 C 117.06 122.68 113.41 120.36 110.69 117.27 C 103.72 111.12 99.82 102.52 95.49 94.50 C 94.45 92.50 94.33 90.16 93.28 88.16 C 91.37 90.40 89.49 93.06 90.32 96.18 C 88.52 105.35 87.22 114.64 87.54 124.04 C 87.81 128.59 86.92 133.63 89.41 137.73 C 87.32 139.30 88.98 141.97 89.26 144.01 C 91.00 149.73 92.35 155.67 95.08 161.03 C 96.34 165.77 99.29 169.93 101.98 173.98 C 98.96 171.12 96.64 167.53 94.17 164.18 C 85.20 151.74 77.78 137.97 74.09 122.99 C 70.81 112.70 71.35 101.72 71.87 91.08 C 71.99 85.79 73.55 80.73 74.61 75.59 C 77.91 61.60 88.36 49.40 102.09 44.78 Z" />
</g>
<g id="#f9ce88ff">
<path fill="#f9ce88" opacity="1.00" d=" M 93.28 88.16 C 94.33 90.16 94.45 92.50 95.49 94.50 C 99.82 102.52 103.72 111.12 110.69 117.27 C 113.41 120.36 117.06 122.68 119.03 126.38 C 107.69 118.89 99.67 107.19 94.00 95.02 C 93.35 94.10 93.36 92.33 92.06 92.10 C 91.41 93.43 90.86 94.81 90.32 96.18 C 89.49 93.06 91.37 90.40 93.28 88.16 Z" />
</g>
<g id="#fff0e5ff">
<path fill="#fff0e5" opacity="1.00" d=" M 130.17 90.21 C 131.82 90.45 132.69 92.20 133.95 93.14 C 139.81 99.41 146.54 104.87 154.15 108.87 C 156.52 114.69 154.76 120.83 154.38 126.80 C 154.13 128.01 154.08 129.28 153.52 130.40 C 148.38 142.82 139.37 153.64 128.01 160.84 C 124.59 162.84 120.45 165.29 116.46 163.35 C 109.12 160.24 102.92 154.90 97.63 149.02 C 94.46 145.60 91.62 141.85 89.41 137.73 C 86.92 133.63 87.81 128.59 87.54 124.04 C 87.22 114.64 88.52 105.35 90.32 96.18 C 90.86 94.81 91.41 93.43 92.06 92.10 C 93.36 92.33 93.35 94.10 94.00 95.02 C 99.67 107.19 107.69 118.89 119.03 126.38 C 123.96 130.34 129.75 132.96 135.38 135.76 C 135.57 134.87 135.82 133.84 134.91 133.24 C 130.58 129.02 127.07 124.09 123.60 119.17 C 117.97 111.76 113.29 103.61 109.75 95.00 C 109.67 94.38 109.50 93.15 109.42 92.53 C 112.37 93.76 113.97 96.71 116.43 98.61 C 126.17 107.02 138.76 113.17 151.86 112.63 C 147.61 109.44 143.23 106.37 139.55 102.52 C 135.87 98.92 131.81 95.24 130.17 90.21 Z" />
</g>
<g id="#eec42fff">
<path fill="#eec42f" opacity="1.00" d=" M 89.26 144.01 C 88.98 141.97 87.32 139.30 89.41 137.73 C 91.62 141.85 94.46 145.60 97.63 149.02 C 97.28 153.08 96.79 157.31 95.08 161.03 C 92.35 155.67 91.00 149.73 89.26 144.01 Z" />
</g>
</svg>
