<?xml version="1.0" encoding="UTF-8" ?>
<!DOCTYPE svg PUBLIC "-//W3C//DTD SVG 1.1//EN" "http://www.w3.org/Graphics/SVG/1.1/DTD/svg11.dtd">
<svg width="200pt" height="200pt" viewBox="0 0 200 200" version="1.1" xmlns="http://www.w3.org/2000/svg">
<g id="#0a0503f9">
<path fill="#0a0503" opacity="0.98" d=" M 96.38 18.30 C 98.72 13.09 106.17 17.46 104.50 22.62 C 108.06 30.97 115.65 36.96 120.24 44.76 C 122.92 44.35 121.30 38.24 125.07 38.00 C 132.25 37.35 131.96 47.16 133.09 51.88 C 135.82 50.34 142.39 47.95 141.98 52.98 C 142.94 54.05 140.52 63.89 143.20 61.11 C 147.60 57.45 150.13 52.25 148.63 46.59 C 145.83 43.15 150.31 38.39 153.65 40.35 C 159.46 43.93 164.55 49.92 165.02 56.97 C 165.01 59.99 165.03 63.02 165.01 66.04 C 163.85 75.83 157.26 83.83 150.96 90.98 C 146.89 97.52 158.49 96.18 161.27 99.72 C 166.76 104.80 168.90 113.48 165.48 120.29 C 158.48 141.12 149.78 162.25 134.05 178.05 C 124.90 186.74 111.02 186.66 100.00 182.00 C 88.42 187.02 74.11 186.68 64.98 177.03 C 50.24 161.84 41.93 141.69 35.08 121.97 C 32.38 115.37 31.79 107.51 36.73 101.73 C 40.02 97.64 45.52 96.87 49.96 94.82 C 50.48 90.61 46.06 88.13 43.79 85.21 C 39.60 79.58 35.81 73.12 34.98 66.03 C 34.98 63.00 34.98 59.99 34.99 56.96 C 35.53 50.29 40.05 44.09 45.63 40.60 C 49.08 38.13 54.27 42.60 51.51 46.62 C 49.00 52.49 53.12 57.25 56.71 61.29 C 54.93 55.04 59.05 45.99 66.05 51.81 C 68.85 49.10 67.07 35.31 75.74 38.13 C 78.64 39.32 77.19 44.42 79.79 44.78 C 84.93 35.74 94.92 29.14 96.38 18.30 M 98.23 27.27 C 93.87 35.89 84.67 41.58 82.16 51.11 C 80.77 51.45 79.38 51.81 78.00 52.17 C 75.93 49.52 74.94 46.30 73.81 43.19 C 72.11 43.36 72.31 46.43 71.82 47.85 C 67.73 50.41 70.90 56.65 69.03 60.43 C 66.90 58.51 64.39 57.03 62.53 54.82 C 60.94 50.77 59.04 63.74 61.91 61.97 C 60.64 65.89 66.91 70.26 63.32 73.21 C 55.28 65.77 42.96 57.61 47.71 44.79 C 31.62 54.69 40.04 79.26 53.30 88.26 C 53.31 92.10 55.68 95.07 59.26 96.32 C 59.00 97.51 58.86 98.71 58.86 99.93 L 57.83 99.92 C 56.93 98.09 52.04 98.07 51.20 99.94 C 45.43 99.86 38.02 103.83 37.92 110.20 C 36.14 110.72 36.14 115.27 37.92 115.80 C 41.06 129.53 47.56 142.47 54.04 154.98 C 60.00 165.16 66.64 176.68 78.64 180.41 C 85.87 181.88 94.57 181.44 100.00 175.88 C 109.77 185.06 126.66 181.71 134.70 171.72 C 147.84 155.48 156.93 135.88 162.07 115.80 C 163.92 114.96 163.93 110.03 162.05 109.20 C 161.61 103.12 154.26 99.88 148.80 99.94 C 147.95 98.06 143.08 98.10 142.16 99.91 L 141.08 99.90 C 141.13 98.70 141.06 97.51 140.86 96.33 C 144.08 95.51 147.45 91.78 146.77 88.37 C 158.41 79.87 166.09 62.56 157.73 49.26 C 156.86 48.19 151.35 42.59 153.59 46.99 C 152.17 48.53 152.17 51.44 153.61 52.97 C 150.81 61.63 143.13 67.32 136.66 73.18 C 133.15 70.25 139.30 65.92 138.06 62.02 C 141.54 60.47 137.24 48.89 136.15 56.22 C 134.39 57.61 132.57 58.94 130.93 60.48 C 128.70 57.84 131.81 49.33 128.80 49.36 C 128.21 47.29 127.64 45.21 126.89 43.19 C 123.92 45.46 123.97 53.45 119.27 53.87 C 116.21 43.37 107.69 36.08 101.89 27.18 C 103.35 21.05 96.91 21.64 98.23 27.27 Z" />
</g>
<g id="#640d09ff">
<path fill="#640d09" opacity="1.00" d=" M 98.23 27.27 C 96.91 21.64 103.35 21.05 101.89 27.18 C 100.67 24.61 99.28 24.60 98.23 27.27 Z" />
</g>
<g id="#fb3226ff">
<path fill="#fb3226" opacity="1.00" d=" M 98.23 27.27 C 99.28 24.60 100.67 24.61 101.89 27.18 C 107.69 36.08 116.21 43.37 119.27 53.87 C 123.97 53.45 123.92 45.46 126.89 43.19 C 127.64 45.21 128.21 47.29 128.80 49.36 C 130.59 52.17 125.37 67.49 130.93 60.48 C 132.57 58.94 134.39 57.61 136.15 56.22 C 139.69 52.55 137.75 59.48 138.06 62.02 C 139.30 65.92 133.15 70.25 136.66 73.18 C 137.89 75.24 143.35 76.63 141.08 79.19 C 139.32 79.09 137.56 79.02 135.80 79.06 C 137.11 81.74 140.79 82.14 142.18 84.93 C 139.35 84.78 136.36 83.92 133.73 85.45 C 124.98 88.92 121.15 99.04 112.08 102.27 C 108.90 103.10 106.82 102.40 105.82 100.19 C 115.90 92.61 119.35 79.96 126.13 69.96 C 123.55 69.56 121.37 70.93 119.33 72.29 C 116.00 72.13 112.25 70.98 109.80 73.74 L 109.18 74.20 C 103.07 74.64 96.95 74.63 90.84 74.20 L 90.17 73.86 C 87.92 70.96 83.85 72.51 80.67 72.22 C 79.04 71.11 74.35 68.47 74.14 70.86 C 82.15 79.55 83.73 93.36 94.24 100.18 C 93.11 102.33 91.01 103.03 87.92 102.28 C 79.21 99.03 75.19 89.78 67.20 85.68 C 64.46 85.29 61.69 85.17 58.95 84.78 C 59.31 80.03 72.66 78.38 58.93 79.22 C 56.60 76.66 62.07 75.26 63.32 73.21 C 66.91 70.26 60.64 65.89 61.91 61.97 C 62.07 59.58 62.27 57.19 62.53 54.82 C 64.39 57.03 66.90 58.51 69.03 60.43 C 69.96 61.36 70.91 62.26 71.90 63.11 C 71.40 58.03 70.99 52.92 71.82 47.85 C 72.31 46.43 72.11 43.36 73.81 43.19 C 74.94 46.30 75.93 49.52 78.00 52.17 C 79.09 54.95 83.07 54.51 82.16 51.11 C 84.67 41.58 93.87 35.89 98.23 27.27 Z" />
</g>
<g id="#faedbaff">
<path fill="#faedba" opacity="1.00" d=" M 53.30 88.26 C 40.04 79.26 31.62 54.69 47.71 44.79 C 42.96 57.61 55.28 65.77 63.32 73.21 C 62.07 75.26 56.60 76.66 58.93 79.22 C 57.22 82.33 55.25 85.29 53.30 88.26 Z" />
</g>
<g id="#faedb9ff">
<path fill="#faedb9" opacity="1.00" d=" M 153.59 46.99 C 151.35 42.59 156.86 48.19 157.73 49.26 C 166.09 62.56 158.41 79.87 146.77 88.37 C 144.79 85.36 142.78 82.36 141.08 79.19 C 143.35 76.63 137.89 75.24 136.66 73.18 C 143.13 67.32 150.81 61.63 153.61 52.97 C 154.45 50.89 154.45 48.90 153.59 46.99 Z" />
</g>
<g id="#9a9170ff">
<path fill="#9a9170" opacity="1.00" d=" M 153.59 46.99 C 154.45 48.90 154.45 50.89 153.61 52.97 C 152.17 51.44 152.17 48.53 153.59 46.99 Z" />
</g>
<g id="#620403ff">
<path fill="#620403" opacity="1.00" d=" M 69.03 60.43 C 70.90 56.65 67.73 50.41 71.82 47.85 C 70.99 52.92 71.40 58.03 71.90 63.11 C 70.91 62.26 69.96 61.36 69.03 60.43 Z" />
</g>
<g id="#6e0100ff">
<path fill="#6e0100" opacity="1.00" d=" M 128.80 49.36 C 131.81 49.33 128.70 57.84 130.93 60.48 C 125.37 67.49 130.59 52.17 128.80 49.36 Z" />
</g>
<g id="#6c0d0aff">
<path fill="#6c0d0a" opacity="1.00" d=" M 78.00 52.17 C 79.38 51.81 80.77 51.45 82.16 51.11 C 83.07 54.51 79.09 54.95 78.00 52.17 Z" />
</g>
<g id="#000100a2">
<path fill="#000100" opacity="0.64" d=" M 141.98 52.98 C 145.35 52.75 142.38 58.90 143.20 61.11 C 140.52 63.89 142.94 54.05 141.98 52.98 Z" />
</g>
<g id="#781413ff">
<path fill="#781413" opacity="1.00" d=" M 61.91 61.97 C 59.04 63.74 60.94 50.77 62.53 54.82 C 62.27 57.19 62.07 59.58 61.91 61.97 Z" />
</g>
<g id="#6e0f0dff">
<path fill="#6e0f0d" opacity="1.00" d=" M 136.15 56.22 C 137.24 48.89 141.54 60.47 138.06 62.02 C 137.75 59.48 139.69 52.55 136.15 56.22 Z" />
</g>
<g id="#00000067">
<path fill="#000000" opacity="0.40" d=" M 34.98 66.03 C 33.13 66.32 33.23 57.54 34.99 56.96 C 34.98 59.99 34.98 63.00 34.98 66.03 Z" />
</g>
<g id="#00000063">
<path fill="#000000" opacity="0.39" d=" M 165.02 56.97 C 166.85 56.68 166.78 65.47 165.01 66.04 C 165.03 63.02 165.01 59.99 165.02 56.97 Z" />
</g>
<g id="#77ac02ff">
<path fill="#77ac02" opacity="1.00" d=" M 74.14 70.86 C 74.35 68.47 79.04 71.11 80.67 72.22 C 83.19 74.67 86.98 73.60 90.17 73.86 L 90.84 74.20 C 95.68 76.95 104.49 77.91 109.18 74.20 L 109.80 73.74 C 113.11 73.93 116.77 74.85 119.33 72.29 C 121.37 70.93 123.55 69.56 126.13 69.96 C 119.35 79.96 115.90 92.61 105.82 100.19 C 102.19 102.16 97.63 102.93 94.24 100.18 C 83.73 93.36 82.15 79.55 74.14 70.86 Z" />
</g>
<g id="#bb7e12ff">
<path fill="#bb7e12" opacity="1.00" d=" M 80.67 72.22 C 83.85 72.51 87.92 70.96 90.17 73.86 C 86.98 73.60 83.19 74.67 80.67 72.22 Z" />
</g>
<g id="#bd7c12ff">
<path fill="#bd7c12" opacity="1.00" d=" M 109.80 73.74 C 112.25 70.98 116.00 72.13 119.33 72.29 C 116.77 74.85 113.11 73.93 109.80 73.74 Z" />
</g>
<g id="#c86f1aff">
<path fill="#c86f1a" opacity="1.00" d=" M 90.84 74.20 C 96.95 74.63 103.07 74.64 109.18 74.20 C 104.49 77.91 95.68 76.95 90.84 74.20 Z" />
</g>
<g id="#f68318ff">
<path fill="#f68318" opacity="1.00" d=" M 58.93 79.22 C 72.66 78.38 59.31 80.03 58.95 84.78 C 61.69 85.17 64.46 85.29 67.20 85.68 C 60.63 84.31 60.49 91.85 59.26 96.32 C 55.68 95.07 53.31 92.10 53.30 88.26 C 55.25 85.29 57.22 82.33 58.93 79.22 Z" />
</g>
<g id="#f18114ff">
<path fill="#f18114" opacity="1.00" d=" M 135.80 79.06 C 137.56 79.02 139.32 79.09 141.08 79.19 C 142.78 82.36 144.79 85.36 146.77 88.37 C 147.45 91.78 144.08 95.51 140.86 96.33 C 139.94 92.25 139.69 84.94 133.73 85.45 C 136.36 83.92 139.35 84.78 142.18 84.93 C 140.79 82.14 137.11 81.74 135.80 79.06 Z" />
</g>
<g id="#78ac05ff">
<path fill="#78ac05" opacity="1.00" d=" M 59.26 96.32 C 60.49 91.85 60.63 84.31 67.20 85.68 C 75.19 89.78 79.21 99.03 87.92 102.28 C 87.96 102.96 88.04 104.32 88.08 105.01 C 80.42 109.06 71.44 107.17 63.37 109.90 C 62.34 106.38 61.28 102.78 58.86 99.93 C 58.86 98.71 59.00 97.51 59.26 96.32 Z" />
<path fill="#78ac05" opacity="1.00" d=" M 112.08 102.27 C 121.15 99.04 124.98 88.92 133.73 85.45 C 139.69 84.94 139.94 92.25 140.86 96.33 C 141.06 97.51 141.13 98.70 141.08 99.90 C 138.97 102.94 138.10 106.59 136.68 109.95 C 128.50 107.62 119.55 109.31 111.92 105.02 C 111.96 104.33 112.04 102.96 112.08 102.27 Z" />
</g>
<g id="#9e8b62ff">
<path fill="#9e8b62" opacity="1.00" d=" M 51.20 99.94 C 52.04 98.07 56.93 98.09 57.83 99.92 C 56.17 99.92 52.86 99.93 51.20 99.94 Z" />
</g>
<g id="#9b8a64ff">
<path fill="#9b8a64" opacity="1.00" d=" M 142.16 99.91 C 143.08 98.10 147.95 98.06 148.80 99.94 C 147.14 99.93 143.82 99.91 142.16 99.91 Z" />
</g>
<g id="#fee0a2ff">
<path fill="#fee0a2" opacity="1.00" d=" M 37.92 110.20 C 38.02 103.83 45.43 99.86 51.20 99.94 C 52.86 99.93 56.17 99.92 57.83 99.92 L 58.86 99.93 C 61.28 102.78 62.34 106.38 63.37 109.90 C 71.44 107.17 80.42 109.06 88.08 105.01 C 95.80 102.55 104.26 102.17 111.92 105.02 C 119.55 109.31 128.50 107.62 136.68 109.95 C 138.10 106.59 138.97 102.94 141.08 99.90 L 142.16 99.91 C 143.82 99.91 147.14 99.93 148.80 99.94 C 154.26 99.88 161.61 103.12 162.05 109.20 C 162.05 110.85 162.06 114.15 162.07 115.80 C 156.93 135.88 147.84 155.48 134.70 171.72 C 126.66 181.71 109.77 185.06 100.00 175.88 C 94.57 181.44 85.87 181.88 78.64 180.41 C 66.64 176.68 60.00 165.16 54.04 154.98 C 47.56 142.47 41.06 129.53 37.92 115.80 C 38.04 113.93 38.04 112.06 37.92 110.20 Z" />
</g>
<g id="#ae9225ff">
<path fill="#ae9225" opacity="1.00" d=" M 94.24 100.18 C 97.63 102.93 102.19 102.16 105.82 100.19 C 106.82 102.40 108.90 103.10 112.08 102.27 C 112.04 102.96 111.96 104.33 111.92 105.02 C 104.26 102.17 95.80 102.55 88.08 105.01 C 88.04 104.32 87.96 102.96 87.92 102.28 C 91.01 103.03 93.11 102.33 94.24 100.18 Z" />
</g>
<g id="#a7956cff">
<path fill="#a7956c" opacity="1.00" d=" M 162.05 109.20 C 163.93 110.03 163.92 114.96 162.07 115.80 C 162.06 114.15 162.05 110.85 162.05 109.20 Z" />
</g>
<g id="#93825eff">
<path fill="#93825e" opacity="1.00" d=" M 37.92 115.80 C 36.14 115.27 36.14 110.72 37.92 110.20 C 38.04 112.06 38.04 113.93 37.92 115.80 Z" />
</g>
</svg>
