<?xml version="1.0" encoding="UTF-8" ?>
<!DOCTYPE svg PUBLIC "-//W3C//DTD SVG 1.1//EN" "http://www.w3.org/Graphics/SVG/1.1/DTD/svg11.dtd">
<svg width="200pt" height="200pt" viewBox="0 0 200 200" version="1.1" xmlns="http://www.w3.org/2000/svg">
<g id="#000000ff">
<path fill="#000000" opacity="1.00" d=" M 99.58 18.48 C 101.52 17.31 103.83 18.28 105.30 19.75 C 109.77 23.50 112.87 28.61 114.80 34.07 C 118.67 32.61 122.83 31.28 127.01 31.94 C 129.47 32.61 130.14 35.37 130.62 37.54 C 132.49 47.19 128.71 57.77 120.77 63.69 C 127.71 61.01 131.21 68.41 136.25 71.29 C 141.17 71.75 146.17 71.28 151.05 72.13 C 154.37 72.66 157.75 75.31 157.45 78.98 C 156.91 85.37 152.56 90.47 149.80 96.02 C 149.89 96.63 150.07 97.86 150.16 98.47 C 158.21 100.14 164.71 106.63 166.67 114.58 C 170.48 129.44 165.87 145.63 156.67 157.63 C 147.33 169.89 132.86 177.39 117.91 180.25 C 99.63 183.80 79.98 182.14 63.16 173.85 C 47.93 166.37 36.27 151.80 33.00 135.08 C 31.07 125.06 31.34 113.39 38.25 105.24 C 41.71 100.98 47.02 99.07 52.24 98.06 C 52.27 97.56 52.35 96.56 52.39 96.06 C 49.83 90.39 45.24 85.40 44.80 78.95 C 44.56 75.80 47.15 73.18 50.05 72.44 C 55.32 70.94 60.90 72.13 66.25 71.10 C 69.56 69.59 70.88 65.65 74.20 64.15 C 76.53 62.74 79.30 63.50 81.84 63.52 C 74.16 57.23 70.37 46.65 72.57 36.93 C 73.05 34.97 73.78 32.51 76.03 31.96 C 79.71 31.28 83.41 32.42 86.92 33.46 C 89.48 27.33 93.77 21.81 99.58 18.48 M 89.46 40.01 C 86.05 36.90 81.17 35.52 76.63 36.30 C 76.45 39.55 76.13 42.80 76.46 46.05 C 77.46 53.11 82.00 59.90 88.90 62.36 L 89.57 61.84 C 89.57 62.83 89.57 64.80 89.57 65.79 L 90.32 65.84 C 85.99 66.20 81.83 67.60 77.81 69.19 C 77.71 68.69 77.52 67.68 77.42 67.18 C 75.27 68.25 73.42 69.92 72.35 72.09 C 70.45 73.45 68.60 74.87 66.77 76.31 L 67.22 76.58 L 66.95 76.85 C 65.60 75.73 63.69 74.83 62.10 76.08 C 57.87 76.12 52.55 74.79 49.17 77.99 C 49.07 82.62 52.11 86.49 54.34 90.30 C 54.46 90.78 54.69 91.73 54.81 92.21 C 55.66 92.76 56.57 93.22 57.52 93.60 C 56.79 96.48 56.51 99.44 56.15 102.38 C 48.55 101.67 40.86 106.18 38.30 113.46 C 34.07 125.46 36.99 139.02 43.22 149.81 C 50.38 162.17 62.93 170.76 76.55 174.56 C 95.06 179.78 115.50 178.92 133.14 171.05 C 147.85 164.46 159.44 150.96 162.79 135.08 C 164.51 126.78 164.71 117.40 160.08 109.96 C 157.23 105.25 151.84 102.62 146.44 102.38 C 146.10 99.42 145.73 96.46 144.96 93.58 C 146.43 93.27 148.25 92.19 147.93 90.43 C 150.36 86.65 153.44 82.63 153.24 77.92 C 149.81 74.78 144.51 76.13 140.27 76.11 C 138.99 74.82 136.97 75.86 135.55 76.39 C 133.73 74.67 131.77 73.10 129.67 71.72 C 128.22 69.97 126.65 68.26 124.53 67.33 L 124.25 68.92 C 120.43 67.48 116.48 66.42 112.46 65.71 C 112.75 64.60 112.91 63.47 113.17 62.36 C 123.08 60.44 127.67 49.11 127.27 39.97 C 126.75 38.60 126.29 37.21 125.83 35.82 C 120.67 35.62 116.10 37.97 112.00 40.84 C 111.72 39.22 111.45 37.59 111.18 35.97 C 109.11 30.63 106.42 24.89 101.11 22.09 C 95.61 26.77 90.59 32.62 89.46 40.01 Z" />
</g>
<g id="#ff2d25ff">
<path fill="#ff2d25" opacity="1.00" d=" M 89.46 40.01 C 90.59 32.62 95.61 26.77 101.11 22.09 C 106.42 24.89 109.11 30.63 111.18 35.97 C 111.45 37.59 111.72 39.22 112.00 40.84 C 116.10 37.97 120.67 35.62 125.83 35.82 C 126.29 37.21 126.75 38.60 127.27 39.97 C 127.67 49.11 123.08 60.44 113.17 62.36 C 113.05 62.26 112.81 62.06 112.69 61.96 C 112.27 61.60 111.45 60.89 111.04 60.54 C 106.39 59.94 101.69 60.28 97.03 60.16 C 94.47 60.24 91.50 59.74 89.57 61.84 L 88.90 62.36 C 82.00 59.90 77.46 53.11 76.46 46.05 C 76.13 42.80 76.45 39.55 76.63 36.30 C 81.17 35.52 86.05 36.90 89.46 40.01 Z" />
</g>
<g id="#a04b4aff">
<path fill="#a04b4a" opacity="1.00" d=" M 89.57 61.84 C 91.50 59.74 94.47 60.24 97.03 60.16 C 101.69 60.28 106.39 59.94 111.04 60.54 C 111.45 60.89 112.27 61.60 112.69 61.96 C 105.00 61.30 97.27 61.44 89.57 61.84 Z" />
</g>
<g id="#5c5957ff">
<path fill="#5c5957" opacity="1.00" d=" M 89.57 61.84 C 97.27 61.44 105.00 61.30 112.69 61.96 C 112.81 62.06 113.05 62.26 113.17 62.36 C 112.91 63.47 112.75 64.60 112.46 65.71 L 112.22 65.66 C 111.72 65.52 110.72 65.23 110.22 65.08 C 104.58 63.12 98.36 63.41 92.65 64.93 C 91.88 65.14 90.34 65.58 89.57 65.79 C 89.57 64.80 89.57 62.83 89.57 61.84 Z" />
</g>
<g id="#4f6237ff">
<path fill="#4f6237" opacity="1.00" d=" M 92.65 64.93 C 98.36 63.41 104.58 63.12 110.22 65.08 C 104.36 64.91 98.51 65.01 92.65 64.93 Z" />
</g>
<g id="#7c9c43ff">
<path fill="#7c9c43" opacity="1.00" d=" M 89.57 65.79 C 90.34 65.58 91.88 65.14 92.65 64.93 C 98.51 65.01 104.36 64.91 110.22 65.08 C 110.72 65.23 111.72 65.52 112.22 65.66 C 104.94 66.34 97.61 66.32 90.32 65.84 L 89.57 65.79 Z" />
</g>
<g id="#75af00ff">
<path fill="#75af00" opacity="1.00" d=" M 77.81 69.19 C 81.83 67.60 85.99 66.20 90.32 65.84 C 97.61 66.32 104.94 66.34 112.22 65.66 L 112.46 65.71 C 116.48 66.42 120.43 67.48 124.25 68.92 C 122.93 78.24 115.94 85.26 109.58 91.63 C 117.87 91.27 126.87 88.93 132.56 82.51 C 133.98 81.16 134.20 79.14 134.72 77.36 C 134.12 77.54 132.90 77.89 132.29 78.07 C 133.10 77.61 133.91 77.17 134.74 76.75 C 140.73 80.17 143.15 87.32 144.96 93.58 C 145.73 96.46 146.10 99.42 146.44 102.38 C 140.21 102.13 134.14 104.32 128.86 107.49 C 124.70 99.87 116.13 96.23 107.98 94.73 C 98.00 93.31 87.18 94.82 78.86 100.82 C 76.20 102.65 74.41 105.39 72.80 108.13 C 67.63 105.30 62.15 102.66 56.15 102.38 C 56.51 99.44 56.79 96.48 57.52 93.60 C 59.15 87.34 62.10 81.24 66.95 76.85 L 67.22 76.58 C 68.04 77.08 68.86 77.58 69.69 78.06 C 69.02 78.23 67.68 78.56 67.00 78.72 C 71.66 87.93 82.78 91.36 92.42 91.57 C 86.10 85.32 79.15 78.39 77.81 69.19 Z" />
</g>
<g id="#ff2e27ff">
<path fill="#ff2e27" opacity="1.00" d=" M 72.35 72.09 C 73.42 69.92 75.27 68.25 77.42 67.18 C 77.52 67.68 77.71 68.69 77.81 69.19 C 79.15 78.39 86.10 85.32 92.42 91.57 C 82.78 91.36 71.66 87.93 67.00 78.72 C 67.68 78.56 69.02 78.23 69.69 78.06 C 70.44 78.49 71.93 79.35 72.68 79.78 C 72.52 77.22 72.35 74.66 72.35 72.09 Z" />
</g>
<g id="#ff2d27ff">
<path fill="#ff2d27" opacity="1.00" d=" M 124.53 67.33 C 126.65 68.26 128.22 69.97 129.67 71.72 C 129.58 74.41 129.44 77.10 129.27 79.79 C 130.02 79.36 131.54 78.50 132.29 78.07 C 132.90 77.89 134.12 77.54 134.72 77.36 C 134.20 79.14 133.98 81.16 132.56 82.51 C 126.87 88.93 117.87 91.27 109.58 91.63 C 115.94 85.26 122.93 78.24 124.25 68.92 L 124.53 67.33 Z" />
</g>
<g id="#6da108ff">
<path fill="#6da108" opacity="1.00" d=" M 129.67 71.72 C 131.77 73.10 133.73 74.67 135.55 76.39 L 134.74 76.75 C 133.91 77.17 133.10 77.61 132.29 78.07 C 131.54 78.50 130.02 79.36 129.27 79.79 C 129.44 77.10 129.58 74.41 129.67 71.72 Z" />
</g>
<g id="#6da107ff">
<path fill="#6da107" opacity="1.00" d=" M 66.77 76.31 C 68.60 74.87 70.45 73.45 72.35 72.09 C 72.35 74.66 72.52 77.22 72.68 79.78 C 71.93 79.35 70.44 78.49 69.69 78.06 C 68.86 77.58 68.04 77.08 67.22 76.58 L 66.77 76.31 Z" />
</g>
<g id="#ff810fff">
<path fill="#ff810f" opacity="1.00" d=" M 62.10 76.08 C 63.69 74.83 65.60 75.73 66.95 76.85 C 62.10 81.24 59.15 87.34 57.52 93.60 C 56.57 93.22 55.66 92.76 54.81 92.21 C 54.69 91.73 54.46 90.78 54.34 90.30 C 57.03 85.62 59.47 80.80 62.10 76.08 Z" />
</g>
<g id="#ff8110ff">
<path fill="#ff8110" opacity="1.00" d=" M 135.55 76.39 C 136.97 75.86 138.99 74.82 140.27 76.11 C 143.03 80.76 145.63 85.53 147.93 90.43 C 148.25 92.19 146.43 93.27 144.96 93.58 C 143.15 87.32 140.73 80.17 134.74 76.75 L 135.55 76.39 Z" />
</g>
<g id="#fff3bbff">
<path fill="#fff3bb" opacity="1.00" d=" M 49.17 77.99 C 52.55 74.79 57.87 76.12 62.10 76.08 C 59.47 80.80 57.03 85.62 54.34 90.30 C 52.11 86.49 49.07 82.62 49.17 77.99 Z" />
</g>
<g id="#fff2bdff">
<path fill="#fff2bd" opacity="1.00" d=" M 140.27 76.11 C 144.51 76.13 149.81 74.78 153.24 77.92 C 153.44 82.63 150.36 86.65 147.93 90.43 C 145.63 85.53 143.03 80.76 140.27 76.11 Z" />
</g>
<g id="#ffe1a3ff">
<path fill="#ffe1a3" opacity="1.00" d=" M 78.86 100.82 C 87.18 94.82 98.00 93.31 107.98 94.73 C 116.13 96.23 124.70 99.87 128.86 107.49 C 134.14 104.32 140.21 102.13 146.44 102.38 C 151.84 102.62 157.23 105.25 160.08 109.96 C 164.71 117.40 164.51 126.78 162.79 135.08 C 159.44 150.96 147.85 164.46 133.14 171.05 C 115.50 178.92 95.06 179.78 76.55 174.56 C 62.93 170.76 50.38 162.17 43.22 149.81 C 36.99 139.02 34.07 125.46 38.30 113.46 C 40.86 106.18 48.55 101.67 56.15 102.38 C 62.15 102.66 67.63 105.30 72.80 108.13 C 74.41 105.39 76.20 102.65 78.86 100.82 Z" />
</g>
</svg>
