<?xml version="1.0" encoding="UTF-8" ?>
<!DOCTYPE svg PUBLIC "-//W3C//DTD SVG 1.1//EN" "http://www.w3.org/Graphics/SVG/1.1/DTD/svg11.dtd">
<svg width="200pt" height="200pt" viewBox="0 0 200 200" version="1.1" xmlns="http://www.w3.org/2000/svg">
<g id="#010101ff">
<path fill="#010101" opacity="1.00" d=" M 49.00 32.01 C 64.47 27.13 79.85 21.64 95.92 19.05 C 104.66 18.23 114.04 17.62 122.16 21.62 C 125.50 23.16 128.19 25.74 130.55 28.52 C 139.49 29.71 148.07 34.30 153.29 41.77 C 160.04 50.63 162.52 61.68 165.92 72.06 C 168.70 81.09 169.72 90.66 173.64 99.31 C 174.52 100.89 173.62 102.57 173.24 104.14 C 171.43 104.93 169.54 105.61 167.52 105.50 C 168.02 110.69 168.13 115.94 167.79 121.15 C 167.81 123.13 165.95 124.10 164.49 124.99 C 161.46 134.21 154.56 141.75 145.90 146.01 C 143.11 154.95 141.86 164.68 137.13 172.99 C 136.05 174.52 135.13 176.65 133.03 176.93 C 131.30 177.29 128.80 176.75 128.30 174.79 C 127.60 172.19 128.16 169.45 128.67 166.88 C 127.77 168.22 126.75 169.49 125.46 170.48 C 120.12 174.70 114.45 179.03 107.59 180.32 C 99.40 181.87 90.39 181.26 83.14 176.82 C 79.50 174.59 75.99 172.11 72.90 169.16 C 72.93 171.43 73.53 174.05 72.06 176.04 C 69.43 178.26 65.94 176.01 64.45 173.56 C 59.41 165.55 56.67 156.30 55.06 147.04 C 51.71 144.36 47.45 142.73 44.42 139.53 C 37.48 132.90 32.29 122.68 35.17 112.99 C 35.44 110.29 34.37 107.63 34.07 104.95 C 30.89 106.16 27.54 107.79 24.05 107.23 C 20.89 106.92 19.65 102.67 21.28 100.27 C 23.22 96.87 25.10 93.39 27.54 90.32 C 25.50 90.75 23.19 91.97 21.28 90.53 C 19.47 89.11 19.13 86.24 20.41 84.35 C 26.76 73.85 30.77 62.02 38.18 52.15 C 41.50 47.84 45.25 43.81 49.62 40.55 C 47.42 40.51 45.09 39.22 44.77 36.86 C 44.66 34.42 46.87 32.65 49.00 32.01 M 56.00 33.90 C 53.51 34.61 51.06 35.46 48.70 36.54 C 51.81 37.50 55.00 38.15 58.22 38.58 C 53.04 42.56 47.86 46.64 43.64 51.67 C 37.24 59.13 33.32 68.23 28.98 76.94 C 27.30 80.46 25.10 83.70 23.63 87.31 C 28.11 86.31 32.46 84.70 36.28 82.11 C 32.93 89.68 27.71 96.23 24.02 103.62 C 29.32 103.45 34.05 100.71 37.87 97.21 C 37.91 102.24 38.02 107.36 39.52 112.21 C 36.71 119.13 39.29 126.85 43.60 132.52 C 47.24 137.15 51.98 141.22 57.68 142.99 C 59.66 146.21 59.52 150.10 60.43 153.66 C 61.55 158.15 63.21 162.51 65.17 166.71 C 66.21 168.77 67.16 171.07 69.24 172.31 C 68.88 168.12 68.53 163.92 68.65 159.70 C 75.21 166.14 82.10 172.96 90.97 176.02 C 98.92 177.89 107.98 177.68 115.03 173.10 C 121.58 169.07 127.15 163.68 132.48 158.19 C 132.54 163.23 132.11 168.26 132.23 173.30 C 136.90 166.57 138.52 158.34 140.64 150.57 C 141.26 147.69 142.54 144.54 141.20 141.67 C 141.65 139.40 141.03 137.04 141.72 134.81 C 141.73 136.96 141.91 139.14 142.75 141.16 C 142.54 141.69 142.11 142.77 141.90 143.31 C 151.46 139.49 159.36 131.11 161.31 120.84 C 161.95 120.90 163.23 121.02 163.87 121.08 C 163.87 112.64 164.22 104.06 161.95 95.84 C 163.84 98.60 166.06 101.50 169.66 101.93 C 169.69 100.89 169.52 99.90 169.14 98.93 C 165.80 90.27 164.74 80.94 161.79 72.15 C 158.50 61.57 155.78 50.22 148.15 41.76 C 143.33 36.11 136.13 33.01 128.83 32.31 C 126.04 29.37 123.24 26.19 119.36 24.70 C 112.67 21.66 105.15 22.49 98.03 22.76 C 83.62 24.73 69.80 29.49 56.00 33.90 Z" />
</g>
<g id="#004368ff">
<path fill="#004368" opacity="1.00" d=" M 56.00 33.90 C 69.80 29.49 83.62 24.73 98.03 22.76 C 105.15 22.49 112.67 21.66 119.36 24.70 C 123.24 26.19 126.04 29.37 128.83 32.31 C 136.13 33.01 143.33 36.11 148.15 41.76 C 155.78 50.22 158.50 61.57 161.79 72.15 C 164.74 80.94 165.80 90.27 169.14 98.93 C 169.52 99.90 169.69 100.89 169.66 101.93 C 166.06 101.50 163.84 98.60 161.95 95.84 C 164.22 104.06 163.87 112.64 163.87 121.08 C 163.23 121.02 161.95 120.90 161.31 120.84 C 156.98 119.68 153.56 116.52 150.66 113.26 C 149.10 122.81 146.80 132.33 142.75 141.16 C 141.91 139.14 141.73 136.96 141.72 134.81 C 142.93 125.57 143.61 116.26 143.59 106.94 C 143.87 104.06 141.95 101.76 140.67 99.38 C 137.07 93.09 135.01 86.03 134.08 78.87 C 129.66 90.17 122.00 99.88 113.75 108.64 C 121.93 106.32 130.11 103.63 138.64 102.99 C 130.04 105.77 121.44 108.60 112.84 111.38 C 109.86 112.22 107.53 114.30 105.17 116.19 C 105.70 112.11 106.27 108.03 106.67 103.93 C 101.58 112.52 93.35 119.48 83.73 122.38 C 80.07 119.09 78.94 113.72 78.36 108.99 C 76.94 111.79 75.85 114.74 75.00 117.76 C 73.18 114.34 71.75 110.72 71.04 106.90 C 68.53 105.98 65.95 105.27 63.29 104.93 C 64.00 104.49 64.70 104.04 65.41 103.61 C 67.17 104.10 68.93 104.59 70.68 105.10 C 70.34 98.61 71.38 92.14 73.33 85.96 C 69.91 90.46 66.71 95.16 64.17 100.23 C 63.50 101.46 63.26 102.78 63.45 104.20 C 63.02 104.13 62.18 104.00 61.75 103.93 C 60.87 109.25 57.17 113.67 56.47 119.03 C 56.34 122.87 56.86 126.69 57.23 130.50 C 57.98 136.78 58.27 143.24 60.78 149.13 C 62.34 153.35 65.64 156.50 68.65 159.70 C 68.53 163.92 68.88 168.12 69.24 172.31 C 67.16 171.07 66.21 168.77 65.17 166.71 C 63.21 162.51 61.55 158.15 60.43 153.66 C 59.52 150.10 59.66 146.21 57.68 142.99 C 52.37 132.25 50.02 120.37 48.09 108.63 C 47.76 109.00 47.11 109.75 46.78 110.12 C 45.71 114.25 45.17 118.49 44.10 122.63 C 42.08 119.39 40.54 115.88 39.52 112.21 C 38.02 107.36 37.91 102.24 37.87 97.21 C 34.05 100.71 29.32 103.45 24.02 103.62 C 27.71 96.23 32.93 89.68 36.28 82.11 C 32.46 84.70 28.11 86.31 23.63 87.31 C 25.10 83.70 27.30 80.46 28.98 76.94 C 33.32 68.23 37.24 59.13 43.64 51.67 C 47.86 46.64 53.04 42.56 58.22 38.58 C 55.00 38.15 51.81 37.50 48.70 36.54 C 51.06 35.46 53.51 34.61 56.00 33.90 Z" />
<path fill="#004368" opacity="1.00" d=" M 132.48 158.19 C 137.30 153.88 139.82 147.86 141.20 141.67 C 142.54 144.54 141.26 147.69 140.64 150.57 C 138.52 158.34 136.90 166.57 132.23 173.30 C 132.11 168.26 132.54 163.23 132.48 158.19 Z" />
</g>
<g id="#f8e0caff">
<path fill="#f8e0ca" opacity="1.00" d=" M 113.75 108.64 C 122.00 99.88 129.66 90.17 134.08 78.87 C 135.01 86.03 137.07 93.09 140.67 99.38 C 141.95 101.76 143.87 104.06 143.59 106.94 C 143.61 116.26 142.93 125.57 141.72 134.81 C 141.03 137.04 141.65 139.40 141.20 141.67 C 139.82 147.86 137.30 153.88 132.48 158.19 C 127.15 163.68 121.58 169.07 115.03 173.10 C 107.98 177.68 98.92 177.89 90.97 176.02 C 82.10 172.96 75.21 166.14 68.65 159.70 C 65.64 156.50 62.34 153.35 60.78 149.13 C 58.27 143.24 57.98 136.78 57.23 130.50 C 56.86 126.69 56.34 122.87 56.47 119.03 C 57.17 113.67 60.87 109.25 61.75 103.93 C 62.18 104.00 63.02 104.13 63.45 104.20 C 63.26 102.78 63.50 101.46 64.17 100.23 C 66.71 95.16 69.91 90.46 73.33 85.96 C 71.38 92.14 70.34 98.61 70.68 105.10 C 68.93 104.59 67.17 104.10 65.41 103.61 C 64.70 104.04 64.00 104.49 63.29 104.93 C 65.95 105.27 68.53 105.98 71.04 106.90 C 71.75 110.72 73.18 114.34 75.00 117.76 C 75.85 114.74 76.94 111.79 78.36 108.99 C 78.94 113.72 80.07 119.09 83.73 122.38 C 93.35 119.48 101.58 112.52 106.67 103.93 C 106.27 108.03 105.70 112.11 105.17 116.19 C 107.53 114.30 109.86 112.22 112.84 111.38 C 121.44 108.60 130.04 105.77 138.64 102.99 C 130.11 103.63 121.93 106.32 113.75 108.64 Z" />
<path fill="#f8e0ca" opacity="1.00" d=" M 46.78 110.12 C 47.11 109.75 47.76 109.00 48.09 108.63 C 50.02 120.37 52.37 132.25 57.68 142.99 C 51.98 141.22 47.24 137.15 43.60 132.52 C 39.29 126.85 36.71 119.13 39.52 112.21 C 40.54 115.88 42.08 119.39 44.10 122.63 C 45.17 118.49 45.71 114.25 46.78 110.12 Z" />
<path fill="#f8e0ca" opacity="1.00" d=" M 150.66 113.26 C 153.56 116.52 156.98 119.68 161.31 120.84 C 159.36 131.11 151.46 139.49 141.90 143.31 C 142.11 142.77 142.54 141.69 142.75 141.16 C 146.80 132.33 149.10 122.81 150.66 113.26 Z" />
</g>
</svg>
