<?xml version="1.0" encoding="UTF-8" ?>
<!DOCTYPE svg PUBLIC "-//W3C//DTD SVG 1.1//EN" "http://www.w3.org/Graphics/SVG/1.1/DTD/svg11.dtd">
<svg width="200pt" height="200pt" viewBox="0 0 200 200" version="1.1" xmlns="http://www.w3.org/2000/svg">
<g id="#000100ff">
<path fill="#000100" opacity="1.00" d=" M 137.69 21.71 C 141.95 18.64 147.86 16.56 152.84 19.15 C 157.14 21.32 158.73 26.49 158.61 31.00 C 158.35 40.10 154.75 48.71 150.50 56.61 C 146.70 63.49 141.93 69.88 136.09 75.16 C 140.34 83.88 141.92 93.84 140.52 103.44 C 149.43 107.22 156.66 114.48 160.60 123.30 C 162.55 128.38 168.75 130.14 170.40 135.42 C 172.32 141.09 169.36 146.77 166.68 151.63 C 160.18 163.96 148.35 172.78 135.43 177.50 C 119.08 183.45 100.31 183.88 84.27 176.73 C 70.59 170.79 60.13 158.44 56.16 144.11 C 49.08 143.35 42.20 140.05 37.75 134.41 C 30.12 124.78 28.14 111.25 31.70 99.62 C 33.08 95.02 36.29 91.19 40.42 88.80 C 40.61 77.21 46.18 66.29 54.07 58.03 C 63.84 47.70 77.57 40.70 91.94 40.58 C 99.87 40.46 107.70 42.74 114.54 46.70 C 121.61 37.83 128.35 28.35 137.69 21.71 M 142.16 24.08 C 131.42 30.91 124.34 41.83 116.39 51.48 C 116.04 51.57 115.34 51.76 114.99 51.85 C 110.22 48.88 105.10 46.25 99.44 45.61 C 95.80 44.11 91.83 44.47 88.00 44.72 C 85.76 45.96 83.13 45.86 80.71 46.52 C 63.12 51.76 48.14 66.65 44.86 84.99 C 43.51 87.37 46.30 91.95 43.03 92.84 C 38.67 94.30 36.46 98.94 35.36 103.09 C 33.03 113.31 35.03 124.96 42.12 132.92 C 46.49 137.88 53.14 140.28 59.67 140.13 C 62.75 154.31 72.40 167.07 85.83 172.89 C 103.69 180.92 125.13 179.22 142.29 170.17 C 153.67 164.26 162.98 154.07 166.84 141.75 C 167.77 138.84 166.74 135.58 164.36 133.69 C 161.46 131.23 158.40 128.72 156.99 125.06 C 153.06 116.19 145.29 109.18 135.97 106.41 C 138.58 95.68 136.81 83.91 131.03 74.49 C 140.09 67.34 146.62 57.48 151.00 46.90 C 151.73 44.95 152.34 42.94 153.47 41.18 C 153.45 40.78 153.42 40.00 153.40 39.61 C 154.72 34.99 155.43 29.90 153.59 25.31 L 153.64 24.87 C 152.81 24.09 151.99 23.31 151.18 22.52 C 148.09 22.25 144.76 22.06 142.16 24.08 Z" />
</g>
<g id="#e50113ff">
<path fill="#e50113" opacity="1.00" d=" M 142.16 24.08 C 144.76 22.06 148.09 22.25 151.18 22.52 C 151.99 23.31 152.81 24.09 153.64 24.87 L 153.59 25.31 C 152.93 30.05 153.02 34.85 153.40 39.61 C 153.42 40.00 153.45 40.78 153.47 41.18 C 152.34 42.94 151.73 44.95 151.00 46.90 C 146.62 57.48 140.09 67.34 131.03 74.49 C 128.71 70.72 125.03 67.74 120.52 67.23 C 109.70 64.33 98.06 65.59 87.49 68.97 C 79.37 71.49 71.82 75.82 65.55 81.55 C 61.23 85.82 57.98 91.06 55.33 96.50 C 52.03 93.53 47.51 91.35 43.03 92.84 C 46.30 91.95 43.51 87.37 44.86 84.99 C 48.14 66.65 63.12 51.76 80.71 46.52 C 83.13 45.86 85.76 45.96 88.00 44.72 C 91.83 44.47 95.80 44.11 99.44 45.61 C 105.10 46.25 110.22 48.88 114.99 51.85 C 115.34 51.76 116.04 51.57 116.39 51.48 C 124.34 41.83 131.42 30.91 142.16 24.08 Z" />
</g>
<g id="#dc1628ff">
<path fill="#dc1628" opacity="1.00" d=" M 153.40 39.61 C 153.02 34.85 152.93 30.05 153.59 25.31 C 155.43 29.90 154.72 34.99 153.40 39.61 Z" />
</g>
<g id="#7f3d1aff">
<path fill="#7f3d1a" opacity="1.00" d=" M 87.49 68.97 C 98.06 65.59 109.70 64.33 120.52 67.23 C 112.45 68.97 110.46 78.04 110.41 85.10 C 107.07 78.49 101.07 72.91 93.73 71.23 C 86.24 69.79 78.80 75.86 77.60 83.18 C 75.76 94.01 80.03 104.83 85.46 114.02 C 80.07 116.58 74.78 119.37 70.00 122.95 C 68.35 112.81 62.66 103.56 55.33 96.50 C 57.98 91.06 61.23 85.82 65.55 81.55 C 71.82 75.82 79.37 71.49 87.49 68.97 Z" />
</g>
<g id="#f8c385ff">
<path fill="#f8c385" opacity="1.00" d=" M 120.52 67.23 C 125.03 67.74 128.71 70.72 131.03 74.49 C 136.81 83.91 138.58 95.68 135.97 106.41 C 145.29 109.18 153.06 116.19 156.99 125.06 C 158.40 128.72 161.46 131.23 164.36 133.69 C 166.74 135.58 167.77 138.84 166.84 141.75 C 162.98 154.07 153.67 164.26 142.29 170.17 C 125.13 179.22 103.69 180.92 85.83 172.89 C 72.40 167.07 62.75 154.31 59.67 140.13 C 53.14 140.28 46.49 137.88 42.12 132.92 C 35.03 124.96 33.03 113.31 35.36 103.09 C 36.46 98.94 38.67 94.30 43.03 92.84 C 47.51 91.35 52.03 93.53 55.33 96.50 C 62.66 103.56 68.35 112.81 70.00 122.95 C 74.78 119.37 80.07 116.58 85.46 114.02 C 80.03 104.83 75.76 94.01 77.60 83.18 C 78.80 75.86 86.24 69.79 93.73 71.23 C 101.07 72.91 107.07 78.49 110.41 85.10 C 110.46 78.04 112.45 68.97 120.52 67.23 Z" />
</g>
</svg>
