<?xml version="1.0" encoding="UTF-8" ?>
<!DOCTYPE svg PUBLIC "-//W3C//DTD SVG 1.1//EN" "http://www.w3.org/Graphics/SVG/1.1/DTD/svg11.dtd">
<svg width="200pt" height="200pt" viewBox="0 0 200 200" version="1.1" xmlns="http://www.w3.org/2000/svg">
<g id="#000000ff">
<path fill="#000000" opacity="1.00" d=" M 86.47 20.49 C 93.58 14.85 104.25 14.54 112.04 18.95 C 118.00 22.38 120.76 29.25 121.47 35.81 C 127.51 31.88 133.51 27.66 138.14 22.08 C 140.22 19.54 143.67 17.81 146.97 18.76 C 151.12 19.91 153.24 23.99 156.48 26.46 C 162.96 31.53 169.78 36.26 177.22 39.82 C 179.37 41.04 182.46 40.81 183.79 43.23 C 184.34 45.98 184.61 49.31 182.64 51.60 C 180.03 55.17 175.81 57.01 171.54 57.61 C 167.64 61.17 161.98 61.64 157.03 60.42 C 149.49 65.58 139.76 67.96 130.83 65.43 C 130.40 72.13 128.75 79.08 124.35 84.34 C 128.69 88.70 132.28 93.82 134.29 99.69 C 150.79 104.42 167.11 113.89 175.55 129.38 C 180.36 138.23 183.44 148.82 180.88 158.84 C 179.44 164.73 174.22 169.66 168.00 169.81 C 163.35 170.27 158.96 167.31 156.88 163.26 C 151.68 153.55 152.12 141.85 146.86 132.15 C 144.64 128.27 141.63 124.77 137.88 122.30 C 137.85 124.80 137.61 127.30 137.71 129.81 C 141.95 133.05 146.03 137.08 147.56 142.35 C 149.95 150.46 148.02 159.91 142.08 166.04 C 138.01 170.26 132.11 172.45 126.29 172.36 C 113.92 187.41 87.67 188.14 75.52 172.47 C 69.04 172.39 62.43 169.82 58.35 164.65 C 53.21 158.25 51.76 149.15 54.44 141.42 C 56.12 136.55 60.02 132.90 63.95 129.76 C 64.05 127.16 63.83 124.56 63.84 121.96 C 60.14 124.50 56.99 127.83 54.74 131.72 C 48.77 142.07 49.95 155.13 43.26 165.14 C 39.29 170.98 30.43 171.15 25.35 166.72 C 20.31 162.44 19.12 155.28 19.63 149.01 C 21.00 133.63 30.12 119.39 42.87 110.88 C 50.45 105.91 58.68 101.84 67.47 99.54 C 69.45 93.71 73.03 88.60 77.41 84.33 C 72.97 78.95 71.36 71.88 70.90 65.07 C 61.86 68.21 51.71 65.67 43.97 60.42 C 39.03 61.64 33.37 61.16 29.46 57.61 C 24.33 56.94 18.88 54.14 17.02 49.04 C 16.90 46.55 16.14 43.17 18.73 41.64 C 27.90 38.83 35.75 33.00 43.38 27.36 C 46.96 24.98 49.08 20.82 53.10 19.07 C 56.35 17.66 60.16 19.04 62.40 21.59 C 67.07 27.16 72.90 31.67 79.10 35.41 C 80.15 29.92 81.88 24.10 86.47 20.49 M 86.62 26.52 C 82.93 31.60 83.42 38.27 83.77 44.20 L 83.79 44.86 C 82.73 45.78 83.13 47.48 83.68 48.58 C 83.48 48.72 83.09 48.99 82.89 49.12 C 81.74 46.51 82.54 44.02 83.24 41.46 C 81.35 41.88 79.87 40.48 78.28 39.78 C 71.96 35.99 65.89 31.61 60.95 26.09 C 59.79 24.80 58.58 23.53 57.10 22.61 C 53.39 21.95 51.54 26.05 49.06 28.06 C 41.74 34.27 33.67 39.65 25.06 43.89 C 23.51 44.75 19.85 44.45 20.54 47.09 C 22.41 51.26 27.05 54.03 31.60 53.34 C 34.30 58.07 40.48 56.67 44.90 56.07 C 50.73 60.17 57.76 63.05 65.02 62.17 C 69.44 61.62 74.61 60.08 76.67 55.75 C 74.63 59.53 74.92 63.95 75.19 68.09 C 76.17 74.49 78.54 81.31 84.02 85.21 C 78.95 87.86 75.18 92.52 72.76 97.62 C 68.00 108.26 67.69 120.23 68.41 131.66 C 63.83 135.01 59.00 139.13 57.83 144.98 C 56.14 152.67 59.04 161.81 66.12 165.84 C 69.58 167.94 73.73 168.38 77.69 168.10 C 87.60 183.96 113.88 183.37 124.07 168.10 C 128.78 168.51 133.81 167.58 137.55 164.54 C 143.50 159.81 145.59 151.33 143.74 144.14 C 142.26 138.49 137.40 134.72 132.98 131.33 C 134.43 122.60 133.57 113.58 131.61 105.00 C 129.61 97.08 125.26 89.17 117.81 85.25 C 125.53 79.34 128.03 68.21 126.33 59.01 C 134.33 63.55 144.58 63.28 152.41 58.44 C 154.19 57.49 155.81 55.45 158.05 56.29 C 161.94 57.00 167.19 57.42 169.44 53.40 C 173.83 53.92 178.90 51.34 180.35 47.02 C 181.01 44.36 177.76 44.63 176.23 43.95 C 167.91 40.00 160.26 34.77 153.09 29.01 C 150.64 27.03 148.93 24.22 146.15 22.64 C 143.96 21.99 142.37 23.65 141.03 25.10 C 134.94 31.85 127.58 37.50 119.43 41.54 L 118.00 41.27 C 117.89 43.55 117.75 45.83 117.77 48.11 C 117.10 46.86 117.16 45.43 117.09 44.06 C 117.60 38.41 117.81 32.40 114.69 27.40 C 112.00 22.60 106.39 19.96 100.99 20.21 C 95.56 19.77 89.72 21.88 86.62 26.52 Z" />
<path fill="#000000" opacity="1.00" d=" M 91.17 115.15 C 95.40 108.56 106.60 108.71 110.74 115.33 C 112.42 117.88 111.93 121.26 110.23 123.67 C 105.85 129.43 96.00 129.37 91.54 123.73 C 89.81 121.25 89.36 117.70 91.17 115.15 Z" />
</g>
<g id="#e245d2ff">
<path fill="#e245d2" opacity="1.00" d=" M 86.62 26.52 C 89.72 21.88 95.56 19.77 100.99 20.21 C 106.39 19.96 112.00 22.60 114.69 27.40 C 117.81 32.40 117.60 38.41 117.09 44.06 C 114.96 44.23 112.56 44.04 110.99 45.79 C 107.36 44.08 105.24 40.44 101.90 38.36 C 97.33 37.16 95.36 42.48 92.02 44.43 C 89.30 45.15 86.52 44.04 83.77 44.20 C 83.42 38.27 82.93 31.60 86.62 26.52 Z" />
</g>
<g id="#134ad3ff">
<path fill="#134ad3" opacity="1.00" d=" M 49.06 28.06 C 51.54 26.05 53.39 21.95 57.10 22.61 C 58.58 23.53 59.79 24.80 60.95 26.09 C 65.89 31.61 71.96 35.99 78.28 39.78 C 79.87 40.48 81.35 41.88 83.24 41.46 C 82.54 44.02 81.74 46.51 82.89 49.12 C 80.27 50.74 78.09 53.01 76.67 55.75 C 74.61 60.08 69.44 61.62 65.02 62.17 C 57.76 63.05 50.73 60.17 44.90 56.07 C 40.48 56.67 34.30 58.07 31.60 53.34 C 27.05 54.03 22.41 51.26 20.54 47.09 C 19.85 44.45 23.51 44.75 25.06 43.89 C 33.67 39.65 41.74 34.27 49.06 28.06 Z" />
<path fill="#134ad3" opacity="1.00" d=" M 141.03 25.10 C 142.37 23.65 143.96 21.99 146.15 22.64 C 148.93 24.22 150.64 27.03 153.09 29.01 C 160.26 34.77 167.91 40.00 176.23 43.95 C 177.76 44.63 181.01 44.36 180.35 47.02 C 178.90 51.34 173.83 53.92 169.44 53.40 C 167.19 57.42 161.94 57.00 158.05 56.29 C 155.81 55.45 154.19 57.49 152.41 58.44 C 144.58 63.28 134.33 63.55 126.33 59.01 C 125.25 54.57 122.21 50.58 117.98 48.74 L 117.77 48.11 C 117.75 45.83 117.89 43.55 118.00 41.27 L 119.43 41.54 C 127.58 37.50 134.94 31.85 141.03 25.10 Z" />
</g>
<g id="#faaa0aff">
<path fill="#faaa0a" opacity="1.00" d=" M 92.02 44.43 C 95.36 42.48 97.33 37.16 101.90 38.36 C 105.24 40.44 107.36 44.08 110.99 45.79 C 112.56 44.04 114.96 44.23 117.09 44.06 C 117.16 45.43 117.10 46.86 117.77 48.11 L 117.98 48.74 L 116.94 48.23 C 115.56 48.75 114.64 49.97 113.78 51.10 C 111.96 53.50 114.85 57.22 112.43 59.30 C 110.56 61.58 107.96 59.23 105.80 58.74 C 101.53 57.99 96.94 57.87 92.85 59.51 C 91.30 60.00 89.03 60.35 87.87 58.98 C 86.96 56.57 88.11 53.89 87.43 51.43 C 85.45 49.65 83.52 47.79 83.79 44.86 L 83.77 44.20 C 86.52 44.04 89.30 45.15 92.02 44.43 Z" />
</g>
<g id="#ffffd2ff">
<path fill="#ffffd2" opacity="1.00" d=" M 83.68 48.58 C 83.13 47.48 82.73 45.78 83.79 44.86 C 83.52 47.79 85.45 49.65 87.43 51.43 C 88.11 53.89 86.96 56.57 87.87 58.98 C 89.03 60.35 91.30 60.00 92.85 59.51 C 96.94 57.87 101.53 57.99 105.80 58.74 C 107.96 59.23 110.56 61.58 112.43 59.30 C 114.85 57.22 111.96 53.50 113.78 51.10 C 114.64 49.97 115.56 48.75 116.94 48.23 L 117.98 48.74 C 122.21 50.58 125.25 54.57 126.33 59.01 C 128.03 68.21 125.53 79.34 117.81 85.25 C 107.53 79.83 94.32 79.85 84.02 85.21 C 78.54 81.31 76.17 74.49 75.19 68.09 C 74.92 63.95 74.63 59.53 76.67 55.75 C 78.09 53.01 80.27 50.74 82.89 49.12 C 83.09 48.99 83.48 48.72 83.68 48.58 Z" />
</g>
<g id="#c96a3bff">
<path fill="#c96a3b" opacity="1.00" d=" M 84.02 85.21 C 94.32 79.85 107.53 79.83 117.81 85.25 C 125.26 89.17 129.61 97.08 131.61 105.00 C 133.57 113.58 134.43 122.60 132.98 131.33 C 126.20 127.02 118.31 123.91 110.23 123.67 C 111.93 121.26 112.42 117.88 110.74 115.33 C 106.60 108.71 95.40 108.56 91.17 115.15 C 89.36 117.70 89.81 121.25 91.54 123.73 C 83.33 123.84 75.14 126.98 68.41 131.66 C 67.69 120.23 68.00 108.26 72.76 97.62 C 75.18 92.52 78.95 87.86 84.02 85.21 Z" />
</g>
<g id="#ffebc2ff">
<path fill="#ffebc2" opacity="1.00" d=" M 68.41 131.66 C 75.14 126.98 83.33 123.84 91.54 123.73 C 96.00 129.37 105.85 129.43 110.23 123.67 C 118.31 123.91 126.20 127.02 132.98 131.33 C 137.40 134.72 142.26 138.49 143.74 144.14 C 145.59 151.33 143.50 159.81 137.55 164.54 C 133.81 167.58 128.78 168.51 124.07 168.10 C 113.88 183.37 87.60 183.96 77.69 168.10 C 73.73 168.38 69.58 167.94 66.12 165.84 C 59.04 161.81 56.14 152.67 57.83 144.98 C 59.00 139.13 63.83 135.01 68.41 131.66 M 87.13 165.35 C 87.15 172.47 94.06 178.40 101.07 177.89 C 107.94 178.10 114.01 172.36 114.92 165.67 C 109.75 162.98 104.53 160.00 100.85 155.37 C 97.23 159.80 92.33 163.05 87.13 165.35 Z" />
</g>
<g id="#e83829ff">
<path fill="#e83829" opacity="1.00" d=" M 87.13 165.35 C 92.33 163.05 97.23 159.80 100.85 155.37 C 104.53 160.00 109.75 162.98 114.92 165.67 C 114.01 172.36 107.94 178.10 101.07 177.89 C 94.06 178.40 87.15 172.47 87.13 165.35 Z" />
</g>
</svg>
