<?xml version="1.0" encoding="UTF-8" ?>
<!DOCTYPE svg PUBLIC "-//W3C//DTD SVG 1.1//EN" "http://www.w3.org/Graphics/SVG/1.1/DTD/svg11.dtd">
<svg width="200pt" height="200pt" viewBox="0 0 200 200" version="1.1" xmlns="http://www.w3.org/2000/svg">
<g id="#000000ff">
<path fill="#000000" opacity="1.00" d=" M 45.30 24.24 C 46.44 23.02 48.29 22.65 49.84 23.22 C 59.84 29.01 67.46 37.95 74.31 47.07 C 75.71 44.16 75.05 40.16 77.98 38.06 C 81.84 35.28 86.90 37.15 91.29 36.47 C 93.67 33.56 95.65 29.95 98.99 28.05 C 104.30 26.91 106.20 33.48 109.22 36.57 C 113.12 36.94 117.60 35.52 121.02 38.00 C 124.10 40.29 123.61 44.54 124.80 47.82 C 126.15 46.81 127.06 45.37 128.09 44.06 C 134.01 36.07 141.09 28.79 149.58 23.52 C 151.17 22.55 153.41 22.87 154.70 24.23 C 162.42 32.09 166.40 43.11 166.70 54.02 C 166.98 63.54 164.77 73.59 158.41 80.94 C 159.23 84.27 159.80 87.66 160.10 91.08 C 163.85 92.99 167.82 94.49 171.59 96.39 C 173.41 97.57 173.65 99.94 173.90 101.91 C 174.84 109.90 175.06 117.96 174.99 126.00 C 174.84 129.90 174.82 133.91 173.49 137.62 C 172.86 139.36 170.74 139.53 169.73 140.83 C 171.00 142.98 172.33 145.11 173.62 147.25 C 174.97 149.20 174.16 152.17 172.05 153.20 C 154.77 159.64 138.67 169.12 120.74 173.82 C 111.16 176.47 101.07 177.96 91.19 176.31 C 68.51 172.83 48.38 161.15 27.34 152.82 C 23.16 148.96 28.67 144.45 30.31 140.76 C 28.57 139.52 26.18 138.56 26.01 136.04 C 24.22 126.43 25.12 116.56 25.60 106.87 C 26.14 103.52 25.55 99.59 27.86 96.82 C 31.63 94.45 36.08 93.24 39.91 90.99 C 40.21 87.60 40.77 84.25 41.59 80.94 C 35.24 73.58 33.02 63.52 33.31 53.99 C 33.62 43.09 37.58 32.09 45.30 24.24 M 37.79 57.91 C 38.14 65.95 40.61 74.34 46.57 80.03 C 45.08 84.74 44.42 89.66 44.33 94.59 C 39.76 95.59 35.47 98.34 31.04 100.12 C 29.97 104.98 29.97 110.02 29.65 114.98 C 29.54 121.88 29.03 128.92 30.49 135.72 C 32.25 137.07 34.43 137.81 36.38 138.87 C 34.55 142.56 32.52 146.17 30.21 149.59 C 40.16 153.20 49.51 158.51 59.47 161.93 C 65.23 165.40 72.10 167.19 78.52 169.34 C 88.98 172.52 100.20 174.30 111.04 172.02 C 121.37 170.26 131.25 166.56 140.92 162.59 C 141.79 162.11 142.90 161.82 143.45 160.93 C 152.62 157.84 161.12 152.78 170.35 149.71 C 168.16 146.17 166.02 142.60 164.18 138.86 C 166.12 137.90 168.09 137.01 169.97 135.92 C 171.04 132.40 170.95 128.67 171.06 125.02 C 171.07 116.76 170.89 108.45 169.64 100.27 C 165.49 98.10 161.11 96.38 156.87 94.39 L 156.26 94.80 C 156.18 89.79 155.52 84.78 153.99 79.99 C 159.48 74.87 161.97 67.33 162.65 60.02 C 163.69 48.34 160.29 35.88 151.96 27.37 C 143.55 32.61 136.70 39.97 130.88 47.92 C 128.75 50.88 125.77 53.21 122.34 54.47 C 121.37 50.68 120.41 46.88 119.58 43.05 C 119.53 41.81 118.26 40.83 117.05 41.01 C 113.73 41.00 110.41 40.96 107.09 41.04 C 105.21 37.92 103.07 34.96 100.67 32.22 C 98.02 34.98 95.72 38.03 93.58 41.18 C 90.04 40.78 86.46 41.10 82.91 41.00 C 81.62 40.79 80.08 41.68 80.06 43.10 C 79.30 46.81 78.24 50.46 77.47 54.17 C 74.20 52.82 71.46 50.43 69.42 47.56 C 63.69 39.74 56.90 32.55 48.64 27.37 C 40.78 35.33 37.33 46.89 37.79 57.91 Z" />
</g>
<g id="#de9f32ff">
<path fill="#de9f32" opacity="1.00" d=" M 37.79 57.91 C 37.33 46.89 40.78 35.33 48.64 27.37 C 56.90 32.55 63.69 39.74 69.42 47.56 C 71.46 50.43 74.20 52.82 77.47 54.17 C 80.56 55.50 83.94 55.86 87.26 55.54 C 83.55 69.91 86.21 86.00 94.95 98.07 C 96.67 100.10 98.37 102.59 100.90 103.55 C 108.01 98.12 111.51 89.30 113.49 80.85 C 115.32 72.50 115.15 63.76 113.11 55.47 C 116.22 55.87 119.40 55.59 122.34 54.47 C 125.77 53.21 128.75 50.88 130.88 47.92 C 136.70 39.97 143.55 32.61 151.96 27.37 C 160.29 35.88 163.69 48.34 162.65 60.02 C 161.97 67.33 159.48 74.87 153.99 79.99 C 155.52 84.78 156.18 89.79 156.26 94.80 C 156.39 100.90 155.80 106.99 156.07 113.08 C 156.80 122.15 160.17 130.78 164.18 138.86 C 166.02 142.60 168.16 146.17 170.35 149.71 C 161.12 152.78 152.62 157.84 143.45 160.93 C 145.25 158.22 148.26 155.52 147.51 151.94 C 146.58 149.23 143.34 149.05 141.07 148.11 C 131.27 144.40 122.00 138.80 114.82 131.11 C 111.07 127.29 109.35 122.05 105.91 118.01 C 103.49 115.07 98.43 115.10 96.03 118.03 C 92.61 122.09 90.88 127.32 87.12 131.14 C 79.04 139.71 68.47 145.78 57.29 149.33 C 55.39 149.86 53.86 151.80 54.38 153.82 C 54.96 157.10 57.59 159.36 59.47 161.93 C 49.51 158.51 40.16 153.20 30.21 149.59 C 32.52 146.17 34.55 142.56 36.38 138.87 C 38.22 135.30 39.78 131.60 41.19 127.85 C 43.57 129.52 45.83 131.35 48.25 132.97 C 60.44 132.04 72.62 130.95 84.80 129.88 C 84.82 126.70 84.87 123.51 84.77 120.33 C 72.29 115.52 59.92 110.23 47.34 105.80 C 46.40 106.58 45.48 107.39 44.53 108.17 C 44.52 103.64 44.21 99.12 44.33 94.59 C 44.42 89.66 45.08 84.74 46.57 80.03 C 40.61 74.34 38.14 65.95 37.79 57.91 M 46.83 54.98 C 47.00 60.69 47.55 66.87 51.03 71.63 C 54.89 67.16 59.60 63.54 64.87 60.89 C 58.17 55.87 56.86 45.75 48.78 42.35 C 46.95 46.26 46.91 50.74 46.83 54.98 M 135.96 61.03 C 140.96 63.70 145.77 66.96 149.24 71.53 L 149.95 71.26 C 154.63 62.72 154.65 52.11 152.18 42.87 L 151.24 42.44 C 143.88 46.48 141.95 55.60 135.96 61.03 M 48.98 90.17 C 50.43 94.89 52.24 99.67 55.53 103.45 C 66.34 109.39 78.68 112.27 89.01 119.13 C 86.77 115.44 83.68 112.28 80.86 109.01 C 72.46 99.80 61.79 91.48 48.98 90.17 M 128.53 100.60 C 122.23 105.95 116.35 112.02 111.80 118.92 C 120.98 113.04 131.58 109.99 141.38 105.35 C 147.78 103.23 149.49 95.85 151.64 90.25 C 143.02 90.95 135.12 95.20 128.53 100.60 Z" />
</g>
<g id="#fff6e4ff">
<path fill="#fff6e4" opacity="1.00" d=" M 93.58 41.18 C 95.72 38.03 98.02 34.98 100.67 32.22 C 103.07 34.96 105.21 37.92 107.09 41.04 C 109.77 45.54 111.75 50.43 113.11 55.47 C 115.15 63.76 115.32 72.50 113.49 80.85 C 111.51 89.30 108.01 98.12 100.90 103.55 C 98.37 102.59 96.67 100.10 94.95 98.07 C 86.21 86.00 83.55 69.91 87.26 55.54 C 88.65 50.47 90.84 45.66 93.58 41.18 Z" />
<path fill="#fff6e4" opacity="1.00" d=" M 48.98 90.17 C 61.79 91.48 72.46 99.80 80.86 109.01 C 83.68 112.28 86.77 115.44 89.01 119.13 C 78.68 112.27 66.34 109.39 55.53 103.45 C 52.24 99.67 50.43 94.89 48.98 90.17 Z" />
<path fill="#fff6e4" opacity="1.00" d=" M 128.53 100.60 C 135.12 95.20 143.02 90.95 151.64 90.25 C 149.49 95.85 147.78 103.23 141.38 105.35 C 131.58 109.99 120.98 113.04 111.80 118.92 C 116.35 112.02 122.23 105.95 128.53 100.60 Z" />
<path fill="#fff6e4" opacity="1.00" d=" M 96.03 118.03 C 98.43 115.10 103.49 115.07 105.91 118.01 C 109.35 122.05 111.07 127.29 114.82 131.11 C 122.00 138.80 131.27 144.40 141.07 148.11 C 143.34 149.05 146.58 149.23 147.51 151.94 C 148.26 155.52 145.25 158.22 143.45 160.93 C 142.90 161.82 141.79 162.11 140.92 162.59 C 131.25 166.56 121.37 170.26 111.04 172.02 C 100.20 174.30 88.98 172.52 78.52 169.34 C 72.10 167.19 65.23 165.40 59.47 161.93 C 57.59 159.36 54.96 157.10 54.38 153.82 C 53.86 151.80 55.39 149.86 57.29 149.33 C 68.47 145.78 79.04 139.71 87.12 131.14 C 90.88 127.32 92.61 122.09 96.03 118.03 M 94.11 136.79 C 92.03 137.18 91.69 139.69 92.72 141.22 C 94.68 144.50 97.64 147.27 100.89 149.21 C 104.09 146.65 107.72 144.01 109.18 140.03 C 109.93 138.24 108.17 136.80 106.58 136.55 C 102.50 135.72 98.14 135.63 94.11 136.79 Z" />
</g>
<g id="#717071ff">
<path fill="#717071" opacity="1.00" d=" M 80.06 43.10 C 80.08 41.68 81.62 40.79 82.91 41.00 C 86.46 41.10 90.04 40.78 93.58 41.18 C 90.84 45.66 88.65 50.47 87.26 55.54 C 83.94 55.86 80.56 55.50 77.47 54.17 C 78.24 50.46 79.30 46.81 80.06 43.10 Z" />
<path fill="#717071" opacity="1.00" d=" M 107.09 41.04 C 110.41 40.96 113.73 41.00 117.05 41.01 C 118.26 40.83 119.53 41.81 119.58 43.05 C 120.41 46.88 121.37 50.68 122.34 54.47 C 119.40 55.59 116.22 55.87 113.11 55.47 C 111.75 50.43 109.77 45.54 107.09 41.04 Z" />
<path fill="#717071" opacity="1.00" d=" M 156.26 94.80 L 156.87 94.39 C 161.11 96.38 165.49 98.10 169.64 100.27 C 170.89 108.45 171.07 116.76 171.06 125.02 C 170.95 128.67 171.04 132.40 169.97 135.92 C 168.09 137.01 166.12 137.90 164.18 138.86 C 160.17 130.78 156.80 122.15 156.07 113.08 C 155.80 106.99 156.39 100.90 156.26 94.80 Z" />
</g>
<g id="#804f21ff">
<path fill="#804f21" opacity="1.00" d=" M 46.83 54.98 C 46.91 50.74 46.95 46.26 48.78 42.35 C 56.86 45.75 58.17 55.87 64.87 60.89 C 59.60 63.54 54.89 67.16 51.03 71.63 C 47.55 66.87 47.00 60.69 46.83 54.98 Z" />
<path fill="#804f21" opacity="1.00" d=" M 135.96 61.03 C 141.95 55.60 143.88 46.48 151.24 42.44 L 152.18 42.87 C 154.65 52.11 154.63 62.72 149.95 71.26 L 149.24 71.53 C 145.77 66.96 140.96 63.70 135.96 61.03 Z" />
</g>
<g id="#e72400ff">
<path fill="#e72400" opacity="1.00" d=" M 31.04 100.12 C 35.47 98.34 39.76 95.59 44.33 94.59 C 44.21 99.12 44.52 103.64 44.53 108.17 C 42.76 109.79 40.79 111.20 39.08 112.90 C 39.04 117.27 39.05 121.65 39.08 126.03 C 39.66 126.76 40.36 127.36 41.19 127.85 C 39.78 131.60 38.22 135.30 36.38 138.87 C 34.43 137.81 32.25 137.07 30.49 135.72 C 29.03 128.92 29.54 121.88 29.65 114.98 C 29.97 110.02 29.97 104.98 31.04 100.12 Z" />
</g>
<g id="#00b93fff">
<path fill="#00b93f" opacity="1.00" d=" M 47.34 105.80 C 59.92 110.23 72.29 115.52 84.77 120.33 C 84.87 123.51 84.82 126.70 84.80 129.88 C 72.62 130.95 60.44 132.04 48.25 132.97 C 45.83 131.35 43.57 129.52 41.19 127.85 C 40.36 127.36 39.66 126.76 39.08 126.03 C 39.05 121.65 39.04 117.27 39.08 112.90 C 40.79 111.20 42.76 109.79 44.53 108.17 C 45.48 107.39 46.40 106.58 47.34 105.80 Z" />
</g>
<g id="#3e3a39ff">
<path fill="#3e3a39" opacity="1.00" d=" M 94.11 136.79 C 98.14 135.63 102.50 135.72 106.58 136.55 C 108.17 136.80 109.93 138.24 109.18 140.03 C 107.72 144.01 104.09 146.65 100.89 149.21 C 97.64 147.27 94.68 144.50 92.72 141.22 C 91.69 139.69 92.03 137.18 94.11 136.79 Z" />
</g>
</svg>
