<?xml version="1.0" encoding="UTF-8" ?>
<!DOCTYPE svg PUBLIC "-//W3C//DTD SVG 1.1//EN" "http://www.w3.org/Graphics/SVG/1.1/DTD/svg11.dtd">
<svg width="200pt" height="200pt" viewBox="0 0 200 200" version="1.1" xmlns="http://www.w3.org/2000/svg">
<g id="#000000ff">
<path fill="#000000" opacity="1.00" d=" M 76.05 37.89 C 82.09 31.84 90.35 27.86 99.01 27.97 C 108.07 27.58 116.98 31.49 123.21 38.01 C 131.71 35.18 141.59 36.79 148.42 42.70 C 156.83 49.55 160.32 61.12 158.57 71.65 C 171.98 75.19 180.44 89.60 178.88 103.06 C 178.16 112.32 172.92 121.04 165.03 125.96 C 165.70 131.50 165.28 137.43 162.15 142.22 C 159.44 146.72 154.84 149.68 149.96 151.37 C 149.06 156.17 146.32 160.57 142.16 163.20 C 132.70 169.46 121.08 171.05 110.00 171.83 C 96.12 172.33 81.79 172.24 68.58 167.40 C 61.57 164.97 54.74 159.83 53.47 152.08 C 47.49 150.97 41.60 148.06 38.22 142.82 C 34.84 137.93 34.26 131.73 34.97 125.96 C 22.97 118.72 17.98 102.73 22.72 89.72 C 25.60 81.14 32.61 74.01 41.45 71.68 C 40.08 63.16 41.88 54.06 47.24 47.18 C 53.61 38.41 65.74 34.43 76.05 37.89 M 77.46 42.97 C 75.97 42.40 74.48 41.81 72.95 41.35 C 64.88 39.35 56.13 42.52 51.00 48.98 C 45.12 56.05 43.51 66.18 46.50 74.83 C 42.43 75.36 38.39 76.67 35.11 79.20 C 26.43 85.64 22.89 97.84 26.15 108.05 C 28.08 115.00 33.13 120.87 39.67 123.88 C 38.51 129.16 38.18 135.18 41.16 139.95 C 44.39 145.50 51.11 148.52 57.42 147.97 L 57.77 147.92 C 56.65 154.32 61.40 159.74 66.92 162.15 C 77.54 166.97 89.47 167.92 101.00 167.80 C 112.83 167.98 125.00 166.87 135.92 162.04 C 141.50 159.67 146.71 154.41 145.68 147.85 C 150.68 147.19 155.62 144.71 158.37 140.36 C 161.64 135.46 161.57 129.17 160.12 123.66 C 171.71 118.87 177.28 104.68 173.87 92.95 C 171.55 83.51 163.15 75.62 153.25 75.09 C 156.85 64.90 154.06 52.40 145.35 45.65 C 138.92 40.28 129.44 39.51 122.01 43.23 C 119.99 40.83 117.82 38.51 115.18 36.79 C 103.49 28.79 85.91 31.47 77.46 42.97 Z" />
</g>
<g id="#ffffffff">
<path fill="#ffffff" opacity="1.00" d=" M 77.46 42.97 C 85.91 31.47 103.49 28.79 115.18 36.79 C 117.82 38.51 119.99 40.83 122.01 43.23 C 129.44 39.51 138.92 40.28 145.35 45.65 C 154.06 52.40 156.85 64.90 153.25 75.09 C 163.15 75.62 171.55 83.51 173.87 92.95 C 177.28 104.68 171.71 118.87 160.12 123.66 C 161.57 129.17 161.64 135.46 158.37 140.36 C 155.62 144.71 150.68 147.19 145.68 147.85 C 141.76 148.32 137.90 147.34 134.29 145.87 C 132.73 151.49 127.73 155.38 122.04 156.17 C 114.57 157.26 105.51 157.45 100.03 151.34 C 94.69 157.27 85.96 157.22 78.66 156.31 C 72.79 155.56 67.23 151.76 65.77 145.80 C 63.20 146.85 60.53 147.62 57.77 147.92 L 57.42 147.97 C 53.85 145.48 49.62 143.44 47.53 139.42 C 44.90 134.79 45.27 129.22 46.48 124.23 C 40.85 121.50 36.20 116.88 33.85 111.03 C 29.53 100.65 32.16 87.21 41.37 80.30 C 44.62 77.48 48.84 76.29 52.98 75.54 C 51.82 68.81 51.02 61.55 54.24 55.24 C 57.53 47.77 64.82 42.31 72.95 41.35 C 74.48 41.81 75.97 42.40 77.46 42.97 M 74.47 85.39 C 71.13 87.17 67.52 88.34 63.80 89.02 C 64.10 93.03 65.67 96.92 65.15 100.98 C 64.70 105.31 63.55 109.58 61.39 113.38 C 61.11 114.25 60.14 115.22 60.76 116.16 C 62.31 119.41 64.77 122.22 67.85 124.11 C 87.29 136.77 113.73 137.18 133.83 125.79 C 137.92 123.44 141.31 120.06 143.73 116.02 C 142.16 111.70 139.59 107.64 139.35 102.94 C 138.84 98.27 139.50 93.60 140.74 89.10 C 137.14 88.23 133.47 87.45 130.23 85.59 C 124.62 82.03 120.19 76.23 119.74 69.43 C 112.89 73.77 104.62 71.74 97.02 72.28 C 92.64 72.63 88.32 71.51 84.47 69.47 C 84.10 76.12 79.80 81.75 74.47 85.39 Z" />
</g>
<g id="#c8c8c8ff">
<path fill="#c8c8c8" opacity="1.00" d=" M 51.00 48.98 C 56.13 42.52 64.88 39.35 72.95 41.35 C 64.82 42.31 57.53 47.77 54.24 55.24 C 51.02 61.55 51.82 68.81 52.98 75.54 C 48.84 76.29 44.62 77.48 41.37 80.30 C 32.16 87.21 29.53 100.65 33.85 111.03 C 36.20 116.88 40.85 121.50 46.48 124.23 C 45.27 129.22 44.90 134.79 47.53 139.42 C 49.62 143.44 53.85 145.48 57.42 147.97 C 51.11 148.52 44.39 145.50 41.16 139.95 C 38.18 135.18 38.51 129.16 39.67 123.88 C 33.13 120.87 28.08 115.00 26.15 108.05 C 22.89 97.84 26.43 85.64 35.11 79.20 C 38.39 76.67 42.43 75.36 46.50 74.83 C 43.51 66.18 45.12 56.05 51.00 48.98 Z" />
</g>
<g id="#814e22ff">
<path fill="#814e22" opacity="1.00" d=" M 74.47 85.39 C 79.80 81.75 84.10 76.12 84.47 69.47 C 88.32 71.51 92.64 72.63 97.02 72.28 C 104.62 71.74 112.89 73.77 119.74 69.43 C 120.19 76.23 124.62 82.03 130.23 85.59 C 130.09 86.74 129.95 87.89 129.82 89.04 C 126.55 87.77 123.38 86.13 121.02 83.47 C 120.62 86.34 119.28 88.89 117.34 91.01 C 114.93 88.95 112.80 86.58 111.16 83.86 C 108.91 87.21 106.30 90.52 102.45 92.11 C 101.09 89.38 100.01 86.52 99.35 83.55 C 97.57 87.03 94.87 89.87 91.78 92.21 C 89.29 89.84 87.44 86.90 86.39 83.62 C 84.02 86.77 80.87 89.28 77.01 90.33 C 76.15 88.69 75.30 87.04 74.47 85.39 Z" />
</g>
<g id="#f9e0c2ff">
<path fill="#f9e0c2" opacity="1.00" d=" M 77.01 90.33 C 80.87 89.28 84.02 86.77 86.39 83.62 C 87.44 86.90 89.29 89.84 91.78 92.21 C 94.87 89.87 97.57 87.03 99.35 83.55 C 100.01 86.52 101.09 89.38 102.45 92.11 C 106.30 90.52 108.91 87.21 111.16 83.86 C 112.80 86.58 114.93 88.95 117.34 91.01 C 119.28 88.89 120.62 86.34 121.02 83.47 C 123.38 86.13 126.55 87.77 129.82 89.04 C 129.95 87.89 130.09 86.74 130.23 85.59 C 133.47 87.45 137.14 88.23 140.74 89.10 C 139.50 93.60 138.84 98.27 139.35 102.94 C 139.59 107.64 142.16 111.70 143.73 116.02 C 141.31 120.06 137.92 123.44 133.83 125.79 C 113.73 137.18 87.29 136.77 67.85 124.11 C 64.77 122.22 62.31 119.41 60.76 116.16 C 60.14 115.22 61.11 114.25 61.39 113.38 C 63.55 109.58 64.70 105.31 65.15 100.98 C 65.67 96.92 64.10 93.03 63.80 89.02 C 67.52 88.34 71.13 87.17 74.47 85.39 C 75.30 87.04 76.15 88.69 77.01 90.33 Z" />
</g>
<g id="#9093ffff">
<path fill="#9093ff" opacity="1.00" d=" M 57.77 147.92 C 60.53 147.62 63.20 146.85 65.77 145.80 C 67.23 151.76 72.79 155.56 78.66 156.31 C 85.96 157.22 94.69 157.27 100.03 151.34 C 105.51 157.45 114.57 157.26 122.04 156.17 C 127.73 155.38 132.73 151.49 134.29 145.87 C 137.90 147.34 141.76 148.32 145.68 147.85 C 146.71 154.41 141.50 159.67 135.92 162.04 C 125.00 166.87 112.83 167.98 101.00 167.80 C 89.47 167.92 77.54 166.97 66.92 162.15 C 61.40 159.74 56.65 154.32 57.77 147.92 Z" />
</g>
</svg>
