<?xml version="1.0" encoding="UTF-8" ?>
<!DOCTYPE svg PUBLIC "-//W3C//DTD SVG 1.1//EN" "http://www.w3.org/Graphics/SVG/1.1/DTD/svg11.dtd">
<svg width="200pt" height="200pt" viewBox="0 0 200 200" version="1.1" xmlns="http://www.w3.org/2000/svg">
<g id="#000000ff">
<path fill="#000000" opacity="1.00" d=" M 87.46 18.63 C 93.10 16.51 99.23 16.85 105.15 17.09 C 108.11 17.43 108.90 20.96 108.15 23.42 C 123.07 22.33 138.44 25.25 151.67 32.29 C 154.11 33.25 155.93 36.14 154.48 38.65 C 152.82 41.81 148.68 40.70 145.82 41.11 C 155.12 44.85 164.44 49.24 171.78 56.22 C 173.76 57.81 173.75 61.15 171.73 62.70 C 170.06 64.25 167.71 63.38 165.78 63.06 C 170.67 68.51 174.63 74.92 176.85 81.92 C 177.83 84.76 174.87 87.93 171.98 87.07 C 169.97 86.50 168.11 85.55 166.21 84.69 C 169.52 91.21 171.28 98.82 169.51 106.05 C 168.93 109.00 164.91 110.22 162.72 108.21 C 161.34 107.45 160.32 105.85 158.62 105.80 C 160.58 109.69 163.33 113.13 165.22 117.06 C 166.21 119.70 163.88 122.73 161.09 122.54 C 158.46 122.04 155.98 120.96 153.39 120.29 C 160.91 136.74 168.94 152.95 176.54 169.36 C 177.75 171.60 176.36 174.60 173.89 175.18 C 170.24 176.38 166.57 177.53 162.86 178.52 C 161.33 179.07 159.88 178.17 158.51 177.67 C 156.99 179.39 155.72 181.35 154.00 182.88 C 152.59 183.00 151.19 183.06 149.79 183.08 C 146.91 180.00 146.72 175.56 145.44 171.74 C 143.36 173.27 141.18 174.69 138.80 175.70 C 137.73 177.39 137.10 179.77 134.94 180.37 C 132.63 181.18 129.68 179.52 129.53 177.00 C 129.28 170.72 129.51 164.43 129.45 158.15 C 123.21 165.33 116.93 173.09 108.14 177.21 C 100.43 180.09 91.67 180.02 84.02 177.02 C 75.82 173.00 69.83 165.80 63.99 159.00 C 60.29 154.20 55.90 149.70 53.88 143.87 C 53.03 141.82 52.51 139.56 51.07 137.83 C 41.51 131.20 35.91 120.16 33.17 109.10 C 32.62 103.22 31.55 97.30 31.91 91.37 C 30.91 92.85 30.01 94.86 27.98 95.08 C 25.10 95.75 22.31 92.82 23.05 89.96 C 24.96 76.65 30.35 63.77 38.65 53.16 C 36.45 53.83 34.30 54.95 31.96 54.94 C 28.59 54.64 27.02 49.88 29.66 47.70 C 39.41 38.37 53.67 32.72 67.15 35.93 C 71.68 28.07 78.76 21.51 87.46 18.63 M 86.56 23.49 C 78.83 26.67 73.07 33.40 69.54 40.82 C 57.02 36.65 43.04 41.08 33.63 49.89 C 39.54 49.11 45.22 46.95 51.29 47.24 C 46.55 50.83 42.10 54.92 38.94 60.01 C 33.06 69.04 28.76 79.36 27.52 90.11 C 31.93 83.81 35.53 75.99 43.11 72.91 C 40.24 78.30 36.92 83.75 36.34 89.97 C 36.06 93.91 35.97 97.95 36.92 101.81 C 36.61 108.06 38.84 114.06 41.51 119.59 C 44.50 125.58 48.51 131.39 54.43 134.80 C 55.00 136.33 56.53 137.27 56.89 138.92 C 58.18 145.90 63.30 151.09 67.50 156.48 C 72.87 162.76 78.38 169.40 85.88 173.20 C 92.61 175.67 100.29 175.67 107.03 173.21 C 113.68 169.82 118.79 164.14 123.66 158.62 C 127.13 154.48 130.72 150.40 133.54 145.78 C 134.05 155.91 133.56 166.07 133.79 176.21 C 135.15 173.70 136.43 171.15 137.68 168.59 C 138.14 169.43 138.60 170.28 139.06 171.14 C 141.92 168.98 144.91 166.88 148.44 166.01 C 149.50 170.36 150.76 174.66 151.96 178.97 C 154.15 176.39 156.44 173.89 158.86 171.53 C 159.88 172.54 160.91 173.55 161.93 174.57 C 165.57 173.38 169.25 172.29 172.91 171.16 C 165.00 154.36 156.98 137.61 149.01 120.84 C 150.10 118.79 150.95 116.64 151.86 114.52 C 154.88 116.08 157.95 117.74 161.40 118.02 C 158.80 114.21 156.52 110.21 154.05 106.32 C 154.57 102.34 153.12 98.42 150.40 95.54 L 150.65 94.29 C 155.51 97.97 160.53 101.42 165.48 104.97 C 168.44 93.55 161.35 82.79 153.76 74.95 C 160.33 77.18 166.48 80.43 172.94 82.94 C 169.69 72.97 162.84 64.29 154.15 58.47 C 158.86 58.40 163.55 58.82 168.22 59.31 C 167.70 58.06 166.87 56.98 165.71 56.25 C 154.22 47.80 140.48 43.13 126.74 39.85 C 134.35 38.63 141.95 36.95 149.71 37.25 C 149.68 36.88 149.62 36.12 149.59 35.74 C 131.04 26.39 107.96 23.90 88.84 33.03 C 91.76 26.91 97.87 23.09 104.10 20.97 C 98.14 19.97 92.09 21.27 86.56 23.49 Z" />
</g>
<g id="#00489fff">
<path fill="#00489f" opacity="1.00" d=" M 86.56 23.49 C 92.09 21.27 98.14 19.97 104.10 20.97 C 97.87 23.09 91.76 26.91 88.84 33.03 C 107.96 23.90 131.04 26.39 149.59 35.74 C 149.62 36.12 149.68 36.88 149.71 37.25 C 141.95 36.95 134.35 38.63 126.74 39.85 C 140.48 43.13 154.22 47.80 165.71 56.25 C 166.87 56.98 167.70 58.06 168.22 59.31 C 163.55 58.82 158.86 58.40 154.15 58.47 C 162.84 64.29 169.69 72.97 172.94 82.94 C 166.48 80.43 160.33 77.18 153.76 74.95 C 161.35 82.79 168.44 93.55 165.48 104.97 C 160.53 101.42 155.51 97.97 150.65 94.29 C 148.56 92.67 146.35 91.22 144.02 89.96 C 145.73 93.13 147.78 96.11 149.66 99.19 C 151.06 101.60 152.50 104.00 154.05 106.32 C 156.52 110.21 158.80 114.21 161.40 118.02 C 157.95 117.74 154.88 116.08 151.86 114.52 C 149.60 113.32 147.34 112.13 145.03 111.04 C 143.75 118.98 141.81 126.92 138.61 134.32 C 137.73 135.89 136.87 137.48 136.13 139.12 C 138.21 128.75 138.16 118.14 138.96 107.64 C 139.38 110.43 139.50 113.26 139.56 116.08 C 139.66 113.05 139.61 110.02 139.37 107.01 C 133.69 103.51 128.52 99.29 123.14 95.36 C 125.08 100.00 127.59 104.36 129.79 108.88 C 131.95 113.42 134.37 117.83 136.50 122.39 C 130.69 119.33 125.29 115.58 119.86 111.92 C 114.50 113.62 109.39 116.50 103.63 116.49 C 103.59 115.96 103.55 115.44 103.53 114.91 C 107.85 114.30 111.79 112.32 115.77 110.64 L 116.14 109.78 C 112.82 106.36 108.39 104.32 104.78 101.23 C 99.04 96.49 92.93 92.15 87.72 86.80 C 86.64 85.90 85.29 85.43 83.98 84.98 C 84.67 86.68 85.47 88.33 86.37 89.93 C 90.06 96.58 92.41 103.86 95.66 110.73 C 96.54 112.90 97.49 115.05 98.33 117.24 C 94.17 115.07 90.27 112.42 86.01 110.44 C 79.49 105.87 72.36 102.01 66.87 96.14 C 63.46 93.07 61.28 89.00 59.07 85.06 C 54.75 91.52 51.75 98.84 50.03 106.41 C 51.47 106.84 52.90 107.30 54.36 107.65 C 54.44 118.12 55.52 128.55 56.89 138.92 C 56.53 137.27 55.00 136.33 54.43 134.80 C 51.86 127.54 49.80 120.12 48.14 112.60 C 47.84 114.74 47.53 116.88 47.23 119.03 C 42.43 114.24 38.84 108.31 36.92 101.81 C 35.97 97.95 36.06 93.91 36.34 89.97 C 36.92 83.75 40.24 78.30 43.11 72.91 C 35.53 75.99 31.93 83.81 27.52 90.11 C 28.76 79.36 33.06 69.04 38.94 60.01 C 42.10 54.92 46.55 50.83 51.29 47.24 C 45.22 46.95 39.54 49.11 33.63 49.89 C 43.04 41.08 57.02 36.65 69.54 40.82 C 73.07 33.40 78.83 26.67 86.56 23.49 Z" />
<path fill="#00489f" opacity="1.00" d=" M 67.84 110.32 C 70.43 110.41 73.03 110.21 75.63 110.30 C 80.30 111.76 84.78 113.78 89.37 115.49 C 87.44 115.69 85.43 116.22 83.53 115.59 C 78.25 113.98 73.21 111.62 67.84 110.32 Z" />
</g>
<g id="#386983ff">
<path fill="#386983" opacity="1.00" d=" M 83.98 84.98 C 85.29 85.43 86.64 85.90 87.72 86.80 C 87.38 87.58 86.71 89.15 86.37 89.93 C 85.47 88.33 84.67 86.68 83.98 84.98 Z" />
</g>
<g id="#7d9545ff">
<path fill="#7d9545" opacity="1.00" d=" M 50.03 106.41 C 51.75 98.84 54.75 91.52 59.07 85.06 C 61.28 89.00 63.46 93.07 66.87 96.14 C 72.36 102.01 79.49 105.87 86.01 110.44 C 82.54 110.61 79.08 110.50 75.63 110.30 C 73.03 110.21 70.43 110.41 67.84 110.32 C 63.37 109.32 58.88 108.41 54.36 107.65 C 52.90 107.30 51.47 106.84 50.03 106.41 Z" />
</g>
<g id="#7c9643ff">
<path fill="#7c9643" opacity="1.00" d=" M 86.37 89.93 C 86.71 89.15 87.38 87.58 87.72 86.80 C 92.93 92.15 99.04 96.49 104.78 101.23 C 108.39 104.32 112.82 106.36 116.14 109.78 C 109.37 110.87 102.49 110.56 95.66 110.73 C 92.41 103.86 90.06 96.58 86.37 89.93 Z" />
</g>
<g id="#7d9546ff">
<path fill="#7d9546" opacity="1.00" d=" M 144.02 89.96 C 146.35 91.22 148.56 92.67 150.65 94.29 L 150.40 95.54 C 150.16 96.76 149.91 97.97 149.66 99.19 C 147.78 96.11 145.73 93.13 144.02 89.96 Z" />
<path fill="#7d9546" opacity="1.00" d=" M 138.61 134.32 C 142.65 130.30 146.47 125.99 149.01 120.84 C 156.98 137.61 165.00 154.36 172.91 171.16 C 169.25 172.29 165.57 173.38 161.93 174.57 C 160.91 173.55 159.88 172.54 158.86 171.53 C 156.44 173.89 154.15 176.39 151.96 178.97 C 150.76 174.66 149.50 170.36 148.44 166.01 C 144.91 166.88 141.92 168.98 139.06 171.14 C 138.60 170.28 138.14 169.43 137.68 168.59 C 136.43 171.15 135.15 173.70 133.79 176.21 C 133.56 166.07 134.05 155.91 133.54 145.78 C 134.63 143.66 135.44 141.40 136.13 139.12 C 136.87 137.48 137.73 135.89 138.61 134.32 Z" />
</g>
<g id="#7e953eff">
<path fill="#7e953e" opacity="1.00" d=" M 123.14 95.36 C 128.52 99.29 133.69 103.51 139.37 107.01 C 139.61 110.02 139.66 113.05 139.56 116.08 C 139.50 113.26 139.38 110.43 138.96 107.64 C 135.93 108.21 132.86 108.63 129.79 108.88 C 127.59 104.36 125.08 100.00 123.14 95.36 Z" />
</g>
<g id="#fbd2cbff">
<path fill="#fbd2cb" opacity="1.00" d=" M 149.66 99.19 C 149.91 97.97 150.16 96.76 150.40 95.54 C 153.12 98.42 154.57 102.34 154.05 106.32 C 152.50 104.00 151.06 101.60 149.66 99.19 Z" />
<path fill="#fbd2cb" opacity="1.00" d=" M 36.92 101.81 C 38.84 108.31 42.43 114.24 47.23 119.03 C 47.53 116.88 47.84 114.74 48.14 112.60 C 49.80 120.12 51.86 127.54 54.43 134.80 C 48.51 131.39 44.50 125.58 41.51 119.59 C 38.84 114.06 36.61 108.06 36.92 101.81 Z" />
</g>
<g id="#f9e1cbff">
<path fill="#f9e1cb" opacity="1.00" d=" M 54.36 107.65 C 58.88 108.41 63.37 109.32 67.84 110.32 C 73.21 111.62 78.25 113.98 83.53 115.59 C 85.43 116.22 87.44 115.69 89.37 115.49 C 84.78 113.78 80.30 111.76 75.63 110.30 C 79.08 110.50 82.54 110.61 86.01 110.44 C 90.27 112.42 94.17 115.07 98.33 117.24 C 97.49 115.05 96.54 112.90 95.66 110.73 C 102.49 110.56 109.37 110.87 116.14 109.78 L 115.77 110.64 C 111.79 112.32 107.85 114.30 103.53 114.91 C 103.55 115.44 103.59 115.96 103.63 116.49 C 109.39 116.50 114.50 113.62 119.86 111.92 C 125.29 115.58 130.69 119.33 136.50 122.39 C 134.37 117.83 131.95 113.42 129.79 108.88 C 132.86 108.63 135.93 108.21 138.96 107.64 C 138.16 118.14 138.21 128.75 136.13 139.12 C 135.44 141.40 134.63 143.66 133.54 145.78 C 130.72 150.40 127.13 154.48 123.66 158.62 C 118.79 164.14 113.68 169.82 107.03 173.21 C 100.29 175.67 92.61 175.67 85.88 173.20 C 78.38 169.40 72.87 162.76 67.50 156.48 C 63.30 151.09 58.18 145.90 56.89 138.92 C 55.52 128.55 54.44 118.12 54.36 107.65 Z" />
</g>
<g id="#fad2c9ff">
<path fill="#fad2c9" opacity="1.00" d=" M 145.03 111.04 C 147.34 112.13 149.60 113.32 151.86 114.52 C 150.95 116.64 150.10 118.79 149.01 120.84 C 146.47 125.99 142.65 130.30 138.61 134.32 C 141.81 126.92 143.75 118.98 145.03 111.04 Z" />
</g>
</svg>
