<?xml version="1.0" encoding="UTF-8" ?>
<!DOCTYPE svg PUBLIC "-//W3C//DTD SVG 1.1//EN" "http://www.w3.org/Graphics/SVG/1.1/DTD/svg11.dtd">
<svg width="200pt" height="200pt" viewBox="0 0 200 200" version="1.1" xmlns="http://www.w3.org/2000/svg">
<g id="#000100ff">
<path fill="#000100" opacity="1.00" d=" M 71.40 36.44 C 81.55 25.26 98.56 21.05 112.77 26.19 C 127.20 30.76 137.53 44.72 138.66 59.69 C 141.91 62.59 144.72 65.92 147.22 69.48 C 154.77 70.77 159.14 78.02 161.17 84.79 C 163.92 94.15 165.71 103.81 169.43 112.87 C 173.99 126.16 178.89 140.90 173.72 154.76 C 171.43 162.53 163.09 168.13 155.02 166.23 C 150.51 165.53 146.86 162.55 144.10 159.07 C 134.41 165.25 122.92 167.06 111.86 169.25 C 101.58 170.55 91.01 170.36 80.93 167.78 C 72.19 166.23 63.49 163.80 55.90 159.08 C 53.45 162.01 50.56 164.82 46.74 165.79 C 39.65 168.25 31.29 164.80 27.81 158.19 C 24.10 150.82 23.23 142.17 24.68 134.10 C 26.33 124.77 29.42 115.80 32.69 106.94 C 36.43 96.89 36.48 85.53 42.24 76.26 C 44.45 72.48 48.55 70.38 52.69 69.44 C 55.03 65.71 58.10 62.55 61.33 59.59 C 62.20 51.07 65.49 42.73 71.40 36.44 M 79.57 34.51 C 70.90 40.64 65.49 50.97 65.22 61.58 C 61.18 64.79 57.77 68.74 55.01 73.09 C 50.99 73.45 47.13 75.47 45.15 79.10 C 40.33 87.59 40.01 97.66 36.89 106.77 C 33.67 116.02 30.09 125.22 28.53 134.93 C 27.42 142.18 27.89 149.99 31.45 156.53 C 34.19 161.51 40.62 163.93 45.95 161.93 C 50.17 160.57 53.00 156.82 54.58 152.84 C 63.84 161.22 76.74 162.92 88.50 165.29 C 98.29 166.47 108.37 166.41 117.97 163.97 C 127.70 162.23 137.88 159.61 145.41 152.85 C 146.94 156.56 149.46 160.11 153.31 161.64 C 158.74 164.11 165.66 161.76 168.54 156.56 C 171.97 150.31 172.49 142.86 171.60 135.90 C 170.24 126.62 167.03 117.75 163.85 108.97 C 161.06 101.38 159.84 93.33 157.30 85.67 C 156.11 82.22 154.62 78.72 151.97 76.13 C 149.94 74.05 146.95 73.60 144.34 72.60 C 142.06 68.85 139.18 65.47 135.79 62.68 C 135.52 62.32 134.99 61.60 134.73 61.24 C 134.37 50.30 128.50 39.73 119.30 33.76 C 107.56 25.81 91.01 26.13 79.57 34.51 Z" />
</g>
<g id="#f9bf11ff">
<path fill="#f9bf11" opacity="1.00" d=" M 79.57 34.51 C 91.01 26.13 107.56 25.81 119.30 33.76 C 128.50 39.73 134.37 50.30 134.73 61.24 C 134.99 61.60 135.52 62.32 135.79 62.68 C 131.41 58.79 126.03 56.06 120.19 55.27 C 119.63 52.73 119.22 49.78 116.84 48.24 C 111.74 44.50 105.03 45.22 99.07 45.09 C 93.51 45.22 87.12 44.77 82.63 48.67 C 80.60 50.23 80.37 52.92 79.80 55.22 C 74.45 55.93 69.46 58.29 65.22 61.58 C 65.49 50.97 70.90 40.64 79.57 34.51 M 90.54 44.51 C 96.81 45.22 103.19 45.23 109.46 44.53 C 103.26 43.30 96.76 43.53 90.54 44.51 Z" />
<path fill="#f9bf11" opacity="1.00" d=" M 144.34 72.60 C 146.95 73.60 149.94 74.05 151.97 76.13 C 154.62 78.72 156.11 82.22 157.30 85.67 C 159.84 93.33 161.06 101.38 163.85 108.97 C 167.03 117.75 170.24 126.62 171.60 135.90 C 172.49 142.86 171.97 150.31 168.54 156.56 C 165.66 161.76 158.74 164.11 153.31 161.64 C 149.46 160.11 146.94 156.56 145.41 152.85 C 150.32 148.60 152.64 141.64 150.89 135.33 C 148.23 124.99 146.81 114.36 143.81 104.10 C 145.46 104.12 147.23 104.56 148.81 103.89 C 150.50 102.79 151.01 100.69 151.74 98.94 C 151.56 89.77 149.71 80.22 144.34 72.60 Z" />
<path fill="#f9bf11" opacity="1.00" d=" M 45.15 79.10 C 47.13 75.47 50.99 73.45 55.01 73.09 C 50.09 80.57 48.13 89.72 48.09 98.58 C 48.55 100.34 48.96 102.32 50.48 103.50 C 52.29 104.32 54.36 104.23 56.30 104.50 C 54.38 111.94 52.58 119.41 51.07 126.95 C 50.11 131.96 48.00 136.91 48.68 142.09 C 49.22 146.27 51.53 150.01 54.58 152.84 C 53.00 156.82 50.17 160.57 45.95 161.93 C 40.62 163.93 34.19 161.51 31.45 156.53 C 27.89 149.99 27.42 142.18 28.53 134.93 C 30.09 125.22 33.67 116.02 36.89 106.77 C 40.01 97.66 40.33 87.59 45.15 79.10 Z" />
</g>
<g id="#ffba43ff">
<path fill="#ffba43" opacity="1.00" d=" M 90.54 44.51 C 96.76 43.53 103.26 43.30 109.46 44.53 C 103.19 45.23 96.81 45.22 90.54 44.51 Z" />
</g>
<g id="#a61f3cff">
<path fill="#a61f3c" opacity="1.00" d=" M 82.63 48.67 C 87.12 44.77 93.51 45.22 99.07 45.09 C 105.03 45.22 111.74 44.50 116.84 48.24 C 119.22 49.78 119.63 52.73 120.19 55.27 C 113.19 53.96 106.03 55.29 99.90 58.87 C 93.82 55.32 86.75 53.98 79.80 55.22 C 80.37 52.92 80.60 50.23 82.63 48.67 Z" />
</g>
<g id="#fff78dff">
<path fill="#fff78d" opacity="1.00" d=" M 79.80 55.22 C 86.75 53.98 93.82 55.32 99.90 58.87 C 106.03 55.29 113.19 53.96 120.19 55.27 C 126.03 56.06 131.41 58.79 135.79 62.68 C 139.18 65.47 142.06 68.85 144.34 72.60 C 149.71 80.22 151.56 89.77 151.74 98.94 C 143.14 99.79 137.08 92.91 131.50 87.50 C 130.97 92.30 132.41 96.93 133.92 101.42 C 118.91 100.80 107.80 89.01 99.93 77.37 C 94.02 85.48 87.45 93.60 78.31 98.20 C 74.50 100.35 70.14 101.06 65.84 101.38 C 67.52 96.95 68.66 92.30 68.43 87.53 C 64.03 91.13 60.37 95.85 55.00 98.09 C 52.82 99.04 50.39 98.63 48.09 98.58 C 48.13 89.72 50.09 80.57 55.01 73.09 C 57.77 68.74 61.18 64.79 65.22 61.58 C 69.46 58.29 74.45 55.93 79.80 55.22 Z" />
<path fill="#fff78d" opacity="1.00" d=" M 85.58 100.46 C 91.72 97.66 96.76 92.80 99.87 86.83 C 101.86 90.13 104.05 93.40 107.07 95.86 C 115.56 103.25 127.40 105.15 138.32 104.83 C 138.60 104.04 139.18 102.45 139.46 101.65 C 140.90 102.48 142.33 103.33 143.81 104.10 C 146.81 114.36 148.23 124.99 150.89 135.33 C 152.64 141.64 150.32 148.60 145.41 152.85 C 137.88 159.61 127.70 162.23 117.97 163.97 C 108.37 166.41 98.29 166.47 88.50 165.29 C 76.74 162.92 63.84 161.22 54.58 152.84 C 51.53 150.01 49.22 146.27 48.68 142.09 C 48.00 136.91 50.11 131.96 51.07 126.95 C 52.58 119.41 54.38 111.94 56.30 104.50 C 57.66 103.44 59.03 102.40 60.41 101.37 C 60.71 102.26 61.30 104.04 61.60 104.92 C 69.77 105.06 78.13 103.99 85.58 100.46 Z" />
</g>
<g id="#d6cd56ff">
<path fill="#d6cd56" opacity="1.00" d=" M 78.31 98.20 C 87.45 93.60 94.02 85.48 99.93 77.37 C 107.80 89.01 118.91 100.80 133.92 101.42 C 132.41 96.93 130.97 92.30 131.50 87.50 C 137.08 92.91 143.14 99.79 151.74 98.94 C 151.01 100.69 150.50 102.79 148.81 103.89 C 147.23 104.56 145.46 104.12 143.81 104.10 C 142.33 103.33 140.90 102.48 139.46 101.65 C 139.18 102.45 138.60 104.04 138.32 104.83 C 127.40 105.15 115.56 103.25 107.07 95.86 C 104.05 93.40 101.86 90.13 99.87 86.83 C 96.76 92.80 91.72 97.66 85.58 100.46 C 78.13 103.99 69.77 105.06 61.60 104.92 C 61.30 104.04 60.71 102.26 60.41 101.37 C 59.03 102.40 57.66 103.44 56.30 104.50 C 54.36 104.23 52.29 104.32 50.48 103.50 C 48.96 102.32 48.55 100.34 48.09 98.58 C 50.39 98.63 52.82 99.04 55.00 98.09 C 60.37 95.85 64.03 91.13 68.43 87.53 C 68.66 92.30 67.52 96.95 65.84 101.38 C 70.14 101.06 74.50 100.35 78.31 98.20 Z" />
</g>
</svg>
