<?xml version="1.0" encoding="UTF-8" ?>
<!DOCTYPE svg PUBLIC "-//W3C//DTD SVG 1.1//EN" "http://www.w3.org/Graphics/SVG/1.1/DTD/svg11.dtd">
<svg width="200pt" height="200pt" viewBox="0 0 200 200" version="1.1" xmlns="http://www.w3.org/2000/svg">
<g id="#000000ff">
<path fill="#000000" opacity="1.00" d=" M 94.01 32.07 C 102.49 29.18 112.33 32.15 118.20 38.80 C 121.05 41.79 122.24 46.52 126.74 47.57 C 135.01 41.09 145.58 38.07 155.99 37.90 C 160.06 38.03 164.59 38.38 167.86 41.10 C 171.11 44.52 171.10 49.63 170.95 54.05 C 170.23 65.12 166.98 75.89 162.64 86.05 C 166.85 98.99 166.91 113.27 162.37 126.13 C 157.21 141.08 146.15 153.74 132.35 161.35 C 117.22 169.80 98.88 172.17 82.08 168.02 C 65.14 163.95 49.85 153.14 40.76 138.24 C 31.05 122.61 28.80 102.50 35.18 85.21 C 35.60 83.56 36.73 81.86 35.91 80.15 C 32.53 70.12 29.47 59.64 30.11 48.95 C 30.36 45.24 31.80 40.91 35.62 39.54 C 41.09 37.34 47.19 37.70 52.89 38.59 C 60.02 39.73 66.89 42.38 72.85 46.46 C 75.14 45.67 77.43 44.89 79.73 44.11 C 83.03 38.71 87.83 33.94 94.01 32.07 M 82.23 47.57 C 78.74 48.57 75.30 49.76 71.93 51.12 C 63.78 44.72 53.22 41.63 42.93 42.02 C 39.59 42.25 34.65 42.85 34.31 47.10 C 32.78 58.78 36.76 70.26 40.50 81.16 C 40.33 82.87 39.48 84.42 38.96 86.03 C 33.55 100.64 34.55 117.46 41.56 131.36 C 47.76 143.89 58.53 153.97 71.23 159.74 C 86.14 166.57 103.64 167.48 119.18 162.25 C 135.57 156.87 149.65 144.51 156.52 128.62 C 162.07 115.97 162.85 101.30 158.58 88.15 C 157.04 84.56 160.13 81.32 160.98 77.96 C 164.32 68.06 167.56 57.50 166.04 46.97 C 165.65 42.58 160.38 42.24 156.98 41.99 C 146.40 41.85 135.18 44.92 127.38 52.37 C 124.99 51.34 122.66 50.18 120.25 49.20 L 120.28 50.33 C 117.16 42.73 110.74 35.58 102.04 35.10 C 93.45 34.22 85.92 40.23 82.23 47.57 Z" />
</g>
<g id="#f9c6d0ff">
<path fill="#f9c6d0" opacity="1.00" d=" M 82.23 47.57 C 85.92 40.23 93.45 34.22 102.04 35.10 C 110.74 35.58 117.16 42.73 120.28 50.33 C 121.04 56.80 117.45 62.94 118.83 69.41 C 119.68 67.04 119.99 64.43 121.35 62.28 C 123.27 60.90 125.85 61.08 128.08 60.65 C 123.27 58.75 121.94 53.55 120.25 49.20 C 122.66 50.18 124.99 51.34 127.38 52.37 C 135.18 44.92 146.40 41.85 156.98 41.99 C 160.38 42.24 165.65 42.58 166.04 46.97 C 167.56 57.50 164.32 68.06 160.98 77.96 C 160.13 81.32 157.04 84.56 158.58 88.15 C 162.85 101.30 162.07 115.97 156.52 128.62 C 149.65 144.51 135.57 156.87 119.18 162.25 C 103.64 167.48 86.14 166.57 71.23 159.74 C 58.53 153.97 47.76 143.89 41.56 131.36 C 34.55 117.46 33.55 100.64 38.96 86.03 C 39.48 84.42 40.33 82.87 40.50 81.16 C 36.76 70.26 32.78 58.78 34.31 47.10 C 34.65 42.85 39.59 42.25 42.93 42.02 C 53.22 41.63 63.78 44.72 71.93 51.12 C 75.30 49.76 78.74 48.57 82.23 47.57 M 43.37 48.57 C 40.77 48.90 40.50 51.87 40.49 53.97 C 40.57 60.77 42.75 67.32 45.06 73.64 C 50.25 65.91 57.23 59.60 65.01 54.56 C 59.21 49.54 50.94 46.99 43.37 48.57 M 135.51 54.32 C 136.88 57.18 138.76 59.78 141.26 61.77 C 146.27 66.02 150.16 71.34 153.81 76.76 C 157.17 69.61 159.69 61.90 159.94 53.96 C 160.03 51.80 159.47 48.82 156.88 48.51 C 149.38 47.05 141.42 49.62 135.51 54.32 M 80.69 52.62 C 77.75 61.74 76.63 72.48 82.00 80.96 C 86.41 88.74 95.46 92.54 104.05 93.19 C 112.18 94.03 121.20 92.24 126.88 85.94 C 131.04 80.86 131.87 73.88 131.08 67.55 C 129.61 72.48 128.47 77.92 124.46 81.52 C 112.23 93.09 88.90 88.20 82.57 72.48 C 79.66 66.25 80.53 59.26 80.69 52.62 Z" />
</g>
<g id="#0e141bff">
<path fill="#0e141b" opacity="1.00" d=" M 43.37 48.57 C 50.94 46.99 59.21 49.54 65.01 54.56 C 57.23 59.60 50.25 65.91 45.06 73.64 C 42.75 67.32 40.57 60.77 40.49 53.97 C 40.50 51.87 40.77 48.90 43.37 48.57 Z" />
<path fill="#0e141b" opacity="1.00" d=" M 135.51 54.32 C 141.42 49.62 149.38 47.05 156.88 48.51 C 159.47 48.82 160.03 51.80 159.94 53.96 C 159.69 61.90 157.17 69.61 153.81 76.76 C 150.16 71.34 146.27 66.02 141.26 61.77 C 138.76 59.78 136.88 57.18 135.51 54.32 Z" />
</g>
<g id="#f785c4ff">
<path fill="#f785c4" opacity="1.00" d=" M 120.28 50.33 L 120.25 49.20 C 121.94 53.55 123.27 58.75 128.08 60.65 C 125.85 61.08 123.27 60.90 121.35 62.28 C 119.99 64.43 119.68 67.04 118.83 69.41 C 117.45 62.94 121.04 56.80 120.28 50.33 Z" />
</g>
<g id="#f784c5ff">
<path fill="#f784c5" opacity="1.00" d=" M 80.69 52.62 C 80.53 59.26 79.66 66.25 82.57 72.48 C 88.90 88.20 112.23 93.09 124.46 81.52 C 128.47 77.92 129.61 72.48 131.08 67.55 C 131.87 73.88 131.04 80.86 126.88 85.94 C 121.20 92.24 112.18 94.03 104.05 93.19 C 95.46 92.54 86.41 88.74 82.00 80.96 C 76.63 72.48 77.75 61.74 80.69 52.62 Z" />
</g>
</svg>
