<?xml version="1.0" encoding="UTF-8" ?>
<!DOCTYPE svg PUBLIC "-//W3C//DTD SVG 1.1//EN" "http://www.w3.org/Graphics/SVG/1.1/DTD/svg11.dtd">
<svg width="200pt" height="200pt" viewBox="0 0 200 200" version="1.1" xmlns="http://www.w3.org/2000/svg">
<g id="#000000ff">
<path fill="#000000" opacity="1.00" d=" M 96.20 6.31 C 97.55 3.31 102.30 3.21 103.92 6.02 C 105.67 9.59 105.53 13.88 107.73 17.25 C 110.04 19.95 113.48 21.24 116.52 22.93 C 124.78 18.24 135.16 19.48 143.36 23.65 C 149.21 26.46 153.43 31.54 157.82 36.16 C 159.28 37.43 159.16 39.42 159.26 41.17 C 160.53 41.52 161.79 41.85 163.06 42.19 C 164.07 40.84 164.90 39.29 166.27 38.27 C 168.73 36.73 172.34 38.21 172.97 41.04 C 173.56 46.25 171.65 51.55 167.95 55.26 C 176.39 67.51 179.16 83.23 176.35 97.74 C 178.14 96.90 179.84 95.28 181.96 95.50 C 184.55 95.68 186.62 98.42 185.87 100.96 C 184.85 105.88 183.30 111.00 179.65 114.63 C 176.82 117.67 173.01 119.50 169.16 120.87 C 168.34 130.08 163.03 138.33 155.90 144.00 C 156.31 150.02 161.41 153.75 164.54 158.38 C 166.50 161.37 163.42 165.78 159.93 164.95 C 156.55 164.13 153.37 162.63 150.08 161.51 C 147.53 169.34 142.20 175.73 136.99 181.92 C 134.84 184.92 129.60 183.60 129.06 180.00 C 128.93 177.63 129.35 175.28 129.58 172.94 C 125.10 176.52 120.42 180.02 115.00 182.04 C 107.53 184.58 99.27 184.59 91.77 182.21 C 86.37 180.38 81.67 177.05 77.18 173.63 C 77.38 175.72 77.74 177.82 77.62 179.93 C 77.18 183.47 72.09 184.91 69.88 182.10 C 65.18 176.58 60.48 170.90 57.50 164.21 C 54.67 165.26 51.90 166.54 48.95 167.23 C 45.39 167.99 42.39 163.43 44.51 160.46 C 47.70 155.91 52.67 152.14 53.06 146.16 C 44.88 140.99 38.98 132.67 36.84 123.23 C 31.83 115.35 29.56 105.92 30.37 96.61 C 24.13 95.02 18.26 91.89 13.85 87.13 C 11.97 84.88 13.22 81.06 15.98 80.20 C 19.79 79.58 23.72 80.22 27.51 79.41 C 30.87 78.62 33.62 76.24 35.72 73.60 C 36.78 68.57 37.34 63.32 39.78 58.69 C 42.02 54.73 42.40 50.10 44.12 45.94 C 46.93 37.42 53.52 30.53 61.31 26.28 C 70.70 21.14 81.68 19.41 92.28 20.31 C 93.08 15.53 94.38 10.81 96.20 6.31 M 97.04 25.67 C 82.18 22.47 64.98 25.80 54.34 37.23 C 50.05 41.59 48.17 47.51 46.40 53.21 C 48.10 51.73 49.77 50.22 51.53 48.81 C 45.92 55.43 41.34 63.34 40.71 72.18 C 40.93 76.11 37.34 78.48 34.72 80.77 C 29.91 84.79 23.34 84.31 17.47 84.45 C 22.27 89.29 28.73 92.08 35.46 92.82 C 33.82 102.17 34.82 112.82 40.97 120.43 C 41.98 126.11 44.20 131.65 48.10 135.97 C 50.46 138.91 53.71 140.89 56.53 143.34 C 56.90 141.96 55.51 141.17 54.78 140.22 C 50.20 135.40 46.96 129.42 44.97 123.09 C 44.35 120.98 42.80 119.36 41.39 117.75 C 36.88 109.59 35.65 99.78 38.27 90.79 C 33.08 90.46 28.00 89.11 23.46 86.55 C 31.24 86.64 38.38 82.13 42.49 75.71 C 42.96 70.95 43.54 66.11 45.66 61.75 C 51.04 49.57 62.49 41.42 74.34 36.20 C 65.78 37.24 57.36 40.28 50.88 46.11 C 55.55 37.22 64.38 31.16 73.93 28.55 C 82.58 26.23 92.06 25.78 100.56 28.96 C 98.73 25.13 98.76 20.80 99.65 16.73 C 101.34 19.20 102.62 22.07 105.14 23.85 C 108.72 26.97 114.04 27.79 116.72 31.95 C 118.61 29.63 120.95 27.49 124.01 26.96 C 132.18 25.28 140.90 28.40 146.82 34.13 C 141.22 32.52 135.36 31.59 129.54 32.44 C 134.48 33.01 139.59 33.51 143.94 36.15 C 148.27 38.32 151.38 42.09 154.14 45.95 C 157.42 47.99 161.44 48.42 165.24 48.50 C 163.09 50.80 160.37 52.46 157.30 53.22 C 162.60 57.92 166.31 64.18 168.43 70.90 C 171.85 81.69 171.98 93.87 167.09 104.24 C 170.29 106.79 174.45 105.85 178.08 104.99 C 175.84 111.16 169.39 114.81 162.97 114.58 C 162.68 124.03 158.77 132.96 153.09 140.41 C 159.86 134.90 165.73 126.26 164.13 117.19 C 169.14 116.54 174.14 114.43 177.34 110.40 C 179.82 107.46 180.45 103.54 181.52 99.97 C 178.01 102.19 174.24 104.49 169.89 103.86 C 175.90 87.43 173.05 67.56 161.32 54.32 C 166.03 52.03 168.63 47.23 168.70 42.09 C 167.46 43.85 166.34 46.10 163.94 46.40 C 161.05 46.74 158.27 45.45 155.57 44.59 C 154.02 42.14 152.15 39.91 150.08 37.89 C 151.26 38.29 153.61 39.08 154.79 39.48 C 150.31 34.87 146.14 29.57 140.04 27.02 C 132.73 23.71 123.15 22.85 116.68 28.41 C 112.93 25.70 108.32 24.29 105.01 21.00 C 101.78 17.75 101.56 12.91 100.17 8.79 C 97.96 14.11 96.16 19.85 97.04 25.67 M 125.85 107.72 C 119.20 116.89 108.90 122.69 102.60 132.16 L 102.66 132.63 C 100.50 134.94 99.84 138.08 98.98 141.02 C 97.75 138.50 96.56 135.94 95.78 133.24 C 95.58 132.77 95.19 131.82 94.99 131.35 C 93.97 126.60 95.26 121.88 97.37 117.63 C 94.93 119.37 92.77 121.47 90.96 123.85 L 91.18 124.24 C 90.02 126.02 89.09 127.93 88.31 129.91 C 86.57 126.64 86.14 122.98 86.43 119.33 C 86.76 115.41 87.65 111.58 88.81 107.83 C 85.75 110.63 82.90 113.65 79.63 116.20 C 76.66 118.54 73.70 121.00 70.06 122.24 C 71.24 119.68 72.42 117.12 73.48 114.51 C 73.65 112.02 73.78 109.53 73.88 107.03 C 73.23 107.23 71.91 107.62 71.25 107.81 C 62.07 105.48 52.84 103.34 43.55 101.49 C 45.82 109.25 48.99 116.79 53.33 123.63 C 55.20 126.61 57.65 129.19 59.37 132.27 L 59.61 132.45 C 60.76 137.91 63.01 143.06 65.31 148.12 C 64.48 147.66 62.80 146.76 61.97 146.31 C 63.49 151.77 66.06 156.92 70.17 160.90 C 69.95 164.55 70.00 168.22 70.23 171.88 C 66.11 167.01 62.96 161.26 61.85 154.93 C 59.68 156.04 57.46 157.05 55.23 158.05 C 57.88 153.97 60.98 148.63 58.90 143.73 C 58.31 143.75 57.15 143.79 56.56 143.81 L 57.39 145.43 C 57.83 152.57 52.40 157.73 48.23 162.77 C 52.31 161.36 56.38 159.91 60.35 158.19 C 62.30 166.34 67.91 172.76 73.15 179.01 C 72.59 173.68 71.83 168.34 72.13 162.96 C 80.89 171.68 91.81 180.59 105.00 179.39 C 116.96 179.10 125.86 170.18 134.17 162.68 C 135.40 168.00 133.66 173.67 133.44 179.09 C 139.39 172.07 145.56 164.57 146.91 155.15 C 151.30 157.25 155.88 158.91 160.50 160.43 C 158.21 157.40 155.43 154.72 153.51 151.43 C 151.86 148.56 151.47 145.20 151.39 141.95 C 147.10 145.91 151.45 151.88 153.79 155.77 C 150.77 154.56 147.79 153.20 145.23 151.18 C 144.98 158.90 141.48 166.09 136.52 171.89 C 136.77 168.04 136.90 164.17 136.34 160.34 C 139.63 156.74 142.58 152.75 144.19 148.10 L 141.60 149.41 C 145.86 143.98 147.90 137.12 148.25 130.30 C 154.91 121.73 159.72 111.86 162.73 101.45 C 154.42 102.88 146.34 105.54 137.99 106.65 C 137.49 105.23 136.98 103.82 136.50 102.40 C 136.00 108.00 131.92 112.32 128.04 116.00 C 125.83 117.35 124.02 120.67 121.06 118.87 C 122.16 118.11 123.67 117.72 124.29 116.43 C 126.82 111.58 128.08 106.16 128.90 100.78 C 128.05 103.16 127.41 105.67 125.85 107.72 Z" />
</g>
<g id="#b2b2b2ff">
<path fill="#b2b2b2" opacity="1.00" d=" M 97.04 25.67 C 96.16 19.85 97.96 14.11 100.17 8.79 C 101.56 12.91 101.78 17.75 105.01 21.00 C 108.32 24.29 112.93 25.70 116.68 28.41 C 123.15 22.85 132.73 23.71 140.04 27.02 C 146.14 29.57 150.31 34.87 154.79 39.48 C 153.61 39.08 151.26 38.29 150.08 37.89 C 152.15 39.91 154.02 42.14 155.57 44.59 C 158.27 45.45 161.05 46.74 163.94 46.40 C 166.34 46.10 167.46 43.85 168.70 42.09 C 168.63 47.23 166.03 52.03 161.32 54.32 C 173.05 67.56 175.90 87.43 169.89 103.86 C 174.24 104.49 178.01 102.19 181.52 99.97 C 180.45 103.54 179.82 107.46 177.34 110.40 C 174.14 114.43 169.14 116.54 164.13 117.19 C 163.84 116.53 163.26 115.23 162.97 114.58 C 169.39 114.81 175.84 111.16 178.08 104.99 C 174.45 105.85 170.29 106.79 167.09 104.24 C 171.98 93.87 171.85 81.69 168.43 70.90 C 166.31 64.18 162.60 57.92 157.30 53.22 C 160.37 52.46 163.09 50.80 165.24 48.50 C 161.44 48.42 157.42 47.99 154.14 45.95 C 151.38 42.09 148.27 38.32 143.94 36.15 C 139.59 33.51 134.48 33.01 129.54 32.44 C 135.36 31.59 141.22 32.52 146.82 34.13 C 140.90 28.40 132.18 25.28 124.01 26.96 C 120.95 27.49 118.61 29.63 116.72 31.95 C 114.04 27.79 108.72 26.97 105.14 23.85 C 102.62 22.07 101.34 19.20 99.65 16.73 C 98.76 20.80 98.73 25.13 100.56 28.96 C 92.06 25.78 82.58 26.23 73.93 28.55 C 64.38 31.16 55.55 37.22 50.88 46.11 C 57.36 40.28 65.78 37.24 74.34 36.20 C 62.49 41.42 51.04 49.57 45.66 61.75 C 43.54 66.11 42.96 70.95 42.49 75.71 C 38.38 82.13 31.24 86.64 23.46 86.55 C 28.00 89.11 33.08 90.46 38.27 90.79 C 35.65 99.78 36.88 109.59 41.39 117.75 C 41.28 118.42 41.07 119.76 40.97 120.43 C 34.82 112.82 33.82 102.17 35.46 92.82 C 28.73 92.08 22.27 89.29 17.47 84.45 C 23.34 84.31 29.91 84.79 34.72 80.77 C 37.34 78.48 40.93 76.11 40.71 72.18 C 41.34 63.34 45.92 55.43 51.53 48.81 C 49.77 50.22 48.10 51.73 46.40 53.21 C 48.17 47.51 50.05 41.59 54.34 37.23 C 64.98 25.80 82.18 22.47 97.04 25.67 Z" />
</g>
<g id="#ffffffff">
<path fill="#ffffff" opacity="1.00" d=" M 125.85 107.72 C 127.41 105.67 128.05 103.16 128.90 100.78 C 128.08 106.16 126.82 111.58 124.29 116.43 C 123.67 117.72 122.16 118.11 121.06 118.87 C 115.15 121.51 113.24 128.07 110.48 133.35 C 112.86 132.31 115.21 130.58 117.95 130.95 C 123.32 131.21 129.22 133.21 134.19 130.22 C 140.66 126.31 144.10 119.20 147.27 112.63 C 140.79 113.18 134.18 113.72 128.04 116.00 C 131.92 112.32 136.00 108.00 136.50 102.40 C 136.98 103.82 137.49 105.23 137.99 106.65 C 146.34 105.54 154.42 102.88 162.73 101.45 C 159.72 111.86 154.91 121.73 148.25 130.30 C 143.71 135.24 138.22 139.71 131.67 141.58 C 128.09 142.10 124.59 140.33 120.98 140.66 C 118.32 140.83 116.15 142.55 114.08 144.06 C 110.42 146.86 106.82 149.71 103.12 152.46 C 102.94 145.85 103.65 139.20 102.66 132.63 L 102.60 132.16 C 108.90 122.69 119.20 116.89 125.85 107.72 Z" />
</g>
<g id="#9a9a9aff">
<path fill="#9a9a9a" opacity="1.00" d=" M 43.55 101.49 C 52.84 103.34 62.07 105.48 71.25 107.81 C 71.91 107.62 73.23 107.23 73.88 107.03 C 73.78 109.53 73.65 112.02 73.48 114.51 C 68.73 113.55 63.91 112.97 59.07 112.65 C 62.37 119.54 66.03 127.22 73.23 130.77 C 79.78 133.98 87.28 128.75 93.70 132.30 C 94.22 132.53 95.26 133.01 95.78 133.24 C 96.56 135.94 97.75 138.50 98.98 141.02 C 99.84 138.08 100.50 134.94 102.66 132.63 C 103.65 139.20 102.94 145.85 103.12 152.46 C 98.42 148.97 93.82 145.36 89.07 141.96 C 84.85 139.08 79.81 141.74 75.23 141.80 C 69.12 140.50 64.47 136.05 59.61 132.45 L 59.37 132.27 C 57.65 129.19 55.20 126.61 53.33 123.63 C 48.99 116.79 45.82 109.25 43.55 101.49 Z" />
</g>
<g id="#9b9b9bff">
<path fill="#9b9b9b" opacity="1.00" d=" M 79.63 116.20 C 82.90 113.65 85.75 110.63 88.81 107.83 C 87.65 111.58 86.76 115.41 86.43 119.33 C 84.18 118.24 81.91 117.20 79.63 116.20 Z" />
<path fill="#9b9b9b" opacity="1.00" d=" M 90.96 123.85 C 92.77 121.47 94.93 119.37 97.37 117.63 C 95.26 121.88 93.97 126.60 94.99 131.35 C 93.81 128.93 92.47 126.60 91.18 124.24 L 90.96 123.85 Z" />
</g>
<g id="#1b1b1bff">
<path fill="#1b1b1b" opacity="1.00" d=" M 59.07 112.65 C 63.91 112.97 68.73 113.55 73.48 114.51 C 72.42 117.12 71.24 119.68 70.06 122.24 C 73.70 121.00 76.66 118.54 79.63 116.20 C 81.91 117.20 84.18 118.24 86.43 119.33 C 86.14 122.98 86.57 126.64 88.31 129.91 C 89.09 127.93 90.02 126.02 91.18 124.24 C 92.47 126.60 93.81 128.93 94.99 131.35 C 95.19 131.82 95.58 132.77 95.78 133.24 C 95.26 133.01 94.22 132.53 93.70 132.30 C 87.28 128.75 79.78 133.98 73.23 130.77 C 66.03 127.22 62.37 119.54 59.07 112.65 Z" />
<path fill="#1b1b1b" opacity="1.00" d=" M 128.04 116.00 C 134.18 113.72 140.79 113.18 147.27 112.63 C 144.10 119.20 140.66 126.31 134.19 130.22 C 129.22 133.21 123.32 131.21 117.95 130.95 C 115.21 130.58 112.86 132.31 110.48 133.35 C 113.24 128.07 115.15 121.51 121.06 118.87 C 124.02 120.67 125.83 117.35 128.04 116.00 Z" />
</g>
<g id="#fdc9b9ff">
<path fill="#fdc9b9" opacity="1.00" d=" M 162.97 114.58 C 163.26 115.23 163.84 116.53 164.13 117.19 C 165.73 126.26 159.86 134.90 153.09 140.41 C 158.77 132.96 162.68 124.03 162.97 114.58 Z" />
<path fill="#fdc9b9" opacity="1.00" d=" M 41.39 117.75 C 42.80 119.36 44.35 120.98 44.97 123.09 C 46.96 129.42 50.20 135.40 54.78 140.22 C 55.51 141.17 56.90 141.96 56.53 143.34 C 53.71 140.89 50.46 138.91 48.10 135.97 C 44.20 131.65 41.98 126.11 40.97 120.43 C 41.07 119.76 41.28 118.42 41.39 117.75 Z" />
</g>
<g id="#fddcc3ff">
<path fill="#fddcc3" opacity="1.00" d=" M 131.67 141.58 C 138.22 139.71 143.71 135.24 148.25 130.30 C 147.90 137.12 145.86 143.98 141.60 149.41 L 144.19 148.10 C 142.58 152.75 139.63 156.74 136.34 160.34 C 135.62 161.12 134.90 161.90 134.17 162.68 C 125.86 170.18 116.96 179.10 105.00 179.39 C 91.81 180.59 80.89 171.68 72.13 162.96 C 71.47 162.28 70.81 161.59 70.17 160.90 C 66.06 156.92 63.49 151.77 61.97 146.31 C 62.80 146.76 64.48 147.66 65.31 148.12 C 63.01 143.06 60.76 137.91 59.61 132.45 C 64.47 136.05 69.12 140.50 75.23 141.80 C 79.81 141.74 84.85 139.08 89.07 141.96 C 93.82 145.36 98.42 148.97 103.12 152.46 C 106.82 149.71 110.42 146.86 114.08 144.06 C 116.15 142.55 118.32 140.83 120.98 140.66 C 124.59 140.33 128.09 142.10 131.67 141.58 Z" />
</g>
<g id="#b1b3b1ff">
<path fill="#b1b3b1" opacity="1.00" d=" M 153.79 155.77 C 151.45 151.88 147.10 145.91 151.39 141.95 C 151.47 145.20 151.86 148.56 153.51 151.43 C 155.43 154.72 158.21 157.40 160.50 160.43 C 155.88 158.91 151.30 157.25 146.91 155.15 C 145.56 164.57 139.39 172.07 133.44 179.09 C 133.66 173.67 135.40 168.00 134.17 162.68 C 134.90 161.90 135.62 161.12 136.34 160.34 C 136.90 164.17 136.77 168.04 136.52 171.89 C 141.48 166.09 144.98 158.90 145.23 151.18 C 147.79 153.20 150.77 154.56 153.79 155.77 Z" />
</g>
<g id="#b0b2b1ff">
<path fill="#b0b2b1" opacity="1.00" d=" M 56.56 143.81 C 57.15 143.79 58.31 143.75 58.90 143.73 C 60.98 148.63 57.88 153.97 55.23 158.05 C 57.46 157.05 59.68 156.04 61.85 154.93 C 62.96 161.26 66.11 167.01 70.23 171.88 C 70.00 168.22 69.95 164.55 70.17 160.90 C 70.81 161.59 71.47 162.28 72.13 162.96 C 71.83 168.34 72.59 173.68 73.15 179.01 C 67.91 172.76 62.30 166.34 60.35 158.19 C 56.38 159.91 52.31 161.36 48.23 162.77 C 52.40 157.73 57.83 152.57 57.39 145.43 L 56.56 143.81 Z" />
</g>
</svg>
