<?xml version="1.0" encoding="UTF-8" ?>
<!DOCTYPE svg PUBLIC "-//W3C//DTD SVG 1.1//EN" "http://www.w3.org/Graphics/SVG/1.1/DTD/svg11.dtd">
<svg width="200pt" height="200pt" viewBox="0 0 200 200" version="1.1" xmlns="http://www.w3.org/2000/svg">
<g id="#abababff">
<path fill="#ababab" opacity="1.00" d=" M 47.86 18.84 C 54.25 12.02 64.04 10.40 72.95 10.02 C 82.02 9.66 90.88 11.87 99.65 13.76 C 112.66 10.30 126.67 8.16 139.81 12.23 C 145.88 13.59 150.45 18.16 154.31 22.76 C 160.84 30.82 166.23 39.71 171.77 48.45 C 177.94 57.76 182.04 68.29 188.45 77.44 C 191.47 82.07 189.51 88.69 184.62 91.17 C 184.73 100.71 184.88 110.79 189.34 119.47 C 191.21 123.80 189.72 129.03 186.36 132.21 C 186.72 137.80 185.38 143.36 183.55 148.60 C 182.26 152.12 179.04 154.28 175.86 155.88 C 173.93 160.30 171.72 164.82 168.07 168.09 C 165.20 170.24 161.29 171.50 157.75 170.43 C 151.60 175.74 143.97 179.26 135.89 180.23 C 132.73 179.90 129.46 179.10 127.25 176.66 C 117.92 178.30 108.41 177.80 99.00 178.28 C 89.73 177.83 80.38 178.25 71.20 176.65 C 68.35 179.49 64.06 180.89 60.13 179.81 C 53.32 178.59 47.03 175.39 41.66 171.10 C 40.35 169.54 38.47 171.22 36.86 170.84 C 29.17 169.89 25.39 161.92 22.69 155.58 C 18.64 155.13 15.97 151.53 14.82 147.90 C 13.30 142.92 11.88 137.76 12.33 132.50 C 9.70 130.49 7.96 127.37 8.13 124.01 C 8.64 119.57 11.54 115.89 12.30 111.51 C 13.57 104.80 14.17 97.96 14.05 91.12 C 10.73 89.41 8.86 85.77 8.87 82.11 C 9.13 78.10 12.00 75.15 13.82 71.80 C 18.24 64.23 21.82 56.18 26.63 48.83 C 33.23 38.53 39.48 27.84 47.86 18.84 M 52.05 23.05 C 43.63 32.27 37.39 43.16 30.64 53.60 C 25.31 62.37 21.19 71.84 15.50 80.40 C 12.70 84.16 18.46 88.23 21.64 85.46 C 20.82 87.52 20.02 89.65 20.08 91.91 C 20.03 99.85 19.39 107.86 17.36 115.56 C 16.60 118.80 14.40 121.57 14.00 124.89 C 14.22 127.51 16.88 128.00 19.00 128.22 C 17.42 134.97 18.43 142.27 21.59 148.41 C 22.70 150.46 25.31 150.00 27.11 149.26 C 28.59 154.86 30.79 160.74 35.52 164.40 C 37.75 166.00 40.41 164.18 41.50 162.13 C 46.35 168.69 54.10 172.76 62.03 174.18 C 64.99 174.94 67.64 172.39 67.52 169.47 C 73.42 171.66 79.80 171.66 86.01 171.92 C 92.01 171.95 98.00 172.49 104.00 172.13 C 112.92 171.72 122.04 172.29 130.71 169.74 C 130.86 172.56 133.10 174.54 135.94 174.23 C 144.03 173.05 152.00 168.98 156.88 162.28 C 158.27 166.20 163.31 165.13 165.36 162.46 C 168.43 158.62 170.51 154.02 171.41 149.19 C 174.04 151.27 177.18 148.64 178.13 146.10 C 180.40 140.51 181.08 134.24 179.64 128.36 C 181.09 127.80 183.34 127.77 183.76 125.87 C 185.41 122.60 182.53 119.72 181.66 116.69 C 179.27 108.70 178.67 100.27 178.57 91.97 C 178.60 89.91 177.93 87.94 177.33 86.01 C 177.96 86.14 179.22 86.42 179.85 86.56 C 182.28 85.98 185.06 83.97 183.70 81.12 C 176.99 71.54 172.71 60.52 166.21 50.81 C 161.08 42.72 156.11 34.50 150.10 27.04 C 146.67 23.35 143.28 19.03 138.10 17.87 C 125.37 14.27 111.70 16.29 99.26 20.14 C 90.54 17.16 81.24 15.87 72.03 16.05 C 64.93 16.34 57.13 17.59 52.05 23.05 Z" />
</g>
<g id="#000100ff">
<path fill="#000100" opacity="1.00" d=" M 52.05 23.05 C 57.13 17.59 64.93 16.34 72.03 16.05 C 81.24 15.87 90.54 17.16 99.26 20.14 C 111.70 16.29 125.37 14.27 138.10 17.87 C 143.28 19.03 146.67 23.35 150.10 27.04 C 156.11 34.50 161.08 42.72 166.21 50.81 C 172.71 60.52 176.99 71.54 183.70 81.12 C 185.06 83.97 182.28 85.98 179.85 86.56 C 179.22 86.42 177.96 86.14 177.33 86.01 C 177.93 87.94 178.60 89.91 178.57 91.97 C 178.67 100.27 179.27 108.70 181.66 116.69 C 182.53 119.72 185.41 122.60 183.76 125.87 C 183.34 127.77 181.09 127.80 179.64 128.36 C 181.08 134.24 180.40 140.51 178.13 146.10 C 177.18 148.64 174.04 151.27 171.41 149.19 C 170.51 154.02 168.43 158.62 165.36 162.46 C 163.31 165.13 158.27 166.20 156.88 162.28 C 152.00 168.98 144.03 173.05 135.94 174.23 C 133.10 174.54 130.86 172.56 130.71 169.74 C 122.04 172.29 112.92 171.72 104.00 172.13 C 98.00 172.49 92.01 171.95 86.01 171.92 C 79.80 171.66 73.42 171.66 67.52 169.47 C 67.64 172.39 64.99 174.94 62.03 174.18 C 54.10 172.76 46.35 168.69 41.50 162.13 C 40.41 164.18 37.75 166.00 35.52 164.40 C 30.79 160.74 28.59 154.86 27.11 149.26 C 25.31 150.00 22.70 150.46 21.59 148.41 C 18.43 142.27 17.42 134.97 19.00 128.22 C 16.88 128.00 14.22 127.51 14.00 124.89 C 14.40 121.57 16.60 118.80 17.36 115.56 C 19.39 107.86 20.03 99.85 20.08 91.91 C 20.02 89.65 20.82 87.52 21.64 85.46 C 18.46 88.23 12.70 84.16 15.50 80.40 C 21.19 71.84 25.31 62.37 30.64 53.60 C 37.39 43.16 43.63 32.27 52.05 23.05 M 60.11 22.20 C 56.99 23.45 54.76 26.08 52.56 28.51 C 45.74 36.58 40.45 45.77 34.72 54.60 C 28.80 63.82 24.80 74.19 18.32 83.05 C 24.30 79.77 29.53 75.33 35.21 71.59 C 32.68 76.71 28.20 80.67 25.80 85.92 C 23.29 89.87 24.29 94.65 23.86 99.05 C 23.15 107.67 22.17 116.58 17.98 124.31 C 21.40 122.07 24.68 119.62 27.70 116.86 C 23.84 123.64 21.13 131.58 22.67 139.44 C 23.24 141.42 23.31 143.89 25.05 145.27 C 26.46 140.64 27.43 135.40 31.41 132.18 C 28.75 142.02 30.32 153.63 37.60 161.17 C 38.80 157.80 40.02 154.41 41.94 151.38 C 42.85 162.32 53.62 168.91 63.54 170.50 C 63.49 168.12 63.42 165.75 63.36 163.38 C 69.12 167.04 76.14 167.65 82.80 167.67 C 93.59 168.40 104.41 168.32 115.21 167.71 C 122.08 167.69 129.30 167.11 135.28 163.42 C 135.27 165.75 135.16 168.09 134.92 170.42 C 145.03 169.10 156.27 162.10 156.61 150.87 C 158.35 154.13 159.81 157.53 161.02 161.03 C 168.53 153.66 169.75 141.91 167.29 132.10 C 171.35 135.60 172.36 141.09 173.76 145.99 C 178.75 136.71 175.97 125.65 171.11 116.95 C 174.03 119.69 177.21 122.14 180.65 124.18 C 176.27 116.19 175.41 106.90 174.72 97.98 C 174.35 94.46 175.22 90.69 173.58 87.41 C 171.04 81.41 166.26 76.80 163.03 71.23 C 168.75 75.14 174.14 79.56 180.17 83.02 C 173.57 73.51 169.30 62.64 162.91 53.01 C 156.83 43.59 151.22 33.70 143.38 25.59 C 139.24 21.11 132.79 20.34 127.04 20.06 C 117.60 19.83 108.03 21.06 99.17 24.40 C 91.84 21.39 83.85 20.36 75.99 20.05 C 70.65 19.99 65.12 20.15 60.11 22.20 Z" />
</g>
<g id="#dbc330ff">
<path fill="#dbc330" opacity="1.00" d=" M 60.11 22.20 C 65.12 20.15 70.65 19.99 75.99 20.05 C 83.85 20.36 91.84 21.39 99.17 24.40 C 108.03 21.06 117.60 19.83 127.04 20.06 C 132.79 20.34 139.24 21.11 143.38 25.59 C 151.22 33.70 156.83 43.59 162.91 53.01 C 169.30 62.64 173.57 73.51 180.17 83.02 C 174.14 79.56 168.75 75.14 163.03 71.23 C 166.26 76.80 171.04 81.41 173.58 87.41 C 175.22 90.69 174.35 94.46 174.72 97.98 C 175.41 106.90 176.27 116.19 180.65 124.18 C 177.21 122.14 174.03 119.69 171.11 116.95 C 175.97 125.65 178.75 136.71 173.76 145.99 C 172.36 141.09 171.35 135.60 167.29 132.10 C 169.75 141.91 168.53 153.66 161.02 161.03 C 159.81 157.53 158.35 154.13 156.61 150.87 C 156.27 162.10 145.03 169.10 134.92 170.42 C 135.16 168.09 135.27 165.75 135.28 163.42 C 129.30 167.11 122.08 167.69 115.21 167.71 C 124.60 159.24 133.32 149.96 140.47 139.49 C 141.58 137.71 142.69 135.89 143.38 133.89 C 145.37 125.73 145.53 117.28 146.48 108.97 C 147.66 102.37 147.72 95.66 147.82 88.98 C 148.06 85.71 146.07 82.98 144.44 80.35 C 144.80 78.59 145.03 76.80 145.31 75.03 C 144.82 75.39 143.85 76.13 143.37 76.50 C 140.24 72.07 138.73 65.91 133.58 63.31 C 133.88 69.82 134.28 76.38 135.63 82.77 C 134.85 83.33 134.06 83.86 133.27 84.39 C 130.06 77.72 126.46 71.13 121.29 65.75 C 120.49 64.95 119.40 64.56 118.44 64.02 C 121.71 73.19 119.90 83.11 120.09 92.61 C 119.71 92.83 118.96 93.25 118.59 93.46 C 114.67 83.53 109.64 74.06 104.17 64.90 C 102.69 62.34 100.94 59.94 99.05 57.66 C 96.39 61.23 94.05 65.02 91.92 68.92 C 87.66 76.80 83.26 84.65 80.17 93.08 C 79.60 92.76 79.02 92.43 78.45 92.10 C 78.32 82.85 77.44 73.48 79.61 64.39 C 78.41 65.22 77.09 65.93 76.13 67.05 C 71.79 72.13 68.17 77.82 65.53 83.96 C 64.78 83.45 64.03 82.94 63.30 82.40 C 63.52 76.16 64.86 70.04 65.33 63.82 C 64.67 64.01 63.37 64.40 62.72 64.59 C 59.73 68.02 57.76 72.18 55.54 76.11 C 55.19 75.83 54.48 75.28 54.12 75.00 C 54.27 76.14 54.43 77.27 54.61 78.41 C 53.18 81.55 51.40 84.59 50.58 87.97 C 50.05 92.70 50.62 97.47 51.24 102.16 C 52.00 108.06 52.13 114.02 52.94 119.91 C 54.03 126.83 53.59 134.30 57.54 140.43 C 64.14 151.02 73.33 159.68 82.80 167.67 C 76.14 167.65 69.12 167.04 63.36 163.38 C 63.42 165.75 63.49 168.12 63.54 170.50 C 53.62 168.91 42.85 162.32 41.94 151.38 C 40.02 154.41 38.80 157.80 37.60 161.17 C 30.32 153.63 28.75 142.02 31.41 132.18 C 27.43 135.40 26.46 140.64 25.05 145.27 C 23.31 143.89 23.24 141.42 22.67 139.44 C 21.13 131.58 23.84 123.64 27.70 116.86 C 24.68 119.62 21.40 122.07 17.98 124.31 C 22.17 116.58 23.15 107.67 23.86 99.05 C 24.29 94.65 23.29 89.87 25.80 85.92 C 28.20 80.67 32.68 76.71 35.21 71.59 C 29.53 75.33 24.30 79.77 18.32 83.05 C 24.80 74.19 28.80 63.82 34.72 54.60 C 40.45 45.77 45.74 36.58 52.56 28.51 C 54.76 26.08 56.99 23.45 60.11 22.20 M 36.45 95.41 C 33.51 99.19 33.11 104.24 34.18 108.78 C 36.55 117.45 43.01 124.54 50.86 128.70 C 48.09 121.55 44.91 114.48 43.39 106.92 C 42.60 102.73 40.52 98.95 38.38 95.32 C 37.89 95.34 36.93 95.39 36.45 95.41 M 155.32 105.94 C 153.58 113.36 151.09 120.58 147.84 127.47 L 148.99 127.49 C 155.17 123.51 160.54 117.78 162.82 110.66 C 164.54 105.59 164.73 99.29 160.85 95.11 C 158.23 98.25 156.12 101.89 155.32 105.94 Z" />
</g>
<g id="#ffe2b3ff">
<path fill="#ffe2b3" opacity="1.00" d=" M 91.92 68.92 C 94.05 65.02 96.39 61.23 99.05 57.66 C 100.94 59.94 102.69 62.34 104.17 64.90 C 109.64 74.06 114.67 83.53 118.59 93.46 C 114.95 95.19 111.27 98.31 107.00 97.26 C 106.16 99.46 105.62 101.76 105.84 104.13 C 110.66 102.36 115.01 99.51 119.93 97.96 C 127.77 95.12 136.24 93.51 143.21 88.69 C 142.84 88.31 142.11 87.55 141.74 87.17 C 142.78 84.96 143.75 82.70 144.44 80.35 C 146.07 82.98 148.06 85.71 147.82 88.98 C 147.72 95.66 147.66 102.37 146.48 108.97 C 145.53 117.28 145.37 125.73 143.38 133.89 C 142.69 135.89 141.58 137.71 140.47 139.49 C 133.32 149.96 124.60 159.24 115.21 167.71 C 104.41 168.32 93.59 168.40 82.80 167.67 C 73.33 159.68 64.14 151.02 57.54 140.43 C 53.59 134.30 54.03 126.83 52.94 119.91 C 52.13 114.02 52.00 108.06 51.24 102.16 C 50.62 97.47 50.05 92.70 50.58 87.97 C 51.40 84.59 53.18 81.55 54.61 78.41 C 55.07 81.47 56.45 84.26 57.50 87.14 C 57.23 87.58 56.71 88.46 56.44 88.91 C 63.12 93.35 71.08 95.01 78.54 97.64 C 83.68 99.27 88.38 101.95 93.26 104.18 C 94.13 101.72 93.17 99.30 92.18 97.05 C 91.66 97.24 90.61 97.61 90.09 97.80 C 86.63 96.57 83.35 94.92 80.17 93.08 C 83.26 84.65 87.66 76.80 91.92 68.92 Z" />
</g>
<g id="#ffe3b6ff">
<path fill="#ffe3b6" opacity="1.00" d=" M 62.72 64.59 C 63.37 64.40 64.67 64.01 65.33 63.82 C 64.86 70.04 63.52 76.16 63.30 82.40 C 60.62 80.42 58.14 78.19 55.54 76.11 C 57.76 72.18 59.73 68.02 62.72 64.59 Z" />
<path fill="#ffe3b6" opacity="1.00" d=" M 133.58 63.31 C 138.73 65.91 140.24 72.07 143.37 76.50 C 140.79 78.60 138.36 80.87 135.63 82.77 C 134.28 76.38 133.88 69.82 133.58 63.31 Z" />
<path fill="#ffe3b6" opacity="1.00" d=" M 76.13 67.05 C 77.09 65.93 78.41 65.22 79.61 64.39 C 77.44 73.48 78.32 82.85 78.45 92.10 C 74.07 89.51 69.77 86.78 65.53 83.96 C 68.17 77.82 71.79 72.13 76.13 67.05 Z" />
</g>
<g id="#ffe3b2ff">
<path fill="#ffe3b2" opacity="1.00" d=" M 118.44 64.02 C 119.40 64.56 120.49 64.95 121.29 65.75 C 126.46 71.13 130.06 77.72 133.27 84.39 C 128.95 87.25 124.56 90.00 120.09 92.61 C 119.90 83.11 121.71 73.19 118.44 64.02 Z" />
</g>
<g id="#462800ff">
<path fill="#462800" opacity="1.00" d=" M 54.12 75.00 C 54.48 75.28 55.19 75.83 55.54 76.11 C 58.14 78.19 60.62 80.42 63.30 82.40 C 64.03 82.94 64.78 83.45 65.53 83.96 C 69.77 86.78 74.07 89.51 78.45 92.10 C 79.02 92.43 79.60 92.76 80.17 93.08 C 83.35 94.92 86.63 96.57 90.09 97.80 C 90.61 97.61 91.66 97.24 92.18 97.05 C 93.17 99.30 94.13 101.72 93.26 104.18 C 88.38 101.95 83.68 99.27 78.54 97.64 C 71.08 95.01 63.12 93.35 56.44 88.91 C 56.71 88.46 57.23 87.58 57.50 87.14 C 56.45 84.26 55.07 81.47 54.61 78.41 C 54.43 77.27 54.27 76.14 54.12 75.00 Z" />
<path fill="#462800" opacity="1.00" d=" M 143.37 76.50 C 143.85 76.13 144.82 75.39 145.31 75.03 C 145.03 76.80 144.80 78.59 144.44 80.35 C 143.75 82.70 142.78 84.96 141.74 87.17 C 142.11 87.55 142.84 88.31 143.21 88.69 C 136.24 93.51 127.77 95.12 119.93 97.96 C 115.01 99.51 110.66 102.36 105.84 104.13 C 105.62 101.76 106.16 99.46 107.00 97.26 C 111.27 98.31 114.95 95.19 118.59 93.46 C 118.96 93.25 119.71 92.83 120.09 92.61 C 124.56 90.00 128.95 87.25 133.27 84.39 C 134.06 83.86 134.85 83.33 135.63 82.77 C 138.36 80.87 140.79 78.60 143.37 76.50 Z" />
</g>
<g id="#ffe3b4ff">
<path fill="#ffe3b4" opacity="1.00" d=" M 36.45 95.41 C 36.93 95.39 37.89 95.34 38.38 95.32 C 40.52 98.95 42.60 102.73 43.39 106.92 C 44.91 114.48 48.09 121.55 50.86 128.70 C 43.01 124.54 36.55 117.45 34.18 108.78 C 33.11 104.24 33.51 99.19 36.45 95.41 Z" />
</g>
<g id="#ffe2b6ff">
<path fill="#ffe2b6" opacity="1.00" d=" M 155.32 105.94 C 156.12 101.89 158.23 98.25 160.85 95.11 C 164.73 99.29 164.54 105.59 162.82 110.66 C 160.54 117.78 155.17 123.51 148.99 127.49 L 147.84 127.47 C 151.09 120.58 153.58 113.36 155.32 105.94 Z" />
</g>
</svg>
