<?xml version="1.0" encoding="UTF-8" ?>
<!DOCTYPE svg PUBLIC "-//W3C//DTD SVG 1.1//EN" "http://www.w3.org/Graphics/SVG/1.1/DTD/svg11.dtd">
<svg width="200pt" height="200pt" viewBox="0 0 200 200" version="1.1" xmlns="http://www.w3.org/2000/svg">
<g id="#000000ff">
<path fill="#000000" opacity="1.00" d=" M 89.50 30.76 C 102.79 28.76 116.66 30.61 128.91 36.20 C 144.01 43.00 156.51 55.37 163.48 70.40 C 170.04 84.34 171.70 100.48 168.30 115.49 C 165.14 129.68 157.36 142.76 146.48 152.38 C 135.09 162.55 120.29 168.82 105.05 169.84 C 90.81 170.89 76.27 167.49 64.04 160.10 C 50.56 152.06 39.92 139.35 34.43 124.64 C 28.71 109.48 28.50 92.31 33.84 77.01 C 41.97 52.88 64.26 34.30 89.50 30.76 M 95.36 34.37 C 81.57 35.29 68.15 40.74 57.61 49.67 C 45.81 59.56 37.65 73.71 35.14 88.91 C 32.78 102.71 34.92 117.25 41.28 129.72 C 48.33 143.72 60.56 155.02 75.09 160.92 C 91.10 167.52 109.73 167.41 125.66 160.61 C 140.54 154.35 152.91 142.40 159.68 127.74 C 166.71 112.77 167.70 95.12 162.52 79.42 C 157.78 64.90 147.78 52.21 134.81 44.15 C 123.14 36.81 109.10 33.38 95.36 34.37 Z" />
<path fill="#000000" opacity="1.00" d=" M 81.30 73.35 C 84.19 72.13 87.53 74.84 87.05 77.91 C 87.06 87.29 87.10 96.67 87.03 106.05 C 87.15 108.29 85.21 110.33 82.98 110.35 C 80.61 110.53 78.40 108.40 78.58 106.01 C 78.53 96.66 78.56 87.29 78.57 77.93 C 78.36 76.00 79.41 73.99 81.30 73.35 Z" />
<path fill="#000000" opacity="1.00" d=" M 113.39 73.58 C 115.95 72.07 119.66 74.07 119.63 77.09 C 119.76 86.70 119.70 96.33 119.66 105.94 C 119.88 108.81 116.77 111.15 114.06 110.15 C 111.88 109.52 110.93 107.16 111.12 105.06 C 111.13 96.01 111.09 86.96 111.14 77.91 C 111.04 76.19 111.79 74.38 113.39 73.58 Z" />
</g>
<g id="#f2a9b2ff">
<path fill="#f2a9b2" opacity="1.00" d=" M 95.36 34.37 C 109.10 33.38 123.14 36.81 134.81 44.15 C 147.78 52.21 157.78 64.90 162.52 79.42 C 167.70 95.12 166.71 112.77 159.68 127.74 C 152.91 142.40 140.54 154.35 125.66 160.61 C 109.73 167.41 91.10 167.52 75.09 160.92 C 60.56 155.02 48.33 143.72 41.28 129.72 C 34.92 117.25 32.78 102.71 35.14 88.91 C 37.65 73.71 45.81 59.56 57.61 49.67 C 68.15 40.74 81.57 35.29 95.36 34.37 M 81.30 73.35 C 79.41 73.99 78.36 76.00 78.57 77.93 C 78.56 87.29 78.53 96.66 78.58 106.01 C 78.40 108.40 80.61 110.53 82.98 110.35 C 85.21 110.33 87.15 108.29 87.03 106.05 C 87.10 96.67 87.06 87.29 87.05 77.91 C 87.53 74.84 84.19 72.13 81.30 73.35 M 113.39 73.58 C 111.79 74.38 111.04 76.19 111.14 77.91 C 111.09 86.96 111.13 96.01 111.12 105.06 C 110.93 107.16 111.88 109.52 114.06 110.15 C 116.77 111.15 119.88 108.81 119.66 105.94 C 119.70 96.33 119.76 86.70 119.63 77.09 C 119.66 74.07 115.95 72.07 113.39 73.58 Z" />
</g>
</svg>
