<?xml version="1.0" encoding="UTF-8" ?>
<!DOCTYPE svg PUBLIC "-//W3C//DTD SVG 1.1//EN" "http://www.w3.org/Graphics/SVG/1.1/DTD/svg11.dtd">
<svg width="200pt" height="200pt" viewBox="0 0 200 200" version="1.1" xmlns="http://www.w3.org/2000/svg">
<g id="#000000ff">
<path fill="#000000" opacity="1.00" d=" M 68.31 26.44 C 72.55 24.60 75.91 28.81 77.88 31.98 C 84.34 42.81 88.96 54.64 93.25 66.45 C 97.72 66.07 102.24 65.67 106.66 66.75 C 110.82 55.86 115.04 44.93 120.64 34.69 C 122.72 31.32 124.80 27.09 128.96 26.02 C 132.28 25.48 134.66 28.39 135.85 31.10 C 138.60 37.33 140.09 44.02 141.64 50.62 C 144.75 65.09 147.00 79.81 147.40 94.62 C 159.12 103.34 169.98 113.24 179.90 123.96 C 183.85 128.48 188.65 133.54 187.98 140.04 C 186.94 153.87 169.55 163.85 157.46 156.12 C 157.51 158.87 157.47 161.72 156.33 164.28 C 150.91 175.98 131.21 177.86 124.90 165.99 C 118.47 168.61 111.83 170.66 105.07 172.22 C 102.46 172.78 99.76 173.34 97.11 172.78 C 89.55 171.26 82.14 169.03 74.97 166.20 C 68.54 177.86 49.05 175.89 43.67 164.28 C 42.52 161.72 42.50 158.87 42.53 156.12 C 30.47 163.85 13.10 153.89 12.02 140.10 C 11.33 133.35 16.42 128.17 20.50 123.50 C 30.38 113.00 40.97 103.08 52.69 94.66 C 53.50 75.46 56.51 56.31 61.82 37.84 C 63.31 33.80 64.27 28.73 68.31 26.44 M 69.22 30.32 C 66.86 33.84 65.75 37.99 64.58 42.01 C 59.95 59.94 56.99 78.37 56.44 96.87 C 45.59 104.27 35.82 113.18 26.71 122.61 C 22.85 126.72 18.59 130.74 16.29 135.98 C 13.77 147.45 27.79 158.14 38.31 153.26 C 42.75 150.92 45.76 146.76 48.93 143.00 C 47.91 149.45 44.89 156.22 47.40 162.67 C 51.26 169.77 61.76 171.75 68.30 167.27 C 70.37 165.88 71.15 163.41 71.87 161.15 C 70.96 160.42 70.08 159.66 69.13 158.99 C 77.04 162.90 85.48 165.73 94.06 167.76 C 97.90 169.60 102.16 169.07 106.02 167.57 C 114.16 165.35 122.22 162.68 129.80 158.93 C 128.01 159.89 127.11 162.00 128.38 163.80 C 133.11 172.81 148.31 170.88 152.28 162.12 C 154.21 156.00 151.59 149.79 150.79 143.72 C 154.64 147.37 157.64 152.43 163.05 153.97 C 172.13 156.34 182.28 149.22 183.43 139.97 C 184.01 136.04 181.58 132.62 179.23 129.75 C 172.02 121.33 163.95 113.67 155.47 106.53 C 151.58 103.13 147.67 99.66 143.17 97.09 C 142.39 78.83 139.82 60.64 135.22 42.94 C 133.87 38.40 132.83 33.57 129.84 29.76 C 127.12 30.91 125.78 33.69 124.27 36.05 C 117.95 47.26 113.79 59.50 108.85 71.33 C 106.04 70.09 102.99 69.78 99.95 69.92 C 96.95 70.12 93.41 69.12 91.11 71.65 C 89.20 68.99 88.56 65.71 87.26 62.75 C 83.24 52.75 79.37 42.57 73.65 33.39 C 72.53 32.02 71.38 29.43 69.22 30.32 Z" />
</g>
<g id="#01a4e3ff">
<path fill="#01a4e3" opacity="1.00" d=" M 69.22 30.32 C 71.38 29.43 72.53 32.02 73.65 33.39 C 79.37 42.57 83.24 52.75 87.26 62.75 C 88.56 65.71 89.20 68.99 91.11 71.65 C 93.22 84.02 94.09 96.54 94.70 109.06 C 95.39 114.99 95.43 120.97 95.51 126.93 C 91.73 125.91 88.48 123.67 85.02 121.93 C 75.13 116.42 64.80 111.75 54.92 106.23 C 54.69 104.82 54.46 103.41 54.23 102.00 C 54.56 103.36 54.89 104.73 55.20 106.10 C 55.40 103.00 55.95 99.94 56.44 96.87 C 56.99 78.37 59.95 59.94 64.58 42.01 C 65.75 37.99 66.86 33.84 69.22 30.32 M 70.76 52.39 C 69.27 60.23 67.20 68.29 68.07 76.28 C 70.61 73.90 71.19 70.24 72.82 67.28 C 75.25 68.43 77.45 70.02 79.94 71.06 C 78.14 64.62 75.75 58.28 72.74 52.30 C 72.24 52.32 71.25 52.37 70.76 52.39 Z" />
<path fill="#01a4e3" opacity="1.00" d=" M 124.27 36.05 C 125.78 33.69 127.12 30.91 129.84 29.76 C 132.83 33.57 133.87 38.40 135.22 42.94 C 139.82 60.64 142.39 78.83 143.17 97.09 C 143.26 100.36 143.54 103.61 143.88 106.86 C 141.55 108.32 139.12 109.61 136.62 110.74 C 125.75 115.82 115.47 122.10 104.57 127.11 C 104.31 115.37 105.66 103.68 106.39 91.98 C 106.27 91.16 106.04 89.51 105.93 88.69 C 106.10 88.65 106.45 88.55 106.63 88.51 C 107.10 89.05 107.71 89.44 108.35 89.77 C 108.39 86.38 108.08 83.01 107.66 79.65 C 108.07 76.88 108.45 74.10 108.85 71.33 C 113.79 59.50 117.95 47.26 124.27 36.05 M 119.11 70.99 C 121.71 70.28 123.66 68.31 126.11 67.28 C 127.21 69.32 128.13 71.46 128.87 73.66 C 129.36 73.74 130.35 73.90 130.84 73.98 C 130.69 66.32 130.69 58.06 127.08 51.17 C 123.46 57.33 121.20 64.20 119.11 70.99 Z" />
</g>
<g id="#453a37ff">
<path fill="#453a37" opacity="1.00" d=" M 70.76 52.39 C 71.25 52.37 72.24 52.32 72.74 52.30 C 75.75 58.28 78.14 64.62 79.94 71.06 C 77.45 70.02 75.25 68.43 72.82 67.28 C 71.19 70.24 70.61 73.90 68.07 76.28 C 67.20 68.29 69.27 60.23 70.76 52.39 Z" />
</g>
<g id="#413936ff">
<path fill="#413936" opacity="1.00" d=" M 119.11 70.99 C 121.20 64.20 123.46 57.33 127.08 51.17 C 130.69 58.06 130.69 66.32 130.84 73.98 C 130.35 73.90 129.36 73.74 128.87 73.66 C 128.13 71.46 127.21 69.32 126.11 67.28 C 123.66 68.31 121.71 70.28 119.11 70.99 Z" />
</g>
<g id="#3f3a39ff">
<path fill="#3f3a39" opacity="1.00" d=" M 91.11 71.65 C 93.41 69.12 96.95 70.12 99.95 69.92 C 102.99 69.78 106.04 70.09 108.85 71.33 C 108.45 74.10 108.07 76.88 107.66 79.65 C 107.06 82.57 106.59 85.52 106.63 88.51 C 106.45 88.55 106.10 88.65 105.93 88.69 C 106.04 89.51 106.27 91.16 106.39 91.98 C 105.66 103.68 104.31 115.37 104.57 127.11 C 115.47 122.10 125.75 115.82 136.62 110.74 C 139.12 109.61 141.55 108.32 143.88 106.86 C 143.54 103.61 143.26 100.36 143.17 97.09 C 147.67 99.66 151.58 103.13 155.47 106.53 C 163.95 113.67 172.02 121.33 179.23 129.75 C 181.58 132.62 184.01 136.04 183.43 139.97 C 182.28 149.22 172.13 156.34 163.05 153.97 C 157.64 152.43 154.64 147.37 150.79 143.72 C 151.59 149.79 154.21 156.00 152.28 162.12 C 148.31 170.88 133.11 172.81 128.38 163.80 C 127.11 162.00 128.01 159.89 129.80 158.93 C 137.64 154.40 147.04 148.76 148.34 138.92 C 148.42 131.91 146.53 125.01 146.39 118.00 C 146.17 122.48 147.32 126.87 147.52 131.33 C 136.95 135.80 126.42 140.58 116.83 146.93 C 113.87 148.75 112.49 152.08 111.04 155.07 C 109.23 159.18 107.25 163.24 106.02 167.57 C 102.16 169.07 97.90 169.60 94.06 167.76 C 92.38 162.40 89.99 157.29 87.56 152.24 C 86.25 149.44 84.04 147.19 81.34 145.72 C 71.72 139.96 61.68 134.78 51.06 131.13 C 50.29 135.34 49.72 140.01 51.91 143.91 C 55.43 151.01 62.53 155.15 69.13 158.99 C 70.08 159.66 70.96 160.42 71.87 161.15 C 71.15 163.41 70.37 165.88 68.30 167.27 C 61.76 171.75 51.26 169.77 47.40 162.67 C 44.89 156.22 47.91 149.45 48.93 143.00 C 45.76 146.76 42.75 150.92 38.31 153.26 C 27.79 158.14 13.77 147.45 16.29 135.98 C 18.59 130.74 22.85 126.72 26.71 122.61 C 35.82 113.18 45.59 104.27 56.44 96.87 C 55.95 99.94 55.40 103.00 55.20 106.10 C 54.89 104.73 54.56 103.36 54.23 102.00 C 54.46 103.41 54.69 104.82 54.92 106.23 C 64.80 111.75 75.13 116.42 85.02 121.93 C 88.48 123.67 91.73 125.91 95.51 126.93 C 95.43 120.97 95.39 114.99 94.70 109.06 C 94.09 96.54 93.22 84.02 91.11 71.65 Z" />
</g>
<g id="#3194bfff">
<path fill="#3194bf" opacity="1.00" d=" M 106.63 88.51 C 106.59 85.52 107.06 82.57 107.66 79.65 C 108.08 83.01 108.39 86.38 108.35 89.77 C 107.71 89.44 107.10 89.05 106.63 88.51 Z" />
</g>
<g id="#00a4e3ff">
<path fill="#00a4e3" opacity="1.00" d=" M 147.52 131.33 C 147.32 126.87 146.17 122.48 146.39 118.00 C 146.53 125.01 148.42 131.91 148.34 138.92 C 147.04 148.76 137.64 154.40 129.80 158.93 C 122.22 162.68 114.16 165.35 106.02 167.57 C 107.25 163.24 109.23 159.18 111.04 155.07 C 112.49 152.08 113.87 148.75 116.83 146.93 C 126.42 140.58 136.95 135.80 147.52 131.33 Z" />
<path fill="#00a4e3" opacity="1.00" d=" M 51.06 131.13 C 61.68 134.78 71.72 139.96 81.34 145.72 C 84.04 147.19 86.25 149.44 87.56 152.24 C 89.99 157.29 92.38 162.40 94.06 167.76 C 85.48 165.73 77.04 162.90 69.13 158.99 C 62.53 155.15 55.43 151.01 51.91 143.91 C 49.72 140.01 50.29 135.34 51.06 131.13 Z" />
</g>
</svg>
