<?xml version="1.0" encoding="UTF-8" ?>
<!DOCTYPE svg PUBLIC "-//W3C//DTD SVG 1.1//EN" "http://www.w3.org/Graphics/SVG/1.1/DTD/svg11.dtd">
<svg width="200pt" height="200pt" viewBox="0 0 200 200" version="1.1" xmlns="http://www.w3.org/2000/svg">
<g id="#000100ff">
<path fill="#000100" opacity="1.00" d=" M 55.95 37.00 C 69.43 26.25 86.52 18.87 104.03 20.13 C 121.83 21.57 138.28 30.76 150.90 43.08 C 160.82 52.91 168.93 65.24 171.37 79.18 C 173.16 88.98 171.31 99.59 165.40 107.73 C 169.33 111.66 171.17 117.41 170.40 122.90 C 169.00 132.62 163.09 141.69 154.52 146.58 C 149.15 159.03 137.21 167.04 125.10 172.11 C 115.46 179.77 102.11 183.04 90.12 179.69 C 84.88 178.21 79.67 176.04 75.54 172.41 C 63.20 167.27 50.94 159.26 45.46 146.55 C 36.88 141.68 30.98 132.58 29.60 122.85 C 28.82 117.37 30.69 111.65 34.59 107.72 C 27.90 98.55 26.54 86.34 29.39 75.53 C 33.38 60.07 43.69 46.91 55.95 37.00 M 90.41 24.67 C 88.08 26.02 85.26 26.30 82.63 26.66 C 81.16 28.21 78.80 28.09 77.05 29.09 C 59.96 36.72 45.24 50.18 37.03 67.13 C 35.99 68.79 36.11 71.07 34.65 72.53 C 34.10 74.88 34.13 77.54 32.69 79.55 C 32.36 83.72 32.61 87.92 32.58 92.10 C 33.82 94.31 34.15 96.86 34.70 99.31 C 36.48 101.18 36.75 104.36 39.22 105.58 C 40.71 106.20 41.82 107.44 43.23 108.18 C 39.03 108.65 35.60 112.14 34.40 116.09 C 32.82 120.94 34.27 126.17 36.37 130.63 C 39.05 136.04 43.27 141.07 48.90 143.46 C 49.09 143.70 49.46 144.18 49.65 144.42 C 54.55 156.64 66.62 163.90 78.26 168.70 C 90.45 179.28 110.40 179.29 122.55 168.64 C 134.78 163.85 146.79 155.83 151.88 143.22 C 159.92 139.33 165.36 130.88 166.61 122.15 C 167.56 116.15 163.95 109.28 157.70 108.03 C 160.05 106.25 163.30 105.15 164.34 102.16 C 165.86 99.15 167.45 96.01 167.62 92.63 C 168.42 88.45 168.49 83.93 167.58 79.74 C 167.22 75.12 165.17 70.81 163.42 66.52 C 154.17 47.72 136.77 33.34 117.27 26.61 C 114.89 26.05 112.31 25.92 110.20 24.58 C 103.61 24.10 97.00 23.95 90.41 24.67 Z" />
</g>
<g id="#e51617ff">
<path fill="#e51617" opacity="1.00" d=" M 90.41 24.67 C 97.00 23.95 103.61 24.10 110.20 24.58 C 112.31 25.92 114.89 26.05 117.27 26.61 C 136.77 33.34 154.17 47.72 163.42 66.52 C 165.17 70.81 167.22 75.12 167.58 79.74 C 167.15 84.02 166.72 88.38 167.62 92.63 C 167.45 96.01 165.86 99.15 164.34 102.16 C 163.30 105.15 160.05 106.25 157.70 108.03 C 157.38 108.16 156.74 108.41 156.42 108.53 C 153.59 104.35 149.80 100.32 144.65 99.27 C 143.71 102.26 141.98 105.17 138.96 106.42 C 135.28 107.43 131.41 106.48 128.00 104.99 C 120.89 101.91 113.83 98.33 106.07 97.23 C 96.25 95.49 86.32 98.34 77.45 102.47 C 72.27 104.62 66.91 107.92 61.08 106.53 C 58.22 105.43 56.48 102.76 55.12 100.16 C 50.20 100.40 47.49 105.56 44.27 108.66 C 44.01 108.54 43.49 108.30 43.23 108.18 C 41.82 107.44 40.71 106.20 39.22 105.58 C 36.75 104.36 36.48 101.18 34.70 99.31 C 34.15 96.86 33.82 94.31 32.58 92.10 C 32.61 87.92 32.36 83.72 32.69 79.55 C 34.13 77.54 34.10 74.88 34.65 72.53 C 36.11 71.07 35.99 68.79 37.03 67.13 C 45.24 50.18 59.96 36.72 77.05 29.09 C 78.80 28.09 81.16 28.21 82.63 26.66 C 85.26 26.30 88.08 26.02 90.41 24.67 M 85.60 43.61 C 77.77 49.51 71.71 58.96 72.78 69.09 C 73.29 73.06 74.90 77.65 78.86 79.40 C 80.32 79.53 81.76 79.20 83.21 79.11 L 83.43 78.58 C 95.48 76.70 108.12 76.33 120.01 79.35 C 122.61 80.03 124.54 77.70 125.83 75.80 C 128.70 70.80 128.47 64.63 126.91 59.25 C 123.98 51.22 117.84 44.01 109.82 40.79 C 101.86 39.02 92.53 38.59 85.60 43.61 Z" />
</g>
<g id="#ffffffff">
<path fill="#ffffff" opacity="1.00" d=" M 85.60 43.61 C 92.53 38.59 101.86 39.02 109.82 40.79 C 117.84 44.01 123.98 51.22 126.91 59.25 C 128.47 64.63 128.70 70.80 125.83 75.80 C 124.54 77.70 122.61 80.03 120.01 79.35 C 108.12 76.33 95.48 76.70 83.43 78.58 L 83.21 79.11 C 81.76 79.20 80.32 79.53 78.86 79.40 C 74.90 77.65 73.29 73.06 72.78 69.09 C 71.71 58.96 77.77 49.51 85.60 43.61 M 91.95 46.33 C 87.81 53.38 83.55 60.35 79.33 67.35 C 81.00 69.47 82.92 71.37 84.47 73.58 C 84.82 73.64 85.53 73.76 85.89 73.82 C 88.13 68.19 91.09 62.79 93.02 57.03 C 95.94 58.79 97.64 62.39 100.62 63.83 C 103.07 61.79 104.86 58.69 107.70 57.27 C 110.00 62.88 112.58 68.36 114.94 73.93 C 117.79 72.93 119.01 69.43 121.45 67.63 C 117.34 60.40 113.02 53.27 108.63 46.20 L 107.92 46.21 C 105.40 49.11 102.97 52.11 100.26 54.83 C 97.88 51.83 95.26 49.03 92.72 46.16 L 91.95 46.33 Z" />
</g>
<g id="#e71416ff">
<path fill="#e71416" opacity="1.00" d=" M 91.95 46.33 L 92.72 46.16 C 95.26 49.03 97.88 51.83 100.26 54.83 C 102.97 52.11 105.40 49.11 107.92 46.21 L 108.63 46.20 C 113.02 53.27 117.34 60.40 121.45 67.63 C 119.01 69.43 117.79 72.93 114.94 73.93 C 112.58 68.36 110.00 62.88 107.70 57.27 C 104.86 58.69 103.07 61.79 100.62 63.83 C 97.64 62.39 95.94 58.79 93.02 57.03 C 91.09 62.79 88.13 68.19 85.89 73.82 C 85.53 73.76 84.82 73.64 84.47 73.58 C 82.92 71.37 81.00 69.47 79.33 67.35 C 83.55 60.35 87.81 53.38 91.95 46.33 Z" />
</g>
<g id="#d52c30ff">
<path fill="#d52c30" opacity="1.00" d=" M 167.58 79.74 C 168.49 83.93 168.42 88.45 167.62 92.63 C 166.72 88.38 167.15 84.02 167.58 79.74 Z" />
</g>
<g id="#ffdcaaff">
<path fill="#ffdcaa" opacity="1.00" d=" M 77.45 102.47 C 86.32 98.34 96.25 95.49 106.07 97.23 C 113.83 98.33 120.89 101.91 128.00 104.99 C 131.41 106.48 135.28 107.43 138.96 106.42 C 141.98 105.17 143.71 102.26 144.65 99.27 C 144.32 106.76 144.53 114.32 143.16 121.73 C 146.12 124.61 149.27 127.31 152.35 130.08 C 153.52 134.42 152.96 138.94 151.88 143.22 C 146.79 155.83 134.78 163.85 122.55 168.64 C 110.40 179.29 90.45 179.28 78.26 168.70 C 66.62 163.90 54.55 156.64 49.65 144.42 C 49.46 144.18 49.09 143.70 48.90 143.46 C 48.09 138.62 47.21 133.48 48.86 128.72 C 49.10 129.05 49.59 129.73 49.83 130.06 C 52.47 126.96 55.79 124.33 58.20 121.13 C 56.13 114.35 55.50 107.22 55.12 100.16 C 56.48 102.76 58.22 105.43 61.08 106.53 C 66.91 107.92 72.27 104.62 77.45 102.47 M 80.31 130.81 C 72.66 129.43 64.73 128.60 57.57 125.40 C 53.82 130.57 55.75 140.14 62.88 140.97 C 62.04 143.83 62.75 147.05 64.88 149.17 C 68.45 153.01 74.67 153.16 78.94 150.40 C 79.07 153.39 80.67 156.29 83.28 157.79 C 88.70 161.02 96.03 159.91 100.63 155.73 C 104.60 159.89 111.30 160.66 116.45 158.46 C 119.66 157.10 121.85 153.93 122.01 150.45 C 125.14 152.28 129.07 152.99 132.48 151.55 C 136.73 150.08 139.46 145.27 138.04 140.89 C 145.18 140.28 147.28 130.33 143.23 125.40 C 136.35 128.04 129.02 129.19 121.80 130.50 C 118.70 128.44 117.74 124.46 114.81 122.19 C 109.17 117.93 101.73 117.07 94.91 118.16 C 88.37 119.58 82.22 124.21 80.31 130.81 Z" />
<path fill="#ffdcaa" opacity="1.00" d=" M 94.30 119.40 C 102.14 117.12 111.69 119.76 116.01 127.01 C 118.13 131.51 117.67 137.43 113.84 140.91 C 106.03 150.15 89.01 148.00 84.30 136.67 C 81.32 129.35 87.24 121.40 94.30 119.40 Z" />
</g>
<g id="#5e381aff">
<path fill="#5e381a" opacity="1.00" d=" M 44.27 108.66 C 47.49 105.56 50.20 100.40 55.12 100.16 C 55.50 107.22 56.13 114.35 58.20 121.13 C 55.79 124.33 52.47 126.96 49.83 130.06 C 49.59 129.73 49.10 129.05 48.86 128.72 C 45.95 122.44 44.65 115.53 44.27 108.66 Z" />
<path fill="#5e381a" opacity="1.00" d=" M 144.65 99.27 C 149.80 100.32 153.59 104.35 156.42 108.53 C 155.78 115.78 155.81 123.49 152.35 130.08 C 149.27 127.31 146.12 124.61 143.16 121.73 C 144.53 114.32 144.32 106.76 144.65 99.27 Z" />
</g>
<g id="#facd9bff">
<path fill="#facd9b" opacity="1.00" d=" M 34.40 116.09 C 35.60 112.14 39.03 108.65 43.23 108.18 C 43.49 108.30 44.01 108.54 44.27 108.66 C 44.65 115.53 45.95 122.44 48.86 128.72 C 47.21 133.48 48.09 138.62 48.90 143.46 C 43.27 141.07 39.05 136.04 36.37 130.63 C 34.27 126.17 32.82 120.94 34.40 116.09 Z" />
<path fill="#facd9b" opacity="1.00" d=" M 156.42 108.53 C 156.74 108.41 157.38 108.16 157.70 108.03 C 163.95 109.28 167.56 116.15 166.61 122.15 C 165.36 130.88 159.92 139.33 151.88 143.22 C 152.96 138.94 153.52 134.42 152.35 130.08 C 155.81 123.49 155.78 115.78 156.42 108.53 Z" />
</g>
<g id="#edc293ff">
<path fill="#edc293" opacity="1.00" d=" M 80.31 130.81 C 82.22 124.21 88.37 119.58 94.91 118.16 C 101.73 117.07 109.17 117.93 114.81 122.19 C 117.74 124.46 118.70 128.44 121.80 130.50 C 121.48 130.58 120.85 130.75 120.53 130.83 C 121.50 135.47 120.48 140.57 117.26 144.14 C 109.16 153.71 92.72 153.93 84.14 144.90 C 80.62 141.21 79.06 135.78 80.31 130.81 M 94.30 119.40 C 87.24 121.40 81.32 129.35 84.30 136.67 C 89.01 148.00 106.03 150.15 113.84 140.91 C 117.67 137.43 118.13 131.51 116.01 127.01 C 111.69 119.76 102.14 117.12 94.30 119.40 Z" />
</g>
<g id="#3b2c28ff">
<path fill="#3b2c28" opacity="1.00" d=" M 62.88 140.97 C 55.75 140.14 53.82 130.57 57.57 125.40 C 64.73 128.60 72.66 129.43 80.31 130.81 C 79.06 135.78 80.62 141.21 84.14 144.90 C 92.72 153.93 109.16 153.71 117.26 144.14 C 120.48 140.57 121.50 135.47 120.53 130.83 C 120.85 130.75 121.48 130.58 121.80 130.50 C 129.02 129.19 136.35 128.04 143.23 125.40 C 147.28 130.33 145.18 140.28 138.04 140.89 C 139.46 145.27 136.73 150.08 132.48 151.55 C 129.07 152.99 125.14 152.28 122.01 150.45 C 121.85 153.93 119.66 157.10 116.45 158.46 C 111.30 160.66 104.60 159.89 100.63 155.73 C 96.03 159.91 88.70 161.02 83.28 157.79 C 80.67 156.29 79.07 153.39 78.94 150.40 C 74.67 153.16 68.45 153.01 64.88 149.17 C 62.75 147.05 62.04 143.83 62.88 140.97 Z" />
</g>
</svg>
