<?xml version="1.0" encoding="UTF-8" ?>
<!DOCTYPE svg PUBLIC "-//W3C//DTD SVG 1.1//EN" "http://www.w3.org/Graphics/SVG/1.1/DTD/svg11.dtd">
<svg width="200pt" height="200pt" viewBox="0 0 200 200" version="1.1" xmlns="http://www.w3.org/2000/svg">
<g id="#000000ff">
<path fill="#000000" opacity="1.00" d=" M 79.67 24.46 C 87.73 22.75 95.90 25.09 103.97 23.99 C 121.93 23.07 139.28 33.01 149.40 47.56 C 156.87 57.86 160.28 70.51 161.21 83.07 C 161.89 91.66 161.67 100.37 160.14 108.87 C 161.84 110.84 163.73 112.71 166.15 113.79 C 168.61 114.67 168.26 117.67 167.85 119.72 C 165.90 122.61 162.13 121.60 159.24 121.36 C 158.48 130.68 152.34 138.70 144.83 143.85 C 142.75 146.39 140.14 148.77 139.43 152.11 C 136.65 160.30 133.36 168.45 128.42 175.59 C 127.21 177.72 124.24 177.41 122.27 176.74 C 119.00 173.70 121.59 168.85 121.45 165.05 C 115.94 169.17 109.99 173.42 102.93 174.12 C 92.26 176.45 81.22 172.12 73.18 165.10 C 73.30 168.05 74.11 171.01 73.79 173.97 C 73.01 177.47 67.77 178.16 66.05 175.04 C 60.98 167.52 58.35 158.71 55.85 150.08 C 53.97 147.04 51.28 144.58 48.17 142.80 C 39.38 136.47 32.55 124.91 36.12 113.93 C 34.74 108.02 32.88 102.11 32.94 95.96 C 33.01 89.92 32.53 83.80 33.78 77.84 C 36.41 63.24 43.18 49.23 53.94 38.89 C 61.07 31.98 69.93 26.67 79.67 24.46 M 79.69 28.67 C 63.76 32.87 50.91 45.28 43.84 59.89 C 38.93 70.86 36.13 82.92 36.74 94.97 C 37.28 101.51 38.87 107.88 40.55 114.20 C 39.34 117.14 38.92 120.42 39.69 123.54 C 41.52 131.50 47.42 138.04 54.49 141.88 C 56.11 144.10 58.32 145.86 59.67 148.28 C 61.54 154.86 63.60 161.42 66.50 167.62 C 67.27 169.16 68.00 170.82 69.45 171.87 C 69.86 166.30 67.58 160.81 68.40 155.28 C 73.98 160.56 79.90 165.83 87.08 168.80 C 93.79 170.93 101.24 170.97 107.88 168.58 C 115.10 165.39 121.09 160.03 126.70 154.59 C 126.31 160.52 125.40 166.41 125.03 172.34 C 126.28 171.44 127.08 170.12 127.82 168.81 C 131.45 162.05 134.16 154.84 136.60 147.59 C 138.33 145.21 140.05 142.78 142.16 140.73 L 142.19 140.59 C 150.21 135.30 156.85 125.73 154.68 115.74 C 157.71 116.68 160.79 117.52 163.97 117.69 C 161.06 115.75 158.39 113.47 156.13 110.80 C 155.83 106.16 157.47 101.69 157.38 97.06 C 157.54 90.05 157.47 83.01 156.14 76.10 C 154.01 59.71 144.85 44.02 130.59 35.36 C 121.06 28.99 109.19 27.05 97.95 28.64 C 91.92 27.69 85.70 27.14 79.69 28.67 Z" />
</g>
<g id="#2d4b8cff">
<path fill="#2d4b8c" opacity="1.00" d=" M 79.69 28.67 C 85.70 27.14 91.92 27.69 97.95 28.64 C 109.19 27.05 121.06 28.99 130.59 35.36 C 144.85 44.02 154.01 59.71 156.14 76.10 C 157.47 83.01 157.54 90.05 157.38 97.06 C 157.47 101.69 155.83 106.16 156.13 110.80 C 158.39 113.47 161.06 115.75 163.97 117.69 C 160.79 117.52 157.71 116.68 154.68 115.74 C 152.41 121.26 150.62 127.06 147.12 131.98 C 145.47 134.83 142.85 137.27 142.19 140.59 L 142.16 140.73 C 140.05 142.78 138.33 145.21 136.60 147.59 C 134.16 154.84 131.45 162.05 127.82 168.81 C 127.08 170.12 126.28 171.44 125.03 172.34 C 125.40 166.41 126.31 160.52 126.70 154.59 C 133.84 148.65 136.78 139.51 139.01 130.84 C 140.52 124.14 141.45 117.17 140.54 110.33 C 137.30 108.09 134.72 104.17 130.64 103.66 C 132.95 108.38 136.56 112.28 140.28 115.93 C 132.28 114.11 125.35 109.48 119.17 104.29 C 115.56 104.69 112.10 105.86 108.70 107.09 C 109.06 109.38 109.47 111.66 109.93 113.93 C 105.31 110.44 101.72 105.81 98.97 100.74 C 100.49 105.94 102.38 111.03 104.38 116.06 C 97.87 115.00 91.26 113.09 85.99 108.97 C 84.26 107.81 82.62 106.07 80.34 106.30 C 80.18 105.75 79.84 104.63 79.67 104.08 C 79.76 103.78 79.93 103.19 80.01 102.89 C 76.21 96.88 74.76 89.84 74.16 82.85 C 72.71 88.99 72.85 95.50 72.52 101.81 C 74.12 102.38 76.05 102.52 77.27 103.81 C 75.67 104.17 74.05 104.20 72.41 103.92 C 72.33 106.31 72.33 108.72 72.40 111.12 C 70.94 108.69 69.77 106.12 68.88 103.43 C 66.67 103.15 64.45 103.05 62.24 103.09 C 62.69 111.18 65.44 118.90 69.05 126.08 C 64.60 124.16 60.34 121.52 57.30 117.66 C 53.90 113.66 52.10 108.67 50.19 103.86 C 51.94 117.83 54.42 131.92 60.07 144.91 C 61.75 149.12 65.30 152.12 68.40 155.28 C 67.58 160.81 69.86 166.30 69.45 171.87 C 68.00 170.82 67.27 169.16 66.50 167.62 C 63.60 161.42 61.54 154.86 59.67 148.28 C 58.32 145.86 56.11 144.10 54.49 141.88 C 48.04 133.65 44.06 123.95 40.55 114.20 C 38.87 107.88 37.28 101.51 36.74 94.97 C 36.13 82.92 38.93 70.86 43.84 59.89 C 50.91 45.28 63.76 32.87 79.69 28.67 M 86.04 37.35 C 78.89 39.00 71.78 40.94 64.89 43.48 C 62.58 44.74 60.98 40.79 58.75 42.67 C 54.32 47.57 50.35 52.94 47.44 58.90 C 52.63 56.13 57.60 52.92 63.16 50.91 C 73.62 47.05 84.81 45.25 95.96 45.40 C 110.94 45.13 126.51 46.91 139.78 54.37 C 142.60 55.74 144.94 58.01 147.94 59.02 C 145.58 52.05 140.07 46.61 135.20 41.25 C 132.87 42.03 130.71 44.79 128.09 43.19 C 121.32 40.90 114.44 38.89 107.48 37.25 C 103.82 35.61 100.77 32.66 97.00 31.32 C 93.11 32.63 89.88 35.73 86.04 37.35 M 63.66 86.07 C 62.52 90.51 62.13 95.10 62.08 99.68 C 64.00 99.80 65.91 100.06 67.79 100.48 C 66.08 95.77 65.44 90.74 63.66 86.07 M 108.69 90.45 C 107.96 95.55 108.12 100.72 108.42 105.85 C 111.69 105.54 114.42 103.05 117.64 102.22 C 114.37 98.55 111.66 94.40 109.55 89.97 C 109.34 90.09 108.91 90.33 108.69 90.45 Z" />
</g>
<g id="#beb72cff">
<path fill="#beb72c" opacity="1.00" d=" M 86.04 37.35 C 89.88 35.73 93.11 32.63 97.00 31.32 C 100.77 32.66 103.82 35.61 107.48 37.25 C 114.44 38.89 121.32 40.90 128.09 43.19 C 130.71 44.79 132.87 42.03 135.20 41.25 C 140.07 46.61 145.58 52.05 147.94 59.02 C 144.94 58.01 142.60 55.74 139.78 54.37 C 126.51 46.91 110.94 45.13 95.96 45.40 C 84.81 45.25 73.62 47.05 63.16 50.91 C 57.60 52.92 52.63 56.13 47.44 58.90 C 50.35 52.94 54.32 47.57 58.75 42.67 C 60.98 40.79 62.58 44.74 64.89 43.48 C 71.78 40.94 78.89 39.00 86.04 37.35 M 88.82 44.54 C 94.54 44.74 100.41 45.55 106.06 44.37 C 100.45 43.21 94.42 43.46 88.82 44.54 Z" />
</g>
<g id="#b9b657ff">
<path fill="#b9b657" opacity="1.00" d=" M 88.82 44.54 C 94.42 43.46 100.45 43.21 106.06 44.37 C 100.41 45.55 94.54 44.74 88.82 44.54 Z" />
</g>
<g id="#fae0c8ff">
<path fill="#fae0c8" opacity="1.00" d=" M 72.52 101.81 C 72.85 95.50 72.71 88.99 74.16 82.85 C 74.76 89.84 76.21 96.88 80.01 102.89 C 79.93 103.19 79.76 103.78 79.67 104.08 C 79.07 104.01 77.87 103.88 77.27 103.81 C 76.05 102.52 74.12 102.38 72.52 101.81 Z" />
</g>
<g id="#fde1c4ff">
<path fill="#fde1c4" opacity="1.00" d=" M 63.66 86.07 C 65.44 90.74 66.08 95.77 67.79 100.48 C 65.91 100.06 64.00 99.80 62.08 99.68 C 62.13 95.10 62.52 90.51 63.66 86.07 Z" />
</g>
<g id="#fbe1c8ff">
<path fill="#fbe1c8" opacity="1.00" d=" M 108.69 90.45 C 108.91 90.33 109.34 90.09 109.55 89.97 C 111.66 94.40 114.37 98.55 117.64 102.22 C 114.42 103.05 111.69 105.54 108.42 105.85 C 108.12 100.72 107.96 95.55 108.69 90.45 Z" />
</g>
<g id="#f9e1cbff">
<path fill="#f9e1cb" opacity="1.00" d=" M 98.97 100.74 C 101.72 105.81 105.31 110.44 109.93 113.93 C 109.47 111.66 109.06 109.38 108.70 107.09 C 112.10 105.86 115.56 104.69 119.17 104.29 C 125.35 109.48 132.28 114.11 140.28 115.93 C 136.56 112.28 132.95 108.38 130.64 103.66 C 134.72 104.17 137.30 108.09 140.54 110.33 C 141.45 117.17 140.52 124.14 139.01 130.84 C 136.78 139.51 133.84 148.65 126.70 154.59 C 121.09 160.03 115.10 165.39 107.88 168.58 C 101.24 170.97 93.79 170.93 87.08 168.80 C 79.90 165.83 73.98 160.56 68.40 155.28 C 65.30 152.12 61.75 149.12 60.07 144.91 C 54.42 131.92 51.94 117.83 50.19 103.86 C 52.10 108.67 53.90 113.66 57.30 117.66 C 60.34 121.52 64.60 124.16 69.05 126.08 C 65.44 118.90 62.69 111.18 62.24 103.09 C 64.45 103.05 66.67 103.15 68.88 103.43 C 69.77 106.12 70.94 108.69 72.40 111.12 C 72.33 108.72 72.33 106.31 72.41 103.92 C 74.05 104.20 75.67 104.17 77.27 103.81 C 77.87 103.88 79.07 104.01 79.67 104.08 C 79.84 104.63 80.18 105.75 80.34 106.30 C 82.62 106.07 84.26 107.81 85.99 108.97 C 91.26 113.09 97.87 115.00 104.38 116.06 C 102.38 111.03 100.49 105.94 98.97 100.74 Z" />
</g>
<g id="#ebc9abff">
<path fill="#ebc9ab" opacity="1.00" d=" M 40.55 114.20 C 44.06 123.95 48.04 133.65 54.49 141.88 C 47.42 138.04 41.52 131.50 39.69 123.54 C 38.92 120.42 39.34 117.14 40.55 114.20 Z" />
</g>
<g id="#eac7adff">
<path fill="#eac7ad" opacity="1.00" d=" M 147.12 131.98 C 150.62 127.06 152.41 121.26 154.68 115.74 C 156.85 125.73 150.21 135.30 142.19 140.59 C 142.85 137.27 145.47 134.83 147.12 131.98 Z" />
</g>
</svg>
