<?xml version="1.0" encoding="UTF-8" ?>
<!DOCTYPE svg PUBLIC "-//W3C//DTD SVG 1.1//EN" "http://www.w3.org/Graphics/SVG/1.1/DTD/svg11.dtd">
<svg width="200pt" height="200pt" viewBox="0 0 200 200" version="1.1" xmlns="http://www.w3.org/2000/svg">
<g id="#000100ff">
<path fill="#000100" opacity="1.00" d=" M 82.31 39.37 C 81.41 36.73 82.79 33.20 85.86 33.02 C 95.56 33.01 105.27 32.94 114.97 33.06 C 118.08 33.54 118.82 37.04 118.21 39.67 C 131.81 42.19 144.91 49.70 152.30 61.64 C 158.51 71.40 160.83 83.24 160.40 94.70 C 163.91 97.19 167.71 99.29 171.28 101.70 C 172.94 102.78 173.46 105.07 172.69 106.84 C 170.06 114.88 167.44 122.93 164.79 130.97 C 164.28 133.03 162.09 134.41 160.00 134.06 C 156.38 134.08 152.69 133.25 149.13 133.72 C 144.14 147.00 133.22 157.80 120.10 163.09 C 109.02 167.61 96.40 168.26 84.94 164.82 C 69.64 160.40 56.53 148.68 50.90 133.72 C 46.70 133.15 42.31 134.44 38.06 133.93 C 36.67 133.48 35.54 132.33 35.19 130.91 C 32.55 122.88 29.93 114.84 27.30 106.81 C 26.54 105.04 27.07 102.78 28.71 101.71 C 32.26 99.25 36.15 97.25 39.58 94.64 C 39.01 80.67 42.75 65.97 52.33 55.46 C 60.05 46.73 71.13 41.86 82.31 39.37 M 86.66 37.10 C 86.10 38.99 87.22 41.11 86.88 43.12 C 72.77 44.47 58.67 51.68 51.08 63.99 C 44.68 73.82 43.55 85.80 43.59 97.22 C 39.55 100.02 35.00 102.27 31.25 105.36 C 33.94 113.49 36.64 121.62 39.23 129.79 C 41.43 129.84 43.63 129.68 45.82 129.52 C 48.48 129.90 51.59 128.47 53.94 129.75 C 58.45 145.42 72.29 157.47 87.86 161.43 C 96.46 163.34 105.56 163.27 114.03 160.94 C 127.83 156.83 139.89 146.42 145.12 132.91 C 145.89 131.76 145.43 129.91 146.82 129.20 C 149.94 129.35 153.06 129.59 156.19 129.63 C 157.70 129.76 159.23 129.84 160.75 129.80 C 163.42 121.62 166.07 113.43 168.79 105.27 C 164.88 102.31 160.46 99.97 156.39 97.20 C 156.00 93.17 156.56 89.06 155.81 85.03 C 154.69 69.61 145.28 54.58 130.90 48.20 C 125.42 45.22 119.20 44.29 113.31 42.58 C 113.57 40.79 114.05 39.00 113.96 37.17 C 104.86 37.14 95.76 37.28 86.66 37.10 Z" />
</g>
<g id="#45d5ffff">
<path fill="#45d5ff" opacity="1.00" d=" M 86.66 37.10 C 95.76 37.28 104.86 37.14 113.96 37.17 C 114.05 39.00 113.57 40.79 113.31 42.58 C 112.53 48.94 111.44 55.25 110.49 61.57 C 103.74 61.58 96.99 61.55 90.25 61.58 C 88.38 55.61 88.80 49.11 86.88 43.12 C 87.22 41.11 86.10 38.99 86.66 37.10 Z" />
<path fill="#45d5ff" opacity="1.00" d=" M 151.99 117.01 C 154.43 110.64 155.22 103.85 156.39 97.20 C 160.46 99.97 164.88 102.31 168.79 105.27 C 166.07 113.43 163.42 121.62 160.75 129.80 C 159.23 129.84 157.70 129.76 156.19 129.63 C 153.07 129.12 149.90 129.17 146.76 128.93 C 148.46 124.94 150.67 121.16 151.99 117.01 Z" />
</g>
<g id="#0573ebff">
<path fill="#0573eb" opacity="1.00" d=" M 51.08 63.99 C 58.67 51.68 72.77 44.47 86.88 43.12 C 88.80 49.11 88.38 55.61 90.25 61.58 C 96.99 61.55 103.74 61.58 110.49 61.57 C 111.44 55.25 112.53 48.94 113.31 42.58 C 119.20 44.29 125.42 45.22 130.90 48.20 C 145.28 54.58 154.69 69.61 155.81 85.03 C 156.56 89.06 156.00 93.17 156.39 97.20 C 155.22 103.85 154.43 110.64 151.99 117.01 C 150.67 121.16 148.46 124.94 146.76 128.93 C 149.90 129.17 153.07 129.12 156.19 129.63 C 153.06 129.59 149.94 129.35 146.82 129.20 C 145.43 129.91 145.89 131.76 145.12 132.91 C 139.89 146.42 127.83 156.83 114.03 160.94 C 105.56 163.27 96.46 163.34 87.86 161.43 C 72.29 157.47 58.45 145.42 53.94 129.75 C 51.59 128.47 48.48 129.90 45.82 129.52 C 48.33 129.15 50.86 129.12 53.38 128.95 C 51.88 125.38 49.83 122.06 48.59 118.38 C 45.90 111.60 44.77 104.37 43.59 97.22 C 43.55 85.80 44.68 73.82 51.08 63.99 M 90.00 73.04 C 89.87 79.75 89.86 86.47 90.03 93.18 C 96.70 93.51 103.42 93.42 110.10 93.24 L 110.64 92.64 C 110.66 86.18 110.56 79.72 110.69 73.27 C 103.84 72.68 96.89 73.12 90.00 73.04 M 67.27 99.07 C 63.09 101.25 60.18 105.29 58.46 109.56 C 55.41 120.04 58.52 131.15 63.58 140.35 C 67.13 145.84 72.41 149.93 77.92 153.28 C 86.30 157.52 95.53 160.65 105.08 159.43 C 109.12 158.10 113.20 157.29 117.09 155.60 C 126.07 151.65 135.25 145.46 138.73 135.86 C 140.40 131.66 142.21 127.30 142.35 122.67 C 144.50 120.47 142.99 116.90 143.59 114.15 C 142.94 116.62 143.52 119.22 143.05 121.71 L 142.42 121.82 C 144.51 111.55 138.60 99.33 127.67 97.40 C 123.64 95.55 119.42 97.18 115.47 98.38 C 108.77 101.23 103.13 107.09 100.97 114.10 C 100.72 114.25 100.23 114.53 99.98 114.68 C 99.71 114.37 99.17 113.75 98.90 113.45 C 95.91 105.70 89.20 98.90 80.86 97.33 C 76.41 95.46 71.43 97.19 67.27 99.07 M 56.61 122.96 C 57.10 119.96 57.23 116.86 56.63 113.87 C 55.03 116.58 55.49 120.16 56.61 122.96 Z" />
</g>
<g id="#45d4ffff">
<path fill="#45d4ff" opacity="1.00" d=" M 90.00 73.04 C 96.89 73.12 103.84 72.68 110.69 73.27 C 110.56 79.72 110.66 86.18 110.64 92.64 L 110.10 93.24 C 103.42 93.42 96.70 93.51 90.03 93.18 C 89.86 86.47 89.87 79.75 90.00 73.04 Z" />
<path fill="#45d4ff" opacity="1.00" d=" M 31.25 105.36 C 35.00 102.27 39.55 100.02 43.59 97.22 C 44.77 104.37 45.90 111.60 48.59 118.38 C 49.83 122.06 51.88 125.38 53.38 128.95 C 50.86 129.12 48.33 129.15 45.82 129.52 C 43.63 129.68 41.43 129.84 39.23 129.79 C 36.64 121.62 33.94 113.49 31.25 105.36 Z" />
</g>
<g id="#fddcc3ff">
<path fill="#fddcc3" opacity="1.00" d=" M 67.27 99.07 C 71.43 97.19 76.41 95.46 80.86 97.33 C 89.20 98.90 95.91 105.70 98.90 113.45 C 99.17 113.75 99.71 114.37 99.98 114.68 C 100.23 114.53 100.72 114.25 100.97 114.10 C 103.13 107.09 108.77 101.23 115.47 98.38 C 119.42 97.18 123.64 95.55 127.67 97.40 C 138.60 99.33 144.51 111.55 142.42 121.82 L 143.05 121.71 C 143.52 119.22 142.94 116.62 143.59 114.15 C 142.99 116.90 144.50 120.47 142.35 122.67 C 142.21 127.30 140.40 131.66 138.73 135.86 C 135.25 145.46 126.07 151.65 117.09 155.60 C 113.20 157.29 109.12 158.10 105.08 159.43 C 95.53 160.65 86.30 157.52 77.92 153.28 C 72.41 149.93 67.13 145.84 63.58 140.35 C 58.52 131.15 55.41 120.04 58.46 109.56 C 60.18 105.29 63.09 101.25 67.27 99.07 Z" />
</g>
<g id="#3676ceff">
<path fill="#3676ce" opacity="1.00" d=" M 56.61 122.96 C 55.49 120.16 55.03 116.58 56.63 113.87 C 57.23 116.86 57.10 119.96 56.61 122.96 Z" />
</g>
</svg>
