<?xml version="1.0" encoding="UTF-8" ?>
<!DOCTYPE svg PUBLIC "-//W3C//DTD SVG 1.1//EN" "http://www.w3.org/Graphics/SVG/1.1/DTD/svg11.dtd">
<svg width="200pt" height="200pt" viewBox="0 0 200 200" version="1.1" xmlns="http://www.w3.org/2000/svg">
<g id="#000000ff">
<path fill="#000000" opacity="1.00" d=" M 85.95 35.01 C 101.09 27.70 119.27 26.99 134.91 33.18 C 149.80 38.94 162.20 50.77 168.64 65.38 C 172.99 75.41 175.24 86.77 172.74 97.59 C 172.54 99.90 171.20 102.46 171.75 104.62 C 176.56 107.67 179.71 113.22 178.97 119.01 C 177.94 127.90 172.09 137.05 162.98 139.27 C 158.29 152.56 147.78 163.74 134.43 168.51 C 121.28 173.20 106.45 173.24 93.24 168.76 C 80.29 164.32 69.73 153.91 64.77 141.19 C 59.75 140.53 55.16 137.76 52.22 133.65 C 48.27 128.22 45.50 121.09 47.61 114.39 C 48.75 110.62 51.69 107.75 55.06 105.88 C 54.41 102.77 53.80 99.66 53.27 96.53 C 44.22 97.45 35.14 98.65 26.03 98.33 C 23.52 98.54 21.00 96.69 20.98 94.07 C 20.83 90.07 23.92 87.08 26.48 84.41 C 36.15 75.17 47.52 67.97 58.63 60.66 C 64.95 49.66 74.42 40.42 85.95 35.01 M 72.12 50.08 C 67.84 54.26 64.67 59.38 61.52 64.41 C 51.06 70.71 40.90 77.61 31.73 85.68 C 29.28 88.24 25.83 90.51 25.40 94.32 C 36.01 94.58 46.61 93.49 57.11 92.01 C 57.78 97.79 59.04 103.49 60.43 109.14 C 56.93 109.62 53.49 111.66 52.21 115.09 C 50.09 120.58 52.48 126.61 55.75 131.11 C 58.47 134.91 63.03 137.97 67.90 136.86 C 72.01 150.05 82.51 161.11 95.75 165.28 C 109.16 169.45 124.27 169.09 137.09 163.15 C 148.38 157.90 156.60 147.38 160.09 135.55 C 164.39 135.55 168.18 132.99 170.64 129.61 C 173.48 125.71 175.66 120.88 174.95 115.95 C 174.48 112.03 171.42 108.47 167.45 107.84 C 167.11 101.73 169.72 95.88 169.89 89.75 C 170.16 74.23 163.05 58.89 151.60 48.51 C 140.81 38.29 125.84 32.69 110.98 33.44 C 96.46 33.51 82.42 40.01 72.12 50.08 Z" />
</g>
<g id="#ff2622ff">
<path fill="#ff2622" opacity="1.00" d=" M 72.12 50.08 C 82.42 40.01 96.46 33.51 110.98 33.44 C 125.84 32.69 140.81 38.29 151.60 48.51 C 163.05 58.89 170.16 74.23 169.89 89.75 C 166.30 89.10 162.70 88.50 159.07 88.12 L 159.30 89.97 C 159.21 89.45 159.01 88.43 158.91 87.92 C 156.39 87.78 153.88 87.59 151.38 87.27 C 132.77 84.27 113.78 86.00 95.01 85.46 C 90.54 81.64 87.26 75.81 81.24 74.20 C 74.92 70.56 69.02 65.14 61.52 64.41 C 64.67 59.38 67.84 54.26 72.12 50.08 Z" />
</g>
<g id="#005bccff">
<path fill="#005bcc" opacity="1.00" d=" M 31.73 85.68 C 40.90 77.61 51.06 70.71 61.52 64.41 C 69.02 65.14 74.92 70.56 81.24 74.20 C 85.05 78.22 90.97 80.78 92.71 86.37 C 90.79 86.51 88.87 86.63 86.95 86.76 C 87.36 86.84 88.17 87.00 88.58 87.07 C 80.86 88.54 73.12 89.92 65.30 90.63 C 62.60 91.27 59.87 91.81 57.11 92.01 C 46.61 93.49 36.01 94.58 25.40 94.32 C 25.83 90.51 29.28 88.24 31.73 85.68 Z" />
</g>
<g id="#da4d55ff">
<path fill="#da4d55" opacity="1.00" d=" M 81.24 74.20 C 87.26 75.81 90.54 81.64 95.01 85.46 C 113.78 86.00 132.77 84.27 151.38 87.27 C 144.75 86.97 138.12 86.74 131.51 86.25 C 120.17 85.79 108.80 85.98 97.45 86.12 C 94.48 86.27 91.53 86.68 88.58 87.07 C 88.17 87.00 87.36 86.84 86.95 86.76 C 88.87 86.63 90.79 86.51 92.71 86.37 C 90.97 80.78 85.05 78.22 81.24 74.20 Z" />
</g>
<g id="#ffe5c8ff">
<path fill="#ffe5c8" opacity="1.00" d=" M 88.58 87.07 C 91.53 86.68 94.48 86.27 97.45 86.12 L 97.49 86.96 C 97.76 91.58 97.74 96.37 99.44 100.75 C 99.92 102.39 102.02 103.45 103.54 102.46 C 105.41 101.60 106.36 99.68 107.44 98.04 C 108.07 101.17 108.97 105.95 113.02 106.03 C 117.35 105.45 119.50 100.99 120.28 97.15 C 121.01 99.18 121.73 101.67 124.09 102.33 C 125.80 103.02 127.51 101.76 128.29 100.29 C 130.50 96.26 130.92 91.56 131.42 87.07 L 131.51 86.25 C 138.12 86.74 144.75 86.97 151.38 87.27 C 153.88 87.59 156.39 87.78 158.91 87.92 C 159.01 88.43 159.21 89.45 159.30 89.97 C 160.72 100.34 161.68 110.80 161.46 121.28 C 163.57 117.09 165.11 112.66 166.42 108.17 C 166.68 108.09 167.19 107.92 167.45 107.84 C 171.42 108.47 174.48 112.03 174.95 115.95 C 175.66 120.88 173.48 125.71 170.64 129.61 C 168.18 132.99 164.39 135.55 160.09 135.55 C 156.60 147.38 148.38 157.90 137.09 163.15 C 124.27 169.09 109.16 169.45 95.75 165.28 C 82.51 161.11 72.01 150.05 67.90 136.86 C 63.03 137.97 58.47 134.91 55.75 131.11 C 52.48 126.61 50.09 120.58 52.21 115.09 C 53.49 111.66 56.93 109.62 60.43 109.14 C 61.74 113.89 63.44 118.54 65.59 122.98 C 65.40 112.55 66.23 102.10 67.81 91.78 C 66.98 91.38 66.14 91.00 65.30 90.63 C 73.12 89.92 80.86 88.54 88.58 87.07 Z" />
</g>
<g id="#370a06ff">
<path fill="#370a06" opacity="1.00" d=" M 97.45 86.12 C 108.80 85.98 120.17 85.79 131.51 86.25 L 131.42 87.07 C 120.13 86.48 108.79 86.55 97.49 86.96 L 97.45 86.12 Z" />
</g>
<g id="#241815ff">
<path fill="#241815" opacity="1.00" d=" M 97.49 86.96 C 108.79 86.55 120.13 86.48 131.42 87.07 C 130.92 91.56 130.50 96.26 128.29 100.29 C 127.51 101.76 125.80 103.02 124.09 102.33 C 121.73 101.67 121.01 99.18 120.28 97.15 C 119.50 100.99 117.35 105.45 113.02 106.03 C 108.97 105.95 108.07 101.17 107.44 98.04 C 106.36 99.68 105.41 101.60 103.54 102.46 C 102.02 103.45 99.92 102.39 99.44 100.75 C 97.74 96.37 97.76 91.58 97.49 86.96 Z" />
</g>
<g id="#241915ff">
<path fill="#241915" opacity="1.00" d=" M 159.07 88.12 C 162.70 88.50 166.30 89.10 169.89 89.75 C 169.72 95.88 167.11 101.73 167.45 107.84 C 167.19 107.92 166.68 108.09 166.42 108.17 C 165.11 112.66 163.57 117.09 161.46 121.28 C 161.68 110.80 160.72 100.34 159.30 89.97 L 159.07 88.12 Z" />
</g>
<g id="#241816ff">
<path fill="#241816" opacity="1.00" d=" M 57.11 92.01 C 59.87 91.81 62.60 91.27 65.30 90.63 C 66.14 91.00 66.98 91.38 67.81 91.78 C 66.23 102.10 65.40 112.55 65.59 122.98 C 63.44 118.54 61.74 113.89 60.43 109.14 C 59.04 103.49 57.78 97.79 57.11 92.01 Z" />
</g>
</svg>
