<?xml version="1.0" encoding="UTF-8" ?>
<!DOCTYPE svg PUBLIC "-//W3C//DTD SVG 1.1//EN" "http://www.w3.org/Graphics/SVG/1.1/DTD/svg11.dtd">
<svg width="200pt" height="200pt" viewBox="0 0 200 200" version="1.1" xmlns="http://www.w3.org/2000/svg">
<g id="#000100ff">
<path fill="#000100" opacity="1.00" d=" M 98.35 16.31 C 99.76 14.67 102.51 14.49 104.07 16.02 C 108.35 20.12 112.19 24.66 116.44 28.80 C 121.03 25.96 124.47 21.05 129.04 17.94 C 132.09 16.51 135.74 19.66 134.79 22.88 C 133.39 31.31 131.80 39.72 130.37 48.14 C 143.06 52.02 150.17 64.16 160.60 71.42 C 163.63 74.07 169.00 70.82 170.94 75.04 C 171.99 79.05 170.28 83.17 169.03 86.94 C 171.09 85.52 174.02 83.70 176.38 85.64 C 179.04 88.00 177.78 92.02 177.86 95.12 C 177.51 103.71 173.36 112.57 165.28 116.36 C 166.83 121.46 167.53 126.89 166.58 132.18 C 165.34 140.67 160.85 148.41 160.61 157.08 C 163.78 157.39 166.85 156.42 169.15 154.21 C 171.42 152.03 175.54 153.86 175.83 156.88 C 176.27 168.31 168.13 178.62 157.77 182.72 C 141.04 189.75 120.40 185.24 107.77 172.31 C 103.05 173.48 98.13 173.43 93.45 172.12 C 79.20 186.91 54.09 190.96 36.83 179.15 C 29.63 174.23 24.90 165.67 25.17 156.88 C 25.42 154.96 27.14 153.37 29.08 153.27 C 31.11 153.02 32.42 154.85 33.99 155.79 C 35.83 157.17 38.23 157.00 40.40 157.07 C 40.10 148.03 35.29 139.98 34.26 131.08 C 33.53 126.13 34.30 121.10 35.72 116.35 C 27.60 112.57 23.48 103.67 23.14 95.08 C 23.22 91.99 21.97 87.99 24.61 85.65 C 26.97 83.71 29.91 85.52 31.97 86.94 C 30.71 83.45 29.45 79.79 29.77 76.02 C 30.12 73.58 32.69 72.24 34.98 72.67 C 38.94 73.20 41.94 70.09 44.64 67.68 C 52.80 59.90 60.89 50.90 72.25 48.02 C 70.94 39.31 69.04 30.69 67.82 21.98 C 67.50 18.64 71.97 16.33 74.49 18.55 C 78.45 21.94 82.14 25.65 86.02 29.13 C 90.20 24.93 94.16 20.51 98.35 16.31 M 86.06 35.03 C 81.46 30.57 76.71 26.29 72.05 21.92 C 73.55 31.78 75.47 41.58 77.18 51.41 C 65.29 52.65 56.74 61.83 48.63 69.67 C 44.68 73.62 39.85 77.85 33.80 76.95 C 34.16 81.89 36.10 86.56 38.88 90.63 C 34.87 91.82 30.56 91.69 27.12 89.09 C 27.17 95.41 27.51 102.28 31.44 107.55 C 33.77 110.81 37.50 112.55 41.13 113.92 C 39.44 118.08 38.13 122.49 38.19 127.03 C 38.17 137.43 44.50 146.61 44.55 157.00 C 44.49 159.84 41.48 161.24 39.01 161.31 C 35.37 161.58 32.02 159.87 29.20 157.74 C 29.69 161.97 30.69 166.28 33.27 169.76 C 38.60 177.32 47.91 181.04 56.89 181.69 C 70.17 182.77 83.74 177.19 92.43 167.10 C 97.67 169.60 103.71 169.32 109.10 167.42 C 121.03 181.77 143.73 186.32 159.99 176.85 C 166.83 172.98 171.35 165.64 171.76 157.79 C 169.16 159.63 166.26 161.33 162.97 161.31 C 160.24 161.47 156.59 160.23 156.41 157.02 C 156.46 148.67 160.55 141.13 162.15 133.06 C 163.71 126.62 162.38 119.90 159.85 113.89 C 163.72 112.52 167.64 110.55 169.93 107.00 C 173.49 101.75 173.84 95.17 173.84 89.03 C 170.44 91.65 166.11 91.90 162.12 90.57 C 164.94 86.53 166.80 81.80 167.22 76.87 C 161.68 77.80 156.80 74.50 153.04 70.83 C 144.69 63.39 137.31 53.08 125.47 51.37 C 127.32 41.55 128.97 31.70 130.71 21.87 C 125.95 26.16 121.21 30.50 116.62 34.98 C 111.33 29.90 106.53 24.33 101.28 19.20 C 96.22 24.49 91.36 29.98 86.06 35.03 Z" />
</g>
<g id="#dba433ff">
<path fill="#dba433" opacity="1.00" d=" M 86.06 35.03 C 91.36 29.98 96.22 24.49 101.28 19.20 C 106.53 24.33 111.33 29.90 116.62 34.98 C 121.21 30.50 125.95 26.16 130.71 21.87 C 128.97 31.70 127.32 41.55 125.47 51.37 C 116.48 50.01 108.04 53.81 100.05 57.34 C 93.00 53.69 85.32 50.35 77.18 51.41 C 75.47 41.58 73.55 31.78 72.05 21.92 C 76.71 26.29 81.46 30.57 86.06 35.03 Z" />
</g>
<g id="#ffdc1dff">
<path fill="#ffdc1d" opacity="1.00" d=" M 77.18 51.41 C 85.32 50.35 93.00 53.69 100.05 57.34 C 108.04 53.81 116.48 50.01 125.47 51.37 C 137.31 53.08 144.69 63.39 153.04 70.83 C 156.80 74.50 161.68 77.80 167.22 76.87 C 166.80 81.80 164.94 86.53 162.12 90.57 C 166.11 91.90 170.44 91.65 173.84 89.03 C 173.84 95.17 173.49 101.75 169.93 107.00 C 167.64 110.55 163.72 112.52 159.85 113.89 C 162.38 119.90 163.71 126.62 162.15 133.06 C 160.55 141.13 156.46 148.67 156.41 157.02 C 156.59 160.23 160.24 161.47 162.97 161.31 C 166.26 161.33 169.16 159.63 171.76 157.79 C 171.35 165.64 166.83 172.98 159.99 176.85 C 143.73 186.32 121.03 181.77 109.10 167.42 C 118.51 162.89 126.05 155.02 131.02 145.91 C 131.73 144.53 131.71 142.93 131.95 141.43 C 130.41 141.41 128.86 141.40 127.32 141.39 C 126.85 138.07 130.03 136.33 131.57 133.84 C 135.18 128.44 137.44 122.28 139.35 116.10 C 140.11 113.50 140.90 110.79 140.55 108.06 C 134.53 103.47 128.85 97.78 127.10 90.13 C 124.16 91.28 122.38 94.04 119.97 95.93 C 115.09 99.92 109.71 103.36 103.99 106.01 C 101.03 107.44 97.78 106.16 94.97 105.02 C 90.20 102.96 85.50 100.61 81.39 97.41 C 79.02 95.62 77.25 93.01 74.42 91.88 C 72.35 98.46 67.93 103.76 62.83 108.23 C 62.22 108.40 60.99 108.73 60.37 108.90 C 63.26 120.25 66.93 132.20 75.75 140.45 C 73.29 141.18 70.76 141.60 68.19 141.69 C 72.79 152.70 81.48 162.21 92.43 167.10 C 83.74 177.19 70.17 182.77 56.89 181.69 C 47.91 181.04 38.60 177.32 33.27 169.76 C 30.69 166.28 29.69 161.97 29.20 157.74 C 32.02 159.87 35.37 161.58 39.01 161.31 C 41.48 161.24 44.49 159.84 44.55 157.00 C 44.50 146.61 38.17 137.43 38.19 127.03 C 38.13 122.49 39.44 118.08 41.13 113.92 C 37.50 112.55 33.77 110.81 31.44 107.55 C 27.51 102.28 27.17 95.41 27.12 89.09 C 30.56 91.69 34.87 91.82 38.88 90.63 C 36.10 86.56 34.16 81.89 33.80 76.95 C 39.85 77.85 44.68 73.62 48.63 69.67 C 56.74 61.83 65.29 52.65 77.18 51.41 M 50.25 126.03 C 49.94 129.83 52.97 132.54 55.01 135.34 C 53.97 135.86 53.11 136.58 52.41 137.50 C 51.96 137.80 51.06 138.41 50.61 138.71 C 49.98 139.43 49.32 140.14 48.64 140.82 C 46.50 145.29 47.00 151.68 51.66 154.37 C 54.37 156.49 58.00 155.83 61.16 155.46 C 63.57 153.54 66.49 151.41 66.53 147.98 C 67.18 143.94 65.74 139.41 61.86 137.53 C 58.30 130.93 56.23 123.48 55.55 116.04 C 50.96 116.55 49.75 122.19 50.25 126.03 M 146.47 116.06 C 146.27 123.48 143.01 130.28 140.94 137.29 C 145.93 137.89 149.10 133.20 151.27 129.44 C 152.51 124.86 152.40 117.05 146.47 116.06 M 137.83 138.92 C 132.96 142.10 132.01 149.71 136.17 153.83 C 138.67 157.21 143.36 156.96 147.03 156.24 C 151.10 154.73 153.46 150.26 152.67 145.96 C 153.02 138.73 143.22 134.87 137.83 138.92 M 153.35 144.37 C 152.69 145.81 152.35 148.77 153.73 149.66 C 154.39 148.22 154.86 145.17 153.35 144.37 M 140.36 157.34 C 140.89 158.12 141.78 158.44 143.03 158.27 C 143.62 158.50 146.94 157.95 145.16 157.08 C 143.60 156.81 141.81 156.60 140.36 157.34 Z" />
</g>
<g id="#c6926bff">
<path fill="#c6926b" opacity="1.00" d=" M 119.97 95.93 C 122.38 94.04 124.16 91.28 127.10 90.13 C 128.85 97.78 134.53 103.47 140.55 108.06 C 133.66 106.26 129.12 100.16 126.06 94.11 C 119.16 101.05 110.62 106.80 101.04 109.12 C 91.50 106.78 82.51 101.91 75.46 95.03 C 72.67 100.48 68.90 106.16 62.83 108.23 C 67.93 103.76 72.35 98.46 74.42 91.88 C 77.25 93.01 79.02 95.62 81.39 97.41 C 85.50 100.61 90.20 102.96 94.97 105.02 C 97.78 106.16 101.03 107.44 103.99 106.01 C 109.71 103.36 115.09 99.92 119.97 95.93 Z" />
</g>
<g id="#fff3eaff">
<path fill="#fff3ea" opacity="1.00" d=" M 75.46 95.03 C 82.51 101.91 91.50 106.78 101.04 109.12 C 110.62 106.80 119.16 101.05 126.06 94.11 C 129.12 100.16 133.66 106.26 140.55 108.06 C 140.90 110.79 140.11 113.50 139.35 116.10 C 137.44 122.28 135.18 128.44 131.57 133.84 C 130.03 136.33 126.85 138.07 127.32 141.39 C 128.86 141.40 130.41 141.41 131.95 141.43 C 131.71 142.93 131.73 144.53 131.02 145.91 C 126.05 155.02 118.51 162.89 109.10 167.42 C 103.71 169.32 97.67 169.60 92.43 167.10 C 81.48 162.21 72.79 152.70 68.19 141.69 C 70.76 141.60 73.29 141.18 75.75 140.45 C 66.93 132.20 63.26 120.25 60.37 108.90 C 60.99 108.73 62.22 108.40 62.83 108.23 C 68.90 106.16 72.67 100.48 75.46 95.03 Z" />
</g>
<g id="#ffebdaff">
<path fill="#ffebda" opacity="1.00" d=" M 50.25 126.03 C 49.75 122.19 50.96 116.55 55.55 116.04 C 56.23 123.48 58.30 130.93 61.86 137.53 C 58.92 135.96 55.35 135.87 52.41 137.50 C 53.11 136.58 53.97 135.86 55.01 135.34 C 52.97 132.54 49.94 129.83 50.25 126.03 Z" />
<path fill="#ffebda" opacity="1.00" d=" M 146.47 116.06 C 152.40 117.05 152.51 124.86 151.27 129.44 C 149.10 133.20 145.93 137.89 140.94 137.29 C 143.01 130.28 146.27 123.48 146.47 116.06 Z" />
</g>
<g id="#1da3daff">
<path fill="#1da3da" opacity="1.00" d=" M 52.41 137.50 C 55.35 135.87 58.92 135.96 61.86 137.53 C 65.74 139.41 67.18 143.94 66.53 147.98 C 66.49 151.41 63.57 153.54 61.16 155.46 C 58.00 155.83 54.37 156.49 51.66 154.37 C 47.00 151.68 46.50 145.29 48.64 140.82 C 49.32 140.14 49.98 139.43 50.61 138.71 C 51.06 138.41 51.96 137.80 52.41 137.50 Z" />
</g>
<g id="#1da3d8ff">
<path fill="#1da3d8" opacity="1.00" d=" M 137.83 138.92 C 143.22 134.87 153.02 138.73 152.67 145.96 C 153.46 150.26 151.10 154.73 147.03 156.24 C 143.36 156.96 138.67 157.21 136.17 153.83 C 132.01 149.71 132.96 142.10 137.83 138.92 Z" />
</g>
<g id="#e2de8cff">
<path fill="#e2de8c" opacity="1.00" d=" M 153.35 144.37 C 154.86 145.17 154.39 148.22 153.73 149.66 C 152.35 148.77 152.69 145.81 153.35 144.37 Z" />
</g>
<g id="#ede17eff">
<path fill="#ede17e" opacity="1.00" d=" M 140.36 157.34 C 141.81 156.60 143.60 156.81 145.16 157.08 C 146.94 157.95 143.62 158.50 143.03 158.27 C 141.78 158.44 140.89 158.12 140.36 157.34 Z" />
</g>
</svg>
