<?xml version="1.0" encoding="UTF-8" ?>
<!DOCTYPE svg PUBLIC "-//W3C//DTD SVG 1.1//EN" "http://www.w3.org/Graphics/SVG/1.1/DTD/svg11.dtd">
<svg width="200pt" height="200pt" viewBox="0 0 200 200" version="1.1" xmlns="http://www.w3.org/2000/svg">
<g id="#000100ff">
<path fill="#000100" opacity="1.00" d=" M 18.09 44.95 C 20.54 42.50 24.32 42.87 27.46 43.28 C 37.03 44.82 46.07 48.48 55.08 51.92 C 65.44 56.24 75.86 60.64 85.36 66.70 C 87.53 68.02 88.04 70.76 88.18 73.10 C 88.61 78.18 87.84 83.26 87.01 88.27 C 95.51 86.41 104.48 85.95 112.96 88.25 C 112.06 82.24 110.96 76.03 112.30 70.00 C 113.05 66.75 116.57 65.64 119.05 64.01 C 132.66 56.57 147.07 50.64 161.80 45.84 C 167.35 44.32 173.16 42.32 178.97 43.30 C 182.82 44.13 184.40 48.45 184.00 52.00 C 183.31 63.04 179.62 73.59 176.29 84.05 C 173.38 92.54 170.26 101.01 166.06 108.96 C 164.59 111.47 163.05 114.55 159.91 115.19 C 154.43 116.52 148.69 116.23 143.18 115.27 C 143.14 119.08 144.44 123.14 143.64 127.09 C 141.92 140.91 130.09 151.39 117.34 155.47 C 105.96 159.12 93.51 158.64 82.06 155.55 C 72.80 152.94 63.87 147.35 59.35 138.61 C 55.44 131.51 55.55 122.91 57.58 115.26 C 51.73 116.08 45.67 116.65 39.88 115.13 C 36.62 114.32 35.14 110.97 33.60 108.33 C 28.34 97.98 24.55 86.96 21.08 75.90 C 19.00 68.72 16.85 61.49 16.10 54.02 C 15.89 50.93 15.70 47.32 18.09 44.95 M 21.49 46.57 C 19.24 47.14 18.87 50.02 19.02 51.97 C 20.72 65.78 25.27 79.05 30.05 92.07 C 32.68 98.48 34.97 105.22 39.14 110.84 C 43.14 112.93 48.10 112.43 52.50 112.17 C 52.71 111.96 53.11 111.54 53.32 111.33 C 56.80 110.80 60.36 110.59 63.84 109.95 C 59.45 118.55 58.35 129.74 63.73 138.16 C 65.56 141.49 68.42 144.29 71.71 146.19 C 80.58 152.10 91.58 153.73 102.05 153.57 C 112.64 153.46 123.24 149.52 131.01 142.27 C 133.27 140.17 135.08 137.52 136.54 134.79 C 140.77 127.07 140.03 117.38 135.70 109.87 C 139.09 110.68 142.59 110.80 146.03 111.29 C 146.21 111.52 146.57 111.98 146.75 112.21 C 150.51 112.61 154.31 112.40 158.04 111.85 C 159.21 111.62 160.43 111.04 161.01 109.94 C 164.72 104.27 167.07 97.86 169.55 91.60 C 172.85 82.89 175.72 74.01 178.01 64.99 C 179.16 59.93 180.53 54.80 180.15 49.58 C 180.22 46.91 177.10 45.85 174.90 46.27 C 165.60 47.36 156.80 50.84 148.09 54.09 C 137.22 58.54 126.34 63.15 116.31 69.32 C 114.56 71.05 115.04 73.79 114.93 76.02 C 115.11 79.30 114.70 82.98 116.49 85.88 C 117.51 88.86 118.24 91.92 118.89 95.00 C 107.04 88.97 92.52 89.69 80.47 94.75 C 81.22 92.15 81.74 89.48 82.55 86.88 C 84.19 84.66 84.06 81.78 84.43 79.16 C 84.49 75.98 85.03 72.40 83.38 69.54 C 76.77 65.23 69.54 61.99 62.38 58.72 C 51.51 54.09 40.53 49.49 28.97 46.94 C 26.52 46.57 23.92 45.78 21.49 46.57 Z" />
</g>
<g id="#f19db7ff">
<path fill="#f19db7" opacity="1.00" d=" M 21.49 46.57 C 23.92 45.78 26.52 46.57 28.97 46.94 C 40.53 49.49 51.51 54.09 62.38 58.72 C 69.54 61.99 76.77 65.23 83.38 69.54 C 85.03 72.40 84.49 75.98 84.43 79.16 C 84.06 81.78 84.19 84.66 82.55 86.88 C 82.60 86.27 82.70 85.03 82.76 84.41 C 83.70 79.82 84.39 74.77 82.87 70.26 C 71.53 63.22 59.13 58.09 46.72 53.28 C 39.02 50.57 31.21 47.59 22.99 47.06 C 20.40 47.01 19.55 49.90 19.84 52.00 C 21.82 67.04 26.88 81.47 32.33 95.56 C 34.67 100.69 36.43 106.40 40.29 110.62 C 44.00 111.73 47.94 111.55 51.78 111.56 L 51.26 110.13 C 51.57 110.64 52.19 111.66 52.50 112.17 C 48.10 112.43 43.14 112.93 39.14 110.84 C 34.97 105.22 32.68 98.48 30.05 92.07 C 25.27 79.05 20.72 65.78 19.02 51.97 C 18.87 50.02 19.24 47.14 21.49 46.57 Z" />
<path fill="#f19db7" opacity="1.00" d=" M 148.09 54.09 C 156.80 50.84 165.60 47.36 174.90 46.27 C 177.10 45.85 180.22 46.91 180.15 49.58 C 180.53 54.80 179.16 59.93 178.01 64.99 C 175.72 74.01 172.85 82.89 169.55 91.60 C 167.07 97.86 164.72 104.27 161.01 109.94 C 160.43 111.04 159.21 111.62 158.04 111.85 C 154.31 112.40 150.51 112.61 146.75 112.21 C 146.57 111.98 146.21 111.52 146.03 111.29 C 146.40 111.34 147.13 111.44 147.50 111.50 C 151.45 111.54 155.61 111.82 159.39 110.46 C 162.89 106.18 164.76 100.83 166.97 95.82 C 171.27 84.99 175.03 73.91 177.73 62.56 C 178.65 58.13 179.84 53.58 179.17 49.04 C 178.66 46.68 175.67 47.00 173.85 47.24 C 161.41 49.31 149.71 54.33 138.15 59.18 C 130.72 62.56 123.19 65.88 116.37 70.42 C 115.12 74.95 115.87 79.84 116.48 84.44 C 116.48 84.80 116.49 85.52 116.49 85.88 C 114.70 82.98 115.11 79.30 114.93 76.02 C 115.04 73.79 114.56 71.05 116.31 69.32 C 126.34 63.15 137.22 58.54 148.09 54.09 Z" />
<path fill="#f19db7" opacity="1.00" d=" M 125.10 130.04 C 127.49 127.01 131.46 125.47 135.21 126.72 C 135.96 129.35 136.09 132.10 136.54 134.79 C 135.08 137.52 133.27 140.17 131.01 142.27 C 128.62 144.10 125.18 145.67 122.50 143.46 C 120.18 138.94 122.40 133.83 125.10 130.04 Z" />
</g>
<g id="#0e141bff">
<path fill="#0e141b" opacity="1.00" d=" M 19.84 52.00 C 19.55 49.90 20.40 47.01 22.99 47.06 C 31.21 47.59 39.02 50.57 46.72 53.28 C 59.13 58.09 71.53 63.22 82.87 70.26 C 84.39 74.77 83.70 79.82 82.76 84.41 C 71.13 77.22 58.92 70.98 46.38 65.54 C 44.72 64.89 43.13 64.01 41.35 63.72 C 42.09 67.20 43.43 70.54 44.29 73.96 C 41.08 72.15 37.83 70.39 34.32 69.21 C 38.63 83.35 45.09 96.73 51.26 110.13 L 51.78 111.56 C 47.94 111.55 44.00 111.73 40.29 110.62 C 36.43 106.40 34.67 100.69 32.33 95.56 C 26.88 81.47 21.82 67.04 19.84 52.00 Z" />
<path fill="#0e141b" opacity="1.00" d=" M 173.85 47.24 C 175.67 47.00 178.66 46.68 179.17 49.04 C 179.84 53.58 178.65 58.13 177.73 62.56 C 175.03 73.91 171.27 84.99 166.97 95.82 C 164.76 100.83 162.89 106.18 159.39 110.46 C 155.61 111.82 151.45 111.54 147.50 111.50 C 153.94 97.67 160.57 83.82 165.15 69.24 C 161.49 70.48 157.98 72.15 154.77 74.30 C 156.15 70.86 157.18 67.30 158.08 63.71 C 143.51 68.97 129.82 76.58 116.48 84.44 C 115.87 79.84 115.12 74.95 116.37 70.42 C 123.19 65.88 130.72 62.56 138.15 59.18 C 149.71 54.33 161.41 49.31 173.85 47.24 Z" />
</g>
<g id="#fff361ff">
<path fill="#fff361" opacity="1.00" d=" M 41.35 63.72 C 43.13 64.01 44.72 64.89 46.38 65.54 C 58.92 70.98 71.13 77.22 82.76 84.41 C 82.70 85.03 82.60 86.27 82.55 86.88 C 81.74 89.48 81.22 92.15 80.47 94.75 C 92.52 89.69 107.04 88.97 118.89 95.00 C 118.24 91.92 117.51 88.86 116.49 85.88 C 116.49 85.52 116.48 84.80 116.48 84.44 C 129.82 76.58 143.51 68.97 158.08 63.71 C 157.18 67.30 156.15 70.86 154.77 74.30 C 157.98 72.15 161.49 70.48 165.15 69.24 C 160.57 83.82 153.94 97.67 147.50 111.50 C 147.13 111.44 146.40 111.34 146.03 111.29 C 142.59 110.80 139.09 110.68 135.70 109.87 C 140.03 117.38 140.77 127.07 136.54 134.79 C 136.09 132.10 135.96 129.35 135.21 126.72 C 131.46 125.47 127.49 127.01 125.10 130.04 C 122.40 133.83 120.18 138.94 122.50 143.46 C 125.18 145.67 128.62 144.10 131.01 142.27 C 123.24 149.52 112.64 153.46 102.05 153.57 C 91.58 153.73 80.58 152.10 71.71 146.19 C 73.55 145.89 75.43 145.76 77.23 145.24 C 78.07 141.59 78.27 137.24 75.79 134.17 C 73.18 130.50 69.52 126.33 64.48 127.54 C 60.40 130.07 63.80 134.57 63.73 138.16 C 58.35 129.74 59.45 118.55 63.84 109.95 C 60.36 110.59 56.80 110.80 53.32 111.33 C 53.11 111.54 52.71 111.96 52.50 112.17 C 52.19 111.66 51.57 110.64 51.26 110.13 C 45.09 96.73 38.63 83.35 34.32 69.21 C 37.83 70.39 41.08 72.15 44.29 73.96 C 43.43 70.54 42.09 67.20 41.35 63.72 Z" />
</g>
<g id="#f09cb4ff">
<path fill="#f09cb4" opacity="1.00" d=" M 64.48 127.54 C 69.52 126.33 73.18 130.50 75.79 134.17 C 78.27 137.24 78.07 141.59 77.23 145.24 C 75.43 145.76 73.55 145.89 71.71 146.19 C 68.42 144.29 65.56 141.49 63.73 138.16 C 63.80 134.57 60.40 130.07 64.48 127.54 Z" />
</g>
</svg>
