<?xml version="1.0" encoding="UTF-8" ?>
<!DOCTYPE svg PUBLIC "-//W3C//DTD SVG 1.1//EN" "http://www.w3.org/Graphics/SVG/1.1/DTD/svg11.dtd">
<svg width="200pt" height="200pt" viewBox="0 0 200 200" version="1.1" xmlns="http://www.w3.org/2000/svg">
<g id="#000000ff">
<path fill="#000000" opacity="1.00" d=" M 16.79 31.75 C 20.67 29.88 25.00 31.91 28.64 33.45 C 49.92 43.33 66.10 61.91 76.64 82.54 C 91.58 77.01 108.45 76.73 123.40 82.36 C 134.17 61.60 150.53 42.80 172.17 33.09 C 175.73 31.62 180.24 29.73 183.80 32.14 C 186.98 34.59 186.04 39.10 185.19 42.45 C 182.07 52.70 176.79 62.12 171.22 71.21 C 164.90 81.73 156.41 90.78 147.33 98.96 C 155.23 108.79 158.97 122.04 156.37 134.48 C 154.08 146.14 145.86 156.01 135.56 161.64 C 120.01 170.27 101.28 171.58 84.02 168.49 C 69.86 165.80 55.49 158.76 47.90 146.01 C 39.22 131.39 42.31 111.93 52.71 99.00 C 43.07 90.35 34.19 80.66 27.68 69.40 C 22.47 60.72 17.51 51.73 14.68 41.96 C 13.78 38.57 13.17 33.79 16.79 31.75 M 17.58 39.27 C 19.93 49.16 25.05 58.12 30.18 66.80 C 32.47 70.32 34.30 74.24 37.47 77.08 C 43.88 84.75 50.74 92.09 58.48 98.46 C 46.56 110.25 42.59 130.62 52.06 145.01 C 60.07 156.93 74.37 162.78 88.14 164.76 C 104.15 166.87 121.44 165.18 135.39 156.46 C 144.67 150.74 151.57 140.87 152.49 129.86 C 153.85 118.25 148.98 106.64 140.95 98.38 C 148.67 92.15 155.44 84.85 161.78 77.25 C 163.32 75.93 164.58 74.31 165.66 72.59 C 170.78 64.49 175.72 56.22 179.30 47.31 C 180.94 43.34 182.29 39.17 182.14 34.82 C 174.05 33.79 167.25 39.62 160.59 43.33 L 160.82 43.94 C 145.34 54.92 133.18 70.38 125.28 87.58 C 109.24 80.41 90.30 80.64 74.31 87.80 C 66.30 70.62 54.28 55.05 38.74 44.06 L 38.96 43.54 C 33.07 39.80 27.02 35.56 19.97 34.51 C 17.17 34.07 16.98 37.32 17.58 39.27 Z" />
</g>
<g id="#959289ff">
<path fill="#959289" opacity="1.00" d=" M 17.58 39.27 C 16.98 37.32 17.17 34.07 19.97 34.51 C 27.02 35.56 33.07 39.80 38.96 43.54 L 38.74 44.06 C 37.22 47.49 36.04 51.13 35.92 54.90 C 35.55 62.32 35.76 69.83 37.47 77.08 C 34.30 74.24 32.47 70.32 30.18 66.80 C 25.05 58.12 19.93 49.16 17.58 39.27 M 18.53 35.69 C 18.85 38.75 19.29 41.83 20.48 44.68 C 24.20 54.33 29.30 63.41 35.05 71.99 C 35.14 62.66 33.45 52.83 37.33 44.00 C 31.53 40.39 25.55 36.25 18.53 35.69 Z" />
</g>
<g id="#908d86ff">
<path fill="#908d86" opacity="1.00" d=" M 160.59 43.33 C 167.25 39.62 174.05 33.79 182.14 34.82 C 182.29 39.17 180.94 43.34 179.30 47.31 C 175.72 56.22 170.78 64.49 165.66 72.59 C 164.58 74.31 163.32 75.93 161.78 77.25 C 162.71 74.12 163.15 70.87 163.43 67.63 C 164.10 62.91 164.24 58.11 163.41 53.41 C 163.04 50.13 161.97 47.00 160.82 43.94 L 160.59 43.33 M 162.07 44.04 C 165.84 53.00 165.11 62.98 164.00 72.41 C 168.31 66.39 171.87 59.87 175.18 53.25 C 177.89 47.73 180.28 41.96 181.17 35.83 C 174.00 36.00 167.97 40.46 162.07 44.04 Z" />
</g>
<g id="#3a2c27ff">
<path fill="#3a2c27" opacity="1.00" d=" M 18.53 35.69 C 25.55 36.25 31.53 40.39 37.33 44.00 C 33.45 52.83 35.14 62.66 35.05 71.99 C 29.30 63.41 24.20 54.33 20.48 44.68 C 19.29 41.83 18.85 38.75 18.53 35.69 Z" />
<path fill="#3a2c27" opacity="1.00" d=" M 162.07 44.04 C 167.97 40.46 174.00 36.00 181.17 35.83 C 180.28 41.96 177.89 47.73 175.18 53.25 C 171.87 59.87 168.31 66.39 164.00 72.41 C 165.11 62.98 165.84 53.00 162.07 44.04 Z" />
</g>
<g id="#f3d823ff">
<path fill="#f3d823" opacity="1.00" d=" M 125.28 87.58 C 133.18 70.38 145.34 54.92 160.82 43.94 C 161.97 47.00 163.04 50.13 163.41 53.41 C 163.11 58.14 163.11 62.89 163.43 67.63 C 163.15 70.87 162.71 74.12 161.78 77.25 C 155.44 84.85 148.67 92.15 140.95 98.38 C 148.98 106.64 153.85 118.25 152.49 129.86 C 151.57 140.87 144.67 150.74 135.39 156.46 C 121.44 165.18 104.15 166.87 88.14 164.76 C 74.37 162.78 60.07 156.93 52.06 145.01 C 42.59 130.62 46.56 110.25 58.48 98.46 C 50.74 92.09 43.88 84.75 37.47 77.08 C 35.76 69.83 35.55 62.32 35.92 54.90 C 36.04 51.13 37.22 47.49 38.74 44.06 C 54.28 55.05 66.30 70.62 74.31 87.80 C 90.30 80.64 109.24 80.41 125.28 87.58 M 141.37 125.63 C 136.64 127.59 133.65 132.26 131.91 136.88 C 130.61 140.81 130.24 145.63 132.74 149.17 C 134.42 151.55 137.90 151.61 140.22 150.19 C 144.39 147.66 146.92 143.13 148.41 138.61 C 149.41 134.90 149.91 130.57 147.90 127.11 C 146.58 124.88 143.55 124.77 141.37 125.63 M 54.40 127.51 C 52.08 129.18 51.70 132.33 51.73 134.98 C 51.98 141.06 55.07 147.47 60.65 150.32 C 63.24 151.73 66.80 150.77 68.01 147.99 C 71.08 141.10 68.20 132.18 61.89 128.14 C 59.72 126.74 56.71 126.00 54.40 127.51 Z" />
</g>
<g id="#decf69ff">
<path fill="#decf69" opacity="1.00" d=" M 163.41 53.41 C 164.24 58.11 164.10 62.91 163.43 67.63 C 163.11 62.89 163.11 58.14 163.41 53.41 Z" />
</g>
<g id="#d61518ff">
<path fill="#d61518" opacity="1.00" d=" M 141.37 125.63 C 143.55 124.77 146.58 124.88 147.90 127.11 C 149.91 130.57 149.41 134.90 148.41 138.61 C 146.92 143.13 144.39 147.66 140.22 150.19 C 137.90 151.61 134.42 151.55 132.74 149.17 C 130.24 145.63 130.61 140.81 131.91 136.88 C 133.65 132.26 136.64 127.59 141.37 125.63 Z" />
<path fill="#d61518" opacity="1.00" d=" M 54.40 127.51 C 56.71 126.00 59.72 126.74 61.89 128.14 C 68.20 132.18 71.08 141.10 68.01 147.99 C 66.80 150.77 63.24 151.73 60.65 150.32 C 55.07 147.47 51.98 141.06 51.73 134.98 C 51.70 132.33 52.08 129.18 54.40 127.51 Z" />
</g>
</svg>
