<?xml version="1.0" encoding="UTF-8" ?>
<!DOCTYPE svg PUBLIC "-//W3C//DTD SVG 1.1//EN" "http://www.w3.org/Graphics/SVG/1.1/DTD/svg11.dtd">
<svg width="200pt" height="200pt" viewBox="0 0 200 200" version="1.1" xmlns="http://www.w3.org/2000/svg">
<g id="#000000ff">
<path fill="#000000" opacity="1.00" d=" M 31.75 40.05 C 33.60 33.03 39.72 27.41 46.83 26.05 C 51.68 25.70 56.89 25.30 61.36 27.59 C 66.02 29.69 69.79 33.39 72.44 37.72 C 76.89 38.35 81.39 38.64 85.83 39.36 C 88.72 39.78 90.46 43.41 88.86 45.90 C 86.43 49.25 83.56 52.26 80.91 55.44 C 82.85 59.69 84.79 63.95 87.00 68.07 C 89.84 69.25 93.26 68.57 96.19 69.68 C 98.62 70.60 99.64 73.93 98.18 76.06 C 96.76 78.08 95.05 79.86 93.49 81.77 C 96.14 87.27 98.79 92.77 101.43 98.27 C 104.04 93.36 106.27 88.26 108.55 83.18 C 106.46 80.72 104.17 78.41 102.37 75.72 C 101.04 73.32 102.59 69.91 105.32 69.43 C 108.78 68.73 112.34 68.71 115.80 67.99 C 117.37 64.13 119.43 60.49 120.89 56.58 C 117.96 53.32 115.12 49.98 112.36 46.58 C 110.11 44.18 111.69 39.78 114.95 39.36 C 120.05 38.56 125.21 38.19 130.33 37.49 C 134.48 32.05 140.98 28.30 147.90 28.23 C 156.37 27.91 164.65 33.22 167.99 41.00 C 171.13 48.09 170.88 57.31 165.37 63.18 C 171.99 72.95 176.57 84.20 177.93 95.95 C 178.29 101.97 178.26 108.01 177.96 114.03 C 176.02 131.87 166.92 148.67 153.55 160.56 C 141.53 171.35 126.07 178.18 110.04 180.00 C 99.65 180.34 89.02 180.72 78.99 177.51 C 53.40 170.37 32.06 149.14 25.68 123.23 C 23.32 115.04 23.80 106.45 23.93 98.04 C 24.76 85.11 30.01 72.85 37.15 62.18 C 31.76 56.35 29.46 47.73 31.75 40.05 M 38.18 37.22 C 35.14 41.90 34.90 48.05 36.88 53.19 C 38.15 56.71 40.85 59.40 43.02 62.37 C 40.13 66.21 37.25 70.14 35.33 74.57 C 27.43 90.27 25.88 109.08 31.21 125.84 C 31.76 127.60 32.27 129.37 32.77 131.14 C 33.64 132.24 34.09 133.58 34.63 134.86 C 40.22 146.77 49.29 156.90 60.23 164.15 L 60.32 164.07 C 74.12 173.53 91.40 177.44 107.99 175.94 C 113.28 176.17 118.03 173.83 123.20 173.32 L 123.92 172.64 C 137.05 168.60 149.09 160.65 157.66 149.89 C 169.55 136.41 175.25 117.93 173.89 100.07 C 173.55 96.91 173.86 93.57 172.48 90.61 C 170.48 80.76 166.11 71.16 159.70 63.39 C 161.15 61.30 162.82 59.36 164.18 57.21 C 166.74 50.93 165.36 43.21 160.74 38.24 C 157.53 34.73 152.77 32.67 148.00 32.87 C 141.92 33.00 136.19 36.63 133.18 41.86 C 127.45 42.51 121.71 43.18 115.98 43.85 C 119.37 48.11 123.23 52.00 126.37 56.47 C 123.79 61.80 121.40 67.21 118.77 72.52 C 114.68 72.86 110.62 73.39 106.55 73.86 C 109.06 76.82 111.56 79.78 114.07 82.73 C 109.84 91.50 106.10 100.53 101.53 109.12 C 97.20 99.66 92.27 90.45 88.21 80.88 C 90.04 78.65 92.83 76.58 93.79 73.95 C 90.91 73.20 87.47 73.03 84.37 73.01 C 81.25 67.35 78.75 61.38 75.76 55.66 C 77.75 51.10 82.15 48.05 84.76 43.82 C 79.65 43.24 74.54 42.63 69.42 42.05 C 66.66 35.49 60.13 30.58 52.98 30.09 C 47.29 29.73 41.25 32.29 38.18 37.22 Z" />
</g>
<g id="#ffffffff">
<path fill="#ffffff" opacity="1.00" d=" M 38.18 37.22 C 41.25 32.29 47.29 29.73 52.98 30.09 C 60.13 30.58 66.66 35.49 69.42 42.05 C 71.36 46.67 73.68 51.11 75.76 55.66 C 78.75 61.38 81.25 67.35 84.37 73.01 C 85.48 75.72 86.75 78.34 88.21 80.88 C 92.27 90.45 97.20 99.66 101.53 109.12 C 106.10 100.53 109.84 91.50 114.07 82.73 C 115.69 79.35 117.23 75.93 118.77 72.52 C 121.40 67.21 123.79 61.80 126.37 56.47 C 128.68 51.61 130.73 46.64 133.18 41.86 C 136.19 36.63 141.92 33.00 148.00 32.87 C 152.77 32.67 157.53 34.73 160.74 38.24 C 165.36 43.21 166.74 50.93 164.18 57.21 C 162.82 59.36 161.15 61.30 159.70 63.39 C 142.42 86.22 125.20 109.10 107.89 131.91 C 105.00 135.88 98.85 134.20 96.45 130.55 C 78.61 107.85 60.83 85.10 43.02 62.37 C 40.85 59.40 38.15 56.71 36.88 53.19 C 34.90 48.05 35.14 41.90 38.18 37.22 Z" />
<path fill="#ffffff" opacity="1.00" d=" M 36.51 73.23 C 43.38 75.95 49.76 80.53 53.14 87.28 C 58.57 97.08 57.04 110.24 49.44 118.49 C 45.01 123.72 38.60 126.78 32.02 128.26 C 31.81 127.65 31.41 126.45 31.21 125.84 C 25.88 109.08 27.43 90.27 35.33 74.57 C 35.62 74.23 36.21 73.57 36.51 73.23 Z" />
<path fill="#ffffff" opacity="1.00" d=" M 157.09 98.02 C 161.88 95.48 167.39 95.13 172.66 94.53 C 173.40 96.29 173.79 98.17 173.89 100.07 C 175.25 117.93 169.55 136.41 157.66 149.89 L 157.73 148.79 C 146.91 143.87 139.58 131.81 141.31 119.89 C 142.34 110.50 148.67 102.12 157.09 98.02 Z" />
<path fill="#ffffff" opacity="1.00" d=" M 71.80 154.62 C 80.85 150.14 92.23 150.72 100.70 156.23 C 107.38 160.39 112.20 167.47 113.47 175.25 C 111.64 175.49 109.82 175.75 107.99 175.94 C 91.40 177.44 74.12 173.53 60.32 164.07 C 63.67 160.39 67.20 156.70 71.80 154.62 Z" />
</g>
<g id="#c9cbcbff">
<path fill="#c9cbcb" opacity="1.00" d=" M 69.42 42.05 C 74.54 42.63 79.65 43.24 84.76 43.82 C 82.15 48.05 77.75 51.10 75.76 55.66 C 73.68 51.11 71.36 46.67 69.42 42.05 Z" />
</g>
<g id="#c8cac9ff">
<path fill="#c8cac9" opacity="1.00" d=" M 115.98 43.85 C 121.71 43.18 127.45 42.51 133.18 41.86 C 130.73 46.64 128.68 51.61 126.37 56.47 C 123.23 52.00 119.37 48.11 115.98 43.85 Z" />
<path fill="#c8cac9" opacity="1.00" d=" M 84.37 73.01 C 87.47 73.03 90.91 73.20 93.79 73.95 C 92.83 76.58 90.04 78.65 88.21 80.88 C 86.75 78.34 85.48 75.72 84.37 73.01 Z" />
</g>
<g id="#ff0100ff">
<path fill="#ff0100" opacity="1.00" d=" M 35.33 74.57 C 37.25 70.14 40.13 66.21 43.02 62.37 C 60.83 85.10 78.61 107.85 96.45 130.55 C 98.85 134.20 105.00 135.88 107.89 131.91 C 125.20 109.10 142.42 86.22 159.70 63.39 C 166.11 71.16 170.48 80.76 172.48 90.61 C 173.86 93.57 173.55 96.91 173.89 100.07 C 173.79 98.17 173.40 96.29 172.66 94.53 C 167.39 95.13 161.88 95.48 157.09 98.02 C 148.67 102.12 142.34 110.50 141.31 119.89 C 139.58 131.81 146.91 143.87 157.73 148.79 L 157.66 149.89 C 149.09 160.65 137.05 168.60 123.92 172.64 L 123.20 173.32 C 118.03 173.83 113.28 176.17 107.99 175.94 C 109.82 175.75 111.64 175.49 113.47 175.25 C 112.20 167.47 107.38 160.39 100.70 156.23 C 92.23 150.72 80.85 150.14 71.80 154.62 C 67.20 156.70 63.67 160.39 60.32 164.07 L 60.23 164.15 C 49.29 156.90 40.22 146.77 34.63 134.86 C 34.09 133.58 33.64 132.24 32.77 131.14 C 32.27 129.37 31.76 127.60 31.21 125.84 C 31.41 126.45 31.81 127.65 32.02 128.26 C 38.60 126.78 45.01 123.72 49.44 118.49 C 57.04 110.24 58.57 97.08 53.14 87.28 C 49.76 80.53 43.38 75.95 36.51 73.23 C 36.21 73.57 35.62 74.23 35.33 74.57 Z" />
</g>
<g id="#c9c9c9ff">
<path fill="#c9c9c9" opacity="1.00" d=" M 106.55 73.86 C 110.62 73.39 114.68 72.86 118.77 72.52 C 117.23 75.93 115.69 79.35 114.07 82.73 C 111.56 79.78 109.06 76.82 106.55 73.86 Z" />
</g>
</svg>
