<?xml version="1.0" encoding="UTF-8" ?>
<!DOCTYPE svg PUBLIC "-//W3C//DTD SVG 1.1//EN" "http://www.w3.org/Graphics/SVG/1.1/DTD/svg11.dtd">
<svg width="200pt" height="200pt" viewBox="0 0 200 200" version="1.1" xmlns="http://www.w3.org/2000/svg">
<g id="#000000ff">
<path fill="#000000" opacity="1.00" d=" M 88.66 23.53 C 86.35 20.70 89.53 16.00 93.03 17.12 C 104.10 19.87 114.51 28.11 117.33 39.51 C 118.66 44.43 117.73 49.62 115.51 54.13 C 125.55 55.96 135.21 60.32 142.72 67.31 C 150.76 74.28 156.49 83.68 165.32 89.74 C 169.30 92.60 174.29 92.80 178.99 92.53 C 182.45 92.25 184.18 96.82 182.13 99.32 C 176.45 107.96 166.82 113.44 156.95 115.93 C 159.90 119.95 162.78 124.15 166.74 127.25 C 168.61 128.74 170.82 129.75 172.61 131.34 C 174.61 133.64 173.09 137.67 170.07 138.09 C 163.68 139.69 157.00 139.04 150.53 138.34 C 149.13 144.05 147.54 149.71 145.53 155.24 C 148.08 157.84 151.25 159.64 154.12 161.84 C 156.00 163.12 156.27 165.99 154.87 167.72 C 153.80 169.19 151.85 169.34 150.22 169.60 C 142.00 170.65 133.33 171.07 125.54 167.76 C 123.70 170.53 122.11 173.88 118.92 175.32 C 116.69 176.18 114.94 174.31 113.35 173.09 C 106.39 178.72 98.11 183.30 89.02 183.96 C 84.46 184.35 80.42 181.67 77.05 178.92 C 70.63 173.52 65.37 166.88 60.88 159.83 C 56.69 165.32 52.68 170.97 48.11 176.14 C 45.71 178.96 40.63 176.54 41.02 172.95 C 41.87 169.84 43.73 167.10 44.55 163.97 C 47.05 155.06 47.76 145.78 48.15 136.58 C 43.91 139.02 39.71 141.70 34.98 143.09 C 32.56 143.88 29.63 141.60 30.02 139.03 C 33.18 126.43 31.92 112.79 37.84 100.89 C 34.11 102.31 30.16 103.54 27.09 106.21 C 25.51 107.33 24.16 109.27 22.01 109.16 C 19.43 109.13 17.45 106.46 18.09 103.97 C 19.60 90.86 27.51 78.55 39.07 72.08 C 44.20 69.10 50.02 67.54 55.89 66.87 C 51.74 56.55 51.98 44.58 56.51 34.44 C 57.49 31.85 61.15 31.00 63.14 32.93 C 64.84 35.31 65.76 38.17 67.61 40.46 C 74.35 49.08 85.23 55.07 96.40 53.61 C 98.20 47.45 99.88 40.65 97.33 34.44 C 95.70 29.92 91.79 26.95 88.66 23.53 M 91.98 21.07 C 96.46 25.12 100.74 29.91 102.09 35.98 C 103.71 43.27 101.76 50.72 99.28 57.58 C 94.05 58.01 88.63 58.35 83.57 56.66 C 73.55 53.47 64.85 46.10 60.26 36.61 C 55.23 47.35 55.39 61.71 63.58 70.89 C 53.60 70.38 43.16 72.91 35.50 79.58 C 27.86 85.79 23.36 95.16 22.00 104.80 C 29.14 98.17 39.02 95.57 48.53 94.91 C 45.46 97.48 42.51 100.37 40.96 104.13 C 35.76 115.08 37.22 127.58 34.14 139.06 C 40.74 136.52 46.64 132.55 52.22 128.26 C 52.30 143.07 51.63 158.30 45.95 172.19 C 51.30 165.30 56.79 158.51 61.66 151.27 C 64.19 159.44 70.11 166.04 75.82 172.20 C 79.87 176.05 84.80 181.02 90.95 179.49 C 101.98 177.38 111.72 170.29 118.56 161.59 C 118.32 164.83 118.03 168.08 117.76 171.32 C 120.23 168.48 122.00 165.16 123.66 161.82 C 131.68 167.50 141.98 166.39 151.16 165.21 C 147.89 161.94 141.95 160.17 141.48 154.97 C 143.23 147.80 145.82 140.83 147.31 133.57 C 154.49 134.81 161.86 135.39 169.07 134.10 C 160.72 129.37 155.37 121.25 150.11 113.51 L 150.54 113.00 L 150.56 112.47 C 161.67 111.74 172.39 105.90 178.82 96.79 C 175.00 96.72 171.02 96.99 167.39 95.51 C 160.61 92.94 155.71 87.32 150.92 82.12 C 145.41 75.97 139.95 69.56 132.88 65.13 C 124.72 60.07 115.08 57.60 105.51 57.62 C 107.90 56.00 110.41 54.30 111.81 51.68 C 114.85 46.54 113.84 39.96 110.96 34.98 C 106.87 27.98 99.65 23.32 91.98 21.07 Z" />
</g>
<g id="#934f22ff">
<path fill="#934f22" opacity="1.00" d=" M 91.98 21.07 C 99.65 23.32 106.87 27.98 110.96 34.98 C 113.84 39.96 114.85 46.54 111.81 51.68 C 110.41 54.30 107.90 56.00 105.51 57.62 C 115.08 57.60 124.72 60.07 132.88 65.13 C 139.95 69.56 145.41 75.97 150.92 82.12 C 155.71 87.32 160.61 92.94 167.39 95.51 C 171.02 96.99 175.00 96.72 178.82 96.79 C 172.39 105.90 161.67 111.74 150.56 112.47 C 150.34 108.42 153.44 105.00 152.91 100.93 C 152.49 96.06 149.02 92.31 145.84 88.93 C 143.75 92.30 141.42 95.87 141.46 100.00 C 141.41 103.16 143.38 105.79 144.87 108.41 C 142.18 107.10 139.48 105.84 136.78 104.56 C 137.22 101.19 138.19 97.57 136.71 94.31 C 134.83 89.67 130.45 86.85 126.22 84.59 C 125.83 85.63 125.45 86.68 125.09 87.74 C 124.29 90.00 123.50 92.28 122.90 94.60 C 120.17 88.51 115.39 83.28 109.24 80.55 C 107.59 85.50 107.80 90.86 110.53 95.38 C 110.44 96.23 110.36 97.08 110.27 97.94 C 105.38 99.57 100.93 102.28 97.32 105.98 C 101.98 107.60 107.00 109.01 111.95 107.85 C 116.37 107.12 119.91 104.19 123.14 101.29 C 125.58 102.16 128.01 103.03 130.46 103.87 C 126.03 104.71 121.33 105.74 118.09 109.13 C 115.96 111.11 114.78 113.82 113.53 116.39 C 122.57 116.12 132.16 113.92 138.70 107.24 C 141.12 108.38 143.53 109.51 145.98 110.58 C 142.21 110.72 138.16 110.66 134.89 112.83 C 131.68 114.58 129.92 117.90 128.35 121.05 C 132.91 121.51 137.71 121.91 142.07 120.14 C 145.42 118.90 147.89 116.19 150.11 113.51 C 155.37 121.25 160.72 129.37 169.07 134.10 C 161.86 135.39 154.49 134.81 147.31 133.57 C 145.82 140.83 143.23 147.80 141.48 154.97 C 141.95 160.17 147.89 161.94 151.16 165.21 C 141.98 166.39 131.68 167.50 123.66 161.82 C 122.00 165.16 120.23 168.48 117.76 171.32 C 118.03 168.08 118.32 164.83 118.56 161.59 C 119.10 154.13 119.02 146.64 118.67 139.18 C 113.63 137.19 108.55 135.07 104.21 131.77 C 102.51 130.55 100.95 129.09 99.07 128.16 C 93.97 128.89 89.54 131.74 84.98 133.93 C 88.73 130.74 92.86 128.01 97.35 125.95 C 95.13 123.05 93.17 119.95 91.54 116.68 C 86.30 129.53 74.07 138.07 61.26 142.31 C 62.31 139.37 63.26 136.39 64.12 133.39 C 61.97 133.06 59.82 132.75 57.67 132.48 C 58.78 138.79 59.96 145.10 61.66 151.27 C 56.79 158.51 51.30 165.30 45.95 172.19 C 51.63 158.30 52.30 143.07 52.22 128.26 C 46.64 132.55 40.74 136.52 34.14 139.06 C 37.22 127.58 35.76 115.08 40.96 104.13 C 42.51 100.37 45.46 97.48 48.53 94.91 C 39.02 95.57 29.14 98.17 22.00 104.80 C 23.36 95.16 27.86 85.79 35.50 79.58 C 43.16 72.91 53.60 70.38 63.58 70.89 C 55.39 61.71 55.23 47.35 60.26 36.61 C 64.85 46.10 73.55 53.47 83.57 56.66 C 88.63 58.35 94.05 58.01 99.28 57.58 C 101.76 50.72 103.71 43.27 102.09 35.98 C 100.74 29.91 96.46 25.12 91.98 21.07 M 91.80 85.00 C 92.64 88.72 95.87 91.05 98.55 93.43 C 96.30 93.17 94.05 92.93 91.80 92.67 C 90.87 90.03 90.10 87.06 87.69 85.34 C 85.56 83.42 82.61 83.22 79.90 82.93 C 80.04 86.79 82.42 89.80 85.53 91.87 C 82.09 92.53 78.98 94.21 76.81 96.99 C 79.35 97.56 82.02 98.28 84.61 97.55 C 87.23 96.93 89.24 95.02 91.27 93.38 C 93.05 93.64 94.83 93.91 96.61 94.17 C 92.29 95.50 87.27 97.74 86.63 102.83 C 92.98 102.69 99.70 101.05 104.11 96.16 C 105.40 96.27 107.99 96.50 109.28 96.61 C 107.82 95.83 106.37 95.06 104.92 94.28 C 105.36 86.82 98.38 82.11 92.49 79.16 C 92.07 81.06 91.12 83.03 91.80 85.00 M 56.02 124.89 C 56.37 126.48 56.72 128.07 57.07 129.66 C 59.57 130.34 62.00 131.24 64.37 132.27 C 65.79 125.13 67.20 117.97 68.07 110.74 C 64.63 115.92 60.58 120.66 56.02 124.89 M 132.27 129.12 C 131.50 130.62 130.75 132.13 130.02 133.65 C 133.35 137.52 137.30 140.83 141.72 143.40 C 143.22 140.09 143.92 136.51 144.09 132.89 C 140.10 131.78 136.20 130.40 132.27 129.12 M 129.10 142.17 C 128.26 146.87 127.01 151.48 125.62 156.04 C 132.13 154.32 137.66 150.03 141.20 144.34 C 137.15 143.67 133.12 142.97 129.10 142.17 Z" />
</g>
<g id="#c1ab19ff">
<path fill="#c1ab19" opacity="1.00" d=" M 91.80 85.00 C 91.12 83.03 92.07 81.06 92.49 79.16 C 98.38 82.11 105.36 86.82 104.92 94.28 C 106.37 95.06 107.82 95.83 109.28 96.61 C 107.99 96.50 105.40 96.27 104.11 96.16 C 99.70 101.05 92.98 102.69 86.63 102.83 C 87.27 97.74 92.29 95.50 96.61 94.17 C 94.83 93.91 93.05 93.64 91.27 93.38 C 89.24 95.02 87.23 96.93 84.61 97.55 C 82.02 98.28 79.35 97.56 76.81 96.99 C 78.98 94.21 82.09 92.53 85.53 91.87 C 82.42 89.80 80.04 86.79 79.90 82.93 C 82.61 83.22 85.56 83.42 87.69 85.34 C 90.10 87.06 90.87 90.03 91.80 92.67 C 94.05 92.93 96.30 93.17 98.55 93.43 C 95.87 91.05 92.64 88.72 91.80 85.00 Z" />
</g>
<g id="#c2ab1bff">
<path fill="#c2ab1b" opacity="1.00" d=" M 109.24 80.55 C 115.39 83.28 120.17 88.51 122.90 94.60 C 122.97 96.33 123.04 98.06 123.12 99.79 C 124.89 100.36 126.67 100.94 128.44 101.54 C 125.28 97.65 124.29 92.64 125.09 87.74 C 125.45 86.68 125.83 85.63 126.22 84.59 C 130.45 86.85 134.83 89.67 136.71 94.31 C 138.19 97.57 137.22 101.19 136.78 104.56 C 139.48 105.84 142.18 107.10 144.87 108.41 C 143.38 105.79 141.41 103.16 141.46 100.00 C 141.42 95.87 143.75 92.30 145.84 88.93 C 149.02 92.31 152.49 96.06 152.91 100.93 C 153.44 105.00 150.34 108.42 150.56 112.47 L 150.54 113.00 L 150.11 113.51 C 147.89 116.19 145.42 118.90 142.07 120.14 C 137.71 121.91 132.91 121.51 128.35 121.05 C 129.92 117.90 131.68 114.58 134.89 112.83 C 138.16 110.66 142.21 110.72 145.98 110.58 C 143.53 109.51 141.12 108.38 138.70 107.24 C 132.16 113.92 122.57 116.12 113.53 116.39 C 114.78 113.82 115.96 111.11 118.09 109.13 C 121.33 105.74 126.03 104.71 130.46 103.87 C 128.01 103.03 125.58 102.16 123.14 101.29 C 119.91 104.19 116.37 107.12 111.95 107.85 C 107.00 109.01 101.98 107.60 97.32 105.98 C 100.93 102.28 105.38 99.57 110.27 97.94 C 110.36 97.08 110.44 96.23 110.53 95.38 C 107.80 90.86 107.59 85.50 109.24 80.55 Z" />
</g>
<g id="#8e5c0dff">
<path fill="#8e5c0d" opacity="1.00" d=" M 122.90 94.60 C 123.50 92.28 124.29 90.00 125.09 87.74 C 124.29 92.64 125.28 97.65 128.44 101.54 C 126.67 100.94 124.89 100.36 123.12 99.79 C 123.04 98.06 122.97 96.33 122.90 94.60 Z" />
</g>
<g id="#fbe7caff">
<path fill="#fbe7ca" opacity="1.00" d=" M 56.02 124.89 C 60.58 120.66 64.63 115.92 68.07 110.74 C 67.20 117.97 65.79 125.13 64.37 132.27 C 62.00 131.24 59.57 130.34 57.07 129.66 C 56.72 128.07 56.37 126.48 56.02 124.89 Z" />
</g>
<g id="#fde6ccff">
<path fill="#fde6cc" opacity="1.00" d=" M 91.54 116.68 C 93.17 119.95 95.13 123.05 97.35 125.95 C 92.86 128.01 88.73 130.74 84.98 133.93 C 89.54 131.74 93.97 128.89 99.07 128.16 C 100.95 129.09 102.51 130.55 104.21 131.77 C 108.55 135.07 113.63 137.19 118.67 139.18 C 119.02 146.64 119.10 154.13 118.56 161.59 C 111.72 170.29 101.98 177.38 90.95 179.49 C 84.80 181.02 79.87 176.05 75.82 172.20 C 70.11 166.04 64.19 159.44 61.66 151.27 C 59.96 145.10 58.78 138.79 57.67 132.48 C 59.82 132.75 61.97 133.06 64.12 133.39 C 63.26 136.39 62.31 139.37 61.26 142.31 C 74.07 138.07 86.30 129.53 91.54 116.68 Z" />
</g>
<g id="#fde6cdff">
<path fill="#fde6cd" opacity="1.00" d=" M 132.27 129.12 C 136.20 130.40 140.10 131.78 144.09 132.89 C 143.92 136.51 143.22 140.09 141.72 143.40 C 137.30 140.83 133.35 137.52 130.02 133.65 C 130.75 132.13 131.50 130.62 132.27 129.12 Z" />
</g>
<g id="#fbe8cdff">
<path fill="#fbe8cd" opacity="1.00" d=" M 129.10 142.17 C 133.12 142.97 137.15 143.67 141.20 144.34 C 137.66 150.03 132.13 154.32 125.62 156.04 C 127.01 151.48 128.26 146.87 129.10 142.17 Z" />
</g>
</svg>
