<?xml version="1.0" encoding="UTF-8" ?>
<!DOCTYPE svg PUBLIC "-//W3C//DTD SVG 1.1//EN" "http://www.w3.org/Graphics/SVG/1.1/DTD/svg11.dtd">
<svg width="200pt" height="200pt" viewBox="0 0 200 200" version="1.1" xmlns="http://www.w3.org/2000/svg">
<g id="#000000ff">
<path fill="#000000" opacity="1.00" d=" M 85.06 30.47 C 91.23 28.68 97.62 26.11 104.14 27.42 C 111.34 28.90 118.30 31.35 125.16 33.93 C 135.51 37.98 145.78 42.59 154.80 49.15 C 159.28 52.60 164.08 56.87 164.66 62.86 C 165.70 74.29 162.44 85.50 160.60 96.68 C 169.09 101.83 176.13 109.06 182.04 116.98 C 184.00 119.18 182.86 123.16 179.92 123.77 C 176.57 124.13 173.24 123.37 169.93 123.02 C 170.13 126.66 172.53 131.38 169.44 134.37 C 165.71 136.89 162.08 132.82 158.94 131.17 C 157.52 133.37 156.01 135.52 154.45 137.63 C 155.59 141.39 156.98 145.15 157.16 149.11 C 157.39 151.20 155.97 153.36 153.89 153.79 C 148.36 154.04 143.24 151.62 138.17 149.79 C 132.12 156.23 125.86 162.59 118.42 167.44 C 107.45 174.96 91.77 174.84 80.92 167.15 C 73.81 162.36 67.61 156.34 61.88 149.99 C 57.48 151.93 52.83 153.53 47.99 153.83 C 45.80 154.09 43.71 152.15 43.65 149.98 C 43.52 145.97 45.00 142.15 46.03 138.33 C 44.30 136.22 42.68 134.03 41.14 131.78 C 38.31 133.31 34.92 136.75 31.62 134.39 C 28.43 131.45 30.84 126.69 31.07 123.01 C 27.76 123.39 24.44 124.07 21.10 123.78 C 18.17 123.18 16.99 119.24 18.93 117.03 C 24.82 109.10 31.86 101.88 40.34 96.72 C 38.42 85.92 35.23 75.16 35.73 64.09 C 35.86 56.66 42.18 51.65 47.69 47.70 C 59.19 40.12 72.04 34.81 85.06 30.47 M 94.12 32.12 C 81.39 35.42 69.09 40.34 57.51 46.55 C 51.68 49.81 45.80 53.38 41.58 58.67 C 38.95 62.80 39.78 68.01 40.29 72.61 C 40.75 81.34 43.58 89.77 44.82 98.42 L 45.07 98.85 C 35.80 103.75 28.37 111.38 22.15 119.71 C 27.09 119.35 31.98 118.58 36.82 117.61 C 35.58 122.00 34.63 126.47 34.17 131.02 C 37.16 129.28 40.17 127.53 42.87 125.35 C 44.74 129.75 47.33 133.92 50.97 137.09 C 49.52 141.19 48.27 145.37 47.65 149.69 C 53.10 148.92 58.58 147.45 63.05 144.09 C 64.13 146.20 65.79 147.92 67.37 149.65 C 72.75 155.31 78.52 160.71 85.21 164.78 C 90.71 168.30 97.56 169.16 103.93 168.39 C 112.97 167.63 120.10 161.32 126.56 155.55 C 130.31 151.79 134.65 148.28 137.05 143.44 C 141.59 147.30 147.44 149.01 153.27 149.65 C 152.47 145.13 151.27 140.69 149.61 136.41 C 153.08 133.15 155.59 129.00 157.23 124.55 C 160.22 127.06 163.59 129.05 166.93 131.03 C 166.41 126.48 165.54 121.97 164.18 117.59 C 169.02 118.64 173.92 119.36 178.86 119.64 C 172.64 111.25 165.12 103.69 155.84 98.71 L 156.10 98.22 C 157.54 93.63 157.55 88.74 158.92 84.13 C 159.45 82.40 159.68 80.59 159.49 78.79 C 160.50 72.30 162.08 65.01 158.92 58.89 C 157.29 55.93 154.46 53.94 151.78 52.00 C 141.31 44.64 129.38 39.71 117.40 35.39 C 109.96 32.94 102.01 29.82 94.12 32.12 Z" />
</g>
<g id="#ed0000ff">
<path fill="#ed0000" opacity="1.00" d=" M 94.12 32.12 C 102.01 29.82 109.96 32.94 117.40 35.39 C 129.38 39.71 141.31 44.64 151.78 52.00 C 154.46 53.94 157.29 55.93 158.92 58.89 C 159.56 65.51 158.64 72.18 159.49 78.79 C 159.68 80.59 159.45 82.40 158.92 84.13 C 157.55 88.74 157.54 93.63 156.10 98.22 C 149.04 93.61 141.59 89.66 133.72 86.62 C 134.54 77.57 131.67 68.24 125.53 61.50 C 119.02 54.03 108.97 49.83 99.08 50.53 C 85.61 51.07 73.26 60.95 69.54 73.87 C 68.23 77.90 68.21 82.19 68.22 86.39 C 59.92 89.35 52.07 93.42 44.82 98.42 C 43.58 89.77 40.75 81.34 40.29 72.61 C 40.41 67.94 40.77 63.27 41.58 58.67 C 45.80 53.38 51.68 49.81 57.51 46.55 C 69.09 40.34 81.39 35.42 94.12 32.12 Z" />
</g>
<g id="#ffffffff">
<path fill="#ffffff" opacity="1.00" d=" M 69.54 73.87 C 73.26 60.95 85.61 51.07 99.08 50.53 C 108.97 49.83 119.02 54.03 125.53 61.50 C 131.67 68.24 134.54 77.57 133.72 86.62 C 141.59 89.66 149.04 93.61 156.10 98.22 L 155.84 98.71 C 153.40 103.15 150.95 109.18 145.04 109.45 C 138.37 107.67 132.05 104.67 125.20 103.60 C 101.82 99.45 77.26 101.15 55.01 109.66 C 49.89 108.10 47.62 103.06 45.07 98.85 L 44.82 98.42 C 52.07 93.42 59.92 89.35 68.22 86.39 C 68.21 82.19 68.23 77.90 69.54 73.87 M 83.09 82.63 C 88.67 81.62 94.33 81.06 99.99 80.77 C 106.35 80.91 112.68 81.74 118.96 82.74 C 118.66 73.44 110.41 65.24 101.03 65.44 C 91.71 65.24 83.34 73.33 83.09 82.63 Z" />
</g>
<g id="#c01617ff">
<path fill="#c01617" opacity="1.00" d=" M 40.29 72.61 C 39.78 68.01 38.95 62.80 41.58 58.67 C 40.77 63.27 40.41 67.94 40.29 72.61 Z" />
</g>
<g id="#e71815ff">
<path fill="#e71815" opacity="1.00" d=" M 158.92 58.89 C 162.08 65.01 160.50 72.30 159.49 78.79 C 158.64 72.18 159.56 65.51 158.92 58.89 Z" />
</g>
<g id="#ee0000ff">
<path fill="#ee0000" opacity="1.00" d=" M 83.09 82.63 C 83.34 73.33 91.71 65.24 101.03 65.44 C 110.41 65.24 118.66 73.44 118.96 82.74 C 112.68 81.74 106.35 80.91 99.99 80.77 C 94.33 81.06 88.67 81.62 83.09 82.63 Z" />
</g>
<g id="#814f22ff">
<path fill="#814f22" opacity="1.00" d=" M 22.15 119.71 C 28.37 111.38 35.80 103.75 45.07 98.85 C 47.62 103.06 49.89 108.10 55.01 109.66 C 55.77 115.89 56.15 122.15 57.01 128.36 C 57.23 131.02 57.36 133.69 57.49 136.36 C 53.44 131.59 50.65 125.95 48.62 120.07 C 46.76 121.88 44.88 123.70 42.87 125.35 C 40.17 127.53 37.16 129.28 34.17 131.02 C 34.63 126.47 35.58 122.00 36.82 117.61 C 31.98 118.58 27.09 119.35 22.15 119.71 Z" />
</g>
<g id="#804f21ff">
<path fill="#804f21" opacity="1.00" d=" M 155.84 98.71 C 165.12 103.69 172.64 111.25 178.86 119.64 C 173.92 119.36 169.02 118.64 164.18 117.59 C 165.54 121.97 166.41 126.48 166.93 131.03 C 163.59 129.05 160.22 127.06 157.23 124.55 C 155.32 122.93 153.54 121.17 151.76 119.41 C 149.70 125.75 146.87 131.90 142.47 136.97 C 142.64 134.12 142.83 131.28 143.08 128.44 C 143.80 122.11 144.34 115.77 145.04 109.45 C 150.95 109.18 153.40 103.15 155.84 98.71 Z" />
<path fill="#804f21" opacity="1.00" d=" M 137.88 143.53 C 142.13 141.79 146.26 139.60 149.61 136.41 C 151.27 140.69 152.47 145.13 153.27 149.65 C 147.44 149.01 141.59 147.30 137.05 143.44 C 137.68 141.87 138.22 140.26 138.71 138.65 C 138.40 140.27 138.14 141.90 137.88 143.53 Z" />
</g>
<g id="#ffecc5ff">
<path fill="#ffecc5" opacity="1.00" d=" M 55.01 109.66 C 77.26 101.15 101.82 99.45 125.20 103.60 C 132.05 104.67 138.37 107.67 145.04 109.45 C 144.34 115.77 143.80 122.11 143.08 128.44 C 140.98 131.53 139.52 135.00 138.71 138.65 C 138.22 140.26 137.68 141.87 137.05 143.44 C 134.65 148.28 130.31 151.79 126.56 155.55 C 120.10 161.32 112.97 167.63 103.93 168.39 C 97.56 169.16 90.71 168.30 85.21 164.78 C 78.52 160.71 72.75 155.31 67.37 149.65 C 65.79 147.92 64.13 146.20 63.05 144.09 C 62.45 142.57 61.94 141.02 61.46 139.47 C 60.73 135.49 59.01 131.84 57.01 128.36 C 56.15 122.15 55.77 115.89 55.01 109.66 Z" />
</g>
<g id="#ffd6b0ff">
<path fill="#ffd6b0" opacity="1.00" d=" M 42.87 125.35 C 44.88 123.70 46.76 121.88 48.62 120.07 C 50.65 125.95 53.44 131.59 57.49 136.36 C 57.36 133.69 57.23 131.02 57.01 128.36 C 59.01 131.84 60.73 135.49 61.46 139.47 C 61.69 140.84 61.91 142.22 62.11 143.60 C 58.14 141.91 54.24 139.94 50.97 137.09 C 47.33 133.92 44.74 129.75 42.87 125.35 Z" />
</g>
<g id="#fed4b0ff">
<path fill="#fed4b0" opacity="1.00" d=" M 142.47 136.97 C 146.87 131.90 149.70 125.75 151.76 119.41 C 153.54 121.17 155.32 122.93 157.23 124.55 C 155.59 129.00 153.08 133.15 149.61 136.41 C 146.26 139.60 142.13 141.79 137.88 143.53 C 138.14 141.90 138.40 140.27 138.71 138.65 C 139.52 135.00 140.98 131.53 143.08 128.44 C 142.83 131.28 142.64 134.12 142.47 136.97 Z" />
</g>
<g id="#824f22ff">
<path fill="#824f22" opacity="1.00" d=" M 47.65 149.69 C 48.27 145.37 49.52 141.19 50.97 137.09 C 54.24 139.94 58.14 141.91 62.11 143.60 C 61.91 142.22 61.69 140.84 61.46 139.47 C 61.94 141.02 62.45 142.57 63.05 144.09 C 58.58 147.45 53.10 148.92 47.65 149.69 Z" />
</g>
</svg>
