<?xml version="1.0" encoding="UTF-8" ?>
<!DOCTYPE svg PUBLIC "-//W3C//DTD SVG 1.1//EN" "http://www.w3.org/Graphics/SVG/1.1/DTD/svg11.dtd">
<svg width="200pt" height="200pt" viewBox="0 0 200 200" version="1.1" xmlns="http://www.w3.org/2000/svg">
<g id="#010101ff">
<path fill="#010101" opacity="1.00" d=" M 75.50 19.75 C 82.12 16.01 89.01 11.41 96.96 11.74 C 108.06 11.18 117.51 18.24 125.41 25.21 C 132.33 22.58 140.25 24.76 146.04 29.01 C 155.11 36.92 161.50 47.37 166.87 58.02 C 169.79 63.48 172.79 69.54 178.50 72.57 C 180.58 73.74 183.91 74.04 184.22 76.98 C 185.03 79.85 182.52 81.98 180.51 83.54 C 178.13 85.56 175.02 86.25 172.07 86.97 C 173.94 88.16 175.73 89.62 177.91 90.21 C 180.59 90.61 183.88 89.70 185.95 91.94 C 187.39 93.25 187.38 95.71 185.94 97.01 C 182.55 100.44 178.38 103.02 174.09 105.16 C 177.51 109.90 181.67 114.07 186.06 117.91 C 188.07 119.35 188.57 122.22 187.47 124.37 C 184.94 129.59 182.31 134.77 179.69 139.95 C 179.28 141.06 178.16 141.53 177.24 142.12 C 179.71 147.68 182.59 153.05 185.87 158.17 C 186.83 159.62 186.65 161.38 185.99 162.90 C 183.14 170.66 180.19 178.38 177.31 186.12 C 176.40 189.17 172.64 190.99 169.85 189.16 C 165.34 175.59 161.42 161.80 157.88 147.94 C 155.68 151.58 151.68 149.31 149.47 146.99 C 147.69 152.24 145.65 157.63 142.07 161.92 C 140.20 163.95 137.37 162.73 135.88 160.93 C 129.00 167.16 122.26 173.86 113.68 177.72 C 102.67 182.11 89.41 181.24 79.54 174.47 C 73.42 170.51 68.02 165.57 63.01 160.31 C 62.17 163.29 58.35 163.73 56.36 161.64 C 52.46 157.74 50.79 152.25 48.89 147.21 C 46.58 148.67 43.63 151.36 40.95 149.04 C 38.69 146.06 40.51 142.47 41.57 139.43 C 32.91 131.35 26.51 118.23 31.84 106.61 C 26.27 103.96 21.89 99.38 18.78 94.12 C 17.92 92.18 18.82 89.83 20.35 88.53 C 22.21 87.57 24.80 88.13 26.12 86.19 C 29.69 81.93 31.14 76.35 34.58 71.98 C 29.23 69.67 23.88 65.75 21.91 60.06 C 20.75 56.94 23.87 54.01 26.96 54.75 C 34.02 55.75 38.56 49.31 42.80 44.79 C 52.47 34.98 63.94 27.15 75.50 19.75 M 90.55 16.53 C 80.12 20.71 70.88 27.32 61.82 33.87 C 54.69 39.32 47.34 44.70 41.77 51.82 C 37.78 56.69 31.61 59.45 25.30 58.77 C 28.22 64.94 34.69 68.34 41.10 69.72 C 40.11 71.19 39.07 72.62 38.00 74.03 C 34.27 78.84 32.75 85.06 28.52 89.53 C 26.87 91.36 24.30 91.71 22.06 92.39 C 24.76 95.83 27.51 99.37 31.22 101.77 C 33.67 103.21 36.37 104.17 38.96 105.35 C 34.54 107.76 33.27 113.34 33.97 117.99 C 35.14 125.92 39.95 133.03 46.19 137.93 C 45.22 140.43 44.41 142.99 43.85 145.62 C 46.24 144.19 48.55 142.62 50.78 140.95 L 51.33 141.24 C 52.98 147.38 54.89 153.77 59.04 158.72 C 59.45 156.31 59.81 153.89 60.17 151.48 C 66.73 159.04 73.97 166.14 82.41 171.58 C 92.93 178.40 107.65 178.10 117.87 170.82 C 125.51 165.66 132.16 159.19 138.25 152.30 C 138.59 154.60 138.96 156.89 139.36 159.19 C 142.84 153.91 145.61 148.04 146.66 141.78 L 147.35 141.44 C 149.81 142.69 152.18 144.11 154.53 145.57 C 153.93 143.10 153.27 140.65 152.53 138.22 C 154.60 136.63 156.58 134.88 158.15 132.79 C 162.28 150.82 167.44 168.60 172.97 186.25 C 176.31 177.64 179.55 168.99 182.69 160.31 C 174.68 148.72 170.02 135.29 164.85 122.30 L 165.12 121.78 C 167.98 127.76 172.22 133.21 175.84 138.83 C 178.52 132.98 182.02 127.48 184.15 121.41 C 177.57 116.51 172.54 109.91 167.78 103.31 C 173.49 101.61 178.59 98.31 183.03 94.41 C 180.03 94.28 176.80 94.53 174.08 92.99 C 169.34 90.43 165.82 86.09 163.50 81.31 C 166.25 82.19 169.07 83.21 172.01 82.83 C 175.54 82.64 178.37 80.27 180.83 77.98 C 175.96 75.98 171.17 73.16 168.39 68.52 C 162.20 58.72 157.80 47.77 150.14 38.92 C 146.93 35.46 143.93 31.42 139.38 29.65 C 134.66 27.45 129.11 27.63 124.42 29.82 C 119.62 25.06 114.16 20.88 108.04 17.93 C 102.71 15.13 96.28 15.31 90.55 16.53 Z" />
</g>
<g id="#41220fff">
<path fill="#41220f" opacity="1.00" d=" M 90.55 16.53 C 96.28 15.31 102.71 15.13 108.04 17.93 C 114.16 20.88 119.62 25.06 124.42 29.82 C 129.11 27.63 134.66 27.45 139.38 29.65 C 143.93 31.42 146.93 35.46 150.14 38.92 C 157.80 47.77 162.20 58.72 168.39 68.52 C 171.17 73.16 175.96 75.98 180.83 77.98 C 178.37 80.27 175.54 82.64 172.01 82.83 C 169.07 83.21 166.25 82.19 163.50 81.31 C 165.82 86.09 169.34 90.43 174.08 92.99 C 176.80 94.53 180.03 94.28 183.03 94.41 C 178.59 98.31 173.49 101.61 167.78 103.31 C 164.07 104.34 160.21 104.58 156.39 104.37 L 156.38 104.45 C 155.35 114.31 152.63 124.45 146.25 132.26 C 143.52 135.71 139.56 137.86 135.42 139.15 C 143.77 128.74 143.42 114.51 142.86 101.89 C 143.13 99.94 141.59 98.69 139.92 98.15 C 137.54 98.39 135.38 99.56 133.18 100.42 C 124.23 104.35 115.42 108.64 106.97 113.57 C 107.81 111.20 108.47 108.76 109.59 106.50 C 111.27 104.67 113.76 103.90 115.98 102.93 C 123.12 100.28 130.45 98.19 137.83 96.35 C 137.48 95.86 136.76 94.86 136.41 94.37 C 132.32 88.34 131.28 80.86 130.99 73.75 C 130.84 69.09 131.16 63.15 126.70 60.27 C 123.14 58.33 120.36 62.32 119.10 65.13 C 118.81 62.28 117.62 58.30 113.97 58.77 C 106.72 59.97 102.27 66.77 98.81 72.65 C 95.23 79.21 92.57 86.30 91.11 93.64 C 90.40 97.11 90.27 100.66 90.69 104.17 C 87.30 101.18 84.13 97.80 82.28 93.60 C 80.66 89.98 80.11 85.98 80.56 82.04 C 78.46 86.47 75.25 90.24 71.81 93.67 C 70.32 95.10 68.75 96.45 67.19 97.80 C 74.00 99.77 80.94 101.55 87.34 104.66 C 90.99 106.02 91.11 110.42 92.42 113.52 C 83.57 108.55 74.54 103.76 65.08 100.06 C 61.67 101.10 58.65 103.84 55.07 104.95 C 53.65 115.61 53.73 126.76 57.74 136.90 C 48.08 129.61 45.10 116.96 44.41 105.50 C 42.59 105.36 40.77 105.20 38.96 105.35 C 36.37 104.17 33.67 103.21 31.22 101.77 C 27.51 99.37 24.76 95.83 22.06 92.39 C 24.30 91.71 26.87 91.36 28.52 89.53 C 32.75 85.06 34.27 78.84 38.00 74.03 C 39.07 72.62 40.11 71.19 41.10 69.72 C 34.69 68.34 28.22 64.94 25.30 58.77 C 31.61 59.45 37.78 56.69 41.77 51.82 C 47.34 44.70 54.69 39.32 61.82 33.87 C 70.88 27.32 80.12 20.71 90.55 16.53 Z" />
<path fill="#41220f" opacity="1.00" d=" M 46.19 137.93 C 47.66 139.02 49.20 140.02 50.78 140.95 C 48.55 142.62 46.24 144.19 43.85 145.62 C 44.41 142.99 45.22 140.43 46.19 137.93 Z" />
<path fill="#41220f" opacity="1.00" d=" M 147.35 141.44 C 149.14 140.48 150.88 139.41 152.53 138.22 C 153.27 140.65 153.93 143.10 154.53 145.57 C 152.18 144.11 149.81 142.69 147.35 141.44 Z" />
<path fill="#41220f" opacity="1.00" d=" M 51.33 141.24 C 52.80 141.96 54.31 142.60 55.80 143.26 C 56.96 146.14 58.10 149.11 60.17 151.48 C 59.81 153.89 59.45 156.31 59.04 158.72 C 54.89 153.77 52.98 147.38 51.33 141.24 Z" />
<path fill="#41220f" opacity="1.00" d=" M 143.30 143.29 C 144.42 142.79 145.54 142.29 146.66 141.78 C 145.61 148.04 142.84 153.91 139.36 159.19 C 138.96 156.89 138.59 154.60 138.25 152.30 C 140.62 149.73 142.06 146.51 143.30 143.29 Z" />
</g>
<g id="#ffe1b3ff">
<path fill="#ffe1b3" opacity="1.00" d=" M 98.81 72.65 C 102.27 66.77 106.72 59.97 113.97 58.77 C 117.62 58.30 118.81 62.28 119.10 65.13 C 120.36 62.32 123.14 58.33 126.70 60.27 C 131.16 63.15 130.84 69.09 130.99 73.75 C 120.27 73.17 109.46 74.11 98.81 72.65 Z" />
<path fill="#ffe1b3" opacity="1.00" d=" M 67.19 97.80 C 68.75 96.45 70.32 95.10 71.81 93.67 C 75.30 93.63 78.79 93.60 82.28 93.60 C 84.13 97.80 87.30 101.18 90.69 104.17 C 90.27 100.66 90.40 97.11 91.11 93.64 C 97.41 93.60 103.71 93.64 110.01 93.65 C 118.82 93.59 127.59 94.87 136.41 94.37 C 136.76 94.86 137.48 95.86 137.83 96.35 C 130.45 98.19 123.12 100.28 115.98 102.93 C 113.76 103.90 111.27 104.67 109.59 106.50 C 108.47 108.76 107.81 111.20 106.97 113.57 C 115.42 108.64 124.23 104.35 133.18 100.42 C 135.38 99.56 137.54 98.39 139.92 98.15 C 141.59 98.69 143.13 99.94 142.86 101.89 C 143.42 114.51 143.77 128.74 135.42 139.15 C 139.56 137.86 143.52 135.71 146.25 132.26 C 152.63 124.45 155.35 114.31 156.38 104.45 C 160.25 105.17 163.94 107.54 165.10 111.49 C 165.80 114.87 165.32 118.36 165.12 121.78 L 164.85 122.30 C 162.69 125.84 160.54 129.39 158.15 132.79 C 156.58 134.88 154.60 136.63 152.53 138.22 C 150.88 139.41 149.14 140.48 147.35 141.44 L 146.66 141.78 C 145.54 142.29 144.42 142.79 143.30 143.29 C 142.06 146.51 140.62 149.73 138.25 152.30 C 132.16 159.19 125.51 165.66 117.87 170.82 C 107.65 178.10 92.93 178.40 82.41 171.58 C 73.97 166.14 66.73 159.04 60.17 151.48 C 58.10 149.11 56.96 146.14 55.80 143.26 C 54.31 142.60 52.80 141.96 51.33 141.24 L 50.78 140.95 C 49.20 140.02 47.66 139.02 46.19 137.93 C 39.95 133.03 35.14 125.92 33.97 117.99 C 33.27 113.34 34.54 107.76 38.96 105.35 C 40.77 105.20 42.59 105.36 44.41 105.50 C 45.10 116.96 48.08 129.61 57.74 136.90 C 53.73 126.76 53.65 115.61 55.07 104.95 C 58.65 103.84 61.67 101.10 65.08 100.06 C 74.54 103.76 83.57 108.55 92.42 113.52 C 91.11 110.42 90.99 106.02 87.34 104.66 C 80.94 101.55 74.00 99.77 67.19 97.80 Z" />
</g>
<g id="#ddddddff">
<path fill="#dddddd" opacity="1.00" d=" M 91.11 93.64 C 92.57 86.30 95.23 79.21 98.81 72.65 C 109.46 74.11 120.27 73.17 130.99 73.75 C 131.28 80.86 132.32 88.34 136.41 94.37 C 127.59 94.87 118.82 93.59 110.01 93.65 C 103.71 93.64 97.41 93.60 91.11 93.64 Z" />
<path fill="#dddddd" opacity="1.00" d=" M 71.81 93.67 C 75.25 90.24 78.46 86.47 80.56 82.04 C 80.11 85.98 80.66 89.98 82.28 93.60 C 78.79 93.60 75.30 93.63 71.81 93.67 Z" />
<path fill="#dddddd" opacity="1.00" d=" M 156.39 104.37 C 160.21 104.58 164.07 104.34 167.78 103.31 C 172.54 109.91 177.57 116.51 184.15 121.41 C 182.02 127.48 178.52 132.98 175.84 138.83 C 172.22 133.21 167.98 127.76 165.12 121.78 C 165.32 118.36 165.80 114.87 165.10 111.49 C 163.94 107.54 160.25 105.17 156.38 104.45 L 156.39 104.37 Z" />
<path fill="#dddddd" opacity="1.00" d=" M 158.15 132.79 C 160.54 129.39 162.69 125.84 164.85 122.30 C 170.02 135.29 174.68 148.72 182.69 160.31 C 179.55 168.99 176.31 177.64 172.97 186.25 C 167.44 168.60 162.28 150.82 158.15 132.79 Z" />
</g>
</svg>
