<?xml version="1.0" encoding="UTF-8" ?>
<!DOCTYPE svg PUBLIC "-//W3C//DTD SVG 1.1//EN" "http://www.w3.org/Graphics/SVG/1.1/DTD/svg11.dtd">
<svg width="200pt" height="200pt" viewBox="0 0 200 200" version="1.1" xmlns="http://www.w3.org/2000/svg">
<g id="#000000ff">
<path fill="#000000" opacity="1.00" d=" M 175.14 24.14 C 177.20 23.69 180.04 23.62 180.94 25.99 C 181.46 33.39 179.76 40.74 178.76 48.05 C 178.56 51.89 175.41 54.36 173.06 57.01 C 162.48 68.62 152.02 80.33 141.30 91.81 C 145.61 90.91 149.75 89.35 154.07 88.49 C 157.51 88.25 159.73 92.89 157.31 95.38 C 153.65 99.61 149.17 103.02 144.93 106.63 C 148.30 105.82 151.57 104.45 155.04 104.14 C 158.37 104.43 160.00 109.10 157.41 111.31 C 147.13 121.33 135.14 130.01 121.44 134.66 C 117.13 136.20 112.40 136.80 108.57 139.48 C 97.76 146.43 87.06 153.84 78.07 163.09 C 74.27 166.31 76.81 172.57 72.69 175.61 C 70.30 176.76 67.59 175.55 65.22 174.91 C 57.98 172.45 50.37 170.90 43.50 167.49 C 40.40 166.05 40.76 160.77 44.14 159.98 C 50.80 158.58 57.73 157.32 63.63 153.74 C 70.76 148.21 77.15 141.79 83.67 135.56 C 83.10 134.40 82.54 133.24 81.98 132.08 C 80.42 131.79 78.50 131.98 77.41 130.58 C 76.13 128.95 76.26 126.72 75.75 124.81 C 68.10 125.52 60.48 126.51 52.85 127.49 C 42.15 128.25 32.98 135.16 26.05 142.90 C 23.97 144.91 19.94 143.57 19.47 140.71 C 18.44 134.86 17.51 128.89 18.03 122.93 C 18.15 121.15 19.71 120.00 20.66 118.64 C 23.91 114.85 25.40 110.00 27.55 105.58 C 28.12 104.18 29.52 103.23 31.04 103.26 C 35.75 103.07 40.48 103.20 45.17 102.67 C 49.80 102.36 53.92 99.98 57.94 97.87 C 60.80 96.17 63.87 94.66 66.25 92.30 C 68.69 86.49 70.07 80.00 74.13 75.03 C 78.99 72.28 85.54 71.83 88.98 66.97 C 98.00 54.28 111.58 45.45 126.06 40.15 C 139.11 35.37 153.07 33.00 166.97 33.35 C 169.97 30.52 172.15 26.95 175.14 24.14 M 168.50 37.63 C 153.96 37.15 139.31 39.50 125.75 44.81 C 112.97 49.77 100.95 57.60 92.82 68.81 C 89.36 74.56 82.33 76.07 76.54 78.43 C 73.52 83.56 72.00 89.35 69.73 94.78 C 65.60 98.88 60.20 101.44 55.09 104.09 C 47.74 108.02 39.14 107.19 31.11 107.54 C 28.93 113.48 26.02 119.14 21.90 123.95 C 21.35 129.24 22.84 134.47 23.44 139.69 C 29.19 132.80 36.98 127.53 45.44 124.60 C 56.36 122.58 67.46 121.64 78.50 120.39 C 79.47 122.85 80.11 125.41 80.65 128.00 C 81.56 125.40 82.32 122.74 82.90 120.05 C 84.70 119.92 86.50 119.77 88.30 119.66 C 87.84 123.87 87.10 128.04 86.38 132.22 C 90.28 128.68 93.51 124.41 95.48 119.50 C 96.93 119.54 98.38 119.66 99.83 119.77 C 100.41 120.85 100.98 121.93 101.56 123.01 C 91.39 134.00 80.81 144.62 69.50 154.44 C 63.01 160.52 53.91 162.32 45.48 164.04 C 52.33 167.09 59.66 168.78 66.74 171.16 C 68.04 171.46 69.39 172.16 70.74 171.75 C 71.60 169.07 71.31 166.11 72.51 163.54 C 74.64 160.11 77.75 157.44 80.71 154.76 C 89.24 147.45 98.36 140.82 107.99 135.03 C 111.79 132.70 116.32 132.22 120.44 130.67 C 133.43 126.19 144.64 117.77 154.52 108.39 C 144.44 111.21 134.32 113.86 124.04 115.83 C 135.14 109.64 145.26 101.65 154.24 92.67 C 146.20 95.04 138.08 97.41 129.69 98.05 C 144.40 82.60 158.61 66.69 172.96 50.90 C 173.75 50.06 174.30 49.01 174.47 47.87 C 175.75 41.24 176.26 34.50 177.25 27.83 C 174.52 31.26 171.71 34.63 168.50 37.63 Z" />
</g>
<g id="#636ea7ff">
<path fill="#636ea7" opacity="1.00" d=" M 168.50 37.63 C 171.71 34.63 174.52 31.26 177.25 27.83 C 176.26 34.50 175.75 41.24 174.47 47.87 C 174.30 49.01 173.75 50.06 172.96 50.90 C 158.61 66.69 144.40 82.60 129.69 98.05 C 138.08 97.41 146.20 95.04 154.24 92.67 C 145.26 101.65 135.14 109.64 124.04 115.83 C 134.32 113.86 144.44 111.21 154.52 108.39 C 144.64 117.77 133.43 126.19 120.44 130.67 C 116.32 132.22 111.79 132.70 107.99 135.03 C 98.36 140.82 89.24 147.45 80.71 154.76 C 77.75 157.44 74.64 160.11 72.51 163.54 C 71.31 166.11 71.60 169.07 70.74 171.75 C 69.39 172.16 68.04 171.46 66.74 171.16 C 59.66 168.78 52.33 167.09 45.48 164.04 C 53.91 162.32 63.01 160.52 69.50 154.44 C 80.81 144.62 91.39 134.00 101.56 123.01 C 100.98 121.93 100.41 120.85 99.83 119.77 C 98.38 119.66 96.93 119.54 95.48 119.50 C 93.09 119.44 90.69 119.51 88.30 119.66 C 86.50 119.77 84.70 119.92 82.90 120.05 C 81.43 120.15 79.96 120.27 78.50 120.39 C 67.46 121.64 56.36 122.58 45.44 124.60 C 36.98 127.53 29.19 132.80 23.44 139.69 C 22.84 134.47 21.35 129.24 21.90 123.95 C 26.02 119.14 28.93 113.48 31.11 107.54 C 39.14 107.19 47.74 108.02 55.09 104.09 C 60.20 101.44 65.60 98.88 69.73 94.78 C 72.00 89.35 73.52 83.56 76.54 78.43 C 82.33 76.07 89.36 74.56 92.82 68.81 C 100.95 57.60 112.97 49.77 125.75 44.81 C 139.31 39.50 153.96 37.15 168.50 37.63 Z" />
</g>
<g id="#ffecbcff">
<path fill="#ffecbc" opacity="1.00" d=" M 88.30 119.66 C 90.69 119.51 93.09 119.44 95.48 119.50 C 93.51 124.41 90.28 128.68 86.38 132.22 C 87.10 128.04 87.84 123.87 88.30 119.66 Z" />
<path fill="#ffecbc" opacity="1.00" d=" M 78.50 120.39 C 79.96 120.27 81.43 120.15 82.90 120.05 C 82.32 122.74 81.56 125.40 80.65 128.00 C 80.11 125.41 79.47 122.85 78.50 120.39 Z" />
</g>
</svg>
