<?xml version="1.0" encoding="UTF-8" ?>
<!DOCTYPE svg PUBLIC "-//W3C//DTD SVG 1.1//EN" "http://www.w3.org/Graphics/SVG/1.1/DTD/svg11.dtd">
<svg width="200pt" height="200pt" viewBox="0 0 200 200" version="1.1" xmlns="http://www.w3.org/2000/svg">
<g id="#000000ff">
<path fill="#000000" opacity="1.00" d=" M 80.19 17.19 C 85.53 15.22 89.77 19.52 92.89 23.23 C 104.95 21.19 117.88 21.36 129.08 26.81 C 139.57 31.70 147.63 40.53 153.74 50.18 C 162.17 63.51 167.67 78.43 172.47 93.38 C 173.38 96.73 175.23 100.27 173.98 103.77 C 172.85 105.42 170.72 105.80 168.89 105.34 C 170.40 108.20 172.74 112.76 168.97 114.90 C 165.07 116.13 160.88 114.48 156.94 114.00 C 155.06 123.50 147.79 131.12 139.16 135.06 C 139.08 141.95 138.62 149.17 141.42 155.65 C 144.63 160.07 148.02 164.34 151.33 168.69 C 152.88 170.63 152.09 173.75 149.93 174.89 C 143.57 179.05 136.32 181.74 128.89 183.27 C 123.03 184.56 116.98 184.04 111.02 184.05 C 107.55 184.07 104.32 182.52 101.09 181.62 C 96.12 184.15 90.48 184.26 85.04 184.12 C 73.74 184.52 62.46 180.99 52.91 175.04 C 50.51 173.89 49.63 170.44 51.48 168.42 C 54.52 164.53 57.55 160.63 60.46 156.64 C 63.51 149.86 63.20 142.16 63.04 134.86 C 54.15 130.65 46.68 122.41 45.52 112.38 C 42.15 106.70 40.15 100.25 39.81 93.64 C 37.79 96.30 35.86 99.05 33.47 101.40 C 31.75 103.28 28.39 102.94 27.00 100.84 C 25.84 97.70 27.35 94.49 28.50 91.59 C 35.85 73.57 43.74 55.75 52.30 38.27 C 54.26 34.51 56.06 30.21 60.03 28.14 C 64.03 25.76 69.05 26.79 72.92 28.94 C 75.28 25.01 76.57 20.19 80.19 17.19 M 82.12 21.09 C 79.23 25.46 77.28 30.38 74.60 34.88 C 71.34 33.18 68.00 30.02 63.88 31.12 C 59.41 32.31 57.83 37.14 55.87 40.78 C 47.05 58.94 38.83 77.41 31.34 96.16 C 31.27 96.66 31.14 97.67 31.07 98.17 C 36.89 91.19 41.96 83.58 46.52 75.72 C 46.69 76.91 45.82 77.90 45.71 79.05 C 42.65 89.71 43.71 101.72 49.76 111.15 C 50.33 119.03 55.81 125.85 62.45 129.74 C 63.74 130.27 64.79 131.69 66.32 131.34 C 66.57 131.70 67.07 132.44 67.32 132.81 C 67.62 140.13 67.58 147.56 66.09 154.74 L 66.78 154.77 C 64.58 158.99 61.16 162.46 58.50 166.40 C 57.47 168.08 55.23 169.45 55.24 171.54 C 66.95 178.72 81.29 181.97 94.88 179.47 C 97.37 179.20 99.40 177.29 101.88 177.10 C 104.53 178.26 107.19 179.50 110.10 179.83 C 123.12 181.61 136.59 178.37 147.73 171.51 L 147.93 170.91 C 143.97 165.89 140.25 160.68 136.31 155.66 C 136.52 155.38 136.94 154.83 137.16 154.55 L 136.85 154.46 C 134.32 148.28 135.32 141.34 135.04 134.81 C 135.18 133.38 135.50 131.74 137.08 131.28 C 138.42 131.11 139.51 130.24 140.68 129.65 C 147.85 125.30 153.90 117.43 153.08 108.67 C 157.65 110.06 162.38 110.80 167.12 111.27 C 163.36 103.07 159.26 94.97 154.23 87.46 C 160.67 90.52 166.64 95.05 170.54 101.09 C 165.87 84.97 160.18 68.92 151.59 54.42 C 145.44 44.19 137.12 34.63 125.91 29.92 C 114.99 25.18 102.63 25.60 91.17 27.85 C 88.95 25.00 86.66 21.60 83.00 20.58 L 82.12 21.09 Z" />
<path fill="#000000" opacity="1.00" d=" M 74.02 142.01 C 75.63 143.60 77.25 145.18 78.93 146.70 C 76.22 145.04 74.04 148.11 71.34 148.04 C 72.44 146.13 73.24 144.06 74.02 142.01 Z" />
<path fill="#000000" opacity="1.00" d=" M 125.44 145.32 C 126.56 144.33 127.65 143.31 128.67 142.22 C 129.21 144.06 129.88 145.88 130.91 147.51 C 128.75 148.18 127.22 146.16 125.44 145.32 Z" />
</g>
<g id="#cccdd6ff">
<path fill="#cccdd6" opacity="1.00" d=" M 82.12 21.09 L 83.00 20.58 C 86.66 21.60 88.95 25.00 91.17 27.85 C 102.63 25.60 114.99 25.18 125.91 29.92 C 137.12 34.63 145.44 44.19 151.59 54.42 C 160.18 68.92 165.87 84.97 170.54 101.09 C 166.64 95.05 160.67 90.52 154.23 87.46 C 159.26 94.97 163.36 103.07 167.12 111.27 C 162.38 110.80 157.65 110.06 153.08 108.67 C 151.98 108.38 149.75 107.49 149.55 109.32 C 148.25 115.57 145.30 121.37 141.44 126.44 C 140.96 127.39 139.41 128.59 140.68 129.65 C 139.51 130.24 138.42 131.11 137.08 131.28 C 138.34 122.35 140.50 113.48 140.49 104.43 C 137.10 101.88 133.14 100.11 128.99 99.24 C 129.53 99.19 130.62 99.09 131.16 99.04 C 130.29 98.21 129.32 97.50 128.33 96.82 C 124.47 94.29 121.59 90.59 117.84 87.92 C 119.13 91.41 121.71 94.18 124.02 97.01 C 124.57 97.67 125.14 98.31 125.73 98.95 C 127.50 100.97 129.36 102.93 130.98 105.08 C 124.02 105.48 117.69 102.23 111.01 100.92 C 109.15 97.84 105.28 98.04 102.45 96.37 C 97.82 93.34 92.85 90.08 91.22 84.45 C 90.74 84.47 89.77 84.49 89.29 84.50 C 91.51 90.96 95.23 96.76 98.10 102.93 C 95.09 101.88 92.68 99.70 90.33 97.62 C 85.25 94.36 81.68 89.46 78.81 84.23 C 76.62 81.61 76.29 77.88 73.77 75.54 C 72.81 82.62 74.53 89.69 75.38 96.69 C 75.35 97.49 75.44 98.28 75.65 99.06 C 76.10 100.72 76.60 102.37 76.86 104.08 C 74.01 103.68 72.78 100.59 70.13 99.77 C 71.08 98.84 70.21 97.95 69.33 97.46 C 67.84 93.67 66.42 89.84 65.46 85.87 C 64.27 89.74 62.60 93.45 61.39 97.30 C 60.79 105.31 62.63 113.21 63.67 121.11 C 64.39 124.55 64.46 128.25 66.32 131.34 C 64.79 131.69 63.74 130.27 62.45 129.74 C 62.73 127.49 60.65 126.06 59.58 124.34 C 56.10 119.92 54.55 114.46 52.56 109.31 C 51.58 109.85 50.64 110.46 49.76 111.15 C 43.71 101.72 42.65 89.71 45.71 79.05 C 45.82 77.90 46.69 76.91 46.52 75.72 C 41.96 83.58 36.89 91.19 31.07 98.17 C 31.14 97.67 31.27 96.66 31.34 96.16 C 38.83 77.41 47.05 58.94 55.87 40.78 C 57.83 37.14 59.41 32.31 63.88 31.12 C 68.00 30.02 71.34 33.18 74.60 34.88 C 77.28 30.38 79.23 25.46 82.12 21.09 Z" />
<path fill="#cccdd6" opacity="1.00" d=" M 128.67 142.22 C 130.97 139.90 133.07 137.41 135.04 134.81 C 135.32 141.34 134.32 148.28 136.85 154.46 C 133.83 153.89 132.87 150.62 131.41 148.35 C 131.28 148.14 131.03 147.72 130.91 147.51 C 129.88 145.88 129.21 144.06 128.67 142.22 Z" />
</g>
<g id="#fcf1deff">
<path fill="#fcf1de" opacity="1.00" d=" M 73.77 75.54 C 76.29 77.88 76.62 81.61 78.81 84.23 C 81.68 89.46 85.25 94.36 90.33 97.62 L 90.09 99.52 C 85.34 97.92 80.43 96.69 75.38 96.69 C 74.53 89.69 72.81 82.62 73.77 75.54 Z" />
</g>
<g id="#fdf0deff">
<path fill="#fdf0de" opacity="1.00" d=" M 89.29 84.50 C 89.77 84.49 90.74 84.47 91.22 84.45 C 92.85 90.08 97.82 93.34 102.45 96.37 C 105.28 98.04 109.15 97.84 111.01 100.92 C 117.69 102.23 124.02 105.48 130.98 105.08 C 129.36 102.93 127.50 100.97 125.73 98.95 C 126.55 99.02 128.17 99.17 128.99 99.24 C 133.14 100.11 137.10 101.88 140.49 104.43 C 140.50 113.48 138.34 122.35 137.08 131.28 C 135.50 131.74 135.18 133.38 135.04 134.81 C 133.07 137.41 130.97 139.90 128.67 142.22 C 127.65 143.31 126.56 144.33 125.44 145.32 C 120.82 149.62 115.82 153.78 109.85 156.06 C 105.68 157.13 101.29 157.58 97.02 156.86 C 89.89 156.07 84.21 151.14 78.93 146.70 C 77.25 145.18 75.63 143.60 74.02 142.01 C 71.30 139.33 68.75 136.41 67.32 132.81 C 67.07 132.44 66.57 131.70 66.32 131.34 C 64.46 128.25 64.39 124.55 63.67 121.11 C 62.63 113.21 60.79 105.31 61.39 97.30 C 62.60 93.45 64.27 89.74 65.46 85.87 C 66.42 89.84 67.84 93.67 69.33 97.46 C 68.56 97.87 65.59 99.93 67.91 100.14 C 68.47 100.04 69.58 99.86 70.13 99.77 C 72.78 100.59 74.01 103.68 76.86 104.08 C 76.60 102.37 76.10 100.72 75.65 99.06 C 80.79 98.66 85.89 99.44 90.83 100.85 C 90.64 100.52 90.28 99.86 90.09 99.52 L 90.33 97.62 C 92.68 99.70 95.09 101.88 98.10 102.93 C 95.23 96.76 91.51 90.96 89.29 84.50 Z" />
</g>
<g id="#eee9dfff">
<path fill="#eee9df" opacity="1.00" d=" M 117.84 87.92 C 121.59 90.59 124.47 94.29 128.33 96.82 C 126.89 96.90 125.45 96.96 124.02 97.01 C 121.71 94.18 119.13 91.41 117.84 87.92 Z" />
</g>
<g id="#bfb6a3ff">
<path fill="#bfb6a3" opacity="1.00" d=" M 75.65 99.06 C 75.44 98.28 75.35 97.49 75.38 96.69 C 80.43 96.69 85.34 97.92 90.09 99.52 C 90.28 99.86 90.64 100.52 90.83 100.85 C 85.89 99.44 80.79 98.66 75.65 99.06 Z" />
</g>
<g id="#a9ab99ff">
<path fill="#a9ab99" opacity="1.00" d=" M 124.02 97.01 C 125.45 96.96 126.89 96.90 128.33 96.82 C 129.32 97.50 130.29 98.21 131.16 99.04 C 130.62 99.09 129.53 99.19 128.99 99.24 C 128.17 99.17 126.55 99.02 125.73 98.95 C 125.14 98.31 124.57 97.67 124.02 97.01 Z" />
</g>
<g id="#b6b09dff">
<path fill="#b6b09d" opacity="1.00" d=" M 67.91 100.14 C 65.59 99.93 68.56 97.87 69.33 97.46 C 70.21 97.95 71.08 98.84 70.13 99.77 C 69.58 99.86 68.47 100.04 67.91 100.14 Z" />
</g>
<g id="#fcf0ddff">
<path fill="#fcf0dd" opacity="1.00" d=" M 149.55 109.32 C 149.75 107.49 151.98 108.38 153.08 108.67 C 153.90 117.43 147.85 125.30 140.68 129.65 C 139.41 128.59 140.96 127.39 141.44 126.44 C 145.30 121.37 148.25 115.57 149.55 109.32 Z" />
</g>
<g id="#fff0deff">
<path fill="#fff0de" opacity="1.00" d=" M 52.56 109.31 C 54.55 114.46 56.10 119.92 59.58 124.34 C 60.65 126.06 62.73 127.49 62.45 129.74 C 55.81 125.85 50.33 119.03 49.76 111.15 C 50.64 110.46 51.58 109.85 52.56 109.31 Z" />
</g>
<g id="#cccdd7ff">
<path fill="#cccdd7" opacity="1.00" d=" M 67.32 132.81 C 68.75 136.41 71.30 139.33 74.02 142.01 C 73.24 144.06 72.44 146.13 71.34 148.04 C 71.18 148.28 70.86 148.75 70.69 148.98 C 69.59 151.05 67.82 152.68 66.78 154.77 L 66.09 154.74 C 67.58 147.56 67.62 140.13 67.32 132.81 Z" />
</g>
<g id="#171c61ff">
<path fill="#171c61" opacity="1.00" d=" M 109.85 156.06 C 115.82 153.78 120.82 149.62 125.44 145.32 C 127.22 146.16 128.75 148.18 130.91 147.51 C 131.03 147.72 131.28 148.14 131.41 148.35 C 130.46 148.71 129.53 149.12 128.62 149.57 C 123.27 159.68 113.24 167.35 102.07 169.81 C 90.07 168.01 79.41 159.49 73.83 148.82 C 73.05 148.86 71.48 148.94 70.69 148.98 C 70.86 148.75 71.18 148.28 71.34 148.04 C 74.04 148.11 76.22 145.04 78.93 146.70 C 84.21 151.14 89.89 156.07 97.02 156.86 C 101.29 157.58 105.68 157.13 109.85 156.06 Z" />
</g>
<g id="#935193ff">
<path fill="#935193" opacity="1.00" d=" M 131.41 148.35 C 132.87 150.62 133.83 153.89 136.85 154.46 L 137.16 154.55 C 136.94 154.83 136.52 155.38 136.31 155.66 C 140.25 160.68 143.97 165.89 147.93 170.91 L 147.73 171.51 C 136.59 178.37 123.12 181.61 110.10 179.83 C 107.19 179.50 104.53 178.26 101.88 177.10 C 99.40 177.29 97.37 179.20 94.88 179.47 C 81.29 181.97 66.95 178.72 55.24 171.54 C 55.23 169.45 57.47 168.08 58.50 166.40 C 61.16 162.46 64.58 158.99 66.78 154.77 C 67.82 152.68 69.59 151.05 70.69 148.98 C 71.48 148.94 73.05 148.86 73.83 148.82 C 79.41 159.49 90.07 168.01 102.07 169.81 C 113.24 167.35 123.27 159.68 128.62 149.57 C 129.53 149.12 130.46 148.71 131.41 148.35 Z" />
</g>
</svg>
