<?xml version="1.0" encoding="UTF-8" ?>
<!DOCTYPE svg PUBLIC "-//W3C//DTD SVG 1.1//EN" "http://www.w3.org/Graphics/SVG/1.1/DTD/svg11.dtd">
<svg width="200pt" height="200pt" viewBox="0 0 200 200" version="1.1" xmlns="http://www.w3.org/2000/svg">
<g id="#020101ff">
<path fill="#020101" opacity="1.00" d=" M 58.63 23.91 C 57.87 21.27 60.23 18.39 63.01 19.00 C 74.72 19.88 86.34 21.86 98.03 23.06 C 107.25 23.51 115.21 29.41 121.33 35.90 C 129.50 34.55 137.99 36.48 144.73 41.31 C 157.56 50.34 166.18 63.95 173.71 77.42 C 175.20 79.61 174.14 82.95 171.56 83.70 C 169.55 84.22 167.66 82.99 165.80 82.43 C 168.57 87.12 171.31 91.94 172.75 97.22 C 173.39 99.31 171.97 101.67 169.89 102.21 C 167.73 102.23 165.67 101.47 163.58 101.05 C 165.02 104.20 166.56 107.46 169.53 109.47 C 171.98 110.77 172.34 114.34 170.19 116.11 C 168.50 117.07 166.55 117.39 164.71 117.94 C 164.97 121.23 164.93 124.55 164.45 127.83 C 166.94 127.56 170.42 126.23 172.03 128.95 C 174.40 134.70 174.64 141.10 176.82 146.92 C 177.87 148.71 180.38 149.21 181.21 151.15 C 181.55 154.26 180.93 157.38 180.73 160.49 C 180.28 164.92 180.53 169.41 179.75 173.81 C 179.42 176.34 176.56 178.04 174.20 176.93 C 162.59 172.49 152.89 164.29 144.17 155.62 C 142.96 161.62 141.84 167.73 139.33 173.35 C 138.38 176.01 134.33 176.61 132.60 174.44 C 131.15 172.56 130.21 170.35 129.10 168.27 C 122.61 173.50 115.82 179.22 107.30 180.52 C 100.87 181.49 94.09 181.30 87.95 178.98 C 82.01 176.60 77.04 172.45 72.08 168.52 C 70.93 170.55 70.03 172.79 68.40 174.52 C 66.42 176.20 62.97 175.40 62.03 172.94 C 58.91 165.85 57.75 158.10 56.76 150.48 C 51.39 148.16 46.67 144.58 42.96 140.07 C 41.26 137.19 36.77 138.78 35.35 135.63 C 28.89 124.19 24.32 110.45 28.03 97.35 C 26.02 98.48 23.70 100.36 21.33 98.95 C 18.86 97.58 19.67 94.35 19.97 92.08 C 22.12 82.59 26.74 73.55 33.66 66.66 C 36.80 63.49 40.56 61.08 44.14 58.46 C 40.83 57.66 37.38 57.20 34.25 55.78 C 31.96 54.68 31.50 51.07 33.39 49.39 C 42.37 41.53 54.16 37.35 65.99 36.61 C 63.03 32.72 59.88 28.73 58.63 23.91 M 62.86 23.03 C 65.46 30.80 71.49 37.13 78.86 40.58 C 64.22 39.57 48.21 42.05 36.91 52.15 C 43.44 54.40 50.34 55.33 56.95 57.37 C 51.65 59.78 46.14 61.90 41.48 65.47 C 31.93 72.23 26.06 83.27 23.94 94.62 C 29.16 91.30 33.78 86.25 40.35 85.88 C 37.53 89.62 33.93 92.97 32.55 97.59 C 31.30 102.07 29.90 106.81 31.18 111.46 C 32.31 119.32 35.21 126.82 39.14 133.70 C 39.90 132.26 40.66 130.83 41.36 129.36 C 44.98 137.48 51.70 144.40 60.29 147.12 C 60.62 148.02 60.98 148.90 61.38 149.77 C 61.88 156.86 62.30 164.54 66.52 170.55 C 67.94 167.38 69.17 164.13 70.27 160.84 C 74.88 165.25 79.70 169.52 85.18 172.83 C 90.95 176.49 98.11 177.45 104.80 176.65 C 115.54 175.56 123.64 167.55 131.18 160.59 C 132.43 164.27 133.76 167.92 135.30 171.49 C 139.41 164.22 139.94 155.77 140.91 147.67 L 141.25 146.97 L 142.19 146.60 C 145.24 149.31 147.46 152.78 150.36 155.65 C 157.70 162.94 166.19 169.23 175.82 173.16 C 176.37 166.35 176.52 159.52 177.68 152.78 C 170.83 151.36 164.00 149.52 157.79 146.24 C 162.79 146.57 167.69 147.86 172.72 147.95 C 171.56 142.49 169.90 137.12 169.21 131.57 C 165.28 132.08 161.40 132.91 157.53 133.80 C 161.00 127.98 162.72 119.84 157.84 114.26 C 160.90 114.09 163.94 113.65 166.98 113.23 C 161.53 107.98 158.88 100.71 155.70 94.01 C 160.17 95.04 164.50 96.54 168.85 98.00 C 166.28 89.48 161.03 82.13 154.96 75.76 L 155.02 75.47 C 160.41 75.25 165.38 77.47 170.20 79.59 C 164.63 68.80 157.75 58.50 149.01 50.01 C 142.86 44.17 134.90 38.81 126.00 39.86 C 123.68 39.76 120.76 41.18 118.98 39.06 C 113.85 33.90 107.85 29.03 100.57 27.48 C 95.31 26.14 89.81 26.58 84.50 25.55 C 77.37 24.10 70.05 24.14 62.86 23.03 Z" />
</g>
<g id="#e00101ff">
<path fill="#e00101" opacity="1.00" d=" M 62.86 23.03 C 70.05 24.14 77.37 24.10 84.50 25.55 C 89.81 26.58 95.31 26.14 100.57 27.48 C 107.85 29.03 113.85 33.90 118.98 39.06 C 120.76 41.18 123.68 39.76 126.00 39.86 C 134.90 38.81 142.86 44.17 149.01 50.01 C 157.75 58.50 164.63 68.80 170.20 79.59 C 165.38 77.47 160.41 75.25 155.02 75.47 L 154.71 75.46 C 154.77 75.53 154.90 75.68 154.96 75.76 C 161.03 82.13 166.28 89.48 168.85 98.00 C 164.50 96.54 160.17 95.04 155.70 94.01 C 158.88 100.71 161.53 107.98 166.98 113.23 C 163.94 113.65 160.90 114.09 157.84 114.26 C 155.29 114.37 152.75 114.33 150.21 114.30 C 149.57 121.83 147.40 129.18 143.33 135.58 C 142.03 137.11 140.65 138.58 139.28 140.05 C 141.13 130.99 142.18 121.74 141.78 112.48 C 137.96 111.32 134.06 107.74 129.97 109.84 C 122.48 112.97 115.28 116.73 107.85 119.99 C 108.87 117.83 109.33 114.98 111.72 113.84 C 117.29 110.96 123.37 109.22 129.33 107.32 L 130.24 107.25 C 126.52 103.12 122.59 99.11 119.71 94.32 C 117.44 88.85 116.41 82.70 112.69 77.95 C 108.79 76.65 105.92 80.19 103.84 82.92 C 98.23 89.90 93.61 97.71 90.42 106.09 C 89.65 108.16 88.85 110.23 88.07 112.31 C 90.59 114.25 92.36 116.90 93.42 119.89 C 91.13 118.99 88.88 118.01 86.62 117.04 C 85.87 121.06 85.27 125.11 84.60 129.14 C 77.74 124.87 71.37 119.04 68.96 111.08 C 67.90 106.70 62.71 106.35 59.17 105.05 C 57.00 112.17 55.80 119.61 56.21 127.08 C 56.30 133.37 58.13 139.42 59.69 145.47 C 57.65 142.76 55.32 140.19 54.06 137.00 C 51.28 130.16 51.26 122.67 50.20 115.47 C 46.45 119.53 43.56 124.30 41.36 129.36 C 40.66 130.83 39.90 132.26 39.14 133.70 C 35.21 126.82 32.31 119.32 31.18 111.46 C 29.90 106.81 31.30 102.07 32.55 97.59 C 33.93 92.97 37.53 89.62 40.35 85.88 C 33.78 86.25 29.16 91.30 23.94 94.62 C 26.06 83.27 31.93 72.23 41.48 65.47 C 46.14 61.90 51.65 59.78 56.95 57.37 C 50.34 55.33 43.44 54.40 36.91 52.15 C 48.21 42.05 64.22 39.57 78.86 40.58 C 71.49 37.13 65.46 30.80 62.86 23.03 M 64.00 99.14 C 62.67 100.47 61.50 101.95 60.30 103.40 C 61.07 103.54 62.60 103.83 63.37 103.97 C 62.76 105.93 67.37 107.36 67.59 105.15 C 67.71 103.18 67.83 101.22 67.86 99.25 C 69.82 96.93 70.79 94.10 69.51 91.18 C 67.19 93.47 65.19 96.09 64.00 99.14 Z" />
</g>
<g id="#ffb3a9ff">
<path fill="#ffb3a9" opacity="1.00" d=" M 154.71 75.46 L 155.02 75.47 L 154.96 75.76 C 154.90 75.68 154.77 75.53 154.71 75.46 Z" />
</g>
<g id="#9a247dff">
<path fill="#9a247d" opacity="1.00" d=" M 103.84 82.92 C 105.92 80.19 108.79 76.65 112.69 77.95 C 116.41 82.70 117.44 88.85 119.71 94.32 C 116.21 89.26 114.82 83.11 111.41 77.99 C 108.84 79.55 106.25 81.11 103.84 82.92 Z" />
</g>
<g id="#1344ffff">
<path fill="#1344ff" opacity="1.00" d=" M 103.84 82.92 C 106.25 81.11 108.84 79.55 111.41 77.99 C 114.82 83.11 116.21 89.26 119.71 94.32 C 122.59 99.11 126.52 103.12 130.24 107.25 L 129.33 107.32 C 123.18 107.29 117.12 108.55 110.97 108.67 C 104.03 108.84 97.08 108.98 90.14 108.63 C 90.21 107.99 90.35 106.72 90.42 106.09 C 93.61 97.71 98.23 89.90 103.84 82.92 Z" />
</g>
<g id="#9c217cff">
<path fill="#9c217c" opacity="1.00" d=" M 64.00 99.14 C 65.19 96.09 67.19 93.47 69.51 91.18 C 70.79 94.10 69.82 96.93 67.86 99.25 C 67.85 98.36 67.84 96.58 67.84 95.70 C 66.54 96.82 65.24 97.95 64.00 99.14 Z" />
</g>
<g id="#0647feff">
<path fill="#0647fe" opacity="1.00" d=" M 64.00 99.14 C 65.24 97.95 66.54 96.82 67.84 95.70 C 67.84 96.58 67.85 98.36 67.86 99.25 C 67.83 101.22 67.71 103.18 67.59 105.15 C 66.24 104.58 64.82 104.19 63.37 103.97 C 62.60 103.83 61.07 103.54 60.30 103.40 C 61.50 101.95 62.67 100.47 64.00 99.14 Z" />
</g>
<g id="#b76bbfff">
<path fill="#b76bbf" opacity="1.00" d=" M 63.37 103.97 C 64.82 104.19 66.24 104.58 67.59 105.15 C 67.37 107.36 62.76 105.93 63.37 103.97 Z" />
</g>
<g id="#f9e1cbff">
<path fill="#f9e1cb" opacity="1.00" d=" M 59.17 105.05 C 62.71 106.35 67.90 106.70 68.96 111.08 C 71.37 119.04 77.74 124.87 84.60 129.14 C 85.27 125.11 85.87 121.06 86.62 117.04 C 88.88 118.01 91.13 118.99 93.42 119.89 C 92.36 116.90 90.59 114.25 88.07 112.31 C 88.85 110.23 89.65 108.16 90.42 106.09 C 90.35 106.72 90.21 107.99 90.14 108.63 C 97.08 108.98 104.03 108.84 110.97 108.67 C 117.12 108.55 123.18 107.29 129.33 107.32 C 123.37 109.22 117.29 110.96 111.72 113.84 C 109.33 114.98 108.87 117.83 107.85 119.99 C 115.28 116.73 122.48 112.97 129.97 109.84 C 134.06 107.74 137.96 111.32 141.78 112.48 C 142.18 121.74 141.13 130.99 139.28 140.05 C 140.65 138.58 142.03 137.11 143.33 135.58 C 142.87 139.41 142.49 143.29 141.25 146.97 L 140.91 147.67 C 138.70 152.67 135.19 156.92 131.18 160.59 C 123.64 167.55 115.54 175.56 104.80 176.65 C 98.11 177.45 90.95 176.49 85.18 172.83 C 79.70 169.52 74.88 165.25 70.27 160.84 C 66.85 157.56 63.47 154.08 61.38 149.77 C 60.98 148.90 60.62 148.02 60.29 147.12 C 60.14 146.71 59.84 145.88 59.69 145.47 C 58.13 139.42 56.30 133.37 56.21 127.08 C 55.80 119.61 57.00 112.17 59.17 105.05 Z" />
</g>
<g id="#eac8afff">
<path fill="#eac8af" opacity="1.00" d=" M 150.21 114.30 C 152.75 114.33 155.29 114.37 157.84 114.26 C 162.72 119.84 161.00 127.98 157.53 133.80 C 153.99 139.58 148.60 144.26 142.19 146.60 L 141.25 146.97 C 142.49 143.29 142.87 139.41 143.33 135.58 C 147.40 129.18 149.57 121.83 150.21 114.30 Z" />
</g>
<g id="#e9c8adff">
<path fill="#e9c8ad" opacity="1.00" d=" M 41.36 129.36 C 43.56 124.30 46.45 119.53 50.20 115.47 C 51.26 122.67 51.28 130.16 54.06 137.00 C 55.32 140.19 57.65 142.76 59.69 145.47 C 59.84 145.88 60.14 146.71 60.29 147.12 C 51.70 144.40 44.98 137.48 41.36 129.36 Z" />
</g>
<g id="#1344feff">
<path fill="#1344fe" opacity="1.00" d=" M 157.53 133.80 C 161.40 132.91 165.28 132.08 169.21 131.57 C 169.90 137.12 171.56 142.49 172.72 147.95 C 167.69 147.86 162.79 146.57 157.79 146.24 C 164.00 149.52 170.83 151.36 177.68 152.78 C 176.52 159.52 176.37 166.35 175.82 173.16 C 166.19 169.23 157.70 162.94 150.36 155.65 C 147.46 152.78 145.24 149.31 142.19 146.60 C 148.60 144.26 153.99 139.58 157.53 133.80 Z" />
</g>
<g id="#e40303ff">
<path fill="#e40303" opacity="1.00" d=" M 131.18 160.59 C 135.19 156.92 138.70 152.67 140.91 147.67 C 139.94 155.77 139.41 164.22 135.30 171.49 C 133.76 167.92 132.43 164.27 131.18 160.59 Z" />
</g>
<g id="#e50303ff">
<path fill="#e50303" opacity="1.00" d=" M 61.38 149.77 C 63.47 154.08 66.85 157.56 70.27 160.84 C 69.17 164.13 67.94 167.38 66.52 170.55 C 62.30 164.54 61.88 156.86 61.38 149.77 Z" />
</g>
</svg>
