<?xml version="1.0" encoding="UTF-8" ?>
<!DOCTYPE svg PUBLIC "-//W3C//DTD SVG 1.1//EN" "http://www.w3.org/Graphics/SVG/1.1/DTD/svg11.dtd">
<svg width="200pt" height="200pt" viewBox="0 0 200 200" version="1.1" xmlns="http://www.w3.org/2000/svg">
<g id="#000100ff">
<path fill="#000100" opacity="1.00" d=" M 44.09 61.39 C 60.33 46.09 81.54 35.83 103.95 34.38 C 126.07 32.18 149.46 37.91 166.57 52.48 C 169.08 54.23 168.70 58.65 165.72 59.65 C 161.20 61.48 156.58 63.06 152.25 65.31 C 164.69 72.76 175.30 83.82 180.34 97.60 C 183.00 104.79 184.84 112.41 184.94 120.11 C 184.91 123.11 181.19 124.90 178.72 123.30 C 170.93 119.27 162.52 116.30 153.74 115.49 C 166.66 127.34 173.71 144.67 174.51 162.02 C 174.75 163.96 173.79 166.08 171.87 166.75 C 169.96 167.55 168.09 166.30 166.40 165.55 C 148.17 156.00 126.87 150.95 106.39 154.68 C 94.99 158.53 83.26 162.69 71.03 161.91 C 59.40 161.24 47.05 157.95 38.90 149.12 C 35.55 145.37 29.61 144.41 27.56 139.43 C 25.84 135.96 27.49 132.19 29.63 129.37 C 26.70 121.50 24.94 113.26 23.10 105.09 C 22.01 100.83 22.92 96.52 23.60 92.30 C 20.32 82.42 15.86 72.51 16.04 61.88 C 15.99 58.59 18.65 55.65 21.99 55.60 C 29.75 55.28 37.04 58.56 44.09 61.39 M 105.28 38.32 C 82.55 39.48 60.96 50.21 44.98 66.20 C 37.11 62.98 29.05 58.75 20.26 59.91 C 19.39 71.47 24.48 82.25 28.42 92.82 C 26.65 95.92 25.96 99.52 26.75 103.04 C 28.90 112.62 31.03 122.25 34.79 131.36 C 33.22 132.73 29.87 133.93 30.72 136.55 C 32.46 141.37 38.33 141.88 41.34 145.54 C 47.66 153.04 57.60 156.06 66.97 157.41 C 79.26 158.90 91.41 155.59 102.80 151.27 C 108.94 148.94 115.60 149.49 122.03 149.43 C 138.98 149.09 155.19 155.28 170.29 162.41 C 169.57 142.75 160.05 121.93 142.01 112.55 C 155.33 109.21 169.00 113.45 180.80 119.62 C 180.02 104.06 173.96 88.44 162.22 77.90 C 157.02 72.53 150.27 69.23 144.01 65.34 C 150.32 61.18 157.31 58.33 164.20 55.30 C 154.54 48.27 143.84 42.41 132.02 40.04 C 123.31 37.62 114.21 38.12 105.28 38.32 Z" />
</g>
<g id="#0628d2ff">
<path fill="#0628d2" opacity="1.00" d=" M 105.28 38.32 C 114.21 38.12 123.31 37.62 132.02 40.04 C 143.84 42.41 154.54 48.27 164.20 55.30 C 157.31 58.33 150.32 61.18 144.01 65.34 C 150.27 69.23 157.02 72.53 162.22 77.90 C 173.96 88.44 180.02 104.06 180.80 119.62 C 169.00 113.45 155.33 109.21 142.01 112.55 C 160.05 121.93 169.57 142.75 170.29 162.41 C 155.19 155.28 138.98 149.09 122.03 149.43 C 115.60 149.49 108.94 148.94 102.80 151.27 C 91.41 155.59 79.26 158.90 66.97 157.41 C 57.60 156.06 47.66 153.04 41.34 145.54 C 38.33 141.88 32.46 141.37 30.72 136.55 C 29.87 133.93 33.22 132.73 34.79 131.36 C 31.03 122.25 28.90 112.62 26.75 103.04 C 25.96 99.52 26.65 95.92 28.42 92.82 C 24.48 82.25 19.39 71.47 20.26 59.91 C 29.05 58.75 37.11 62.98 44.98 66.20 C 60.96 50.21 82.55 39.48 105.28 38.32 M 82.87 87.38 C 77.63 88.41 73.54 92.45 71.14 97.06 C 66.61 105.73 66.13 115.93 61.60 124.59 C 59.69 127.92 55.66 128.66 52.14 128.29 C 52.31 130.10 52.44 131.92 52.52 133.74 C 62.35 130.75 72.19 136.68 82.11 134.67 C 87.03 133.65 92.54 131.93 95.31 127.39 C 97.77 123.04 98.90 118.08 99.57 113.17 C 100.42 106.24 100.48 98.59 96.51 92.53 C 93.75 88.02 87.92 85.92 82.87 87.38 M 33.10 99.76 C 31.27 110.80 33.95 122.04 38.43 132.12 C 42.47 133.04 46.26 134.75 50.22 135.96 C 48.62 133.38 46.73 130.95 45.56 128.12 C 43.94 124.61 43.80 120.58 41.83 117.22 C 38.61 111.55 36.65 105.24 33.10 99.76 Z" />
</g>
<g id="#ffffffff">
<path fill="#ffffff" opacity="1.00" d=" M 82.87 87.38 C 87.92 85.92 93.75 88.02 96.51 92.53 C 100.48 98.59 100.42 106.24 99.57 113.17 C 98.90 118.08 97.77 123.04 95.31 127.39 C 92.54 131.93 87.03 133.65 82.11 134.67 C 72.19 136.68 62.35 130.75 52.52 133.74 C 52.44 131.92 52.31 130.10 52.14 128.29 C 55.66 128.66 59.69 127.92 61.60 124.59 C 66.13 115.93 66.61 105.73 71.14 97.06 C 73.54 92.45 77.63 88.41 82.87 87.38 M 84.35 107.33 C 81.78 109.76 82.04 113.76 81.96 117.01 C 82.34 121.80 82.80 127.22 86.18 130.91 C 87.71 132.45 89.24 130.33 89.58 128.88 C 91.16 122.91 90.38 116.41 88.17 110.69 C 87.37 109.24 86.41 106.79 84.35 107.33 Z" />
<path fill="#ffffff" opacity="1.00" d=" M 33.10 99.76 C 36.65 105.24 38.61 111.55 41.83 117.22 C 43.80 120.58 43.94 124.61 45.56 128.12 C 46.73 130.95 48.62 133.38 50.22 135.96 C 46.26 134.75 42.47 133.04 38.43 132.12 C 33.95 122.04 31.27 110.80 33.10 99.76 Z" />
</g>
<g id="#0526d5ff">
<path fill="#0526d5" opacity="1.00" d=" M 84.35 107.33 C 86.41 106.79 87.37 109.24 88.17 110.69 C 90.38 116.41 91.16 122.91 89.58 128.88 C 89.24 130.33 87.71 132.45 86.18 130.91 C 82.80 127.22 82.34 121.80 81.96 117.01 C 82.04 113.76 81.78 109.76 84.35 107.33 Z" />
</g>
</svg>
