<?xml version="1.0" encoding="UTF-8" ?>
<!DOCTYPE svg PUBLIC "-//W3C//DTD SVG 1.1//EN" "http://www.w3.org/Graphics/SVG/1.1/DTD/svg11.dtd">
<svg width="200pt" height="200pt" viewBox="0 0 200 200" version="1.1" xmlns="http://www.w3.org/2000/svg">
<g id="#000000ff">
<path fill="#000000" opacity="1.00" d=" M 40.58 50.53 C 52.77 34.67 71.11 23.28 91.06 20.64 C 117.67 16.81 145.03 29.94 160.71 51.35 C 166.47 59.78 167.32 70.54 165.56 80.36 C 169.62 79.80 173.85 78.81 177.90 79.90 C 180.45 81.26 181.19 84.40 181.00 87.07 C 180.70 93.83 178.70 100.36 176.71 106.77 C 173.37 116.83 169.44 126.81 163.87 135.87 C 161.79 139.39 158.48 142.05 156.77 145.80 C 152.53 154.34 145.83 161.73 137.47 166.38 C 134.82 167.50 135.52 170.98 133.90 172.99 C 131.20 176.61 126.67 178.16 122.48 179.32 C 114.90 181.06 107.19 178.87 100.01 176.46 C 89.67 180.46 77.09 182.12 67.31 175.75 C 64.29 174.01 63.02 170.59 62.53 167.31 C 51.48 161.70 43.19 151.48 38.91 139.94 C 37.53 135.95 34.98 132.54 33.15 128.76 C 28.65 119.72 25.18 110.19 22.41 100.49 C 21.10 95.40 19.69 90.17 20.09 84.86 C 20.30 82.63 21.63 80.10 24.01 79.64 C 27.65 79.09 31.33 79.78 34.96 80.10 C 33.51 70.01 34.35 58.99 40.58 50.53 M 44.21 52.98 C 38.26 60.88 37.83 71.38 39.55 80.77 L 38.33 81.61 C 38.60 82.49 39.14 84.27 39.41 85.16 L 39.46 86.56 C 34.73 84.55 29.46 83.09 24.32 84.25 C 24.03 91.52 26.25 98.54 28.34 105.41 C 31.45 114.40 34.55 123.61 39.80 131.61 C 42.50 137.13 44.36 143.07 47.78 148.23 C 52.43 155.68 59.39 161.64 67.48 165.08 C 67.36 167.00 66.64 169.23 68.10 170.85 C 70.23 173.31 73.51 174.34 76.53 175.25 C 84.45 177.07 92.66 174.99 100.03 172.03 C 109.04 175.47 119.90 178.20 128.60 172.47 C 131.42 171.08 131.59 167.80 131.09 165.08 C 137.90 162.08 144.00 157.45 148.47 151.48 C 151.44 147.71 153.33 143.25 155.87 139.20 C 158.59 137.05 160.26 133.95 162.00 131.02 C 166.93 122.18 170.58 112.68 173.57 103.03 C 175.32 96.89 177.24 90.59 176.74 84.12 C 171.36 83.37 165.58 84.30 160.96 87.24 L 159.29 87.87 C 160.06 85.50 160.62 83.07 161.15 80.63 C 163.66 70.31 162.08 58.46 154.68 50.44 C 139.77 32.81 116.34 21.90 93.10 24.75 C 73.82 26.89 56.00 37.74 44.21 52.98 Z" />
</g>
<g id="#ffe100ff">
<path fill="#ffe100" opacity="1.00" d=" M 44.21 52.98 C 56.00 37.74 73.82 26.89 93.10 24.75 C 116.34 21.90 139.77 32.81 154.68 50.44 C 162.08 58.46 163.66 70.31 161.15 80.63 C 154.26 78.67 147.43 76.35 140.25 75.74 C 133.48 73.84 126.39 74.37 119.51 73.19 C 121.59 72.11 123.91 71.72 126.18 71.25 C 120.06 71.11 114.09 73.05 107.94 72.34 C 99.28 71.69 90.47 73.33 81.91 71.65 C 86.23 69.07 91.14 66.21 92.43 60.95 C 92.43 56.43 92.80 51.76 91.35 47.40 C 88.34 44.08 84.78 40.57 80.04 40.26 C 76.31 40.11 72.15 39.61 68.86 41.74 C 63.87 44.63 59.58 50.00 60.27 56.07 C 59.70 61.57 63.54 66.19 67.68 69.29 C 71.30 72.15 76.16 72.11 80.54 72.48 C 80.20 72.69 79.50 73.09 79.16 73.30 C 72.76 74.60 66.11 73.72 59.80 75.52 C 53.07 77.11 45.58 77.09 39.55 80.77 C 37.83 71.38 38.26 60.88 44.21 52.98 M 119.39 38.58 C 120.94 39.36 123.06 39.34 124.61 38.55 C 123.84 37.18 120.15 37.19 119.39 38.58 M 114.55 40.74 C 105.65 44.70 102.42 57.66 109.02 65.00 C 113.90 71.17 122.90 72.03 129.90 69.54 C 136.02 66.73 139.31 59.55 138.48 53.04 C 137.94 47.14 133.43 42.11 127.95 40.20 C 123.60 38.91 118.76 39.01 114.55 40.74 M 93.47 50.77 C 92.66 54.21 92.83 57.78 93.42 61.24 C 94.67 57.90 94.63 54.13 93.47 50.77 M 139.38 52.43 C 138.71 53.99 138.66 56.03 139.41 57.57 C 140.95 56.98 140.77 53.14 139.38 52.43 Z" />
</g>
<g id="#fce34bff">
<path fill="#fce34b" opacity="1.00" d=" M 119.39 38.58 C 120.15 37.19 123.84 37.18 124.61 38.55 C 123.06 39.34 120.94 39.36 119.39 38.58 Z" />
</g>
<g id="#969ca1ff">
<path fill="#969ca1" opacity="1.00" d=" M 68.86 41.74 C 72.15 39.61 76.31 40.11 80.04 40.26 C 84.78 40.57 88.34 44.08 91.35 47.40 C 92.80 51.76 92.43 56.43 92.43 60.95 C 91.14 66.21 86.23 69.07 81.91 71.65 C 81.57 71.85 80.88 72.27 80.54 72.48 C 76.16 72.11 71.30 72.15 67.68 69.29 C 63.54 66.19 59.70 61.57 60.27 56.07 C 59.58 50.00 63.87 44.63 68.86 41.74 Z" />
<path fill="#969ca1" opacity="1.00" d=" M 114.55 40.74 C 118.76 39.01 123.60 38.91 127.95 40.20 C 133.43 42.11 137.94 47.14 138.48 53.04 C 139.31 59.55 136.02 66.73 129.90 69.54 C 122.90 72.03 113.90 71.17 109.02 65.00 C 102.42 57.66 105.65 44.70 114.55 40.74 Z" />
</g>
<g id="#ead563ff">
<path fill="#ead563" opacity="1.00" d=" M 93.47 50.77 C 94.63 54.13 94.67 57.90 93.42 61.24 C 92.83 57.78 92.66 54.21 93.47 50.77 Z" />
</g>
<g id="#fde138ff">
<path fill="#fde138" opacity="1.00" d=" M 139.38 52.43 C 140.77 53.14 140.95 56.98 139.41 57.57 C 138.66 56.03 138.71 53.99 139.38 52.43 Z" />
</g>
<g id="#dcdcddff">
<path fill="#dcdcdd" opacity="1.00" d=" M 107.94 72.34 C 114.09 73.05 120.06 71.11 126.18 71.25 C 123.91 71.72 121.59 72.11 119.51 73.19 C 126.39 74.37 133.48 73.84 140.25 75.74 C 147.43 76.35 154.26 78.67 161.15 80.63 C 160.62 83.07 160.06 85.50 159.29 87.87 L 160.96 87.24 C 160.54 87.54 159.69 88.14 159.26 88.44 C 154.08 87.37 148.98 85.95 143.75 85.14 C 135.85 84.00 128.00 82.16 119.97 82.14 C 98.55 81.27 76.89 80.94 55.77 85.16 C 50.57 85.99 45.43 87.12 40.38 88.58 C 40.07 87.44 39.74 86.30 39.41 85.16 C 39.14 84.27 38.60 82.49 38.33 81.61 L 39.55 80.77 C 45.58 77.09 53.07 77.11 59.80 75.52 C 66.11 73.72 72.76 74.60 79.16 73.30 C 79.50 73.09 80.20 72.69 80.54 72.48 C 80.88 72.27 81.57 71.85 81.91 71.65 C 90.47 73.33 99.28 71.69 107.94 72.34 Z" />
</g>
<g id="#fad6aaff">
<path fill="#fad6aa" opacity="1.00" d=" M 55.77 85.16 C 76.89 80.94 98.55 81.27 119.97 82.14 C 128.00 82.16 135.85 84.00 143.75 85.14 C 144.71 88.77 146.25 92.21 148.02 95.52 C 146.30 97.34 144.02 99.16 144.09 101.93 C 143.84 109.31 152.06 115.29 158.99 112.24 C 159.34 112.34 160.06 112.54 160.42 112.64 C 156.48 116.75 152.62 120.94 148.54 124.92 C 145.25 121.37 141.90 117.87 138.44 114.49 C 134.23 120.31 129.26 125.60 125.52 131.76 C 124.62 128.56 124.65 125.22 124.31 121.94 C 122.76 116.64 116.88 114.14 111.72 115.30 C 109.06 111.26 105.49 106.45 99.98 107.11 C 94.82 106.94 91.60 111.52 89.31 115.50 C 85.88 115.17 81.88 114.46 79.19 117.20 C 74.63 120.83 75.00 127.19 75.62 132.38 C 71.26 126.25 66.40 120.49 61.90 114.46 C 58.44 117.92 55.09 121.50 51.55 124.89 C 47.31 120.28 42.92 115.82 38.61 111.28 C 41.30 112.15 44.12 113.61 47.02 112.76 C 52.00 111.39 56.02 106.24 55.20 100.96 C 54.92 98.58 52.85 97.10 51.29 95.52 C 53.17 92.25 54.70 88.78 55.77 85.16 Z" />
<path fill="#fad6aa" opacity="1.00" d=" M 39.80 131.61 C 39.85 127.14 37.82 122.82 38.71 118.35 C 43.26 127.65 47.78 136.96 52.25 146.30 C 55.79 142.08 59.15 137.71 62.53 133.37 C 67.22 139.42 70.82 146.36 75.87 152.07 C 82.15 149.56 88.04 146.18 94.28 143.59 C 98.18 145.23 102.42 144.76 106.45 143.96 C 112.76 146.26 118.60 149.67 124.78 152.31 C 129.04 145.99 133.41 139.76 137.59 133.39 C 141.22 137.56 144.52 141.99 148.02 146.26 C 151.56 139.28 154.86 132.18 158.32 125.16 C 159.80 129.97 156.57 134.51 155.87 139.20 C 153.33 143.25 151.44 147.71 148.47 151.48 C 144.00 157.45 137.90 162.08 131.09 165.08 C 131.59 167.80 131.42 171.08 128.60 172.47 C 119.90 178.20 109.04 175.47 100.03 172.03 C 92.66 174.99 84.45 177.07 76.53 175.25 C 73.51 174.34 70.23 173.31 68.10 170.85 C 66.64 169.23 67.36 167.00 67.48 165.08 C 59.39 161.64 52.43 155.68 47.78 148.23 C 44.36 143.07 42.50 137.13 39.80 131.61 Z" />
</g>
<g id="#edc294ff">
<path fill="#edc294" opacity="1.00" d=" M 24.32 84.25 C 29.46 83.09 34.73 84.55 39.46 86.56 L 39.41 85.16 C 39.74 86.30 40.07 87.44 40.38 88.58 C 39.60 89.56 38.48 90.56 38.64 91.95 C 39.58 93.65 41.05 94.95 42.40 96.32 C 40.56 98.67 38.49 101.04 37.86 104.05 C 37.19 106.48 38.14 108.91 38.61 111.28 C 36.53 109.07 34.42 106.89 32.24 104.79 C 34.32 109.34 36.61 113.80 38.71 118.35 C 37.82 122.82 39.85 127.14 39.80 131.61 C 34.55 123.61 31.45 114.40 28.34 105.41 C 26.25 98.54 24.03 91.52 24.32 84.25 Z" />
</g>
<g id="#edc392ff">
<path fill="#edc392" opacity="1.00" d=" M 160.96 87.24 C 165.58 84.30 171.36 83.37 176.74 84.12 C 177.24 90.59 175.32 96.89 173.57 103.03 C 170.58 112.68 166.93 122.18 162.00 131.02 C 160.26 133.95 158.59 137.05 155.87 139.20 C 156.57 134.51 159.80 129.97 158.32 125.16 C 161.47 118.35 164.92 111.69 168.04 104.87 C 165.40 107.35 162.94 110.02 160.42 112.64 C 160.06 112.54 159.34 112.34 158.99 112.24 C 164.27 107.78 161.11 100.36 157.03 96.29 C 158.38 94.72 160.61 93.46 160.75 91.20 C 160.32 90.24 159.77 89.35 159.26 88.44 C 159.69 88.14 160.54 87.54 160.96 87.24 Z" />
</g>
<g id="#5e3819ff">
<path fill="#5e3819" opacity="1.00" d=" M 40.38 88.58 C 45.43 87.12 50.57 85.99 55.77 85.16 C 54.70 88.78 53.17 92.25 51.29 95.52 C 52.85 97.10 54.92 98.58 55.20 100.96 C 56.02 106.24 52.00 111.39 47.02 112.76 C 44.12 113.61 41.30 112.15 38.61 111.28 C 38.14 108.91 37.19 106.48 37.86 104.05 C 38.49 101.04 40.56 98.67 42.40 96.32 C 41.05 94.95 39.58 93.65 38.64 91.95 C 38.48 90.56 39.60 89.56 40.38 88.58 Z" />
</g>
<g id="#5e381aff">
<path fill="#5e381a" opacity="1.00" d=" M 143.75 85.14 C 148.98 85.95 154.08 87.37 159.26 88.44 C 159.77 89.35 160.32 90.24 160.75 91.20 C 160.61 93.46 158.38 94.72 157.03 96.29 C 161.11 100.36 164.27 107.78 158.99 112.24 C 152.06 115.29 143.84 109.31 144.09 101.93 C 144.02 99.16 146.30 97.34 148.02 95.52 C 146.25 92.21 144.71 88.77 143.75 85.14 Z" />
</g>
<g id="#150300ff">
<path fill="#150300" opacity="1.00" d=" M 32.24 104.79 C 34.42 106.89 36.53 109.07 38.61 111.28 C 42.92 115.82 47.31 120.28 51.55 124.89 C 55.09 121.50 58.44 117.92 61.90 114.46 C 66.40 120.49 71.26 126.25 75.62 132.38 C 78.34 136.97 83.77 139.30 88.96 137.87 C 90.58 139.91 92.28 141.91 94.28 143.59 C 88.04 146.18 82.15 149.56 75.87 152.07 C 70.82 146.36 67.22 139.42 62.53 133.37 C 59.15 137.71 55.79 142.08 52.25 146.30 C 47.78 136.96 43.26 127.65 38.71 118.35 C 36.61 113.80 34.32 109.34 32.24 104.79 Z" />
<path fill="#150300" opacity="1.00" d=" M 160.42 112.64 C 162.94 110.02 165.40 107.35 168.04 104.87 C 164.92 111.69 161.47 118.35 158.32 125.16 C 154.86 132.18 151.56 139.28 148.02 146.26 C 144.52 141.99 141.22 137.56 137.59 133.39 C 133.41 139.76 129.04 145.99 124.78 152.31 C 118.60 149.67 112.76 146.26 106.45 143.96 C 108.28 142.03 110.10 140.10 111.88 138.12 C 116.75 139.10 121.29 136.89 124.34 133.16 C 124.22 129.42 124.48 125.68 124.31 121.94 C 124.65 125.22 124.62 128.56 125.52 131.76 C 129.26 125.60 134.23 120.31 138.44 114.49 C 141.90 117.87 145.25 121.37 148.54 124.92 C 152.62 120.94 156.48 116.75 160.42 112.64 Z" />
</g>
<g id="#db5e93ff">
<path fill="#db5e93" opacity="1.00" d=" M 89.31 115.50 C 91.60 111.52 94.82 106.94 99.98 107.11 C 105.49 106.45 109.06 111.26 111.72 115.30 C 116.88 114.14 122.76 116.64 124.31 121.94 C 124.48 125.68 124.22 129.42 124.34 133.16 C 121.29 136.89 116.75 139.10 111.88 138.12 C 110.10 140.10 108.28 142.03 106.45 143.96 C 102.42 144.76 98.18 145.23 94.28 143.59 C 92.28 141.91 90.58 139.91 88.96 137.87 C 83.77 139.30 78.34 136.97 75.62 132.38 C 75.00 127.19 74.63 120.83 79.19 117.20 C 81.88 114.46 85.88 115.17 89.31 115.50 Z" />
</g>
</svg>
