<?xml version="1.0" encoding="UTF-8" ?>
<!DOCTYPE svg PUBLIC "-//W3C//DTD SVG 1.1//EN" "http://www.w3.org/Graphics/SVG/1.1/DTD/svg11.dtd">
<svg width="200pt" height="200pt" viewBox="0 0 200 200" version="1.1" xmlns="http://www.w3.org/2000/svg">
<g id="#000000ff">
<path fill="#000000" opacity="1.00" d=" M 78.62 33.80 C 83.60 29.06 91.32 29.14 97.37 31.59 C 107.95 36.14 114.38 47.16 116.45 58.11 C 127.83 55.43 140.11 55.40 151.10 59.73 C 165.75 65.32 177.51 77.95 181.90 93.02 C 186.88 109.33 182.99 127.99 171.82 140.89 C 159.75 155.34 139.37 162.26 121.04 157.70 C 107.97 168.75 89.51 172.37 72.99 168.55 C 65.76 167.01 59.01 163.89 52.59 160.30 C 43.17 160.33 32.53 158.36 26.35 150.55 C 21.67 144.10 24.39 135.43 28.38 129.36 C 23.80 125.50 19.73 120.72 18.02 114.87 C 15.97 108.10 16.79 100.03 21.67 94.63 C 25.27 90.45 30.60 88.37 35.83 87.09 C 33.68 81.76 32.23 75.68 34.09 70.06 C 36.33 64.50 41.95 61.22 47.40 59.44 C 48.98 50.22 53.31 40.53 62.08 36.15 C 67.13 33.25 73.10 33.58 78.62 33.80 M 84.78 34.90 C 82.59 35.41 81.47 37.49 80.27 39.17 C 74.05 37.27 66.80 37.48 61.44 41.52 C 54.58 46.49 51.81 55.13 51.10 63.23 C 45.79 63.96 40.16 66.65 37.81 71.71 C 36.03 78.33 38.82 85.19 42.43 90.68 C 36.26 91.13 29.66 92.54 25.11 97.03 C 20.96 101.14 20.21 107.61 21.61 113.07 C 23.38 119.72 28.48 124.87 34.07 128.58 C 30.76 133.06 27.36 138.19 27.94 144.04 C 28.26 147.90 31.41 150.70 34.59 152.48 C 40.18 155.50 46.74 156.68 53.05 155.87 C 57.31 158.40 61.75 160.80 66.49 162.25 C 83.90 169.38 105.79 166.32 119.59 153.17 C 137.81 158.85 158.83 151.27 169.97 135.96 C 179.14 123.89 181.75 107.25 176.87 92.91 C 172.48 79.55 161.74 68.52 148.56 63.65 C 136.97 59.28 123.97 60.01 112.34 63.84 C 112.27 55.16 108.66 46.58 102.54 40.43 C 98.03 35.82 91.17 33.12 84.78 34.90 Z" />
</g>
<g id="#5db432ff">
<path fill="#5db432" opacity="1.00" d=" M 84.78 34.90 C 91.17 33.12 98.03 35.82 102.54 40.43 C 108.66 46.58 112.27 55.16 112.34 63.84 C 123.97 60.01 136.97 59.28 148.56 63.65 C 161.74 68.52 172.48 79.55 176.87 92.91 C 181.75 107.25 179.14 123.89 169.97 135.96 C 158.83 151.27 137.81 158.85 119.59 153.17 C 117.58 152.49 115.58 151.76 113.64 150.89 C 100.86 144.80 90.71 133.58 85.60 120.42 C 84.42 117.51 83.96 114.34 82.52 111.55 C 73.74 100.03 55.66 96.91 44.00 105.93 C 35.38 112.09 34.20 123.99 36.81 133.53 C 33.67 126.20 32.04 118.04 33.50 110.11 C 35.09 101.13 40.26 93.04 47.09 87.11 C 49.23 85.31 51.29 83.00 51.12 79.99 C 51.09 74.41 50.48 68.81 51.10 63.23 C 51.81 55.13 54.58 46.49 61.44 41.52 C 66.80 37.48 74.05 37.27 80.27 39.17 C 81.47 37.49 82.59 35.41 84.78 34.90 Z" />
</g>
<g id="#ee582cff">
<path fill="#ee582c" opacity="1.00" d=" M 37.81 71.71 C 40.16 66.65 45.79 63.96 51.10 63.23 C 50.48 68.81 51.09 74.41 51.12 79.99 C 51.29 83.00 49.23 85.31 47.09 87.11 C 40.26 93.04 35.09 101.13 33.50 110.11 C 32.04 118.04 33.67 126.20 36.81 133.53 C 39.59 142.48 44.91 150.92 53.05 155.87 C 46.74 156.68 40.18 155.50 34.59 152.48 C 31.41 150.70 28.26 147.90 27.94 144.04 C 27.36 138.19 30.76 133.06 34.07 128.58 C 28.48 124.87 23.38 119.72 21.61 113.07 C 20.21 107.61 20.96 101.14 25.11 97.03 C 29.66 92.54 36.26 91.13 42.43 90.68 C 38.82 85.19 36.03 78.33 37.81 71.71 Z" />
</g>
<g id="#ffffffff">
<path fill="#ffffff" opacity="1.00" d=" M 44.00 105.93 C 55.66 96.91 73.74 100.03 82.52 111.55 C 83.96 114.34 84.42 117.51 85.60 120.42 C 90.71 133.58 100.86 144.80 113.64 150.89 C 106.09 159.61 94.27 163.19 83.04 163.35 C 77.49 163.60 72.05 162.09 66.49 162.25 C 61.75 160.80 57.31 158.40 53.05 155.87 C 44.91 150.92 39.59 142.48 36.81 133.53 C 34.20 123.99 35.38 112.09 44.00 105.93 Z" />
</g>
<g id="#bec6c6ff">
<path fill="#bec6c6" opacity="1.00" d=" M 113.64 150.89 C 115.58 151.76 117.58 152.49 119.59 153.17 C 105.79 166.32 83.90 169.38 66.49 162.25 C 72.05 162.09 77.49 163.60 83.04 163.35 C 94.27 163.19 106.09 159.61 113.64 150.89 Z" />
</g>
</svg>
