<?xml version="1.0" encoding="UTF-8"?>
<!DOCTYPE svg  PUBLIC '-//W3C//DTD SVG 20010904//EN'  'http://www.w3.org/TR/2001/REC-SVG-20010904/DTD/svg10.dtd'>
<svg width="300pt" height="300pt" version="1.0" viewBox="0 0 300 300" xmlns="http://www.w3.org/2000/svg">
<g transform="translate(0 300) scale(.1 -.1)" fill="#C53139">
<path d="m0 1920v-1080l163 2 162 3 3 1078 2 1077h-165-165v-1080z"/>
<path d="m812 1923 3-1078 1093-3 1092-2v1080 1080h-1095-1095l2-1077zm585 566c15-5 43-24 61-42l32-31v42 42h170 170v-538-538l-27-55c-33-65-90-104-174-119-31-6-167-9-315-8l-259 3v120 120l200 5c110 3 206 9 213 13 7 5 12 31 12 69v62l-27-26c-40-38-74-48-162-48-147 0-240 51-269 147-16 54-17 596-1 644 24 69 74 117 149 140 38 11 195 10 227-2zm950 0c15-5 43-24 61-42l32-31v42 42h170 171l-3-548-3-549-30-49c-24-37-45-56-90-79l-59-30h-295-296l-3 123-3 122h196c116 0 204 4 216 10 15 9 19 22 19 71v60l-41-33c-38-31-47-33-129-36-149-6-241 34-281 123-17 36-19 71-19 343 0 251 3 309 15 340 26 60 73 101 145 123 38 11 195 10 227-2z"/>
<path d="m1364 2227c-2-7-3-100-2-207l3-195 43-3c71-5 72-4 72 207 0 132-4 191-12 199-16 16-97 16-104-1z"/>
<path d="m2317 2233c-12-11-8-401 4-408 17-11 79-8 94 5 12 10 15 47 15 199 0 132-4 191-12 199-13 13-90 17-101 5z"/>
<path d="m0 345v-345h165 165v345 345h-165-165v-345z"/>
<path d="m810 345v-345h1095 1095v345 345h-1095-1095v-345z"/>
</g>
</svg>